<?xml version="1.0" standalone="no"?>
<!DOCTYPE svg PUBLIC "-//W3C//DTD SVG 1.1//EN" "http://www.w3.org/Graphics/SVG/1.1/DTD/svg11.dtd" >
<svg xmlns="http://www.w3.org/2000/svg">
<metadata>
Created by FontPrep 20130207 at Fri Aug 15 12:33:34 2014
 By Simon Petersen
Copyright (c) 2012 by atipo. All rights reserved.
</metadata>
<defs>
<font id="919e9885cec3eeabc9f721776998b7ef" horiz-adv-x='1024' >
  <font-face 
    font-family="Bariol-Bold"
    font-weight="700"
    font-stretch="normal"
    units-per-em="2048"
    panose-1="2 0 5 6 4 0 0 2 0 3"
    ascent="1612"
    descent="-436"
    x-height="930"
    cap-height="1395"
    bbox="-274.014 -563 2243 2089.13"
    underline-thickness="40"
    underline-position="-231"
    unicode-range="U+0020-FB06"
  />
<missing-glyph horiz-adv-x="1187" 
d="M82 1434h1024v-1434h-1024v1434zM180 98h828v1235h-828v-1235zM625 469h-97v80q0 76 34 139t75 98q110 94 108 185q0 67 -45 105t-110 38q-162 0 -162 -166h-98q0 135 72 202q73 67 188 67q114 1 186 -61t72 -174t-78 -192q-33 -34 -67 -66q-80 -75 -78 -175v-80z
M633 254h-113v113h113v-113z" />
    <glyph glyph-name="ellipsis" unicode="&#x2e;&#x2e;&#x2e;" horiz-adv-x="1482" 
d="M1252 -16q-134 0 -134 135t134 135t134 -135t-134 -135zM230 -16q-134 0 -134 135t134 135t134 -135t-134 -135zM740 -16q-134 0 -134 135t134 135t134 -135t-134 -135z" />
    <glyph glyph-name="f_f" unicode="ff" horiz-adv-x="1288" 
d="M797 745h-408v-655q0 -45 -32 -76q-31 -30 -79 -30t-79 30t-31 76v655h-43q-39 0 -66 27t-26 66q1 40 27 66t65 26h43v110q0 154 101 258t290 105q39 0 68 -28q29 -29 29 -69t-30 -68q-28 -28 -67 -28q-82 0 -126 -42t-44 -111v-127h408v110q0 154 101 258t290 105
q40 0 68 -28q28 -29 28 -69t-28 -68t-68 -28q-82 0 -126 -42t-44 -111v-127h137q39 0 66 -27t27 -65t-28 -66q-26 -27 -65 -27h-137v-655q0 -45 -32 -76q-32 -30 -80 -30t-79 30t-30 76v655z" />
    <glyph glyph-name="fi" unicode="fi" horiz-adv-x="1075" 
d="M973 819v-725q0 -45 -32 -78q-32 -32 -79 -32t-79 32t-31 78v651h-363v-655q0 -45 -32 -76q-31 -30 -79 -30t-79 30t-31 76v655h-43q-39 0 -66 27t-26 66q1 40 27 66t65 26h43v96q0 154 108 266t280 111q306 0 306 -139q0 -43 -31 -74t-62 -31q-31 -1 -85 19t-124 20
q-69 0 -120 -44t-51 -112v-112h473q47 0 79 -33t32 -78z" />
    <glyph glyph-name="fl" unicode="fl" horiz-adv-x="1136" 
d="M389 1042v-112h363v237q-84 31 -172 31t-140 -44q-51 -44 -51 -112zM973 1225v-1000q0 -16 13 -26t26 -11q42 0 72 -30t30 -72q0 -43 -30 -73t-72 -29q-121 0 -191 68t-69 194v499h-363v-655q0 -45 -32 -76q-31 -30 -79 -30t-79 30t-31 76v655h-43q-39 0 -66 27t-26 66
q1 40 27 66t65 26h43v96q0 154 108 266t308 111q200 0 334 -82q55 -35 55 -96z" />
    <glyph glyph-name="f_f_i" unicode="ffi" horiz-adv-x="1703" 
d="M1602 819v-725q0 -45 -33 -78q-33 -32 -78 -32t-78 32t-33 78v651h-362v-655q0 -45 -32 -76q-32 -30 -80 -30t-79 30t-30 76v655h-408v-655q0 -45 -32 -76q-31 -30 -79 -30t-79 30t-31 76v655h-43q-39 0 -66 27t-26 66q1 40 27 66t65 26h43v110q0 154 101 258t290 105
q39 0 68 -28q29 -29 29 -69t-30 -68q-28 -28 -67 -28q-82 0 -126 -42t-44 -111v-127h408v96q1 154 109 266t279 111q306 0 306 -139q0 -43 -31 -74q-32 -31 -62 -31q-30 -1 -86 19t-124 20t-119 -44t-51 -112v-112h473q45 0 78 -33t33 -78z" />
    <glyph glyph-name="f_f_l" unicode="ffl" horiz-adv-x="1763" 
d="M1016 1042v-112h362v237q-84 31 -172 31t-139 -44t-51 -112zM1599 1225v-1000q-1 -16 13 -26t26 -11q43 0 73 -30t30 -72q0 -43 -30 -73t-73 -29q-120 0 -190 68t-70 194v499h-362v-655q0 -45 -32 -76q-32 -30 -80 -30t-79 30t-30 76v655h-406v-655q0 -45 -32 -76
q-31 -30 -79 -30t-79 30t-31 76v655h-43q-39 0 -66 27t-26 66q1 40 27 66t65 26h43v110q0 154 101 258t290 105q39 0 68 -28q29 -29 29 -69t-30 -68q-28 -28 -67 -28q-82 0 -126 -42t-44 -111v-127h406v96q1 154 109 266t308 111q200 0 332 -82q55 -35 55 -96z" />
    <glyph glyph-name="f_j" unicode="fj" horiz-adv-x="1075" 
d="M752 -16v761h-363v-655q0 -45 -32 -76q-31 -30 -79 -30t-79 30t-31 76v655h-43q-39 0 -66 27t-26 66q1 40 27 66t65 26h43v96q0 154 108 266t280 111q306 0 306 -139q0 -43 -31 -74t-62 -31q-31 -1 -85 19t-124 20q-69 0 -120 -44t-51 -112v-112h473q47 0 79 -33t32 -78
v-835q0 -136 -94 -230t-238 -94q-41 0 -72 31t-31 71t31 72q31 31 76 31t76 35t31 84z" />
    <glyph glyph-name="f_b" unicode="fb" horiz-adv-x="1675" 
d="M389 745v-655q0 -45 -32 -76q-31 -30 -79 -30t-79 30t-31 76v655h-43q-39 0 -66 27t-26 66q1 40 27 66t65 26h43v96q0 154 108 266t308 111q200 0 334 -82q55 -35 55 -96v-348q82 82 225 81q200 0 308 -124t108 -369q0 -246 -114 -369t-316 -123q-202 -1 -317 105
q-116 106 -115 305v784q-84 31 -172 31t-140 -44q-51 -44 -51 -112v-112h137q39 0 66 -27q26 -27 26 -65t-26 -66q-26 -27 -66 -27h-137zM973 383q0 -105 56 -163t147 -58q219 0 219 303q-1 149 -57 227t-162 78q-56 0 -106 -27t-75 -51l-22 -26v-283z" />
    <glyph glyph-name="f_f_b" unicode="ffb" horiz-adv-x="2304" 
d="M1602 383q0 -105 56 -163t146 -58q219 0 219 303q0 149 -56 227t-163 78q-55 0 -105 -27t-73 -51l-24 -26v-283zM1018 745v-655q0 -45 -32 -76q-32 -30 -80 -30t-79 30t-30 76v655h-408v-655q0 -45 -32 -76q-31 -30 -79 -30t-79 30t-31 76v655h-43q-39 0 -66 27t-26 66
q1 40 27 66t65 26h43v110q0 154 101 258t290 105q39 0 68 -28q29 -29 29 -69t-30 -68q-28 -28 -67 -28q-82 0 -126 -42t-44 -111v-127h408v96q1 154 109 266t308 111q200 0 332 -82q55 -35 56 -96v-348q82 82 225 81q199 0 307 -124t109 -369q0 -246 -114 -369t-316 -123
q-201 -1 -317 105t-116 305v784q-84 31 -172 31t-139 -44t-51 -112v-112h137q39 0 66 -27t27 -65t-28 -66q-26 -27 -65 -27h-137z" />
    <glyph glyph-name="f_h" unicode="fh" horiz-adv-x="1671" 
d="M752 90v1077q-84 31 -172 31t-140 -44q-51 -44 -51 -112v-112h137q39 0 66 -27q26 -27 26 -65t-26 -66q-26 -27 -66 -27h-137v-655q0 -45 -32 -76q-31 -30 -79 -30t-79 30t-31 76v655h-43q-39 0 -66 27t-26 66q1 40 27 66t65 26h43v96q0 154 108 266t308 111
q200 0 334 -82q55 -35 55 -96v-389q80 123 262 122q344 0 344 -356v-512q0 -45 -32 -76q-32 -30 -80 -30q-49 0 -79 30t-30 76v471q0 197 -180 197q-205 0 -205 -211v-457q0 -45 -32 -76q-32 -30 -79 -30t-79 30q-31 31 -31 76z" />
    <glyph glyph-name="f_f_h" unicode="ffh" horiz-adv-x="2299" 
d="M1380 90v1077q-84 31 -172 31t-139 -44t-51 -112v-112h137q39 0 66 -27t27 -65t-28 -66q-26 -27 -65 -27h-137v-655q0 -45 -32 -76q-32 -30 -80 -30t-79 30t-30 76v655h-408v-655q0 -45 -32 -76q-31 -30 -79 -30t-79 30t-31 76v655h-43q-39 0 -66 27t-26 66q1 40 27 66
t65 26h43v110q0 154 101 258t290 105q39 0 68 -28q29 -29 29 -69t-30 -68q-28 -28 -67 -28q-82 0 -126 -42t-44 -111v-127h408v96q1 154 109 266t308 111q200 0 332 -82q55 -35 56 -96v-389q80 123 262 122q344 0 344 -356v-512q0 -45 -32 -76q-32 -30 -80 -30t-79 30
t-30 76v471q0 197 -181 197q-205 0 -204 -211v-457q0 -45 -32 -76q-32 -30 -79 -30t-79 30t-32 76z" />
    <glyph glyph-name="f_k" unicode="fk" horiz-adv-x="1566" 
d="M973 1225v-596l370 291q35 26 76 26t72 -31t31 -79t-41 -80l-269 -205l301 -395q23 -31 23 -71t-31 -71q-31 -30 -79 -30t-83 43l-305 409l-65 -51v-295q0 -45 -32 -76q-32 -30 -79 -30t-79 30t-31 76v1077q-84 31 -172 31t-140 -44q-51 -44 -51 -112v-112h137
q39 0 66 -27q26 -27 26 -65t-26 -66q-26 -27 -66 -27h-137v-655q0 -45 -32 -76q-31 -30 -79 -30t-79 30t-31 76v655h-43q-39 0 -66 27t-26 66q1 40 27 66t65 26h43v96q0 154 108 266t308 111q200 0 334 -82q55 -35 55 -96z" />
    <glyph glyph-name="f_f_k" unicode="ffk" horiz-adv-x="2195" 
d="M1602 1225v-596l370 291q35 26 76 26t72 -31q30 -31 30 -79t-41 -80l-268 -205l301 -395q23 -31 23 -71t-31 -71q-31 -30 -80 -30t-82 43l-305 409l-65 -51v-295q0 -45 -32 -76q-32 -30 -79 -30t-79 30t-32 76v1077q-84 31 -172 31t-139 -44t-51 -112v-112h137
q39 0 66 -27t27 -65t-28 -66q-26 -27 -65 -27h-137v-655q0 -45 -32 -76q-32 -30 -80 -30t-79 30t-30 76v655h-408v-655q0 -45 -32 -76q-31 -30 -79 -30t-79 30t-31 76v655h-43q-39 0 -66 27t-26 66q1 40 27 66t65 26h43v110q0 154 101 258t290 105q39 0 68 -28
q29 -29 29 -69t-30 -68q-28 -28 -67 -28q-82 0 -126 -42t-44 -111v-127h408v96q1 154 109 266t308 111q200 0 332 -82q56 -35 56 -96z" />
    <glyph glyph-name="f_f_j" unicode="ffj" horiz-adv-x="1703" 
d="M1380 -16v761h-362v-655q0 -45 -32 -76q-32 -30 -80 -30t-79 30t-30 76v655h-408v-655q0 -45 -32 -76q-31 -30 -79 -30t-79 30t-31 76v655h-43q-39 0 -66 27t-26 66q1 40 27 66t65 26h43v110q0 154 101 258t290 105q39 0 68 -28q29 -29 29 -69t-30 -68q-28 -28 -67 -28
q-82 0 -126 -42t-44 -111v-127h408v96q1 154 109 266t279 111q306 0 306 -139q0 -43 -31 -74q-32 -31 -62 -31q-30 -1 -86 19t-124 20t-119 -44t-51 -112v-112h473q45 0 78 -33t33 -78v-835q0 -136 -94 -230t-238 -94q-41 0 -72 31t-31 71t31 72q31 31 76 31t76 35
q30 35 30 84z" />
    <glyph glyph-name=".notdef" horiz-adv-x="1187" 
d="M82 1434h1024v-1434h-1024v1434zM180 98h828v1235h-828v-1235zM625 469h-97v80q0 76 34 139t75 98q110 94 108 185q0 67 -45 105t-110 38q-162 0 -162 -166h-98q0 135 72 202q73 67 188 67q114 1 186 -61t72 -174t-78 -192q-33 -34 -67 -66q-80 -75 -78 -175v-80z
M633 254h-113v113h113v-113z" />
    <glyph glyph-name=".null" horiz-adv-x="0" 
 />
    <glyph glyph-name="nonmarkingreturn" horiz-adv-x="681" 
 />
    <glyph glyph-name="space" unicode=" " horiz-adv-x="462" 
 />
    <glyph glyph-name="exclam" unicode="!" horiz-adv-x="434" 
d="M218 -16q-134 0 -134 135t134 135t134 -135t-134 -135zM218 1395q132 0 126 -115l-39 -815q-4 -78 -88 -78t-88 78l-37 815q-6 115 126 115z" />
    <glyph glyph-name="quotedbl" unicode="&#x22;" horiz-adv-x="598" 
d="M427 909q-75 0 -79 74l-18 328q-4 84 98 84q49 0 74 -22t22 -62l-18 -328q-4 -74 -79 -74zM172 1395q49 0 74 -22t22 -62l-18 -328q-4 -74 -79 -74t-79 74l-18 328q-4 84 98 84z" />
    <glyph glyph-name="numbersign" unicode="#" horiz-adv-x="1169" 
d="M512 768l-33 -195h166l31 195h-164zM301 -23q-43 0 -71 28t-27 71q0 8 4 33l45 280h-66q-40 0 -66 27q-26 28 -26 66t27 65t65 26h95l30 195h-75q-39 0 -66 27t-27 65t27 66q27 27 66 26h104l49 303q6 35 34 58q29 23 67 23t67 -28t29 -67q0 -8 -2 -24l-43 -265h164
l49 303q6 35 33 58q28 23 67 23t68 -28t28 -67q0 -8 -2 -24l-43 -265h78q39 0 66 -26t27 -66t-28 -66q-26 -26 -65 -26h-106l-33 -195h90q40 -1 66 -27t26 -65t-27 -65t-65 -27h-119l-53 -332q-14 -80 -96 -80q-43 0 -71 28t-28 71q0 8 4 33l45 280h-165l-54 -332
q-14 -80 -96 -80z" />
    <glyph glyph-name="dollar" unicode="$" horiz-adv-x="1173" 
d="M690 1518v-119q262 -33 369 -185q20 -30 20 -70q-1 -40 -33 -72t-74 -32t-91 45q-113 109 -287 109q-119 0 -176 -47q-58 -47 -58 -111t56 -110q56 -45 138 -69q83 -23 180 -61t180 -81q82 -43 138 -130t56 -208q0 -171 -108 -275t-310 -125v-114q0 -39 -28 -68t-67 -29
q-40 0 -68 30q-28 28 -27 67v114q-143 18 -256 86t-168 158q-16 27 -16 65t31 70q32 32 77 33q45 0 90 -45q156 -156 336 -156q276 0 276 189q0 112 -148 175q-68 28 -146 52q-190 59 -305 134q-67 44 -107 119q-41 75 -41 175q0 144 94 246t283 123v117q0 40 28 68t67 28
t67 -28t28 -68z" />
    <glyph glyph-name="percent" unicode="%" horiz-adv-x="1564" 
d="M1085 1395q53 0 81 -28q28 -27 28 -57t-10 -50l-643 -1227q-29 -49 -78 -49t-77 26t-28 59q0 32 11 52l643 1222q21 52 73 52zM1176 641q315 0 315 -334q0 -153 -76 -243q-77 -90 -241 -90t-239 90q-75 92 -75 243q1 334 316 334zM1305 307q0 162 -130 162t-130 -162
t130 -162t130 162zM389 1407q315 0 316 -334q0 -152 -76 -243t-241 -91t-240 91t-74 243q0 334 315 334zM258 1073q0 -162 130 -162t130 162t-130 162t-130 -162z" />
    <glyph glyph-name="ampersand" unicode="&#x26;" horiz-adv-x="1298" 
d="M1143 -16q-78 0 -252 116q-150 -129 -363 -129q-213 -1 -337 105q-123 106 -123 300t204 351q-86 177 -86 325t89 252t243 103q154 0 234 -93t79 -227q0 -207 -276 -417q129 -166 301 -283q16 25 51 113q29 82 107 82q45 0 77 -33q31 -33 31 -65t-18 -90
q-18 -60 -70 -130q27 -18 150 -80q63 -31 63 -96q0 -43 -30 -74q-31 -30 -74 -30zM518 172q100 0 193 61q-197 139 -326 318q-92 -80 -92 -175t62 -150q63 -54 163 -54zM408 1053q0 -102 43 -205q160 113 159 239q0 51 -23 85q-24 34 -71 34q-108 1 -108 -153z" />
    <glyph glyph-name="quotesingle" unicode="'" horiz-adv-x="342" 
d="M172 1395q49 0 74 -22t22 -62l-18 -328q-4 -74 -79 -74t-79 74l-18 328q-4 84 98 84z" />
    <glyph glyph-name="parenleft" unicode="(" horiz-adv-x="645" 
d="M82 606q0 406 80 610t276 285q26 10 56 10q30 1 60 -29t30 -71q0 -67 -60 -93q-110 -48 -166 -181q-40 -96 -49 -321q-2 -77 -2 -210q0 -402 54 -534q54 -131 163 -178q59 -27 60 -93q0 -41 -30 -71t-60 -29q-30 0 -56 10q-196 81 -276 285t-80 610z" />
    <glyph glyph-name="parenright" unicode=")" horiz-adv-x="645" 
d="M563 606q0 -406 -80 -610t-276 -285q-25 -10 -55 -10t-61 30q-30 30 -30 70q0 66 60 93q168 74 201 331q16 125 16 320q0 194 -2 271q-6 215 -55 335q-50 119 -160 168q-59 27 -60 92q0 41 30 71q47 47 116 19q197 -81 277 -285t79 -610z" />
    <glyph glyph-name="asterisk" unicode="*" horiz-adv-x="757" 
d="M377 1458q33 0 49 -12t14 -45l-6 -182l182 53q57 18 74 -43q16 -68 -41 -80l-180 -31l117 -160q34 -46 -18 -82t-85 15l-106 168l-107 -168q-33 -51 -85 -15t-17 82l117 160l-181 31q-57 12 -41 80q16 61 74 43l182 -53l-6 182q-1 33 15 45t49 12z" />
    <glyph glyph-name="plus" unicode="+" horiz-adv-x="929" 
d="M930 446q0 -38 -28 -66t-66 -28h-273v-270q1 -41 -29 -70q-30 -28 -69 -28t-69 28t-29 70v270h-273q-38 0 -66 28t-28 66t28 67q28 28 66 28h273v272q0 39 29 69q30 30 69 30t69 -30t29 -69v-272h273q38 0 66 -28t28 -67z" />
    <glyph glyph-name="comma" unicode="," horiz-adv-x="460" 
d="M96 117q0 137 134 137t134 -141t-64 -263q-65 -122 -150 -188q-16 -12 -34 -12t-31 13t-13 29t22 45q22 28 35 47q41 56 41 114q0 59 -37 119t-37 100z" />
    <glyph glyph-name="hyphen" unicode="-" horiz-adv-x="774" 
d="M686 516q0 -38 -28 -66t-66 -28h-410q-38 0 -66 28t-28 66t28 67q28 28 66 27h410q38 0 66 -28t28 -66z" />
    <glyph glyph-name="period" unicode="." horiz-adv-x="460" 
d="M230 -16q-134 0 -134 135t134 135t134 -135t-134 -135z" />
    <glyph glyph-name="slash" unicode="/" horiz-adv-x="864" 
d="M700 1538q45 0 78 -32t33 -66t-8 -56l-535 -1513q-27 -72 -104 -72q-45 0 -78 33q-33 34 -33 66t8 55l535 1513q27 72 104 72z" />
    <glyph glyph-name="zero" unicode="0" horiz-adv-x="1251" 
d="M626 1407q275 0 405 -175t130 -543t-130 -543t-405 -175t-406 175q-130 175 -130 544t130 543q131 174 406 174zM627 178q157 0 229 121t72 390t-72 391t-230 122t-230 -123t-72 -391t72 -389t231 -121z" />
    <glyph glyph-name="one" unicode="1" horiz-adv-x="724" 
d="M49 1094q0 54 49 86l295 190q39 25 79 25t75 -35t35 -82v-1178q0 -47 -35 -82q-35 -34 -82 -34t-82 34t-35 82v975l-119 -80q-29 -23 -71 -23t-76 35q-33 33 -33 87z" />
    <glyph glyph-name="two" unicode="2" horiz-adv-x="1132" 
d="M575 1407q221 0 347 -115t127 -305q-1 -102 -53 -195t-132 -159q-160 -132 -291 -209q-131 -76 -183 -125t-52 -90h629q43 0 73 -31t31 -74q0 -44 -31 -74t-73 -30h-783q-44 0 -74 31t-30 73q0 124 76 226t184 173t216 137t184 155q76 88 75 185q0 98 -63 160t-177 62
q-164 0 -233 -147q-35 -66 -92 -66t-89 32q-32 31 -32 67t10 59q51 119 163 189t273 71z" />
    <glyph glyph-name="three" unicode="3" horiz-adv-x="1153" 
d="M246 1169q-43 0 -74 31t-31 74t31 74t74 30h655q43 0 74 -30t31 -73q0 -42 -27 -71l-299 -338q201 -24 289 -146t88 -320t-128 -312q-128 -115 -376 -115q-151 -1 -275 63t-194 165q-18 29 -18 67t31 71q32 32 80 32t95 -54q120 -139 268 -139t216 62t67 176
q0 246 -243 246h-127q-47 0 -79 30t-32 73q0 42 27 75l288 329h-411z" />
    <glyph glyph-name="four" unicode="4" horiz-adv-x="1148" 
d="M688 504v471l-323 -471h323zM922 504h71q43 0 74 -31t31 -74t-31 -73t-74 -31h-71v-195q0 -47 -35 -82q-35 -34 -82 -34t-82 34t-35 82v195h-520q-43 0 -74 31q-31 32 -31 68t19 63l625 882q39 53 92 53t88 -34q35 -35 35 -82v-772z" />
    <glyph glyph-name="five" unicode="5" horiz-adv-x="1179" 
d="M569 948q236 0 372 -122t136 -366t-136 -367q-136 -122 -372 -122q-176 0 -306 82t-191 195q-39 74 17 130q32 32 83 32t90 -58q61 -92 131 -134q69 -42 185 -42t191 73t75 212t-75 211t-211 72t-249 -82q-59 -41 -101 -41q-42 -1 -75 31t-33 77q0 14 4 35l103 530
q6 33 34 59t68 25h615q44 0 74 -30t30 -74q0 -43 -31 -74t-73 -31h-535l-53 -268q98 47 233 47z" />
    <glyph glyph-name="six" unicode="6" horiz-adv-x="1204" 
d="M602 178q285 0 285 273q0 127 -76 193t-195 67q-195 0 -292 -172q0 -170 72 -266q73 -95 206 -95zM646 918q208 0 341 -122t133 -354t-140 -352q-140 -119 -390 -119q-250 -1 -378 185t-128 503q0 748 549 748q121 0 214 -34t135 -76t42 -85q0 -42 -32 -74t-70 -32
t-70 22q-109 74 -219 74q-154 0 -234 -105t-80 -302q119 123 327 123z" />
    <glyph glyph-name="seven" unicode="7" horiz-adv-x="1038" 
d="M205 94q0 156 57 304t139 259t164 205t140 174q57 80 57 133h-621q-43 0 -73 31t-31 74q0 43 31 74t73 30h750q43 0 74 -30t30 -74q0 -211 -197 -439q-83 -97 -166 -201t-140 -242q-57 -140 -58 -298q0 -47 -34 -79q-34 -31 -81 -31t-81 32t-33 78z" />
    <glyph glyph-name="eight" unicode="8" horiz-adv-x="1177" 
d="M588 645q-133 0 -208 -59t-75 -174t77 -174q77 -60 206 -60t206 60t76 174q0 115 -74 174q-75 59 -208 59zM588 1202q-104 0 -162 -45t-59 -131q0 -86 58 -131q59 -45 163 -45t163 45q58 45 58 131t-58 131q-59 45 -163 45zM588 -29q-250 0 -383 112t-133 336t231 335
q-72 38 -119 110t-47 164q0 182 118 280t333 99q215 0 333 -98t117 -281q0 -92 -47 -164t-119 -110q232 -111 232 -335t-133 -336t-383 -112z" />
    <glyph glyph-name="nine" unicode="9" horiz-adv-x="1204" 
d="M602 1200q-285 0 -285 -272q0 -127 76 -194t195 -66q195 0 293 172q0 170 -73 265t-206 95zM558 461q-208 0 -341 122q-133 123 -133 355t140 350t390 119q250 0 378 -185t128 -503q0 -748 -549 -748q-121 0 -214 34t-135 76t-42 85t32 75q32 31 70 31t70 -22
q109 -74 219 -74q154 0 234 106t80 302q-119 -123 -327 -123z" />
    <glyph glyph-name="colon" unicode=":" horiz-adv-x="460" 
d="M230 664q-134 0 -134 135t134 135t134 -135t-134 -135zM230 -16q-134 0 -134 135t134 135t134 -135t-134 -135z" />
    <glyph glyph-name="semicolon" unicode=";" horiz-adv-x="460" 
d="M96 117q0 137 134 137t134 -141t-64 -263q-65 -122 -150 -188q-16 -12 -34 -12t-31 13t-13 29t22 45q22 28 35 47q41 56 41 114q0 59 -37 119t-37 100zM230 664q-134 0 -134 135t134 135t134 -135t-134 -135z" />
    <glyph glyph-name="less" unicode="&#x3c;" horiz-adv-x="743" 
d="M743 74q1 -44 -29 -75q-30 -30 -66 -30t-60 19l-543 411q-45 37 -45 82t45 82l543 412q24 18 60 18q36 1 66 -29t30 -75t-42 -74l-452 -334l452 -334q41 -29 41 -73z" />
    <glyph glyph-name="equal" unicode="=" horiz-adv-x="929" 
d="M930 268q0 -38 -28 -66t-66 -28h-742q-38 0 -66 28t-28 66t28 67q28 28 66 27h742q38 0 66 -28t28 -66zM930 623q0 -39 -28 -67t-66 -28h-742q-38 0 -66 28t-28 67t28 67t66 27h742q38 1 66 -27t28 -67z" />
    <glyph glyph-name="greater" unicode="&#x3e;" horiz-adv-x="743" 
d="M0 889q0 45 29 75t65 30t62 -19l542 -412q45 -37 45 -82t-45 -82l-542 -411q-25 -18 -62 -18q-38 0 -66 29q-28 30 -28 75t41 73l453 334l-453 334q-41 29 -41 74z" />
    <glyph glyph-name="question" unicode="?" horiz-adv-x="927" 
d="M417 -16q-134 0 -134 135t134 135t134 -135t-134 -135zM268 550q0 93 62 162q62 68 137 106q74 38 136 98q63 60 63 134t-54 116q-54 40 -148 40t-146 -44t-52 -128q0 -47 -33 -80q-33 -32 -79 -32t-80 32q-33 32 -33 80q0 176 111 274q110 98 310 99q200 0 312 -93
t113 -265q1 -113 -61 -196t-135 -121t-134 -80t-61 -81q0 -20 19 -48q19 -27 19 -69t-34 -73q-35 -31 -79 -31t-77 33q-76 74 -76 167z" />
    <glyph glyph-name="at" unicode="@" horiz-adv-x="1648" 
d="M795 131q69 0 117 39t49 104v43h-189q-109 0 -108 -90q0 -96 131 -96zM809 600q-76 0 -156 -59q-23 -17 -51 -17t-50 22t-22 54t19 51q95 105 255 105t244 -72t85 -197v-249q0 -39 24 -60q25 -20 62 -20q157 0 157 251t-148 383t-406 132t-406 -138t-148 -424t148 -432
t407 -147q258 0 420 96q23 12 53 12q30 1 55 -25t25 -71t-45 -69q-203 -115 -506 -115q-349 -1 -547 195t-198 556t196 547q197 187 539 187t546 -180t204 -510q0 -151 -76 -276q-39 -64 -113 -104t-172 -40q-152 0 -209 114q-90 -115 -245 -114q-117 0 -189 66t-72 174
t75 166t186 59h211v28q0 55 -38 88t-114 33z" />
    <glyph glyph-name="A" unicode="A" horiz-adv-x="1277" 
d="M39 89q0 36 8 54l483 1178q31 74 109 74t109 -74l483 -1178q8 -18 8 -54t-35 -71t-82 -34q-78 0 -110 77l-125 297h-496l-125 -297q-33 -78 -110 -77q-47 0 -82 34t-35 71zM807 575l-168 431l-168 -431h336z" />
    <glyph glyph-name="B" unicode="B" horiz-adv-x="1163" 
d="M647 0h-405q-49 0 -84 35t-35 84v1141q0 50 35 84t84 34h368q216 0 318 -100t102 -256q0 -98 -43 -172t-108 -107q213 -82 213 -329q0 -194 -114 -304t-331 -110zM360 614v-401h287q203 0 203 201q0 96 -51 148t-152 52h-287zM360 1165v-350h250q92 0 138 47
q45 47 45 129q0 174 -183 174h-250z" />
    <glyph glyph-name="C" unicode="C" horiz-adv-x="1310" 
d="M711 -29q-641 0 -641 718t656 718q327 0 478 -221q23 -35 23 -74t-33 -71q-33 -31 -78 -31t-84 41q-68 75 -142 109t-179 34q-203 0 -299 -125t-96 -386t94 -380t301 -119q113 0 185 30t146 105q45 45 89 45t77 -32q33 -33 33 -73t-20 -66q-76 -100 -212 -161t-298 -61z
" />
    <glyph glyph-name="D" unicode="D" horiz-adv-x="1251" 
d="M242 1378h276q322 0 494 -163t172 -527t-172 -526t-494 -162h-276q-49 0 -84 35t-35 84v1141q0 50 35 84t84 34zM360 1165v-952h158q207 0 313 110q107 109 107 365t-106 367t-314 110h-158z" />
    <glyph glyph-name="E" unicode="E" horiz-adv-x="1071" 
d="M360 1165v-366h388q44 0 74 -31t30 -74q0 -44 -31 -74t-73 -30h-388v-377h543q45 0 76 -31t31 -76q0 -46 -31 -76t-76 -30h-661q-49 0 -84 35t-35 84v1141q0 50 35 84t84 34h639q45 0 75 -30t31 -76q0 -45 -31 -76t-75 -31h-521z" />
    <glyph glyph-name="F" unicode="F" horiz-adv-x="1071" 
d="M360 578v-476q0 -49 -34 -84q-34 -34 -84 -34q-49 0 -84 34t-35 84v1158q0 50 35 84t84 34h639q45 0 75 -30t31 -76q0 -45 -31 -76t-75 -31h-521v-379h388q44 0 74 -30t30 -74q0 -43 -31 -74t-73 -30h-388z" />
    <glyph glyph-name="G" unicode="G" horiz-adv-x="1382" 
d="M711 -29q-641 0 -641 718t656 718q327 0 478 -221q23 -35 23 -74t-33 -71q-33 -31 -78 -31t-84 41q-68 75 -142 109t-179 34q-203 0 -299 -125t-96 -386t94 -380t309 -119t330 117v229h-279q-43 0 -74 31t-30 74q0 43 30 74q31 31 74 30h397q43 -1 78 -33t35 -75v-328
q0 -66 -35 -108q-74 -99 -222 -161t-312 -63z" />
    <glyph glyph-name="H" unicode="H" horiz-adv-x="1306" 
d="M1184 1276v-1174q0 -49 -35 -84q-35 -34 -84 -34t-84 34t-35 84v494h-586v-494q0 -49 -34 -84q-34 -34 -84 -34q-49 0 -84 34t-35 84v1174q0 49 35 84t84 35t84 -35t34 -84v-463h586v463q0 49 35 84t84 35t84 -35t35 -84z" />
    <glyph glyph-name="I" unicode="I" horiz-adv-x="483" 
d="M360 1276v-1174q0 -49 -34 -84q-34 -34 -84 -34q-49 0 -84 34t-35 84v1174q0 49 35 84t84 35q50 0 84 -35t34 -84z" />
    <glyph glyph-name="J" unicode="J" horiz-adv-x="882" 
d="M522 430v846q0 49 35 84t84 35t84 -35t35 -84v-846q0 -211 -102 -334t-326 -123q-154 0 -244 56q-57 31 -57 85t30 85q48 48 124 18q77 -29 147 -29q190 0 190 242z" />
    <glyph glyph-name="K" unicode="K" horiz-adv-x="1138" 
d="M360 1276v-469l492 549q37 39 85 39t82 -34t34 -79t-31 -80l-385 -418l453 -616q22 -29 22 -72t-35 -78q-35 -34 -88 -34t-90 51l-422 583l-117 -122v-394q0 -49 -34 -84q-34 -34 -84 -34q-49 0 -84 34t-35 84v1174q0 49 35 84t84 35q50 0 84 -35t34 -84z" />
    <glyph glyph-name="L" unicode="L" horiz-adv-x="1005" 
d="M360 221h486q49 0 82 -32q33 -33 33 -79t-32 -78t-83 -32h-606q-51 0 -84 33t-33 82v1161q0 49 35 84t84 35t84 -35t34 -84v-1055z" />
    <glyph glyph-name="M" unicode="M" horiz-adv-x="1546" 
d="M768 217q-68 0 -100 57l-322 572v-746q0 -47 -35 -82q-35 -34 -82 -34t-82 34t-34 82v1178q0 47 34 82q35 35 93 35t94 -66l434 -778l434 778q36 66 94 66t93 -35t34 -82v-1178q-1 -47 -35 -82q-34 -34 -81 -34t-82 34t-35 82v746l-322 -572q-32 -57 -100 -57z" />
    <glyph glyph-name="N" unicode="N" horiz-adv-x="1275" 
d="M1047 1395q47 0 81 -35t35 -82v-1178q0 -47 -35 -82q-34 -34 -88 -34t-90 51l-604 872v-807q0 -47 -35 -82q-35 -34 -82 -34t-82 34t-34 82v1178q0 47 34 82q35 35 89 35t88 -49l606 -879v811q0 47 35 82t82 35z" />
    <glyph glyph-name="O" unicode="O" horiz-adv-x="1437" 
d="M719 1194q-403 0 -403 -505t402 -505q404 0 404 505t-403 505zM719 -29q-313 -1 -481 181t-168 538t167 536t482 181q315 0 482 -180q167 -181 167 -537t-168 -538t-481 -181z" />
    <glyph glyph-name="P" unicode="P" horiz-adv-x="1130" 
d="M614 1165h-254v-415h254q96 0 150 54q53 54 53 154t-54 154q-55 53 -149 53zM633 537h-273v-435q0 -49 -34 -84q-34 -34 -84 -34q-49 0 -84 34t-35 84v1158q0 50 35 84t84 34h391q190 0 310 -106t120 -312t-120 -315q-120 -108 -310 -108z" />
    <glyph glyph-name="Q" unicode="Q" horiz-adv-x="1437" 
d="M719 1194q-403 0 -403 -505t402 -505q404 0 404 505t-403 505zM70 690q0 356 167 536t482 181q315 0 482 -180t167 -539q0 -434 -262 -608q49 -6 101 -32q102 -51 102 -130q0 -47 -34 -82t-82 -35t-83 35q-78 76 -154 104t-237 31q-313 -1 -481 181t-168 538z" />
    <glyph glyph-name="R" unicode="R" horiz-adv-x="1146" 
d="M631 1165h-271v-428h277q90 1 136 63t46 151t-47 151t-141 63zM360 528v-426q0 -49 -34 -84q-34 -34 -84 -34q-49 0 -84 34t-35 84v1158q0 50 35 84t84 34h391q201 0 317 -123t115 -290q0 -167 -86 -285t-229 -137l303 -369q25 -33 25 -77t-36 -79q-35 -34 -89 -34
t-87 43l-372 501h-134z" />
    <glyph glyph-name="S" unicode="S" horiz-adv-x="1173" 
d="M594 1194q-119 0 -176 -47q-58 -47 -58 -111t56 -110q56 -45 138 -69q83 -23 180 -61t180 -81q82 -43 138 -130t56 -208q0 -190 -132 -298t-382 -108q-174 0 -314 73t-204 177q-16 27 -16 65t31 70q32 32 77 33q45 0 90 -45q156 -156 336 -156q276 0 276 189
q0 112 -148 175q-68 28 -146 52q-190 59 -305 134q-67 44 -107 119q-41 75 -41 175q0 164 120 270t351 105q154 0 278 -52t187 -141q20 -30 20 -70q-1 -40 -33 -72t-74 -32t-91 45q-113 109 -287 109z" />
    <glyph glyph-name="T" unicode="T" horiz-adv-x="1159" 
d="M1012 1169h-314v-1067q0 -49 -34 -84q-34 -34 -84 -34q-49 0 -84 34t-35 84v1067h-314q-43 0 -73 31t-31 74q0 43 31 74t73 30h865q44 0 74 -30t30 -74q0 -43 -30 -74t-74 -31z" />
    <glyph glyph-name="U" unicode="U" horiz-adv-x="1267" 
d="M639 -29q-147 0 -253 41t-162 113q-103 137 -101 326v825q0 49 35 84t84 35t84 -35t34 -84v-825q0 -271 279 -271t279 271v825q0 49 34 84q35 35 84 35t84 -35t35 -84v-825q0 -193 -101 -326q-54 -72 -161 -113t-254 -41z" />
    <glyph glyph-name="V" unicode="V" horiz-adv-x="1245" 
d="M623 -16q-80 0 -111 75l-465 1172q-8 18 -8 56t35 73t84 35q82 0 108 -70l357 -944l356 944q29 70 108 70q49 0 84 -35t35 -73t-8 -56l-465 -1172q-30 -75 -110 -75z" />
    <glyph glyph-name="W" unicode="W" horiz-adv-x="1716" 
d="M39 1291q0 34 35 69t82 35q46 0 76 -26t38 -56l240 -860l233 856q10 39 43 63t72 23q39 0 72 -24t43 -62l233 -856l240 860q8 31 38 57t77 25q47 0 81 -35q34 -34 35 -68q0 -34 -6 -53l-350 -1173q-10 -35 -42 -59q-32 -23 -72 -23q-39 0 -71 24t-42 64l-236 839
l-235 -839q-10 -39 -42 -64q-32 -24 -72 -24t-72 24t-42 58l-350 1173q-6 18 -6 52z" />
    <glyph glyph-name="X" unicode="X" horiz-adv-x="1110" 
d="M148 -16q-56 0 -91 34t-35 79q0 44 21 71l383 537l-356 501q-23 33 -23 76t35 78t91 35t89 -49l293 -437l293 437q35 49 90 49t90 -35t35 -78t-23 -76l-356 -501l383 -537q20 -27 20 -71q-1 -44 -35 -79q-34 -34 -90 -34t-92 53l-315 467l-315 -467q-36 -53 -92 -53z" />
    <glyph glyph-name="Y" unicode="Y" horiz-adv-x="1134" 
d="M1096 1281q0 -44 -19 -69l-391 -583v-527q0 -49 -35 -84q-35 -34 -84 -34t-84 34t-34 84v527l-392 583q-18 25 -18 69t35 79q35 34 92 34t92 -55l309 -485l310 485q35 55 92 55t92 -34q35 -35 35 -79z" />
    <glyph glyph-name="Z" unicode="Z" horiz-adv-x="1107" 
d="M975 0h-838q-45 0 -76 31t-31 71t21 68l688 999h-563q-43 0 -74 31t-30 74q0 43 30 74q31 31 74 30h774q43 0 74 -30t31 -69q0 -38 -19 -65l-686 -1001h625q45 0 76 -31t31 -76q0 -46 -32 -76q-30 -30 -75 -30z" />
    <glyph glyph-name="bracketleft" unicode="[" horiz-adv-x="579" 
d="M524 -203q0 -39 -28 -67t-68 -29h-192q-49 0 -81 30t-32 76v1598q0 45 32 76t81 30h192q39 -1 68 -29q28 -28 28 -67t-28 -67t-68 -29h-84v-1425h84q40 0 68 -29t28 -68z" />
    <glyph glyph-name="backslash" unicode="\" horiz-adv-x="864" 
d="M811 -102q0 -32 -33 -66q-33 -33 -78 -33q-78 0 -104 72l-535 1513q-8 22 -8 56t33 66t78 32q77 0 104 -72l535 -1513q8 -23 8 -55z" />
    <glyph glyph-name="bracketright" unicode="]" horiz-adv-x="579" 
d="M55 -203q0 39 28 68t69 29h84v1425h-84q-41 0 -69 29q-28 30 -28 68t28 67t69 28h192q49 -1 81 -31t32 -75v-1598q0 -47 -32 -77t-81 -29h-192q-41 1 -69 29t-28 67z" />
    <glyph glyph-name="asciicircum" unicode="^" horiz-adv-x="995" 
d="M185 674q-47 0 -75 28t-28 60q0 33 12 53l324 555q29 45 80 45t80 -45l323 -555q12 -20 12 -53q1 -33 -27 -61q-28 -27 -76 -27t-73 47l-239 432l-240 -432q-25 -47 -73 -47z" />
    <glyph glyph-name="underscore" unicode="_" horiz-adv-x="862" 
d="M891 -158q0 -38 -28 -66t-66 -28h-729q-39 0 -67 28t-28 66t28 67q28 28 67 28h729q39 0 67 -28t27 -67z" />
    <glyph glyph-name="grave" unicode="`" horiz-adv-x="786" 
d="M551 1145q41 -45 -7 -90t-98 -2l-200 184q-27 23 -26 57t33 66q32 31 68 33t56 -27z" />
    <glyph glyph-name="a" unicode="a" horiz-adv-x="966" 
d="M446 158q86 0 148 51q61 51 61 133v57h-239q-139 0 -140 -116q0 -125 170 -125zM465 762q-92 0 -201 -78q-28 -20 -64 -20t-65 28t-29 68q0 39 27 67q119 131 323 131t311 -90q108 -90 107 -252v-524q0 -45 -32 -77q-32 -31 -76 -31q-45 0 -77 32t-32 76
q-74 -119 -268 -119q-150 0 -242 85q-92 86 -92 224q-1 138 95 214t237 75h268v37q0 70 -49 112t-141 42z" />
    <glyph glyph-name="b" unicode="b" horiz-adv-x="1026" 
d="M549 958q199 0 307 -124t109 -369q0 -246 -114 -369t-316 -123q-201 -1 -317 105t-116 305v965q0 46 33 78t78 32t78 -33t33 -77v-471q82 81 225 81zM324 383q0 -105 56 -163t146 -58q219 0 219 303q0 149 -56 227t-163 78q-55 0 -105 -27t-73 -51l-24 -26v-283z" />
    <glyph glyph-name="c" unicode="c" horiz-adv-x="923" 
d="M59 467q0 246 116 369t329 122q125 0 210 -45q149 -79 146 -159q0 -41 -29 -70t-71 -29t-74 35q-74 80 -181 80t-165 -79t-57 -225q0 -146 57 -225q56 -79 156 -79t211 82q29 20 65 20t66 -28q28 -28 28 -71q0 -42 -35 -75q-127 -117 -333 -117t-323 124
q-116 124 -116 370z" />
    <glyph glyph-name="d" unicode="d" horiz-adv-x="1013" 
d="M475 958q143 0 225 -81v471q0 46 33 78t78 32t78 -33t33 -77v-965q0 -199 -116 -304t-318 -105t-315 122q-114 123 -114 369q1 245 109 369t307 124zM700 383v283q-24 36 -86 70q-61 34 -116 34q-106 0 -162 -78t-57 -227q0 -303 219 -303q90 0 146 58t56 163z" />
    <glyph glyph-name="e" unicode="e" horiz-adv-x="964" 
d="M694 571q0 83 -48 141t-141 58t-151 -51t-65 -148h405zM61 460q0 242 117 370t326 128q123 0 209 -42t127 -110q73 -122 73 -251t-53 -155q-27 -13 -72 -13h-505q0 -106 66 -161q67 -54 175 -54t194 58q87 58 141 -1q28 -29 28 -71t-35 -72q-119 -113 -334 -113t-336 123
q-121 122 -121 364z" />
    <glyph glyph-name="f" unicode="f" horiz-adv-x="659" 
d="M168 745h-43q-39 0 -66 27t-26 66q1 40 27 66t65 26h43v110q0 154 101 258t290 105q39 0 68 -28q29 -29 29 -69t-30 -68q-28 -28 -67 -28q-82 0 -126 -42t-44 -111v-127h137q39 0 66 -27q26 -27 26 -65t-26 -66q-26 -27 -66 -27h-137v-655q0 -45 -32 -76q-31 -30 -79 -30
t-79 30t-31 76v655z" />
    <glyph glyph-name="g" unicode="g" horiz-adv-x="1017" 
d="M743 -108q0 54 -44 80t-115 26h-193q-55 -12 -87 -42t-32 -65q0 -115 238 -114q100 0 167 30q66 32 66 85zM303 608q0 -72 48 -118t132 -46t132 46t49 118q0 72 -48 118t-133 46q-84 0 -132 -46t-48 -118zM885 608q-1 -164 -107 -257t-295 -93q-106 0 -192 33
q-18 -16 -19 -43q0 -70 121 -70h191q172 0 276 -68t104 -216t-125 -227q-126 -79 -321 -79t-321 62q-146 71 -146 241q0 123 123 201q-96 58 -96 152t69 151q-66 86 -65 213q0 164 106 257t295 93q111 0 197 -34q74 94 205 94q39 0 65 -27t27 -65q0 -38 -27 -66
q-26 -26 -66 -26t-61 -19q62 -82 62 -207z" />
    <glyph glyph-name="h" unicode="h" horiz-adv-x="1021" 
d="M324 1348v-512q80 123 262 122q344 0 344 -356v-512q0 -45 -32 -76q-32 -30 -80 -30t-79 30t-30 76v471q0 197 -181 197q-205 0 -204 -211v-457q0 -45 -32 -76q-32 -30 -79 -30t-79 30t-32 76v1258q0 46 33 78t78 32t78 -32t33 -78z" />
    <glyph glyph-name="i" unicode="i" 
d="M223 1057q-63 0 -97 35t-34 94q0 135 132 135t132 -135q0 -61 -35 -95t-98 -34zM334 836v-742q0 -45 -32 -78q-32 -32 -79 -32t-79 32t-31 78v742q-1 46 31 78t79 32t79 -32t32 -78z" />
    <glyph glyph-name="j" unicode="j" 
d="M113 -16v852q-1 46 31 78t79 32t79 -33t32 -77v-852q0 -136 -94 -230t-238 -94q-41 0 -72 31q-30 31 -30 71t30 72q31 31 76 31t76 35t31 84zM223 1057q-63 0 -97 35t-34 94q0 135 132 135t132 -135q0 -61 -35 -95t-98 -34z" />
    <glyph glyph-name="k" unicode="k" horiz-adv-x="927" 
d="M897 85q-1 -41 -31 -71t-79 -30t-82 43l-306 409l-65 -51v-295q0 -45 -32 -76q-32 -30 -79 -30t-79 30t-31 76v1262q-1 46 31 76t79 30t79 -31t32 -75v-723l371 291q35 26 75 26t72 -31q31 -31 31 -79t-41 -80l-269 -205l301 -395q23 -31 23 -71z" />
    <glyph glyph-name="l" unicode="l" horiz-adv-x="497" 
d="M223 1458q47 0 79 -33t32 -77v-1123q0 -16 13 -26t26 -11q43 0 73 -30t29 -72q0 -43 -30 -73t-72 -29q-121 0 -191 68t-69 194v1102q-1 46 31 78t79 32z" />
    <glyph glyph-name="m" unicode="m" horiz-adv-x="1628" 
d="M1536 602v-512q0 -45 -32 -76q-32 -30 -80 -30t-78 30t-31 76v471q0 197 -180 197q-205 0 -205 -195v-473q0 -45 -32 -76q-32 -30 -80 -30t-79 30t-30 76v471q0 197 -181 197q-205 0 -204 -211v-457q0 -45 -32 -76q-32 -30 -79 -30t-79 30t-32 76v746q0 46 33 78t78 32
t78 -33t33 -77q80 123 262 122q217 0 303 -133q98 133 297 133t274 -105q76 -106 76 -251z" />
    <glyph glyph-name="n" unicode="n" horiz-adv-x="1021" 
d="M586 958q344 0 344 -356v-512q0 -45 -32 -76q-32 -30 -80 -30t-79 30t-30 76v471q0 197 -181 197q-205 0 -204 -211v-457q0 -45 -32 -76q-32 -30 -79 -30t-79 30t-32 76v746q0 46 33 78t78 32t78 -33t33 -77q80 122 262 122z" />
    <glyph glyph-name="o" unicode="o" horiz-adv-x="1015" 
d="M508 162q225 0 225 304t-225 304t-225 -304t225 -304zM956 465q0 -246 -118 -369t-330 -123q-213 0 -331 123t-118 369t118 370q118 123 331 123t331 -123q117 -124 117 -370z" />
    <glyph glyph-name="p" unicode="p" horiz-adv-x="1052" 
d="M547 162q219 0 219 304t-219 304t-219 -304t219 -304zM991 466q0 -492 -416 -493q-164 0 -241 88v-362q0 -47 -32 -79t-79 -32t-79 32t-31 79v1137q-1 46 31 78t79 32t79 -32t32 -78q26 45 94 84t147 38q416 0 416 -492z" />
    <glyph glyph-name="q" unicode="q" horiz-adv-x="1011" 
d="M477 -27q-199 0 -307 124t-109 370q0 246 114 369q114 122 316 122q201 0 317 -105t116 -304v-850q0 -47 -32 -79t-79 -32t-79 32t-32 79v356q-82 -82 -225 -82zM702 549q0 105 -56 163t-146 58q-219 0 -219 -303q0 -149 56 -227t163 -78q55 0 105 26t75 52l22 26v283z
" />
    <glyph glyph-name="r" unicode="r" horiz-adv-x="663" 
d="M324 836v-11q29 59 92 95q64 36 118 36t84 -30t31 -74q0 -43 -31 -74t-73 -30q-105 0 -163 -62t-58 -166v-426q0 -45 -33 -78q-33 -32 -78 -32t-78 32t-33 78v742q0 46 33 78t78 32t78 -32t33 -78z" />
    <glyph glyph-name="s" unicode="s" horiz-adv-x="870" 
d="M432 766q-121 0 -121 -78q1 -40 53 -68t126 -50t147 -52q74 -30 126 -92q52 -63 52 -158q0 -139 -104 -215t-248 -76q-144 1 -242 45t-133 87t-35 79t29 66q29 29 66 29t67 -25q101 -84 239 -84t138 82q0 45 -51 74t-125 49t-149 50q-75 31 -126 95t-51 160q0 133 96 204
q96 70 224 70t218 -36t136 -91q20 -27 20 -65t-30 -66q-58 -57 -143 4q-85 62 -179 62z" />
    <glyph glyph-name="t" unicode="t" horiz-adv-x="626" 
d="M174 930v172q0 45 32 77q32 31 77 31t77 -32t31 -76v-172h92q39 0 66 -27t27 -65t-28 -66q-26 -27 -65 -27h-92v-495q0 -33 24 -53q25 -21 59 -21t63 -29t29 -67t-30 -68q-28 -29 -67 -28q-135 0 -215 78t-80 200v483h-47q-39 0 -66 27t-26 66q1 40 27 66t65 26h47z" />
    <glyph glyph-name="u" unicode="u" horiz-adv-x="993" 
d="M203 946q47 0 79 -33t31 -77v-478q-1 -184 183 -184t184 184v478q0 46 33 78t78 32t77 -33t33 -77v-478q0 -174 -89 -279t-315 -105q-225 0 -315 104q-90 106 -90 280v478q0 46 32 78t79 32z" />
    <glyph glyph-name="v" unicode="v" horiz-adv-x="925" 
d="M463 -16q-72 0 -103 67l-327 742q-8 20 -8 54q1 35 33 67t77 32q76 0 103 -69l225 -570l225 570q27 70 103 69q45 0 77 -33t33 -67q0 -34 -8 -53l-328 -742q-30 -67 -102 -67z" />
    <glyph glyph-name="w" unicode="w" horiz-adv-x="1302" 
d="M25 846q1 36 33 68t77 32q78 0 105 -72l170 -503l137 495q8 33 36 57q29 23 69 23t69 -22t37 -52l137 -501l168 503q27 72 106 72q47 0 79 -31t32 -62t-10 -56l-281 -744q-25 -70 -102 -69q-37 0 -67 21t-40 56l-127 449l-127 -447q-10 -35 -40 -57t-66 -22
q-76 0 -105 71l-280 731q-10 25 -10 60z" />
    <glyph glyph-name="x" unicode="x" horiz-adv-x="864" 
d="M149 -16q-51 0 -83 32t-33 72q0 39 22 74l248 311l-240 295q-23 31 -23 72q0 42 34 74q33 32 83 32t83 -43l192 -264l193 264q33 43 83 43t83 -33t33 -73t-23 -72l-240 -295l248 -311q23 -33 23 -73t-34 -73q-32 -32 -83 -32t-82 43l-201 282q-137 -195 -201 -282
q-31 -43 -82 -43z" />
    <glyph glyph-name="y" unicode="y" horiz-adv-x="925" 
d="M88 -207q92 0 148 66q55 66 112 207l-315 727q-8 20 -8 54q1 35 33 67t77 32q76 0 103 -69l225 -570l225 570q27 70 103 69q45 0 77 -33t33 -67q0 -34 -8 -53l-381 -861q-154 -344 -424 -344q-45 0 -76 29t-30 74q0 45 30 73t76 29z" />
    <glyph glyph-name="z" unicode="z" horiz-adv-x="837" 
d="M59 838q0 40 27 66t66 26h526q38 0 68 -29t30 -66t-22 -67l-432 -580h372q39 0 67 -28q27 -28 27 -66t-28 -66t-66 -28h-565q-39 0 -67 28q-56 56 -5 128l441 589h-346q-39 0 -66 27t-27 66z" />
    <glyph glyph-name="braceleft" unicode="{" horiz-adv-x="733" 
d="M567 -98q41 0 71 -30t30 -71t-30 -71t-71 -29q-159 0 -239 83q-80 84 -80 180t16 230t16 204t-31 97q-33 25 -85 25t-78 26t-25 60q0 35 26 61q26 25 78 25t84 26t32 96t-17 205q-16 135 -16 231t81 178t238 83q41 1 71 -29t30 -71t-30 -71t-71 -29q-96 0 -96 -97
l18 -335q0 -113 -32 -177q-33 -63 -113 -96q80 -33 113 -96t32 -176l-18 -336q0 -96 96 -96z" />
    <glyph glyph-name="bar" unicode="|" horiz-adv-x="450" 
d="M338 1542v-1757q0 -47 -34 -80t-79 -33t-79 33t-33 80v1757q0 47 33 80q34 33 79 33t79 -33t34 -80z" />
    <glyph glyph-name="braceright" unicode="}" horiz-adv-x="733" 
d="M485 1249q0 -96 -16 -230t-16 -205q-1 -70 31 -96t84 -26t78 -26t26 -60t-26 -60t-78 -26t-84 -26t-32 -96t17 -204q16 -134 16 -230t-81 -180q-81 -83 -238 -83q-41 0 -71 30q-29 31 -29 71t29 70q30 30 71 30q96 0 96 96l-18 336q0 113 32 176q33 63 113 96
q-80 33 -113 96t-32 177l18 335q0 96 -96 97q-41 -1 -71 29t-29 71q0 41 29 71q30 30 71 29q158 0 238 -83t81 -179z" />
    <glyph glyph-name="asciitilde" unicode="~" horiz-adv-x="958" 
d="M294 766q90 0 204 -60q112 -60 157 -59q45 0 72 51q27 52 76 52t84 -35t14 -102t-84 -113t-153 -47q-90 0 -200 60q-112 60 -159 60t-74 -52t-76 -52t-77 28t-29 57q0 96 92 165q63 47 153 47z" />
    <glyph glyph-name="nbspace" unicode="&#xa0;" horiz-adv-x="602" 
 />
    <glyph glyph-name="exclamdown" unicode="&#xa1;" horiz-adv-x="434" 
d="M218 958q134 0 134 -135t-134 -135t-134 135t134 135zM218 -453q-132 0 -126 115l37 815q4 78 88 78t88 -78l39 -815q6 -115 -126 -115z" />
    <glyph glyph-name="cent" unicode="&#xa2;" horiz-adv-x="923" 
d="M59 467q-1 217 91 339t260 146v76q0 39 27 68q28 28 68 28q39 0 67 -28t28 -68v-80q152 -29 238 -131q22 -31 22 -67t-29 -66q-29 -29 -71 -29t-74 35q-74 80 -181 80t-165 -79t-57 -225q0 -146 57 -225q58 -79 158 -79t209 82q29 20 65 20t66 -28q28 -28 28 -71
q0 -42 -35 -75q-94 -84 -231 -108v-82q0 -39 -28 -68t-68 -29t-67 29q-28 29 -27 68v80q-168 26 -260 148t-91 339z" />
    <glyph glyph-name="sterling" unicode="&#xa3;" horiz-adv-x="1200" 
d="M715 537h-211q10 -45 10 -99t-36 -120q-36 -67 -95 -111q70 33 134 33q65 0 151 -32t133 -32q98 0 133 76q31 61 89 61q58 1 90 -31t32 -69t-12 -61q-88 -182 -322 -183q-59 0 -176 45t-189 45t-151 -55q-35 -24 -75 -24t-72 32t-32 79q0 48 40 81q141 127 141 264
q0 47 -16 101h-123q-43 -1 -73 29t-30 73t30 73t73 29h30q-70 143 -69 254q0 176 128 294q129 118 317 118t310 -73t177 -199q8 -23 8 -55t-32 -65q-32 -32 -86 -32t-91 68q-82 152 -270 151q-106 0 -171 -58t-65 -154t78 -249h293q43 1 73 -29t29 -73q1 -43 -29 -73
t-73 -29z" />
    <glyph glyph-name="currency" unicode="&#xa4;" horiz-adv-x="958" 
d="M479 825q-82 0 -134 -54t-52 -135t52 -136q52 -56 134 -56t134 56q53 56 53 136q0 81 -52 135t-135 54zM479 246q-115 0 -200 49l-58 -57q-33 -31 -77 -31t-74 31q-30 32 -31 76q0 44 33 77l57 55q-47 80 -47 189t53 192l-61 54q-35 31 -35 78t31 77q30 30 74 31
q44 0 77 -31l62 -61q83 49 197 49t196 -49l61 61q33 31 77 31t75 -31q31 -32 31 -78t-35 -77l-62 -54q53 -85 53 -193t-47 -188l58 -55q33 -33 33 -78t-31 -75t-75 -31q-44 0 -77 31l-57 57q-86 -49 -201 -49z" />
    <glyph glyph-name="yen" unicode="&#xa5;" horiz-adv-x="1134" 
d="M1001 596q1 -39 -27 -67t-67 -27h-221v-84h221q39 0 67 -28t28 -66t-28 -67q-28 -28 -67 -28h-221v-127q0 -49 -35 -84q-35 -34 -84 -34t-84 34t-34 84v127h-222q-39 0 -67 28t-27 67q0 38 28 66t66 28h222v84h-222q-39 0 -67 28t-27 66q0 39 28 67t66 27h181l-351 522
q-18 25 -18 69t35 79q34 35 92 35t92 -56l309 -485l310 485q35 55 92 55t92 -34q35 -35 35 -79t-19 -69l-350 -522h180q39 0 67 -27q27 -28 27 -67z" />
    <glyph glyph-name="brokenbar" unicode="&#xa6;" horiz-adv-x="450" 
d="M338 487v-702q0 -47 -34 -80t-79 -33t-79 33t-33 80v702q0 45 33 79q34 34 79 34t79 -34t34 -79zM338 1542v-700q0 -47 -34 -80t-79 -33t-79 33t-33 80v700q0 47 33 80q34 33 79 33t79 -33t34 -80z" />
    <glyph glyph-name="section" unicode="&#xa7;" horiz-adv-x="1013" 
d="M47 584q0 141 119 239q-92 98 -92 240t113 243q114 101 323 101q264 0 424 -182q22 -27 22 -68t-30 -72t-74 -31q-43 0 -78 36q-115 111 -264 110q-106 0 -158 -43t-53 -101q0 -111 132 -172q58 -28 130 -54t144 -58t130 -76t95 -116t37 -168q0 -141 -119 -240
q92 -98 92 -240t-114 -242q-114 -101 -322 -102q-276 0 -422 181q-25 29 -25 69t31 72q31 31 75 31t79 -35q111 -111 262 -111q106 0 159 43q52 44 52 102t-37 101t-95 71t-130 54t-144 58t-130 75t-95 116t-37 169zM750 419q0 73 -77 127t-208 98t-156 58q-45 -54 -45 -126
t77 -126t208 -98t156 -59q45 53 45 126z" />
    <glyph glyph-name="dieresis" unicode="&#xa8;" horiz-adv-x="673" 
d="M522 1067q-102 1 -102 107t102 106t102 -106t-102 -107zM152 1067q-102 1 -102 107t102 106t102 -106t-102 -107z" />
    <glyph glyph-name="copyright" unicode="&#xa9;" horiz-adv-x="1619" 
d="M811 115q279 0 417 140t138 433t-138 434t-417 142q-557 0 -557 -574t557 -575zM813 1407q344 0 526 -179q183 -178 183 -538t-182 -539t-527 -179q-344 0 -529 180q-186 180 -186 537t186 537t529 181zM815 317q-158 -1 -246 91t-88 282t88 282t246 93q98 0 165 -38
q103 -58 103 -118q0 -25 -17 -42t-43 -17t-44 20q-66 72 -163 72t-148 -55q-52 -55 -52 -195t52 -196t153 -56q100 0 172 64q16 16 41 16t42 -17q18 -17 18 -39t-11 -36q-33 -47 -107 -79t-161 -32z" />
    <glyph glyph-name="ordfeminine" unicode="&#xaa;" horiz-adv-x="729" 
d="M664 565q0 -31 -22 -53t-52 -20h-453q-31 0 -53 22t-21 52q0 30 22 52t52 21h453q30 1 52 -21t22 -53zM352 866q57 0 99 34q41 34 41 89v37h-158q-96 0 -96 -78q-1 -82 114 -82zM367 1270q-70 0 -140 -56q-18 -12 -43 -12t-44 20t-19 47q0 28 18 48q77 90 217 90t214 -60
t73 -171v-353q-1 -31 -23 -53t-53 -22t-53 24t-22 51q-55 -84 -168 -84q-113 -1 -178 57q-64 58 -64 151t63 145t158 53h189v24q0 101 -125 101z" />
    <glyph glyph-name="guillemotleft" unicode="&#xab;" horiz-adv-x="1067" 
d="M494 434q0 29 22 55l315 363q29 31 62 31t57 -24q24 -23 23 -55q0 -32 -21 -52l-288 -318l288 -317q20 -20 20 -52t-23 -56q-25 -23 -57 -23t-61 30l-315 363q-22 26 -22 55zM94 434q0 29 23 55l315 363q27 31 61 31q33 0 57 -24q24 -23 24 -55t-21 -52l-289 -318
l289 -317q20 -20 20 -52q1 -32 -23 -56q-24 -23 -58 -23t-60 30l-315 363q-23 26 -23 55z" />
    <glyph glyph-name="logicalnot" unicode="&#xac;" horiz-adv-x="1163" 
d="M1096 573v-487q0 -41 -31 -72q-31 -30 -72 -30t-71 30t-31 72v393h-725q-39 0 -69 29t-29 70q0 42 30 70t68 28h827q41 0 72 -31t31 -72z" />
    <glyph glyph-name="registered" unicode="&#xae;" horiz-adv-x="802" 
d="M328 1108h75q49 0 50 47q0 47 -50 47h-75v-94zM328 1055v-90q0 -11 -10 -21t-21 -10q-12 0 -22 9q-9 9 -9 22v264q0 27 27 26h119q46 1 74 -29t28 -73t-24 -71t-58 -27l66 -74q6 -8 6 -18q0 -29 -29 -29q-16 0 -24 12l-80 109h-43zM385 842q233 0 233 254t-233 254
t-233 -254t233 -254zM383 1407q305 0 305 -312t-305 -313q-143 0 -222 79t-79 235t79 234t222 77z" />
    <glyph glyph-name="macron" unicode="&#xaf;" horiz-adv-x="813" 
d="M662 1151q0 -33 -23 -55t-55 -23h-355q-33 0 -55 23q-22 24 -22 56t22 54t55 23h355q34 -1 56 -23t22 -55z" />
    <glyph glyph-name="degree" unicode="&#xb0;" horiz-adv-x="759" 
d="M380 981q66 0 106 43t40 103q0 59 -41 103t-105 44t-106 -43t-41 -103q0 -60 41 -104q41 -43 106 -43zM659 1126q1 -118 -79 -198t-200 -80t-200 81t-80 197t80 199q80 82 200 82t200 -82t79 -199z" />
    <glyph glyph-name="plusminus" unicode="&#xb1;" horiz-adv-x="929" 
d="M930 94q0 -38 -28 -66t-66 -28h-742q-38 0 -66 28t-28 66t28 67q28 28 66 27h742q38 0 66 -28t28 -66zM930 664q0 -39 -28 -67t-66 -28h-273v-245q1 -41 -29 -70t-69 -29t-69 29t-29 70v245h-273q-38 0 -66 28t-28 67q0 38 28 66t66 28h273v248q-1 38 29 68t69 30t69 -30
t29 -68v-248h273q38 0 66 -28t28 -66z" />
    <glyph glyph-name="twosuperior" unicode="&#xb2;" horiz-adv-x="591" 
d="M289 1495q109 0 175 -54q66 -53 64 -131q0 -78 -48 -128t-106 -72q-155 -61 -155 -109h252q29 0 47 -19t18 -46t-18 -46t-47 -20h-342q-31 0 -53 22t-21 52q0 86 50 146q51 60 111 87q60 26 111 57q50 32 50 66q0 61 -88 62q-47 0 -105 -53q-53 -42 -93 2q-19 19 -19 45
t24 57t78 57q55 26 115 25z" />
    <glyph glyph-name="threesuperior" unicode="&#xb3;" horiz-adv-x="565" 
d="M516 1053q0 -83 -61 -139t-161 -56t-157 32q-98 55 -98 107q0 27 18 46t45 19t48 -20q55 -55 122 -55q96 0 97 80q0 80 -78 80h-45q-25 0 -42 17q-18 17 -18 43t25 53l88 92h-172q-29 0 -47 18t-19 47q1 29 19 47t47 19h289q27 -1 46 -19t19 -46t-20 -50l-105 -108
q78 0 119 -62t41 -145z" />
    <glyph glyph-name="acute" unicode="&#xb4;" horiz-adv-x="786" 
d="M340 1053q-49 -43 -97 2t-7 90l174 221q20 29 56 27t68 -33t32 -66q1 -35 -25 -57z" />
    <glyph glyph-name="mu" unicode="&#xb5;" horiz-adv-x="993" 
d="M313 836v-478q-1 -184 183 -184t184 184v478q0 46 33 78t78 32t77 -33t33 -77v-478q0 -174 -89 -279t-314 -106q-125 0 -185 64v-346q1 -47 -31 -79t-79 -32t-79 32t-32 79v1145q0 46 32 78t79 32t79 -32t31 -78z" />
    <glyph glyph-name="paragraph" unicode="&#xb6;" horiz-adv-x="1130" 
d="M733 1169h-76v-706q0 -209 -108 -326q98 49 141 143t43 273v616zM1098 1274q0 -43 -31 -74t-74 -31h-26v-557q0 -680 -600 -680q-57 0 -135 14t-107 31q-53 29 -53 81t30 82t63 30q32 0 81 -18t82 -19q174 0 174 301v168h-47q-162 0 -275 113q-112 113 -112 275t112 275
q113 114 275 113h538q43 0 74 -30t31 -74z" />
    <glyph glyph-name="periodcentered" unicode="&#xb7;" horiz-adv-x="460" 
d="M364 616q0 -136 -134 -135q-134 0 -134 135t135 136q133 0 133 -136z" />
    <glyph glyph-name="cedilla" unicode="&#xb8;" horiz-adv-x="669" 
d="M180 -166v166h103l-11 -109q28 7 94 7t120 -48t53 -135q0 -199 -224 -198q-96 0 -163 45q-23 14 -23 40t15 41q14 15 32 15t31 -6q57 -29 117 -29q100 0 100 92q0 86 -111 86l-90 -12q-43 0 -43 45z" />
    <glyph glyph-name="onesuperior" unicode="&#xb9;" horiz-adv-x="466" 
d="M295 864q-31 0 -53 23t-23 53v346l-65 -41q-16 -8 -39 -8q-23 -1 -45 21t-21 56q0 34 35 56l170 107q20 12 46 12t48 -23t23 -53v-473q-1 -32 -23 -54t-53 -22z" />
    <glyph glyph-name="ordmasculine" unicode="&#xba;" horiz-adv-x="741" 
d="M664 565q0 -31 -22 -53t-52 -20h-453q-31 0 -53 22t-21 52q0 30 22 52t52 21h453q30 1 52 -21t22 -53zM522 1073q0 205 -152 205t-153 -205q1 -205 153 -205t152 205zM674 1073q0 -166 -80 -250t-224 -84t-225 84q-80 84 -79 250q0 166 79 250q81 84 225 84t224 -84
t80 -250z" />
    <glyph glyph-name="guillemotright" unicode="&#xbb;" horiz-adv-x="1067" 
d="M573 434q0 -29 -22 -55l-315 -363q-27 -30 -61 -30q-33 0 -57 24t-24 55q0 32 21 52l288 317l-288 318q-21 20 -21 52t24 56t58 23q34 0 60 -31l315 -363q22 -26 22 -55zM973 434q0 -29 -23 -55l-315 -363q-29 -30 -62 -30t-57 24t-22 55q0 32 20 52l289 317l-289 318
q-20 20 -20 52t24 56t56 23q32 0 61 -31l315 -363q23 -26 23 -55z" />
    <glyph glyph-name="onequarter" unicode="&#xbc;" horiz-adv-x="1048" 
d="M758 242v139l-99 -139h99zM909 532v-290h29q29 0 48 -20q20 -20 20 -48q0 -27 -20 -47t-48 -21h-29v-47q-1 -31 -23 -53t-52 -22t-54 22q-23 22 -22 53v47h-199q-27 0 -47 20t-20 46q0 25 14 43l264 358q29 35 62 35t55 -22t22 -54zM254 -16q-34 0 -60 26t-26 50
q0 26 6 40l481 1239q23 55 70 55t78 -31q31 -32 12 -85l-481 -1239q-20 -55 -80 -55zM287 776q-31 0 -54 23t-22 53v346l-66 -41q-17 -8 -39 -8q-22 -1 -44 21t-22 56t36 56l170 107q20 12 46 12t48 -23t22 -53v-473q0 -32 -22 -54t-53 -22z" />
    <glyph glyph-name="onehalf" unicode="&#xbd;" horiz-adv-x="1122" 
d="M821 625q109 -1 175 -55t65 -131q0 -77 -48 -127q-49 -50 -107 -72q-154 -59 -154 -109h252q29 0 47 -18t18 -47q0 -30 -18 -48t-47 -18h-342q-31 0 -53 22t-21 52q0 86 50 146t110 86q160 69 161 124q0 61 -88 62q-47 0 -104 -54q-20 -18 -47 -18t-46 19t-19 46
q0 68 102 114q55 26 114 26zM264 -16q-34 0 -60 26t-26 50q0 26 6 40l482 1239q24 55 70 55t77 -31q31 -32 12 -85l-481 -1239q-20 -55 -80 -55zM297 776q-31 0 -53 23t-23 53v346l-65 -41q-16 -8 -39 -8q-23 -1 -45 21t-21 56q0 34 35 56l170 107q20 12 46 12t48 -23
t23 -53v-473q-1 -32 -23 -54t-53 -22z" />
    <glyph glyph-name="threequarters" unicode="&#xbe;" horiz-adv-x="1142" 
d="M516 965q0 -83 -61 -139t-161 -56t-157 32q-98 55 -98 107q0 27 18 46t45 19t48 -20q55 -55 122 -55q96 0 97 80q0 80 -78 80h-45q-25 0 -42 17t-18 42q0 25 25 53l88 93h-172q-29 0 -47 19t-19 46q1 27 19 46t47 20h289q27 1 46 -19t19 -47t-20 -49l-105 -109
q78 0 119 -62t41 -144zM872 242v139l-98 -139h98zM1024 532v-290h29q29 0 48 -20t19 -48q0 -27 -19 -47t-48 -21h-29v-47q0 -31 -23 -53t-53 -22t-54 22q-22 22 -22 53v47h-198q-27 0 -47 20q-21 20 -21 46q0 25 15 43l264 358q29 35 61 35t56 -22q22 -22 22 -54zM936 1319
q0 -24 -6 -41l-481 -1239q-20 -55 -80 -55q-35 0 -68 33t-12 83l481 1239q23 55 70 55q48 0 72 -25q24 -26 24 -50z" />
    <glyph glyph-name="questiondown" unicode="&#xbf;" horiz-adv-x="927" 
d="M511 958q134 0 134 -135t-134 -135t-134 135t134 135zM464 -264q94 0 145 44q52 44 53 128q0 47 33 80q34 32 79 32t79 -32t34 -80q0 -176 -111 -274q-110 -98 -310 -99q-200 0 -312 93t-113 266q0 114 61 196q60 82 134 120t135 80t61 81q0 20 -19 48q-19 27 -19 69
t34 73q35 31 79 31t77 -33q76 -74 76 -167t-63 -162q-62 -68 -136 -106t-136 -98q-63 -60 -63 -134t54 -115t148 -41z" />
    <glyph glyph-name="Agrave" unicode="&#xc0;" horiz-adv-x="1277" 
d="M799 1571q40 -45 -8 -90t-97 -2l-200 184q-27 23 -26 57t33 66q31 31 67 33t57 -27zM39 89q0 36 8 54l483 1178q31 74 109 74t109 -74l483 -1178q8 -18 8 -54t-35 -71t-82 -34q-78 0 -110 77l-125 297h-496l-125 -297q-33 -78 -110 -77q-47 0 -82 34t-35 71zM807 575
l-168 431l-168 -431h336z" />
    <glyph glyph-name="Aacute" unicode="&#xc1;" horiz-adv-x="1277" 
d="M586 1479q-49 -43 -97 2t-8 90l174 221q21 29 57 27t68 -33t32 -66q1 -35 -26 -57zM39 89q0 36 8 54l483 1178q31 74 109 74t109 -74l483 -1178q8 -18 8 -54t-35 -71t-82 -34q-78 0 -110 77l-125 297h-496l-125 -297q-33 -78 -110 -77q-47 0 -82 34t-35 71zM807 575
l-168 431l-168 -431h336z" />
    <glyph glyph-name="Acircumflex" unicode="&#xc2;" horiz-adv-x="1277" 
d="M639 1753q27 0 47 -14l191 -127q37 -27 37 -64q0 -36 -24 -60q-22 -24 -54 -24t-50 15l-147 102l-147 -102q-18 -15 -50 -15t-56 24q-22 24 -22 60t37 64l191 127q20 14 47 14zM39 89q0 36 8 54l483 1178q31 74 109 74t109 -74l483 -1178q8 -18 8 -54t-35 -71t-82 -34
q-78 0 -110 77l-125 297h-496l-125 -297q-33 -78 -110 -77q-47 0 -82 34t-35 71zM807 575l-168 431l-168 -431h336z" />
    <glyph glyph-name="Atilde" unicode="&#xc3;" horiz-adv-x="1277" 
d="M760 1645q32 -1 56 33t63 34t61 -22t23 -50q0 -74 -75 -118q-48 -29 -110 -29t-147 35q-86 35 -115 35q-30 0 -54 -34t-63 -34t-61 23t-23 50q0 73 75 118q96 58 254 -6q85 -34 116 -35zM39 89q0 36 8 54l483 1178q31 74 109 74t109 -74l483 -1178q8 -18 8 -54t-35 -71
t-82 -34q-78 0 -110 77l-125 297h-496l-125 -297q-33 -78 -110 -77q-47 0 -82 34t-35 71zM807 575l-168 431l-168 -431h336z" />
    <glyph glyph-name="Adieresis" unicode="&#xc4;" horiz-adv-x="1277" 
d="M825 1516q-102 0 -102 106t102 107q102 -1 102 -107t-102 -106zM455 1516q-103 0 -103 106t102 107q102 -1 103 -107q0 -106 -102 -106zM39 89q0 36 8 54l483 1178q31 74 109 74t109 -74l483 -1178q8 -18 8 -54t-35 -71t-82 -34q-78 0 -110 77l-125 297h-496l-125 -297
q-33 -78 -110 -77q-47 0 -82 34t-35 71zM807 575l-168 431l-168 -431h336z" />
    <glyph glyph-name="Aring" unicode="&#xc5;" horiz-adv-x="1277" 
d="M639 1845q105 0 161 -53q56 -54 56 -150t-55 -149t-161 -53t-163 53q-55 53 -55 149t55 150q56 53 162 53zM639 1542q102 0 102 100t-102 100t-102 -100t102 -100zM39 89q0 36 8 54l483 1178q31 74 109 74t109 -74l483 -1178q8 -18 8 -54t-35 -71t-82 -34q-78 0 -110 77
l-125 297h-496l-125 -297q-33 -78 -110 -77q-47 0 -82 34t-35 71zM807 575l-168 431l-168 -431h336z" />
    <glyph glyph-name="AE" unicode="&#xc6;" horiz-adv-x="1769" 
d="M1602 0h-662q-49 0 -84 33t-35 82v264h-344l-215 -340q-37 -55 -91 -55t-89 34t-35 75q0 40 21 73l772 1159q37 53 94 53h645q45 0 76 -30t31 -76q0 -45 -31 -76t-76 -31h-520v-366h387q43 0 74 -31q30 -31 30 -74q0 -44 -30 -74t-74 -30h-387v-377h543q46 0 76 -31
t30 -76q0 -46 -30 -76t-76 -30zM821 596v340l-215 -340h215z" />
    <glyph glyph-name="Ccedilla" unicode="&#xc7;" horiz-adv-x="1310" 
d="M70 688q0 719 656 719q327 0 478 -221q23 -35 23 -74t-33 -71q-33 -31 -78 -31t-84 41q-68 75 -142 109t-179 34q-203 0 -299 -125t-96 -386t94 -380t301 -119q113 0 185 30t146 105q45 45 89 45t77 -32q33 -33 33 -73t-20 -66q-180 -221 -541 -222l-6 -80q27 6 71 7
q87 0 141 -48t54 -135q0 -199 -223 -198q-96 0 -164 45q-23 14 -23 40t16 41t32 15q18 0 30 -6q57 -29 117 -29q100 0 100 92q0 86 -110 86l-90 -12q-43 0 -43 45v146q-512 68 -512 708z" />
    <glyph glyph-name="Egrave" unicode="&#xc8;" horiz-adv-x="1071" 
d="M719 1571q41 -45 -7 -90t-98 -2l-200 184q-27 23 -26 57t33 66q31 31 67 33t57 -27zM360 1165v-366h388q44 0 74 -31t30 -74q0 -44 -31 -74t-73 -30h-388v-377h543q45 0 76 -31t31 -76q0 -46 -31 -76t-76 -30h-661q-49 0 -84 35t-35 84v1141q0 50 35 84t84 34h639
q45 0 75 -30t31 -76q0 -45 -31 -76t-75 -31h-521z" />
    <glyph glyph-name="Eacute" unicode="&#xc9;" horiz-adv-x="1071" 
d="M551 1479q-49 -43 -97 2t-8 90l175 221q20 29 56 27q35 -2 67 -33t33 -66t-25 -57zM360 1165v-366h388q44 0 74 -31t30 -74q0 -44 -31 -74t-73 -30h-388v-377h543q45 0 76 -31t31 -76q0 -46 -31 -76t-76 -30h-661q-49 0 -84 35t-35 84v1141q0 50 35 84t84 34h639
q45 0 75 -30t31 -76q0 -45 -31 -76t-75 -31h-521z" />
    <glyph glyph-name="Ecircumflex" unicode="&#xca;" horiz-adv-x="1071" 
d="M571 1753q27 0 47 -14l191 -127q37 -27 37 -64q0 -36 -24 -60t-54 -24t-49 15l-148 102l-147 -102q-18 -15 -49 -15t-55 24t-23 60q0 36 37 64l190 127q20 14 47 14zM360 1165v-366h388q44 0 74 -31t30 -74q0 -44 -31 -74t-73 -30h-388v-377h543q45 0 76 -31t31 -76
q0 -46 -31 -76t-76 -30h-661q-49 0 -84 35t-35 84v1141q0 50 35 84t84 34h639q45 0 75 -30t31 -76q0 -45 -31 -76t-75 -31h-521z" />
    <glyph glyph-name="Edieresis" unicode="&#xcb;" horiz-adv-x="1071" 
d="M754 1516q-102 0 -102 106t102 107q102 -1 102 -107t-102 -106zM383 1516q-102 0 -102 106t102 107q102 -1 102 -107t-102 -106zM360 1165v-366h388q44 0 74 -31t30 -74q0 -44 -31 -74t-73 -30h-388v-377h543q45 0 76 -31t31 -76q0 -46 -31 -76t-76 -30h-661
q-49 0 -84 35t-35 84v1141q0 50 35 84t84 34h639q45 0 75 -30t31 -76q0 -45 -31 -76t-75 -31h-521z" />
    <glyph glyph-name="Igrave" unicode="&#xcc;" horiz-adv-x="483" 
d="M401 1571q41 -45 -7 -90t-97 -2l-201 184q-28 23 -26 57t34 66q32 31 67 33q36 2 56 -27zM360 1276v-1174q0 -49 -34 -84q-34 -34 -84 -34q-49 0 -84 34t-35 84v1174q0 49 35 84t84 35q50 0 84 -35t34 -84z" />
    <glyph glyph-name="Iacute" unicode="&#xcd;" horiz-adv-x="483" 
d="M225 1479q-49 -43 -97 2t-7 90l174 221q20 29 56 27t68 -33t33 -66t-26 -57zM360 1276v-1174q0 -49 -34 -84q-34 -34 -84 -34q-49 0 -84 34t-35 84v1174q0 49 35 84t84 35q50 0 84 -35t34 -84z" />
    <glyph glyph-name="Icircumflex" unicode="&#xce;" horiz-adv-x="483" 
d="M244 1753q27 0 47 -14l190 -127q37 -27 37 -64q0 -36 -24 -60t-54 -24q-31 0 -49 15l-147 102l-148 -102q-18 -15 -49 -15t-55 24t-23 60q0 36 37 64l191 127q20 14 47 14zM360 1276v-1174q0 -49 -34 -84q-34 -34 -84 -34q-49 0 -84 34t-35 84v1174q0 49 35 84t84 35
q50 0 84 -35t34 -84z" />
    <glyph glyph-name="Idieresis" unicode="&#xcf;" horiz-adv-x="483" 
d="M432 1516q-102 0 -102 106t102 107q102 -1 102 -107t-102 -106zM61 1516q-102 0 -102 106t102 107q102 -1 102 -107t-102 -106zM360 1276v-1174q0 -49 -34 -84q-34 -34 -84 -34q-49 0 -84 34t-35 84v1174q0 49 35 84t84 35q50 0 84 -35t34 -84z" />
    <glyph glyph-name="Eth" unicode="&#xd0;" horiz-adv-x="1302" 
d="M795 713q0 -39 -28 -67t-67 -28h-288v-405h157q207 0 314 110q106 109 106 365t-106 367t-314 110h-157v-358h288q39 1 67 -27t28 -67zM293 1378h276q322 0 494 -163t172 -527t-172 -526t-494 -162h-276q-49 0 -84 35t-35 84v499h-45q-39 0 -67 28t-27 67q-1 39 27 67
t67 27h45v453q0 50 35 84t84 34z" />
    <glyph glyph-name="Ntilde" unicode="&#xd1;" horiz-adv-x="1275" 
d="M758 1645q32 -1 56 33t62 34t62 -22t23 -50q0 -74 -75 -118q-48 -29 -110 -29t-147 35q-86 35 -115 35q-30 0 -54 -34t-62 -34t-62 23t-23 50q0 74 75 118q96 58 254 -6q85 -34 116 -35zM1047 1395q47 0 81 -35t35 -82v-1178q0 -47 -35 -82q-34 -34 -88 -34t-90 51
l-604 872v-807q0 -47 -35 -82q-35 -34 -82 -34t-82 34t-34 82v1178q0 47 34 82q35 35 89 35t88 -49l606 -879v811q0 47 35 82t82 35z" />
    <glyph glyph-name="Ograve" unicode="&#xd2;" horiz-adv-x="1437" 
d="M879 1571q40 -45 -8 -90t-97 -2l-201 184q-27 23 -25 57t33 66q31 31 67 33t57 -27zM719 1194q-403 0 -403 -505t402 -505q404 0 404 505t-403 505zM719 -29q-313 -1 -481 181t-168 538t167 536t482 181q315 0 482 -180q167 -181 167 -537t-168 -538t-481 -181z" />
    <glyph glyph-name="Oacute" unicode="&#xd3;" horiz-adv-x="1437" 
d="M700 1479q-49 -43 -97 2t-7 90l174 221q20 29 56 27t68 -33t33 -66t-26 -57zM719 1194q-403 0 -403 -505t402 -505q404 0 404 505t-403 505zM719 -29q-313 -1 -481 181t-168 538t167 536t482 181q315 0 482 -180q167 -181 167 -537t-168 -538t-481 -181z" />
    <glyph glyph-name="Ocircumflex" unicode="&#xd4;" horiz-adv-x="1437" 
d="M717 1753q27 0 47 -14l190 -127q37 -27 37 -64q-1 -36 -23 -60t-54 -24t-50 15l-147 102l-148 -102q-18 -15 -50 -15q-33 0 -55 24t-22 60t37 64l191 127q20 14 47 14zM719 1194q-403 0 -403 -505t402 -505q404 0 404 505t-403 505zM719 -29q-313 -1 -481 181t-168 538
t167 536t482 181q315 0 482 -180q167 -181 167 -537t-168 -538t-481 -181z" />
    <glyph glyph-name="Otilde" unicode="&#xd5;" horiz-adv-x="1437" 
d="M840 1645q32 -1 56 33t62 34t62 -22t22 -50q-1 -75 -74 -118q-48 -29 -110 -29t-147 35q-86 35 -115 35q-30 0 -54 -34t-62 -34t-62 23t-23 50q0 74 75 118q96 58 254 -6q85 -34 116 -35zM719 1194q-403 0 -403 -505t402 -505q404 0 404 505t-403 505zM719 -29
q-313 -1 -481 181t-168 538t167 536t482 181q315 0 482 -180q167 -181 167 -537t-168 -538t-481 -181z" />
    <glyph glyph-name="Odieresis" unicode="&#xd6;" horiz-adv-x="1437" 
d="M903 1516q-102 0 -102 106t102 107q102 -1 102 -107t-102 -106zM532 1516q-102 0 -102 106t102 107q102 -1 102 -107t-102 -106zM719 1194q-403 0 -403 -505t402 -505q404 0 404 505t-403 505zM719 -29q-313 -1 -481 181t-168 538t167 536t482 181q315 0 482 -180
q167 -181 167 -537t-168 -538t-481 -181z" />
    <glyph glyph-name="multiply" unicode="&#xd7;" horiz-adv-x="761" 
d="M662 815q40 0 70 -30q30 -31 30 -73t-33 -71l-207 -192l207 -193q33 -29 33 -72q0 -42 -30 -72t-70 -30t-70 29l-211 200l-211 -200q-29 -29 -70 -29q-40 0 -70 30t-30 72t33 72l207 193l-207 192q-33 29 -33 72t30 73t70 29q40 0 70 -29l211 -200l211 200q29 29 70 29z
" />
    <glyph glyph-name="Oslash" unicode="&#xd8;" horiz-adv-x="1437" 
d="M719 184q403 0 403 504q0 176 -49 293l-594 -731q90 -66 240 -66zM719 1194q-403 0 -404 -506q0 -178 50 -295l596 733q-97 68 -242 68zM719 -29q-233 0 -385 99l-74 -90q-27 -33 -67 -33q-41 1 -67 27t-26 61t21 59l82 101q-133 175 -133 513t167 518t482 181
q236 0 387 -100l70 86q26 33 66 33t67 -28q27 -26 27 -61t-21 -59l-78 -96q131 -178 131 -513t-168 -517t-481 -181z" />
    <glyph glyph-name="Ugrave" unicode="&#xd9;" horiz-adv-x="1267" 
d="M776 1571q41 -45 -7 -90t-97 -2l-201 184q-27 23 -26 57t33 66q32 31 68 33t56 -27zM639 -29q-147 0 -253 41t-162 113q-103 137 -101 326v825q0 49 35 84t84 35t84 -35t34 -84v-825q0 -271 279 -271t279 271v825q0 49 34 84q35 35 84 35t84 -35t35 -84v-825
q0 -193 -101 -326q-54 -72 -161 -113t-254 -41z" />
    <glyph glyph-name="Uacute" unicode="&#xda;" horiz-adv-x="1267" 
d="M649 1479q-49 -43 -97 2t-7 90l174 221q20 29 56 27t68 -33t33 -66t-26 -57zM639 -29q-147 0 -253 41t-162 113q-103 137 -101 326v825q0 49 35 84t84 35t84 -35t34 -84v-825q0 -271 279 -271t279 271v825q0 49 34 84q35 35 84 35t84 -35t35 -84v-825q0 -193 -101 -326
q-54 -72 -161 -113t-254 -41z" />
    <glyph glyph-name="Ucircumflex" unicode="&#xdb;" horiz-adv-x="1267" 
d="M647 1753q27 0 47 -14l191 -127q37 -27 37 -64q0 -36 -23 -60t-55 -24t-49 15l-148 102l-147 -102q-18 -15 -50 -15t-55 24t-23 60t38 64l190 127q20 14 47 14zM639 -29q-147 0 -253 41t-162 113q-103 137 -101 326v825q0 49 35 84t84 35t84 -35t34 -84v-825
q0 -271 279 -271t279 271v825q0 49 34 84q35 35 84 35t84 -35t35 -84v-825q0 -193 -101 -326q-54 -72 -161 -113t-254 -41z" />
    <glyph glyph-name="Udieresis" unicode="&#xdc;" horiz-adv-x="1267" 
d="M827 1516q-102 0 -102 106t102 107q102 -1 102 -107t-102 -106zM457 1516q-103 0 -103 106t102 107q102 -1 103 -107q0 -106 -102 -106zM639 -29q-147 0 -253 41t-162 113q-103 137 -101 326v825q0 49 35 84t84 35t84 -35t34 -84v-825q0 -271 279 -271t279 271v825
q0 49 34 84q35 35 84 35t84 -35t35 -84v-825q0 -193 -101 -326q-54 -72 -161 -113t-254 -41z" />
    <glyph glyph-name="Yacute" unicode="&#xdd;" horiz-adv-x="1134" 
d="M586 1479q-49 -43 -97 2t-8 90l174 221q21 29 57 27t68 -33t32 -66q1 -35 -26 -57zM1096 1281q0 -44 -19 -69l-391 -583v-527q0 -49 -35 -84q-35 -34 -84 -34t-84 34t-34 84v527l-392 583q-18 25 -18 69t35 79q35 34 92 34t92 -55l309 -485l310 485q35 55 92 55t92 -34
q35 -35 35 -79z" />
    <glyph glyph-name="Thorn" unicode="&#xde;" horiz-adv-x="1130" 
d="M614 924h-254v-416h254q96 0 150 54q53 54 53 154q-1 100 -55 154t-148 54zM360 1276v-139h273q190 -1 310 -107t120 -312t-120 -315t-310 -108h-273v-193q0 -49 -34 -84q-34 -34 -84 -34q-49 0 -84 34t-35 84v1174q0 49 35 84t84 35q50 0 84 -35t34 -84z" />
    <glyph glyph-name="germandbls" unicode="&#xdf;" horiz-adv-x="1204" 
d="M926 256q0 47 -52 78q-52 32 -124 54q-74 22 -149 52t-126 90q-51 62 -51 136q0 125 99 208q42 35 84 66q100 74 100 141q0 47 -42 88q-41 41 -133 41t-150 -53t-58 -139v-928q0 -45 -32 -76q-32 -30 -80 -30t-79 30t-31 76v911q0 172 116 287t300 115t297 -95t113 -227
q0 -82 -44 -143t-98 -91t-97 -72q-44 -42 -44 -85q0 -42 52 -70t126 -50t148 -52t126 -92q52 -63 52 -158q-1 -139 -105 -215t-248 -76q-144 1 -241 45q-98 44 -133 87t-35 79t30 66q29 29 65 29t67 -25q101 -84 239 -84t138 82z" />
    <glyph glyph-name="agrave" unicode="&#xe0;" horiz-adv-x="966" 
d="M621 1145q40 -45 -8 -90t-97 -2l-201 184q-27 23 -25 57t33 66q31 31 67 33t56 -27zM446 158q86 0 148 51q61 51 61 133v57h-239q-139 0 -140 -116q0 -125 170 -125zM465 762q-92 0 -201 -78q-28 -20 -64 -20t-65 28t-29 68q0 39 27 67q119 131 323 131t311 -90
q108 -90 107 -252v-524q0 -45 -32 -77q-32 -31 -76 -31q-45 0 -77 32t-32 76q-74 -119 -268 -119q-150 0 -242 85q-92 86 -92 224q-1 138 95 214t237 75h268v37q0 70 -49 112t-141 42z" />
    <glyph glyph-name="aacute" unicode="&#xe1;" horiz-adv-x="966" 
d="M467 1053q-49 -43 -97 2t-8 90l175 221q20 29 56 27q35 -2 67 -33t33 -66t-25 -57zM446 158q86 0 148 51q61 51 61 133v57h-239q-139 0 -140 -116q0 -125 170 -125zM465 762q-92 0 -201 -78q-28 -20 -64 -20t-65 28t-29 68q0 39 27 67q119 131 323 131t311 -90
q108 -90 107 -252v-524q0 -45 -32 -77q-32 -31 -76 -31q-45 0 -77 32t-32 76q-74 -119 -268 -119q-150 0 -242 85q-92 86 -92 224q-1 138 95 214t237 75h268v37q0 70 -49 112t-141 42z" />
    <glyph glyph-name="acircumflex" unicode="&#xe2;" horiz-adv-x="966" 
d="M481 1346q27 0 47 -15l191 -127q37 -26 37 -64t-24 -61t-54 -23t-49 15l-148 103l-147 -103q-18 -14 -49 -14q-31 1 -55 23t-24 60t38 64l190 127q20 15 47 15zM446 158q86 0 148 51q61 51 61 133v57h-239q-139 0 -140 -116q0 -125 170 -125zM465 762q-92 0 -201 -78
q-28 -20 -64 -20t-65 28t-29 68q0 39 27 67q119 131 323 131t311 -90q108 -90 107 -252v-524q0 -45 -32 -77q-32 -31 -76 -31q-45 0 -77 32t-32 76q-74 -119 -268 -119q-150 0 -242 85q-92 86 -92 224q-1 138 95 214t237 75h268v37q0 70 -49 112t-141 42z" />
    <glyph glyph-name="atilde" unicode="&#xe3;" horiz-adv-x="966" 
d="M604 1227q32 0 56 34q24 33 63 33t61 -22t23 -50q0 -73 -75 -118q-48 -29 -109 -29t-147 35t-116 35t-54 -34t-62 -34t-62 23q-22 23 -22 50q1 74 74 118q96 58 254 -6q85 -34 116 -35zM446 158q86 0 148 51q61 51 61 133v57h-239q-139 0 -140 -116q0 -125 170 -125z
M465 762q-92 0 -201 -78q-28 -20 -64 -20t-65 28t-29 68q0 39 27 67q119 131 323 131t311 -90q108 -90 107 -252v-524q0 -45 -32 -77q-32 -31 -76 -31q-45 0 -77 32t-32 76q-74 -119 -268 -119q-150 0 -242 85q-92 86 -92 224q-1 138 95 214t237 75h268v37q0 70 -49 112
t-141 42z" />
    <glyph glyph-name="adieresis" unicode="&#xe4;" horiz-adv-x="966" 
d="M668 1067q-102 1 -102 107t102 106t102 -106t-102 -107zM297 1067q-102 1 -102 107t102 106t102 -106t-102 -107zM446 158q86 0 148 51q61 51 61 133v57h-239q-139 0 -140 -116q0 -125 170 -125zM465 762q-92 0 -201 -78q-28 -20 -64 -20t-65 28t-29 68q0 39 27 67
q119 131 323 131t311 -90q108 -90 107 -252v-524q0 -45 -32 -77q-32 -31 -76 -31q-45 0 -77 32t-32 76q-74 -119 -268 -119q-150 0 -242 85q-92 86 -92 224q-1 138 95 214t237 75h268v37q0 70 -49 112t-141 42z" />
    <glyph glyph-name="aring" unicode="&#xe5;" horiz-adv-x="966" 
d="M483 1432q105 0 161 -54t56 -149t-55 -149t-161 -54t-162 53t-56 149t56 150t161 54zM483 1128q102 0 103 101q0 100 -102 100q-102 -1 -103 -101q0 -100 102 -100zM446 158q86 0 148 51q61 51 61 133v57h-239q-139 0 -140 -116q0 -125 170 -125zM465 762q-92 0 -201 -78
q-28 -20 -64 -20t-65 28t-29 68q0 39 27 67q119 131 323 131t311 -90q108 -90 107 -252v-524q0 -45 -32 -77q-32 -31 -76 -31q-45 0 -77 32t-32 76q-74 -119 -268 -119q-150 0 -242 85q-92 86 -92 224q-1 138 95 214t237 75h268v37q0 70 -49 112t-141 42z" />
    <glyph glyph-name="ae" unicode="&#xe6;" horiz-adv-x="1556" 
d="M1286 571q0 83 -48 141t-141 58t-151 -51t-65 -148h405zM446 158q86 0 148 51q61 51 61 133v57h-239q-139 0 -140 -116q0 -125 170 -125zM465 762q-92 0 -201 -78q-28 -20 -64 -20t-65 28t-29 68q0 39 27 67q119 131 334 131t321 -110q115 111 308 110q123 0 209 -42
t127 -110q73 -122 73 -251t-53 -155q-27 -13 -72 -13h-506q0 -111 66 -163t173 -52t194 57t143 0q29 -29 29 -71t-35 -72q-119 -113 -330 -113q-264 0 -369 168q-57 -82 -137 -125t-224 -43t-237 85q-92 86 -92 224q-1 138 95 214t237 75h268v37q0 70 -49 112t-141 42z" />
    <glyph glyph-name="ccedilla" unicode="&#xe7;" horiz-adv-x="923" 
d="M379 -166v152q-319 68 -320 481q0 246 116 369t329 122q125 0 210 -45q149 -79 146 -159q0 -41 -29 -70t-71 -29t-74 35q-74 80 -181 80t-165 -79t-57 -225q0 -146 57 -225q56 -79 156 -79t211 82q29 20 65 20t66 -28q28 -28 28 -71q0 -42 -35 -75q-127 -117 -327 -117
h-25l-8 -82q27 7 93 7t120 -48q53 -48 53 -135q0 -199 -223 -198q-96 0 -164 45q-22 14 -22 40t16 41t32 15t30 -6q57 -29 116 -29q100 0 101 92q0 86 -111 86l-90 -12q-43 0 -43 45z" />
    <glyph glyph-name="egrave" unicode="&#xe8;" horiz-adv-x="964" 
d="M657 1145q41 -45 -7 -90t-97 -2l-201 184q-28 23 -26 57t34 66q32 31 67 33q36 2 56 -27zM694 571q0 83 -48 141t-141 58t-151 -51t-65 -148h405zM61 460q0 242 117 370t326 128q123 0 209 -42t127 -110q73 -122 73 -251t-53 -155q-27 -13 -72 -13h-505q0 -106 66 -161
q67 -54 175 -54t194 58q87 58 141 -1q28 -29 28 -71t-35 -72q-119 -113 -334 -113t-336 123q-121 122 -121 364z" />
    <glyph glyph-name="eacute" unicode="&#xe9;" horiz-adv-x="964" 
d="M479 1053q-49 -43 -97 2t-7 90l174 221q20 29 56 27t68 -33t33 -66t-26 -57zM694 571q0 83 -48 141t-141 58t-151 -51t-65 -148h405zM61 460q0 242 117 370t326 128q123 0 209 -42t127 -110q73 -122 73 -251t-53 -155q-27 -13 -72 -13h-505q0 -106 66 -161
q67 -54 175 -54t194 58q87 58 141 -1q28 -29 28 -71t-35 -72q-119 -113 -334 -113t-336 123q-121 122 -121 364z" />
    <glyph glyph-name="ecircumflex" unicode="&#xea;" horiz-adv-x="964" 
d="M504 1346q27 0 47 -15l190 -127q37 -26 37 -64t-22 -61t-55 -23q-32 0 -50 15l-147 103l-148 -103q-18 -14 -50 -14q-32 1 -54 23t-23 60q0 38 37 64l191 127q20 15 47 15zM694 571q0 83 -48 141t-141 58t-151 -51t-65 -148h405zM61 460q0 242 117 370t326 128
q123 0 209 -42t127 -110q73 -122 73 -251t-53 -155q-27 -13 -72 -13h-505q0 -106 66 -161q67 -54 175 -54t194 58q87 58 141 -1q28 -29 28 -71t-35 -72q-119 -113 -334 -113t-336 123q-121 122 -121 364z" />
    <glyph glyph-name="edieresis" unicode="&#xeb;" horiz-adv-x="964" 
d="M690 1067q-102 1 -102 107t102 106t102 -106t-102 -107zM319 1067q-102 1 -102 107t102 106t102 -106t-102 -107zM694 571q0 83 -48 141t-141 58t-151 -51t-65 -148h405zM61 460q0 242 117 370t326 128q123 0 209 -42t127 -110q73 -122 73 -251t-53 -155q-27 -13 -72 -13
h-505q0 -106 66 -161q67 -54 175 -54t194 58q87 58 141 -1q28 -29 28 -71t-35 -72q-119 -113 -334 -113t-336 123q-121 122 -121 364z" />
    <glyph glyph-name="igrave" unicode="&#xec;" 
d="M356 1145q41 -45 -7 -90t-97 -2l-201 184q-27 23 -25 57t32 66q32 31 68 33t56 -27zM334 836v-742q0 -45 -32 -78q-32 -32 -79 -32t-79 32t-31 78v742q-1 46 31 78t79 32t79 -32t32 -78z" />
    <glyph glyph-name="iacute" unicode="&#xed;" 
d="M205 1053q-49 -43 -97 2t-8 90l174 221q20 29 56 27t68 -33t33 -66t-25 -57zM334 836v-742q0 -45 -32 -78q-32 -32 -79 -32t-79 32t-31 78v742q-1 46 31 78t79 32t79 -32t32 -78z" />
    <glyph glyph-name="icircumflex" unicode="&#xee;" 
d="M223 1346q27 0 47 -15l191 -127q37 -26 37 -64t-24 -61t-54 -23t-49 15l-148 103l-147 -103q-18 -14 -49 -14q-31 1 -55 23t-24 60t38 64l190 127q20 15 47 15zM334 836v-742q0 -45 -32 -78q-32 -32 -79 -32t-79 32t-31 78v742q-1 46 31 78t79 32t79 -32t32 -78z" />
    <glyph glyph-name="idieresis" unicode="&#xef;" 
d="M410 1067q-102 1 -102 107t102 106t102 -106t-102 -107zM39 1067q-102 1 -102 107t102 106t102 -106t-102 -107zM334 836v-742q0 -45 -32 -78q-32 -32 -79 -32t-79 32t-31 78v742q-1 46 31 78t79 32t79 -32t32 -78z" />
    <glyph glyph-name="eth" unicode="&#xf0;" horiz-adv-x="1019" 
d="M508 162q225 0 225 304t-225 304t-225 -304t225 -304zM956 465q0 -246 -118 -369t-330 -123q-213 0 -331 123t-118 369t118 370t331 123q111 0 190 -43q-33 106 -88 181l-90 -60q-18 -12 -51 -12t-61 28t-27 72q0 44 43 72l45 31q-53 35 -117 63t-65 84q0 35 24 60
q40 40 109 14q115 -47 205 -121l73 49q18 12 51 12t61 -27t28 -71t-43 -73l-39 -25q195 -256 200 -703v-24z" />
    <glyph glyph-name="ntilde" unicode="&#xf1;" horiz-adv-x="1021" 
d="M649 1227q31 0 56 34q25 33 63 33t62 -22q22 -22 22 -50q0 -73 -75 -118q-48 -29 -109 -29q-62 0 -148 35t-114 35t-54 -34t-64 -34t-61 23t-23 50q1 74 76 118q95 58 253 -6q85 -34 116 -35zM586 958q344 0 344 -356v-512q0 -45 -32 -76q-32 -30 -80 -30t-79 30t-30 76
v471q0 197 -181 197q-205 0 -204 -211v-457q0 -45 -32 -76q-32 -30 -79 -30t-79 30t-32 76v746q0 46 33 78t78 32t78 -33t33 -77q80 122 262 122z" />
    <glyph glyph-name="ograve" unicode="&#xf2;" horiz-adv-x="1015" 
d="M668 1145q40 -45 -8 -90t-97 -2l-201 184q-28 23 -26 57t34 66q32 31 68 33t56 -27zM508 162q225 0 225 304t-225 304t-225 -304t225 -304zM956 465q0 -246 -118 -369t-330 -123q-213 0 -331 123t-118 369t118 370q118 123 331 123t331 -123q117 -124 117 -370z" />
    <glyph glyph-name="oacute" unicode="&#xf3;" horiz-adv-x="1015" 
d="M504 1053q-49 -43 -97 2t-8 90l174 221q21 29 57 27t68 -33t32 -66q1 -35 -25 -57zM508 162q225 0 225 304t-225 304t-225 -304t225 -304zM956 465q0 -246 -118 -369t-330 -123q-213 0 -331 123t-118 369t118 370q118 123 331 123t331 -123q117 -124 117 -370z" />
    <glyph glyph-name="ocircumflex" unicode="&#xf4;" horiz-adv-x="1015" 
d="M512 1346q27 0 47 -15l191 -127q36 -26 36 -64t-22 -61t-54 -23t-51 15l-147 103l-147 -103q-19 -14 -51 -14q-32 1 -54 23t-22 60t36 64l191 127q20 15 47 15zM508 162q225 0 225 304t-225 304t-225 -304t225 -304zM956 465q0 -246 -118 -369t-330 -123q-213 0 -331 123
t-118 369t118 370q118 123 331 123t331 -123q117 -124 117 -370z" />
    <glyph glyph-name="otilde" unicode="&#xf5;" horiz-adv-x="1015" 
d="M635 1227q31 0 55 34q24 33 63 33q37 0 61 -22t24 -50q0 -72 -75 -118q-47 -29 -109 -29t-148 35t-115 35t-53 -34t-63 -34q-37 0 -61 23t-24 50q0 73 75 118q96 58 254 -6q85 -34 116 -35zM508 162q225 0 225 304t-225 304t-225 -304t225 -304zM956 465
q0 -246 -118 -369t-330 -123q-213 0 -331 123t-118 369t118 370q118 123 331 123t331 -123q117 -124 117 -370z" />
    <glyph glyph-name="odieresis" unicode="&#xf6;" horiz-adv-x="1015" 
d="M696 1067q-102 1 -102 107t102 106t102 -106t-102 -107zM326 1067q-102 1 -102 107t102 106t102 -106t-102 -107zM508 162q225 0 225 304t-225 304t-225 -304t225 -304zM956 465q0 -246 -118 -369t-330 -123q-213 0 -331 123t-118 369t118 370q118 123 331 123t331 -123
q117 -124 117 -370z" />
    <glyph glyph-name="divide" unicode="&#xf7;" horiz-adv-x="929" 
d="M930 449q0 -39 -28 -67t-66 -28h-742q-38 0 -66 28t-28 67t28 67t66 27h742q38 1 66 -27t28 -67zM352 725q0 47 32 79t81 32t81 -32t32 -79t-32 -78t-81 -31t-81 31t-32 78zM352 171q0 46 32 78t80 32t81 -32t33 -78t-32 -77t-81 -31t-81 31t-32 77z" />
    <glyph glyph-name="oslash" unicode="&#xf8;" horiz-adv-x="1015" 
d="M283 465q0 -61 8 -103l348 367q-53 41 -131 41q-225 0 -225 -305zM733 465q0 57 -10 115l-354 -373q53 -45 139 -45q225 0 225 303zM956 465q0 -246 -118 -369t-310 -123q-194 0 -305 80l-43 -45q-26 -24 -60 -24t-58 24t-23 58q0 33 24 57l56 57q-59 113 -60 285
q0 246 118 370t331 123q168 0 276 -75l52 53q26 25 60 25t58 -24q24 -23 23 -57q0 -34 -25 -59l-59 -63q63 -117 63 -293z" />
    <glyph glyph-name="ugrave" unicode="&#xf9;" horiz-adv-x="993" 
d="M639 1145q41 -45 -7 -90t-97 -2l-201 184q-27 23 -26 57t33 66q32 31 68 33t56 -27zM203 946q47 0 79 -33t31 -77v-478q-1 -184 183 -184t184 184v478q0 46 33 78t78 32t77 -33t33 -77v-478q0 -174 -89 -279t-315 -105q-225 0 -315 104q-90 106 -90 280v478q0 46 32 78
t79 32z" />
    <glyph glyph-name="uacute" unicode="&#xfa;" horiz-adv-x="993" 
d="M500 1053q-49 -43 -97 2t-8 90l174 221q21 29 57 27t68 -33t32 -66q1 -35 -26 -57zM203 946q47 0 79 -33t31 -77v-478q-1 -184 183 -184t184 184v478q0 46 33 78t78 32t77 -33t33 -77v-478q0 -174 -89 -279t-315 -105q-225 0 -315 104q-90 106 -90 280v478q0 46 32 78
t79 32z" />
    <glyph glyph-name="ucircumflex" unicode="&#xfb;" horiz-adv-x="993" 
d="M502 1346q27 0 47 -15l190 -127q37 -26 37 -64t-24 -61t-54 -23q-31 0 -49 15l-147 103l-148 -103q-18 -14 -49 -14q-31 1 -55 23t-23 60q0 38 37 64l191 127q20 15 47 15zM203 946q47 0 79 -33t31 -77v-478q-1 -184 183 -184t184 184v478q0 46 33 78t78 32t77 -33
t33 -77v-478q0 -174 -89 -279t-315 -105q-225 0 -315 104q-90 106 -90 280v478q0 46 32 78t79 32z" />
    <glyph glyph-name="udieresis" unicode="&#xfc;" horiz-adv-x="993" 
d="M690 1067q-102 1 -102 107t102 106t102 -106t-102 -107zM319 1067q-102 1 -102 107t102 106t102 -106t-102 -107zM203 946q47 0 79 -33t31 -77v-478q-1 -184 183 -184t184 184v478q0 46 33 78t78 32t77 -33t33 -77v-478q0 -174 -89 -279t-315 -105q-225 0 -315 104
q-90 106 -90 280v478q0 46 32 78t79 32z" />
    <glyph glyph-name="yacute" unicode="&#xfd;" horiz-adv-x="925" 
d="M477 1053q-49 -43 -97 2t-7 90l174 221q20 29 56 27t68 -33q33 -31 33 -66t-26 -57zM88 -207q92 0 148 66q55 66 112 207l-315 727q-8 20 -8 54q1 35 33 67t77 32q76 0 103 -69l225 -570l225 570q27 70 103 69q45 0 77 -33t33 -67q0 -34 -8 -53l-381 -861
q-154 -344 -424 -344q-45 0 -76 29t-30 74q0 45 30 73t76 29z" />
    <glyph glyph-name="thorn" unicode="&#xfe;" horiz-adv-x="1052" 
d="M547 162q219 0 219 304t-219 304t-219 -304t219 -304zM223 1458q47 0 79 -33t32 -77v-512q30 47 94 85t152 37q199 0 305 -122t106 -369q0 -494 -416 -494q-166 0 -241 103v-377q0 -47 -32 -79t-79 -32t-79 32t-31 79v1649q-1 46 31 78t79 32z" />
    <glyph glyph-name="ydieresis" unicode="&#xff;" horiz-adv-x="925" 
d="M649 1067q-102 1 -102 107t102 106t102 -106t-102 -107zM279 1067q-103 1 -103 107t102 106t103 -106q0 -106 -102 -107zM88 -207q92 0 148 66q55 66 112 207l-315 727q-8 20 -8 54q1 35 33 67t77 32q76 0 103 -69l225 -570l225 570q27 70 103 69q45 0 77 -33t33 -67
q0 -34 -8 -53l-381 -861q-154 -344 -424 -344q-45 0 -76 29t-30 74q0 45 30 73t76 29z" />
    <glyph glyph-name="Amacron" unicode="&#x100;" horiz-adv-x="1277" 
d="M895 1579q0 -33 -23 -55t-55 -23h-354q-33 0 -55 23q-22 24 -23 56q0 32 23 54t55 23h354q33 -1 55 -23t23 -55zM39 89q0 36 8 54l483 1178q31 74 109 74t109 -74l483 -1178q8 -18 8 -54t-35 -71t-82 -34q-78 0 -110 77l-125 297h-496l-125 -297q-33 -78 -110 -77
q-47 0 -82 34t-35 71zM807 575l-168 431l-168 -431h336z" />
    <glyph glyph-name="amacron" unicode="&#x101;" horiz-adv-x="966" 
d="M731 1151q-1 -33 -23 -55t-55 -23h-354q-33 0 -55 23q-22 24 -23 56q0 32 23 54t55 23h354q33 -1 55 -23t23 -55zM446 158q86 0 148 51q61 51 61 133v57h-239q-139 0 -140 -116q0 -125 170 -125zM465 762q-92 0 -201 -78q-28 -20 -64 -20t-65 28t-29 68q0 39 27 67
q119 131 323 131t311 -90q108 -90 107 -252v-524q0 -45 -32 -77q-32 -31 -76 -31q-45 0 -77 32t-32 76q-74 -119 -268 -119q-150 0 -242 85q-92 86 -92 224q-1 138 95 214t237 75h268v37q0 70 -49 112t-141 42z" />
    <glyph glyph-name="Abreve" unicode="&#x102;" horiz-adv-x="1277" 
d="M639 1491q-127 0 -205 54t-78 165q0 30 22 52t52 22t52 -22t22 -52q0 -80 135 -80t135 80q0 30 22 52t52 22t52 -22t22 -52q0 -111 -78 -165t-205 -54zM39 89q0 36 8 54l483 1178q31 74 109 74t109 -74l483 -1178q8 -18 8 -54t-35 -71t-82 -34q-78 0 -110 77l-125 297
h-496l-125 -297q-33 -78 -110 -77q-47 0 -82 34t-35 71zM807 575l-168 431l-168 -431h336z" />
    <glyph glyph-name="abreve" unicode="&#x103;" horiz-adv-x="966" 
d="M502 1071q-127 0 -205 54t-78 165q0 30 22 52q23 22 53 22t52 -22t21 -52q0 -80 135 -80t135 80q-1 30 21 52t53 22t53 -22t20 -52q0 -111 -78 -165t-204 -54zM446 158q86 0 148 51q61 51 61 133v57h-239q-139 0 -140 -116q0 -125 170 -125zM465 762q-92 0 -201 -78
q-28 -20 -64 -20t-65 28t-29 68q0 39 27 67q119 131 323 131t311 -90q108 -90 107 -252v-524q0 -45 -32 -77q-32 -31 -76 -31q-45 0 -77 32t-32 76q-74 -119 -268 -119q-150 0 -242 85q-92 86 -92 224q-1 138 95 214t237 75h268v37q0 70 -49 112t-141 42z" />
    <glyph glyph-name="Aogonek" unicode="&#x104;" horiz-adv-x="1277" 
d="M807 575l-168 431l-168 -431h336zM1348 -305q0 -80 -170 -80q-100 0 -170 43t-70 137q0 63 39 119t92 84q-41 18 -57 63l-125 297h-496l-125 -297q-33 -78 -110 -77q-47 0 -82 34t-35 71q0 36 8 54l483 1178q31 74 109 74t109 -74l483 -1178q8 -18 8 -43q0 -59 -68 -106
q-102 -72 -102 -158q0 -94 127 -94l90 14q26 0 44 -17t18 -44z" />
    <glyph glyph-name="aogonek" unicode="&#x105;" horiz-adv-x="966" 
d="M446 158q86 0 148 51q61 51 61 133v57h-239q-139 0 -140 -116q0 -125 170 -125zM991 -305q0 -80 -170 -80q-100 0 -170 43t-69 137q0 63 39 119t92 84q-55 27 -56 94q-74 -119 -268 -119q-150 0 -242 85q-92 86 -92 224q-1 138 95 214t237 75h268v37q0 70 -49 112
t-141 42t-201 -78q-28 -20 -64 -20t-65 28t-29 68q0 39 27 67q119 131 323 131t311 -90q108 -90 107 -252v-524q0 -57 -51 -92q-111 -76 -110 -164q0 -94 127 -94l90 14q27 0 44 -17t17 -44z" />
    <glyph glyph-name="Cacute" unicode="&#x106;" horiz-adv-x="1310" 
d="M674 1479q-49 -43 -97 2t-8 90l174 221q21 29 57 27t68 -33t32 -66q1 -35 -26 -57zM711 -29q-641 0 -641 718t656 718q327 0 478 -221q23 -35 23 -74t-33 -71q-33 -31 -78 -31t-84 41q-68 75 -142 109t-179 34q-203 0 -299 -125t-96 -386t94 -380t301 -119q113 0 185 30
t146 105q45 45 89 45t77 -32q33 -33 33 -73t-20 -66q-76 -100 -212 -161t-298 -61z" />
    <glyph glyph-name="cacute" unicode="&#x107;" horiz-adv-x="923" 
d="M483 1053q-49 -43 -97 2t-7 90l174 221q20 29 56 27t68 -33t33 -66t-26 -57zM59 467q0 246 116 369t329 122q125 0 210 -45q149 -79 146 -159q0 -41 -29 -70t-71 -29t-74 35q-74 80 -181 80t-165 -79t-57 -225q0 -146 57 -225q56 -79 156 -79t211 82q29 20 65 20t66 -28
q28 -28 28 -71q0 -42 -35 -75q-127 -117 -333 -117t-323 124q-116 124 -116 370z" />
    <glyph glyph-name="Ccircumflex" unicode="&#x108;" horiz-adv-x="1310" 
d="M729 1753q27 0 47 -14l191 -127q37 -27 37 -64q0 -36 -23 -60t-55 -24t-49 15l-148 102l-147 -102q-18 -15 -50 -15t-55 24t-23 60t38 64l190 127q20 14 47 14zM711 -29q-641 0 -641 718t656 718q327 0 478 -221q23 -35 23 -74t-33 -71q-33 -31 -78 -31t-84 41
q-68 75 -142 109t-179 34q-203 0 -299 -125t-96 -386t94 -380t301 -119q113 0 185 30t146 105q45 45 89 45t77 -32q33 -33 33 -73t-20 -66q-76 -100 -212 -161t-298 -61z" />
    <glyph glyph-name="ccircumflex" unicode="&#x109;" horiz-adv-x="923" 
d="M508 1346q27 0 47 -15l190 -127q37 -26 37 -64t-22 -61t-55 -23q-32 0 -50 15l-147 103l-148 -103q-18 -14 -50 -14q-32 1 -54 23t-23 60q0 38 37 64l191 127q20 15 47 15zM59 467q0 246 116 369t329 122q125 0 210 -45q149 -79 146 -159q0 -41 -29 -70t-71 -29t-74 35
q-74 80 -181 80t-165 -79t-57 -225q0 -146 57 -225q56 -79 156 -79t211 82q29 20 65 20t66 -28q28 -28 28 -71q0 -42 -35 -75q-127 -117 -333 -117t-323 124q-116 124 -116 370z" />
    <glyph glyph-name="Cdotaccent" unicode="&#x10a;" horiz-adv-x="1310" 
d="M721 1495q-107 -1 -107 107t106 108t107 -108q0 -108 -106 -107zM711 -29q-641 0 -641 718t656 718q327 0 478 -221q23 -35 23 -74t-33 -71q-33 -31 -78 -31t-84 41q-68 75 -142 109t-179 34q-203 0 -299 -125t-96 -386t94 -380t301 -119q113 0 185 30t146 105
q45 45 89 45t77 -32q33 -33 33 -73t-20 -66q-76 -100 -212 -161t-298 -61z" />
    <glyph glyph-name="cdotaccent" unicode="&#x10b;" horiz-adv-x="923" 
d="M504 1100q-106 0 -106 108t106 107q106 1 106 -107t-106 -108zM59 467q0 246 116 369t329 122q125 0 210 -45q149 -79 146 -159q0 -41 -29 -70t-71 -29t-74 35q-74 80 -181 80t-165 -79t-57 -225q0 -146 57 -225q56 -79 156 -79t211 82q29 20 65 20t66 -28q28 -28 28 -71
q0 -42 -35 -75q-127 -117 -333 -117t-323 124q-116 124 -116 370z" />
    <glyph glyph-name="Ccaron" unicode="&#x10c;" horiz-adv-x="1310" 
d="M715 1464q-27 0 -47 15l-191 127q-37 26 -37 64t24 61t54 23t49 -15l148 -103l147 103q18 14 49 14q31 -1 55 -23t24 -60t-38 -64l-190 -127q-20 -15 -47 -15zM711 -29q-641 0 -641 718t656 718q327 0 478 -221q23 -35 23 -74t-33 -71q-33 -31 -78 -31t-84 41
q-68 75 -142 109t-179 34q-203 0 -299 -125t-96 -386t94 -380t301 -119q113 0 185 30t146 105q45 45 89 45t77 -32q33 -33 33 -73t-20 -66q-76 -100 -212 -161t-298 -61z" />
    <glyph glyph-name="ccaron" unicode="&#x10d;" horiz-adv-x="923" 
d="M461 1057q-27 0 -47 14l-191 127q-37 27 -37 64q0 36 24 60t54 24t49 -15l148 -102l147 102q18 15 49 15t55 -24t24 -60t-38 -64l-190 -127q-20 -14 -47 -14zM59 467q0 246 116 369t329 122q125 0 210 -45q149 -79 146 -159q0 -41 -29 -70t-71 -29t-74 35q-74 80 -181 80
t-165 -79t-57 -225q0 -146 57 -225q56 -79 156 -79t211 82q29 20 65 20t66 -28q28 -28 28 -71q0 -42 -35 -75q-127 -117 -333 -117t-323 124q-116 124 -116 370z" />
    <glyph glyph-name="Dcaron" unicode="&#x10e;" horiz-adv-x="1251" 
d="M571 1464q-27 0 -47 15l-190 127q-37 26 -37 64t24 61q25 23 55 23t48 -15l147 -103l148 103q18 14 49 14q30 -1 54 -23t24 -60t-37 -64l-191 -127q-20 -15 -47 -15zM242 1378h276q322 0 494 -163t172 -527t-172 -526t-494 -162h-276q-49 0 -84 35t-35 84v1141
q0 50 35 84t84 34zM360 1165v-952h158q207 0 313 110q107 109 107 365t-106 367t-314 110h-158z" />
    <glyph glyph-name="dcaron" unicode="&#x10f;" horiz-adv-x="1239" 
d="M1016 1321q0 137 134 137t134 -141t-64 -263t-151 -188q-15 -12 -33 -12t-31 13q-30 30 0 66t44 55q39 53 41 132q0 38 -37 100t-37 101zM475 958q143 0 225 -81v471q0 46 33 78t78 32t78 -33t33 -77v-965q0 -199 -116 -304t-318 -105t-315 122q-114 123 -114 369
q1 245 109 369t307 124zM700 383v283q-24 36 -86 70q-61 34 -116 34q-106 0 -162 -78t-57 -227q0 -303 219 -303q90 0 146 58t56 163z" />
    <glyph glyph-name="Dcroat" unicode="&#x110;" horiz-adv-x="1302" 
d="M795 713q0 -39 -28 -67t-67 -28h-288v-405h157q207 0 314 110q106 109 106 365t-106 367t-314 110h-157v-358h288q39 1 67 -27t28 -67zM293 1378h276q322 0 494 -163t172 -527t-172 -526t-494 -162h-276q-49 0 -84 35t-35 84v499h-45q-39 0 -67 28t-27 67q-1 39 27 67
t67 27h45v453q0 50 35 84t84 34z" />
    <glyph glyph-name="dcroat" unicode="&#x111;" horiz-adv-x="1013" 
d="M700 383v283q-24 36 -86 70q-61 34 -116 34q-106 0 -162 -78t-57 -227q0 -303 219 -303q90 0 146 58t56 163zM1065 1153q0 -37 -27 -63t-63 -27h-53v-680q0 -199 -116 -304t-318 -105t-315 122q-114 123 -114 369t109 370t307 123q143 0 225 -81v186h-157q-37 0 -64 27
q-27 28 -27 64t28 63t63 26h157v105q0 46 33 78t78 32t78 -33t33 -77v-105h53q35 -1 63 -27t27 -63z" />
    <glyph glyph-name="Emacron" unicode="&#x112;" horiz-adv-x="1071" 
d="M827 1579q-1 -33 -23 -55t-54 -23h-355q-33 0 -55 23q-22 24 -23 56q0 32 23 54t55 23h355q33 -1 55 -23t22 -55zM360 1165v-366h388q44 0 74 -31t30 -74q0 -44 -31 -74t-73 -30h-388v-377h543q45 0 76 -31t31 -76q0 -46 -31 -76t-76 -30h-661q-49 0 -84 35t-35 84v1141
q0 50 35 84t84 34h639q45 0 75 -30t31 -76q0 -45 -31 -76t-75 -31h-521z" />
    <glyph glyph-name="emacron" unicode="&#x113;" horiz-adv-x="964" 
d="M764 1151q0 -33 -23 -55t-55 -23h-354q-33 0 -56 23q-22 24 -22 56t22 54t56 23h354q34 -1 56 -23t22 -55zM694 571q0 83 -48 141t-141 58t-151 -51t-65 -148h405zM61 460q0 242 117 370t326 128q123 0 209 -42t127 -110q73 -122 73 -251t-53 -155q-27 -13 -72 -13h-505
q0 -106 66 -161q67 -54 175 -54t194 58q87 58 141 -1q28 -29 28 -71t-35 -72q-119 -113 -334 -113t-336 123q-121 122 -121 364z" />
    <glyph glyph-name="Ebreve" unicode="&#x114;" horiz-adv-x="1071" 
d="M573 1491q-127 0 -205 54t-77 165q-1 30 21 52t53 22t53 -22t20 -52q0 -80 135 -80t136 80q-1 30 21 52t52 22t53 -22q22 -22 21 -52q0 -111 -78 -165t-205 -54zM360 1165v-366h388q44 0 74 -31t30 -74q0 -44 -31 -74t-73 -30h-388v-377h543q45 0 76 -31t31 -76
q0 -46 -31 -76t-76 -30h-661q-49 0 -84 35t-35 84v1141q0 50 35 84t84 34h639q45 0 75 -30t31 -76q0 -45 -31 -76t-75 -31h-521z" />
    <glyph glyph-name="ebreve" unicode="&#x115;" horiz-adv-x="964" 
d="M514 1071q-127 0 -205 54t-78 165q0 30 22 52q23 22 53 22t52 -22t21 -52q0 -80 135 -80t135 80q0 30 22 52q23 22 53 22t52 -22t21 -52q0 -111 -78 -165t-205 -54zM694 571q0 83 -48 141t-141 58t-151 -51t-65 -148h405zM61 460q0 242 117 370t326 128q123 0 209 -42
t127 -110q73 -122 73 -251t-53 -155q-27 -13 -72 -13h-505q0 -106 66 -161q67 -54 175 -54t194 58q87 58 141 -1q28 -29 28 -71t-35 -72q-119 -113 -334 -113t-336 123q-121 122 -121 364z" />
    <glyph glyph-name="Edotaccent" unicode="&#x116;" horiz-adv-x="1071" 
d="M571 1495q-106 -1 -106 107t106 108t106 -108t-106 -107zM360 1165v-366h388q44 0 74 -31t30 -74q0 -44 -31 -74t-73 -30h-388v-377h543q45 0 76 -31t31 -76q0 -46 -31 -76t-76 -30h-661q-49 0 -84 35t-35 84v1141q0 50 35 84t84 34h639q45 0 75 -30t31 -76
q0 -45 -31 -76t-75 -31h-521z" />
    <glyph glyph-name="edotaccent" unicode="&#x117;" horiz-adv-x="964" 
d="M506 1100q-106 0 -106 108t106 107q106 1 106 -107t-106 -108zM694 571q0 83 -48 141t-141 58t-151 -51t-65 -148h405zM61 460q0 242 117 370t326 128q123 0 209 -42t127 -110q73 -122 73 -251t-53 -155q-27 -13 -72 -13h-505q0 -106 66 -161q67 -54 175 -54t194 58
q87 58 141 -1q28 -29 28 -71t-35 -72q-119 -113 -334 -113t-336 123q-121 122 -121 364z" />
    <glyph glyph-name="Eogonek" unicode="&#x118;" horiz-adv-x="1071" 
d="M1090 -305q0 -80 -170 -80q-100 0 -170 43t-70 123t42 138t97 81h-577q-49 0 -84 35t-35 84v1141q0 50 35 84t84 34h639q45 0 75 -30t31 -76q0 -45 -31 -76t-75 -31h-521v-366h388q44 0 74 -31t30 -74q0 -44 -31 -74t-73 -30h-388v-377h543q45 0 76 -31t31 -76
q0 -68 -72 -104q-127 -68 -127 -164t127 -96l90 14q26 0 44 -17t18 -44z" />
    <glyph glyph-name="eogonek" unicode="&#x119;" horiz-adv-x="964" 
d="M694 571q0 83 -48 141t-141 58t-151 -51t-65 -148h405zM866 -305q0 -80 -170 -80q-100 0 -170 43t-70 143t103 174q-20 -2 -37 -2q-219 0 -340 123q-121 122 -121 364t117 370t326 128q123 0 209 -42t127 -110q73 -122 73 -251t-53 -155q-27 -13 -72 -13h-505
q0 -106 66 -161q67 -54 175 -54t194 58q87 58 141 -1q28 -29 28 -71t-31 -69q-30 -29 -104 -65t-119 -79t-45 -109q0 -94 127 -94l90 14q27 0 44 -17t17 -44z" />
    <glyph glyph-name="Ecaron" unicode="&#x11a;" horiz-adv-x="1071" 
d="M580 1464q-27 0 -48 15l-190 127q-37 26 -37 64t24 61q25 23 55 23t48 -15l148 -103l147 103q18 14 49 14q30 -1 54 -23t24 -60t-37 -64l-190 -127q-20 -15 -47 -15zM360 1165v-366h388q44 0 74 -31t30 -74q0 -44 -31 -74t-73 -30h-388v-377h543q45 0 76 -31t31 -76
q0 -46 -31 -76t-76 -30h-661q-49 0 -84 35t-35 84v1141q0 50 35 84t84 34h639q45 0 75 -30t31 -76q0 -45 -31 -76t-75 -31h-521z" />
    <glyph glyph-name="ecaron" unicode="&#x11b;" horiz-adv-x="964" 
d="M512 1057q-27 0 -47 14l-191 127q-36 27 -36 64q0 36 22 60t54 24t51 -15l147 -102l147 102q19 15 51 15t54 -24t22 -60t-36 -64l-191 -127q-20 -14 -47 -14zM694 571q0 83 -48 141t-141 58t-151 -51t-65 -148h405zM61 460q0 242 117 370t326 128q123 0 209 -42t127 -110
q73 -122 73 -251t-53 -155q-27 -13 -72 -13h-505q0 -106 66 -161q67 -54 175 -54t194 58q87 58 141 -1q28 -29 28 -71t-35 -72q-119 -113 -334 -113t-336 123q-121 122 -121 364z" />
    <glyph glyph-name="Gcircumflex" unicode="&#x11c;" horiz-adv-x="1382" 
d="M723 1753q27 0 47 -14l191 -127q37 -27 37 -64q0 -36 -24 -60t-54 -24t-50 15l-147 102l-148 -102q-18 -15 -49 -15q-30 0 -54 24t-24 60t37 64l191 127q20 14 47 14zM711 -29q-641 0 -641 718t656 718q327 0 478 -221q23 -35 23 -74t-33 -71q-33 -31 -78 -31t-84 41
q-68 75 -142 109t-179 34q-203 0 -299 -125t-96 -386t94 -380t309 -119t330 117v229h-279q-43 0 -74 31t-30 74q0 43 30 74q31 31 74 30h397q43 -1 78 -33t35 -75v-328q0 -66 -35 -108q-74 -99 -222 -161t-312 -63z" />
    <glyph glyph-name="gcircumflex" unicode="&#x11d;" horiz-adv-x="1017" 
d="M485 1346q27 0 47 -15l191 -127q37 -26 37 -64t-24 -61t-54 -23t-49 15l-148 103l-147 -103q-18 -14 -49 -14q-31 1 -55 23t-24 60t38 64l190 127q20 15 47 15zM743 -108q0 54 -44 80t-115 26h-193q-55 -12 -87 -42t-32 -65q0 -115 238 -114q100 0 167 30q66 32 66 85z
M303 608q0 -72 48 -118t132 -46t132 46t49 118q0 72 -48 118t-133 46q-84 0 -132 -46t-48 -118zM885 608q-1 -164 -107 -257t-295 -93q-106 0 -192 33q-18 -16 -19 -43q0 -70 121 -70h191q172 0 276 -68t104 -216t-125 -227q-126 -79 -321 -79t-321 62q-146 71 -146 241
q0 123 123 201q-96 58 -96 152t69 151q-66 86 -65 213q0 164 106 257t295 93q111 0 197 -34q74 94 205 94q39 0 65 -27t27 -65q0 -38 -27 -66q-26 -26 -66 -26t-61 -19q62 -82 62 -207z" />
    <glyph glyph-name="Gbreve" unicode="&#x11e;" horiz-adv-x="1382" 
d="M721 1520q-127 0 -205 54t-78 165q0 31 22 53t52 20q30 0 52 -22t22 -51q0 -80 135 -80t135 80q0 31 22 53t52 20q30 0 52 -22t22 -51q0 -111 -78 -165t-205 -54zM711 -29q-641 0 -641 718t656 718q327 0 478 -221q23 -35 23 -74t-33 -71q-33 -31 -78 -31t-84 41
q-68 75 -142 109t-179 34q-203 0 -299 -125t-96 -386t94 -380t309 -119t330 117v229h-279q-43 0 -74 31t-30 74q0 43 30 74q31 31 74 30h397q43 -1 78 -33t35 -75v-328q0 -66 -35 -108q-74 -99 -222 -161t-312 -63z" />
    <glyph glyph-name="gbreve" unicode="&#x11f;" horiz-adv-x="1017" 
d="M487 1071q-127 0 -205 54t-77 165q-1 30 21 52t53 22t53 -22t20 -52q0 -80 135 -80t136 80q-1 30 21 52t52 22t53 -22q22 -22 21 -52q0 -111 -78 -165t-205 -54zM743 -108q0 54 -44 80t-115 26h-193q-55 -12 -87 -42t-32 -65q0 -115 238 -114q100 0 167 30q66 32 66 85z
M303 608q0 -72 48 -118t132 -46t132 46t49 118q0 72 -48 118t-133 46q-84 0 -132 -46t-48 -118zM885 608q-1 -164 -107 -257t-295 -93q-106 0 -192 33q-18 -16 -19 -43q0 -70 121 -70h191q172 0 276 -68t104 -216t-125 -227q-126 -79 -321 -79t-321 62q-146 71 -146 241
q0 123 123 201q-96 58 -96 152t69 151q-66 86 -65 213q0 164 106 257t295 93q111 0 197 -34q74 94 205 94q39 0 65 -27t27 -65q0 -38 -27 -66q-26 -26 -66 -26t-61 -19q62 -82 62 -207z" />
    <glyph glyph-name="Gdotaccent" unicode="&#x120;" horiz-adv-x="1382" 
d="M727 1495q-106 -1 -106 107t106 108t106 -108t-106 -107zM711 -29q-641 0 -641 718t656 718q327 0 478 -221q23 -35 23 -74t-33 -71q-33 -31 -78 -31t-84 41q-68 75 -142 109t-179 34q-203 0 -299 -125t-96 -386t94 -380t309 -119t330 117v229h-279q-43 0 -74 31t-30 74
q0 43 30 74q31 31 74 30h397q43 -1 78 -33t35 -75v-328q0 -66 -35 -108q-74 -99 -222 -161t-312 -63z" />
    <glyph glyph-name="gdotaccent" unicode="&#x121;" horiz-adv-x="1017" 
d="M485 1100q-106 0 -106 108t106 107q106 1 106 -107t-106 -108zM743 -108q0 54 -44 80t-115 26h-193q-55 -12 -87 -42t-32 -65q0 -115 238 -114q100 0 167 30q66 32 66 85zM303 608q0 -72 48 -118t132 -46t132 46t49 118q0 72 -48 118t-133 46q-84 0 -132 -46t-48 -118z
M885 608q-1 -164 -107 -257t-295 -93q-106 0 -192 33q-18 -16 -19 -43q0 -70 121 -70h191q172 0 276 -68t104 -216t-125 -227q-126 -79 -321 -79t-321 62q-146 71 -146 241q0 123 123 201q-96 58 -96 152t69 151q-66 86 -65 213q0 164 106 257t295 93q111 0 197 -34
q74 94 205 94q39 0 65 -27t27 -65q0 -38 -27 -66q-26 -26 -66 -26t-61 -19q62 -82 62 -207z" />
    <glyph glyph-name="Gcommaaccent" unicode="&#x122;" horiz-adv-x="1382" 
d="M738 -80q108 0 108 -112t-51 -210q-51 -97 -121 -151q-14 -10 -28 -10t-25 11q-26 28 2 54q68 68 67 148q0 33 -30 82t-29 80q-1 108 107 108zM711 -29q-641 0 -641 718t656 718q327 0 478 -221q23 -35 23 -74t-33 -71q-33 -31 -78 -31t-84 41q-68 75 -142 109t-179 34
q-203 0 -299 -125t-96 -386t94 -380t309 -119t330 117v229h-279q-43 0 -74 31t-30 74q0 43 30 74q31 31 74 30h397q43 -1 78 -33t35 -75v-328q0 -66 -35 -108q-74 -99 -222 -161t-312 -63z" />
    <glyph glyph-name="gcommaaccent" unicode="&#x123;" horiz-adv-x="1013" 
d="M494 1063q-108 1 -108 113t50 209q51 97 121 151q13 10 27 10t25 -11t11 -27t-12 -27q-68 -68 -67 -148q-1 -33 29 -82t30 -80q2 -108 -106 -108zM743 -108q0 54 -44 80t-115 26h-193q-55 -12 -87 -42t-32 -65q0 -115 238 -114q100 0 167 30q66 32 66 85zM303 608
q0 -72 48 -118t132 -46t132 46t49 118q0 72 -48 118t-133 46q-84 0 -132 -46t-48 -118zM885 608q-1 -164 -107 -257t-295 -93q-106 0 -192 33q-18 -16 -19 -43q0 -70 121 -70h191q172 0 276 -68t104 -216t-125 -227q-126 -79 -321 -79t-321 62q-146 71 -146 241
q0 123 123 201q-96 58 -96 152t69 151q-66 86 -65 213q0 164 106 257t295 93q111 0 197 -34q74 94 205 94q39 0 65 -27t27 -65q0 -38 -27 -66q-26 -26 -66 -26t-61 -19q62 -82 62 -207z" />
    <glyph glyph-name="Hcircumflex" unicode="&#x124;" horiz-adv-x="1306" 
d="M668 1753q27 0 47 -14l190 -127q37 -27 37 -64q0 -36 -22 -60t-55 -24q-32 0 -50 15l-147 102l-148 -102q-18 -15 -50 -15t-54 24t-23 60q0 36 37 64l191 127q20 14 47 14zM1184 1276v-1174q0 -49 -35 -84q-35 -34 -84 -34t-84 34t-35 84v494h-586v-494q0 -49 -34 -84
q-34 -34 -84 -34q-49 0 -84 34t-35 84v1174q0 49 35 84t84 35t84 -35t34 -84v-463h586v463q0 49 35 84t84 35t84 -35t35 -84z" />
    <glyph glyph-name="hcircumflex" unicode="&#x125;" horiz-adv-x="1021" 
d="M217 1753q27 0 47 -14l191 -127q37 -27 37 -64q0 -36 -23 -60t-55 -24t-49 15l-148 102l-147 -102q-18 -15 -50 -15t-55 24t-23 60t38 64l190 127q20 14 47 14zM324 1348v-512q80 123 262 122q344 0 344 -356v-512q0 -45 -32 -76q-32 -30 -80 -30t-79 30t-30 76v471
q0 197 -181 197q-205 0 -204 -211v-457q0 -45 -32 -76q-32 -30 -79 -30t-79 30t-32 76v1258q0 46 33 78t78 32t78 -32t33 -78z" />
    <glyph glyph-name="Hbar" unicode="&#x126;" horiz-adv-x="1306" 
d="M360 813h586v127h-586v-127zM1184 1276v-180h35q33 0 55 -23t22 -55t-22 -56q-22 -22 -55 -22h-35v-838q0 -49 -35 -84q-35 -34 -84 -34t-84 34t-35 84v494h-586v-494q0 -49 -34 -84q-34 -34 -84 -34q-49 0 -84 34t-35 84v838h-37q-34 0 -56 23t-22 55t23 56q23 22 55 22
h37v180q0 49 35 84t84 35t84 -35t34 -84v-180h586v180q0 49 35 84t84 35t84 -35t35 -84z" />
    <glyph glyph-name="hbar" unicode="&#x127;" horiz-adv-x="1021" 
d="M324 1348v-97h170q34 -1 56 -23t22 -54t-24 -56q-22 -23 -54 -22h-170v-260q80 123 262 122q344 0 344 -356v-512q0 -45 -32 -76q-32 -30 -80 -30t-79 30t-30 76v471q0 197 -181 197q-205 0 -204 -211v-457q0 -45 -32 -76q-32 -30 -79 -30t-79 30t-32 76v1006h-47
q-33 0 -55 22t-23 56q0 34 23 56t55 21h47v97q0 46 33 78t78 32t78 -32t33 -78z" />
    <glyph glyph-name="Itilde" unicode="&#x128;" horiz-adv-x="483" 
d="M363 1645q31 -1 55 33t64 34q38 0 61 -22t23 -50q-1 -75 -76 -118q-48 -29 -109 -29t-147 35t-116 35q-28 0 -52 -34t-64 -34t-62 23t-22 50q0 74 75 118q95 58 253 -6q86 -34 117 -35zM360 1276v-1174q0 -49 -34 -84q-34 -34 -84 -34q-49 0 -84 34t-35 84v1174
q0 49 35 84t84 35q50 0 84 -35t34 -84z" />
    <glyph glyph-name="itilde" unicode="&#x129;" 
d="M344 1227q32 0 56 34q24 33 62 33t62 -22t23 -50q0 -73 -75 -118q-48 -29 -109 -29t-147 35t-116 35t-54 -34t-62 -34t-61 23t-23 50q1 74 74 118q96 58 254 -6q85 -34 116 -35zM334 836v-742q0 -45 -32 -78q-32 -32 -79 -32t-79 32t-31 78v742q-1 46 31 78t79 32t79 -32
t32 -78z" />
    <glyph glyph-name="Imacron" unicode="&#x12a;" horiz-adv-x="483" 
d="M496 1579q0 -33 -23 -55t-55 -23h-355q-33 0 -55 23q-22 24 -22 56t22 54t55 23h355q34 -1 56 -23t22 -55zM360 1276v-1174q0 -49 -34 -84q-34 -34 -84 -34q-49 0 -84 34t-35 84v1174q0 49 35 84t84 35q50 0 84 -35t34 -84z" />
    <glyph glyph-name="imacron" unicode="&#x12b;" 
d="M477 1151q-1 -33 -23 -55t-55 -23h-354q-33 0 -55 23q-22 24 -23 56q0 32 23 54t55 23h354q33 -1 55 -23t23 -55zM334 836v-742q0 -45 -32 -78q-32 -32 -79 -32t-79 32t-31 78v742q-1 46 31 78t79 32t79 -32t32 -78z" />
    <glyph glyph-name="Ibreve" unicode="&#x12c;" horiz-adv-x="483" 
d="M240 1491q-127 0 -205 54t-78 165q-1 30 21 52t53 22t53 -22t20 -52q0 -80 136 -80t135 80q-1 30 21 52t53 22t53 -22t20 -52q0 -111 -78 -165t-204 -54zM360 1276v-1174q0 -49 -34 -84q-34 -34 -84 -34q-49 0 -84 34t-35 84v1174q0 49 35 84t84 35q50 0 84 -35t34 -84z
" />
    <glyph glyph-name="ibreve" unicode="&#x12d;" 
d="M227 1071q-127 0 -205 54t-77 165q-1 30 21 52t52 22t53 -22q22 -22 21 -52q0 -80 135 -80t135 80q0 30 22 52t52 22t52 -22t22 -52q0 -111 -78 -165t-205 -54zM334 836v-742q0 -45 -32 -78q-32 -32 -79 -32t-79 32t-31 78v742q-1 46 31 78t79 32t79 -32t32 -78z" />
    <glyph glyph-name="Iogonek" unicode="&#x12e;" horiz-adv-x="483" 
d="M469 -305q0 -80 -170 -80q-100 0 -170 43t-70 137q0 63 39 119t90 82q-66 31 -65 106v1174q0 49 35 84t84 35t84 -35t34 -84v-1174q0 -61 -60 -103t-85 -78t-25 -85q0 -94 127 -94l91 14q27 0 44 -17t17 -44z" />
    <glyph glyph-name="iogonek" unicode="&#x12f;" 
d="M223 1057q-63 0 -97 35t-34 94q0 135 132 135t132 -135q0 -61 -35 -95t-98 -34zM451 -305q0 -80 -170 -80q-100 0 -170 43t-70 137q0 63 39 119t92 82q-59 29 -59 98v742q-1 46 31 78t79 32t79 -33t32 -77v-742q0 -59 -53 -94q-109 -72 -109 -165t127 -93l90 14
q27 0 45 -17t17 -44z" />
    <glyph glyph-name="Idotaccent" unicode="&#x130;" horiz-adv-x="483" 
d="M242 1495q-106 -1 -106 107t106 108t106 -108t-106 -107zM360 1276v-1174q0 -49 -34 -84q-34 -34 -84 -34q-49 0 -84 34t-35 84v1174q0 49 35 84t84 35q50 0 84 -35t34 -84z" />
    <glyph glyph-name="dotlessi" unicode="&#x131;" 
d="M334 836v-742q0 -45 -32 -78q-32 -32 -79 -32t-79 32t-31 78v742q-1 46 31 78t79 32t79 -32t32 -78z" />
    <glyph glyph-name="IJ" unicode="&#x132;" horiz-adv-x="1345" 
d="M985 430v846q0 49 35 84t84 35t84 -35t35 -84v-846q-1 -211 -103 -334t-325 -123q-154 0 -244 56q-57 31 -57 85t30 85q48 48 124 18q77 -29 147 -29q190 0 190 242zM360 1276v-1174q0 -49 -34 -84q-34 -34 -84 -34q-49 0 -84 34t-35 84v1174q0 49 35 84t84 35
q50 0 84 -35t34 -84z" />
    <glyph glyph-name="ij" unicode="&#x133;" horiz-adv-x="872" 
d="M549 -16v852q0 46 33 78q34 32 78 32t77 -33t33 -77v-852q0 -136 -94 -230t-238 -94q-42 0 -72 31t-30 71t31 72q31 31 75 31t76 35q31 35 31 84zM660 1057q-62 0 -97 35t-35 94q0 135 132 135t133 -135q1 -61 -35 -95t-98 -34zM223 1057q-63 0 -97 35t-34 94
q0 135 132 135t132 -135q0 -61 -35 -95t-98 -34zM334 836v-742q0 -45 -32 -78q-32 -32 -79 -32t-79 32t-31 78v742q-1 46 31 78t79 32t79 -32t32 -78z" />
    <glyph glyph-name="Jcircumflex" unicode="&#x134;" horiz-adv-x="882" 
d="M639 1753q27 0 47 -14l191 -127q37 -27 37 -64q0 -36 -24 -60q-22 -24 -54 -24t-50 15l-147 102l-147 -102q-18 -15 -50 -15t-56 24q-22 24 -22 60t37 64l191 127q20 14 47 14zM522 430v846q0 49 35 84t84 35t84 -35t35 -84v-846q0 -211 -102 -334t-326 -123
q-154 0 -244 56q-57 31 -57 85t30 85q48 48 124 18q77 -29 147 -29q190 0 190 242z" />
    <glyph glyph-name="jcircumflex" unicode="&#x135;" 
d="M219 1346q27 0 47 -15l191 -127q37 -26 37 -64t-24 -61t-54 -23t-49 15l-148 103l-147 -103q-18 -14 -49 -14q-31 1 -55 23t-24 60t38 64l190 127q20 15 47 15zM113 -16v852q-1 46 31 78t79 32t79 -33t32 -77v-852q0 -136 -94 -230t-238 -94q-41 0 -72 31q-30 31 -30 71
t30 72q31 31 76 31t76 35t31 84z" />
    <glyph glyph-name="Kcommaaccent" unicode="&#x136;" horiz-adv-x="1138" 
d="M485 -188q-1 108 107 108t108 -112t-51 -210q-51 -97 -121 -151q-14 -10 -27 -10t-25 11q-11 10 -11 26t12 28q68 68 68 148q0 33 -30 82t-30 80zM360 1276v-469l492 549q37 39 85 39t82 -34t34 -79t-31 -80l-385 -418l453 -616q22 -29 22 -72t-35 -78q-35 -34 -88 -34
t-90 51l-422 583l-117 -122v-394q0 -49 -34 -84q-34 -34 -84 -34q-49 0 -84 34t-35 84v1174q0 49 35 84t84 35q50 0 84 -35t34 -84z" />
    <glyph glyph-name="kcommaaccent" unicode="&#x137;" horiz-adv-x="927" 
d="M385 -188q-1 108 107 108t108 -112t-51 -210q-51 -97 -121 -151q-14 -10 -28 -10t-25 11q-10 10 -10 26t12 28q68 68 67 148q0 33 -29 82q-30 49 -30 80zM897 85q-1 -41 -31 -71t-79 -30t-82 43l-306 409l-65 -51v-295q0 -45 -32 -76q-32 -30 -79 -30t-79 30t-31 76v1262
q-1 46 31 76t79 30t79 -31t32 -75v-723l371 291q35 26 75 26t72 -31q31 -31 31 -79t-41 -80l-269 -205l301 -395q23 -31 23 -71z" />
    <glyph glyph-name="kgreenlandic" unicode="&#x138;" horiz-adv-x="927" 
d="M897 85q-1 -41 -31 -71t-79 -30t-82 43l-302 397l-69 -59v-275q0 -45 -32 -76q-32 -30 -79 -30t-79 30t-31 76v750q-1 46 31 76t79 30t79 -31t32 -75v-232l371 312q35 26 75 26t72 -31q31 -31 31 -79t-41 -80l-264 -217l296 -383q23 -31 23 -71z" />
    <glyph glyph-name="Lacute" unicode="&#x139;" horiz-adv-x="1005" 
d="M223 1479q-49 -43 -97 2t-7 90l174 221q20 29 56 27t68 -33t33 -66t-26 -57zM360 221h486q49 0 82 -32q33 -33 33 -79t-32 -78t-83 -32h-606q-51 0 -84 33t-33 82v1161q0 49 35 84t84 35t84 -35t34 -84v-1055z" />
    <glyph glyph-name="lacute" unicode="&#x13a;" horiz-adv-x="497" 
d="M195 1528q-50 -43 -98 2t-7 90l174 221q20 29 56 27t68 -33t33 -66t-26 -57zM223 1458q47 0 79 -33t32 -77v-1123q0 -16 13 -26t26 -11q43 0 73 -30t29 -72q0 -43 -30 -73t-72 -29q-121 0 -191 68t-69 194v1102q-1 46 31 78t79 32z" />
    <glyph glyph-name="Lcommaaccent" unicode="&#x13b;" horiz-adv-x="1005" 
d="M564 -80q108 0 108 -112t-51 -210q-51 -97 -121 -151q-14 -10 -28 -10t-25 11q-11 10 -11 26t13 28q68 68 67 148q0 33 -30 82t-29 80q-1 108 107 108zM360 221h486q49 0 82 -32q33 -33 33 -79t-32 -78t-83 -32h-606q-51 0 -84 33t-33 82v1161q0 49 35 84t84 35t84 -35
t34 -84v-1055z" />
    <glyph glyph-name="lcommaaccent" unicode="&#x13c;" horiz-adv-x="497" 
d="M176 -188q0 108 108 108t107 -112q0 -112 -51 -210q-51 -97 -121 -151q-14 -10 -28 -10t-25 11q-10 10 -10 26t12 28q68 68 68 148q0 33 -30 82t-30 80zM223 1458q47 0 79 -33t32 -77v-1123q0 -16 13 -26t26 -11q43 0 73 -30t29 -72q0 -43 -30 -73t-72 -29
q-121 0 -191 68t-69 194v1102q-1 46 31 78t79 32z" />
    <glyph glyph-name="Lcaron" unicode="&#x13d;" horiz-adv-x="1005" 
d="M592 1257q0 138 134 138q134 1 134 -141t-64 -264t-151 -187q-15 -12 -33 -12t-31 13q-30 30 -1 62q31 38 45 58q39 54 41 133q0 41 -37 100t-37 100zM360 221h486q49 0 82 -32q33 -33 33 -79t-32 -78t-83 -32h-606q-51 0 -84 33t-33 82v1161q0 49 35 84t84 35t84 -35
t34 -84v-1055z" />
    <glyph glyph-name="lcaron" unicode="&#x13e;" horiz-adv-x="661" 
d="M459 1321q0 137 134 137t134 -141q-1 -141 -65 -263t-150 -188q-16 -12 -34 -12t-31 13t-13 31t22 44q22 27 48 64q28 37 28 95q0 57 -36 119t-37 101zM223 1458q47 0 79 -33t32 -77v-1123q0 -16 13 -26t26 -11q43 0 73 -30t29 -72q0 -43 -30 -73t-72 -29q-121 0 -191 68
t-69 194v1102q-1 46 31 78t79 32z" />
    <glyph glyph-name="Ldot" unicode="&#x13f;" horiz-adv-x="1005" 
d="M874 702q0 -136 -134 -135q-134 0 -134 135t135 136q133 0 133 -136zM360 221h486q49 0 82 -32q33 -33 33 -79t-32 -78t-83 -32h-606q-51 0 -84 33t-33 82v1161q0 49 35 84t84 35t84 -35t34 -84v-1055z" />
    <glyph glyph-name="ldot" unicode="&#x140;" horiz-adv-x="743" 
d="M554 627q-134 0 -134 135t134 135t134 -135t-134 -135zM223 1458q47 0 79 -33t32 -77v-1123q0 -16 13 -26t26 -11q43 0 73 -30t29 -72q0 -43 -30 -73t-72 -29q-121 0 -191 68t-69 194v1102q-1 46 31 78t79 32z" />
    <glyph glyph-name="Lslash" unicode="&#x141;" horiz-adv-x="1105" 
d="M461 221h485q49 0 82 -32q33 -33 33 -79t-32 -78t-83 -32h-606q-51 0 -84 33t-33 82v331l-35 -14q-18 -8 -50 -8t-60 28t-27 68q0 63 66 94l106 48v614q0 49 35 84t84 35t84 -35t35 -84v-510l282 127q18 8 49 8t60 -29t29 -69q0 -66 -58 -88l-362 -162v-332z" />
    <glyph glyph-name="lslash" unicode="&#x142;" horiz-adv-x="497" 
d="M223 1458q47 0 79 -33t32 -77v-439l92 54q20 12 51 12t57 -26q26 -27 26 -71t-46 -69l-180 -102v-482q0 -16 13 -26t26 -11q43 0 73 -30t29 -72q0 -43 -30 -73t-72 -29q-121 0 -191 68t-69 194v336l-21 -11q-20 -12 -50 -12t-56 26q-26 27 -25 69q0 42 43 69l109 61v564
q-1 46 31 78t79 32z" />
    <glyph glyph-name="Nacute" unicode="&#x143;" horiz-adv-x="1275" 
d="M641 1479q-49 -43 -97 2t-7 90l174 221q20 29 56 27t68 -33q33 -31 33 -66t-26 -57zM1047 1395q47 0 81 -35t35 -82v-1178q0 -47 -35 -82q-34 -34 -88 -34t-90 51l-604 872v-807q0 -47 -35 -82q-35 -34 -82 -34t-82 34t-34 82v1178q0 47 34 82q35 35 89 35t88 -49
l606 -879v811q0 47 35 82t82 35z" />
    <glyph glyph-name="nacute" unicode="&#x144;" horiz-adv-x="1021" 
d="M522 1053q-49 -43 -97 2t-7 90l174 221q20 29 56 27t68 -33t33 -66t-26 -57zM586 958q344 0 344 -356v-512q0 -45 -32 -76q-32 -30 -80 -30t-79 30t-30 76v471q0 197 -181 197q-205 0 -204 -211v-457q0 -45 -32 -76q-32 -30 -79 -30t-79 30t-32 76v746q0 46 33 78t78 32
t78 -33t33 -77q80 122 262 122z" />
    <glyph glyph-name="Ncommaaccent" unicode="&#x145;" horiz-adv-x="1275" 
d="M648 -80q108 0 108 -112t-51 -210q-51 -97 -121 -151q-14 -10 -28 -10t-26 11q-10 10 -10 26t12 28q68 68 68 148q0 33 -30 82t-29 80q-1 108 107 108zM1047 1395q47 0 81 -35t35 -82v-1178q0 -47 -35 -82q-34 -34 -88 -34t-90 51l-604 872v-807q0 -47 -35 -82
q-35 -34 -82 -34t-82 34t-34 82v1178q0 47 34 82q35 35 89 35t88 -49l606 -879v811q0 47 35 82t82 35z" />
    <glyph glyph-name="ncommaaccent" unicode="&#x146;" horiz-adv-x="1021" 
d="M520 -80q108 0 108 -112t-50 -210q-51 -97 -121 -151q-15 -10 -29 -10t-25 11q-10 10 -10 26t13 28q68 68 67 148q0 33 -30 82t-29 80q-2 108 106 108zM586 958q344 0 344 -356v-512q0 -45 -32 -76q-32 -30 -80 -30t-79 30t-30 76v471q0 197 -181 197q-205 0 -204 -211
v-457q0 -45 -32 -76q-32 -30 -79 -30t-79 30t-32 76v746q0 46 33 78t78 32t78 -33t33 -77q80 122 262 122z" />
    <glyph glyph-name="Ncaron" unicode="&#x147;" horiz-adv-x="1275" 
d="M657 1464q-27 0 -47 15l-190 127q-37 26 -37 64t24 61q25 23 55 23t48 -15l147 -103l148 103q18 14 49 14q30 -1 54 -23t24 -60t-37 -64l-190 -127q-21 -15 -48 -15zM1047 1395q47 0 81 -35t35 -82v-1178q0 -47 -35 -82q-34 -34 -88 -34t-90 51l-604 872v-807
q0 -47 -35 -82q-35 -34 -82 -34t-82 34t-34 82v1178q0 47 34 82q35 35 89 35t88 -49l606 -879v811q0 47 35 82t82 35z" />
    <glyph glyph-name="ncaron" unicode="&#x148;" horiz-adv-x="1021" 
d="M524 1057q-27 0 -47 14l-190 127q-37 27 -37 64q0 36 22 60t55 24q32 0 50 -15l147 -102l148 102q18 15 50 15t54 -24t23 -60q0 -36 -37 -64l-191 -127q-20 -14 -47 -14zM586 958q344 0 344 -356v-512q0 -45 -32 -76q-32 -30 -80 -30t-79 30t-30 76v471q0 197 -181 197
q-205 0 -204 -211v-457q0 -45 -32 -76q-32 -30 -79 -30t-79 30t-32 76v746q0 46 33 78t78 32t78 -33t33 -77q80 122 262 122z" />
    <glyph glyph-name="napostrophe" unicode="&#x149;" horiz-adv-x="1093" 
d="M10 1274q0 108 108 108t107 -112q0 -112 -51 -210q-51 -97 -121 -151q-14 -10 -27 -10t-25 11q-11 10 -11 26t12 29q68 68 68 147q0 33 -30 82t-30 80zM657 958q344 0 344 -356v-512q1 -45 -31 -76q-32 -30 -80 -30t-79 30t-31 76v471q0 197 -180 197q-205 0 -205 -211
v-457q1 -45 -31 -76q-32 -30 -79 -30t-79 30t-32 76v746q0 46 32 78t79 32t79 -33t31 -77q80 122 262 122z" />
    <glyph glyph-name="Eng" unicode="&#x14a;" horiz-adv-x="1275" 
d="M735 -197q98 0 147 66q48 66 48 176v18l-584 844v-807q0 -47 -35 -82q-35 -34 -82 -34t-82 34t-34 82v1178q0 47 34 82q35 35 89 35t88 -49l606 -879v811q0 47 35 82t82 35t81 -35t35 -82v-1233q0 -211 -102 -334t-326 -123q-45 0 -76 31t-30 76q0 45 30 77q31 31 76 31z
" />
    <glyph glyph-name="eng" unicode="&#x14b;" horiz-adv-x="1021" 
d="M709 -88v649q0 197 -181 197q-205 0 -204 -211v-457q0 -45 -32 -76q-32 -30 -79 -30t-79 30t-32 76v746q0 46 33 78t78 32t78 -33t33 -77q80 123 262 122q344 0 344 -356v-690q0 -137 -94 -230t-238 -94q-41 0 -72 31t-30 72q0 41 30 71t76 31q45 0 76 35t31 84z" />
    <glyph glyph-name="Omacron" unicode="&#x14c;" horiz-adv-x="1437" 
d="M973 1579q0 -33 -23 -55t-55 -23h-354q-33 0 -56 23q-23 24 -23 56t24 54q22 22 55 23h354q33 -1 55 -23t23 -55zM719 1194q-403 0 -403 -505t402 -505q404 0 404 505t-403 505zM719 -29q-313 -1 -481 181t-168 538t167 536t482 181q315 0 482 -180q167 -181 167 -537
t-168 -538t-481 -181z" />
    <glyph glyph-name="omacron" unicode="&#x14d;" horiz-adv-x="1015" 
d="M766 1151q0 -33 -23 -55t-55 -23h-354q-34 0 -56 23q-22 24 -22 56t23 54t55 23h354q34 -1 56 -23t22 -55zM508 162q225 0 225 304t-225 304t-225 -304t225 -304zM956 465q0 -246 -118 -369t-330 -123q-213 0 -331 123t-118 369t118 370q118 123 331 123t331 -123
q117 -124 117 -370z" />
    <glyph glyph-name="Obreve" unicode="&#x14e;" horiz-adv-x="1437" 
d="M719 1491q-127 0 -205 54t-78 165q0 30 22 52t52 22t52 -22t22 -52q0 -80 135 -80t135 80q0 30 22 52t52 22t52 -22t21 -52q1 -111 -77 -165t-205 -54zM719 1194q-403 0 -403 -505t402 -505q404 0 404 505t-403 505zM719 -29q-313 -1 -481 181t-168 538t167 536t482 181
q315 0 482 -180q167 -181 167 -537t-168 -538t-481 -181z" />
    <glyph glyph-name="obreve" unicode="&#x14f;" horiz-adv-x="1015" 
d="M512 1071q-127 0 -205 54t-78 165q0 30 22 52q23 22 53 22t52 -22t21 -52q0 -80 135 -80t135 80q0 30 22 52q23 22 53 22t52 -22t21 -52q0 -111 -78 -165t-205 -54zM508 162q225 0 225 304t-225 304t-225 -304t225 -304zM956 465q0 -246 -118 -369t-330 -123
q-213 0 -331 123t-118 369t118 370q118 123 331 123t331 -123q117 -124 117 -370z" />
    <glyph glyph-name="Ohungarumlaut" unicode="&#x150;" horiz-adv-x="1437" 
d="M874 1479q-49 -43 -97 2t-7 90l174 221q20 29 56 27t68 -33t33 -66t-26 -57zM582 1479q-50 -43 -98 2t-7 90l174 221q21 29 57 27t68 -33t32 -66q1 -35 -26 -57zM719 1194q-403 0 -403 -505t402 -505q404 0 404 505t-403 505zM719 -29q-313 -1 -481 181t-168 538t167 536
t482 181q315 0 482 -180q167 -181 167 -537t-168 -538t-481 -181z" />
    <glyph glyph-name="ohungarumlaut" unicode="&#x151;" horiz-adv-x="1015" 
d="M682 1053q-49 -43 -97 2t-7 90l174 221q20 29 56 27t68 -33t32 -66q1 -35 -25 -57zM389 1053q-49 -43 -97 2t-7 90l174 221q20 29 56 27t68 -33q33 -31 33 -66t-26 -57zM508 162q225 0 225 304t-225 304t-225 -304t225 -304zM956 465q0 -246 -118 -369t-330 -123
q-213 0 -331 123t-118 369t118 370q118 123 331 123t331 -123q117 -124 117 -370z" />
    <glyph glyph-name="OE" unicode="&#x152;" horiz-adv-x="1880" 
d="M719 1194q-403 0 -403 -505t403 -505q125 0 213 45v918q-90 47 -213 47zM1169 1165v-366h387q43 0 74 -31t31 -74q0 -44 -31 -74t-74 -30h-387v-377h543q45 0 76 -31t31 -76q0 -46 -31 -76t-76 -30h-661q-37 0 -58 18q-127 -47 -274 -47q-313 -1 -481 181t-168 538
t167 536t482 181q164 0 274 -51q23 23 58 22h639q46 0 76 -30t30 -76q0 -45 -31 -76t-75 -31h-521z" />
    <glyph glyph-name="oe" unicode="&#x153;" horiz-adv-x="1636" 
d="M1366 571q0 83 -48 141t-141 58t-151 -51t-65 -148h405zM508 162q225 0 225 304t-225 304t-225 -304t225 -304zM59 465q0 245 118 369t336 124t333 -145q117 145 330 145q314 0 393 -282q16 -61 16 -127t-13 -101t-40 -48t-72 -13h-506q0 -107 67 -161t175 -54t193 58
q86 58 142 -1q28 -29 28 -71t-35 -72q-119 -113 -340 -113t-340 142q-115 -141 -332 -141t-335 122q-118 123 -118 369z" />
    <glyph glyph-name="Racute" unicode="&#x154;" horiz-adv-x="1146" 
d="M516 1479q-49 -43 -97 2t-7 90l174 221q20 29 56 27t68 -33t32 -66t-25 -57zM631 1165h-271v-428h277q90 1 136 63t46 151t-47 151t-141 63zM360 528v-426q0 -49 -34 -84q-34 -34 -84 -34q-49 0 -84 34t-35 84v1158q0 50 35 84t84 34h391q201 0 317 -123t115 -290
q0 -167 -86 -285t-229 -137l303 -369q25 -33 25 -77t-36 -79q-35 -34 -89 -34t-87 43l-372 501h-134z" />
    <glyph glyph-name="racute" unicode="&#x155;" horiz-adv-x="663" 
d="M381 1053q-49 -43 -97 2t-8 90l175 221q20 29 56 27q35 -2 67 -33t33 -66t-25 -57zM324 836v-11q29 59 92 95q64 36 118 36t84 -30t31 -74q0 -43 -31 -74t-73 -30q-105 0 -163 -62t-58 -166v-426q0 -45 -33 -78q-33 -32 -78 -32t-78 32t-33 78v742q0 46 33 78t78 32
t78 -32t33 -78z" />
    <glyph glyph-name="Rcommaaccent" unicode="&#x156;" horiz-adv-x="1146" 
d="M483 -188q-1 108 107 108t108 -112t-51 -210q-51 -97 -121 -151q-14 -10 -28 -10t-25 11q-10 10 -10 26t12 28q68 68 68 148q0 33 -30 82t-30 80zM631 1165h-271v-428h277q90 1 136 63t46 151t-47 151t-141 63zM360 528v-426q0 -49 -34 -84q-34 -34 -84 -34q-49 0 -84 34
t-35 84v1158q0 50 35 84t84 34h391q201 0 317 -123t115 -290q0 -167 -86 -285t-229 -137l303 -369q25 -33 25 -77t-36 -79q-35 -34 -89 -34t-87 43l-372 501h-134z" />
    <glyph glyph-name="rcommaaccent" unicode="&#x157;" horiz-adv-x="663" 
d="M106 -188q0 108 108 108t108 -112t-52 -210q-52 -97 -120 -151q-14 -10 -28 -10t-26 11q-10 10 -10 26t12 28q68 68 68 148q0 33 -30 82t-30 80zM324 836v-11q29 59 92 95q64 36 118 36t84 -30t31 -74q0 -43 -31 -74t-73 -30q-105 0 -163 -62t-58 -166v-426
q0 -45 -33 -78q-33 -32 -78 -32t-78 32t-33 78v742q0 46 33 78t78 32t78 -32t33 -78z" />
    <glyph glyph-name="Rcaron" unicode="&#x158;" horiz-adv-x="1146" 
d="M569 1464q-27 0 -47 15l-190 127q-37 26 -37 64t22 61q23 23 55 23t50 -15l147 -103l148 103q18 14 50 14q33 -1 55 -23t22 -60t-37 -64l-191 -127q-20 -15 -47 -15zM631 1165h-271v-428h277q90 1 136 63t46 151t-47 151t-141 63zM360 528v-426q0 -49 -34 -84
q-34 -34 -84 -34q-49 0 -84 34t-35 84v1158q0 50 35 84t84 34h391q201 0 317 -123t115 -290q0 -167 -86 -285t-229 -137l303 -369q25 -33 25 -77t-36 -79q-35 -34 -89 -34t-87 43l-372 501h-134z" />
    <glyph glyph-name="rcaron" unicode="&#x159;" horiz-adv-x="663" 
d="M362 1057q-27 0 -47 14l-190 127q-37 27 -37 64q0 36 24 60t54 24t49 -15l147 -102l148 102q18 15 49 15t55 -24t23 -60q0 -36 -37 -64l-190 -127q-21 -14 -48 -14zM324 836v-11q29 59 92 95q64 36 118 36t84 -30t31 -74q0 -43 -31 -74t-73 -30q-105 0 -163 -62t-58 -166
v-426q0 -45 -33 -78q-33 -32 -78 -32t-78 32t-33 78v742q0 46 33 78t78 32t78 -32t33 -78z" />
    <glyph glyph-name="Sacute" unicode="&#x15a;" horiz-adv-x="1173" 
d="M569 1479q-49 -43 -97 2t-7 90l174 221q20 29 56 27t68 -33t33 -66t-26 -57zM594 1194q-119 0 -176 -47q-58 -47 -58 -111t56 -110q56 -45 138 -69q83 -23 180 -61t180 -81q82 -43 138 -130t56 -208q0 -190 -132 -298t-382 -108q-174 0 -314 73t-204 177q-16 27 -16 65
t31 70q32 32 77 33q45 0 90 -45q156 -156 336 -156q276 0 276 189q0 112 -148 175q-68 28 -146 52q-190 59 -305 134q-67 44 -107 119q-41 75 -41 175q0 164 120 270t351 105q154 0 278 -52t187 -141q20 -30 20 -70q-1 -40 -33 -72t-74 -32t-91 45q-113 109 -287 109z" />
    <glyph glyph-name="sacute" unicode="&#x15b;" horiz-adv-x="870" 
d="M410 1053q-50 -43 -98 2t-7 90l174 221q21 29 57 27t68 -33t32 -66q1 -35 -26 -57zM432 766q-121 0 -121 -78q1 -40 53 -68t126 -50t147 -52q74 -30 126 -92q52 -63 52 -158q0 -139 -104 -215t-248 -76q-144 1 -242 45t-133 87t-35 79t29 66q29 29 66 29t67 -25
q101 -84 239 -84t138 82q0 45 -51 74t-125 49t-149 50q-75 31 -126 95t-51 160q0 133 96 204q96 70 224 70t218 -36t136 -91q20 -27 20 -65t-30 -66q-58 -57 -143 4q-85 62 -179 62z" />
    <glyph glyph-name="Scircumflex" unicode="&#x15c;" horiz-adv-x="1173" 
d="M610 1753q27 0 47 -14l191 -127q37 -27 37 -64q0 -36 -23 -60q-22 -24 -54 -24t-50 15l-148 102l-147 -102q-18 -15 -50 -15t-55 24q-22 24 -22 60t37 64l190 127q20 14 47 14zM594 1194q-119 0 -176 -47q-58 -47 -58 -111t56 -110q56 -45 138 -69q83 -23 180 -61
t180 -81q82 -43 138 -130t56 -208q0 -190 -132 -298t-382 -108q-174 0 -314 73t-204 177q-16 27 -16 65t31 70q32 32 77 33q45 0 90 -45q156 -156 336 -156q276 0 276 189q0 112 -148 175q-68 28 -146 52q-190 59 -305 134q-67 44 -107 119q-41 75 -41 175q0 164 120 270
t351 105q154 0 278 -52t187 -141q20 -30 20 -70q-1 -40 -33 -72t-74 -32t-91 45q-113 109 -287 109z" />
    <glyph glyph-name="scircumflex" unicode="&#x15d;" horiz-adv-x="870" 
d="M453 1346q27 0 47 -15l190 -127q37 -26 37 -64t-24 -61q-25 -23 -55 -23t-48 15l-147 103l-148 -103q-18 -14 -49 -14q-30 1 -54 23t-24 60t37 64l191 127q20 15 47 15zM432 766q-121 0 -121 -78q1 -40 53 -68t126 -50t147 -52q74 -30 126 -92q52 -63 52 -158
q0 -139 -104 -215t-248 -76q-144 1 -242 45t-133 87t-35 79t29 66q29 29 66 29t67 -25q101 -84 239 -84t138 82q0 45 -51 74t-125 49t-149 50q-75 31 -126 95t-51 160q0 133 96 204q96 70 224 70t218 -36t136 -91q20 -27 20 -65t-30 -66q-58 -57 -143 4q-85 62 -179 62z" />
    <glyph glyph-name="Scedilla" unicode="&#x15e;" horiz-adv-x="1173" 
d="M461 -166v150q-129 24 -233 90t-152 147q-16 27 -16 65t31 70q32 32 77 33q45 0 90 -45q156 -156 336 -156q276 0 276 189q0 112 -148 175q-68 28 -146 52q-190 59 -305 134q-67 44 -107 119q-41 75 -41 175q0 164 120 270t351 105q154 0 278 -52t187 -141q20 -30 20 -70
q-1 -40 -33 -72t-74 -32t-91 45q-113 109 -287 109q-119 0 -176 -47q-58 -47 -58 -111t56 -110q56 -45 138 -69q83 -23 180 -61t180 -81q82 -43 138 -130t56 -208q0 -190 -132 -298t-382 -108l-35 2l-6 -82q27 7 93 7t120 -48q53 -48 53 -135q0 -199 -223 -198
q-96 0 -164 45q-22 14 -22 40t16 41t32 15t29 -6q57 -29 117 -29q100 0 101 92q0 86 -111 86l-90 -12q-43 0 -43 45z" />
    <glyph glyph-name="scedilla" unicode="&#x15f;" horiz-adv-x="870" 
d="M338 -166v154q-176 29 -260 133q-25 31 -25 67t29 66q29 29 66 29t67 -25q101 -84 239 -84t138 82q0 45 -51 74t-125 49t-149 50q-75 31 -126 95t-51 160q0 133 96 204q96 70 224 70t218 -36t136 -91q20 -27 20 -65t-30 -66q-58 -57 -143 4q-85 62 -179 62
q-121 0 -121 -78q1 -40 53 -68t126 -50t147 -52q74 -30 126 -92q52 -63 52 -158q0 -139 -105 -215t-272 -76l-8 -86q28 7 94 7t119 -48t53 -135q0 -199 -223 -198q-96 0 -164 45q-23 14 -23 40t17 41t33 15t29 -6q57 -29 116 -29q100 0 101 92q0 86 -111 86l-90 -12
q-43 0 -43 45z" />
    <glyph glyph-name="Scaron" unicode="&#x160;" horiz-adv-x="1173" 
d="M608 1464q-27 0 -47 15l-190 127q-37 26 -37 64t23 61q24 23 55 23t49 -15l147 -103l148 103q18 14 49 14q31 -1 55 -23t23 -60q0 -38 -37 -64l-191 -127q-20 -15 -47 -15zM594 1194q-119 0 -176 -47q-58 -47 -58 -111t56 -110q56 -45 138 -69q83 -23 180 -61t180 -81
q82 -43 138 -130t56 -208q0 -190 -132 -298t-382 -108q-174 0 -314 73t-204 177q-16 27 -16 65t31 70q32 32 77 33q45 0 90 -45q156 -156 336 -156q276 0 276 189q0 112 -148 175q-68 28 -146 52q-190 59 -305 134q-67 44 -107 119q-41 75 -41 175q0 164 120 270t351 105
q154 0 278 -52t187 -141q20 -30 20 -70q-1 -40 -33 -72t-74 -32t-91 45q-113 109 -287 109z" />
    <glyph glyph-name="scaron" unicode="&#x161;" horiz-adv-x="870" 
d="M444 1057q-27 0 -47 14l-190 127q-37 27 -37 64q0 36 24 60t54 24t49 -15l147 -102l148 102q18 15 49 15t55 -24t23 -60q0 -36 -37 -64l-190 -127q-21 -14 -48 -14zM432 766q-121 0 -121 -78q1 -40 53 -68t126 -50t147 -52q74 -30 126 -92q52 -63 52 -158
q0 -139 -104 -215t-248 -76q-144 1 -242 45t-133 87t-35 79t29 66q29 29 66 29t67 -25q101 -84 239 -84t138 82q0 45 -51 74t-125 49t-149 50q-75 31 -126 95t-51 160q0 133 96 204q96 70 224 70t218 -36t136 -91q20 -27 20 -65t-30 -66q-58 -57 -143 4q-85 62 -179 62z" />
    <glyph glyph-name="Tcommaaccent" unicode="&#x162;" horiz-adv-x="1159" 
d="M469 -188q-1 108 107 108t108 -112t-51 -210q-51 -97 -121 -151q-14 -10 -28 -10t-24 11q-11 10 -11 26t12 28q68 68 67 148q0 33 -29 82q-30 49 -30 80zM1012 1169h-314v-1067q0 -49 -34 -84q-34 -34 -84 -34q-49 0 -84 34t-35 84v1067h-314q-43 0 -73 31t-31 74
q0 43 31 74t73 30h865q44 0 74 -30t30 -74q0 -43 -30 -74t-74 -31z" />
    <glyph glyph-name="tcommaaccent" unicode="&#x163;" horiz-adv-x="626" 
d="M348 -80q108 0 108 -112t-50 -210q-51 -97 -121 -151q-15 -10 -29 -10t-25 11q-10 10 -10 26t12 28q68 68 68 148q0 33 -30 82t-29 80q-2 108 106 108zM174 930v172q0 45 32 77q32 31 77 31t77 -32t31 -76v-172h92q39 0 66 -27t27 -65t-28 -66q-26 -27 -65 -27h-92v-495
q0 -33 24 -53q25 -21 59 -21t63 -29t29 -67t-30 -68q-28 -29 -67 -28q-135 0 -215 78t-80 200v483h-47q-39 0 -66 27t-26 66q1 40 27 66t65 26h47z" />
    <glyph glyph-name="Tcaron" unicode="&#x164;" horiz-adv-x="1159" 
d="M584 1464q-27 0 -47 15l-191 127q-37 26 -37 64t24 61q25 23 55 23t48 -15l148 -103l147 103q18 14 49 14q31 -1 55 -23q23 -22 23 -60t-37 -64l-190 -127q-20 -15 -47 -15zM1012 1169h-314v-1067q0 -49 -34 -84q-34 -34 -84 -34q-49 0 -84 34t-35 84v1067h-314
q-43 0 -73 31t-31 74q0 43 31 74t73 30h865q44 0 74 -30t30 -74q0 -43 -30 -74t-74 -31z" />
    <glyph glyph-name="tcaron" unicode="&#x165;" horiz-adv-x="964" 
d="M643 1319q0 137 134 137t134 -141q-1 -141 -65 -263t-150 -188q-16 -12 -33 -12t-31 13q-30 30 0 66t44 55q39 53 41 132q0 40 -37 100t-37 101zM174 930v172q0 45 32 77q32 31 77 31t77 -32t31 -76v-172h92q39 0 66 -27t27 -65t-28 -66q-26 -27 -65 -27h-92v-495
q0 -33 24 -53q25 -21 59 -21t63 -29t29 -67t-30 -68q-28 -29 -67 -28q-135 0 -215 78t-80 200v483h-47q-39 0 -66 27t-26 66q1 40 27 66t65 26h47z" />
    <glyph glyph-name="Tbar" unicode="&#x166;" horiz-adv-x="1159" 
d="M1012 1169h-314v-354h117q41 0 70 -29q29 -30 29 -70t-30 -69q-28 -29 -69 -29h-117v-516q0 -49 -34 -84q-34 -34 -84 -34q-49 0 -84 34t-35 84v516h-117q-41 0 -70 29t-28 70q0 41 28 69t70 29h117v354h-314q-43 0 -73 31t-31 74q0 43 31 74t73 30h865q44 0 74 -30
t30 -74q0 -43 -30 -74t-74 -31z" />
    <glyph glyph-name="tbar" unicode="&#x167;" horiz-adv-x="626" 
d="M575 553q-1 -33 -23 -55t-54 -23h-107v-225q0 -33 24 -53q25 -21 59 -21t63 -29t29 -67t-30 -68q-28 -29 -67 -28q-135 0 -215 78t-80 200v213h-61q-33 0 -56 23q-23 24 -23 56t24 54q22 22 55 23h61v114h-47q-39 0 -66 27t-26 66q1 40 27 66t65 26h47v172q0 45 32 77
q32 31 77 31t77 -32t31 -76v-172h92q39 0 66 -27t27 -65t-28 -66q-26 -27 -65 -27h-92v-114h107q33 -1 55 -23t22 -55z" />
    <glyph glyph-name="Utilde" unicode="&#x168;" horiz-adv-x="1267" 
d="M766 1645q32 -1 56 33t62 34t62 -22t23 -50q0 -75 -75 -118q-48 -29 -110 -29t-147 35q-86 35 -115 35q-30 0 -54 -34t-62 -34t-62 23t-22 50q1 74 74 118q96 58 254 -6q85 -34 116 -35zM639 -29q-147 0 -253 41t-162 113q-103 137 -101 326v825q0 49 35 84t84 35t84 -35
t34 -84v-825q0 -271 279 -271t279 271v825q0 49 34 84q35 35 84 35t84 -35t35 -84v-825q0 -193 -101 -326q-54 -72 -161 -113t-254 -41z" />
    <glyph glyph-name="utilde" unicode="&#x169;" horiz-adv-x="993" 
d="M625 1227q31 0 55 34q24 33 64 33t62 -22t22 -50q-1 -73 -75 -118q-47 -29 -109 -29t-148 35t-115 35t-53 -34t-64 -34t-62 23t-22 50q0 74 75 118q95 58 253 -6q86 -34 117 -35zM203 946q47 0 79 -33t31 -77v-478q-1 -184 183 -184t184 184v478q0 46 33 78t78 32t77 -33
t33 -77v-478q0 -174 -89 -279t-315 -105q-225 0 -315 104q-90 106 -90 280v478q0 46 32 78t79 32z" />
    <glyph glyph-name="Umacron" unicode="&#x16a;" horiz-adv-x="1267" 
d="M907 1579q-1 -33 -23 -55t-55 -23h-354q-33 0 -55 23q-22 24 -23 56q0 32 23 54t55 23h354q33 -1 55 -23t23 -55zM639 -29q-147 0 -253 41t-162 113q-103 137 -101 326v825q0 49 35 84t84 35t84 -35t34 -84v-825q0 -271 279 -271t279 271v825q0 49 34 84q35 35 84 35
t84 -35t35 -84v-825q0 -193 -101 -326q-54 -72 -161 -113t-254 -41z" />
    <glyph glyph-name="umacron" unicode="&#x16b;" horiz-adv-x="993" 
d="M758 1151q0 -33 -23 -55t-55 -23h-354q-33 0 -56 23q-22 24 -22 56t22 54t56 23h354q34 -1 56 -23t22 -55zM203 946q47 0 79 -33t31 -77v-478q-1 -184 183 -184t184 184v478q0 46 33 78t78 32t77 -33t33 -77v-478q0 -174 -89 -279t-315 -105q-225 0 -315 104
q-90 106 -90 280v478q0 46 32 78t79 32z" />
    <glyph glyph-name="Ubreve" unicode="&#x16c;" horiz-adv-x="1267" 
d="M647 1491q-127 0 -205 54t-77 165q-1 30 21 52t52 22t52 -22t22 -52q0 -80 135 -80t135 80q0 30 22 52t52 22t52 -22t22 -52q0 -111 -78 -165t-205 -54zM639 -29q-147 0 -253 41t-162 113q-103 137 -101 326v825q0 49 35 84t84 35t84 -35t34 -84v-825q0 -271 279 -271
t279 271v825q0 49 34 84q35 35 84 35t84 -35t35 -84v-825q0 -193 -101 -326q-54 -72 -161 -113t-254 -41z" />
    <glyph glyph-name="ubreve" unicode="&#x16d;" horiz-adv-x="993" 
d="M502 1071q-127 0 -205 54t-78 165q0 30 22 52q23 22 53 22t52 -22t21 -52q0 -80 135 -80t135 80q-1 30 21 52t53 22t53 -22t20 -52q0 -111 -78 -165t-204 -54zM203 946q47 0 79 -33t31 -77v-478q-1 -184 183 -184t184 184v478q0 46 33 78t78 32t77 -33t33 -77v-478
q0 -174 -89 -279t-315 -105q-225 0 -315 104q-90 106 -90 280v478q0 46 32 78t79 32z" />
    <glyph glyph-name="Uring" unicode="&#x16e;" horiz-adv-x="1267" 
d="M649 1845q105 0 161 -53q56 -54 56 -150t-55 -149t-161 -53t-163 53q-55 53 -55 149t55 150q56 53 162 53zM649 1542q102 0 103 100q0 100 -102 100t-103 -100q0 -100 102 -100zM639 -29q-147 0 -253 41t-162 113q-103 137 -101 326v825q0 49 35 84t84 35t84 -35t34 -84
v-825q0 -271 279 -271t279 271v825q0 49 34 84q35 35 84 35t84 -35t35 -84v-825q0 -193 -101 -326q-54 -72 -161 -113t-254 -41z" />
    <glyph glyph-name="uring" unicode="&#x16f;" horiz-adv-x="993" 
d="M502 1432q106 0 162 -54t55 -149q0 -95 -55 -149q-56 -54 -162 -54t-162 53q-55 53 -55 149q-1 96 55 150t162 54zM502 1128q102 0 102 100t-102 101q-102 0 -103 -100q1 -101 103 -101zM203 946q47 0 79 -33t31 -77v-478q-1 -184 183 -184t184 184v478q0 46 33 78t78 32
t77 -33t33 -77v-478q0 -174 -89 -279t-315 -105q-225 0 -315 104q-90 106 -90 280v478q0 46 32 78t79 32z" />
    <glyph glyph-name="Uhungarumlaut" unicode="&#x170;" horiz-adv-x="1267" 
d="M803 1479q-49 -43 -97 2t-8 90l174 221q20 29 56 27t68 -33t33 -66t-25 -57zM510 1479q-49 -43 -97 2t-7 90l174 221q20 29 56 27t68 -33t32 -66q1 -35 -25 -57zM639 -29q-147 0 -253 41t-162 113q-103 137 -101 326v825q0 49 35 84t84 35t84 -35t34 -84v-825
q0 -271 279 -271t279 271v825q0 49 34 84q35 35 84 35t84 -35t35 -84v-825q0 -193 -101 -326q-54 -72 -161 -113t-254 -41z" />
    <glyph glyph-name="uhungarumlaut" unicode="&#x171;" horiz-adv-x="993" 
d="M674 1053q-49 -43 -97 2t-8 90l174 221q21 29 57 27t68 -33t32 -66q1 -35 -26 -57zM381 1053q-49 -43 -97 2t-8 90l175 221q20 29 56 27q35 -2 67 -33t33 -66t-25 -57zM203 946q47 0 79 -33t31 -77v-478q-1 -184 183 -184t184 184v478q0 46 33 78t78 32t77 -33t33 -77
v-478q0 -174 -89 -279t-315 -105q-225 0 -315 104q-90 106 -90 280v478q0 46 32 78t79 32z" />
    <glyph glyph-name="Uogonek" unicode="&#x172;" horiz-adv-x="1267" 
d="M1024 -305q0 -80 -170 -80q-100 0 -170 43q-70 42 -70 144t95 173q-45 -4 -70 -4q-147 0 -253 41t-162 113q-103 137 -101 326v825q0 49 35 84t84 35t84 -35t34 -84v-825q0 -271 279 -271t279 271v825q0 49 34 84q35 35 84 35t84 -35t35 -84v-825q0 -358 -299 -451
q-111 -80 -111 -164q0 -94 127 -94l91 14q27 0 44 -17t17 -44z" />
    <glyph glyph-name="uogonek" unicode="&#x173;" horiz-adv-x="993" 
d="M852 -305q0 -80 -170 -80q-100 0 -170 43q-70 42 -70 144t95 173q-12 -2 -39 -2q-226 -1 -316 105t-90 280v478q0 46 32 78t79 32t79 -33t31 -77v-478q-1 -184 183 -184t184 184v478q0 46 33 78t78 32t77 -33t33 -77v-478q0 -289 -219 -358q-109 -78 -109 -164
q0 -94 127 -94l91 14q27 0 44 -17t17 -44z" />
    <glyph glyph-name="Wcircumflex" unicode="&#x174;" horiz-adv-x="1716" 
d="M858 1753q27 0 47 -14l191 -127q37 -27 37 -64q0 -36 -24 -60q-25 -24 -55 -24t-48 15l-148 102l-147 -102q-18 -15 -49 -15t-55 24q-23 24 -23 60t37 64l190 127q20 14 47 14zM39 1291q0 34 35 69t82 35q46 0 76 -26t38 -56l240 -860l233 856q10 39 43 63t72 23
q39 0 72 -24t43 -62l233 -856l240 860q8 31 38 57t77 25q47 0 81 -35q34 -34 35 -68q0 -34 -6 -53l-350 -1173q-10 -35 -42 -59q-32 -23 -72 -23q-39 0 -71 24t-42 64l-236 839l-235 -839q-10 -39 -42 -64q-32 -24 -72 -24t-72 24t-42 58l-350 1173q-6 18 -6 52z" />
    <glyph glyph-name="wcircumflex" unicode="&#x175;" horiz-adv-x="1302" 
d="M651 1346q27 0 47 -15l191 -127q37 -26 37 -64t-23 -61t-55 -23t-49 15l-148 103l-147 -103q-18 -14 -50 -14q-32 1 -55 23t-23 60t38 64l190 127q20 15 47 15zM25 846q1 36 33 68t77 32q78 0 105 -72l170 -503l137 495q8 33 36 57q29 23 69 23t69 -22t37 -52l137 -501
l168 503q27 72 106 72q47 0 79 -31t32 -62t-10 -56l-281 -744q-25 -70 -102 -69q-37 0 -67 21t-40 56l-127 449l-127 -447q-10 -35 -40 -57t-66 -22q-76 0 -105 71l-280 731q-10 25 -10 60z" />
    <glyph glyph-name="Ycircumflex" unicode="&#x176;" horiz-adv-x="1134" 
d="M567 1753q27 0 47 -14l191 -127q37 -27 37 -64q0 -36 -24 -60t-54 -24t-49 15l-148 102l-147 -102q-18 -15 -49 -15t-55 24t-24 60t38 64l190 127q20 14 47 14zM1096 1281q0 -44 -19 -69l-391 -583v-527q0 -49 -35 -84q-35 -34 -84 -34t-84 34t-34 84v527l-392 583
q-18 25 -18 69t35 79q35 34 92 34t92 -55l309 -485l310 485q35 55 92 55t92 -34q35 -35 35 -79z" />
    <glyph glyph-name="ycircumflex" unicode="&#x177;" horiz-adv-x="925" 
d="M463 1346q27 0 47 -15l190 -127q37 -26 37 -64q-1 -38 -23 -61t-54 -23t-50 15l-147 103l-148 -103q-18 -14 -50 -14q-33 1 -55 23t-22 60t37 64l191 127q20 15 47 15zM88 -207q92 0 148 66q55 66 112 207l-315 727q-8 20 -8 54q1 35 33 67t77 32q76 0 103 -69l225 -570
l225 570q27 70 103 69q45 0 77 -33t33 -67q0 -34 -8 -53l-381 -861q-154 -344 -424 -344q-45 0 -76 29t-30 74q0 45 30 73t76 29z" />
    <glyph glyph-name="Ydieresis" unicode="&#x178;" horiz-adv-x="1134" 
d="M754 1516q-102 0 -102 106t102 107q102 -1 102 -107t-102 -106zM383 1516q-102 0 -102 106t102 107q102 -1 102 -107t-102 -106zM1096 1281q0 -44 -19 -69l-391 -583v-527q0 -49 -35 -84q-35 -34 -84 -34t-84 34t-34 84v527l-392 583q-18 25 -18 69t35 79q35 34 92 34
t92 -55l309 -485l310 485q35 55 92 55t92 -34q35 -35 35 -79z" />
    <glyph glyph-name="Zacute" unicode="&#x179;" horiz-adv-x="1107" 
d="M551 1479q-49 -43 -97 2t-8 90l175 221q20 29 56 27q35 -2 67 -33t33 -66t-25 -57zM975 0h-838q-45 0 -76 31t-31 71t21 68l688 999h-563q-43 0 -74 31t-30 74q0 43 30 74q31 31 74 30h774q43 0 74 -30t31 -69q0 -38 -19 -65l-686 -1001h625q45 0 76 -31t31 -76
q0 -46 -32 -76q-30 -30 -75 -30z" />
    <glyph glyph-name="zacute" unicode="&#x17a;" horiz-adv-x="837" 
d="M416 1053q-49 -43 -97 2t-8 90l174 221q21 29 57 27t68 -33t32 -66q1 -35 -26 -57zM59 838q0 40 27 66t66 26h526q38 0 68 -29t30 -66t-22 -67l-432 -580h372q39 0 67 -28q27 -28 27 -66t-28 -66t-66 -28h-565q-39 0 -67 28q-56 56 -5 128l441 589h-346q-39 0 -66 27
t-27 66z" />
    <glyph glyph-name="Zdotaccent" unicode="&#x17b;" horiz-adv-x="1107" 
d="M569 1495q-106 -1 -106 107t106 108t106 -108t-106 -107zM975 0h-838q-45 0 -76 31t-31 71t21 68l688 999h-563q-43 0 -74 31t-30 74q0 43 30 74q31 31 74 30h774q43 0 74 -30t31 -69q0 -38 -19 -65l-686 -1001h625q45 0 76 -31t31 -76q0 -46 -32 -76q-30 -30 -75 -30z
" />
    <glyph glyph-name="zdotaccent" unicode="&#x17c;" horiz-adv-x="837" 
d="M428 1100q-106 0 -106 108t106 107q106 1 106 -107t-106 -108zM59 838q0 40 27 66t66 26h526q38 0 68 -29t30 -66t-22 -67l-432 -580h372q39 0 67 -28q27 -28 27 -66t-28 -66t-66 -28h-565q-39 0 -67 28q-56 56 -5 128l441 589h-346q-39 0 -66 27t-27 66z" />
    <glyph glyph-name="Zcaron" unicode="&#x17d;" horiz-adv-x="1107" 
d="M569 1464q-27 0 -47 15l-190 127q-37 26 -37 64t22 61q23 23 55 23t50 -15l147 -103l148 103q18 14 50 14q33 -1 55 -23t22 -60t-37 -64l-191 -127q-20 -15 -47 -15zM975 0h-838q-45 0 -76 31t-31 71t21 68l688 999h-563q-43 0 -74 31t-30 74q0 43 30 74q31 31 74 30h774
q43 0 74 -30t31 -69q0 -38 -19 -65l-686 -1001h625q45 0 76 -31t31 -76q0 -46 -32 -76q-30 -30 -75 -30z" />
    <glyph glyph-name="zcaron" unicode="&#x17e;" horiz-adv-x="837" 
d="M418 1057q-27 0 -47 14l-191 127q-37 27 -37 64q0 36 23 60q22 24 54 24t50 -15l148 -102l147 102q18 15 50 15t55 -24q22 -24 22 -60t-37 -64l-190 -127q-20 -14 -47 -14zM59 838q0 40 27 66t66 26h526q38 0 68 -29t30 -66t-22 -67l-432 -580h372q39 0 67 -28
q27 -28 27 -66t-28 -66t-66 -28h-565q-39 0 -67 28q-56 56 -5 128l441 589h-346q-39 0 -66 27t-27 66z" />
    <glyph glyph-name="longs" unicode="&#x17f;" horiz-adv-x="561" 
d="M168 745h-43q-39 0 -66 27t-26 66q1 40 27 66t65 26h43v110q0 154 101 258t290 105q39 0 68 -28q29 -29 29 -69t-30 -68q-28 -28 -67 -28q-82 0 -126 -42t-44 -111v-967q0 -45 -32 -76q-31 -30 -79 -30t-79 30t-31 76v655z" />
    <glyph glyph-name="florin" unicode="&#x192;" horiz-adv-x="978" 
d="M207 815h108l43 236q31 164 123 260q91 96 229 96t210 -53q41 -29 41 -73t-28 -72q-44 -44 -102 -19q-59 24 -110 24q-113 0 -143 -165l-43 -234h135q40 0 66 -27q26 -28 26 -66t-27 -65t-65 -26h-166l-119 -635q-76 -408 -436 -408q-86 0 -155 26t-68 91q0 41 27 70
t53 29t65 -11q39 -10 78 -10q94 0 146 52t73 163l113 633h-74q-39 1 -66 27t-26 65t27 65t65 27z" />
    <glyph glyph-name="AEmacron" unicode="&#x1e2;" horiz-adv-x="1769" 
d="M1386 1579q0 -33 -22 -55t-55 -23h-355q-34 0 -56 23q-22 24 -22 56t24 54q22 22 54 23h355q33 -1 55 -23t22 -55zM1602 0h-662q-49 0 -84 33t-35 82v264h-344l-215 -340q-37 -55 -91 -55t-89 34t-35 75q0 40 21 73l772 1159q37 53 94 53h645q45 0 76 -30t31 -76
q0 -45 -31 -76t-76 -31h-520v-366h387q43 0 74 -31q30 -31 30 -74q0 -44 -30 -74t-74 -30h-387v-377h543q46 0 76 -31t30 -76q0 -46 -30 -76t-76 -30zM821 596v340l-215 -340h215z" />
    <glyph glyph-name="aemacron" unicode="&#x1e3;" horiz-adv-x="1556" 
d="M1034 1151q0 -33 -22 -55t-56 -23h-354q-34 0 -56 23q-22 24 -22 56t23 54t55 23h354q34 -1 56 -23t22 -55zM1286 571q0 83 -48 141t-141 58t-151 -51t-65 -148h405zM446 158q86 0 148 51q61 51 61 133v57h-239q-139 0 -140 -116q0 -125 170 -125zM465 762
q-92 0 -201 -78q-28 -20 -64 -20t-65 28t-29 68q0 39 27 67q119 131 334 131t321 -110q115 111 308 110q123 0 209 -42t127 -110q73 -122 73 -251t-53 -155q-27 -13 -72 -13h-506q0 -111 66 -163t173 -52t194 57t143 0q29 -29 29 -71t-35 -72q-119 -113 -330 -113
q-264 0 -369 168q-57 -82 -137 -125t-224 -43t-237 85q-92 86 -92 224q-1 138 95 214t237 75h268v37q0 70 -49 112t-141 42z" />
    <glyph glyph-name="Aringacute" unicode="&#x1fa;" horiz-adv-x="1277" 
d="M584 1749q-50 -43 -98 2t-7 90l174 221q21 29 57 27t68 -33q32 -32 32 -66q1 -34 -26 -57zM639 1393q102 0 102 100t-102 100t-102 -100t102 -100zM807 575l-168 431l-168 -431h336zM39 89q0 36 8 54l479 1168q-104 45 -104 182q0 96 55 149q55 54 161 54t162 -54
t56 -149q0 -137 -104 -182l479 -1168q8 -18 8 -54t-35 -71t-82 -34q-78 0 -110 77l-125 297h-496l-125 -297q-33 -78 -110 -77q-47 0 -82 34t-35 71z" />
    <glyph glyph-name="aringacute" unicode="&#x1fb;" horiz-adv-x="966" 
d="M432 1452q-49 -43 -97 2t-7 90l174 221q20 29 56 27t68 -33t32 -65t-25 -58zM479 1407q105 0 161 -53q56 -54 56 -150t-55 -149t-161 -53t-162 52q-56 54 -56 150t55 150q56 53 162 53zM479 1104q102 0 103 100q0 100 -102 100t-103 -100q0 -100 102 -100zM446 158
q86 0 148 51q61 51 61 133v57h-239q-139 0 -140 -116q0 -125 170 -125zM465 762q-92 0 -201 -78q-28 -20 -64 -20t-65 28t-29 68q0 39 27 67q119 131 323 131t311 -90q108 -90 107 -252v-524q0 -45 -32 -77q-32 -31 -76 -31q-45 0 -77 32t-32 76q-74 -119 -268 -119
q-150 0 -242 85q-92 86 -92 224q-1 138 95 214t237 75h268v37q0 70 -49 112t-141 42z" />
    <glyph glyph-name="AEacute" unicode="&#x1fc;" horiz-adv-x="1769" 
d="M1106 1479q-49 -43 -97 2t-8 90l175 221q20 29 56 27t68 -33t32 -66q1 -35 -25 -57zM1602 0h-662q-49 0 -84 33t-35 82v264h-344l-215 -340q-37 -55 -91 -55t-89 34t-35 75q0 40 21 73l772 1159q37 53 94 53h645q45 0 76 -30t31 -76q0 -45 -31 -76t-76 -31h-520v-366h387
q43 0 74 -31q30 -31 30 -74q0 -44 -30 -74t-74 -30h-387v-377h543q46 0 76 -31t30 -76q0 -46 -30 -76t-76 -30zM821 596v340l-215 -340h215z" />
    <glyph glyph-name="aeacute" unicode="&#x1fd;" horiz-adv-x="1556" 
d="M743 1053q-49 -43 -97 2t-7 90l174 221q20 29 56 27t68 -33t33 -66t-26 -57zM1286 571q0 83 -48 141t-141 58t-151 -51t-65 -148h405zM446 158q86 0 148 51q61 51 61 133v57h-239q-139 0 -140 -116q0 -125 170 -125zM465 762q-92 0 -201 -78q-28 -20 -64 -20t-65 28
t-29 68q0 39 27 67q119 131 334 131t321 -110q115 111 308 110q123 0 209 -42t127 -110q73 -122 73 -251t-53 -155q-27 -13 -72 -13h-506q0 -111 66 -163t173 -52t194 57t143 0q29 -29 29 -71t-35 -72q-119 -113 -330 -113q-264 0 -369 168q-57 -82 -137 -125t-224 -43
t-237 85q-92 86 -92 224q-1 138 95 214t237 75h268v37q0 70 -49 112t-141 42z" />
    <glyph glyph-name="Oslashacute" unicode="&#x1fe;" horiz-adv-x="1437" 
d="M700 1479q-49 -43 -97 2t-7 90l174 221q20 29 56 27t68 -33t33 -66t-26 -57zM719 184q403 0 403 504q0 176 -49 293l-594 -731q90 -66 240 -66zM719 1194q-403 0 -404 -506q0 -178 50 -295l596 733q-97 68 -242 68zM719 -29q-233 0 -385 99l-74 -90q-27 -33 -67 -33
q-41 1 -67 27t-26 61t21 59l82 101q-133 175 -133 513t167 518t482 181q236 0 387 -100l70 86q26 33 66 33t67 -28q27 -26 27 -61t-21 -59l-78 -96q131 -178 131 -513t-168 -517t-481 -181z" />
    <glyph glyph-name="oslashacute" unicode="&#x1ff;" horiz-adv-x="1017" 
d="M504 1053q-49 -43 -97 2t-8 90l174 221q21 29 57 27t68 -33t32 -66q1 -35 -25 -57zM283 465q0 -61 8 -103l348 367q-53 41 -131 41q-225 0 -225 -305zM733 465q0 57 -10 115l-354 -373q53 -45 139 -45q225 0 225 303zM956 465q0 -246 -118 -369t-310 -123q-194 0 -305 80
l-43 -45q-26 -24 -60 -24t-58 24t-23 58q0 33 24 57l56 57q-59 113 -60 285q0 246 118 370t331 123q168 0 276 -75l52 53q26 25 60 25t58 -24q24 -23 23 -57q0 -34 -25 -59l-59 -63q63 -117 63 -293z" />
    <glyph glyph-name="Scommaaccent" unicode="&#x218;" horiz-adv-x="1173" 
d="M489 -188q-1 108 107 108t108 -112t-50 -210q-52 -97 -122 -151q-14 -10 -27 -10t-25 11q-11 10 -11 26t12 28q68 68 68 148q0 33 -30 82t-30 80zM594 1194q-119 0 -176 -47q-58 -47 -58 -111t56 -110q56 -45 138 -69q83 -23 180 -61t180 -81q82 -43 138 -130t56 -208
q0 -190 -132 -298t-382 -108q-174 0 -314 73t-204 177q-16 27 -16 65t31 70q32 32 77 33q45 0 90 -45q156 -156 336 -156q276 0 276 189q0 112 -148 175q-68 28 -146 52q-190 59 -305 134q-67 44 -107 119q-41 75 -41 175q0 164 120 270t351 105q154 0 278 -52t187 -141
q20 -30 20 -70q-1 -40 -33 -72t-74 -32t-91 45q-113 109 -287 109z" />
    <glyph glyph-name="scommaaccent" unicode="&#x219;" horiz-adv-x="870" 
d="M444 -80q108 0 108 -112t-50 -210q-51 -97 -121 -151q-13 -10 -27 -10t-25 11q-11 10 -11 26t12 28q68 68 67 148q0 33 -29 82q-30 49 -30 80q-2 108 106 108zM432 766q-121 0 -121 -78q1 -40 53 -68t126 -50t147 -52q74 -30 126 -92q52 -63 52 -158q0 -139 -104 -215
t-248 -76q-144 1 -242 45t-133 87t-35 79t29 66q29 29 66 29t67 -25q101 -84 239 -84t138 82q0 45 -51 74t-125 49t-149 50q-75 31 -126 95t-51 160q0 133 96 204q96 70 224 70t218 -36t136 -91q20 -27 20 -65t-30 -66q-58 -57 -143 4q-85 62 -179 62z" />
    <glyph glyph-name="dotlessj" unicode="&#x237;" 
d="M113 -16v852q-1 46 31 78t79 32t79 -33t32 -77v-852q0 -136 -94 -230t-238 -94q-41 0 -72 31q-30 31 -30 71t30 72q31 31 76 31t76 35t31 84z" />
    <glyph glyph-name="circumflex" unicode="&#x2c6;" horiz-adv-x="684" 
d="M342 1346q27 0 47 -15l191 -127q36 -26 36 -64t-24 -61t-54 -23t-49 15l-147 103l-147 -103q-17 -14 -49 -14q-32 1 -56 23t-22 60q0 38 36 64l191 127q20 15 47 15z" />
    <glyph glyph-name="caron" unicode="&#x2c7;" horiz-adv-x="684" 
d="M342 1057q-27 0 -47 14l-191 127q-36 27 -36 64q0 36 24 60t54 24t49 -15l147 -102l147 102q17 15 49 15t56 -24t22 -60q0 -36 -36 -64l-191 -127q-20 -14 -47 -14z" />
    <glyph glyph-name="breve" unicode="&#x2d8;" horiz-adv-x="669" 
d="M334 1071q-127 0 -205 54t-78 165q0 30 22 52q23 22 53 22t52 -22t21 -52q0 -80 135 -80t135 80q-1 30 21 52t53 22t53 -22t20 -52q0 -111 -78 -165t-204 -54z" />
    <glyph glyph-name="dotaccent" unicode="&#x2d9;" horiz-adv-x="589" 
d="M295 1100q-107 0 -107 108t106 107q106 1 107 -107q0 -108 -106 -108z" />
    <glyph glyph-name="ring" unicode="&#x2da;" horiz-adv-x="567" 
d="M283 1432q106 0 161 -54q56 -54 56 -149t-56 -149t-161 -54q-106 0 -162 53q-55 53 -55 149t56 150t161 54zM283 1128q102 0 102 100t-102 101q-102 0 -103 -100q1 -101 103 -101z" />
    <glyph glyph-name="ogonek" unicode="&#x2db;" horiz-adv-x="653" 
d="M530 -305q0 -80 -170 -80q-100 0 -170 43t-69 137q0 66 42 124t97 81h102q-111 -80 -110 -164q0 -94 127 -94l90 14q27 0 44 -17t17 -44z" />
    <glyph glyph-name="tilde" unicode="&#x2dc;" horiz-adv-x="804" 
d="M522 1227q31 0 56 34q26 33 64 33t60 -22t23 -50q0 -73 -75 -118q-48 -29 -109 -29t-147 35t-116 35q-28 0 -53 -34t-63 -34t-62 23q-22 23 -22 50q1 74 75 118q95 58 253 -6q85 -34 116 -35z" />
    <glyph glyph-name="hungarumlaut" unicode="&#x2dd;" horiz-adv-x="1040" 
d="M612 1053q-49 -43 -97 2t-7 90l174 221q20 29 56 27t68 -33t33 -66t-26 -57zM319 1053q-49 -43 -97 2t-7 90l174 221q20 29 56 27t68 -33t33 -66t-26 -57z" />
    <glyph glyph-name="Wgrave" unicode="&#x1e80;" horiz-adv-x="1716" 
d="M1018 1571q41 -45 -7 -90t-98 -2l-200 184q-27 23 -26 57t33 66q32 31 68 33t56 -27zM39 1291q0 34 35 69t82 35q46 0 76 -26t38 -56l240 -860l233 856q10 39 43 63t72 23q39 0 72 -24t43 -62l233 -856l240 860q8 31 38 57t77 25q47 0 81 -35q34 -34 35 -68q0 -34 -6 -53
l-350 -1173q-10 -35 -42 -59q-32 -23 -72 -23q-39 0 -71 24t-42 64l-236 839l-235 -839q-10 -39 -42 -64q-32 -24 -72 -24t-72 24t-42 58l-350 1173q-6 18 -6 52z" />
    <glyph glyph-name="wgrave" unicode="&#x1e81;" horiz-adv-x="1302" 
d="M811 1145q41 -45 -7 -90t-97 -2l-201 184q-27 23 -26 57t33 66q32 31 68 33t56 -27zM25 846q1 36 33 68t77 32q78 0 105 -72l170 -503l137 495q8 33 36 57q29 23 69 23t69 -22t37 -52l137 -501l168 503q27 72 106 72q47 0 79 -31t32 -62t-10 -56l-281 -744
q-25 -70 -102 -69q-37 0 -67 21t-40 56l-127 449l-127 -447q-10 -35 -40 -57t-66 -22q-76 0 -105 71l-280 731q-10 25 -10 60z" />
    <glyph glyph-name="Wacute" unicode="&#x1e82;" horiz-adv-x="1716" 
d="M803 1479q-49 -43 -97 2t-8 90l174 221q20 29 56 27t68 -33t33 -66t-25 -57zM39 1291q0 34 35 69t82 35q46 0 76 -26t38 -56l240 -860l233 856q10 39 43 63t72 23q39 0 72 -24t43 -62l233 -856l240 860q8 31 38 57t77 25q47 0 81 -35q34 -34 35 -68q0 -34 -6 -53
l-350 -1173q-10 -35 -42 -59q-32 -23 -72 -23q-39 0 -71 24t-42 64l-236 839l-235 -839q-10 -39 -42 -64q-32 -24 -72 -24t-72 24t-42 58l-350 1173q-6 18 -6 52z" />
    <glyph glyph-name="wacute" unicode="&#x1e83;" horiz-adv-x="1302" 
d="M616 1053q-49 -43 -97 2t-7 90l174 221q20 29 56 27t68 -33t33 -66t-26 -57zM25 846q1 36 33 68t77 32q78 0 105 -72l170 -503l137 495q8 33 36 57q29 23 69 23t69 -22t37 -52l137 -501l168 503q27 72 106 72q47 0 79 -31t32 -62t-10 -56l-281 -744q-25 -70 -102 -69
q-37 0 -67 21t-40 56l-127 449l-127 -447q-10 -35 -40 -57t-66 -22q-76 0 -105 71l-280 731q-10 25 -10 60z" />
    <glyph glyph-name="Wdieresis" unicode="&#x1e84;" horiz-adv-x="1716" 
d="M1044 1516q-102 0 -102 106t102 107q102 -1 102 -107t-102 -106zM674 1516q-102 0 -102 106t102 107q102 -1 102 -107t-102 -106zM39 1291q0 34 35 69t82 35q46 0 76 -26t38 -56l240 -860l233 856q10 39 43 63t72 23q39 0 72 -24t43 -62l233 -856l240 860q8 31 38 57
t77 25q47 0 81 -35q34 -34 35 -68q0 -34 -6 -53l-350 -1173q-10 -35 -42 -59q-32 -23 -72 -23q-39 0 -71 24t-42 64l-236 839l-235 -839q-10 -39 -42 -64q-32 -24 -72 -24t-72 24t-42 58l-350 1173q-6 18 -6 52z" />
    <glyph glyph-name="wdieresis" unicode="&#x1e85;" horiz-adv-x="1302" 
d="M840 1067q-102 1 -102 107t102 106t102 -106t-102 -107zM469 1067q-102 1 -102 107t102 106t102 -106t-102 -107zM25 846q1 36 33 68t77 32q78 0 105 -72l170 -503l137 495q8 33 36 57q29 23 69 23t69 -22t37 -52l137 -501l168 503q27 72 106 72q47 0 79 -31t32 -62
t-10 -56l-281 -744q-25 -70 -102 -69q-37 0 -67 21t-40 56l-127 449l-127 -447q-10 -35 -40 -57t-66 -22q-76 0 -105 71l-280 731q-10 25 -10 60z" />
    <glyph glyph-name="Ygrave" unicode="&#x1ef2;" horiz-adv-x="1134" 
d="M719 1571q41 -45 -7 -90t-98 -2l-200 184q-27 23 -26 57t33 66q31 31 67 33t57 -27zM1096 1281q0 -44 -19 -69l-391 -583v-527q0 -49 -35 -84q-35 -34 -84 -34t-84 34t-34 84v527l-392 583q-18 25 -18 69t35 79q35 34 92 34t92 -55l309 -485l310 485q35 55 92 55t92 -34
q35 -35 35 -79z" />
    <glyph glyph-name="ygrave" unicode="&#x1ef3;" horiz-adv-x="925" 
d="M594 1145q41 -45 -7 -90t-98 -2l-200 184q-27 23 -26 57t33 66q32 31 68 33t56 -27zM88 -207q92 0 148 66q55 66 112 207l-315 727q-8 20 -8 54q1 35 33 67t77 32q76 0 103 -69l225 -570l225 570q27 70 103 69q45 0 77 -33t33 -67q0 -34 -8 -53l-381 -861
q-154 -344 -424 -344q-45 0 -76 29t-30 74q0 45 30 73t76 29z" />
    <glyph glyph-name="thinspace" unicode="&#x2009;" horiz-adv-x="30" 
 />
    <glyph glyph-name="endash" unicode="&#x2013;" horiz-adv-x="1165" 
d="M993 578q1 -39 -27 -67t-67 -28h-633q-38 0 -66 28t-28 67q0 38 28 66t66 28h633q39 0 67 -28t27 -66z" />
    <glyph glyph-name="emdash" unicode="&#x2014;" horiz-adv-x="1800" 
d="M1628 578q0 -39 -28 -67t-66 -28h-1268q-38 0 -66 28t-28 67q0 38 28 66t66 28h1268q38 0 66 -28t28 -66z" />
    <glyph glyph-name="quoteleft" unicode="&#x2018;" horiz-adv-x="411" 
d="M328 928q0 -137 -134 -137t-134 141t64 263q65 122 150 187q37 27 65 -1q13 -13 13 -29t-22 -44t-35 -47t-27 -57t-14 -76q0 -39 37 -100t37 -100z" />
    <glyph glyph-name="quoteright" unicode="&#x2019;" horiz-adv-x="411" 
d="M84 1257q0 138 134 138q134 1 134 -141t-64 -264t-151 -187q-15 -12 -33 -12t-31 13q-30 30 -1 62q31 38 45 58q39 54 41 133q0 41 -37 100t-37 100z" />
    <glyph glyph-name="quotesinglbase" unicode="&#x201a;" horiz-adv-x="448" 
d="M84 117q0 137 134 137t134 -141t-64 -263t-151 -188q-15 -12 -33 -12t-31 13q-28 28 1 65t43 56q39 53 41 132q0 41 -37 101t-37 100z" />
    <glyph glyph-name="quotedblleft" unicode="&#x201c;" horiz-adv-x="745" 
d="M527 791q-134 0 -134 141t65 263t150 187q37 27 65 -1q13 -13 13 -29t-22 -44t-35 -47t-27 -57t-14 -76q0 -39 37 -100t37 -100q-1 -137 -135 -137zM328 928q0 -137 -134 -137t-134 141t64 263q65 122 150 187q37 27 65 -1q13 -13 13 -29t-22 -44t-35 -47t-27 -57
t-14 -76q0 -39 37 -100t37 -100z" />
    <glyph glyph-name="quotedblright" unicode="&#x201d;" horiz-adv-x="745" 
d="M84 1257q0 138 134 138q134 1 134 -141t-64 -264t-151 -187q-15 -12 -33 -12t-31 13q-30 30 -1 62q31 38 45 58q39 54 41 133q0 41 -37 100t-37 100zM418 1257q0 138 134 138q134 1 134 -141t-64 -264t-151 -187q-15 -12 -33 -12t-31 13q-30 30 -1 62q31 38 45 58
q39 54 41 133q0 41 -37 100t-37 100z" />
    <glyph glyph-name="quotedblbase" unicode="&#x201e;" horiz-adv-x="782" 
d="M84 117q0 137 134 137t134 -141t-64 -263t-151 -188q-15 -12 -33 -12t-31 13q-28 28 1 65t43 56q39 53 41 132q0 41 -37 101t-37 100zM418 117q0 137 134 137t134 -141t-64 -263t-151 -188q-15 -12 -33 -12t-31 13q-28 28 1 65t43 56q39 53 41 132q0 41 -37 101t-37 100z
" />
    <glyph glyph-name="dagger" unicode="&#x2020;" horiz-adv-x="931" 
d="M464 -307q-79 0 -79 78l-12 1099h-172q-86 0 -86 94t86 93h170l-6 309q0 92 100 92t100 -92l-4 -309h168q86 0 86 -93t-86 -94h-168l-18 -1099q0 -78 -79 -78z" />
    <glyph glyph-name="daggerdbl" unicode="&#x2021;" horiz-adv-x="931" 
d="M729 178q86 0 86 -93t-86 -93h-168l4 -309q0 -93 -100 -93t-100 93l6 309h-170q-86 0 -86 93t86 93h172l12 346l-12 346h-172q-86 0 -86 94t86 93h170l-6 309q0 92 100 92t100 -92l-4 -309h168q86 0 86 -93t-86 -94h-168l-10 -346l10 -346h168z" />
    <glyph glyph-name="bullet" unicode="&#x2022;" horiz-adv-x="856" 
d="M428 305q-266 1 -266 273t266 272t266 -272t-266 -273z" />
    <glyph glyph-name="perthousand" unicode="&#x2030;" horiz-adv-x="2293" 
d="M1905 641q315 0 315 -334q0 -153 -76 -243t-240 -90t-240 90q-75 92 -75 243q1 334 316 334zM1774 307q0 -162 130 -162t130 162t-130 162t-130 -162zM1085 1395q53 0 81 -28q28 -27 28 -57t-10 -50l-643 -1227q-29 -49 -78 -49t-77 26t-28 59q0 32 11 52l643 1222
q21 52 73 52zM1176 641q315 0 315 -334q0 -153 -76 -243q-77 -90 -241 -90t-239 90q-75 92 -75 243q1 334 316 334zM1305 307q0 162 -130 162t-130 -162t130 -162t130 162zM389 1407q315 0 316 -334q0 -152 -76 -243t-241 -91t-240 91t-74 243q0 334 315 334zM258 1073
q0 -162 130 -162t130 162t-130 162t-130 -162z" />
    <glyph glyph-name="guilsinglleft" unicode="&#x2039;" horiz-adv-x="667" 
d="M94 434q0 29 23 55l315 363q27 31 61 31q33 0 57 -24q24 -23 24 -55t-21 -52l-289 -318l289 -317q20 -20 20 -52q1 -32 -23 -56q-24 -23 -58 -23t-60 30l-315 363q-23 26 -23 55z" />
    <glyph glyph-name="guilsinglright" unicode="&#x203a;" horiz-adv-x="667" 
d="M573 434q0 -29 -22 -55l-315 -363q-27 -30 -61 -30q-33 0 -57 24t-24 55q0 32 21 52l288 317l-288 318q-21 20 -21 52t24 56t58 23q34 0 60 -31l315 -363q22 -26 22 -55z" />
    <glyph glyph-name="fraction" unicode="&#x2044;" horiz-adv-x="665" 
d="M92 -16q-34 0 -60 26t-26 50q0 26 6 40l482 1239q24 55 70 55t77 -31q31 -32 12 -85l-481 -1239q-20 -55 -80 -55z" />
    <glyph glyph-name="zerosuperior" unicode="&#x2070;" horiz-adv-x="612" 
d="M305 770q-266 0 -266 318t266 319q270 0 268 -320q1 -165 -67 -241t-201 -76zM192 1088q0 -186 114 -185q114 0 114 185t-115 186q-113 0 -113 -186z" />
    <glyph glyph-name="foursuperior" unicode="&#x2074;" horiz-adv-x="573" 
d="M297 1118v137l-94 -137h94zM449 1413v-295h30q29 0 47 -18t18 -47t-18 -47t-47 -19h-30v-47q0 -32 -23 -54q-24 -22 -54 -22t-53 23t-22 53v47h-199q-29 1 -48 21t-19 45t14 43l264 358q29 35 62 35q33 -1 55 -23t23 -53z" />
    <glyph glyph-name="fivesuperior" unicode="&#x2075;" horiz-adv-x="557" 
d="M314 1286q72 0 139 -50t67 -156t-65 -166q-66 -58 -176 -58q-152 0 -211 100q-31 52 7 86q48 45 105 -14q39 -39 99 -39q96 0 96 88t-96 88q-45 0 -89 -15t-64 -15t-38 18q-18 17 -18 39t4 39l30 190q12 57 70 58h262q29 1 49 -19q21 -20 21 -49t-20 -45t-50 -16h-217
l-14 -76q37 12 109 12z" />
    <glyph glyph-name="sixsuperior" unicode="&#x2076;" horiz-adv-x="583" 
d="M288 987q93 0 93 88q0 35 -23 59q-22 24 -60 24t-66 -18q-28 -17 -37 -40q0 -113 93 -113zM327 1276q87 0 147 -56t60 -154t-67 -152q-69 -56 -183 -56t-175 83t-61 237t68 236q70 81 184 81t171 -45q27 -22 27 -52t-20 -48q-35 -32 -81 -8q-47 24 -92 24t-76 -35
t-30 -102q40 47 128 47z" />
    <glyph glyph-name="sevensuperior" unicode="&#x2077;" horiz-adv-x="536" 
d="M117 934q0 78 34 142t72 100q107 96 107 172h-221q-27 0 -47 18q-19 18 -19 47t19 47t47 19h315q27 -1 46 -19t19 -47q0 -142 -79 -233q-33 -37 -66 -70q-80 -80 -80 -176q0 -30 -22 -52t-52 -22q-31 0 -52 22t-21 52z" />
    <glyph glyph-name="eightsuperior" unicode="&#x2078;" horiz-adv-x="565" 
d="M283 1133q-90 0 -90 -71t90 -71t90 71t-90 71zM283 1374q-74 0 -74 -58t74 -58t73 57q1 59 -73 59zM283 858q-115 0 -180 50t-65 150t101 144q-80 37 -80 120q-1 83 63 128t160 45t160 -45t64 -128t-80 -120q100 -43 100 -143q0 -101 -64 -151t-179 -50z" />
    <glyph glyph-name="ninesuperior" unicode="&#x2079;" horiz-adv-x="583" 
d="M294 1366q-93 0 -93 -88q1 -34 23 -58t60 -24t66 17t37 40q0 113 -93 113zM254 1077q-88 1 -148 57t-59 153q0 97 68 153q69 56 183 55q114 0 175 -83q61 -84 61 -238t-68 -235q-69 -81 -184 -81t-171 45q-27 23 -27 51t19 48q34 34 81 10q47 -25 92 -25t76 35t31 102
q-41 -47 -129 -47z" />
    <glyph glyph-name="zeroinferior" unicode="&#x2080;" horiz-adv-x="612" 
d="M305 -180q-266 0 -266 318t266 319q270 0 268 -320q1 -165 -67 -241t-201 -76zM192 138q0 -186 114 -185q114 0 114 185t-115 186q-113 0 -113 -186z" />
    <glyph glyph-name="oneinferior" unicode="&#x2081;" horiz-adv-x="466" 
d="M295 -106q-31 0 -53 22t-23 53v346l-65 -41q-16 -8 -39 -8t-45 22t-21 56q0 34 35 55l170 107q20 12 46 12t48 -22t23 -54v-473q-1 -31 -23 -53t-53 -22z" />
    <glyph glyph-name="twoinferior" unicode="&#x2082;" horiz-adv-x="591" 
d="M219 27h252q29 1 47 -19t18 -47t-18 -46t-47 -19h-342q-31 0 -53 22t-21 51q0 87 50 147q51 60 111 86t111 57q50 32 50 67q0 61 -88 61q-47 0 -105 -53q-20 -18 -47 -18t-46 20t-19 46t24 56q24 31 78 57q55 26 115 25q109 0 175 -54t64 -131q0 -77 -48 -127t-106 -73
q-155 -61 -155 -108z" />
    <glyph glyph-name="threeinferior" unicode="&#x2083;" horiz-adv-x="565" 
d="M516 78q0 -82 -61 -138t-161 -56t-157 31q-57 32 -82 62q-16 23 -16 48t18 44t45 19t48 -20q55 -55 122 -56q96 0 97 80q0 80 -78 80h-45q-25 0 -42 17t-18 42q0 25 25 54l88 92h-172q-29 0 -47 18t-19 47q1 29 19 47t47 19h289q27 0 46 -18t19 -47q0 -28 -20 -50
l-105 -108q78 -1 119 -63t41 -144z" />
    <glyph glyph-name="fourinferior" unicode="&#x2084;" horiz-adv-x="573" 
d="M297 147v138l-94 -138h94zM449 442v-295h30q29 0 47 -18t18 -47t-18 -47t-47 -19h-30v-47q0 -31 -23 -53q-24 -22 -54 -22t-53 22t-22 53v47h-199q-29 0 -48 20t-19 46q0 25 14 43l264 358q29 35 62 35t55 -22t23 -54z" />
    <glyph glyph-name="fiveinferior" unicode="&#x2085;" horiz-adv-x="557" 
d="M314 311q72 0 139 -50q67 -51 67 -157t-66 -164t-175 -59q-152 0 -211 101q-30 51 7 86q19 18 46 18t63 -36t95 -36q96 0 96 88t-96 88q-45 0 -89 -15t-64 -15t-38 18t-18 40t4 38l30 190q12 57 70 58h262q29 0 49 -20q21 -20 21 -48q0 -29 -20 -45t-50 -16h-217l-14 -76
q37 12 109 12z" />
    <glyph glyph-name="sixinferior" unicode="&#x2086;" horiz-adv-x="583" 
d="M288 12q93 0 93 88q0 35 -23 59q-22 23 -60 23t-66 -17t-37 -40q0 -113 93 -113zM327 301q87 0 147 -56q60 -55 60 -153t-67 -153q-69 -55 -183 -55t-175 82q-61 84 -61 238t68 235q70 81 184 81t171 -45q27 -23 27 -53t-20 -47q-36 -33 -82 -8t-91 25t-76 -36
q-31 -35 -30 -102q40 47 128 47z" />
    <glyph glyph-name="seveninferior" unicode="&#x2087;" horiz-adv-x="536" 
d="M117 -37q0 79 34 143t72 99q107 96 107 172h-221q-27 0 -47 18q-19 18 -19 47t19 47t47 19h315q27 0 46 -18t19 -48q0 -142 -79 -233q-33 -37 -66 -70q-80 -80 -80 -176q0 -31 -22 -53t-52 -21q-31 -1 -52 21t-21 53z" />
    <glyph glyph-name="eightinferior" unicode="&#x2088;" horiz-adv-x="565" 
d="M283 158q-90 0 -90 -71t90 -71t90 71t-90 71zM283 399q-74 0 -74 -58t74 -58t73 57q1 59 -73 59zM283 -117q-115 0 -180 50q-65 51 -65 151t101 143q-80 37 -80 120q-1 83 63 128t160 45t160 -45t64 -128t-80 -120q100 -43 100 -143t-64 -150t-179 -51z" />
    <glyph glyph-name="nineinferior" unicode="&#x2089;" horiz-adv-x="583" 
d="M294 391q-93 0 -93 -88q1 -35 23 -59t60 -23q38 -1 66 17t37 41q0 112 -93 112zM254 102q-88 0 -148 56t-59 154q0 96 68 152q69 56 183 56t175 -83t61 -237t-68 -236q-69 -81 -184 -81t-171 45q-27 23 -27 52t19 48t41 19q22 1 54 -17t78 -18q45 0 76 35t31 103
q-41 -48 -129 -48z" />
    <glyph glyph-name="Euro" unicode="&#x20ac;" horiz-adv-x="1325" 
d="M342 457q72 -273 350 -273q134 0 206 30t144 105q45 45 89 45t77 -32q33 -33 33 -73t-20 -66q-76 -101 -211 -161t-297 -61q-526 0 -621 486h-35q-37 -1 -63 25t-25 63q0 37 26 63t62 25h15v90h-15q-37 0 -63 26q-26 27 -25 63q0 36 26 62t62 25h33q92 508 623 508
q340 0 491 -221q23 -35 23 -74t-33 -71q-33 -31 -80 -31t-82 41q-63 75 -137 109t-182 34q-303 0 -375 -295h252q36 0 62 -26q26 -27 26 -63t-26 -62t-62 -25h-273v-90h273q36 0 62 -26q26 -27 26 -63t-26 -62t-62 -25h-248z" />
    <glyph glyph-name="numero" unicode="&#x2116;" horiz-adv-x="2277" 
d="M2181 879q-1 -173 -85 -263t-239 -90t-241 89t-86 263t86 264q86 89 241 89t239 -89t85 -263zM1985 279q0 -121 -128 -121t-128 121q0 127 128 127t128 -127zM1739 879q0 -168 118 -168t117 168q0 168 -118 168t-117 -168zM1266 1395q49 0 84 -35t34 -84v-1174
q0 -49 -34 -84q-34 -34 -87 -34q-52 0 -89 43l-787 946v-871q0 -49 -35 -84q-35 -34 -84 -34t-84 34t-34 84v1174q0 49 34 84q35 35 86 35t86 -39l791 -950v870q0 49 35 84t84 35z" />
    <glyph glyph-name="trademark" unicode="&#x2122;" horiz-adv-x="858" 
d="M602 1034q-20 0 -33 21l-57 106v-164q0 -16 -12 -28q-29 -29 -58 0q-12 12 -12 28v303q0 16 12 28t32 13q20 0 34 -22l94 -168l94 168q14 23 34 23t32 -13q12 -12 12 -29v-303q0 -16 -12 -28q-12 -13 -28 -13t-29 12q-12 12 -13 29v164l-57 -106q-13 -21 -33 -21z
M88 1335h252q39 0 39 -39q0 -16 -11 -27t-28 -12h-82v-258q0 -16 -13 -29q-13 -14 -31 -14t-30 14t-12 29v258h-84q-16 -1 -28 11t-11 28q0 39 39 39z" />
    <glyph glyph-name="minus" unicode="&#x2212;" horiz-adv-x="929" 
d="M930 446q0 -38 -28 -66t-66 -28h-742q-38 0 -66 28t-28 66t28 67q28 28 66 28h742q38 0 66 -28t28 -67z" />
    <glyph glyph-name="radical" unicode="&#x221a;" horiz-adv-x="1146" 
d="M86 468q0 34 30 64t72 29q66 0 95 -61l213 -490l364 1374q6 29 33 52q27 22 67 22t71 -30q30 -30 30 -60t-4 -43l-443 -1601q-22 -74 -93 -74t-97 57l-330 711q-8 16 -8 50z" />
    <glyph glyph-name="notequal" unicode="&#x2260;" horiz-adv-x="929" 
d="M930 268q0 -38 -28 -66t-66 -28h-508l-78 -115q-12 -16 -30 -16t-32 12q-12 11 -12 27t8 27l45 65h-135q-38 0 -66 28t-28 66t28 67q28 28 66 27h264l113 166h-377q-38 0 -66 28t-28 67t28 67t66 27h506l80 117q12 16 30 16t37 -18q18 -18 -2 -48l-47 -67h138
q38 0 66 -28q28 -29 28 -67t-28 -66t-66 -28h-267l-112 -166h379q38 0 66 -28t28 -66z" />
    <glyph glyph-name="lessequal" unicode="&#x2264;" horiz-adv-x="743" 
d="M0 631q0 53 49 82l553 291q26 12 56 12t58 -28t28 -76t-50 -72l-413 -209l413 -209q49 -25 49 -73q1 -48 -27 -76q-47 -48 -114 -15l-553 291q-49 29 -49 82zM743 94q1 -38 -27 -66t-67 -28h-555q-38 0 -66 28t-28 66t28 67q28 28 66 27h555q39 0 67 -27q27 -28 27 -67z
" />
    <glyph glyph-name="greaterequal" unicode="&#x2265;" horiz-adv-x="743" 
d="M743 631q0 -53 -49 -82l-553 -291q-25 -12 -55 -12t-58 28t-28 75q0 48 49 73l414 209l-414 209q-49 25 -49 73q0 47 28 75t58 28t55 -12l553 -291q49 -29 49 -82zM0 94q0 39 28 67t66 27h555q39 0 67 -28t28 -66t-28 -66t-67 -28h-555q-38 0 -66 28t-28 66z" />
    <glyph glyph-name="commaaccent" unicode="&#xf6c3;" horiz-adv-x="299" 
d="M51 -188q-1 108 107 108t108 -112t-51 -210q-51 -97 -121 -151q-14 -10 -27 -10t-25 11q-11 10 -11 26t12 28q68 68 68 148q0 33 -30 82t-30 80z" />
    <glyph glyph-name="s_t" unicode="&#xfb06;" horiz-adv-x="1476" 
d="M432 766q-121 0 -121 -78q1 -40 53 -68t126 -50t147 -52q74 -30 126 -92q52 -63 52 -158q0 -139 -104 -215t-248 -76q-144 1 -242 45t-133 87t-35 79t29 66q29 29 66 29t67 -25q101 -84 239 -84t138 82q0 45 -51 74t-125 49t-149 50q-75 31 -126 95t-51 160q0 133 96 204
q96 70 228 70t229 -40q-127 118 -127 234t87 186t222 69q205 0 311 -95t105 -268v-114h92q39 0 66 -27t27 -65t-28 -66q-26 -27 -65 -27h-92v-495q0 -33 24 -53q23 -21 59 -21t64 -29t28 -67t-28 -68q-28 -29 -69 -28q-135 0 -215 78t-80 200v483h-47q-39 0 -66 27t-26 66
q1 40 27 66t65 26h47v112q0 180 -201 181q-77 0 -119 -40t-42 -105q0 -66 22 -112t80 -135q20 -31 20 -67t-30 -64q-58 -57 -143 4q-85 62 -179 62z" />
    <glyph glyph-name="zero.tab" horiz-adv-x="1259" 
d="M630 1407q275 0 405 -175t130 -543t-130 -543t-405 -175t-406 175q-130 175 -130 544t130 543q131 174 406 174zM631 178q157 0 229 121t72 390t-72 391t-230 122t-230 -123t-72 -391t72 -389t231 -121z" />
    <glyph glyph-name="one.tab" horiz-adv-x="1259" 
d="M264 903q-43 0 -76 34q-32 34 -32 88t49 85l395 260q39 25 79 25t75 -35t34 -82v-1178q0 -47 -34 -82q-34 -34 -82 -34q-47 0 -82 34t-35 82v975l-219 -149q-29 -23 -72 -23z" />
    <glyph glyph-name="two.tab" horiz-adv-x="1259" 
d="M629 1407q221 0 347 -115t126 -305q0 -102 -52 -195t-132 -159q-158 -130 -290 -208q-133 -77 -185 -126t-52 -90h629q43 0 74 -31q30 -31 30 -74q0 -44 -30 -74t-74 -30h-782q-43 0 -74 31t-31 73q0 124 76 226q75 102 183 173t216 137t185 155q75 88 75 185
q0 98 -63 160t-176 62q-164 0 -234 -147q-35 -66 -92 -66t-89 32q-53 53 -21 126q51 119 163 189t273 71z" />
    <glyph glyph-name="three.tab" horiz-adv-x="1259" 
d="M313 1169q-43 0 -73 31t-31 74q0 43 31 74t73 30h656q43 0 73 -30t31 -73q0 -42 -26 -71l-299 -338q200 -24 288 -146t88 -320t-128 -312q-128 -115 -375 -115q-152 -1 -276 63t-193 165q-18 29 -18 67t31 71q32 32 80 32t95 -54q120 -139 268 -139q282 0 283 238
q0 246 -244 246h-127q-47 0 -79 30q-31 30 -31 73q0 42 26 75l289 329h-412z" />
    <glyph glyph-name="four.tab" horiz-adv-x="1259" 
d="M737 504v471l-323 -471h323zM971 504h71q43 0 74 -31t31 -74t-31 -73t-74 -31h-71v-195q0 -47 -35 -82q-35 -34 -82 -34t-82 34t-35 82v195h-520q-43 0 -74 31q-31 32 -31 68t19 63l625 882q39 53 92 53t88 -34q35 -35 35 -82v-772z" />
    <glyph glyph-name="five.tab" horiz-adv-x="1259" 
d="M631 948q235 0 371 -122t136 -366t-136 -367q-136 -122 -371 -122q-176 0 -306 82t-192 195q-14 26 -14 62t32 68q33 32 83 32t90 -58q61 -92 131 -134q69 -42 185 -42t190 73t75 212q0 139 -75 211q-74 72 -210 72t-249 -82q-59 -41 -101 -41q-42 -1 -76 31
q-32 32 -32 77q0 14 4 35l102 530q6 33 34 59t69 25h614q43 0 74 -30t31 -74q0 -43 -31 -74t-74 -31h-534l-54 -268q99 47 234 47z" />
    <glyph glyph-name="six.tab" horiz-adv-x="1259" 
d="M629 178q285 0 284 273q1 127 -75 193t-195 67q-195 0 -293 -172q0 -169 73 -265t206 -96zM672 918q208 0 342 -122t133 -354q0 -232 -140 -352q-140 -119 -390 -119q-250 -1 -378 185t-128 503q0 748 548 748q121 0 214 -34t135 -76t43 -85q0 -42 -32 -74t-69 -32
t-71 22q-109 74 -220 74q-153 0 -233 -105t-80 -302q118 123 326 123z" />
    <glyph glyph-name="seven.tab" horiz-adv-x="1259" 
d="M317 94q0 156 58 304q57 148 139 259t164 205t139 174t57 133h-620q-43 0 -74 31t-30 74q0 43 30 74q31 31 74 30h750q44 0 74 -30t30 -74q0 -213 -198 -439q-83 -97 -166 -201t-140 -242q-57 -140 -57 -298q0 -47 -34 -79q-34 -31 -81 -31t-81 32t-34 78z" />
    <glyph glyph-name="eight.tab" horiz-adv-x="1259" 
d="M629 645q-133 0 -208 -59t-75 -174t77 -174q77 -60 206 -60t206 60t76 174q0 115 -74 174q-75 59 -208 59zM629 1202q-105 0 -163 -45t-58 -131t58 -131t162 -45t164 45q58 45 58 131t-58 131q-59 45 -163 45zM629 -29q-250 0 -383 112t-133 336t231 335q-72 38 -119 110
t-47 164q0 182 118 280t333 99q215 0 333 -98t117 -281q0 -92 -47 -164t-119 -110q231 -111 231 -335t-132 -336q-133 -112 -383 -112z" />
    <glyph glyph-name="nine.tab" horiz-adv-x="1259" 
d="M629 1200q-285 0 -285 -272q0 -127 76 -194t194 -66q195 0 293 172q0 170 -72 265q-73 95 -206 95zM585 461q-208 0 -341 122q-133 123 -133 355t140 350t390 119q250 0 378 -185t128 -503q0 -748 -549 -748q-121 0 -214 34t-135 76t-42 85t32 75q60 60 140 9
q109 -74 219 -74q154 0 234 106t79 302q-118 -123 -326 -123z" />
    <glyph glyph-name="ornament.A" horiz-adv-x="1499" 
d="M913 1132q0 54 -48 111t-137 57t-136 -86q147 -117 309 -170q12 34 12 88zM182 1216q0 -36 24 -58q55 -51 126 20q16 12 37 12t35 -15t16 -38q0 -45 -54 -76t-121 -31t-122 55t-55 133t55 133q55 56 133 56q111 0 250 -119q84 119 217 119t219 -86t86 -205q0 -45 -14 -88
q46 -8 114 -8t128 36t60 101t-37 105q-38 40 -95 38q-24 0 -50 -12t-44 -12t-34 15t-16 41t23 42q43 33 134 33t163 -68q72 -67 72 -179t-90 -180t-226 -67q-76 0 -139 13q-43 -66 -115 -97q121 -1 201 -65t80 -162t-43 -154t-125 -80q-82 -23 -260 -49q-63 -8 -107 -41
q-43 -34 -43 -86t28 -76q28 -26 69 -26t61 22q21 22 25 46t24 46t57 21q91 0 91 -89t-81 -121q-81 -31 -187 -31t-210 61q-175 103 -254 355q-31 103 -30 200q0 162 88 281t252 118q131 0 213 -90q-111 -72 -174 -131q-146 -137 -146 -360q0 -55 4 -85q3 -30 23 -30t20 35
l-2 80q0 143 72 240t188 169t160 127q-121 31 -311 166q-25 18 -84 70q-125 111 -197 110q-38 0 -60 -24t-22 -60z" />
    <glyph glyph-name="zero.onum" horiz-adv-x="1245" 
d="M623 -27q-244 0 -389 157q-144 157 -144 422t144 422q144 156 388 156t389 -156q144 -156 144 -422q0 -265 -144 -422t-388 -157zM623 166q147 0 227 99t80 287t-80 288q-80 98 -227 98t-227 -98t-81 -286q0 -188 80 -289q81 -99 228 -99z" />
    <glyph glyph-name="one.onum" horiz-adv-x="774" 
d="M183 707q-39 -1 -71 29t-32 80t45 79l309 203q33 20 72 20t72 -32t32 -74v-918q0 -45 -32 -78q-32 -32 -78 -32q-45 0 -78 32t-33 78v729l-139 -96q-27 -20 -67 -20z" />
    <glyph glyph-name="two.onum" horiz-adv-x="1079" 
d="M963 795q0 -99 -69 -183t-167 -140q-99 -56 -197 -104t-166 -92t-69 -83h584q47 0 77 -24t29 -67q0 -42 -31 -72t-75 -30h-701q-45 0 -76 30t-30 72q0 123 69 217q70 93 168 149q99 56 197 102t168 102t70 122t-57 105q-56 39 -137 39q-131 0 -194 -69q-22 -27 -54 -73
t-81 -46t-81 32q-50 50 -23 111q45 102 150 170t261 67q199 0 317 -96t118 -239z" />
    <glyph glyph-name="three.onum" horiz-adv-x="1132" 
d="M246 893q-43 0 -74 31q-31 32 -31 74t31 73t74 31h655q43 0 74 -31t31 -73t-27 -70l-299 -338q201 -23 289 -146q88 -122 88 -320t-128 -312t-376 -115q-151 0 -275 63t-194 164q-18 27 -18 67q0 39 32 71t79 32q48 0 95 -53q120 -139 268 -139q285 0 283 237
q0 246 -243 246h-127q-47 0 -79 31t-32 73t27 74l288 330h-411z" />
    <glyph glyph-name="four.onum" horiz-adv-x="1132" 
d="M688 229v471l-323 -471h323zM922 229h71q43 -1 74 -31t31 -73t-31 -74t-74 -31h-71v-196q0 -47 -35 -82t-82 -35t-82 35t-35 82v196h-520q-43 0 -74 31t-31 68t19 63l625 883q39 53 92 53t88 -35t35 -82v-772z" />
    <glyph glyph-name="five.onum" horiz-adv-x="1185" 
d="M569 672q236 0 372 -122t136 -367t-136 -367t-372 -121q-176 0 -306 82t-191 194q-39 76 17 130q32 32 83 32t90 -57q61 -92 131 -134q69 -42 185 -42t191 72t75 212q0 139 -75 211t-211 72t-249 -82q-59 -41 -101 -41t-75 32t-33 77q0 14 4 34l103 531q6 32 34 58t68 26
h615q44 0 74 -31t30 -74t-31 -73t-73 -31h-535l-53 -268q98 47 233 47z" />
    <glyph glyph-name="six.onum" horiz-adv-x="1204" 
d="M602 178q285 0 285 271q0 127 -76 193t-195 65q-195 0 -292 -172q0 -170 72 -264q73 -93 206 -93zM646 913q208 1 341 -121t133 -354t-140 -349q-140 -118 -390 -118q-250 -1 -378 183t-128 501q0 739 549 740q121 0 214 -34t135 -76t42 -85t-32 -75q-61 -61 -140 -9
q-109 74 -219 74q-154 0 -234 -102t-80 -297q119 122 327 122z" />
    <glyph glyph-name="seven.onum" horiz-adv-x="1028" 
d="M205 -182q0 156 57 304t139 259t164 205t140 174q57 80 57 133h-621q-43 0 -73 31q-30 32 -31 74q0 42 31 73t73 31h750q43 0 74 -31t30 -74q0 -209 -197 -439q-83 -96 -166 -200t-140 -243t-58 -297q0 -47 -34 -79t-81 -32t-81 32t-33 79z" />
    <glyph glyph-name="eight.onum" horiz-adv-x="1169" 
d="M588 639q-135 0 -209 -59t-74 -172t76 -171q76 -59 207 -59t207 58t75 172q0 113 -73 172q-74 59 -209 59zM588 1188q-106 0 -164 -44t-57 -128q0 -172 221 -172t221 172q0 84 -57 128q-58 44 -164 44zM588 -29q-250 0 -383 111t-133 333t231 333q-72 38 -119 108
t-47 160q0 182 118 279t333 97t333 -96q118 -98 117 -280q0 -90 -47 -160t-119 -108q232 -111 232 -333t-133 -333t-383 -111z" />
    <glyph glyph-name="nine.onum" horiz-adv-x="1204" 
d="M602 924q-285 0 -285 -271q0 -127 76 -193t195 -65q195 0 293 172q0 169 -73 263t-206 94zM558 188q-208 0 -341 122t-133 354t140 349t390 117t378 -183t128 -501q0 -739 -549 -739q-121 0 -214 34t-135 76t-42 85q0 42 32 74t70 32t70 -22q109 -74 219 -74
q154 0 234 102t80 297q-119 -123 -327 -123z" />
    <glyph glyph-name="hyphen.case" horiz-adv-x="774" 
d="M686 680q0 -39 -28 -67t-66 -27h-410q-38 0 -66 28t-28 66t28 66t66 28h410q38 0 66 -28t28 -66z" />
    <glyph glyph-name="parenleft.case" horiz-adv-x="645" 
d="M82 690q0 406 80 610t276 285q26 10 56 10q30 1 60 -29t30 -71q0 -67 -60 -93q-110 -48 -166 -181q-40 -96 -49 -321q-2 -77 -2 -210q0 -402 54 -533t163 -180q59 -27 60 -92q0 -41 -30 -71t-60 -29q-30 0 -56 10q-196 81 -276 285t-80 610z" />
    <glyph glyph-name="parenright.case" horiz-adv-x="645" 
d="M563 690q0 -406 -80 -610t-276 -285q-25 -10 -55 -10t-61 30q-30 30 -30 70q1 67 61 93q168 73 200 331q16 125 16 320q0 194 -2 271q-6 215 -55 335q-50 119 -160 168q-59 27 -60 92q0 41 30 71q47 47 116 19q197 -81 277 -285t79 -610z" />
    <glyph glyph-name="bracketleft.case" horiz-adv-x="579" 
d="M524 -119q0 -41 -28 -69t-68 -27h-192q-49 0 -81 30t-32 76v1598q0 45 32 76t81 30h192q39 1 68 -27q28 -28 28 -69t-28 -69t-68 -27h-84v-1426h84q39 0 68 -27q28 -28 28 -69z" />
    <glyph glyph-name="bracketright.case" horiz-adv-x="579" 
d="M55 -119q0 41 28 69t69 27h84v1426h-84q-41 0 -69 28q-28 29 -28 69t28 68t69 27h192q49 -1 81 -31t32 -75v-1598q0 -47 -32 -77t-81 -29h-192q-41 -1 -69 27t-28 69z" />
    <glyph glyph-name="braceleft.case" horiz-adv-x="733" 
d="M567 -14q41 0 71 -30t30 -71t-30 -71t-71 -29q-159 0 -239 83t-80 179q0 97 16 231t16 204t-31 97q-33 25 -85 25t-78 26t-25 60q0 35 26 61q26 25 78 25t84 26t32 96t-17 205q-16 135 -16 231t81 178t238 83q41 1 71 -29t30 -71t-30 -71t-71 -29q-96 0 -96 -97l18 -335
q0 -113 -32 -177q-33 -63 -113 -96q80 -33 113 -96t32 -176l-18 -336q0 -96 96 -96z" />
    <glyph glyph-name="braceright.case" horiz-adv-x="733" 
d="M485 1333q0 -96 -16 -230t-16 -205q-1 -70 31 -96t84 -26t78 -26t26 -60t-26 -60t-78 -26t-84 -26t-32 -96t17 -204q16 -134 16 -231t-81 -179t-238 -83q-41 0 -71 30q-29 31 -29 71t29 70q30 30 71 30q96 0 96 96l-18 336q0 113 32 176q33 63 113 96q-80 33 -113 96
t-32 177l18 335q0 96 -96 97q-41 -1 -71 29t-29 71q0 41 29 71q30 30 71 29q158 0 238 -83t81 -179z" />
    <glyph glyph-name="guillemotleft.case" horiz-adv-x="1067" 
d="M494 690q0 29 22 55l315 363q29 31 62 31t57 -24q24 -23 23 -55q0 -32 -21 -52l-288 -318l288 -317q20 -20 20 -52t-23 -56q-25 -23 -57 -23t-61 30l-315 363q-22 26 -22 55zM94 690q0 29 23 55l315 363q27 31 61 31q33 0 57 -24q24 -23 24 -55t-21 -52l-289 -318
l289 -317q20 -20 20 -52q1 -32 -23 -56q-24 -23 -58 -23t-60 30l-315 363q-23 26 -23 55z" />
    <glyph glyph-name="guillemotright.case" horiz-adv-x="1067" 
d="M573 690q0 -29 -22 -55l-315 -363q-27 -30 -61 -30q-33 0 -57 24t-24 55q0 32 21 52l288 317l-288 318q-21 20 -21 52t24 56t58 23q34 0 60 -31l315 -363q22 -26 22 -55zM973 690q0 -29 -23 -55l-315 -363q-29 -30 -62 -30t-57 24t-22 55q0 32 20 52l289 317l-289 318
q-20 20 -20 52t24 56t56 23q32 0 61 -31l315 -363q23 -26 23 -55z" />
    <glyph glyph-name="guilsinglleft.case" horiz-adv-x="667" 
d="M94 690q0 29 23 55l315 363q27 31 61 31q33 0 57 -24q24 -23 24 -55t-21 -52l-289 -318l289 -317q20 -20 20 -52q1 -32 -23 -56q-24 -23 -58 -23t-60 30l-315 363q-23 26 -23 55z" />
    <glyph glyph-name="guilsinglright.case" horiz-adv-x="667" 
d="M573 690q0 -29 -22 -55l-315 -363q-27 -30 -61 -30q-33 0 -57 24t-24 55q0 32 21 52l288 317l-288 318q-21 20 -21 52t24 56t58 23q34 0 60 -31l315 -363q22 -26 22 -55z" />
    <glyph glyph-name="endash.case" horiz-adv-x="1163" 
d="M993 680q1 -39 -27 -67t-67 -27h-633q-38 0 -66 28t-28 66t28 66t66 28h633q39 0 67 -28t27 -66z" />
    <glyph glyph-name="emdash.case" horiz-adv-x="1800" 
d="M1628 680q0 -39 -28 -67t-66 -27h-1268q-38 0 -66 28t-28 66t28 66t66 28h1268q38 0 66 -28t28 -66z" />
    <glyph glyph-name="periodcentered.case" horiz-adv-x="460" 
d="M230 537q-134 0 -134 135t134 135t134 -135t-134 -135z" />
    <glyph glyph-name="questiondown.case" horiz-adv-x="927" 
d="M377 1260q0 136 134 135q134 0 134 -135t-135 -136q-133 0 -133 136zM464 172q94 0 145 44q52 44 53 128q0 45 33 79q34 34 79 34t79 -34t34 -79q0 -176 -111 -274q-110 -98 -310 -98t-312 92q-112 94 -113 266q0 114 61 196q60 82 134 120t135 80t61 81q0 20 -20 49
q-18 29 -18 70q0 42 34 72q35 30 79 30t77 -33q76 -74 76 -167q0 -94 -63 -162q-62 -68 -136 -106t-136 -98q-63 -60 -63 -134t54 -115t148 -41z" />
    <glyph glyph-name="exclamdown.case" horiz-adv-x="434" 
d="M84 1260q0 136 134 135q134 0 134 -135t-133 -136q-135 0 -135 136zM218 -16q-132 0 -126 114l37 815q4 78 88 78t88 -78l39 -815q6 -114 -126 -114z" />
    <glyph glyph-name="bullet.case" horiz-adv-x="856" 
d="M428 424q-266 0 -266 272t266 273q266 -1 266 -273t-266 -272z" />
    <glyph glyph-name="dollar.onum" horiz-adv-x="1005" 
d="M330 881q0 -53 46 -91t114 -58q163 -49 297 -122q69 -36 115 -110t46 -174q0 -146 -88 -236t-252 -110v-117q0 -39 -28 -68t-67 -29q-40 0 -68 30q-28 28 -27 67v114q-111 13 -204 71t-142 134q-18 27 -18 66q0 40 30 70q31 30 79 30t83 -45q92 -119 262 -119
q215 0 215 142q1 66 -63 108t-155 70q-91 30 -182 66t-155 115t-64 206t88 206t226 99v82q0 39 27 68q28 28 68 28t68 -28t27 -68v-84q82 -8 169 -58t136 -124q19 -25 19 -64q0 -40 -31 -70t-78 -30t-80 39q-92 115 -231 114q-182 0 -182 -120z" />
    <glyph glyph-name="cent.onum" horiz-adv-x="1019" 
d="M45 541q1 246 107 382t294 162v125q0 39 28 68t68 29t68 -29t27 -68v-120q178 -25 289 -152q22 -31 22 -70q0 -40 -30 -70t-75 -30q-44 0 -77 35q-82 86 -217 86q-279 -1 -279 -357t279 -356q125 0 221 82q35 33 77 33t73 -31q30 -31 30 -71q0 -41 -21 -67t-52 -52
t-99 -56q-68 -31 -141 -39v-112q0 -39 -28 -68q-27 -29 -67 -29t-68 30q-28 28 -28 67v114q-180 25 -290 171t-111 393z" />
    <glyph glyph-name="sterling.onum" horiz-adv-x="1083" 
d="M625 463h-164q10 -41 10 -72q0 -129 -92 -201q59 31 119 31t130 -20q70 -21 114 -21t90 48t91 48q47 0 77 -30t30 -67q0 -36 -12 -60q-76 -147 -270 -148q-55 0 -165 36t-169 36q-59 1 -116 -31q-58 -32 -96 -32t-67 30t-29 76q0 45 52 82q109 80 108 188q0 53 -16 107
h-109q-39 1 -65 27t-27 65q0 39 27 66t65 26h23q-49 106 -49 197q0 143 111 250q112 106 313 106q157 0 265 -68t146 -174q29 -73 -19 -119q-29 -30 -85 -30t-84 59q-66 139 -223 140q-97 0 -149 -45t-52 -127t51 -189h236q39 -1 65 -27t27 -65q-1 -39 -27 -65t-65 -27z" />
    <glyph glyph-name="yen.onum" horiz-adv-x="1134" 
d="M846 256h-160v-154q0 -49 -35 -84q-35 -34 -84 -34t-84 34t-34 84v154h-162q-33 0 -57 24t-24 58t24 58t57 24h162v80h-160q-33 0 -57 24t-24 57q0 35 24 59t57 24h30l-262 337q-18 25 -18 69t35 79t89 35t95 -56l309 -403l310 403q41 56 95 56t89 -35t35 -79t-19 -69
l-264 -337h35q32 0 56 -24t24 -58t-23 -59q-23 -24 -57 -23h-162v-80h160q32 0 56 -24t24 -58t-22 -58t-58 -24z" />
    <glyph glyph-name="florin.onum" horiz-adv-x="978" 
d="M207 815h108l39 221q31 164 123 260q91 96 229 96t209 -53q41 -29 41 -73t-28 -71q-28 -28 -56 -28q-28 1 -66 17t-89 16q-113 0 -144 -166l-38 -219h135q40 0 66 -27q26 -28 26 -66t-27 -65t-65 -26h-166l-119 -635q-76 -408 -436 -408q-86 0 -155 26t-68 91q0 41 27 70
t53 29t65 -11q39 -10 78 -10q94 0 146 52t73 163l113 633h-74q-39 1 -66 27t-26 65t27 65t65 27z" />
    <glyph glyph-name="Euro.onum" horiz-adv-x="1200" 
d="M672 381h-283q70 -215 313 -215q145 0 248 102q39 39 79 39q40 1 70 -29q29 -30 29 -68t-22 -65q-164 -172 -398 -172t-368 112q-133 112 -180 296h-47q-33 -1 -57 23t-24 58t24 58t57 25h24v69h-24q-33 0 -57 24t-24 58t24 58q24 25 57 24h45q45 188 179 304t365 116
q136 0 242 -54q181 -92 178 -179q0 -41 -30 -70t-70 -29q-41 0 -76 35q-104 104 -244 105q-250 0 -317 -228h287q32 0 56 -24t24 -58t-23 -58t-57 -24h-312v-69h312q32 0 56 -24q24 -25 24 -59t-22 -58t-58 -23z" />
    <glyph glyph-name="ampersand.salt1" horiz-adv-x="1157" 
d="M883 457q0 92 -82 155q-47 35 -47 83t28 76q29 28 64 28t61 -17q92 -53 137 -143t46 -178q0 -193 -134 -324q28 -124 -4 -247q-38 -156 -155 -222q-68 -37 -163 -37t-165 41q-53 33 -53 84t31 82q33 31 65 31t68 -14q36 -15 70 -15t69 36t35 93q0 14 -4 39
q-111 -37 -211 -37q-203 -1 -337 105t-134 307t219 346q-88 151 -88 311t89 264q88 104 242 103q154 0 234 -93t80 -227q-1 -202 -277 -413q29 -41 139 -140t152 -169q25 39 25 92zM420 1053q0 -102 43 -205q160 113 160 239q0 51 -24 85t-71 34q-108 1 -108 -153zM539 172
q109 0 178 37q-23 74 -160 197t-170 163q-98 -74 -98 -184t70 -162q71 -51 180 -51z" />
    <glyph glyph-name="ornament.B" horiz-adv-x="1499" 
d="M516 1298q59 -86 130 -130t183 -81q-47 79 -131 139t-182 72zM1210 1395q80 1 136 -55t55 -134q0 -125 -119 -188t-260 -64l-39 2q4 -39 4 -92q0 -221 -139 -405t-299 -252q-12 -7 -12 -25t22 -18q6 0 19 4q156 66 274 199t174 309q88 0 148 -62t61 -174
q0 -190 -165 -323q-166 -133 -416 -133t-403 114t-153 318q0 145 121 145q88 0 88 -92q0 -39 -37 -75t-37 -68t31 -61t72 -29t73 32q31 32 31 74q0 41 -37 155t-36 183q0 102 65 164q66 61 162 61q174 0 264 -160q16 45 16 140l-4 84q-139 27 -279 115t-190 208
q-63 -4 -105 -41t-42 -88t30 -77t66 -26q67 1 70 -56q0 -23 -16 -40t-42 -18q-90 0 -156 58t-67 164q0 108 92 174t236 65q144 0 289 -95t207 -247q29 -4 59 -4q116 0 190 44t74 101q0 30 -22 52t-53 22t-53 -22t-22 -48t-16 -43q-16 -16 -39 -16t-39 16t-16 39q0 78 52 134
t132 55z" />
    <glyph glyph-name="slash.case" horiz-adv-x="864" 
d="M700 1559q45 0 78 -32q33 -31 33 -65t-8 -57l-535 -1514q-27 -72 -104 -71q-45 0 -78 33t-33 65t8 55l535 1514q27 72 104 72z" />
    <glyph glyph-name="backslash.case" horiz-adv-x="864" 
d="M811 -82q0 -32 -33 -66q-33 -32 -78 -32q-78 0 -104 71l-535 1514q-8 23 -8 57t33 65q33 32 78 32q77 0 104 -72l535 -1514q8 -23 8 -55z" />
    <glyph glyph-name="bar.case" horiz-adv-x="450" 
d="M338 1569v-1757q0 -45 -34 -79t-79 -34t-79 34t-33 79v1757q0 45 33 79q34 34 79 34t79 -34t34 -79z" />
    <glyph glyph-name="zero.numerator" horiz-adv-x="612" 
d="M305 770q-266 0 -266 318t266 319q270 0 268 -320q1 -165 -67 -241t-201 -76zM192 1088q0 -186 114 -185q114 0 114 185t-115 186q-113 0 -113 -186z" />
    <glyph glyph-name="one.numerator" horiz-adv-x="466" 
d="M295 776q-31 0 -53 23t-23 53v346l-65 -41q-16 -8 -39 -8q-23 -1 -45 21t-21 56q0 34 35 56l170 107q20 12 46 12t48 -23t23 -53v-473q-1 -32 -23 -54t-53 -22z" />
    <glyph glyph-name="two.numerator" horiz-adv-x="591" 
d="M289 1407q109 0 175 -54q66 -53 64 -131q0 -78 -48 -128t-106 -72q-155 -61 -155 -109h252q29 0 47 -18t18 -47t-18 -47t-47 -19h-342q-31 0 -53 22t-21 52q0 86 50 146q51 60 111 86t111 58q50 32 50 66q0 61 -88 62q-47 0 -105 -53q-53 -41 -93 1q-19 20 -19 46t24 57
t78 57q55 26 115 25z" />
    <glyph glyph-name="three.numerator" horiz-adv-x="565" 
d="M516 965q0 -83 -61 -139t-161 -56t-157 32q-98 55 -98 107q0 27 18 46t45 19t48 -20q55 -55 122 -55q96 0 97 80q0 80 -78 80h-45q-25 0 -42 17t-18 42q0 25 25 53l88 93h-172q-29 0 -47 19t-19 46q1 27 19 46t47 20h289q27 1 46 -19t19 -47t-20 -49l-105 -109
q78 0 119 -62t41 -144z" />
    <glyph glyph-name="four.numerator" horiz-adv-x="573" 
d="M297 1030v137l-94 -137h94zM449 1325v-295h30q29 0 47 -19t18 -46t-18 -46t-47 -20h-30v-47q0 -32 -23 -54q-24 -22 -54 -22t-53 23t-22 53v47h-199q-29 -1 -48 19t-19 46t14 44l264 358q29 35 62 35q33 -1 55 -23t23 -53z" />
    <glyph glyph-name="five.numerator" horiz-adv-x="557" 
d="M314 1200q72 0 139 -50t67 -156t-65 -166q-66 -58 -176 -58q-152 0 -211 100q-31 52 7 86q48 45 105 -14q39 -39 99 -39q96 0 96 88t-96 88q-45 0 -89 -15t-64 -15t-38 18q-18 17 -18 39t4 39l30 190q12 57 70 58h262q29 1 49 -19q21 -20 21 -49t-20 -45t-50 -16h-217
l-14 -76q37 12 109 12z" />
    <glyph glyph-name="six.numerator" horiz-adv-x="583" 
d="M288 899q93 0 93 88q0 35 -23 59q-22 24 -60 24t-66 -18q-28 -17 -37 -40q0 -113 93 -113zM327 1188q87 0 147 -56t60 -154t-67 -152q-69 -56 -183 -56t-175 83t-61 237t68 236q70 81 184 81t171 -45q27 -24 27 -52t-20 -47q-34 -33 -81 -9t-92 24t-76 -35t-30 -102
q40 47 128 47z" />
    <glyph glyph-name="seven.numerator" horiz-adv-x="536" 
d="M117 850q0 78 34 142t72 100q107 96 107 172h-221q-27 0 -47 19q-19 19 -19 46t19 46t47 20h315q27 1 46 -19t19 -47q0 -142 -79 -233q-33 -37 -66 -70q-80 -80 -80 -176q0 -30 -22 -52t-52 -22q-31 0 -52 22t-21 52z" />
    <glyph glyph-name="eight.numerator" horiz-adv-x="565" 
d="M283 1044q-90 0 -90 -70t90 -71q90 1 90 71t-90 70zM283 1286q-74 0 -74 -58t74 -58t73 57q1 59 -73 59zM283 770q-115 0 -180 50t-65 150t101 144q-80 37 -80 120q-1 83 63 128t160 45t160 -45t64 -128t-80 -120q100 -43 100 -143q0 -101 -64 -151t-179 -50z" />
    <glyph glyph-name="nine.numerator" horiz-adv-x="583" 
d="M297 1278q-94 0 -94 -88q1 -34 23 -58t60 -24t64 17t35 40q0 113 -88 113zM256 989q-88 1 -147 57t-59 153t67 153q69 56 183 55q114 0 175 -83q61 -84 61 -238t-68 -235q-70 -81 -184 -81t-171 45q-27 23 -27 53t18 47q34 34 82 9t92 -25t76 35q31 35 31 102
q-41 -47 -129 -47z" />
    <glyph glyph-name="zero.denominator" horiz-adv-x="612" 
d="M305 -27q-266 1 -266 319t268 318t266 -319q1 -166 -67 -242t-201 -76zM306 106q114 0 114 186t-114 185q-114 1 -114 -185t114 -186z" />
    <glyph glyph-name="one.denominator" horiz-adv-x="466" 
d="M295 -16q-31 0 -53 22t-23 53v347l-65 -41q-48 -24 -83 13q-22 22 -22 56t35 55l170 107q20 12 46 12t48 -22t23 -54v-473q-1 -31 -23 -53t-53 -22z" />
    <glyph glyph-name="two.denominator" horiz-adv-x="591" 
d="M289 625q109 -1 175 -55t64 -131q0 -77 -48 -127t-106 -72q-155 -60 -155 -109h252q29 0 47 -18t18 -47q0 -30 -18 -48t-47 -18h-342q-31 0 -53 22t-21 52q0 86 50 146q51 60 111 86q162 69 161 124q0 61 -88 62q-47 0 -105 -54q-20 -18 -47 -18t-46 19t-19 46
q0 68 102 114q55 26 115 26z" />
    <glyph glyph-name="three.denominator" horiz-adv-x="565" 
d="M516 168q0 -82 -61 -138t-161 -56t-157 31q-98 55 -98 108q0 27 18 46t45 19t48 -20q55 -55 122 -56q96 0 97 80q0 80 -78 80h-45q-25 0 -42 18q-18 18 -18 43q0 26 25 52l88 92h-172q-29 0 -47 18t-19 47q1 30 19 48t47 18h289q27 0 46 -18t19 -46t-20 -51l-105 -108
q78 -1 119 -63t41 -144z" />
    <glyph glyph-name="four.denominator" horiz-adv-x="573" 
d="M297 238v137l-94 -137h94zM449 532v-294h30q29 0 47 -18t18 -48q0 -29 -18 -47t-47 -19h-30v-47q0 -31 -23 -53q-24 -22 -54 -22t-53 22t-22 53v47h-199q-29 0 -48 20t-19 46q0 25 14 43l264 358q29 35 62 35t55 -22t23 -54z" />
    <glyph glyph-name="five.denominator" horiz-adv-x="557" 
d="M314 401q72 0 139 -50t67 -156t-65 -165q-66 -58 -176 -59q-152 0 -211 101q-31 52 7 86q19 18 46 18t63 -36t95 -36q96 0 96 88t-96 89q-45 1 -89 -15t-64 -16t-38 18t-18 40t4 38l30 191q12 57 70 57h262q29 0 49 -20q21 -20 21 -48q0 -29 -20 -45t-50 -16h-217
l-14 -76q37 12 109 12z" />
    <glyph glyph-name="six.denominator" horiz-adv-x="583" 
d="M288 100q93 0 93 88q0 35 -23 59q-22 23 -60 23t-66 -17t-37 -40q0 -113 93 -113zM327 389q87 0 147 -56q60 -55 60 -153t-67 -153q-69 -55 -183 -55t-175 82q-61 83 -61 238q0 156 68 236q70 80 184 80t171 -45q27 -23 27 -51t-20 -48q-35 -34 -81 -9q-47 25 -92 25
t-76 -36q-31 -35 -30 -102q40 47 128 47z" />
    <glyph glyph-name="seven.denominator" horiz-adv-x="497" 
d="M117 53q0 78 34 143q35 66 73 100q106 95 106 171h-221q-27 0 -47 18q-19 18 -19 47q0 30 19 48t47 18h315q27 0 46 -18t19 -48q0 -142 -79 -233q-33 -37 -66 -70q-80 -80 -80 -176q0 -31 -22 -53t-52 -20q-31 0 -52 21t-21 52z" />
    <glyph glyph-name="eight.denominator" horiz-adv-x="565" 
d="M283 246q-90 0 -90 -71t90 -71t90 71t-90 71zM283 487q-74 0 -74 -58t74 -58t73 57q1 59 -73 59zM283 -29q-115 1 -180 51t-65 150t101 143q-80 37 -80 120q-1 83 63 128t160 45t160 -45t64 -128t-80 -120q100 -43 100 -143t-64 -150t-179 -51z" />
    <glyph glyph-name="nine.denominator" horiz-adv-x="583" 
d="M294 479q-93 0 -93 -88q1 -35 23 -59t60 -23q38 -1 66 17t37 41q0 112 -93 112zM254 190q-88 0 -148 56t-59 154q0 96 68 152q69 56 183 56t175 -83t61 -237t-68 -236q-69 -81 -184 -81t-171 45q-27 23 -27 53t19 48t41 18q22 1 54 -17t78 -18q45 0 76 35t31 103
q-41 -48 -129 -48z" />
    <glyph glyph-name="a.salt" horiz-adv-x="1036" 
d="M508 162q225 0 225 304t-225 304t-225 -304t225 -304zM944 836v-742q0 -45 -32 -78q-32 -32 -78 -32t-79 32q-32 32 -32 76q-74 -119 -254 -119t-295 126t-115 366q0 241 116 367t291 126t257 -124q0 48 32 80t79 32q46 0 78 -32t32 -78z" />
    <glyph glyph-name="aacute.salt" horiz-adv-x="1036" 
d="M504 1053q-49 -43 -97 2t-8 90l174 221q21 29 57 27t68 -33t32 -66q1 -35 -25 -57zM508 162q225 0 225 304t-225 304t-225 -304t225 -304zM944 836v-742q0 -45 -32 -78q-32 -32 -78 -32t-79 32q-32 32 -32 76q-74 -119 -254 -119t-295 126t-115 366q0 241 116 367
t291 126t257 -124q0 48 32 80t79 32q46 0 78 -32t32 -78z" />
    <glyph glyph-name="abreve.salt" horiz-adv-x="1036" 
d="M518 1071q-127 0 -205 54t-77 165q0 30 22 52t52 22t52 -22t21 -52q0 -80 135 -80t135 80q0 30 22 52q23 22 53 22t52 -22t21 -52q0 -111 -78 -165t-205 -54zM508 162q225 0 225 304t-225 304t-225 -304t225 -304zM944 836v-742q0 -45 -32 -78q-32 -32 -78 -32t-79 32
q-32 32 -32 76q-74 -119 -254 -119t-295 126t-115 366q0 241 116 367t291 126t257 -124q0 48 32 80t79 32q46 0 78 -32t32 -78z" />
    <glyph glyph-name="acircumflex.salt" horiz-adv-x="1036" 
d="M512 1346q27 0 47 -15l191 -127q36 -26 36 -64t-22 -61t-54 -23t-51 15l-147 103l-147 -103q-19 -14 -51 -14q-32 1 -54 23t-22 60t36 64l191 127q20 15 47 15zM508 162q225 0 225 304t-225 304t-225 -304t225 -304zM944 836v-742q0 -45 -32 -78q-32 -32 -78 -32t-79 32
q-32 32 -32 76q-74 -119 -254 -119t-295 126t-115 366q0 241 116 367t291 126t257 -124q0 48 32 80t79 32q46 0 78 -32t32 -78z" />
    <glyph glyph-name="adieresis.salt" horiz-adv-x="1036" 
d="M694 1067q-102 1 -102 107t102 106t102 -106t-102 -107zM324 1067q-102 1 -102 107t102 106t102 -106t-102 -107zM508 162q225 0 225 304t-225 304t-225 -304t225 -304zM944 836v-742q0 -45 -32 -78q-32 -32 -78 -32t-79 32q-32 32 -32 76q-74 -119 -254 -119t-295 126
t-115 366q0 241 116 367t291 126t257 -124q0 48 32 80t79 32q46 0 78 -32t32 -78z" />
    <glyph glyph-name="agrave.salt" horiz-adv-x="1036" 
d="M666 1145q40 -45 -8 -90t-97 -2l-201 184q-28 23 -26 57t34 66q32 31 68 33t56 -27zM508 162q225 0 225 304t-225 304t-225 -304t225 -304zM944 836v-742q0 -45 -32 -78q-32 -32 -78 -32t-79 32q-32 32 -32 76q-74 -119 -254 -119t-295 126t-115 366q0 241 116 367
t291 126t257 -124q0 48 32 80t79 32q46 0 78 -32t32 -78z" />
    <glyph glyph-name="amacron.salt" horiz-adv-x="1036" 
d="M772 1151q0 -33 -22 -55t-56 -23h-354q-34 0 -56 23q-22 24 -22 56t23 54t55 23h354q34 -1 56 -23t22 -55zM508 162q225 0 225 304t-225 304t-225 -304t225 -304zM944 836v-742q0 -45 -32 -78q-32 -32 -78 -32t-79 32q-32 32 -32 76q-74 -119 -254 -119t-295 126
t-115 366q0 241 116 367t291 126t257 -124q0 48 32 80t79 32q46 0 78 -32t32 -78z" />
    <glyph glyph-name="aogonek.salt" horiz-adv-x="1036" 
d="M508 162q225 0 225 304t-225 304t-225 -304t225 -304zM1061 -305q0 -80 -170 -80q-100 0 -170 43t-70 137q0 63 38 119t91 82q-57 27 -57 96q-74 -119 -254 -119t-295 126t-115 366q0 241 116 367t291 126t257 -124q0 48 32 80t79 32q46 0 78 -33t32 -77v-742
q0 -57 -55 -98q-106 -78 -107 -160q0 -94 127 -94l90 14q27 0 45 -17t17 -44z" />
    <glyph glyph-name="aring.salt" horiz-adv-x="1036" 
d="M518 1432q106 0 162 -54t55 -149q0 -95 -55 -149q-56 -54 -162 -54t-162 53q-55 53 -55 149q-1 96 55 150t162 54zM518 1128q102 0 103 101q-1 100 -103 100q-102 -1 -102 -101t102 -100zM508 162q225 0 225 304t-225 304t-225 -304t225 -304zM944 836v-742
q0 -45 -32 -78q-32 -32 -78 -32t-79 32q-32 32 -32 76q-74 -119 -254 -119t-295 126t-115 366q0 241 116 367t291 126t257 -124q0 48 32 80t79 32q46 0 78 -32t32 -78z" />
    <glyph glyph-name="aringacute.salt" horiz-adv-x="1036" 
d="M516 1419q106 0 162 -53t55 -149q0 -95 -55 -149q-56 -54 -162 -54t-162 53q-55 53 -55 149t55 150q56 53 162 53zM516 1116q102 0 102 100t-102 101q-102 -1 -102 -101t102 -100zM508 1475q-49 -43 -97 2t-8 90l175 221q20 29 56 27t68 -33t32 -66q1 -35 -25 -57z
M508 162q225 0 225 304t-225 304t-225 -304t225 -304zM944 836v-742q0 -45 -32 -78q-32 -32 -78 -32t-79 32q-32 32 -32 76q-74 -119 -254 -119t-295 126t-115 366q0 241 116 367t291 126t257 -124q0 48 32 80t79 32q46 0 78 -32t32 -78z" />
    <glyph glyph-name="atilde.salt" horiz-adv-x="1036" 
d="M645 1227q31 0 55 34q24 33 64 33t62 -22t22 -50q0 -73 -75 -118q-48 -29 -109 -29q-62 0 -148 35t-115 35t-53 -34t-64 -34q-38 0 -61 23t-23 50q1 74 75 118q96 58 254 -6q85 -34 116 -35zM508 162q225 0 225 304t-225 304t-225 -304t225 -304zM944 836v-742
q0 -45 -32 -78q-32 -32 -78 -32t-79 32q-32 32 -32 76q-74 -119 -254 -119t-295 126t-115 366q0 241 116 367t291 126t257 -124q0 48 32 80t79 32q46 0 78 -32t32 -78z" />
    <glyph glyph-name="c_t" horiz-adv-x="1540" 
d="M1087 930v112q0 180 -200 181q-76 0 -119 -40t-43 -105q0 -64 25 -116t81 -137t0 -141q-29 -29 -71 -29t-74 35q-74 80 -181 80t-165 -79t-57 -225q0 -146 57 -225q56 -79 156 -79t211 82q29 20 65 20t66 -28q28 -28 28 -71q0 -42 -35 -75q-127 -117 -333 -117t-323 124
q-116 124 -116 370t116 369t329 122q115 0 209 -47q-133 123 -133 240t87 187t222 69q205 0 310 -95t106 -268v-114h92q39 0 65 -27t27 -65q0 -38 -27 -66q-27 -27 -65 -27h-92v-495q-1 -33 23 -53q24 -21 58 -21t64 -29q29 -29 29 -67t-29 -68q-29 -29 -68 -28
q-135 0 -215 78t-80 200v483h-47q-40 0 -66 27t-26 66q0 40 27 66t65 26h47z" />
    <glyph glyph-name="at.case" horiz-adv-x="1648" 
d="M795 467q69 0 117 39t49 104v43h-189q-109 0 -108 -90q0 -96 131 -96zM809 936q-76 0 -156 -59q-23 -17 -51 -17t-50 22t-22 54t19 51q95 105 255 105t244 -72t85 -197v-250q1 -39 25 -59t61 -20q157 0 157 250t-148 383t-406 133t-406 -138t-148 -424q0 -287 148 -433
t407 -146q258 0 420 96q23 12 53 12q30 1 55 -25t25 -71t-45 -70q-203 -115 -506 -114q-349 -1 -547 195t-198 556t196 547q197 187 539 187t546 -180t204 -511q0 -150 -76 -275q-39 -65 -113 -105t-172 -39q-152 0 -209 114q-90 -115 -245 -114q-117 0 -189 66t-72 174
t75 166t186 58h211v29q0 55 -38 88t-114 33z" />
    <glyph glyph-name="g.salt" horiz-adv-x="1011" 
d="M702 549q0 105 -56 163t-146 58q-219 0 -219 -303q0 -149 56 -227t163 -78q55 0 105 26t75 52l22 26v283zM477 -27q-199 0 -307 124t-109 370q0 246 114 369q114 122 316 122q201 0 317 -105t116 -304v-518q0 -442 -443 -443q-246 0 -358 136q-21 24 -21 62t29 67
q56 56 135 4q111 -80 216 -80t162 52q56 52 56 148v78q-82 -82 -223 -82z" />
    <glyph glyph-name="gcircumflex.salt" horiz-adv-x="1011" 
d="M508 1346q27 0 47 -15l190 -127q37 -26 37 -64t-22 -61t-55 -23q-32 0 -50 15l-147 103l-148 -103q-18 -14 -50 -14q-32 1 -54 23t-23 60q0 38 37 64l191 127q20 15 47 15zM702 549q0 105 -56 163t-146 58q-219 0 -219 -303q0 -149 56 -227t163 -78q55 0 105 26t75 52
l22 26v283zM477 -27q-199 0 -307 124t-109 370q0 246 114 369q114 122 316 122q201 0 317 -105t116 -304v-518q0 -442 -443 -443q-246 0 -358 136q-21 24 -21 62t29 67q56 56 135 4q111 -80 216 -80t162 52q56 52 56 148v78q-82 -82 -223 -82z" />
    <glyph glyph-name="gbreve.salt" horiz-adv-x="1011" 
d="M512 1071q-127 0 -205 54t-78 165q0 30 22 52q23 22 53 22t52 -22t21 -52q0 -80 135 -80t135 80q0 30 22 52q23 22 53 22t52 -22t21 -52q0 -111 -78 -165t-205 -54zM702 549q0 105 -56 163t-146 58q-219 0 -219 -303q0 -149 56 -227t163 -78q55 0 105 26t75 52l22 26v283
zM477 -27q-199 0 -307 124t-109 370q0 246 114 369q114 122 316 122q201 0 317 -105t116 -304v-518q0 -442 -443 -443q-246 0 -358 136q-21 24 -21 62t29 67q56 56 135 4q111 -80 216 -80t162 52q56 52 56 148v78q-82 -82 -223 -82z" />
    <glyph glyph-name="gdotaccent.salt" horiz-adv-x="1011" 
d="M502 1100q-106 0 -106 108t106 107q106 1 106 -107t-106 -108zM702 549q0 105 -56 163t-146 58q-219 0 -219 -303q0 -149 56 -227t163 -78q55 0 105 26t75 52l22 26v283zM477 -27q-199 0 -307 124t-109 370q0 246 114 369q114 122 316 122q201 0 317 -105t116 -304v-518
q0 -442 -443 -443q-246 0 -358 136q-21 24 -21 62t29 67q56 56 135 4q111 -80 216 -80t162 52q56 52 56 148v78q-82 -82 -223 -82z" />
    <glyph glyph-name="gcommaaccent.salt" horiz-adv-x="1011" 
d="M494 1063q-108 1 -108 113t50 209q51 97 121 151q13 10 27 10t25 -11t11 -27t-12 -27q-68 -68 -67 -148q-1 -33 29 -82t30 -80q2 -108 -106 -108zM702 549q0 105 -56 163t-146 58q-219 0 -219 -303q0 -149 56 -227t163 -78q55 0 105 26t75 52l22 26v283zM477 -27
q-199 0 -307 124t-109 370q0 246 114 369q114 122 316 122q201 0 317 -105t116 -304v-518q0 -442 -443 -443q-246 0 -358 136q-21 24 -21 62t29 67q56 56 135 4q111 -80 216 -80t162 52q56 52 56 148v78q-82 -82 -223 -82z" />
    </font>
</defs>
</svg>
