<?xml version="1.0" standalone="no"?>
<!DOCTYPE svg PUBLIC "-//W3C//DTD SVG 1.1//EN" "http://www.w3.org/Graphics/SVG/1.1/DTD/svg11.dtd" >
<svg xmlns="http://www.w3.org/2000/svg">
<metadata>
Created by FontPrep 20130207 at Fri Aug 15 12:33:55 2014
 By Simon Petersen
Copyright (c) 2012 by atipo. All rights reserved.
</metadata>
<defs>
<font id="02e112496c86a123907b43ad373128ca" horiz-adv-x='1024' >
  <font-face 
    font-family="BariolLight-Italic"
    font-weight="300"
    font-style="italic"
    font-stretch="normal"
    units-per-em="2048"
    panose-1="2 0 5 6 4 0 0 9 0 3"
    ascent="1612"
    descent="-436"
    x-height="930"
    cap-height="1395"
    bbox="-254 -465 2257 2079.9"
    underline-thickness="40"
    underline-position="-231"
    unicode-range="U+0020-FB06"
  />
<missing-glyph horiz-adv-x="1187" 
d="M82 1434h1024v-1434h-1024v1434zM180 98h828v1235h-828v-1235zM625 469h-97v80q0 76 34 139t75 98q110 94 108 185q0 67 -45 105t-110 38q-162 0 -162 -166h-98q0 135 72 202q73 67 188 67q114 1 186 -61t72 -174t-78 -192q-33 -34 -67 -66q-80 -75 -78 -175v-80z
M633 254h-113v113h113v-113z" />
    <glyph glyph-name="ellipsis" unicode="&#x2e;&#x2e;&#x2e;" horiz-adv-x="1501" 
d="M745 -16q-39 0 -38 36q0 59 57 60q39 0 39 -37q-1 -59 -58 -59zM1352 -16q-39 0 -39 36q0 59 57 60q39 0 39 -37q0 -59 -57 -59zM139 -16q-39 0 -39 36q0 59 58 60q39 0 39 -37q-1 -59 -58 -59z" />
    <glyph glyph-name="f_f" unicode="ff" horiz-adv-x="1087" 
d="M233 877q-23 0 -22 22q0 11 10 21t21 10h116l23 129q27 150 126 247t279 97q23 0 23 -23q0 -31 -33 -30q-281 0 -334 -291l-22 -129h471l22 129q27 150 126 247t280 97q23 0 22 -23q0 -31 -32 -30q-281 0 -334 -291l-23 -129h242q23 0 23 -23q-1 -12 -11 -21t-20 -9h-244
l-166 -928q-29 -156 -128 -258t-279 -103q-23 0 -23 23q0 12 9 21t24 10q145 0 228 85t110 228l164 922h-471l-166 -928q-29 -156 -128 -258t-280 -103q-23 0 -22 23q0 12 9 21t23 10q145 0 229 85q83 85 109 228l164 922h-115z" />
    <glyph glyph-name="fi" unicode="fi" horiz-adv-x="903" 
d="M776 1350q-281 0 -334 -291l-22 -129h475q29 0 25 -31l-158 -885q-4 -31 -35 -30q-33 0 -27 30l154 863h-444l-166 -928q-29 -156 -128 -258t-280 -103q-23 0 -22 23q0 12 9 21t23 10q145 0 229 85q83 85 109 228l164 922h-115q-23 0 -22 22q0 11 10 21t21 10h116l23 129
q27 150 126 247t279 97q109 0 187 -45q16 -10 16 -25q0 -27 -26 -26q-8 0 -27 8q-80 35 -160 35z" />
    <glyph glyph-name="fl" unicode="fl" horiz-adv-x="954" 
d="M776 1350q-281 0 -334 -291l-22 -129h446l70 383q-56 37 -160 37zM729 137q0 31 6 68l121 672h-446l-166 -928q-29 -156 -128 -258t-280 -103q-23 0 -22 23q0 12 9 21t23 10q145 0 229 85q83 85 109 228l164 922h-115q-23 0 -22 22q0 11 10 21t21 10h116l23 129
q27 150 126 247t279 97q115 0 201 -57q14 -8 10 -23l-200 -1118q-6 -33 -6 -62q0 -106 104 -106q23 0 23 -23q0 -12 -10 -21t-23 -9q-156 -1 -156 153z" />
    <glyph glyph-name="f_f_i" unicode="ffi" horiz-adv-x="1435" 
d="M1309 1350q-281 0 -334 -291l-23 -129h475q29 0 25 -31l-158 -885q-4 -31 -34 -30q-33 0 -27 30l153 863h-444l-166 -928q-29 -156 -128 -258t-279 -103q-23 0 -23 23q0 12 9 21t24 10q145 0 228 85t110 228l164 922h-471l-166 -928q-29 -156 -128 -258t-280 -103
q-23 0 -22 23q0 12 9 21t23 10q145 0 229 85q83 85 109 228l164 922h-115q-23 0 -22 22q0 11 10 21t21 10h116l23 129q27 150 126 247t279 97q23 0 23 -23q0 -31 -33 -30q-281 0 -334 -291l-22 -129h471l22 129q27 150 126 247t280 97q109 0 186 -45q16 -10 17 -25
q0 -27 -27 -26q-8 0 -27 8q-79 35 -159 35z" />
    <glyph glyph-name="f_f_l" unicode="ffl" horiz-adv-x="1486" 
d="M1309 1350q-281 0 -334 -291l-23 -129h447l69 383q-55 37 -159 37zM1262 137q0 31 6 68l121 672h-447l-166 -928q-29 -156 -128 -258t-279 -103q-23 0 -23 23q0 12 9 21t24 10q145 0 228 85t110 228l164 922h-471l-166 -928q-29 -156 -128 -258t-280 -103q-23 0 -22 23
q0 12 9 21t23 10q145 0 229 85q83 85 109 228l164 922h-115q-23 0 -22 22q0 11 10 21t21 10h116l23 129q27 150 126 247t279 97q23 0 23 -23q0 -31 -33 -30q-281 0 -334 -291l-22 -129h471l22 129q27 150 126 247t280 97q119 0 201 -57q14 -8 10 -23l-201 -1118
q-6 -33 -6 -62q0 -106 104 -106q23 0 23 -23q0 -12 -9 -21t-24 -9q-155 -1 -155 153z" />
    <glyph glyph-name="f_j" unicode="fj" horiz-adv-x="903" 
d="M403 -412q-23 0 -22 23q0 12 10 21t21 10q98 0 173 68t93 171l176 996h-444l-166 -928q-29 -156 -128 -258t-280 -103q-23 0 -22 23q0 12 9 21t23 10q145 0 229 85q83 85 109 228l164 922h-115q-23 0 -22 22q0 11 10 21t21 10h116l23 129q27 150 126 247t279 97
q109 0 187 -45q16 -10 16 -25q0 -27 -26 -26q-8 0 -27 8q-80 35 -160 35q-281 0 -334 -291l-22 -129h475q29 0 25 -31l-181 -1018q-25 -133 -117 -213t-219 -80z" />
    <glyph glyph-name="f_b" unicode="fb" horiz-adv-x="1599" 
d="M776 1350q-281 0 -334 -291l-22 -129h242q23 0 22 -23q0 -12 -10 -21t-21 -9h-243l-166 -928q-29 -156 -128 -258t-280 -103q-23 0 -22 23q0 12 9 21t23 10q145 0 229 85q83 85 109 228l164 922h-115q-23 0 -22 22q0 11 10 21t21 10h116l23 129q27 150 126 247t279 97
q113 0 201 -55q14 -8 10 -23l-100 -561q6 8 15 21t45 46q141 130 310 128q347 -3 347 -345q0 -246 -114 -433q-58 -95 -162 -151t-252 -56t-237 76q-89 77 -89 224q0 50 8 97l168 942q-55 37 -160 37zM821 283q0 -129 76 -193t207 -63q221 0 333 169t111 416q0 293 -291 293
q-173 0 -314 -154q-32 -36 -46 -61l-16 -24l-52 -295q-8 -51 -8 -88z" />
    <glyph glyph-name="f_f_b" unicode="ffb" horiz-adv-x="2131" 
d="M1354 283q0 -129 76 -193t206 -63q221 0 333 169t112 416q0 293 -291 293q-178 0 -314 -154q-32 -36 -46 -61l-17 -24l-51 -295q-8 -51 -8 -88zM1309 1350q-281 0 -334 -291l-23 -129h242q23 0 23 -23q-1 -12 -11 -21t-20 -9h-244l-166 -928q-29 -156 -128 -258
t-279 -103q-23 0 -23 23q0 12 9 21t24 10q145 0 228 85t110 228l164 922h-471l-166 -928q-29 -156 -128 -258t-280 -103q-23 0 -22 23q0 12 9 21t23 10q145 0 229 85q83 85 109 228l164 922h-115q-23 0 -22 22q0 11 10 21t21 10h116l23 129q27 150 126 247t279 97
q23 0 23 -23q0 -31 -33 -30q-281 0 -334 -291l-22 -129h471l22 129q27 150 126 247t280 97q113 0 201 -55q14 -8 10 -23l-100 -561q6 8 15 21t45 46q141 130 310 128q346 -3 346 -345q0 -248 -113 -433q-59 -95 -163 -151t-252 -56t-237 76q-89 77 -89 224q0 50 8 97
l168 942q-55 37 -159 37z" />
    <glyph glyph-name="f_h" unicode="fh" horiz-adv-x="1574" 
d="M776 1350q-281 0 -334 -291l-22 -129h242q23 0 22 -23q0 -12 -10 -21t-21 -9h-243l-166 -928q-29 -156 -128 -258t-280 -103q-23 0 -22 23q0 12 9 21t23 10q145 0 229 85q83 85 109 228l164 922h-115q-23 0 -22 22q0 11 10 21t21 10h116l23 129q27 150 126 247t279 97
q113 0 201 -55q14 -8 10 -23l-98 -563q33 74 129 135t240 61t221 -72q76 -72 76 -188q0 -55 -9 -102l-102 -582q-4 -31 -35 -30q-31 0 -26 30l102 582q8 49 8 92q0 217 -260 217q-156 0 -254 -98t-123 -232l-100 -561q-4 -31 -35 -30q-12 0 -20 9t-6 21l231 1299
q-55 37 -160 37z" />
    <glyph glyph-name="f_f_h" unicode="ffh" horiz-adv-x="2107" 
d="M1309 1350q-281 0 -334 -291l-23 -129h242q23 0 23 -23q-1 -12 -11 -21t-20 -9h-244l-166 -928q-29 -156 -128 -258t-279 -103q-23 0 -23 23q0 12 9 21t24 10q145 0 228 85t110 228l164 922h-471l-166 -928q-29 -156 -128 -258t-280 -103q-23 0 -22 23q0 12 9 21t23 10
q145 0 229 85q83 85 109 228l164 922h-115q-23 0 -22 22q0 11 10 21t21 10h116l23 129q27 150 126 247t279 97q23 0 23 -23q0 -31 -33 -30q-281 0 -334 -291l-22 -129h471l22 129q27 150 126 247t280 97q113 0 201 -55q14 -8 10 -23l-98 -563q33 74 129 135q97 61 241 61
t220 -72t75 -188q0 -55 -8 -102l-102 -582q-4 -31 -35 -30q-31 0 -27 30l103 582q8 49 8 92q0 217 -260 217q-156 0 -254 -98t-123 -232l-101 -561q-4 -31 -34 -30q-12 0 -21 9q-8 9 -6 21l231 1299q-55 37 -159 37z" />
    <glyph glyph-name="f_k" unicode="fk" horiz-adv-x="1456" 
d="M1386 -16q-16 0 -24 14l-336 526l-197 -145l-63 -365q-4 -31 -35 -30q-31 0 -26 30l231 1299q-55 37 -160 37q-281 0 -334 -291l-22 -129h242q23 0 22 -23q0 -12 -10 -21t-21 -9h-243l-166 -928q-29 -156 -128 -258t-280 -103q-23 0 -22 23q0 12 9 21t23 10q145 0 229 85
q83 85 109 228l164 922h-115q-23 0 -22 22q0 11 10 21t21 10h116l23 129q27 150 126 247t279 97q113 0 201 -55q14 -8 10 -23l-149 -866l659 479q11 8 21 8t19 -8t9 -21t-16 -26l-467 -332l336 -526q6 -10 6 -21q0 -28 -29 -28z" />
    <glyph glyph-name="f_f_k" unicode="ffk" horiz-adv-x="1988" 
d="M1919 -16q-16 0 -25 14l-335 526l-197 -145l-64 -365q-4 -31 -34 -30q-31 0 -27 30l231 1299q-55 37 -159 37q-281 0 -334 -291l-23 -129h242q23 0 23 -23q-1 -12 -11 -21t-20 -9h-244l-166 -928q-29 -156 -128 -258t-279 -103q-23 0 -23 23q0 12 9 21t24 10
q145 0 228 85t110 228l164 922h-471l-166 -928q-29 -156 -128 -258t-280 -103q-23 0 -22 23q0 12 9 21t23 10q145 0 229 85q83 85 109 228l164 922h-115q-23 0 -22 22q0 11 10 21t21 10h116l23 129q27 150 126 247t279 97q23 0 23 -23q0 -31 -33 -30q-281 0 -334 -291
l-22 -129h471l22 129q27 150 126 247t280 97q113 0 201 -55q14 -8 10 -23l-150 -866l660 479q10 8 20 8t20 -8t9 -21q0 -13 -16 -26l-467 -332l336 -526q6 -10 6 -21q0 -28 -29 -28z" />
    <glyph glyph-name="f_f_j" unicode="ffj" horiz-adv-x="1435" 
d="M936 -412q-23 0 -23 23q1 12 11 21t20 10q98 0 173 68t93 171l176 996h-444l-166 -928q-29 -156 -128 -258t-279 -103q-23 0 -23 23q0 12 9 21t24 10q145 0 228 85t110 228l164 922h-471l-166 -928q-29 -156 -128 -258t-280 -103q-23 0 -22 23q0 12 9 21t23 10
q145 0 229 85q83 85 109 228l164 922h-115q-23 0 -22 22q0 11 10 21t21 10h116l23 129q27 150 126 247t279 97q23 0 23 -23q0 -31 -33 -30q-281 0 -334 -291l-22 -129h471l22 129q27 150 126 247t280 97q109 0 186 -45q16 -10 17 -25q0 -27 -27 -26q-8 0 -27 8
q-80 35 -159 35q-281 0 -334 -291l-23 -129h475q29 0 25 -31l-180 -1018q-25 -133 -118 -213t-218 -80z" />
    <glyph glyph-name=".notdef" horiz-adv-x="1187" 
d="M82 1434h1024v-1434h-1024v1434zM180 98h828v1235h-828v-1235zM625 469h-97v80q0 76 34 139t75 98q110 94 108 185q0 67 -45 105t-110 38q-162 0 -162 -166h-98q0 135 72 202q73 67 188 67q114 1 186 -61t72 -174t-78 -192q-33 -34 -67 -66q-80 -75 -78 -175v-80z
M633 254h-113v113h113v-113z" />
    <glyph glyph-name=".null" horiz-adv-x="0" 
 />
    <glyph glyph-name="nonmarkingreturn" horiz-adv-x="681" 
 />
    <glyph glyph-name="space" unicode=" " horiz-adv-x="512" 
 />
    <glyph glyph-name="exclam" unicode="!" horiz-adv-x="288" 
d="M139 -16q-39 0 -39 36q0 59 58 60q39 0 39 -37q-1 -59 -58 -59zM186 254q-18 0 -16 18l176 1088q6 35 43 35t31 -35l-209 -1088q-2 -18 -25 -18z" />
    <glyph glyph-name="quotedbl" unicode="&#x22;" horiz-adv-x="604" 
d="M646 1395q36 0 28 -35l-78 -350q-4 -16 -23 -17q-20 0 -16 17l47 350q6 35 42 35zM452 1395q36 0 27 -35l-78 -350q-4 -16 -22 -17q-20 0 -17 17l48 350q6 35 42 35z" />
    <glyph glyph-name="numbersign" unicode="#" horiz-adv-x="1062" 
d="M535 834l-109 -324h340l108 324h-339zM199 457q-23 0 -23 22q0 11 10 21t21 10h164l108 324h-160q-23 0 -22 22q0 12 10 22t23 9h168l145 426q6 23 29 22q23 0 22 -22q0 -8 -4 -21l-137 -405h340l145 426q6 23 29 23t23 -23q0 -8 -5 -21l-137 -405h152q23 0 22 -23
q0 -12 -10 -21t-22 -9h-160l-109 -324h156q23 0 22 -23q0 -12 -9 -21t-21 -9h-164l-152 -451q-5 -22 -29 -22t-24 22q0 5 6 23l144 428h-340l-152 -451q-6 -22 -30 -22t-23 22q0 4 6 23l143 428h-155z" />
    <glyph glyph-name="dollar" unicode="$" horiz-adv-x="1095" 
d="M381 1038q0 -92 72 -154t174 -98t204 -76q103 -40 175 -115t71 -187q0 -199 -128 -313t-378 -122l-30 -176q-6 -31 -37 -30q-31 0 -25 30l31 174q-283 8 -401 246q-14 27 -1 39t29 12t23 -16q100 -223 379 -223q219 0 346 96t127 272q0 85 -52 147t-130 94t-168 68
t-167 70t-129 101q-52 68 -53 159q0 150 120 256t329 115l31 176q7 31 37 31t24 -31l-31 -176q252 -8 363 -199q8 -12 8 -22q0 -31 -31 -31q-18 0 -26 16q-104 180 -351 181q-197 0 -301 -94t-104 -220z" />
    <glyph glyph-name="percent" unicode="%" horiz-adv-x="1527" 
d="M432 -16q-27 0 -26 24q0 9 6 19l921 1351q10 16 25 17q27 0 26 -25q0 -10 -6 -18l-921 -1352q-10 -16 -25 -16zM1139 -27q-233 0 -234 232q0 176 87 306t263 130q233 0 234 -231q0 -176 -87 -306t-263 -131zM1147 25q141 -1 215 107t74 269q0 188 -189 189
q-141 0 -215 -108t-74 -269q1 -188 189 -188zM516 739q-233 0 -233 232q0 176 87 306t263 130q233 0 233 -231q0 -176 -87 -306t-263 -131zM524 791q141 -1 215 107t74 269q0 188 -188 189q-141 0 -215 -108t-74 -269q0 -188 188 -188z" />
    <glyph glyph-name="ampersand" unicode="&#x26;" horiz-adv-x="1390" 
d="M1403 874q17 0 33 -26t16 -74q0 -154 -268 -153q31 -74 30 -172q0 -227 -172 -353t-409 -125t-363 107t-125 284q1 124 55 224t133 152q157 103 281 108q-72 18 -136 85t-64 175q0 141 103 221t223 80t201 -42t106 -114q2 -6 2 -12q0 -29 -27 -29q-16 0 -23 17
q-63 129 -254 129q-100 0 -185 -64t-85 -185q0 -122 91 -182t200 -61q23 0 22 -20q0 -31 -32 -31q-209 0 -371 -103q-176 -114 -176 -364q-1 -131 107 -225t323 -94q215 1 368 113t152 309q0 109 -31 174q-246 0 -245 -115q0 -20 9 -34t9 -25q0 -29 -29 -29q-14 0 -30 20
t-17 56q0 98 80 138t253 40t214 43q23 23 23 51q-1 28 -11 49q-10 20 -10 29q0 28 29 28z" />
    <glyph glyph-name="quotesingle" unicode="'" horiz-adv-x="407" 
d="M452 1395q36 0 27 -35l-78 -350q-4 -16 -22 -17q-20 0 -17 17l48 350q6 35 42 35z" />
    <glyph glyph-name="parenleft" unicode="(" horiz-adv-x="622" 
d="M809 1483q0 -16 -18 -25q-167 -66 -261 -231q-94 -164 -130 -304q-37 -140 -77 -361q-40 -222 -40 -384t45 -265t153 -159q16 -8 17 -26q0 -27 -29 -27q-8 0 -16 4q-231 115 -232 471q0 164 49 430q68 417 187 621q49 84 130 164t183 118l10 2q29 0 29 -28z" />
    <glyph glyph-name="parenright" unicode=")" horiz-adv-x="622" 
d="M553 1034q0 162 -45 265t-154 159q-16 8 -16 27q0 27 29 26q8 0 16 -4q231 -115 231 -471q0 -164 -49 -430q-68 -418 -186 -620q-49 -84 -130 -164t-183 -119l-11 -2q-29 0 -28 29q0 16 18 24q164 65 254 221q45 78 79 150t62 181t71 338q42 228 42 390z" />
    <glyph glyph-name="asterisk" unicode="*" horiz-adv-x="731" 
d="M377 895q0 8 8 20l154 207l-244 56q-23 6 -23 24q0 31 25 31q6 0 18 -4l240 -70l-6 246q-1 27 27 27t28 -27l-6 -246l240 70q12 4 18 4q25 0 25 -31q0 -18 -23 -24l-244 -56l154 -207q8 -12 8 -20t-19 -22t-32 8l-150 223l-147 -223q-17 -20 -34 -7t-17 21z" />
    <glyph glyph-name="plus" unicode="+" horiz-adv-x="929" 
d="M1008 451q0 -11 -10 -21t-21 -10h-408l-71 -406q-4 -31 -37 -30q-31 0 -25 30l72 406h-408q-23 0 -22 22q0 12 9 22t22 9h409l72 408q4 31 35 30q12 0 20 -9t6 -21l-71 -408h405q23 1 23 -22z" />
    <glyph glyph-name="comma" unicode="," horiz-adv-x="288" 
d="M197 43q0 -150 -115 -272q-10 -11 -24 -11t-15 17q0 6 6 16q70 90 70 141q0 20 -9 48t-10 38q0 59 58 60q39 0 39 -37z" />
    <glyph glyph-name="hyphen" unicode="-" horiz-adv-x="577" 
d="M592 520q0 -12 -9 -21t-22 -10h-375q-23 0 -22 23q0 12 9 22t22 9h374q23 0 23 -23z" />
    <glyph glyph-name="period" unicode="." horiz-adv-x="288" 
d="M139 -16q-39 0 -39 36q0 59 58 60q39 0 39 -37q-1 -59 -58 -59z" />
    <glyph glyph-name="slash" unicode="/" horiz-adv-x="833" 
d="M964 1538q34 0 35 -31q0 -6 -4 -14l-864 -1673q-9 -20 -25 -20t-25 8q-9 10 -9 19t4 17l864 1674q8 20 24 20z" />
    <glyph glyph-name="zero" unicode="0" horiz-adv-x="1212" 
d="M610 -29q-408 0 -408 427t144 707q74 142 202 222t298 80q408 0 408 -429t-144 -705q-74 -142 -202 -222t-298 -80zM600 27q166 1 282 77q206 136 275 510q31 162 31 358t-83 289t-249 93q-449 0 -557 -589q-31 -163 -31 -359t83 -287q83 -92 249 -92z" />
    <glyph glyph-name="one" unicode="1" horiz-adv-x="718" 
d="M305 1114q0 18 17 29l393 243q14 8 24 9q31 0 25 -31l-238 -1350q-4 -31 -37 -30q-14 0 -22 9t-4 21l229 1293l-340 -213q-10 -6 -20 -7q-27 0 -27 27z" />
    <glyph glyph-name="two" unicode="2" horiz-adv-x="1083" 
d="M803 1407q170 0 266 -88q96 -87 96 -223q0 -252 -196 -415q-133 -111 -405 -249q-105 -53 -193 -106q-89 -53 -143 -122t-54 -147h809q23 0 23 -24q0 -33 -33 -33h-842q-25 0 -25 25q0 135 102 240t248 180t292 153t247 198q103 120 103 261t-77 217t-226 76
q-270 0 -392 -230q-10 -16 -26 -16q-29 0 -29 29q0 8 6 20q135 254 449 254z" />
    <glyph glyph-name="three" unicode="3" horiz-adv-x="1095" 
d="M705 813q186 0 270 -91t84 -239q1 -235 -143 -373t-402 -139q-319 0 -391 230q-2 6 -2 14q0 29 29 29q20 0 28 -23q63 -190 346 -190q227 0 347 120t120 328q0 276 -309 277h-150q-25 0 -24 24q0 12 14 27l537 514h-635q-25 0 -25 25q1 14 11 23t24 9h701q25 0 24 -24
q0 -12 -10 -23l-543 -518h99z" />
    <glyph glyph-name="four" unicode="4" horiz-adv-x="1083" 
d="M205 393h618l154 879zM1051 393q25 0 24 -24q0 -13 -10 -23t-25 -10h-163l-58 -322q-4 -31 -37 -30q-31 0 -26 30l57 322h-678q-25 0 -24 24q0 8 10 23l872 993q13 18 31 18t26 -8q8 -10 7 -24l-170 -969h164z" />
    <glyph glyph-name="five" unicode="5" horiz-adv-x="1128" 
d="M713 889q182 0 285 -92t104 -273q0 -270 -151 -411t-400 -142q-315 0 -414 258q-6 16 -6 25q0 33 29 33q23 0 28 -23q68 -236 373 -235q217 0 346 122t129 367q0 160 -88 237t-246 76q-246 0 -409 -163q-14 -14 -34 -14t-19 24q0 6 6 22l243 656q8 23 31 22h660
q23 0 22 -24q0 -33 -33 -33h-634l-213 -567q139 135 391 135z" />
    <glyph glyph-name="six" unicode="6" horiz-adv-x="1159" 
d="M586 31q225 0 352 131t127 358q0 289 -342 289q-161 0 -269 -78t-184 -231q-8 -55 -8 -117q0 -352 324 -352zM733 866q182 0 290 -87t107 -251q0 -252 -138 -404t-412 -153q-190 0 -286 110q-95 110 -95 306q0 289 79 526q46 141 117 248q72 106 192 176t251 70t210 -32
t113 -75q8 -8 8 -20q0 -29 -28 -29q-12 0 -21 9q-100 90 -270 90q-222 0 -362 -167t-193 -464l-21 -119q131 266 459 266z" />
    <glyph glyph-name="seven" unicode="7" horiz-adv-x="989" 
d="M324 1321q-25 0 -25 25q0 12 10 22t25 10h811q25 0 20 -26q-31 -195 -182 -348q-67 -70 -147 -142q-198 -179 -290 -302q-176 -235 -220 -548q-4 -29 -35 -28q-31 -1 -27 30q20 156 74 292q53 136 123 234q117 163 313 339q80 71 147 139q151 152 175 303h-772z" />
    <glyph glyph-name="eight" unicode="8" horiz-adv-x="1126" 
d="M690 721q-213 1 -342 -105t-129 -309q0 -141 95 -210t255 -68q207 0 338 100t131 305q0 143 -92 215t-256 72zM803 1352q-187 0 -293 -85t-107 -251q-1 -240 317 -240q160 0 270 90t110 256q0 230 -297 230zM788 1407q374 -1 373 -285q0 -142 -84 -240t-219 -128
q114 -27 180 -108t66 -206q0 -227 -144 -348t-401 -121q-182 0 -294 85q-111 85 -111 257t99 289t282 152q-88 20 -140 86q-51 66 -51 168q0 195 128 297t316 102z" />
    <glyph glyph-name="nine" unicode="9" horiz-adv-x="1159" 
d="M815 1348q-239 0 -359 -128t-120 -362q0 -289 342 -289q162 0 270 78t182 232q8 55 9 116q0 169 -82 261t-242 92zM668 512q-182 0 -290 87t-108 251q0 252 138 404t413 153q189 0 285 -110t96 -306q0 -289 -79 -526q-46 -141 -117 -248q-72 -106 -192 -176t-251 -70
t-210 32t-113 75q-8 8 -9 20q0 29 29 29q12 0 21 -8q100 -90 270 -90q223 0 362 167t193 463l20 119q-130 -266 -458 -266z" />
    <glyph glyph-name="colon" unicode=":" horiz-adv-x="288" 
d="M291 838q-39 0 -39 36q0 59 57 60q39 0 39 -37q0 -59 -57 -59zM139 -16q-39 0 -39 36q0 59 58 60q39 0 39 -37q-1 -59 -58 -59z" />
    <glyph glyph-name="semicolon" unicode=";" horiz-adv-x="288" 
d="M291 838q-39 0 -39 36q0 59 57 60q39 0 39 -37q0 -59 -57 -59zM197 43q0 -150 -115 -272q-10 -11 -24 -11t-15 17q0 6 6 16q70 90 70 141q0 20 -9 48t-10 38q0 59 58 60q39 0 39 -37z" />
    <glyph glyph-name="less" unicode="&#x3c;" horiz-adv-x="704" 
d="M100 480q0 15 19 28l696 479q8 6 19 6q29 0 28 -28q0 -14 -12 -25l-678 -463l506 -459q8 -8 8 -20q0 -29 -29 -29q-12 0 -20 8l-526 478q-11 10 -11 25z" />
    <glyph glyph-name="equal" unicode="=" horiz-adv-x="929" 
d="M981 295q0 -11 -10 -21t-21 -10h-876q-23 0 -23 23q0 12 10 21t21 9h876q23 1 23 -22zM1036 608q0 -12 -10 -21t-20 -9h-877q-23 0 -23 22q0 12 10 22t21 9h877q22 0 22 -23z" />
    <glyph glyph-name="greater" unicode="&#x3e;" horiz-adv-x="704" 
d="M774 482q0 -15 -18 -27l-697 -480q-10 -6 -18 -6q-29 0 -29 29q0 14 13 25l677 462l-505 459q-8 8 -9 21q0 29 29 28q12 0 21 -8l526 -477q10 -11 10 -26z" />
    <glyph glyph-name="question" unicode="?" horiz-adv-x="944" 
d="M412 -16q-39 0 -39 36q0 59 57 60q39 0 39 -37q0 -59 -57 -59zM989 1102q0 124 -75 188t-212 64q-319 0 -372 -312q-4 -31 -35 -30q-31 0 -27 30q57 365 439 365q166 0 255 -79q89 -78 89 -198q0 -216 -115 -327q-84 -81 -235 -155q-60 -30 -111 -62q-115 -73 -115 -193
q1 -47 15 -75t14 -35q0 -31 -31 -31q-17 0 -27 14q-32 47 -32 136t59 157t143 109t169 88t145 135q59 88 59 211z" />
    <glyph glyph-name="at" unicode="@" horiz-adv-x="1654" 
d="M600 242q0 -104 46 -158t160 -55q114 0 200 101t112 257l39 217q-81 78 -223 78t-238 -118t-96 -322zM1591 530q0 244 -151 378q-152 134 -424 134q-373 0 -593 -236t-220 -646q0 -264 138 -380t430 -116t509 139q14 8 23 9q25 0 24 -25q0 -16 -16 -27
q-231 -150 -545 -150t-470 129q-155 128 -155 413q0 440 236 692t647 252q287 0 459 -148t172 -418q0 -185 -81 -357q-42 -89 -124 -143t-195 -55q-182 0 -182 123q0 31 8 76q-35 -80 -109 -139t-190 -59t-180 71q-63 72 -63 195q0 203 109 348q110 145 300 145
q119 0 219 -73l7 34q4 29 30 29t27 -27v-5l-98 -525q-6 -33 -7 -62q0 -82 138 -82t233 131q94 131 94 375z" />
    <glyph glyph-name="A" unicode="A" horiz-adv-x="1261" 
d="M98 -16q-29 0 -28 28q0 8 8 23l762 1337q12 23 36 23t29 -23l293 -1339q4 -17 -6 -33t-33 -16t-29 30l-88 424h-665l-246 -434q-12 -20 -33 -20zM1032 498l-170 794l-452 -794h622z" />
    <glyph glyph-name="B" unicode="B" horiz-adv-x="1138" 
d="M647 0h-430q-29 0 -27 33l232 1313q8 33 37 32h360q178 0 265 -72t87 -204q0 -279 -284 -365q102 -14 168 -87t65 -201q0 -203 -126 -326t-347 -123zM657 57q185 1 291 107t107 282q0 252 -289 252h-393l-113 -641h397zM711 756q186 0 289 92t104 246q0 227 -295 227
h-328l-98 -565h328z" />
    <glyph glyph-name="C" unicode="C" horiz-adv-x="1273" 
d="M738 -29q-268 0 -407 129q-138 129 -138 383q0 383 184 643q92 131 245 206q152 75 320 75q312 0 444 -213q15 -24 1 -38q-13 -13 -27 -13t-25 16q-121 190 -374 191q-179 0 -319 -72q-250 -129 -343 -469q-41 -152 -41 -324q0 -457 471 -456q248 0 438 190q13 12 25 12
t21 -9q22 -22 -1 -44q-206 -207 -474 -207z" />
    <glyph glyph-name="D" unicode="D" horiz-adv-x="1243" 
d="M459 1378h305q258 0 393 -112t135 -363q0 -300 -106 -519q-118 -244 -365 -335q-133 -49 -301 -49h-305q-29 0 -27 33l232 1313q8 32 39 32zM530 57q330 0 513 217t184 619q0 229 -121 329t-352 99h-273l-223 -1264h272z" />
    <glyph glyph-name="E" unicode="E" horiz-adv-x="1048" 
d="M936 0h-721q-33 0 -25 33l232 1313q8 33 37 32h694q25 0 25 -24q0 -14 -10 -24t-25 -9h-662l-104 -598h516q25 0 25 -25q0 -14 -10 -23t-25 -9h-516l-107 -609h686q23 0 23 -24q0 -33 -33 -33z" />
    <glyph glyph-name="F" unicode="F" horiz-adv-x="1048" 
d="M217 0q-29 0 -27 33l232 1313q8 33 37 32h694q25 0 25 -24q0 -14 -10 -24t-25 -9h-662l-108 -619h516q25 0 24 -24q0 -14 -10 -24t-24 -9h-514l-109 -612q-4 -33 -39 -33z" />
    <glyph glyph-name="G" unicode="G" horiz-adv-x="1376" 
d="M874 588q-25 0 -24 24q0 14 10 24t25 9h434q27 0 22 -27l-65 -378q-2 -20 -23 -41q-227 -227 -528 -228q-256 0 -394 129t-138 383q0 383 184 643q92 131 245 206q152 75 320 75q312 0 444 -213q15 -24 1 -38q-13 -13 -27 -13t-25 16q-121 190 -374 191q-179 0 -319 -72
q-250 -129 -343 -469q-41 -152 -41 -324q0 -457 471 -456q268 -1 483 202l64 357h-402z" />
    <glyph glyph-name="H" unicode="H" horiz-adv-x="1318" 
d="M1309 1362q8 33 39 33t26 -33l-235 -1346q-8 -33 -39 -32q-32 0 -27 32l117 662h-819l-117 -662q-8 -33 -39 -32q-29 0 -27 32l236 1346q8 33 39 33t26 -33l-110 -625h819z" />
    <glyph glyph-name="I" unicode="I" horiz-adv-x="434" 
d="M463 1395q31 0 26 -33l-235 -1346q-6 -33 -39 -32q-29 0 -27 32l236 1346q8 33 39 33z" />
    <glyph glyph-name="J" unicode="J" horiz-adv-x="821" 
d="M41 41q0 33 31 33q6 0 22 -8q74 -37 180 -37q158 0 250 100t121 270l170 963q8 33 37 33q14 1 22 -9t7 -24l-170 -963q-76 -428 -447 -428q-129 0 -205 43q-18 10 -18 27z" />
    <glyph glyph-name="K" unicode="K" horiz-adv-x="1122" 
d="M1257 1362q0 -14 -16 -31l-569 -532l403 -766q4 -8 4 -17q0 -33 -32 -32q-18 0 -29 18l-400 746l-282 -265l-82 -467q-6 -33 -39 -32q-29 0 -27 32l236 1346q8 33 39 33t26 -33l-137 -784l846 804q12 12 26 12t24 -8q9 -10 9 -24z" />
    <glyph glyph-name="L" unicode="L" horiz-adv-x="976" 
d="M897 57q25 0 25 -24q0 -13 -10 -23t-25 -10h-674q-29 0 -25 29l236 1333q8 33 39 33t26 -33l-229 -1305h637z" />
    <glyph glyph-name="M" unicode="M" horiz-adv-x="1568" 
d="M814 229q-19 0 -26 21l-344 993l-217 -1229q-4 -31 -34 -30q-31 0 -27 30l240 1350q4 31 32 31q20 0 29 -19l362 -1054l738 1056q12 16 27 16q14 0 24 -8q10 -10 8 -22l-240 -1350q-6 -31 -34 -30q-12 0 -21 9q-8 9 -6 21l217 1229l-694 -993q-15 -21 -34 -21z" />
    <glyph glyph-name="N" unicode="N" horiz-adv-x="1271" 
d="M1323 1395q12 1 20 -9t7 -22l-238 -1348q-8 -32 -34 -32t-34 18l-595 1270l-222 -1258q-4 -31 -34 -30q-12 0 -21 9q-8 9 -6 21l240 1350q4 31 34 31q20 0 27 -17l600 -1265l221 1251q4 31 35 31z" />
    <glyph glyph-name="O" unicode="O" horiz-adv-x="1441" 
d="M723 -29q-254 0 -392 129t-138 383q0 382 183 643q92 131 242 206t345 75q254 0 392 -129t138 -383q0 -380 -183 -643q-92 -131 -242 -206t-345 -75zM727 29q181 -1 319 71q251 129 340 469q41 152 41 324q0 457 -469 457q-180 0 -318 -72q-249 -130 -341 -469
q-41 -152 -41 -324q0 -456 469 -456z" />
    <glyph glyph-name="P" unicode="P" horiz-adv-x="1110" 
d="M893 1378q143 0 228 -76t85 -233q0 -197 -131 -329t-317 -132h-400l-104 -592q-8 -33 -39 -32q-29 0 -27 32l234 1330q8 33 39 32h432zM743 666q176 0 286 112t110 283q0 260 -279 260h-377l-116 -655h376z" />
    <glyph glyph-name="Q" unicode="Q" horiz-adv-x="1439" 
d="M727 29q181 -1 319 71q251 129 340 469q41 152 41 324q0 457 -469 457q-180 0 -318 -72q-249 -130 -341 -469q-41 -152 -41 -324q0 -456 469 -456zM723 -29q-254 0 -392 129t-138 383q0 382 183 643q92 131 242 206t345 75q254 0 392 -129t138 -383q0 -453 -246 -712
q-129 -136 -313 -183q118 -23 192 -124q30 -40 29 -53q0 -13 -9 -23q-8 -10 -24 -9q-16 0 -24 12q-57 84 -130 126t-184 42h-61z" />
    <glyph glyph-name="R" unicode="R" horiz-adv-x="1124" 
d="M891 1378q141 0 228 -90t87 -242t-129 -285q-129 -134 -329 -134h-33l329 -594q6 -8 7 -19q0 -31 -31 -30q-18 0 -27 16l-344 627h-287l-108 -611q-4 -33 -39 -32q-29 0 -27 32l234 1330q8 33 39 32h430zM758 686q158 0 270 113t111 244q0 131 -71 205t-187 73h-398
l-112 -635h387z" />
    <glyph glyph-name="S" unicode="S" horiz-adv-x="1095" 
d="M381 1038q0 -92 72 -154t174 -98t204 -76q103 -40 175 -115t71 -187q0 -207 -139 -322t-410 -115q-297 0 -419 246q-14 27 -1 39t29 12t23 -16q100 -223 379 -223q219 0 346 96t127 272q0 85 -52 147t-130 94t-168 68t-167 70t-129 101q-52 68 -53 159q0 156 129 264
t355 107q262 0 389 -199q8 -12 8 -22q0 -31 -31 -31q-18 0 -26 16q-104 180 -351 181q-197 0 -301 -94t-104 -220z" />
    <glyph glyph-name="T" unicode="T" horiz-adv-x="1089" 
d="M322 1321q-25 0 -25 25q0 14 10 23t25 9h911q25 0 25 -24q0 -14 -10 -24t-25 -9h-424l-229 -1305q-8 -33 -37 -32q-14 0 -23 9q-8 9 -6 23l229 1305h-421z" />
    <glyph glyph-name="U" unicode="U" horiz-adv-x="1284" 
d="M246 293q0 51 10 113l168 956q8 33 39 33t26 -33l-167 -956q-10 -57 -11 -103q0 -274 346 -274q403 0 469 377l168 956q8 33 39 33q13 1 21 -9t6 -24l-168 -956q-31 -183 -148 -309t-397 -126q-213 0 -307 88t-94 234z" />
    <glyph glyph-name="V" unicode="V" horiz-adv-x="1163" 
d="M1330 1395q18 1 26 -9q10 -10 10 -22l-8 -23l-742 -1337q-10 -20 -36 -20t-29 20l-268 1331q-4 16 -4 23q0 37 34 37q27 0 31 -23l256 -1268l698 1268q14 23 32 23z" />
    <glyph glyph-name="W" unicode="W" horiz-adv-x="1687" 
d="M1858 1395q31 0 30 -29q0 -10 -6 -23l-618 -1335q-10 -24 -36 -24t-30 22l-133 1245l-569 -1245q-10 -22 -36 -22t-30 22l-151 1344q-4 45 36 45q27 0 31 -25l135 -1259l574 1261q10 23 35 23t28 -23l129 -1255l576 1255q12 23 35 23z" />
    <glyph glyph-name="X" unicode="X" horiz-adv-x="995" 
d="M279 1362q0 12 10 22q9 10 29 10t28 -22l285 -598l504 604q25 34 53 6q10 -10 10 -22t-10 -27l-529 -626l326 -674q4 -7 4 -19t-10 -22q-9 -10 -27 -10t-28 18l-312 649l-536 -651q-12 -16 -30 -16t-27 10t-9 22t13 29l561 670l-301 628q-4 7 -4 19z" />
    <glyph glyph-name="Y" unicode="Y" horiz-adv-x="1030" 
d="M279 1362q0 12 10 22q9 10 29 10t28 -22l291 -659l532 665q13 16 29 16t26 -10t9 -22q0 -12 -10 -27l-559 -684l-113 -635q-4 -32 -37 -32t-29 32l111 635l-313 690q-4 9 -4 21z" />
    <glyph glyph-name="Z" unicode="Z" horiz-adv-x="1017" 
d="M961 0h-912q-23 0 -22 25q0 12 12 26l1067 1270h-776q-25 0 -25 25q0 33 33 32h831q25 0 25 -24q0 -10 -10 -23l-1069 -1274h856q23 0 22 -24q1 -33 -32 -33z" />
    <glyph glyph-name="bracketleft" unicode="[" horiz-adv-x="477" 
d="M342 -268q0 -12 -9 -22t-22 -9h-188q-27 0 -23 27l312 1757q4 27 30 26h189q23 0 22 -22q0 -11 -10 -21t-22 -10h-154l-299 -1704h154q20 1 20 -22z" />
    <glyph glyph-name="backslash" unicode="\" horiz-adv-x="835" 
d="M410 1538q20 0 22 -22l268 -1674l2 -6q0 -14 -11 -25t-31 -11t-23 20l-268 1675l-2 6q0 14 11 26q12 11 32 11z" />
    <glyph glyph-name="bracketright" unicode="]" horiz-adv-x="479" 
d="M37 -276q0 12 9 21t22 9h153l301 1704h-153q-23 0 -23 23q0 12 10 21t23 9h188q27 0 23 -26l-311 -1757q-4 -27 -31 -27h-189q-22 0 -22 23z" />
    <glyph glyph-name="asciicircum" unicode="^" horiz-adv-x="958" 
d="M252 756q-27 0 -27 24q0 12 8 23l463 594q14 18 30 18t26 -18l249 -592q4 -8 5 -21q0 -29 -27 -28q-21 0 -29 18l-233 561l-436 -563q-10 -16 -29 -16z" />
    <glyph glyph-name="underscore" unicode="_" horiz-adv-x="831" 
d="M850 -137q0 -11 -9 -21t-22 -10h-864q-23 0 -23 23q0 12 10 21t21 9h864q23 1 23 -22z" />
    <glyph glyph-name="grave" unicode="`" horiz-adv-x="757" 
d="M403 1346q20 23 46 -3l245 -241q18 -16 3 -32t-33 1l-254 229q-27 23 -7 46z" />
    <glyph glyph-name="a" unicode="a" horiz-adv-x="962" 
d="M804 -14q-26 0 -26 24q0 6 2 17l41 200q-45 -104 -139 -178t-246 -74q-152 1 -231 93q-80 92 -80 251q0 263 140 451t386 188q178 0 277 -110l10 67q6 31 34 31t27 -26q0 -4 -2 -15l-161 -889q-6 -30 -32 -30zM188 319q0 -291 280 -291q148 0 258 138q112 137 144 342
l48 274q-90 123 -279 123t-320 -163t-131 -423z" />
    <glyph glyph-name="b" unicode="b" horiz-adv-x="1040" 
d="M1055 614q0 -246 -114 -433q-59 -95 -163 -151t-252 -56t-236 76q-89 77 -89 224q0 49 8 97l186 1056q4 31 35 31q12 0 20 -9t7 -22l-119 -663q6 8 15 21t45 46q139 127 308 127t259 -87t90 -257zM262 283q0 -129 76 -193t207 -63q221 0 333 169t111 416q0 293 -291 293
q-173 0 -314 -154q-32 -36 -48 -61l-14 -24l-52 -295q-8 -51 -8 -88z" />
    <glyph glyph-name="c" unicode="c" horiz-adv-x="901" 
d="M147 317q1 297 141 469t382 172q207 0 276 -137q4 -8 4 -18q0 -27 -28 -27q-14 0 -23 12q-70 117 -240 117q-211 0 -329 -164t-117 -422q0 -293 291 -292q135 0 284 102q10 6 19 6q27 0 27 -26q0 -16 -17 -27q-156 -109 -321 -109q-349 0 -349 344z" />
    <glyph glyph-name="d" unicode="d" horiz-adv-x="1028" 
d="M648 958q90 0 160 -25t126 -100q20 -28 27 -49l6 -20l118 663q4 31 35 31t27 -31l-186 -1056q-35 -193 -162 -295t-300 -102q-350 -1 -352 343q0 320 171 503q58 62 148 100q92 38 182 38zM213 319q0 -293 291 -292q152 0 260 86t135 258l51 295q-19 95 -78 156
q-29 32 -85 58t-128 25q-223 0 -335 -169t-111 -417z" />
    <glyph glyph-name="e" unicode="e" horiz-adv-x="942" 
d="M494 -27q-344 0 -344 340q0 193 71 351q39 86 97 150t150 105q92 39 217 39q124 0 198 -62q73 -62 73 -142t-28 -130q-48 -90 -200 -141q-146 -47 -503 -47q-12 -43 -12 -121q0 -135 61 -212q62 -77 228 -77t295 103q10 6 16 6q27 0 27 -26q0 -12 -17 -27
q-134 -109 -329 -109zM899 735q0 76 -63 123t-170 47q-166 0 -282 -102t-153 -314q260 1 353 17q94 16 149 34q101 34 145 108q21 38 21 87z" />
    <glyph glyph-name="f" unicode="f" horiz-adv-x="555" 
d="M233 877q-23 0 -22 22q0 11 10 21t21 10h116l23 129q27 150 126 247t279 97q23 0 23 -23q0 -31 -33 -30q-281 0 -334 -291l-22 -129h242q23 0 22 -23q0 -12 -10 -21t-21 -9h-243l-166 -928q-29 -156 -128 -258t-280 -103q-23 0 -22 23q0 12 9 21t23 10q145 0 229 85
q83 85 109 228l164 922h-115z" />
    <glyph glyph-name="g" unicode="g" horiz-adv-x="991" 
d="M199 -219q0 -68 53 -104t137 -35q164 0 273 83t141 250l57 308q-76 -130 -301 -225q-88 -36 -172 -72t-136 -86q-52 -51 -52 -119zM506 143q138 0 250 88t133 215l14 86q12 66 12 146q0 123 -75 175q-76 52 -193 52q-205 0 -319 -133t-115 -362q0 -133 77 -200
q78 -67 216 -67zM133 -242q0 104 77 181q56 54 203 110q42 16 132 47q-41 -4 -74 -4q-135 0 -229 86t-95 230q0 244 127 398t379 152q152 0 238 -70t86 -204q0 -72 -12 -141l-101 -568q-35 -197 -164 -291t-321 -96q-117 0 -181 54q-64 52 -65 116z" />
    <glyph glyph-name="h" unicode="h" 
d="M172 -16q-12 0 -20 9t-7 21l250 1413q4 31 35 31t27 -31l-117 -665q33 74 129 135q97 61 241 61t220 -72t76 -188q0 -55 -9 -102l-102 -582q-4 -31 -35 -30q-31 0 -26 30l102 582q8 49 8 92q0 217 -260 217q-156 0 -254 -98t-123 -232l-100 -561q-4 -30 -35 -30z" />
    <glyph glyph-name="i" unicode="i" horiz-adv-x="358" 
d="M408 1212q-31 0 -31 27q0 59 45 59q31 0 31 -26q0 -60 -45 -60zM350 946q31 0 27 -31l-160 -901q-4 -31 -35 -30q-33 0 -26 30l159 901q4 31 35 31z" />
    <glyph glyph-name="j" unicode="j" horiz-adv-x="368" 
d="M408 1212q-31 0 -31 27q0 59 45 59q31 0 31 -26q0 -60 -45 -60zM352 946q29 0 25 -31l-182 -1034q-25 -133 -118 -213t-218 -80q-23 0 -23 23q0 12 10 21t21 10q98 0 173 68t93 171l182 1034q1 11 13 21t24 10z" />
    <glyph glyph-name="k" unicode="k" horiz-adv-x="897" 
d="M827 -16q-16 0 -24 14l-336 526l-197 -145l-63 -365q-4 -31 -35 -30q-31 0 -27 30l250 1413q4 31 35 31q12 0 20 -9t7 -22l-168 -968l659 479q10 8 20 8t20 -8q9 -8 9 -21t-16 -26l-467 -332l336 -526q6 -8 6 -21q0 -28 -29 -28z" />
    <glyph glyph-name="l" unicode="l" horiz-adv-x="399" 
d="M430 1458q12 0 20 -9t7 -22l-215 -1222q-6 -33 -6 -62q0 -106 104 -106q23 0 22 -23q0 -12 -9 -21t-23 -9q-156 0 -156 153q0 31 6 68l215 1222q6 31 35 31z" />
    <glyph glyph-name="m" unicode="m" horiz-adv-x="1654" 
d="M1337 958q158 0 234 -72t76 -186q0 -47 -11 -104l-102 -582q-4 -31 -35 -30q-12 0 -20 9t-6 21l102 582q10 66 10 88q0 223 -258 223q-152 0 -241 -88t-113 -225l-103 -580q-4 -31 -34 -30q-12 0 -21 9q-8 9 -6 23l102 580q8 43 9 94q0 217 -250 217q-152 0 -247 -104
t-120 -252l-96 -537q-4 -31 -35 -30q-12 0 -20 9t-7 21l160 901q6 31 37 31q12 0 19 -9t6 -22l-27 -155q37 80 126 139t218 59t202 -56t93 -144q102 200 358 200z" />
    <glyph glyph-name="n" unicode="n" 
d="M172 -16q-12 0 -20 9t-7 21l160 901q4 31 35 31t27 -31l-27 -153q33 74 129 135q97 61 241 61t220 -72t76 -188q0 -55 -9 -102l-102 -582q-4 -31 -35 -30q-31 0 -26 30l102 582q8 49 8 92q0 217 -260 217q-156 0 -254 -98t-123 -232l-100 -561q-4 -30 -35 -30z" />
    <glyph glyph-name="o" unicode="o" horiz-adv-x="999" 
d="M1014 614q0 -121 -28 -229q-106 -412 -506 -412q-154 0 -243 86t-90 258q0 320 171 503q58 62 148 100t202 38q168 0 257 -86t89 -258zM504 27q221 0 333 169t111 416q0 293 -291 293q-221 0 -333 -169t-111 -417q0 -292 291 -292z" />
    <glyph glyph-name="p" unicode="p" horiz-adv-x="1044" 
d="M272 319q0 -147 74 -220t203 -72q213 -1 329 159t115 426q0 150 -78 222t-213 71q-198 0 -314 -160t-116 -426zM1059 614q0 -246 -114 -433q-59 -95 -163 -151t-243 -57q-77 0 -135 23q-58 24 -87 56q-62 69 -71 120l-4 23l-105 -576q-4 -31 -35 -31t-26 33l229 1294
q4 31 34 31t28 -33l-29 -157q121 203 375 202q166 0 256 -88t90 -256z" />
    <glyph glyph-name="q" unicode="q" horiz-adv-x="1005" 
d="M160 317q0 249 113 434q59 95 163 151t252 56t239 -76t91 -225q0 -47 -8 -94l-166 -944q-6 -31 -35 -31q-15 0 -23 10t-4 21l97 549q-5 -8 -15 -22t-46 -46q-139 -127 -309 -127q-349 0 -349 344zM956 647q0 129 -76 194q-77 65 -208 64q-223 0 -335 -169t-112 -417
q0 -293 291 -292q140 0 238 82t127 133l16 24l51 297q8 51 8 84z" />
    <glyph glyph-name="r" unicode="r" horiz-adv-x="604" 
d="M340 946q12 0 20 -9t7 -22l-35 -192q49 109 149 171t242 62q23 0 22 -22q0 -12 -10 -22t-22 -9q-174 0 -281 -111q-106 -112 -139 -296l-86 -482q-4 -31 -35 -30q-31 0 -27 30l160 901q4 31 35 31z" />
    <glyph glyph-name="s" unicode="s" horiz-adv-x="817" 
d="M561 905q-113 0 -193 -51t-81 -149q0 -68 52 -114t126 -74q73 -29 147 -57t126 -77t53 -121q-1 -141 -107 -215t-281 -74q-117 0 -199 42t-120 96q-8 12 -8 23q0 12 9 20t22 8t22 -12q90 -123 285 -123q135 0 224 55t89 166t-176 177q-74 29 -149 57t-126 81t-51 131
q1 127 99 196t245 68q195 0 283 -120q6 -10 6 -19q0 -27 -27 -26q-12 0 -20 8q-92 104 -250 104z" />
    <glyph glyph-name="t" unicode="t" horiz-adv-x="552" 
d="M610 930q23 0 23 -23q0 -12 -9 -21t-22 -9h-184l-115 -652q-4 -27 -4 -49q0 -68 38 -104t103 -35q23 0 23 -23q0 -12 -10 -21t-23 -9q-94 0 -144 49t-50 133q0 27 6 63l114 648h-127q-23 0 -22 22q0 11 10 21t21 10h127l45 250q4 31 34 30q12 0 20 -8t7 -22l-45 -250h184
z" />
    <glyph glyph-name="u" unicode="u" horiz-adv-x="995" 
d="M321 946q30 0 25 -31l-102 -577q-8 -43 -8 -94q0 -106 59 -162t224 -55q165 0 246 83t105 228l103 577q6 31 35 31q12 0 20 -9t6 -22l-102 -577q-27 -154 -116 -260q-89 -105 -322 -105q-319 0 -320 260q0 43 10 105l101 577q6 31 36 31z" />
    <glyph glyph-name="v" unicode="v" horiz-adv-x="876" 
d="M973 946q29 0 28 -26q0 -8 -6 -21l-530 -899q-9 -16 -29 -16t-26 22l-207 885q-4 16 -4 22q0 33 32 33q23 0 29 -20l191 -848l491 848q12 20 31 20z" />
    <glyph glyph-name="w" unicode="w" horiz-adv-x="1343" 
d="M396 -16q-22 0 -25 20l-168 887q-4 16 -4 20q0 35 32 35q25 0 29 -20l152 -842l395 844q9 18 29 18t24 -18l103 -844l448 842q9 20 25 20t25 -8t9 -15t-8 -24l-485 -895q-10 -20 -33 -20t-26 20l-99 827l-391 -827q-10 -20 -32 -20z" />
    <glyph glyph-name="x" unicode="x" horiz-adv-x="788" 
d="M66 -16q-12 0 -22 9q-9 9 -9 21t10 23l399 440l-233 418q-6 12 -6 22q0 9 9 19q10 10 24 10t24 -16l225 -408l365 410q14 14 26 14t22 -9q9 -9 9 -21t-6 -19l-389 -426l238 -442q4 -7 4 -17t-10 -19t-24 -9q-16 0 -24 16l-227 428l-381 -432q-12 -12 -24 -12z" />
    <glyph glyph-name="y" unicode="y" horiz-adv-x="991" 
d="M201 -219q0 -68 53 -104t137 -35q164 0 273 83t141 250l57 299q-77 -132 -301 -221q-88 -35 -172 -69t-136 -85q-52 -50 -52 -118zM473 92q-123 0 -202 68t-78 196q0 43 10 105l82 454q6 31 36 31t25 -31l-82 -454q-8 -45 -8 -94q0 -217 268 -217q88 0 158 30
q170 74 209 285l82 450q6 31 35 31q12 0 20 -9t6 -22l-168 -940q-35 -197 -164 -291t-321 -96q-117 0 -181 54t-65 116q0 104 77 181q56 54 203 110q42 16 132 47q-41 -4 -74 -4z" />
    <glyph glyph-name="z" unicode="z" horiz-adv-x="794" 
d="M233 899q-1 11 9 21t24 10h611q23 0 22 -23q0 -14 -12 -26l-748 -828h596q23 0 23 -22q0 -11 -9 -21t-22 -10h-655q-23 0 -23 23q0 10 10 20l752 834h-555q-23 -1 -23 22z" />
    <glyph glyph-name="braceleft" unicode="{" horiz-adv-x="602" 
d="M430 -246q23 0 23 -22q-1 -12 -11 -22t-22 -9q-72 0 -115 39q-43 38 -43 110t61 274q60 202 60 286q0 172 -180 172h-21q-20 0 -20 20q0 29 28 29h21q213 0 254 223q16 84 31 253q14 169 28 241t70 118q56 45 145 45q23 0 23 -22q0 -11 -10 -21t-21 -10q-115 0 -143 -119
q-14 -63 -37 -238t-41 -269t-84 -160q-64 -66 -158 -66q80 0 123 -53t43 -123t-53 -292t-53 -290q0 -94 102 -94z" />
    <glyph glyph-name="bar" unicode="|" horiz-adv-x="446" 
d="M165 -328q-32 0 -28 31l340 1921q4 31 35 31q14 0 23 -9q8 -10 6 -22l-340 -1921q-4 -31 -36 -31z" />
    <glyph glyph-name="braceright" unicode="}" horiz-adv-x="602" 
d="M385 1458q-23 0 -23 23q0 12 10 21t23 9q72 -1 115 -39t43 -110t-60 -274t-61 -285q0 -172 180 -172h21q20 0 20 -21q0 -29 -28 -28h-21q-213 0 -254 -224q-16 -84 -30 -253t-29 -241t-71 -118q-56 -45 -144 -45q-23 0 -23 23q0 12 10 21t21 9q115 0 143 119
q14 63 37 239q24 176 42 268q18 93 82 160q65 67 159 66q-80 0 -123 53t-43 124t53 292t53 289q0 94 -102 94z" />
    <glyph glyph-name="asciitilde" unicode="~" horiz-adv-x="976" 
d="M784 575q102 0 195 125q12 16 31 17q23 0 22 -23q0 -12 -8 -22q-33 -51 -98 -101q-66 -49 -144 -49t-176 72t-162 72q-102 0 -194 -125q-12 -16 -31 -17q-23 0 -22 23q0 12 8 22q33 51 98 101q66 49 141 49q74 0 130 -36t108 -72t102 -36z" />
    <glyph glyph-name="nbspace" unicode="&#xa0;" horiz-adv-x="579" 
 />
    <glyph glyph-name="exclamdown" unicode="&#xa1;" horiz-adv-x="288" 
d="M313 958q39 0 39 -36q0 -59 -57 -60q-39 0 -39 37q0 59 57 59zM266 688q20 0 17 -18l-177 -1088q-6 -35 -43 -35t-30 35l209 1088q4 18 24 18z" />
    <glyph glyph-name="cent" unicode="&#xa2;" horiz-adv-x="901" 
d="M147 317q1 287 133 458t359 181l25 140q4 29 32 28q29 0 25 -28l-25 -140q180 -8 250 -135q4 -8 4 -18q0 -27 -28 -27q-14 0 -23 12q-70 117 -240 117q-211 0 -329 -164t-117 -422q0 -293 291 -292q135 0 284 102q10 6 19 6q27 0 27 -26q0 -16 -17 -27
q-143 -98 -293 -107l-28 -165q-4 -29 -33 -29t-25 29l29 165q-320 12 -320 342z" />
    <glyph glyph-name="sterling" unicode="&#xa3;" horiz-adv-x="1210" 
d="M1145 182q27 0 26 -22q0 -10 -8 -23q-115 -170 -323 -170q-76 0 -182 52t-181 53q-135 0 -258 -82q-12 -8 -22 -8q-27 0 -27 26q0 18 16 29q102 68 184 174q81 107 81 205t-29 194h-133q-23 0 -23 23q0 12 9 21t22 10h111q-63 170 -64 290q0 197 141 325t363 128
q172 0 274 -79t115 -202q4 -37 -27 -36q-27 0 -30 26q-31 238 -340 238q-182 0 -308 -109t-126 -282q0 -117 67 -299h391q23 0 23 -23q0 -12 -10 -21t-21 -10h-369q25 -80 25 -180t-62 -194t-143 -152q86 41 176 41q91 0 195 -52t164 -53q182 0 278 146q11 16 25 16z" />
    <glyph glyph-name="currency" unicode="&#xa4;" horiz-adv-x="956" 
d="M664 319q133 1 217 93t84 227t-84 227t-217 92q-132 0 -220 -93t-88 -226t88 -227t220 -93zM664 266q-143 0 -246 92l-127 -129q-10 -10 -21 -10q-27 0 -26 27q0 12 10 22l125 131q-80 101 -80 239t82 241l-127 135q-10 10 -10 22q0 27 26 27q10 0 21 -10l129 -133
q102 92 242 92t239 -88l127 129q10 10 21 10q27 0 26 -27q0 -12 -10 -22l-125 -131q82 -103 82 -243t-82 -243l125 -129q10 -10 10 -22q0 -27 -26 -27q-10 0 -21 10l-125 127q-96 -90 -239 -90z" />
    <glyph glyph-name="yen" unicode="&#xa5;" horiz-adv-x="1028" 
d="M268 391q-23 0 -22 23q0 12 10 21t20 9h283l29 154h-283q-23 0 -22 23q0 12 9 21t21 9h285l-319 690q-4 8 -5 17q0 37 37 37q23 0 31 -19l299 -663l528 665q29 33 55 7q9 -9 9 -20t-10 -26l-559 -688h278q23 0 23 -22q-1 -11 -11 -21t-20 -10h-281l-28 -154h280
q23 0 23 -22q0 -12 -9 -22t-22 -9h-281l-65 -375q-8 -32 -39 -32t-27 32l66 375h-283z" />
    <glyph glyph-name="brokenbar" unicode="&#xa6;" horiz-adv-x="446" 
d="M165 -328q-32 0 -28 31l154 864q4 31 35 31q14 0 22 -10t6 -21l-153 -864q-4 -31 -36 -31zM351 729q-32 0 -27 31l153 864q4 31 35 31q14 0 23 -9q8 -10 6 -22l-154 -864q-4 -31 -36 -31z" />
    <glyph glyph-name="section" unicode="&#xa7;" horiz-adv-x="1032" 
d="M893 -47q0 -154 -120 -259t-351 -106q-129 0 -221 47t-133 129q-4 8 -5 19q0 31 31 31q18 0 29 -19q39 -69 107 -111t202 -42q188 0 292 91q103 91 103 214q0 92 -65 152q-66 59 -159 93t-187 68t-160 100t-66 168q0 188 199 334q-78 82 -78 187q0 150 120 254t347 104
q127 0 220 -48t137 -130q4 -8 4 -15q0 -29 -27 -28q-16 0 -27 16q-27 41 -53 69q-28 27 -98 55t-166 28q-188 0 -288 -88t-101 -211q0 -92 65 -153q66 -60 160 -93t188 -69t160 -102t66 -166t-60 -192t-143 -145q78 -82 78 -182zM254 537q0 -83 57 -139t131 -81
q246 -83 332 -147q176 131 176 293q0 86 -56 143t-129 83t-174 64t-159 78q-178 -120 -178 -294z" />
    <glyph glyph-name="dieresis" unicode="&#xa8;" horiz-adv-x="507" 
d="M612 1114q-37 0 -37 31q0 63 56 63q37 0 37 -30q-1 -64 -56 -64zM285 1114q-37 0 -37 31q0 63 55 63q37 0 37 -30q0 -64 -55 -64z" />
    <glyph glyph-name="copyright" unicode="&#xa9;" horiz-adv-x="1662" 
d="M938 -29q-328 1 -505 181t-177 537t177 537t505 181q328 0 505 -180q177 -179 177 -537t-177 -538t-505 -181zM940 317q-164 0 -249 87t-85 284q0 377 334 377q88 0 158 -38t94 -85q4 -8 4 -16q0 -25 -22 -25q-14 0 -23 10q-74 101 -211 101t-205 -72q-67 -72 -67 -253
t66 -248t212 -67q144 0 203 99q8 12 22 12q25 0 25 -24q0 -12 -6 -21q-38 -53 -106 -87t-144 -34zM938 25q621 1 621 665t-621 664t-621 -664t621 -665z" />
    <glyph glyph-name="ordfeminine" unicode="&#xaa;" horiz-adv-x="780" 
d="M332 975q0 -182 178 -182q106 0 177 85t95 224l33 184q-69 68 -185 68t-207 -104t-91 -275zM500 739q-109 0 -167 65t-59 171q0 174 102 303t265 129q111 0 184 -66l6 31q4 27 31 27q10 0 18 -8t5 -19l-109 -600q-4 -27 -30 -27t-23 27l25 125q-74 -158 -248 -158z
M799 588q0 -12 -9 -22t-22 -9h-561q-23 0 -23 23q0 12 10 21t21 9h561q23 1 23 -22z" />
    <glyph glyph-name="guillemotleft" unicode="&#xab;" horiz-adv-x="950" 
d="M825 16q0 -29 -28 -28q-14 0 -23 12l-282 414q-14 19 4 37l430 421q19 19 34 5q15 -13 15 -25t-8 -21l-416 -401l268 -395q6 -10 6 -19zM199 431q0 9 10 20l430 421q19 19 34 5q15 -13 15 -25t-8 -21l-416 -401l268 -395q6 -10 7 -19q0 -29 -29 -28q-14 0 -23 12
l-282 414q-6 8 -6 17z" />
    <glyph glyph-name="logicalnot" unicode="&#xac;" horiz-adv-x="1153" 
d="M236 575q-23 0 -23 23q0 12 10 22t21 9h884q27 0 23 -27l-84 -473q-4 -31 -35 -31q-14 0 -22 10t-4 21l77 446h-847z" />
    <glyph glyph-name="registered" unicode="&#xae;" horiz-adv-x="772" 
d="M520 1102h86q57 0 58 55q0 57 -58 57h-86v-112zM520 1061v-105q0 -23 -22 -22q-23 0 -23 22v277q0 23 23 22h118q45 -1 70 -29t25 -68q1 -40 -23 -68t-61 -29l69 -86q8 -8 9 -19q0 -23 -23 -22q-10 0 -20 12l-84 115h-58zM587 823q255 -1 255 271t-255 272t-255 -272
t255 -271zM586 1407q301 0 301 -312t-301 -313q-143 0 -221 79t-78 235t78 234t221 77z" />
    <glyph glyph-name="macron" unicode="&#xaf;" horiz-adv-x="782" 
d="M838 1165q0 -31 -31 -30h-430q-23 0 -23 22q0 11 10 21t21 10h430q23 0 23 -23z" />
    <glyph glyph-name="degree" unicode="&#xb0;" horiz-adv-x="729" 
d="M342 1124q0 -94 65 -160t161 -65q96 0 162 67q67 68 67 160t-67 160t-163 68q-97 0 -161 -68t-64 -162zM289 1126q0 117 82 199q83 82 199 82t198 -82t82 -199q0 -116 -82 -198t-199 -82t-199 82t-81 198z" />
    <glyph glyph-name="plusminus" unicode="&#xb1;" horiz-adv-x="929" 
d="M934 31q0 -11 -9 -21t-22 -10h-876q-23 0 -23 23q0 12 10 21t21 9h876q23 1 23 -22zM1040 631q0 -11 -10 -21t-20 -10h-408l-72 -405q-2 -11 -13 -21t-23 -10q-29 0 -25 31l72 405h-408q-23 0 -22 23q0 12 9 21t21 9h408l72 408q5 31 35 31t26 -31l-72 -408h408
q22 1 22 -22z" />
    <glyph glyph-name="twosuperior" unicode="&#xb2;" horiz-adv-x="530" 
d="M526 1495q86 0 136 -42t51 -115q0 -73 -47 -130t-114 -88q-66 -32 -132 -58t-113 -62t-47 -85h352q18 -1 18 -23t-26 -22h-379q-18 0 -18 19q0 72 47 121q47 50 114 78l132 56t112 76t47 117q0 113 -141 113q-100 0 -162 -98q-8 -14 -26 -14t-19 20q0 10 6 18
q68 119 209 119z" />
    <glyph glyph-name="threesuperior" unicode="&#xb3;" horiz-adv-x="526" 
d="M502 1241q80 0 122 -44t42 -110q0 -229 -263 -229q-145 0 -180 100q-4 12 -4 19q0 23 23 22q14 0 20 -14q18 -45 52 -63t119 -18t132 44q47 45 47 137q0 113 -143 113h-41q-23 0 -22 19q0 12 10 22l213 199h-275q-20 0 -20 18q0 27 26 27h326q20 -1 20 -15t-14 -28
l-215 -199h25z" />
    <glyph glyph-name="acute" unicode="&#xb4;" horiz-adv-x="757" 
d="M737 1346q20 -23 -6 -46l-254 -229q-18 -16 -33 -2q-14 16 2 33l246 241q25 26 45 3z" />
    <glyph glyph-name="mu" unicode="&#xb5;" horiz-adv-x="995" 
d="M319 946q13 0 21 -9t6 -22l-102 -577q-8 -43 -8 -96q0 -102 59 -158t223 -57q164 0 245 83t107 228l103 577q4 31 35 31q12 0 20 -9t6 -22l-102 -577q-29 -166 -127 -265t-311 -100q-119 0 -194 41t-95 107l-90 -510q-4 -31 -35 -31t-27 31l232 1304q3 31 34 31z" />
    <glyph glyph-name="paragraph" unicode="&#xb6;" horiz-adv-x="888" 
d="M932 1325h-158l-164 -924q-26 -135 -70 -222t-124 -156q94 37 165 100t134 196t98 332zM178 -68q-139 0 -139 45q0 27 29 27q10 0 38 -9t82 -9q145 0 235 109q89 110 124 300l59 340h-112q-119 0 -193 79t-74 196q0 150 113 260t268 108h461q23 1 23 -22q0 -12 -10 -22
t-23 -9h-66l-119 -674q-68 -375 -238 -547t-458 -172z" />
    <glyph glyph-name="periodcentered" unicode="&#xb7;" horiz-adv-x="335" 
d="M262 555q-49 0 -49 47q0 76 70 76q49 0 49 -47q0 -76 -70 -76z" />
    <glyph glyph-name="cedilla" unicode="&#xb8;" horiz-adv-x="645" 
d="M281 -119q145 -1 145 -149q0 -78 -52 -134t-146 -56t-134 30q-12 10 -12 20q0 20 20 21q8 -1 33 -17t76 -16q166 0 166 164q0 100 -103 100q-26 0 -50 -6t-32 -6q-19 0 -14 27l33 141h41l-33 -127q29 8 62 8z" />
    <glyph glyph-name="onesuperior" unicode="&#xb9;" horiz-adv-x="356" 
d="M301 1333q-20 0 -20 23q0 14 14 22l170 103q14 8 22 8q23 0 19 -25l-100 -575q-4 -25 -29 -25t-21 25l97 532l-131 -82q-12 -6 -21 -6z" />
    <glyph glyph-name="ordmasculine" unicode="&#xba;" horiz-adv-x="681" 
d="M471 739q-238 0 -238 234q1 174 89 304t266 130q238 0 237 -233q0 -174 -88 -304t-266 -131zM479 793q141 -1 214 109t73 263q0 188 -186 189q-141 0 -214 -110t-73 -263q0 -188 186 -188zM766 588q0 -12 -9 -22t-22 -9h-592q-23 0 -22 23q0 12 10 21t21 9h591
q23 1 23 -22z" />
    <glyph glyph-name="guillemotright" unicode="&#xbb;" horiz-adv-x="948" 
d="M303 881q12 0 23 -13l282 -413q6 -7 6 -17t-10 -20l-430 -422q-8 -8 -19 -8t-21 8q-9 8 -9 20t8 21l416 401l-268 396q-6 10 -7 18q0 29 29 29zM561 852q0 29 29 29q12 0 22 -13l283 -413q6 -7 6 -17t-10 -20l-430 -422q-7 -8 -19 -8t-21 8t-9 20t8 21l416 401l-269 396
q-6 10 -6 18z" />
    <glyph glyph-name="onequarter" unicode="&#xbc;" horiz-adv-x="960" 
d="M205 -16q-23 0 -23 20q0 8 4 16l764 1358q8 16 25 17q23 0 22 -21q0 -8 -4 -16l-764 -1358q-8 -16 -24 -16zM537 184h239l58 330zM889 184q18 0 18 -18q0 -27 -26 -27h-64l-22 -131q-4 -25 -29 -24q-25 0 -21 24l23 131h-281q-20 0 -20 19q0 10 10 20l371 416
q14 14 26 14q25 0 21 -24l-70 -400h64zM322 1245q-20 1 -20 19t13 26l170 103q14 8 23 8q23 0 18 -25l-100 -575q-4 -25 -29 -25t-20 25l96 532l-131 -82q-12 -6 -20 -6z" />
    <glyph glyph-name="onehalf" unicode="&#xbd;" horiz-adv-x="1044" 
d="M885 625q86 0 136 -42t50 -115t-47 -130t-114 -88q-66 -32 -132 -58q-158 -64 -160 -147h353q18 0 18 -18q0 -27 -26 -27h-379q-18 0 -19 18q0 72 47 121t114 78q66 29 132 57t113 75q47 48 47 118q0 113 -141 113q-100 0 -162 -99q-8 -14 -23 -14q-23 0 -22 20q0 9 6 19
q68 119 209 119zM205 -16q-23 0 -23 20q0 8 4 16l764 1358q8 16 25 17q23 0 22 -21q0 -8 -4 -16l-764 -1358q-8 -16 -24 -16zM322 1245q-20 1 -20 19t13 26l170 103q14 8 23 8q23 0 18 -25l-100 -575q-4 -25 -29 -25t-20 25l96 532l-131 -82q-12 -6 -20 -6z" />
    <glyph glyph-name="threequarters" unicode="&#xbe;" horiz-adv-x="1071" 
d="M651 184h240l57 330zM1004 184q18 0 18 -18q0 -27 -27 -27h-63l-23 -131q-4 -25 -28 -24q-25 0 -21 24l23 131h-281q-20 0 -20 19q0 10 10 20l371 416q14 14 26 14q25 0 21 -24l-70 -400h64zM319 -16q-23 0 -22 20q0 8 4 16l764 1358q8 16 25 17q23 0 22 -21q0 -8 -4 -16
l-764 -1358q-8 -16 -25 -16zM487 1153q80 0 122 -44t42 -110q0 -229 -262 -229q-143 0 -180 100q-4 12 -4 19q0 23 22 22q14 0 21 -14q18 -45 52 -63t118 -18t133 44q47 45 47 137q0 113 -143 113h-41q-23 0 -23 18q0 12 10 23l213 199h-274q-20 0 -20 22t26 23h326
q20 0 20 -19q0 -10 -14 -24l-215 -199h24z" />
    <glyph glyph-name="questiondown" unicode="&#xbf;" horiz-adv-x="944" 
d="M700 958q39 0 39 -36q0 -59 -57 -60q-39 0 -39 37q0 59 57 59zM123 -160q0 -124 75 -188t212 -64q319 0 372 312q4 31 35 30q31 0 27 -30q-57 -365 -438 -365q-166 0 -255 79q-89 78 -89 198q-1 216 114 327q88 84 234 155q61 30 112 62q115 73 115 193q-1 47 -15 75
t-14 35q0 31 31 31q17 0 27 -14q32 -47 32 -136t-59 -157t-144 -109t-169 -88t-144 -135t-59 -211z" />
    <glyph glyph-name="Agrave" unicode="&#xc0;" horiz-adv-x="1261" 
d="M692 1761q20 23 45 -2l246 -241q16 -18 2 -32t-33 1l-254 229q-26 22 -6 45zM98 -16q-29 0 -28 28q0 8 8 23l762 1337q12 23 36 23t29 -23l293 -1339q4 -17 -6 -33t-33 -16t-29 30l-88 424h-665l-246 -434q-12 -20 -33 -20zM1032 498l-170 794l-452 -794h622z" />
    <glyph glyph-name="Aacute" unicode="&#xc1;" horiz-adv-x="1261" 
d="M1085 1761q20 -23 -6 -45l-254 -229q-18 -16 -32 -2t2 33l245 241q25 25 45 2zM98 -16q-29 0 -28 28q0 8 8 23l762 1337q12 23 36 23t29 -23l293 -1339q4 -17 -6 -33t-33 -16t-29 30l-88 424h-665l-246 -434q-12 -20 -33 -20zM1032 498l-170 794l-452 -794h622z" />
    <glyph glyph-name="Acircumflex" unicode="&#xc2;" horiz-adv-x="1261" 
d="M686 1485q-10 0 -17 8t-7 19t12 22l237 180q13 10 23 10t20 -10l170 -182q8 -8 9 -21q0 -27 -27 -26q-12 0 -25 12l-151 168l-223 -172q-11 -8 -21 -8zM98 -16q-29 0 -28 28q0 8 8 23l762 1337q12 23 36 23t29 -23l293 -1339q4 -17 -6 -33t-33 -16t-29 30l-88 424h-665
l-246 -434q-12 -20 -33 -20zM1032 498l-170 794l-452 -794h622z" />
    <glyph glyph-name="Atilde" unicode="&#xc3;" horiz-adv-x="1261" 
d="M1024 1497q-61 0 -135 44t-123 44q-72 0 -119 -78q-8 -14 -24 -14q-25 0 -25 23q0 8 13 34t57 58q44 30 101 30q58 0 136 -44t125 -44q70 0 117 80q10 16 27 17q25 0 24 -23q0 -8 -6 -20q-59 -107 -168 -107zM98 -16q-29 0 -28 28q0 8 8 23l762 1337q12 23 36 23t29 -23
l293 -1339q4 -17 -6 -33t-33 -16t-29 30l-88 424h-665l-246 -434q-12 -20 -33 -20zM1032 498l-170 794l-452 -794h622z" />
    <glyph glyph-name="Adieresis" unicode="&#xc4;" horiz-adv-x="1261" 
d="M1059 1518q-37 0 -37 30q0 63 55 64q37 0 37 -31q0 -63 -55 -63zM731 1518q-37 0 -37 30q0 63 56 64q37 0 36 -31q0 -63 -55 -63zM98 -16q-29 0 -28 28q0 8 8 23l762 1337q12 23 36 23t29 -23l293 -1339q4 -17 -6 -33t-33 -16t-29 30l-88 424h-665l-246 -434
q-12 -20 -33 -20zM1032 498l-170 794l-452 -794h622z" />
    <glyph glyph-name="Aring" unicode="&#xc5;" horiz-adv-x="1261" 
d="M893 1485q94 0 142 52t48 142q0 117 -135 117q-94 0 -142 -52t-48 -142q0 -117 135 -117zM956 1841q180 0 181 -160q0 -106 -65 -174t-187 -67q-180 0 -180 159q0 106 64 174t187 68zM98 -16q-29 0 -28 28q0 8 8 23l762 1337q12 23 36 23t29 -23l293 -1339q4 -17 -6 -33
t-33 -16t-29 30l-88 424h-665l-246 -434q-12 -20 -33 -20zM1032 498l-170 794l-452 -794h622z" />
    <glyph glyph-name="AE" unicode="&#xc6;" horiz-adv-x="1748" 
d="M492 498h481l133 753zM1636 0h-718q-31 0 -27 33l72 405h-517l-356 -440q-12 -14 -26 -14q-32 0 -33 28q0 14 10 27l1081 1317q18 23 43 22h688q25 0 25 -24q0 -14 -10 -24t-25 -9h-659l-107 -598h516q25 0 25 -25q0 -14 -10 -23t-25 -9h-516l-106 -609h686q25 0 24 -24
q0 -14 -10 -24q-11 -9 -25 -9z" />
    <glyph glyph-name="Ccedilla" unicode="&#xc7;" horiz-adv-x="1273" 
d="M716 -119q50 0 89 -35q39 -36 39 -114t-52 -134t-146 -56t-134 30q-12 10 -12 20q0 20 20 21q8 -1 33 -17t76 -16q166 0 166 164q0 100 -103 100q-26 0 -50 -6t-32 -6q-19 0 -14 27l27 118q-207 23 -319 150t-111 356q0 383 184 643q92 131 245 206q152 75 320 75
q312 0 444 -213q15 -24 1 -38q-13 -13 -27 -13t-25 16q-121 190 -374 191q-179 0 -319 -72q-250 -129 -343 -469q-41 -152 -41 -324q0 -457 471 -456q248 0 438 190q13 12 25 12t21 -9q22 -22 -1 -44q-207 -207 -487 -207l-63 2l-25 -100q29 8 79 8z" />
    <glyph glyph-name="Egrave" unicode="&#xc8;" horiz-adv-x="1048" 
d="M662 1761q20 23 45 -2l245 -241q18 -18 3 -32t-33 1l-254 229q-26 22 -6 45zM932 0h-721q-33 0 -25 33l232 1313q8 33 37 32h694q25 0 25 -24q0 -14 -10 -24t-25 -9h-662l-104 -598h516q25 0 24 -25q0 -14 -10 -23t-24 -9h-517l-106 -609h686q23 0 23 -24q0 -33 -33 -33z
" />
    <glyph glyph-name="Eacute" unicode="&#xc9;" horiz-adv-x="1048" 
d="M1034 1761q20 -23 -6 -45l-254 -229q-18 -16 -34 -2t3 33l246 241q25 25 45 2zM932 0h-721q-33 0 -25 33l232 1313q8 33 37 32h694q25 0 25 -24q0 -14 -10 -24t-25 -9h-662l-104 -598h516q25 0 24 -25q0 -14 -10 -23t-24 -9h-517l-106 -609h686q23 0 23 -24
q0 -33 -33 -33z" />
    <glyph glyph-name="Ecircumflex" unicode="&#xca;" horiz-adv-x="1048" 
d="M630 1485q-9 0 -17 8q-7 8 -7 19t12 22l238 180q14 10 24 10t19 -10l170 -182q8 -8 8 -21q0 -27 -26 -26q-12 0 -25 12l-152 168l-223 -172q-12 -8 -21 -8zM932 0h-721q-33 0 -25 33l232 1313q8 33 37 32h694q25 0 25 -24q0 -14 -10 -24t-25 -9h-662l-104 -598h516
q25 0 24 -25q0 -14 -10 -23t-24 -9h-517l-106 -609h686q23 0 23 -24q0 -33 -33 -33z" />
    <glyph glyph-name="Edieresis" unicode="&#xcb;" horiz-adv-x="1048" 
d="M1006 1518q-37 0 -37 30q0 63 55 64q37 0 37 -31q0 -63 -55 -63zM678 1518q-37 0 -37 30q0 63 55 64q37 0 37 -31q0 -63 -55 -63zM932 0h-721q-33 0 -25 33l232 1313q8 33 37 32h694q25 0 25 -24q0 -14 -10 -24t-25 -9h-662l-104 -598h516q25 0 24 -25q0 -14 -10 -23
t-24 -9h-517l-106 -609h686q23 0 23 -24q0 -33 -33 -33z" />
    <glyph glyph-name="Igrave" unicode="&#xcc;" horiz-adv-x="434" 
d="M285 1761q20 23 45 -2l245 -241q17 -18 3 -32t-33 1l-254 229q-26 22 -6 45zM463 1395q31 0 26 -33l-235 -1346q-6 -33 -39 -32q-29 0 -27 32l236 1346q8 33 39 33z" />
    <glyph glyph-name="Iacute" unicode="&#xcd;" horiz-adv-x="434" 
d="M692 1761q20 -23 -6 -45l-254 -229q-18 -16 -33 -2q-14 14 2 33l246 241q25 25 45 2zM463 1395q31 0 26 -33l-235 -1346q-6 -33 -39 -32q-29 0 -27 32l236 1346q8 33 39 33z" />
    <glyph glyph-name="Icircumflex" unicode="&#xce;" horiz-adv-x="434" 
d="M266 1485q-10 0 -17 8t-7 19t12 22l238 180q14 10 23 10t20 -10l170 -182q8 -8 8 -21q0 -27 -27 -26q-12 0 -24 12l-152 168l-223 -172q-11 -8 -21 -8zM463 1395q31 0 26 -33l-235 -1346q-6 -33 -39 -32q-29 0 -27 32l236 1346q8 33 39 33z" />
    <glyph glyph-name="Idieresis" unicode="&#xcf;" horiz-adv-x="434" 
d="M643 1518q-37 0 -37 30q0 63 56 64q37 0 36 -31q0 -63 -55 -63zM315 1518q-37 0 -36 30q0 63 55 64q37 0 37 -31q-1 -63 -56 -63zM463 1395q31 0 26 -33l-235 -1346q-6 -33 -39 -32q-29 0 -27 32l236 1346q8 33 39 33z" />
    <glyph glyph-name="Eth" unicode="&#xd0;" horiz-adv-x="1243" 
d="M850 741q23 0 22 -22q0 -11 -9 -21t-21 -10h-473l-111 -631h272q330 0 513 217t184 619q0 229 -121 329t-352 99h-273l-102 -580h471zM459 1378h305q258 0 393 -112t135 -363q0 -300 -106 -519q-118 -244 -365 -335q-133 -49 -301 -49h-305q-29 0 -27 33l115 655h-106
q-23 0 -23 23q0 12 10 21t21 9h108l107 605q8 32 39 32z" />
    <glyph glyph-name="Ntilde" unicode="&#xd1;" horiz-adv-x="1271" 
d="M1051 1497q-61 0 -137 44t-121 44q-72 0 -119 -78q-8 -14 -25 -14q-25 0 -24 23q0 8 13 34t56 58q42 30 102 30t136 -44t125 -44q70 0 117 80q10 16 30 16t21 -22q0 -8 -6 -20q-59 -107 -168 -107zM1323 1395q12 1 20 -9t7 -22l-238 -1348q-8 -32 -34 -32t-34 18
l-595 1270l-222 -1258q-4 -31 -34 -30q-12 0 -21 9q-8 9 -6 21l240 1350q4 31 34 31q20 0 27 -17l600 -1265l221 1251q4 31 35 31z" />
    <glyph glyph-name="Ograve" unicode="&#xd2;" horiz-adv-x="1441" 
d="M829 1761q20 23 45 -2l246 -241q18 -18 3 -32t-33 1l-254 229q-27 22 -7 45zM723 -29q-254 0 -392 129t-138 383q0 382 183 643q92 131 242 206t345 75q254 0 392 -129t138 -383q0 -380 -183 -643q-92 -131 -242 -206t-345 -75zM727 29q181 -1 319 71q251 129 340 469
q41 152 41 324q0 457 -469 457q-180 0 -318 -72q-249 -130 -341 -469q-41 -152 -41 -324q0 -456 469 -456z" />
    <glyph glyph-name="Oacute" unicode="&#xd3;" horiz-adv-x="1441" 
d="M1200 1761q20 -23 -6 -45l-254 -229q-18 -16 -33 -2q-14 14 2 33l246 241q25 25 45 2zM723 -29q-254 0 -392 129t-138 383q0 382 183 643q92 131 242 206t345 75q254 0 392 -129t138 -383q0 -380 -183 -643q-92 -131 -242 -206t-345 -75zM727 29q181 -1 319 71
q251 129 340 469q41 152 41 324q0 457 -469 457q-180 0 -318 -72q-249 -130 -341 -469q-41 -152 -41 -324q0 -456 469 -456z" />
    <glyph glyph-name="Ocircumflex" unicode="&#xd4;" horiz-adv-x="1441" 
d="M796 1485q-9 0 -17 8q-7 8 -7 19t12 22l238 180q14 10 23 10t20 -10l170 -182q8 -8 8 -21q0 -27 -26 -26q-12 0 -25 12l-152 168l-223 -172q-12 -8 -21 -8zM723 -29q-254 0 -392 129t-138 383q0 382 183 643q92 131 242 206t345 75q254 0 392 -129t138 -383
q0 -380 -183 -643q-92 -131 -242 -206t-345 -75zM727 29q181 -1 319 71q251 129 340 469q41 152 41 324q0 457 -469 457q-180 0 -318 -72q-249 -130 -341 -469q-41 -152 -41 -324q0 -456 469 -456z" />
    <glyph glyph-name="Otilde" unicode="&#xd5;" horiz-adv-x="1441" 
d="M1124 1497q-59 0 -135 44t-123 44q-72 0 -118 -78q-8 -14 -25 -14q-25 0 -25 23q0 8 7 20q20 41 63 72q93 67 237 -14q77 -44 125 -44q70 0 117 80q10 16 27 17q25 0 24 -23q0 -8 -6 -20q-59 -107 -168 -107zM723 -29q-254 0 -392 129t-138 383q0 382 183 643
q92 131 242 206t345 75q254 0 392 -129t138 -383q0 -380 -183 -643q-92 -131 -242 -206t-345 -75zM727 29q181 -1 319 71q251 129 340 469q41 152 41 324q0 457 -469 457q-180 0 -318 -72q-249 -130 -341 -469q-41 -152 -41 -324q0 -456 469 -456z" />
    <glyph glyph-name="Odieresis" unicode="&#xd6;" horiz-adv-x="1441" 
d="M1149 1518q-37 0 -37 30q0 63 55 64q37 0 37 -31q0 -63 -55 -63zM821 1518q-37 0 -37 30q0 63 56 64q37 0 37 -31q-1 -63 -56 -63zM723 -29q-254 0 -392 129t-138 383q0 382 183 643q92 131 242 206t345 75q254 0 392 -129t138 -383q0 -380 -183 -643q-92 -131 -242 -206
t-345 -75zM727 29q181 -1 319 71q251 129 340 469q41 152 41 324q0 457 -469 457q-180 0 -318 -72q-249 -130 -341 -469q-41 -152 -41 -324q0 -456 469 -456z" />
    <glyph glyph-name="multiply" unicode="&#xd7;" horiz-adv-x="696" 
d="M719 130q0 -12 -9 -20q-10 -10 -22 -10t-20 9l-248 297l-344 -295q-24 -24 -44 0q-9 10 -9 22t12 23l348 290l-242 297q-6 11 -6 21t9 19q10 9 22 9t20 -8l244 -297l350 297q21 21 36 6q15 -16 15 -29t-12 -24l-352 -291l246 -296q6 -8 6 -20z" />
    <glyph glyph-name="Oslash" unicode="&#xd8;" horiz-adv-x="1441" 
d="M258 482q0 -175 72 -283l993 1022q-117 129 -365 129q-180 0 -318 -72t-219 -195t-122 -275t-41 -326zM727 29q181 -1 319 71q251 129 340 469q41 152 41 328t-73 283l-994 -1022q117 -129 367 -129zM723 -29q-270 0 -406 142l-147 -152q-10 -10 -23 -10q-25 0 -24 24
q0 10 10 21l152 156q-92 123 -92 320q0 393 183 654q92 131 242 206t345 75q266 0 403 -141l147 151q10 10 23 10q25 0 25 -24q0 -10 -9 -19l-153 -157q94 -125 94 -321t-46 -360q-102 -363 -379 -500q-150 -75 -345 -75z" />
    <glyph glyph-name="Ugrave" unicode="&#xd9;" horiz-adv-x="1284" 
d="M758 1761q20 23 45 -2l246 -241q16 -18 2 -32t-33 1l-254 229q-26 22 -6 45zM246 293q0 51 10 113l168 956q8 33 39 33t26 -33l-167 -956q-10 -57 -11 -103q0 -274 346 -274q403 0 469 377l168 956q8 33 39 33q13 1 21 -9t6 -24l-168 -956q-31 -183 -148 -309t-397 -126
q-213 0 -307 88t-94 234z" />
    <glyph glyph-name="Uacute" unicode="&#xda;" horiz-adv-x="1284" 
d="M1126 1761q20 -23 -6 -45l-254 -229q-18 -16 -32 -2t2 33l245 241q25 25 45 2zM246 293q0 51 10 113l168 956q8 33 39 33t26 -33l-167 -956q-10 -57 -11 -103q0 -274 346 -274q403 0 469 377l168 956q8 33 39 33q13 1 21 -9t6 -24l-168 -956q-31 -183 -148 -309
t-397 -126q-213 0 -307 88t-94 234z" />
    <glyph glyph-name="Ucircumflex" unicode="&#xdb;" horiz-adv-x="1284" 
d="M716 1485q-9 0 -17 8q-7 8 -7 19t13 22l237 180q14 10 24 10t19 -10l170 -182q8 -8 8 -21q0 -27 -26 -26q-12 0 -25 12l-151 168l-224 -172q-12 -8 -21 -8zM246 293q0 51 10 113l168 956q8 33 39 33t26 -33l-167 -956q-10 -57 -11 -103q0 -274 346 -274q403 0 469 377
l168 956q8 33 39 33q13 1 21 -9t6 -24l-168 -956q-31 -183 -148 -309t-397 -126q-213 0 -307 88t-94 234z" />
    <glyph glyph-name="Udieresis" unicode="&#xdc;" horiz-adv-x="1284" 
d="M1081 1518q-37 0 -37 30q0 63 56 64q37 0 37 -31q-1 -63 -56 -63zM754 1518q-37 0 -37 30q0 63 55 64q37 0 37 -31q0 -63 -55 -63zM246 293q0 51 10 113l168 956q8 33 39 33t26 -33l-167 -956q-10 -57 -11 -103q0 -274 346 -274q403 0 469 377l168 956q8 33 39 33
q13 1 21 -9t6 -24l-168 -956q-31 -183 -148 -309t-397 -126q-213 0 -307 88t-94 234z" />
    <glyph glyph-name="Yacute" unicode="&#xdd;" horiz-adv-x="1030" 
d="M997 1761q20 -23 -6 -45l-254 -229q-18 -16 -33 -2t3 33l245 241q25 25 45 2zM279 1362q0 12 10 22q9 10 29 10t28 -22l291 -659l532 665q13 16 29 16t26 -10t9 -22q0 -12 -10 -27l-559 -684l-113 -635q-4 -32 -37 -32t-29 32l111 635l-313 690q-4 9 -4 21z" />
    <glyph glyph-name="Thorn" unicode="&#xde;" horiz-adv-x="1110" 
d="M696 389q174 0 284 112t110 283q0 127 -73 194t-206 66h-377l-115 -655h377zM844 1102q141 0 227 -80t86 -229q0 -199 -131 -330t-317 -131h-400l-55 -316q-8 -33 -39 -32q-29 0 -27 32l236 1346q6 33 38 33t27 -33l-45 -260h400z" />
    <glyph glyph-name="germandbls" unicode="&#xdf;" horiz-adv-x="1060" 
d="M498 694q0 78 43 131t103 84t120 63q146 77 147 220q0 70 -48 114t-132 44q-240 0 -289 -283l-200 -1118q-29 -156 -127 -258t-279 -103q-23 0 -22 23q0 12 9 21t23 10q145 0 229 85q83 85 109 228l164 922h-115q-23 0 -22 22q0 11 10 21t21 10h116l25 137
q59 336 356 336q104 0 169 -56q65 -57 65 -147t-43 -152q-44 -62 -104 -96t-120 -64q-147 -72 -147 -183q0 -68 52 -114t126 -74q74 -29 148 -57t126 -77t52 -121q-1 -141 -107 -215t-280 -74q-117 0 -200 42t-120 96q-8 12 -8 23q0 12 9 20t23 8t21 -12q90 -123 285 -123
q135 0 224 55t89 166t-176 177q-75 29 -149 57t-125 81t-51 131z" />
    <glyph glyph-name="agrave" unicode="&#xe0;" horiz-adv-x="962" 
d="M563 1346q20 23 45 -3l246 -241q18 -16 3 -32t-34 1l-254 229q-26 23 -6 46zM804 -14q-26 0 -26 24q0 6 2 17l41 200q-45 -104 -139 -178t-246 -74q-152 1 -231 93q-80 92 -80 251q0 263 140 451t386 188q178 0 277 -110l10 67q6 31 34 31t27 -26q0 -4 -2 -15l-161 -889
q-6 -30 -32 -30zM188 319q0 -291 280 -291q148 0 258 138q112 137 144 342l48 274q-90 123 -279 123t-320 -163t-131 -423z" />
    <glyph glyph-name="aacute" unicode="&#xe1;" horiz-adv-x="962" 
d="M922 1346q20 -23 -7 -46l-253 -229q-18 -16 -33 -2q-14 16 2 33l246 241q25 26 45 3zM804 -14q-26 0 -26 24q0 6 2 17l41 200q-45 -104 -139 -178t-246 -74q-152 1 -231 93q-80 92 -80 251q0 263 140 451t386 188q178 0 277 -110l10 67q6 31 34 31t27 -26q0 -4 -2 -15
l-161 -889q-6 -30 -32 -30zM188 319q0 -291 280 -291q148 0 258 138q112 137 144 342l48 274q-90 123 -279 123t-320 -163t-131 -423z" />
    <glyph glyph-name="acircumflex" unicode="&#xe2;" horiz-adv-x="964" 
d="M503 1092q-9 0 -17 8q-7 8 -7 19t13 22l237 180q13 10 23 10t20 -10l170 -182q8 -8 8 -21q0 -27 -26 -26q-12 0 -25 12l-151 168l-224 -172q-12 -8 -21 -8zM806 -14q-26 0 -26 24q0 6 2 17l41 200q-45 -104 -139 -178t-246 -74q-152 1 -231 93q-80 92 -80 251
q0 263 140 451t386 188q178 0 277 -110l10 67q6 31 34 31t27 -26q0 -4 -2 -15l-161 -889q-6 -30 -32 -30zM190 319q0 -291 280 -291q148 0 258 138q112 137 144 342l48 274q-90 123 -279 123t-320 -163t-131 -423z" />
    <glyph glyph-name="atilde" unicode="&#xe3;" horiz-adv-x="962" 
d="M846 1096q-59 0 -135 44t-123 44q-72 0 -119 -78q-8 -14 -25 -14q-25 0 -24 22q0 8 13 35t56 57t103 31q60 0 135 -44q76 -44 125 -44q70 0 117 80q10 16 26 16q25 0 25 -22q0 -8 -6 -21q-59 -106 -168 -106zM804 -14q-26 0 -26 24q0 6 2 17l41 200q-45 -104 -139 -178
t-246 -74q-152 1 -231 93q-80 92 -80 251q0 263 140 451t386 188q178 0 277 -110l10 67q6 31 34 31t27 -26q0 -4 -2 -15l-161 -889q-6 -30 -32 -30zM188 319q0 -291 280 -291q148 0 258 138q112 137 144 342l48 274q-90 123 -279 123t-320 -163t-131 -423z" />
    <glyph glyph-name="adieresis" unicode="&#xe4;" horiz-adv-x="966" 
d="M866 1114q-37 0 -37 31q0 63 56 63q37 0 37 -30q-1 -64 -56 -64zM539 1114q-37 0 -37 31q0 63 55 63q37 0 37 -30q0 -64 -55 -64zM806 -14q-26 0 -26 24q0 6 2 17l41 200q-45 -104 -139 -178t-246 -74q-152 1 -231 93q-80 92 -80 251q0 263 140 451t386 188
q178 0 277 -110l10 67q6 31 34 31t27 -26q0 -4 -2 -15l-161 -889q-6 -30 -32 -30zM190 319q0 -291 280 -291q148 0 258 138q112 137 144 342l48 274q-90 123 -279 123t-320 -163t-131 -423z" />
    <glyph glyph-name="aring" unicode="&#xe5;" horiz-adv-x="962" 
d="M698 1073q94 0 143 52q48 52 48 143q0 117 -135 116q-94 0 -142 -52t-49 -142q0 -117 135 -117zM762 1430q180 0 180 -160q0 -106 -64 -174t-188 -68q-180 0 -180 160q0 106 64 174q65 68 188 68zM804 -14q-26 0 -26 24q0 6 2 17l41 200q-45 -104 -139 -178t-246 -74
q-152 1 -231 93q-80 92 -80 251q0 263 140 451t386 188q178 0 277 -110l10 67q6 31 34 31t27 -26q0 -4 -2 -15l-161 -889q-6 -30 -32 -30zM188 319q0 -291 280 -291q148 0 258 138q112 137 144 342l48 274q-90 123 -279 123t-320 -163t-131 -423z" />
    <glyph glyph-name="ae" unicode="&#xe6;" horiz-adv-x="1634" 
d="M1591 744q0 66 -63 114q-63 47 -170 47q-166 0 -283 -102t-153 -314q331 0 453 35q56 16 110 43q106 53 106 177zM462 29q142 0 248 121q105 121 146 309q31 201 127 323q-123 123 -317 123t-336 -164q-141 -164 -142 -422q0 -135 66 -213t208 -77zM1186 -27
q-326 0 -338 308q-39 -121 -147 -213t-262 -92t-234 92t-80 251q0 260 150 450q151 189 399 189q195 0 346 -137q137 137 348 137q133 0 207 -62t74 -142t-28 -130q-48 -89 -199 -139q-150 -49 -507 -49q-10 -51 -10 -121q-1 -135 61 -212t228 -77t295 103q10 6 16 6
q27 0 27 -26q0 -12 -16 -27q-135 -109 -330 -109z" />
    <glyph glyph-name="ccedilla" unicode="&#xe7;" horiz-adv-x="901" 
d="M489 -156l-83 -12q-6 0 -11 8q-4 8 -2 19l27 118q-272 35 -272 336t140 473t382 172q207 0 276 -137q4 -8 4 -18q0 -27 -28 -27q-14 0 -23 12q-70 117 -240 117q-211 0 -329 -164t-117 -422q0 -293 291 -292q135 0 284 102q10 6 19 6q27 0 27 -26q0 -16 -17 -27
q-156 -109 -321 -109q-25 0 -35 2l-27 -102q29 8 62 8q145 -1 145 -149q0 -78 -52 -134q-53 -56 -147 -56t-133 30q-12 10 -12 20q0 20 20 21q6 0 17 -6q41 -27 92 -27q166 0 166 164q0 100 -103 100z" />
    <glyph glyph-name="egrave" unicode="&#xe8;" horiz-adv-x="942" 
d="M539 1346q20 23 45 -3l245 -241q18 -16 3 -32t-33 1l-254 229q-26 23 -6 46zM494 -27q-344 0 -344 340q0 193 71 351q39 86 97 150t150 105q92 39 217 39q124 0 198 -62q73 -62 73 -142t-28 -130q-48 -90 -200 -141q-146 -47 -503 -47q-12 -43 -12 -121q0 -135 61 -212
q62 -77 228 -77t295 103q10 6 16 6q27 0 27 -26q0 -12 -17 -27q-134 -109 -329 -109zM899 735q0 76 -63 123t-170 47q-166 0 -282 -102t-153 -314q260 1 353 17q94 16 149 34q101 34 145 108q21 38 21 87z" />
    <glyph glyph-name="eacute" unicode="&#xe9;" horiz-adv-x="942" 
d="M854 1346q20 -23 -6 -46l-254 -229q-18 -16 -34 -1t3 32l246 241q25 26 45 3zM494 -27q-344 0 -344 340q0 193 71 351q39 86 97 150t150 105q92 39 217 39q124 0 198 -62q73 -62 73 -142t-28 -130q-48 -90 -200 -141q-146 -47 -503 -47q-12 -43 -12 -121q0 -135 61 -212
q62 -77 228 -77t295 103q10 6 16 6q27 0 27 -26q0 -12 -17 -27q-134 -109 -329 -109zM899 735q0 76 -63 123t-170 47q-166 0 -282 -102t-153 -314q260 1 353 17q94 16 149 34q101 34 145 108q21 38 21 87z" />
    <glyph glyph-name="ecircumflex" unicode="&#xea;" horiz-adv-x="942" 
d="M493 1092q-9 0 -17 8q-7 8 -7 19t12 22l238 180q14 10 23 10t20 -10l170 -182q8 -8 8 -21q0 -27 -27 -26q-12 0 -24 12l-152 168l-223 -172q-12 -8 -21 -8zM494 -27q-344 0 -344 340q0 193 71 351q39 86 97 150t150 105q92 39 217 39q124 0 198 -62q73 -62 73 -142
t-28 -130q-48 -90 -200 -141q-146 -47 -503 -47q-12 -43 -12 -121q0 -135 61 -212q62 -77 228 -77t295 103q10 6 16 6q27 0 27 -26q0 -12 -17 -27q-134 -109 -329 -109zM899 735q0 76 -63 123t-170 47q-166 0 -282 -102t-153 -314q260 1 353 17q94 16 149 34q101 34 145 108
q21 38 21 87z" />
    <glyph glyph-name="edieresis" unicode="&#xeb;" horiz-adv-x="942" 
d="M858 1114q-37 0 -37 31q0 63 56 63q37 0 36 -30q0 -64 -55 -64zM530 1114q-37 0 -36 31q0 63 55 63q37 0 37 -30q-1 -64 -56 -64zM494 -27q-344 0 -344 340q0 193 71 351q39 86 97 150t150 105q92 39 217 39q124 0 198 -62q73 -62 73 -142t-28 -130q-48 -90 -200 -141
q-146 -47 -503 -47q-12 -43 -12 -121q0 -135 61 -212q62 -77 228 -77t295 103q10 6 16 6q27 0 27 -26q0 -12 -17 -27q-134 -109 -329 -109zM899 735q0 76 -63 123t-170 47q-166 0 -282 -102t-153 -314q260 1 353 17q94 16 149 34q101 34 145 108q21 38 21 87z" />
    <glyph glyph-name="igrave" unicode="&#xec;" horiz-adv-x="358" 
d="M160 1346q20 23 45 -3l246 -241q16 -16 2 -32t-33 1l-254 229q-26 23 -6 46zM352 946q29 0 25 -31l-160 -901q-4 -31 -35 -30q-12 0 -20 9t-6 21l159 901q1 11 13 21t24 10z" />
    <glyph glyph-name="iacute" unicode="&#xed;" horiz-adv-x="358" 
d="M600 1346q20 -23 -6 -46l-254 -229q-18 -16 -34 -1t3 32l246 241q25 26 45 3zM352 946q29 0 25 -31l-160 -901q-4 -31 -35 -30q-12 0 -20 9t-6 21l159 901q1 11 13 21t24 10z" />
    <glyph glyph-name="icircumflex" unicode="&#xee;" horiz-adv-x="358" 
d="M165 1092q-9 0 -17 8q-7 8 -7 19t13 22l237 180q13 10 23 10t20 -10l170 -182q8 -8 8 -21q0 -27 -26 -26q-12 0 -25 12l-151 168l-224 -172q-12 -8 -21 -8zM352 946q29 0 25 -31l-160 -901q-4 -31 -35 -30q-12 0 -20 9t-6 21l159 901q1 11 13 21t24 10z" />
    <glyph glyph-name="idieresis" unicode="&#xef;" horiz-adv-x="358" 
d="M543 1114q-37 0 -37 31q0 63 55 63q37 0 37 -30q0 -64 -55 -64zM215 1114q-37 0 -37 31q0 63 55 63q37 0 37 -30q0 -64 -55 -64zM352 946q29 0 25 -31l-160 -901q-4 -31 -35 -30q-12 0 -20 9t-6 21l159 901q1 11 13 21t24 10z" />
    <glyph glyph-name="eth" unicode="&#xf0;" horiz-adv-x="999" 
d="M506 27q200 0 324 147t124 412q0 319 -292 319q-223 0 -336 -169t-113 -419q0 -290 293 -290zM670 958q221 0 301 -167q-20 281 -127 419l-176 -102l-17 -4q-20 0 -20 22q0 16 16 25l168 96q-70 92 -194 166q-10 4 -11 19q0 27 27 26q8 0 16 -4q121 -70 209 -178l137 80
q8 6 19 6q23 0 22 -23q0 -12 -16 -22l-133 -78q135 -205 135 -532q0 -733 -530 -734q-344 0 -344 342q0 249 112 436q57 95 162 151t244 56z" />
    <glyph glyph-name="ntilde" unicode="&#xf1;" 
d="M850 1096q-59 0 -135 44t-123 44q-72 0 -119 -78q-8 -14 -24 -14q-25 0 -25 22q0 8 13 35t57 57t102 31q59 0 135 -44t125 -44q70 0 117 80q10 16 26 16q25 0 25 -22q0 -8 -6 -21q-59 -106 -168 -106zM172 -16q-12 0 -20 9t-7 21l160 901q4 31 35 31t27 -31l-27 -153
q33 74 129 135q97 61 241 61t220 -72t76 -188q0 -55 -9 -102l-102 -582q-4 -31 -35 -30q-31 0 -26 30l102 582q8 49 8 92q0 217 -260 217q-156 0 -254 -98t-123 -232l-100 -561q-4 -30 -35 -30z" />
    <glyph glyph-name="ograve" unicode="&#xf2;" horiz-adv-x="999" 
d="M524 1346q20 23 45 -3l246 -241q16 -16 2 -32t-33 1l-254 229q-26 23 -6 46zM1014 614q0 -121 -28 -229q-106 -412 -506 -412q-154 0 -243 86t-90 258q0 320 171 503q58 62 148 100t202 38q168 0 257 -86t89 -258zM504 27q221 0 333 169t111 416q0 293 -291 293
q-221 0 -333 -169t-111 -417q0 -292 291 -292z" />
    <glyph glyph-name="oacute" unicode="&#xf3;" horiz-adv-x="999" 
d="M905 1346q20 -23 -6 -46l-254 -229q-18 -16 -33 -2q-14 16 2 33l246 241q25 26 45 3zM1014 614q0 -121 -28 -229q-106 -412 -506 -412q-154 0 -243 86t-90 258q0 320 171 503q58 62 148 100t202 38q168 0 257 -86t89 -258zM504 27q221 0 333 169t111 416q0 293 -291 293
q-221 0 -333 -169t-111 -417q0 -292 291 -292z" />
    <glyph glyph-name="ocircumflex" unicode="&#xf4;" horiz-adv-x="999" 
d="M510 1092q-22 0 -25 26q0 12 13 23l237 180q13 10 23 10t20 -10l170 -182q8 -8 8 -21q0 -27 -26 -26q-12 0 -25 12l-151 168l-224 -172q-12 -8 -20 -8zM1014 614q0 -121 -28 -229q-106 -412 -506 -412q-154 0 -243 86t-90 258q0 320 171 503q58 62 148 100t202 38
q168 0 257 -86t89 -258zM504 27q221 0 333 169t111 416q0 293 -291 293q-221 0 -333 -169t-111 -417q0 -292 291 -292z" />
    <glyph glyph-name="otilde" unicode="&#xf5;" horiz-adv-x="999" 
d="M831 1096q-61 0 -135 44t-123 44q-72 0 -118 -78q-8 -14 -25 -14q-25 0 -24 22q0 8 13 35t56 57t101 31q58 0 136 -44t126 -44q70 0 116 80q10 16 27 16q25 0 25 -22q0 -8 -7 -21q-59 -106 -168 -106zM1014 614q0 -121 -28 -229q-106 -412 -506 -412q-154 0 -243 86
t-90 258q0 320 171 503q58 62 148 100t202 38q168 0 257 -86t89 -258zM504 27q221 0 333 169t111 416q0 293 -291 293q-221 0 -333 -169t-111 -417q0 -292 291 -292z" />
    <glyph glyph-name="odieresis" unicode="&#xf6;" horiz-adv-x="999" 
d="M870 1114q-37 0 -36 31q0 63 55 63q37 0 37 -30q-1 -64 -56 -64zM543 1114q-37 0 -37 31q0 63 55 63q37 0 37 -30q0 -64 -55 -64zM1014 614q0 -121 -28 -229q-106 -412 -506 -412q-154 0 -243 86t-90 258q0 320 171 503q58 62 148 100t202 38q168 0 257 -86t89 -258z
M504 27q221 0 333 169t111 416q0 293 -291 293q-221 0 -333 -169t-111 -417q0 -292 291 -292z" />
    <glyph glyph-name="divide" unicode="&#xf7;" horiz-adv-x="929" 
d="M492 147q-42 1 -41 41q0 20 17 36q16 18 36 18t32 -10t11 -30q1 -20 -17 -38t-38 -17zM578 649q-39 0 -39 37q0 23 17 40q16 17 36 17q42 0 43 -36q0 -23 -17 -41t-40 -17zM1008 451q0 -11 -10 -21t-21 -10h-877q-23 0 -22 22q0 12 10 22t21 9h876q23 1 23 -22z" />
    <glyph glyph-name="oslash" unicode="&#xf8;" horiz-adv-x="999" 
d="M504 27q221 0 333 169t111 416q0 74 -18 129l-678 -602q68 -112 252 -112zM213 319q0 -76 18 -131l676 603q-66 115 -250 114q-221 0 -333 -169t-111 -417zM494 -27q-205 0 -289 123l-113 -98q-8 -8 -20 -8q-25 0 -25 24q0 12 10 21l121 108q-31 72 -31 170q1 97 17 187
t56 174t98 146t148 100t202 38q203 0 288 -124l113 100q9 8 19 8t18 -7t8 -18t-12 -22l-121 -107q33 -72 33 -184t-28 -220q-66 -257 -249 -354q-104 -57 -243 -57z" />
    <glyph glyph-name="ugrave" unicode="&#xf9;" horiz-adv-x="995" 
d="M502 1346q20 23 45 -3l246 -241q18 -16 3 -32t-34 1l-254 229q-26 23 -6 46zM321 946q30 0 25 -31l-102 -577q-8 -43 -8 -94q0 -106 59 -162t224 -55q165 0 246 83t105 228l103 577q6 31 35 31q12 0 20 -9t6 -22l-102 -577q-27 -154 -116 -260q-89 -105 -322 -105
q-319 0 -320 260q0 43 10 105l101 577q6 31 36 31z" />
    <glyph glyph-name="uacute" unicode="&#xfa;" horiz-adv-x="995" 
d="M901 1346q20 -23 -6 -46l-254 -229q-18 -16 -33 -2q-14 16 2 33l246 241q25 26 45 3zM321 946q30 0 25 -31l-102 -577q-8 -43 -8 -94q0 -106 59 -162t224 -55q165 0 246 83t105 228l103 577q6 31 35 31q12 0 20 -9t6 -22l-102 -577q-27 -154 -116 -260
q-89 -105 -322 -105q-319 0 -320 260q0 43 10 105l101 577q6 31 36 31z" />
    <glyph glyph-name="ucircumflex" unicode="&#xfb;" horiz-adv-x="995" 
d="M495 1092q-9 0 -17 8q-7 8 -7 19t12 22l238 180q14 10 23 10t20 -10l170 -182q8 -8 8 -21q0 -27 -27 -26q-12 0 -24 12l-152 168l-223 -172q-12 -8 -21 -8zM321 946q30 0 25 -31l-102 -577q-8 -43 -8 -94q0 -106 59 -162t224 -55q165 0 246 83t105 228l103 577
q6 31 35 31q12 0 20 -9t6 -22l-102 -577q-27 -154 -116 -260q-89 -105 -322 -105q-319 0 -320 260q0 43 10 105l101 577q6 31 36 31z" />
    <glyph glyph-name="udieresis" unicode="&#xfc;" horiz-adv-x="995" 
d="M860 1114q-37 0 -37 31q0 63 56 63q37 0 36 -30q0 -64 -55 -64zM532 1114q-37 0 -36 31q0 63 55 63q37 0 37 -30q-1 -64 -56 -64zM321 946q30 0 25 -31l-102 -577q-8 -43 -8 -94q0 -106 59 -162t224 -55q165 0 246 83t105 228l103 577q6 31 35 31q12 0 20 -9t6 -22
l-102 -577q-27 -154 -116 -260q-89 -105 -322 -105q-319 0 -320 260q0 43 10 105l101 577q6 31 36 31z" />
    <glyph glyph-name="yacute" unicode="&#xfd;" horiz-adv-x="991" 
d="M915 1346q20 -23 -6 -46l-254 -229q-18 -16 -33 -1t3 32l245 241q25 26 45 3zM201 -219q0 -68 53 -104t137 -35q164 0 273 83t141 250l57 299q-77 -132 -301 -221q-88 -35 -172 -69t-136 -85q-52 -50 -52 -118zM473 92q-123 0 -202 68t-78 196q0 43 10 105l82 454
q6 31 36 31t25 -31l-82 -454q-8 -45 -8 -94q0 -217 268 -217q88 0 158 30q170 74 209 285l82 450q6 31 35 31q12 0 20 -9t6 -22l-168 -940q-35 -197 -164 -291t-321 -96q-117 0 -181 54t-65 116q0 104 77 181q56 54 203 110q42 16 132 47q-41 -4 -74 -4z" />
    <glyph glyph-name="thorn" unicode="&#xfe;" horiz-adv-x="1044" 
d="M272 319q0 -147 74 -220t203 -72q213 -1 329 159t115 426q0 150 -78 222t-213 71q-198 0 -314 -160t-116 -426zM1059 614q0 -246 -114 -433q-59 -95 -163 -151t-243 -57q-77 0 -135 23q-58 24 -87 56q-62 69 -71 120l-4 23l-105 -576q-4 -31 -35 -31t-26 33l319 1806
q1 11 13 21t24 10q29 0 25 -31l-119 -671q121 203 375 202q166 0 256 -88t90 -256z" />
    <glyph glyph-name="ydieresis" unicode="&#xff;" horiz-adv-x="991" 
d="M862 1114q-37 0 -37 31q0 63 56 63q37 0 37 -30q-1 -64 -56 -64zM535 1114q-37 0 -37 31q0 63 55 63q37 0 37 -30q0 -64 -55 -64zM201 -219q0 -68 53 -104t137 -35q164 0 273 83t141 250l57 299q-77 -132 -301 -221q-88 -35 -172 -69t-136 -85q-52 -50 -52 -118zM473 92
q-123 0 -202 68t-78 196q0 43 10 105l82 454q6 31 36 31t25 -31l-82 -454q-8 -45 -8 -94q0 -217 268 -217q88 0 158 30q170 74 209 285l82 450q6 31 35 31q12 0 20 -9t6 -22l-168 -940q-35 -197 -164 -291t-321 -96q-117 0 -181 54t-65 116q0 104 77 181q56 54 203 110
q42 16 132 47q-41 -4 -74 -4z" />
    <glyph glyph-name="Amacron" unicode="&#x100;" horiz-adv-x="1261" 
d="M1141 1567q0 -31 -31 -31h-430q-23 0 -23 23q-1 12 9 21t22 9h430q23 1 23 -22zM98 -16q-29 0 -28 28q0 8 8 23l762 1337q12 23 36 23t29 -23l293 -1339q4 -17 -6 -33t-33 -16t-29 30l-88 424h-665l-246 -434q-12 -20 -33 -20zM1032 498l-170 794l-452 -794h622z" />
    <glyph glyph-name="amacron" unicode="&#x101;" horiz-adv-x="962" 
d="M940 1165q0 -31 -31 -30h-430q-23 0 -22 22q0 11 9 21t21 10h431q22 0 22 -23zM804 -14q-26 0 -26 24q0 6 2 17l41 200q-45 -104 -139 -178t-246 -74q-152 1 -231 93q-80 92 -80 251q0 263 140 451t386 188q178 0 277 -110l10 67q6 31 34 31t27 -26q0 -4 -2 -15
l-161 -889q-6 -30 -32 -30zM188 319q0 -291 280 -291q148 0 258 138q112 137 144 342l48 274q-90 123 -279 123t-320 -163t-131 -423z" />
    <glyph glyph-name="Abreve" unicode="&#x102;" horiz-adv-x="1261" 
d="M903 1548q170 0 193 150q4 25 26 24q27 0 23 -24q-17 -199 -250 -199q-82 0 -133 39t-51 112t30 72q25 0 25 -24l-2 -33q0 -117 139 -117zM98 -16q-29 0 -28 28q0 8 8 23l762 1337q12 23 36 23t29 -23l293 -1339q4 -17 -6 -33t-33 -16t-29 30l-88 424h-665l-246 -434
q-12 -20 -33 -20zM1032 498l-170 794l-452 -794h622z" />
    <glyph glyph-name="abreve" unicode="&#x103;" horiz-adv-x="962" 
d="M914 1311q24 0 20 -25q-17 -199 -250 -199q-82 0 -133 39t-51 112t30 73q25 0 25 -25l-2 -33q0 -117 139 -116q170 0 193 149q5 25 29 25zM804 -14q-26 0 -26 24q0 6 2 17l41 200q-45 -104 -139 -178t-246 -74q-152 1 -231 93q-80 92 -80 251q0 263 140 451t386 188
q178 0 277 -110l10 67q6 31 34 31t27 -26q0 -4 -2 -15l-161 -889q-6 -30 -32 -30zM188 319q0 -291 280 -291q148 0 258 138q112 137 144 342l48 274q-90 123 -279 123t-320 -163t-131 -423z" />
    <glyph glyph-name="Aogonek" unicode="&#x104;" horiz-adv-x="1261" 
d="M1032 498l-170 794l-452 -794h622zM1229 -295q20 0 20 -17t-16 -26q-51 -29 -125 -29q-158 0 -158 123q0 70 49 132t140 106q-4 4 -9 20l-88 424h-665l-246 -434q-12 -20 -33 -20q-29 0 -28 28q0 8 8 23l762 1337q12 23 36 23t29 -23l293 -1339q6 -33 -24 -47
q-84 -40 -127 -98t-43 -117q0 -88 116 -88q45 0 75 11t34 11z" />
    <glyph glyph-name="aogonek" unicode="&#x105;" horiz-adv-x="964" 
d="M188 319q0 -135 66 -214t214 -79t258 139q110 138 144 343l48 274q-90 123 -279 123t-320 -163t-131 -423zM864 -295q20 0 21 -18q0 -16 -17 -25q-51 -29 -125 -29q-158 0 -157 123q0 70 50 133t144 107q-4 8 0 31l41 200q-45 -104 -139 -179t-246 -75q-152 -1 -231 93
q-80 94 -80 253q0 263 140 451t386 188q178 0 277 -110l10 67q6 31 34 31t27 -26q0 -4 -2 -15l-161 -889q-4 -20 -27 -30q-84 -40 -127 -98t-43 -117q0 -88 117 -88q44 0 74 11t34 11z" />
    <glyph glyph-name="Cacute" unicode="&#x106;" horiz-adv-x="1273" 
d="M1200 1761q20 -23 -6 -45l-254 -229q-18 -16 -33 -2q-14 14 2 33l246 241q25 25 45 2zM738 -29q-268 0 -407 129q-138 129 -138 383q0 383 184 643q92 131 245 206q152 75 320 75q312 0 444 -213q15 -24 1 -38q-13 -13 -27 -13t-25 16q-121 190 -374 191q-179 0 -319 -72
q-250 -129 -343 -469q-41 -152 -41 -324q0 -457 471 -456q248 0 438 190q13 12 25 12t21 -9q22 -22 -1 -44q-206 -207 -474 -207z" />
    <glyph glyph-name="cacute" unicode="&#x107;" horiz-adv-x="901" 
d="M905 1346q20 -23 -6 -46l-254 -229q-18 -16 -33 -2q-14 16 2 33l246 241q25 26 45 3zM147 317q1 297 141 469t382 172q207 0 276 -137q4 -8 4 -18q0 -27 -28 -27q-14 0 -23 12q-70 117 -240 117q-211 0 -329 -164t-117 -422q0 -293 291 -292q135 0 284 102q10 6 19 6
q27 0 27 -26q0 -16 -17 -27q-156 -109 -321 -109q-349 0 -349 344z" />
    <glyph glyph-name="Ccircumflex" unicode="&#x108;" horiz-adv-x="1273" 
d="M784 1485q-10 0 -17 8t-7 19t12 22l238 180q14 10 23 10t20 -10l170 -182q8 -8 8 -21q0 -27 -27 -26q-12 0 -24 12l-152 168l-223 -172q-11 -8 -21 -8zM738 -29q-268 0 -407 129q-138 129 -138 383q0 383 184 643q92 131 245 206q152 75 320 75q312 0 444 -213
q15 -24 1 -38q-13 -13 -27 -13t-25 16q-121 190 -374 191q-179 0 -319 -72q-250 -129 -343 -469q-41 -152 -41 -324q0 -457 471 -456q248 0 438 190q13 12 25 12t21 -9q22 -22 -1 -44q-206 -207 -474 -207z" />
    <glyph glyph-name="ccircumflex" unicode="&#x109;" horiz-adv-x="901" 
d="M516 1092q-10 0 -17 8t-7 19t12 22l237 180q13 10 23 10t20 -10l170 -182q8 -8 9 -21q0 -27 -27 -26q-12 0 -25 12l-151 168l-223 -172q-11 -8 -21 -8zM147 317q1 297 141 469t382 172q207 0 276 -137q4 -8 4 -18q0 -27 -28 -27q-14 0 -23 12q-70 117 -240 117
q-211 0 -329 -164t-117 -422q0 -293 291 -292q135 0 284 102q10 6 19 6q27 0 27 -26q0 -16 -17 -27q-156 -109 -321 -109q-349 0 -349 344z" />
    <glyph glyph-name="Cdotaccent" unicode="&#x10a;" horiz-adv-x="1273" 
d="M973 1536q-37 0 -37 35q0 57 53 57q37 0 37 -35q0 -57 -53 -57zM738 -29q-268 0 -407 129q-138 129 -138 383q0 383 184 643q92 131 245 206q152 75 320 75q312 0 444 -213q15 -24 1 -38q-13 -13 -27 -13t-25 16q-121 190 -374 191q-179 0 -319 -72q-250 -129 -343 -469
q-41 -152 -41 -324q0 -457 471 -456q248 0 438 190q13 12 25 12t21 -9q22 -22 -1 -44q-206 -207 -474 -207z" />
    <glyph glyph-name="cdotaccent" unicode="&#x10b;" horiz-adv-x="901" 
d="M700 1124q-37 0 -36 35q0 57 53 58q37 0 37 -35q-1 -58 -54 -58zM147 317q1 297 141 469t382 172q207 0 276 -137q4 -8 4 -18q0 -27 -28 -27q-14 0 -23 12q-70 117 -240 117q-211 0 -329 -164t-117 -422q0 -293 291 -292q135 0 284 102q10 6 19 6q27 0 27 -26
q0 -16 -17 -27q-156 -109 -321 -109q-349 0 -349 344z" />
    <glyph glyph-name="Ccaron" unicode="&#x10c;" horiz-adv-x="1273" 
d="M1232 1724q10 0 16 -8q7 -8 7 -20t-12 -21l-237 -180q-14 -10 -24 -10t-19 10l-170 182q-8 8 -9 21q0 27 27 26q12 0 25 -12l151 -168l223 172q12 8 22 8zM738 -29q-268 0 -407 129q-138 129 -138 383q0 383 184 643q92 131 245 206q152 75 320 75q312 0 444 -213
q15 -24 1 -38q-13 -13 -27 -13t-25 16q-121 190 -374 191q-179 0 -319 -72q-250 -129 -343 -469q-41 -152 -41 -324q0 -457 471 -456q248 0 438 190q13 12 25 12t21 -9q22 -22 -1 -44q-206 -207 -474 -207z" />
    <glyph glyph-name="ccaron" unicode="&#x10d;" horiz-adv-x="901" 
d="M947 1331q9 0 17 -8t7 -20q0 -12 -13 -21l-237 -180q-13 -10 -23 -10t-20 10l-170 182q-8 8 -8 21q0 27 26 26q12 0 25 -12l151 -168l224 172q12 8 21 8zM147 317q1 297 141 469t382 172q207 0 276 -137q4 -8 4 -18q0 -27 -28 -27q-14 0 -23 12q-70 117 -240 117
q-211 0 -329 -164t-117 -422q0 -293 291 -292q135 0 284 102q10 6 19 6q27 0 27 -26q0 -16 -17 -27q-156 -109 -321 -109q-349 0 -349 344z" />
    <glyph glyph-name="Dcaron" unicode="&#x10e;" horiz-adv-x="1243" 
d="M1069 1724q22 0 24 -20q1 -20 -12 -29l-237 -180q-14 -10 -24 -10t-19 10l-170 182q-8 8 -8 21q0 27 26 26q12 0 25 -12l151 -168l224 172q12 8 20 8zM459 1378h305q258 0 393 -112t135 -363q0 -300 -106 -519q-118 -244 -365 -335q-133 -49 -301 -49h-305q-29 0 -27 33
l232 1313q8 32 39 32zM530 57q330 0 513 217t184 619q0 229 -121 329t-352 99h-273l-223 -1264h272z" />
    <glyph glyph-name="dcaron" unicode="&#x10f;" horiz-adv-x="1038" 
d="M1329 1419q0 -150 -115 -272q-10 -10 -20 -10q-18 0 -18 16q0 6 6 16q70 90 69 142q0 20 -9 47t-9 39q0 59 57 59q39 0 39 -37zM648 958q90 0 160 -25t126 -100q20 -28 27 -49l6 -20l118 663q4 31 35 31t27 -31l-186 -1056q-35 -193 -162 -295t-300 -102
q-350 -1 -352 343q0 320 171 503q58 62 148 100q92 38 182 38zM213 319q0 -293 291 -292q152 0 260 86t135 258l51 295q-19 95 -78 156q-29 32 -85 58t-128 25q-223 0 -335 -169t-111 -417z" />
    <glyph glyph-name="Dcroat" unicode="&#x110;" horiz-adv-x="1243" 
d="M850 741q23 0 22 -22q0 -11 -9 -21t-21 -10h-473l-111 -631h272q330 0 513 217t184 619q0 229 -121 329t-352 99h-273l-102 -580h471zM459 1378h305q258 0 393 -112t135 -363q0 -300 -106 -519q-118 -244 -365 -335q-133 -49 -301 -49h-305q-29 0 -27 33l115 655h-106
q-23 0 -23 23q0 12 10 21t21 9h108l107 605q8 32 39 32z" />
    <glyph glyph-name="dcroat" unicode="&#x111;" horiz-adv-x="1028" 
d="M213 319q0 -293 291 -292q152 0 260 86t135 258l51 295q-19 95 -78 156q-29 32 -85 58t-128 25q-223 0 -335 -169t-111 -417zM646 958q202 0 282 -119q24 -34 28 -46t11 -29l73 412h-233q-23 0 -23 22q0 12 10 22t23 9h232l36 198q4 31 35 31t27 -31l-35 -198h80
q20 0 20 -23q0 -12 -9 -21t-21 -9h-80l-141 -805q-35 -193 -162 -295t-300 -102q-350 -1 -352 343q0 320 171 503q58 62 148 100t180 38z" />
    <glyph glyph-name="Emacron" unicode="&#x112;" horiz-adv-x="1048" 
d="M1108 1567q0 -31 -31 -31h-430q-23 0 -22 23q0 12 9 21t21 9h430q23 1 23 -22zM932 0h-721q-33 0 -25 33l232 1313q8 33 37 32h694q25 0 25 -24q0 -14 -10 -24t-25 -9h-662l-104 -598h516q25 0 24 -25q0 -14 -10 -23t-24 -9h-517l-106 -609h686q23 0 23 -24
q0 -33 -33 -33z" />
    <glyph glyph-name="emacron" unicode="&#x113;" horiz-adv-x="942" 
d="M956 1165q0 -31 -30 -30h-430q-23 0 -23 22q0 11 9 21t22 10h430q22 0 22 -23zM494 -27q-344 0 -344 340q0 193 71 351q39 86 97 150t150 105q92 39 217 39q124 0 198 -62q73 -62 73 -142t-28 -130q-48 -90 -200 -141q-146 -47 -503 -47q-12 -43 -12 -121q0 -135 61 -212
q62 -77 228 -77t295 103q10 6 16 6q27 0 27 -26q0 -12 -17 -27q-134 -109 -329 -109zM899 735q0 76 -63 123t-170 47q-166 0 -282 -102t-153 -314q260 1 353 17q94 16 149 34q101 34 145 108q21 38 21 87z" />
    <glyph glyph-name="Ebreve" unicode="&#x114;" horiz-adv-x="1048" 
d="M864 1548q170 0 193 150q4 25 26 24q27 0 23 -24q-17 -199 -250 -199q-82 0 -133 39t-51 112t30 72q25 0 25 -24l-2 -33q0 -117 139 -117zM932 0h-721q-33 0 -25 33l232 1313q8 33 37 32h694q25 0 25 -24q0 -14 -10 -24t-25 -9h-662l-104 -598h516q25 0 24 -25
q0 -14 -10 -23t-24 -9h-517l-106 -609h686q23 0 23 -24q0 -33 -33 -33z" />
    <glyph glyph-name="ebreve" unicode="&#x115;" horiz-adv-x="942" 
d="M922 1311q25 0 20 -25q-17 -199 -250 -199q-82 0 -133 39t-51 112t31 73q25 0 24 -25l-2 -33q0 -117 139 -116q170 0 193 149q4 25 29 25zM494 -27q-344 0 -344 340q0 193 71 351q39 86 97 150t150 105q92 39 217 39q124 0 198 -62q73 -62 73 -142t-28 -130
q-48 -90 -200 -141q-146 -47 -503 -47q-12 -43 -12 -121q0 -135 61 -212q62 -77 228 -77t295 103q10 6 16 6q27 0 27 -26q0 -12 -17 -27q-134 -109 -329 -109zM899 735q0 76 -63 123t-170 47q-166 0 -282 -102t-153 -314q260 1 353 17q94 16 149 34q101 34 145 108
q21 38 21 87z" />
    <glyph glyph-name="Edotaccent" unicode="&#x116;" horiz-adv-x="1048" 
d="M848 1536q-37 0 -37 35q0 57 53 57q37 0 37 -35q0 -57 -53 -57zM932 0h-721q-33 0 -25 33l232 1313q8 33 37 32h694q25 0 25 -24q0 -14 -10 -24t-25 -9h-662l-104 -598h516q25 0 24 -25q0 -14 -10 -23t-24 -9h-517l-106 -609h686q23 0 23 -24q0 -33 -33 -33z" />
    <glyph glyph-name="edotaccent" unicode="&#x117;" horiz-adv-x="942" 
d="M707 1124q-37 0 -37 35q0 57 53 58q37 0 37 -35q0 -58 -53 -58zM494 -27q-344 0 -344 340q0 193 71 351q39 86 97 150t150 105q92 39 217 39q124 0 198 -62q73 -62 73 -142t-28 -130q-48 -90 -200 -141q-146 -47 -503 -47q-12 -43 -12 -121q0 -135 61 -212
q62 -77 228 -77t295 103q10 6 16 6q27 0 27 -26q0 -12 -17 -27q-134 -109 -329 -109zM899 735q0 76 -63 123t-170 47q-166 0 -282 -102t-153 -314q260 1 353 17q94 16 149 34q101 34 145 108q21 38 21 87z" />
    <glyph glyph-name="Eogonek" unicode="&#x118;" horiz-adv-x="1048" 
d="M967 -295q20 0 20 -17t-16 -26q-53 -29 -127 -29q-156 0 -156 123q0 74 54 142t153 102h-678q-29 0 -27 33l232 1313q8 33 37 32h694q25 0 25 -24q0 -14 -10 -24t-25 -9h-662l-104 -598h516q25 0 25 -25q0 -14 -10 -23t-25 -9h-516l-107 -609h686q23 1 23 -23t-27 -34
q-102 -41 -151 -102t-50 -127q0 -88 115 -88q53 0 79 11t32 11z" />
    <glyph glyph-name="eogonek" unicode="&#x119;" horiz-adv-x="942" 
d="M899 735q0 76 -63 123t-170 47q-166 0 -282 -102t-153 -314q260 1 353 17q94 16 149 34q101 34 145 108q21 38 21 87zM694 -295q20 0 21 -18q0 -16 -17 -25q-51 -29 -125 -29q-158 0 -157 123q0 135 162 224q-41 -6 -84 -7q-344 0 -344 340q0 193 71 351q39 86 97 150
t150 105q92 39 217 39q124 0 198 -62q73 -62 73 -142t-28 -130q-48 -90 -200 -141q-146 -47 -503 -47q-12 -43 -12 -121q0 -135 61 -212q62 -77 228 -77t295 103q10 6 16 6q27 0 27 -26q0 -32 -127 -93t-185 -114t-59 -131q0 -88 117 -88q44 0 74 11t34 11z" />
    <glyph glyph-name="Ecaron" unicode="&#x11a;" horiz-adv-x="1048" 
d="M1098 1724q10 0 17 -8t7 -20t-12 -21l-238 -180q-14 -10 -23 -10t-20 10l-170 182q-8 8 -8 21q0 27 27 26q12 0 24 -12l152 -168l223 172q11 8 21 8zM932 0h-721q-33 0 -25 33l232 1313q8 33 37 32h694q25 0 25 -24q0 -14 -10 -24t-25 -9h-662l-104 -598h516q25 0 24 -25
q0 -14 -10 -23t-24 -9h-517l-106 -609h686q23 0 23 -24q0 -33 -33 -33z" />
    <glyph glyph-name="ecaron" unicode="&#x11b;" horiz-adv-x="942" 
d="M953 1331q9 0 17 -8t7 -20q0 -12 -12 -21l-238 -180q-14 -10 -23 -10t-20 10l-170 182q-8 8 -8 21q0 27 26 26q12 0 25 -12l152 -168l223 172q12 8 21 8zM494 -27q-344 0 -344 340q0 193 71 351q39 86 97 150t150 105q92 39 217 39q124 0 198 -62q73 -62 73 -142
t-28 -130q-48 -90 -200 -141q-146 -47 -503 -47q-12 -43 -12 -121q0 -135 61 -212q62 -77 228 -77t295 103q10 6 16 6q27 0 27 -26q0 -12 -17 -27q-134 -109 -329 -109zM899 735q0 76 -63 123t-170 47q-166 0 -282 -102t-153 -314q260 1 353 17q94 16 149 34q101 34 145 108
q21 38 21 87z" />
    <glyph glyph-name="Gcircumflex" unicode="&#x11c;" horiz-adv-x="1376" 
d="M774 1485q-10 0 -17 8t-7 19t12 22l237 180q13 10 23 10t20 -10l170 -182q8 -8 9 -21q0 -27 -27 -26q-12 0 -25 12l-151 168l-223 -172q-11 -8 -21 -8zM874 588q-25 0 -24 24q0 14 10 24t25 9h434q27 0 22 -27l-65 -378q-2 -20 -23 -41q-227 -227 -528 -228
q-256 0 -394 129t-138 383q0 383 184 643q92 131 245 206q152 75 320 75q312 0 444 -213q15 -24 1 -38q-13 -13 -27 -13t-25 16q-121 190 -374 191q-179 0 -319 -72q-250 -129 -343 -469q-41 -152 -41 -324q0 -457 471 -456q268 -1 483 202l64 357h-402z" />
    <glyph glyph-name="gcircumflex" unicode="&#x11d;" 
d="M478 1092q-10 0 -16 8q-7 8 -7 19t12 22l238 180q14 10 23 10t20 -10l170 -182q8 -8 8 -21q0 -27 -27 -26q-12 0 -25 12l-151 168l-223 -172q-12 -8 -22 -8zM223 -219q0 -68 53 -104t138 -35q164 0 272 83t141 250l58 308q-76 -130 -301 -225q-88 -36 -172 -72t-136 -86
q-52 -51 -53 -119zM530 143q138 0 250 88t133 215l15 86q12 66 12 146q0 123 -76 175t-192 52q-205 0 -320 -133t-114 -362q0 -133 76 -200q78 -67 216 -67zM158 -242q0 104 71 175q71 70 340 163q-41 -4 -73 -4q-135 0 -230 86q-94 86 -94 230q0 244 127 398t379 152
q152 0 238 -70t85 -204q0 -72 -12 -141l-100 -568q-35 -197 -164 -291t-322 -96q-117 0 -181 54q-64 52 -64 116z" />
    <glyph glyph-name="Gbreve" unicode="&#x11e;" horiz-adv-x="1376" 
d="M985 1548q170 0 193 150q4 25 26 24q27 0 23 -24q-17 -199 -250 -199q-82 0 -133 39t-51 112t30 72q25 0 25 -24l-2 -33q0 -117 139 -117zM874 588q-25 0 -24 24q0 14 10 24t25 9h434q27 0 22 -27l-65 -378q-2 -20 -23 -41q-227 -227 -528 -228q-256 0 -394 129t-138 383
q0 383 184 643q92 131 245 206q152 75 320 75q312 0 444 -213q15 -24 1 -38q-13 -13 -27 -13t-25 16q-121 190 -374 191q-179 0 -319 -72q-250 -129 -343 -469q-41 -152 -41 -324q0 -457 471 -456q268 -1 483 202l64 357h-402z" />
    <glyph glyph-name="gbreve" unicode="&#x11f;" 
d="M906 1311q24 0 20 -25q-17 -199 -250 -199q-82 0 -133 39t-51 112t30 73q25 0 25 -25l-2 -33q0 -117 139 -116q170 0 193 149q5 25 29 25zM223 -219q0 -68 53 -104t138 -35q164 0 272 83t141 250l58 308q-76 -130 -301 -225q-88 -36 -172 -72t-136 -86q-52 -51 -53 -119z
M530 143q138 0 250 88t133 215l15 86q12 66 12 146q0 123 -76 175t-192 52q-205 0 -320 -133t-114 -362q0 -133 76 -200q78 -67 216 -67zM158 -242q0 104 71 175q71 70 340 163q-41 -4 -73 -4q-135 0 -230 86q-94 86 -94 230q0 244 127 398t379 152q152 0 238 -70t85 -204
q0 -72 -12 -141l-100 -568q-35 -197 -164 -291t-322 -96q-117 0 -181 54q-64 52 -64 116z" />
    <glyph glyph-name="Gdotaccent" unicode="&#x120;" horiz-adv-x="1376" 
d="M973 1536q-37 0 -37 35q0 57 53 57q37 0 37 -35q0 -57 -53 -57zM874 588q-25 0 -24 24q0 14 10 24t25 9h434q27 0 22 -27l-65 -378q-2 -20 -23 -41q-227 -227 -528 -228q-256 0 -394 129t-138 383q0 383 184 643q92 131 245 206q152 75 320 75q312 0 444 -213
q15 -24 1 -38q-13 -13 -27 -13t-25 16q-121 190 -374 191q-179 0 -319 -72q-250 -129 -343 -469q-41 -152 -41 -324q0 -457 471 -456q268 -1 483 202l64 357h-402z" />
    <glyph glyph-name="gdotaccent" unicode="&#x121;" 
d="M676 1124q-37 0 -37 35q0 57 53 58q37 0 37 -35q0 -58 -53 -58zM223 -219q0 -68 53 -104t138 -35q164 0 272 83t141 250l58 308q-76 -130 -301 -225q-88 -36 -172 -72t-136 -86q-52 -51 -53 -119zM530 143q138 0 250 88t133 215l15 86q12 66 12 146q0 123 -76 175
t-192 52q-205 0 -320 -133t-114 -362q0 -133 76 -200q78 -67 216 -67zM158 -242q0 104 71 175q71 70 340 163q-41 -4 -73 -4q-135 0 -230 86q-94 86 -94 230q0 244 127 398t379 152q152 0 238 -70t85 -204q0 -72 -12 -141l-100 -568q-35 -197 -164 -291t-322 -96
q-117 0 -181 54q-64 52 -64 116z" />
    <glyph glyph-name="Gcommaaccent" unicode="&#x122;" horiz-adv-x="1376" 
d="M641 -143q0 53 51 53q41 0 41 -53q0 -121 -104 -226q-10 -10 -19 -10q-18 0 -18 17q0 8 22 32q46 50 45 103q0 20 -9 46t-9 38zM874 588q-25 0 -24 24q0 14 10 24t25 9h434q27 0 22 -27l-65 -378q-2 -20 -23 -41q-227 -227 -528 -228q-256 0 -394 129t-138 383
q0 383 184 643q92 131 245 206q152 75 320 75q312 0 444 -213q15 -24 1 -38q-13 -13 -27 -13t-25 16q-121 190 -374 191q-179 0 -319 -72q-250 -129 -343 -469q-41 -152 -41 -324q0 -457 471 -456q268 -1 483 202l64 357h-402z" />
    <glyph glyph-name="gcommaaccent" unicode="&#x123;" 
d="M621 1098q0 150 114 272q10 10 21 10q18 0 18 -16q0 -8 -6 -16q-70 -90 -70 -142q0 -20 10 -47t9 -39q0 -59 -58 -59q-38 0 -38 37zM223 -219q0 -68 53 -104t138 -35q164 0 272 83t141 250l58 308q-76 -130 -301 -225q-88 -36 -172 -72t-136 -86q-52 -51 -53 -119z
M530 143q138 0 250 88t133 215l15 86q12 66 12 146q0 123 -76 175t-192 52q-205 0 -320 -133t-114 -362q0 -133 76 -200q78 -67 216 -67zM158 -242q0 104 71 175q71 70 340 163q-41 -4 -73 -4q-135 0 -230 86q-94 86 -94 230q0 244 127 398t379 152q152 0 238 -70t85 -204
q0 -72 -12 -141l-100 -568q-35 -197 -164 -291t-322 -96q-117 0 -181 54q-64 52 -64 116z" />
    <glyph glyph-name="Hcircumflex" unicode="&#x124;" horiz-adv-x="1320" 
d="M714 1485q-9 0 -17 8q-7 8 -7 19t12 22l238 180q14 10 24 10t19 -10l170 -182q8 -8 8 -21q0 -27 -26 -26q-12 0 -25 12l-152 168l-223 -172q-12 -8 -21 -8zM1311 1362q8 33 39 33t26 -33l-235 -1346q-8 -33 -39 -32q-32 0 -27 32l117 662h-819l-117 -662q-8 -33 -39 -32
q-29 0 -27 32l236 1346q8 33 38 33t28 -33l-111 -625h819z" />
    <glyph glyph-name="hcircumflex" unicode="&#x125;" 
d="M232 1485q-10 0 -16 8q-7 8 -7 19t12 22l238 180q14 10 23 10t20 -10l170 -182q8 -8 8 -21q0 -27 -27 -26q-12 0 -24 12l-152 168l-223 -172q-12 -8 -22 -8zM172 -16q-12 0 -20 9t-7 21l250 1413q4 31 35 31t27 -31l-117 -665q33 74 129 135q97 61 241 61t220 -72
t76 -188q0 -55 -9 -102l-102 -582q-4 -31 -35 -30q-31 0 -26 30l102 582q8 49 8 92q0 217 -260 217q-156 0 -254 -98t-123 -232l-100 -561q-4 -30 -35 -30z" />
    <glyph glyph-name="Hbar" unicode="&#x126;" horiz-adv-x="1318" 
d="M381 737h819l41 236h-819zM274 973q-23 0 -22 22q0 11 9 21t24 10h80l59 336q8 33 39 33t26 -33l-59 -336h819l60 336q8 33 39 33t26 -33l-57 -336h80q23 0 22 -22q0 -12 -10 -22t-23 -9h-79l-168 -957q-8 -33 -39 -32q-32 0 -27 32l117 662h-819l-117 -662
q-8 -33 -39 -32q-29 0 -27 32l168 957h-82z" />
    <glyph glyph-name="hbar" unicode="&#x127;" 
d="M172 -16q-12 0 -20 9t-7 21l205 1162h-94q-23 0 -23 22q1 12 11 22t22 9h94l35 198q4 31 35 31t27 -31l-35 -198h295q23 0 22 -23q0 -12 -10 -21t-22 -9h-295l-72 -414q33 74 129 135q97 61 241 61t220 -72t76 -188q0 -55 -9 -102l-102 -582q-4 -31 -35 -30q-31 0 -26 30
l102 582q8 49 8 92q0 217 -260 217q-156 0 -254 -98t-123 -232l-100 -561q-4 -30 -35 -30z" />
    <glyph glyph-name="Itilde" unicode="&#x128;" horiz-adv-x="434" 
d="M618 1497q-61 0 -135 44t-123 44q-72 0 -118 -78q-8 -14 -25 -14q-25 0 -24 23q0 8 13 34t56 58q93 67 238 -14q78 -44 125 -44q70 0 116 80q10 16 27 17q25 0 25 -23q0 -8 -7 -20q-59 -107 -168 -107zM463 1395q31 0 26 -33l-235 -1346q-6 -33 -39 -32q-29 0 -27 32
l236 1346q8 33 39 33z" />
    <glyph glyph-name="itilde" unicode="&#x129;" horiz-adv-x="358" 
d="M506 1096q-59 0 -135 44t-123 44q-72 0 -119 -78q-8 -14 -25 -14q-25 0 -24 22q0 8 13 35t57 57t102 31q59 0 135 -44t125 -44q70 0 117 80q10 16 26 16q25 0 25 -22q0 -8 -6 -21q-59 -106 -168 -106zM352 946q29 0 25 -31l-160 -901q-4 -31 -35 -30q-12 0 -20 9t-6 21
l159 901q1 11 13 21t24 10z" />
    <glyph glyph-name="Imacron" unicode="&#x12a;" horiz-adv-x="434" 
d="M729 1567q0 -31 -31 -31h-430q-23 0 -22 23q0 12 9 21t21 9h431q22 1 22 -22zM463 1395q31 0 26 -33l-235 -1346q-6 -33 -39 -32q-29 0 -27 32l236 1346q8 33 39 33z" />
    <glyph glyph-name="imacron" unicode="&#x12b;" horiz-adv-x="358" 
d="M621 1165q0 -31 -31 -30h-430q-23 0 -23 22q0 11 9 21t22 10h430q23 0 23 -23zM352 946q29 0 25 -31l-160 -901q-4 -31 -35 -30q-12 0 -20 9t-6 21l159 901q1 11 13 21t24 10z" />
    <glyph glyph-name="Ibreve" unicode="&#x12c;" horiz-adv-x="434" 
d="M487 1548q170 0 193 150q4 25 27 24q27 0 22 -24q-17 -199 -250 -199q-82 0 -133 39t-51 112t31 72q25 0 24 -24l-2 -33q0 -117 139 -117zM463 1395q31 0 26 -33l-235 -1346q-6 -33 -39 -32q-29 0 -27 32l236 1346q8 33 39 33z" />
    <glyph glyph-name="ibreve" unicode="&#x12d;" horiz-adv-x="358" 
d="M602 1311q25 0 21 -25q-17 -199 -250 -199q-82 0 -133 39q-52 39 -52 112t31 73q25 0 25 -25l-2 -33q0 -117 139 -116q170 0 192 149q4 25 29 25zM352 946q29 0 25 -31l-160 -901q-4 -31 -35 -30q-12 0 -20 9t-6 21l159 901q1 11 13 21t24 10z" />
    <glyph glyph-name="Iogonek" unicode="&#x12e;" horiz-adv-x="434" 
d="M285 -295q20 0 20 -17t-16 -26q-51 -29 -125 -29q-158 0 -158 123q0 152 187 238q-8 6 -5 22l236 1346q8 33 39 33t26 -33l-235 -1346q-2 -20 -29 -32q-166 -74 -166 -213q0 -88 117 -88q45 0 75 11t34 11z" />
    <glyph glyph-name="iogonek" unicode="&#x12f;" horiz-adv-x="358" 
d="M408 1212q-31 0 -31 27q0 59 45 59q31 0 31 -26q0 -60 -45 -60zM248 -295q20 0 20 -17t-16 -26q-51 -29 -125 -29q-158 0 -158 123q0 70 49 132t142 106q-8 8 -4 20l159 901q4 31 35 31t27 -31l-160 -901q-4 -18 -22 -28q-172 -86 -172 -215q0 -88 116 -88q45 0 75 11
t34 11z" />
    <glyph glyph-name="Idotaccent" unicode="&#x130;" horiz-adv-x="434" 
d="M489 1536q-37 0 -36 35q0 57 53 57q37 0 37 -35q-1 -57 -54 -57zM463 1395q31 0 26 -33l-235 -1346q-6 -33 -39 -32q-29 0 -27 32l236 1346q8 33 39 33z" />
    <glyph glyph-name="dotlessi" unicode="&#x131;" horiz-adv-x="358" 
d="M352 946q29 0 25 -31l-160 -901q-4 -31 -35 -30q-12 0 -20 9t-6 21l159 901q1 11 13 21t24 10z" />
    <glyph glyph-name="IJ" unicode="&#x132;" horiz-adv-x="1255" 
d="M506 74q6 0 22 -8q74 -37 181 -37q157 0 249 100t121 270l170 963q8 33 37 33q14 1 22 -9t7 -24l-170 -963q-76 -428 -447 -428q-128 0 -204 43q-18 10 -19 27q0 33 31 33zM463 1395q31 0 26 -33l-235 -1346q-6 -33 -39 -32q-29 0 -27 32l236 1346q8 33 39 33z" />
    <glyph glyph-name="ij" unicode="&#x133;" horiz-adv-x="727" 
d="M766 1212q-31 0 -31 27q0 59 45 59q31 0 31 -26q0 -60 -45 -60zM711 946q29 0 24 -31l-182 -1034q-25 -133 -118 -213t-218 -80q-23 0 -22 23q0 12 10 21t20 10q98 0 173 68t94 171l182 1034q2 12 13 22q12 9 24 9zM408 1212q-31 0 -31 27q0 59 45 59q31 0 31 -26
q0 -60 -45 -60zM350 946q31 0 27 -31l-160 -901q-4 -31 -35 -30q-33 0 -26 30l159 901q4 31 35 31z" />
    <glyph glyph-name="Jcircumflex" unicode="&#x134;" horiz-adv-x="823" 
d="M646 1485q-10 0 -16 8q-7 8 -7 19t12 22l237 180q14 10 24 10t19 -10l170 -182q8 -8 9 -21q0 -27 -27 -26q-12 0 -25 12l-151 168l-223 -172q-12 -8 -22 -8zM41 41q0 33 31 33q6 0 22 -8q74 -37 180 -37q158 0 250 100t121 270l170 963q8 33 37 33q14 1 22 -9t7 -24
l-170 -963q-76 -428 -447 -428q-129 0 -205 43q-18 10 -18 27z" />
    <glyph glyph-name="jcircumflex" unicode="&#x135;" horiz-adv-x="368" 
d="M161 1092q-9 0 -17 8q-7 8 -7 19t13 22l237 180q13 10 23 10t20 -10l170 -182q8 -8 8 -21q0 -27 -26 -26q-12 0 -25 12l-151 168l-224 -172q-12 -8 -21 -8zM352 946q29 0 25 -31l-182 -1034q-25 -133 -118 -213t-218 -80q-23 0 -23 23q0 12 10 21t21 10q98 0 173 68
t93 171l182 1034q1 11 13 21t24 10z" />
    <glyph glyph-name="Kcommaaccent" unicode="&#x136;" horiz-adv-x="1122" 
d="M547 -143q0 53 51 53q41 0 41 -53q0 -121 -104 -226q-10 -10 -19 -10q-18 0 -18 17q0 8 22 32q46 50 45 103q0 20 -9 46t-9 38zM1257 1362q0 -14 -16 -31l-569 -532l403 -766q4 -8 4 -17q0 -33 -32 -32q-18 0 -29 18l-400 746l-282 -265l-82 -467q-6 -33 -39 -32
q-29 0 -27 32l236 1346q8 33 39 33t26 -33l-137 -784l846 804q12 12 26 12t24 -8q9 -10 9 -24z" />
    <glyph glyph-name="kcommaaccent" unicode="&#x137;" horiz-adv-x="897" 
d="M426 -143q0 53 51 53q41 0 41 -53q0 -121 -104 -226q-10 -10 -19 -10q-18 0 -18 17q-1 8 21 32q46 50 46 103q0 20 -9 46t-9 38zM827 -16q-16 0 -24 14l-336 526l-197 -145l-63 -365q-4 -31 -35 -30q-31 0 -27 30l250 1413q4 31 35 31q12 0 20 -9t7 -22l-168 -968
l659 479q10 8 20 8t20 -8q9 -8 9 -21t-16 -26l-467 -332l336 -526q6 -8 6 -21q0 -28 -29 -28z" />
    <glyph glyph-name="kgreenlandic" unicode="&#x138;" horiz-adv-x="915" 
d="M827 -16q-16 0 -28 16l-322 526l-207 -149l-63 -363q-8 -31 -35 -30q-12 0 -20 9t-7 21l160 901q4 31 35 31t27 -31l-82 -462l663 485q10 8 23 8q27 0 26 -26q0 -16 -16 -29l-461 -332l332 -524q6 -10 6 -21q0 -30 -31 -30z" />
    <glyph glyph-name="Lacute" unicode="&#x139;" horiz-adv-x="976" 
d="M729 1761q20 -23 -6 -45l-254 -229q-18 -16 -33 -2q-14 14 2 33l246 241q25 25 45 2zM897 57q25 0 25 -24q0 -13 -10 -23t-25 -10h-674q-29 0 -25 29l236 1333q8 33 39 33t26 -33l-229 -1305h637z" />
    <glyph glyph-name="lacute" unicode="&#x13a;" horiz-adv-x="399" 
d="M666 1778q20 -23 -7 -45l-253 -230q-18 -16 -34 -2t3 33l246 242q25 25 45 2zM430 1458q12 0 20 -9t7 -22l-215 -1222q-6 -33 -6 -62q0 -106 104 -106q23 0 22 -23q0 -12 -9 -21t-23 -9q-156 0 -156 153q0 31 6 68l215 1222q6 31 35 31z" />
    <glyph glyph-name="Lcommaaccent" unicode="&#x13b;" horiz-adv-x="976" 
d="M492 -143q0 53 51 53q41 0 41 -53q0 -121 -105 -226q-10 -10 -23 -10q-14 1 -14 13t22 36q46 49 46 103q0 20 -9 46t-9 38zM897 57q25 0 25 -24q0 -13 -10 -23t-25 -10h-674q-29 0 -25 29l236 1333q8 33 39 33t26 -33l-229 -1305h637z" />
    <glyph glyph-name="lcommaaccent" unicode="&#x13c;" horiz-adv-x="399" 
d="M193 -143q0 53 51 53q41 0 41 -53q0 -121 -105 -226q-10 -10 -23 -10q-13 1 -13 13t21 36q46 49 46 103q0 20 -9 46t-9 38zM430 1458q12 0 20 -9t7 -22l-215 -1222q-6 -33 -6 -62q0 -106 104 -106q23 0 22 -23q0 -12 -9 -21t-23 -9q-156 0 -156 153q0 31 6 68l215 1222
q6 31 35 31z" />
    <glyph glyph-name="Lcaron" unicode="&#x13d;" horiz-adv-x="976" 
d="M934 1358q0 -150 -115 -273q-10 -10 -20 -10q-18 0 -19 17q0 6 6 16q70 90 70 141q0 20 -9 47t-9 39q0 59 57 60q39 0 39 -37zM897 57q25 0 25 -24q0 -13 -10 -23t-25 -10h-674q-29 0 -25 29l236 1333q8 33 39 33t26 -33l-229 -1305h637z" />
    <glyph glyph-name="lcaron" unicode="&#x13e;" horiz-adv-x="409" 
d="M684 1421q0 -150 -115 -272q-10 -10 -24 -10q-15 0 -15 12t7 20q70 90 69 142q0 20 -9 47t-9 39q0 59 57 59q39 0 39 -37zM430 1458q12 0 20 -9t7 -22l-215 -1222q-6 -33 -6 -62q0 -106 104 -106q23 0 22 -23q0 -12 -9 -21t-23 -9q-156 0 -156 153q0 31 6 68l215 1222
q6 31 35 31z" />
    <glyph glyph-name="Ldot" unicode="&#x13f;" horiz-adv-x="976" 
d="M893 645q-49 0 -49 47q0 76 69 76q49 0 50 -47q0 -76 -70 -76zM897 57q25 0 25 -24q0 -13 -10 -23t-25 -10h-674q-29 0 -25 29l236 1333q8 33 39 33t26 -33l-229 -1305h637z" />
    <glyph glyph-name="ldot" unicode="&#x140;" horiz-adv-x="471" 
d="M524 709q-49 0 -49 47q0 76 70 75q49 0 49 -47q0 -75 -70 -75zM430 1458q12 0 20 -9t7 -22l-215 -1222q-6 -33 -6 -62q0 -106 104 -106q23 0 22 -23q0 -12 -9 -21t-23 -9q-156 0 -156 153q0 31 6 68l215 1222q6 31 35 31z" />
    <glyph glyph-name="Lslash" unicode="&#x141;" horiz-adv-x="976" 
d="M897 57q23 0 23 -24q0 -33 -33 -33h-674q-29 0 -25 29l95 536l-129 -57q-8 -4 -17 -4q-23 0 -22 22q0 16 18 25l160 70l131 741q8 33 39 33t26 -33l-127 -713l467 205q8 4 17 4q23 0 22 -22q0 -16 -18 -25l-498 -217l-92 -537h637z" />
    <glyph glyph-name="lslash" unicode="&#x142;" horiz-adv-x="522" 
d="M502 1458q12 0 20 -9t6 -22l-102 -583l182 96q8 4 15 4q23 0 22 -20q0 -18 -18 -27l-211 -111l-103 -581q-6 -33 -6 -62q0 -106 105 -106q23 0 22 -23q0 -12 -9 -21t-24 -9q-156 0 -155 153q0 31 6 68l96 545l-149 -78q-8 -4 -17 -4q-20 0 -20 18t16 27l180 94l109 620
q6 31 35 31z" />
    <glyph glyph-name="Nacute" unicode="&#x143;" horiz-adv-x="1271" 
d="M1128 1761q20 -23 -6 -45l-254 -229q-18 -16 -33 -2t3 33l245 241q25 25 45 2zM1323 1395q12 1 20 -9t7 -22l-238 -1348q-8 -32 -34 -32t-34 18l-595 1270l-222 -1258q-4 -31 -34 -30q-12 0 -21 9q-8 9 -6 21l240 1350q4 31 34 31q20 0 27 -17l600 -1265l221 1251
q4 31 35 31z" />
    <glyph glyph-name="nacute" unicode="&#x144;" 
d="M915 1346q20 -23 -6 -46l-254 -229q-18 -16 -33 -1t3 32l245 241q25 26 45 3zM172 -16q-12 0 -20 9t-7 21l160 901q4 31 35 31t27 -31l-27 -153q33 74 129 135q97 61 241 61t220 -72t76 -188q0 -55 -9 -102l-102 -582q-4 -31 -35 -30q-31 0 -26 30l102 582q8 49 8 92
q0 217 -260 217q-156 0 -254 -98t-123 -232l-100 -561q-4 -30 -35 -30z" />
    <glyph glyph-name="Ncommaaccent" unicode="&#x145;" horiz-adv-x="1271" 
d="M561 -143q0 53 51 53q41 0 41 -53q0 -121 -104 -226q-10 -10 -19 -10q-18 0 -18 17q0 8 33 44q54 60 25 137q-9 26 -9 38zM1323 1395q12 1 20 -9t7 -22l-238 -1348q-8 -32 -34 -32t-34 18l-595 1270l-222 -1258q-4 -31 -34 -30q-12 0 -21 9q-8 9 -6 21l240 1350
q4 31 34 31q20 0 27 -17l600 -1265l221 1251q4 31 35 31z" />
    <glyph glyph-name="ncommaaccent" unicode="&#x146;" 
d="M528 -143q0 -121 -104 -226q-10 -10 -23 -10q-13 1 -13 13t32 48q54 60 25 137q-9 25 -9 43t14 33t37 15q41 0 41 -53zM172 -16q-12 0 -20 9t-7 21l160 901q4 31 35 31t27 -31l-27 -153q33 74 129 135q97 61 241 61t220 -72t76 -188q0 -55 -9 -102l-102 -582
q-4 -31 -35 -30q-31 0 -26 30l102 582q8 49 8 92q0 217 -260 217q-156 0 -254 -98t-123 -232l-100 -561q-4 -30 -35 -30z" />
    <glyph glyph-name="Ncaron" unicode="&#x147;" horiz-adv-x="1271" 
d="M1166 1724q8 0 16 -8t8 -20t-12 -21l-238 -180q-14 -10 -23 -10t-20 10l-170 182q-8 8 -8 21q0 27 26 26q12 0 25 -12l152 -168l223 172q12 8 21 8zM1323 1395q12 1 20 -9t7 -22l-238 -1348q-8 -32 -34 -32t-34 18l-595 1270l-222 -1258q-4 -31 -34 -30q-12 0 -21 9
q-8 9 -6 21l240 1350q4 31 34 31q20 0 27 -17l600 -1265l221 1251q4 31 35 31z" />
    <glyph glyph-name="ncaron" unicode="&#x148;" 
d="M955 1331q9 0 17 -8t7 -20q0 -12 -12 -21l-238 -180q-14 -10 -23 -10t-20 10l-170 182q-8 8 -8 21q0 27 27 26q12 0 24 -12l152 -168l223 172q12 8 21 8zM172 -16q-12 0 -20 9t-7 21l160 901q4 31 35 31t27 -31l-27 -153q33 74 129 135q97 61 241 61t220 -72t76 -188
q0 -55 -9 -102l-102 -582q-4 -31 -35 -30q-31 0 -26 30l102 582q8 49 8 92q0 217 -260 217q-156 0 -254 -98t-123 -232l-100 -561q-4 -30 -35 -30z" />
    <glyph glyph-name="napostrophe" unicode="&#x149;" 
d="M403 1325q0 -121 -104 -225q-10 -10 -23 -10q-14 0 -14 12t33 48q53 58 26 137q-18 52 -1 72q18 19 42 19q41 0 41 -53zM172 -16q-12 0 -20 9t-7 21l160 901q4 31 35 31t27 -31l-27 -153q33 74 129 135q97 61 241 61t220 -72t76 -188q0 -55 -9 -102l-102 -582
q-4 -31 -35 -30q-31 0 -26 30l102 582q8 49 8 92q0 217 -260 217q-156 0 -254 -98t-123 -232l-100 -561q-4 -30 -35 -30z" />
    <glyph glyph-name="Eng" unicode="&#x14a;" horiz-adv-x="1271" 
d="M1323 1395q12 1 20 -9t7 -22l-238 -1348q-33 -188 -168 -308t-346 -120q-25 0 -25 25q1 14 11 23t24 10q174 0 288 97t151 255l-598 1274l-222 -1258q-4 -31 -34 -30q-12 0 -21 9q-8 9 -6 21l240 1350q4 31 34 31q20 0 27 -17l600 -1265l221 1251q4 31 35 31z" />
    <glyph glyph-name="eng" unicode="&#x14b;" 
d="M172 -16q-12 0 -20 9t-7 21l160 901q4 31 35 31t27 -31l-27 -153q33 74 129 135q97 61 241 61t220 -72t76 -188q0 -55 -9 -102l-127 -721q-24 -121 -118 -204t-215 -83q-23 0 -23 23q0 12 9 21t22 10q98 0 174 70t92 169l125 715q8 49 8 92q0 217 -260 217
q-156 0 -254 -98t-123 -232l-100 -561q-4 -30 -35 -30z" />
    <glyph glyph-name="Omacron" unicode="&#x14c;" horiz-adv-x="1441" 
d="M1247 1567q0 -31 -30 -31h-431q-23 0 -22 23q0 12 9 21t22 9h430q22 1 22 -22zM723 -29q-254 0 -392 129t-138 383q0 382 183 643q92 131 242 206t345 75q254 0 392 -129t138 -383q0 -380 -183 -643q-92 -131 -242 -206t-345 -75zM727 29q181 -1 319 71q251 129 340 469
q41 152 41 324q0 457 -469 457q-180 0 -318 -72q-249 -130 -341 -469q-41 -152 -41 -324q0 -456 469 -456z" />
    <glyph glyph-name="omacron" unicode="&#x14d;" horiz-adv-x="999" 
d="M965 1165q0 -31 -31 -30h-430q-23 0 -23 22q0 11 9 21t22 10h430q23 0 23 -23zM1014 614q0 -121 -28 -229q-106 -412 -506 -412q-154 0 -243 86t-90 258q0 320 171 503q58 62 148 100t202 38q168 0 257 -86t89 -258zM504 27q221 0 333 169t111 416q0 293 -291 293
q-221 0 -333 -169t-111 -417q0 -292 291 -292z" />
    <glyph glyph-name="Obreve" unicode="&#x14e;" horiz-adv-x="1441" 
d="M1004 1548q170 0 192 150q4 25 27 24q27 0 22 -24q-17 -199 -250 -199q-82 0 -133 39t-51 112t31 72q25 0 24 -24l-2 -33q0 -117 140 -117zM723 -29q-254 0 -392 129t-138 383q0 382 183 643q92 131 242 206t345 75q254 0 392 -129t138 -383q0 -380 -183 -643
q-92 -131 -242 -206t-345 -75zM727 29q181 -1 319 71q251 129 340 469q41 152 41 324q0 457 -469 457q-180 0 -318 -72q-249 -130 -341 -469q-41 -152 -41 -324q0 -456 469 -456z" />
    <glyph glyph-name="obreve" unicode="&#x14f;" horiz-adv-x="999" 
d="M918 1311q24 0 20 -25q-17 -199 -250 -199q-82 0 -133 39t-51 112t31 73q25 0 24 -25l-2 -33q0 -117 139 -116q170 0 193 149q5 25 29 25zM1014 614q0 -121 -28 -229q-106 -412 -506 -412q-154 0 -243 86t-90 258q0 320 171 503q58 62 148 100t202 38q168 0 257 -86
t89 -258zM504 27q221 0 333 169t111 416q0 293 -291 293q-221 0 -333 -169t-111 -417q0 -292 291 -292z" />
    <glyph glyph-name="Ohungarumlaut" unicode="&#x150;" horiz-adv-x="1441" 
d="M1354 1761q20 -23 -6 -45l-254 -229q-18 -16 -34 -2t3 33l246 241q25 25 45 2zM1137 1761q20 -23 -7 -45l-253 -229q-17 -16 -33 -2t2 33l246 241q25 25 45 2zM723 -29q-254 0 -392 129t-138 383q0 382 183 643q92 131 242 206t345 75q254 0 392 -129t138 -383
q0 -380 -183 -643q-92 -131 -242 -206t-345 -75zM727 29q181 -1 319 71q251 129 340 469q41 152 41 324q0 457 -469 457q-180 0 -318 -72q-249 -130 -341 -469q-41 -152 -41 -324q0 -456 469 -456z" />
    <glyph glyph-name="ohungarumlaut" unicode="&#x151;" horiz-adv-x="999" 
d="M1042 1346q20 -23 -6 -46l-254 -229q-18 -16 -33 -1t3 32l245 241q25 26 45 3zM825 1346q20 -23 -6 -46l-254 -229q-17 -16 -33 -1t3 32l245 241q25 26 45 3zM1014 614q0 -121 -28 -229q-106 -412 -506 -412q-154 0 -243 86t-90 258q0 320 171 503q58 62 148 100t202 38
q168 0 257 -86t89 -258zM504 27q221 0 333 169t111 416q0 293 -291 293q-221 0 -333 -169t-111 -417q0 -292 291 -292z" />
    <glyph glyph-name="OE" unicode="&#x152;" horiz-adv-x="1929" 
d="M727 29q211 0 360 94l199 1132q-116 95 -312 95q-528 1 -675 -541q-41 -152 -41 -324q0 -456 469 -456zM1817 0h-719q-31 0 -27 33l4 20q-164 -82 -352 -82q-254 0 -392 129t-138 383q0 382 183 643q92 131 242 206t349 75t331 -82l5 21q8 33 38 32h695q25 0 24 -24
q0 -14 -10 -24t-25 -9h-661l-104 -598h516q23 0 22 -25q0 -33 -33 -32h-516l-108 -609h686q25 0 24 -24q0 -13 -10 -23t-24 -10z" />
    <glyph glyph-name="oe" unicode="&#x153;" horiz-adv-x="1716" 
d="M1673 735q0 76 -63 123t-170 47q-166 0 -282 -102t-152 -314q258 1 352 17t149 34q101 34 145 108q21 38 21 87zM504 27q221 0 333 169t111 416q0 293 -291 293q-221 0 -333 -169t-111 -417q0 -292 291 -292zM1268 -27q-303 0 -336 269q-131 -268 -438 -269
q-168 0 -257 86t-90 258q0 320 171 503q58 62 148 100t202 38q305 0 338 -276q135 276 444 276q133 0 207 -62t74 -142t-28 -130q-49 -90 -198 -139t-506 -49q-12 -51 -12 -121q-1 -135 61 -212t228 -77t295 103q8 6 16 6q27 0 27 -26q0 -12 -17 -27q-134 -109 -329 -109z
" />
    <glyph glyph-name="Racute" unicode="&#x154;" horiz-adv-x="1124" 
d="M1018 1761q20 -23 -6 -45l-254 -229q-18 -16 -34 -2t3 33l246 241q25 25 45 2zM891 1378q141 0 228 -90t87 -242t-129 -285q-129 -134 -329 -134h-33l329 -594q6 -8 7 -19q0 -31 -31 -30q-18 0 -27 16l-344 627h-287l-108 -611q-4 -33 -39 -32q-29 0 -27 32l234 1330
q8 33 39 32h430zM758 686q158 0 270 113t111 244q0 131 -71 205t-187 73h-398l-112 -635h387z" />
    <glyph glyph-name="racute" unicode="&#x155;" horiz-adv-x="604" 
d="M756 1346q20 -23 -6 -46l-254 -229q-18 -16 -34 -1t3 32l246 241q25 26 45 3zM340 946q12 0 20 -9t7 -22l-35 -192q49 109 149 171t242 62q23 0 22 -22q0 -12 -10 -22t-22 -9q-174 0 -281 -111q-106 -112 -139 -296l-86 -482q-4 -31 -35 -30q-31 0 -27 30l160 901
q4 31 35 31z" />
    <glyph glyph-name="Rcommaaccent" unicode="&#x156;" horiz-adv-x="1126" 
d="M612 -143q0 -121 -104 -226q-10 -10 -19 -10q-18 0 -18 17q0 8 33 44q54 60 25 137q-9 25 -9 43t14 33t37 15q41 0 41 -53zM891 1378q141 0 228 -90t87 -242t-129 -285q-129 -134 -329 -134h-33l329 -594q6 -8 7 -19q0 -31 -31 -30q-18 0 -27 16l-344 627h-287l-108 -611
q-4 -33 -39 -32q-29 0 -27 32l234 1330q8 33 39 32h430zM758 686q158 0 270 113t111 244q0 131 -71 205t-187 73h-398l-112 -635h387z" />
    <glyph glyph-name="rcommaaccent" unicode="&#x157;" horiz-adv-x="604" 
d="M197 -143q0 -121 -105 -226q-10 -10 -23 -10q-13 1 -13 13t20 36q46 51 47 103q0 20 -14 59t4 59q18 19 43 19q41 0 41 -53zM340 946q12 0 20 -9t7 -22l-35 -192q49 109 149 171t242 62q23 0 22 -22q0 -12 -10 -22t-22 -9q-174 0 -281 -111q-106 -112 -139 -296l-86 -482
q-4 -31 -35 -30q-31 0 -27 30l160 901q4 31 35 31z" />
    <glyph glyph-name="Rcaron" unicode="&#x158;" horiz-adv-x="1124" 
d="M1056 1724q10 0 16 -8q7 -8 7 -20t-12 -21l-238 -180q-14 -10 -23 -10t-20 10l-170 182q-8 8 -8 21q0 27 27 26q12 0 24 -12l152 -168l223 172q12 8 22 8zM891 1378q141 0 228 -90t87 -242t-129 -285q-129 -134 -329 -134h-33l329 -594q6 -8 7 -19q0 -31 -31 -30
q-18 0 -27 16l-344 627h-287l-108 -611q-4 -33 -39 -32q-29 0 -27 32l234 1330q8 33 39 32h430zM758 686q158 0 270 113t111 244q0 131 -71 205t-187 73h-398l-112 -635h387z" />
    <glyph glyph-name="rcaron" unicode="&#x159;" horiz-adv-x="604" 
d="M781 1331q9 0 17 -8t7 -20q0 -12 -12 -21l-238 -180q-13 -10 -23 -10t-20 10l-170 182q-8 8 -8 21q0 27 26 26q12 0 25 -12l152 -168l223 172q12 8 21 8zM340 946q12 0 20 -9t7 -22l-35 -192q49 109 149 171t242 62q23 0 22 -22q0 -12 -10 -22t-22 -9q-174 0 -281 -111
q-106 -112 -139 -296l-86 -482q-4 -31 -35 -30q-31 0 -27 30l160 901q4 31 35 31z" />
    <glyph glyph-name="Sacute" unicode="&#x15a;" horiz-adv-x="1095" 
d="M1069 1761q20 -23 -6 -45l-254 -229q-18 -16 -33 -2q-14 14 2 33l246 241q25 25 45 2zM381 1038q0 -92 72 -154t174 -98t204 -76q103 -40 175 -115t71 -187q0 -207 -139 -322t-410 -115q-297 0 -419 246q-14 27 -1 39t29 12t23 -16q100 -223 379 -223q219 0 346 96
t127 272q0 85 -52 147t-130 94t-168 68t-167 70t-129 101q-52 68 -53 159q0 156 129 264t355 107q262 0 389 -199q8 -12 8 -22q0 -31 -31 -31q-18 0 -26 16q-104 180 -351 181q-197 0 -301 -94t-104 -220z" />
    <glyph glyph-name="sacute" unicode="&#x15b;" horiz-adv-x="817" 
d="M817 1346q20 -23 -6 -46l-254 -229q-17 -16 -33 -1t2 32l246 241q25 26 45 3zM561 905q-113 0 -193 -51t-81 -149q0 -68 52 -114t126 -74q73 -29 147 -57t126 -77t53 -121q-1 -141 -107 -215t-281 -74q-117 0 -199 42t-120 96q-8 12 -8 23q0 12 9 20t22 8t22 -12
q90 -123 285 -123q135 0 224 55t89 166t-176 177q-74 29 -149 57t-126 81t-51 131q1 127 99 196t245 68q195 0 283 -120q6 -10 6 -19q0 -27 -27 -26q-12 0 -20 8q-92 104 -250 104z" />
    <glyph glyph-name="Scircumflex" unicode="&#x15c;" horiz-adv-x="1095" 
d="M628 1485q-9 0 -17 8q-7 8 -7 19t12 22l238 180q14 10 24 10t19 -10l170 -182q8 -8 8 -21q0 -27 -26 -26q-12 0 -25 12l-152 168l-223 -172q-12 -8 -21 -8zM381 1038q0 -92 72 -154t174 -98t204 -76q103 -40 175 -115t71 -187q0 -207 -139 -322t-410 -115
q-297 0 -419 246q-14 27 -1 39t29 12t23 -16q100 -223 379 -223q219 0 346 96t127 272q0 85 -52 147t-130 94t-168 68t-167 70t-129 101q-52 68 -53 159q0 156 129 264t355 107q262 0 389 -199q8 -12 8 -22q0 -31 -31 -31q-18 0 -26 16q-104 180 -351 181q-197 0 -301 -94
t-104 -220z" />
    <glyph glyph-name="scircumflex" unicode="&#x15d;" horiz-adv-x="817" 
d="M402 1092q-10 0 -16 8q-7 8 -7 19t12 22l238 180q14 10 23 10t20 -10l170 -182q8 -8 8 -21q0 -27 -27 -26q-12 0 -24 12l-152 168l-223 -172q-12 -8 -22 -8zM561 905q-113 0 -193 -51t-81 -149q0 -68 52 -114t126 -74q73 -29 147 -57t126 -77t53 -121q-1 -141 -107 -215
t-281 -74q-117 0 -199 42t-120 96q-8 12 -8 23q0 12 9 20t22 8t22 -12q90 -123 285 -123q135 0 224 55t89 166t-176 177q-74 29 -149 57t-126 81t-51 131q1 127 99 196t245 68q195 0 283 -120q6 -10 6 -19q0 -27 -27 -26q-12 0 -20 8q-92 104 -250 104z" />
    <glyph glyph-name="Scedilla" unicode="&#x15e;" horiz-adv-x="1095" 
d="M567 -156l-83 -12q-18 0 -13 27l27 114q-274 10 -389 244q-14 27 -1 39t29 12t23 -16q100 -223 379 -223q219 0 346 96t127 272q0 85 -52 147t-130 94t-168 68t-167 70t-129 101q-52 68 -53 159q0 156 129 264t355 107q262 0 389 -199q8 -12 8 -22q0 -31 -31 -31
q-18 0 -26 16q-104 180 -351 181q-197 0 -301 -94t-104 -220q0 -92 72 -154t174 -98t204 -76q103 -40 175 -115t71 -187q0 -205 -136 -320t-404 -117l-25 -98q29 8 61 8q146 -1 146 -149q0 -78 -52 -134q-53 -56 -147 -56t-133 30q-12 10 -12 20q0 20 20 21q6 0 17 -6
q41 -27 92 -27q166 0 166 164q0 100 -103 100z" />
    <glyph glyph-name="scedilla" unicode="&#x15f;" horiz-adv-x="817" 
d="M428 -156l-83 -12q-18 0 -13 27l26 116q-100 9 -171 49t-103 87q-8 12 -8 23q0 12 9 20t22 8t22 -12q90 -123 285 -123q135 0 224 55t89 166t-176 177q-74 29 -149 57t-126 81t-51 131q1 127 99 196t245 68q195 0 283 -120q6 -10 6 -19q0 -27 -27 -26q-12 0 -20 8
q-92 104 -250 104q-113 0 -193 -51t-81 -149q0 -68 52 -114t126 -74q73 -29 147 -57t126 -77t53 -121q0 -141 -108 -215t-286 -74l-24 -100q29 8 61 8q146 -1 146 -149q0 -78 -52 -134t-147 -56q-94 0 -133 30q-12 10 -12 20q0 20 20 21q6 0 16 -6q41 -27 93 -27
q166 0 165 164q0 100 -102 100z" />
    <glyph glyph-name="Scaron" unicode="&#x160;" horiz-adv-x="1095" 
d="M1074 1724q8 0 16 -8t8 -20t-13 -21l-237 -180q-14 -10 -24 -10t-19 10l-170 182q-8 8 -8 21q0 27 26 26q12 0 25 -12l151 -168l224 172q12 8 21 8zM381 1038q0 -92 72 -154t174 -98t204 -76q103 -40 175 -115t71 -187q0 -207 -139 -322t-410 -115q-297 0 -419 246
q-14 27 -1 39t29 12t23 -16q100 -223 379 -223q219 0 346 96t127 272q0 85 -52 147t-130 94t-168 68t-167 70t-129 101q-52 68 -53 159q0 156 129 264t355 107q262 0 389 -199q8 -12 8 -22q0 -31 -31 -31q-18 0 -26 16q-104 180 -351 181q-197 0 -301 -94t-104 -220z" />
    <glyph glyph-name="scaron" unicode="&#x161;" horiz-adv-x="817" 
d="M848 1331q10 0 17 -8t7 -20t-12 -21l-237 -180q-13 -10 -23 -10t-20 10l-170 182q-8 8 -9 21q0 27 27 26q12 0 25 -12l151 -168l223 172q11 8 21 8zM561 905q-113 0 -193 -51t-81 -149q0 -68 52 -114t126 -74q73 -29 147 -57t126 -77t53 -121q-1 -141 -107 -215t-281 -74
q-117 0 -199 42t-120 96q-8 12 -8 23q0 12 9 20t22 8t22 -12q90 -123 285 -123q135 0 224 55t89 166t-176 177q-74 29 -149 57t-126 81t-51 131q1 127 99 196t245 68q195 0 283 -120q6 -10 6 -19q0 -27 -27 -26q-12 0 -20 8q-92 104 -250 104z" />
    <glyph glyph-name="Tcommaaccent" unicode="&#x162;" horiz-adv-x="1089" 
d="M473 -143q0 53 51 53q41 0 41 -53q0 -121 -104 -226q-10 -10 -19 -10q-18 0 -18 17q0 8 33 44q54 60 25 137q-9 26 -9 38zM322 1321q-25 0 -25 25q0 14 10 23t25 9h911q25 0 25 -24q0 -14 -10 -24t-25 -9h-424l-229 -1305q-8 -33 -37 -32q-14 0 -23 9q-8 9 -6 23
l229 1305h-421z" />
    <glyph glyph-name="tcommaaccent" unicode="&#x163;" horiz-adv-x="552" 
d="M250 -143q0 53 51 53q41 0 41 -53q0 -121 -104 -226q-10 -10 -19 -10q-18 0 -18 17q-1 8 21 32q46 50 46 103q0 20 -9 46t-9 38zM610 930q23 0 23 -23q0 -12 -9 -21t-22 -9h-184l-115 -652q-4 -27 -4 -49q0 -68 38 -104t103 -35q23 0 23 -23q0 -12 -10 -21t-23 -9
q-94 0 -144 49t-50 133q0 27 6 63l114 648h-127q-23 0 -22 22q0 11 10 21t21 10h127l45 250q4 31 34 30q12 0 20 -8t7 -22l-45 -250h184z" />
    <glyph glyph-name="Tcaron" unicode="&#x164;" horiz-adv-x="1089" 
d="M1058 1724q10 0 16 -8q7 -8 7 -20t-12 -21l-238 -180q-14 -10 -23 -10t-20 10l-170 182q-8 8 -8 21q0 27 27 26q12 0 25 -12l151 -168l223 172q12 8 22 8zM322 1321q-25 0 -25 25q0 14 10 23t25 9h911q25 0 25 -24q0 -14 -10 -24t-25 -9h-424l-229 -1305q-8 -33 -37 -32
q-14 0 -23 9q-8 9 -6 23l229 1305h-421z" />
    <glyph glyph-name="tcaron" unicode="&#x165;" horiz-adv-x="552" 
d="M733 1358q0 -150 -115 -273q-10 -10 -20 -10q-18 0 -18 17q0 6 6 16q70 90 69 141q0 20 -9 47t-9 39q0 59 57 60q39 0 39 -37zM610 930q23 0 23 -23q0 -12 -9 -21t-22 -9h-184l-115 -652q-4 -27 -4 -49q0 -68 38 -104t103 -35q23 0 23 -23q0 -12 -10 -21t-23 -9
q-94 0 -144 49t-50 133q0 27 6 63l114 648h-127q-23 0 -22 22q0 11 10 21t21 10h127l45 250q4 31 34 30q12 0 20 -8t7 -22l-45 -250h184z" />
    <glyph glyph-name="Tbar" unicode="&#x166;" horiz-adv-x="1089" 
d="M322 1321q-25 0 -25 25q0 14 10 23t25 9h913q23 0 23 -24q0 -33 -33 -33h-424l-106 -596h233q23 0 23 -23q1 -12 -9 -21t-22 -9h-236l-114 -656q-8 -33 -37 -32q-14 0 -23 9q-8 9 -6 23l115 656h-232q-23 0 -22 22q0 12 9 22t22 9h233l106 596h-423z" />
    <glyph glyph-name="tbar" unicode="&#x167;" horiz-adv-x="542" 
d="M610 930q23 0 23 -23q0 -12 -9 -21t-22 -9h-184l-43 -238h184q23 0 23 -23q0 -12 -10 -21t-21 -9h-184l-64 -361q-4 -27 -4 -49q0 -68 38 -104t103 -35q23 0 23 -23q0 -12 -10 -21t-23 -9q-94 0 -144 49t-50 133q0 27 6 63l63 357h-127q-23 0 -22 22q0 12 9 22t21 9h127
l43 238h-127q-23 0 -22 22q0 11 10 21t21 10h127l45 250q4 31 34 30q12 0 20 -8t7 -22l-45 -250h184z" />
    <glyph glyph-name="Utilde" unicode="&#x168;" horiz-adv-x="1284" 
d="M1061 1497q-61 0 -135 44t-123 44q-72 0 -119 -78q-8 -14 -25 -14q-25 0 -24 23q0 8 13 34q12 26 56 58q44 30 102 30t136 -44t125 -44q70 0 117 80q10 16 30 16t21 -22q0 -8 -6 -20q-59 -107 -168 -107zM246 293q0 51 10 113l168 956q8 33 39 33t26 -33l-167 -956
q-10 -57 -11 -103q0 -274 346 -274q403 0 469 377l168 956q8 33 39 33q13 1 21 -9t6 -24l-168 -956q-31 -183 -148 -309t-397 -126q-213 0 -307 88t-94 234z" />
    <glyph glyph-name="utilde" unicode="&#x169;" horiz-adv-x="995" 
d="M846 1096q-59 0 -135 44t-123 44q-72 0 -119 -78q-8 -14 -25 -14q-25 0 -24 22q0 8 13 35t56 57t103 31q60 0 135 -44q76 -44 125 -44q70 0 117 80q10 16 26 16q25 0 25 -22q0 -8 -6 -21q-59 -106 -168 -106zM321 946q30 0 25 -31l-102 -577q-8 -43 -8 -94
q0 -106 59 -162t224 -55q165 0 246 83t105 228l103 577q6 31 35 31q12 0 20 -9t6 -22l-102 -577q-27 -154 -116 -260q-89 -105 -322 -105q-319 0 -320 260q0 43 10 105l101 577q6 31 36 31z" />
    <glyph glyph-name="Umacron" unicode="&#x16a;" horiz-adv-x="1284" 
d="M1174 1567q0 -31 -31 -31h-430q-23 0 -23 23q0 12 9 21t22 9h430q23 1 23 -22zM246 293q0 51 10 113l168 956q8 33 39 33t26 -33l-167 -956q-10 -57 -11 -103q0 -274 346 -274q403 0 469 377l168 956q8 33 39 33q13 1 21 -9t6 -24l-168 -956q-31 -183 -148 -309
t-397 -126q-213 0 -307 88t-94 234z" />
    <glyph glyph-name="umacron" unicode="&#x16b;" horiz-adv-x="995" 
d="M961 1165q0 -31 -31 -30h-430q-23 0 -23 22q0 11 9 21t22 10h430q23 0 23 -23zM321 946q30 0 25 -31l-102 -577q-8 -43 -8 -94q0 -106 59 -162t224 -55q165 0 246 83t105 228l103 577q6 31 35 31q12 0 20 -9t6 -22l-102 -577q-27 -154 -116 -260q-89 -105 -322 -105
q-319 0 -320 260q0 43 10 105l101 577q6 31 36 31z" />
    <glyph glyph-name="Ubreve" unicode="&#x16c;" horiz-adv-x="1284" 
d="M924 1548q170 0 192 150q4 25 27 24q27 0 22 -24q-17 -199 -250 -199q-82 0 -133 39t-51 112t31 72q25 0 24 -24l-2 -33q0 -117 140 -117zM246 293q0 51 10 113l168 956q8 33 39 33t26 -33l-167 -956q-10 -57 -11 -103q0 -274 346 -274q403 0 469 377l168 956q8 33 39 33
q13 1 21 -9t6 -24l-168 -956q-31 -183 -148 -309t-397 -126q-213 0 -307 88t-94 234z" />
    <glyph glyph-name="ubreve" unicode="&#x16d;" horiz-adv-x="995" 
d="M922 1311q25 0 20 -25q-17 -199 -250 -199q-82 0 -133 39t-51 112t31 73q25 0 24 -25l-2 -33q0 -117 139 -116q170 0 193 149q4 25 29 25zM321 946q30 0 25 -31l-102 -577q-8 -43 -8 -94q0 -106 59 -162t224 -55q165 0 246 83t105 228l103 577q6 31 35 31q12 0 20 -9
t6 -22l-102 -577q-27 -154 -116 -260q-89 -105 -322 -105q-319 0 -320 260q0 43 10 105l101 577q6 31 36 31z" />
    <glyph glyph-name="Uring" unicode="&#x16e;" horiz-adv-x="1284" 
d="M924 1485q94 0 142 52t48 142q0 117 -135 117q-94 0 -142 -52t-49 -142q1 -117 136 -117zM987 1841q180 0 180 -160q-1 -106 -65 -174t-187 -67q-180 0 -180 159q1 106 65 174t187 68zM246 293q0 51 10 113l168 956q8 33 39 33t26 -33l-167 -956q-10 -57 -11 -103
q0 -274 346 -274q403 0 469 377l168 956q8 33 39 33q13 1 21 -9t6 -24l-168 -956q-31 -183 -148 -309t-397 -126q-213 0 -307 88t-94 234z" />
    <glyph glyph-name="uring" unicode="&#x16f;" horiz-adv-x="995" 
d="M692 1073q94 0 143 52q48 52 48 143q0 117 -135 116q-94 0 -142 -52t-49 -142q0 -117 135 -117zM756 1430q180 0 180 -160q0 -106 -65 -174t-187 -68q-180 0 -180 160q0 106 64 174q65 68 188 68zM321 946q30 0 25 -31l-102 -577q-8 -43 -8 -94q0 -106 59 -162t224 -55
q165 0 246 83t105 228l103 577q6 31 35 31q12 0 20 -9t6 -22l-102 -577q-27 -154 -116 -260q-89 -105 -322 -105q-319 0 -320 260q0 43 10 105l101 577q6 31 36 31z" />
    <glyph glyph-name="Uhungarumlaut" unicode="&#x170;" horiz-adv-x="1284" 
d="M1249 1761q20 -23 -6 -45l-254 -229q-18 -16 -33 -2q-14 14 2 33l246 241q25 25 45 2zM1032 1761q20 -23 -6 -45l-254 -229q-18 -16 -33 -2q-14 14 2 33l246 241q25 25 45 2zM246 293q0 51 10 113l168 956q8 33 39 33t26 -33l-167 -956q-10 -57 -11 -103q0 -274 346 -274
q403 0 469 377l168 956q8 33 39 33q13 1 21 -9t6 -24l-168 -956q-31 -183 -148 -309t-397 -126q-213 0 -307 88t-94 234z" />
    <glyph glyph-name="uhungarumlaut" unicode="&#x171;" horiz-adv-x="995" 
d="M1040 1346q20 -23 -6 -46l-254 -229q-18 -16 -32 -1t2 32l245 241q25 26 45 3zM823 1346q20 -23 -6 -46l-254 -229q-18 -16 -33 -2q-14 16 2 33l246 241q25 26 45 3zM321 946q30 0 25 -31l-102 -577q-8 -43 -8 -94q0 -106 59 -162t224 -55q165 0 246 83t105 228l103 577
q6 31 35 31q12 0 20 -9t6 -22l-102 -577q-27 -154 -116 -260q-89 -105 -322 -105q-319 0 -320 260q0 43 10 105l101 577q6 31 36 31z" />
    <glyph glyph-name="Uogonek" unicode="&#x172;" horiz-adv-x="1284" 
d="M891 -295q20 0 20 -17t-16 -26q-51 -29 -125 -29q-158 0 -158 123q0 137 164 226q-66 -10 -129 -11q-213 0 -307 88t-94 234q0 51 10 113l168 956q8 33 39 33t26 -33l-167 -956q-10 -57 -11 -103q0 -274 346 -274q403 0 469 377l168 956q8 33 39 33q13 1 21 -9t6 -24
l-168 -956q-57 -328 -326 -406q-201 -90 -200 -229q0 -88 116 -88q45 0 75 11t34 11z" />
    <glyph glyph-name="uogonek" unicode="&#x173;" horiz-adv-x="995" 
d="M707 -295q20 0 20 -17t-16 -26q-51 -29 -125 -29q-158 0 -158 123q0 135 164 224q-47 -6 -98 -7q-319 0 -320 260q0 43 10 105l101 577q6 31 36 31t25 -31l-102 -577q-8 -43 -8 -94q0 -106 59 -162t224 -55q165 0 246 83t105 228l103 577q6 31 35 31q12 0 20 -9t6 -22
l-102 -577q-23 -131 -79 -217t-177 -123q-195 -90 -195 -227q0 -88 117 -88q45 0 75 11t34 11z" />
    <glyph glyph-name="Wcircumflex" unicode="&#x174;" horiz-adv-x="1687" 
d="M899 1485q-22 0 -25 26q0 12 13 23l237 180q14 10 24 10t19 -10l170 -182q8 -8 9 -21q0 -27 -27 -26q-12 0 -25 12l-151 168l-223 -172q-12 -8 -21 -8zM1858 1395q31 0 30 -29q0 -10 -6 -23l-618 -1335q-10 -24 -36 -24t-30 22l-133 1245l-569 -1245q-10 -22 -36 -22
t-30 22l-151 1344q-4 45 36 45q27 0 31 -25l135 -1259l574 1261q10 23 35 23t28 -23l129 -1255l576 1255q12 23 35 23z" />
    <glyph glyph-name="wcircumflex" unicode="&#x175;" horiz-adv-x="1343" 
d="M656 1092q-10 0 -16 8q-7 8 -7 19t12 22l238 180q14 10 23 10t20 -10l170 -182q8 -8 8 -21q0 -27 -27 -26q-12 0 -24 12l-152 168l-223 -172q-12 -8 -22 -8zM396 -16q-22 0 -25 20l-168 887q-4 16 -4 20q0 35 32 35q25 0 29 -20l152 -842l395 844q9 18 29 18t24 -18
l103 -844l448 842q9 20 25 20t25 -8t9 -15t-8 -24l-485 -895q-10 -20 -33 -20t-26 20l-99 827l-391 -827q-10 -20 -32 -20z" />
    <glyph glyph-name="Ycircumflex" unicode="&#x176;" horiz-adv-x="1030" 
d="M568 1485q-10 0 -16 8q-7 8 -7 19t12 22l238 180q14 10 23 10t20 -10l170 -182q8 -8 8 -21q0 -27 -27 -26q-12 0 -24 12l-152 168l-223 -172q-12 -8 -22 -8zM279 1362q0 12 10 22q9 10 29 10t28 -22l291 -659l532 665q13 16 29 16t26 -10t9 -22q0 -12 -10 -27l-559 -684
l-113 -635q-4 -32 -37 -32t-29 32l111 635l-313 690q-4 9 -4 21z" />
    <glyph glyph-name="ycircumflex" unicode="&#x177;" horiz-adv-x="991" 
d="M484 1092q-10 0 -16 8q-7 8 -7 19t12 22l238 180q14 10 23 10t20 -10l170 -182q8 -8 8 -21q0 -27 -27 -26q-12 0 -24 12l-152 168l-223 -172q-12 -8 -22 -8zM201 -219q0 -68 53 -104t137 -35q164 0 273 83t141 250l57 299q-77 -132 -301 -221q-88 -35 -172 -69t-136 -85
q-52 -50 -52 -118zM473 92q-123 0 -202 68t-78 196q0 43 10 105l82 454q6 31 36 31t25 -31l-82 -454q-8 -45 -8 -94q0 -217 268 -217q88 0 158 30q170 74 209 285l82 450q6 31 35 31q12 0 20 -9t6 -22l-168 -940q-35 -197 -164 -291t-321 -96q-117 0 -181 54t-65 116
q0 104 77 181q56 54 203 110q42 16 132 47q-41 -4 -74 -4z" />
    <glyph glyph-name="Ydieresis" unicode="&#x178;" horiz-adv-x="1028" 
d="M956 1518q-37 0 -36 30q0 63 55 64q37 0 37 -31q-1 -63 -56 -63zM629 1518q-37 0 -37 30q0 63 55 64q37 0 37 -31q0 -63 -55 -63zM279 1362q0 12 10 22q9 10 29 10t28 -22l291 -659l532 665q13 16 29 16t26 -10t9 -22q0 -12 -10 -27l-559 -684l-113 -635q-4 -32 -37 -32
t-29 32l111 635l-313 690q-4 9 -4 21z" />
    <glyph glyph-name="Zacute" unicode="&#x179;" horiz-adv-x="1017" 
d="M977 1761q20 -23 -6 -45l-254 -229q-17 -16 -33 -2t2 33l246 241q25 25 45 2zM961 0h-912q-23 0 -22 25q0 12 12 26l1067 1270h-776q-25 0 -25 25q0 33 33 32h831q25 0 25 -24q0 -10 -10 -23l-1069 -1274h856q23 0 22 -24q1 -33 -32 -33z" />
    <glyph glyph-name="zacute" unicode="&#x17a;" horiz-adv-x="794" 
d="M791 1346q20 -23 -7 -46l-254 -229q-18 -16 -32 -1t2 32l245 241q26 26 46 3zM233 899q-1 11 9 21t24 10h611q23 0 22 -23q0 -14 -12 -26l-748 -828h596q23 0 23 -22q0 -11 -9 -21t-22 -10h-655q-23 0 -23 23q0 10 10 20l752 834h-555q-23 -1 -23 22z" />
    <glyph glyph-name="Zdotaccent" unicode="&#x17b;" horiz-adv-x="1017" 
d="M780 1536q-37 0 -37 35q0 57 54 57q37 0 37 -35q-1 -57 -54 -57zM961 0h-912q-23 0 -22 25q0 12 12 26l1067 1270h-776q-25 0 -25 25q0 33 33 32h831q25 0 25 -24q0 -10 -10 -23l-1069 -1274h856q23 0 22 -24q1 -33 -32 -33z" />
    <glyph glyph-name="zdotaccent" unicode="&#x17c;" horiz-adv-x="794" 
d="M600 1124q-37 0 -37 35q0 57 53 58q37 0 37 -35q0 -58 -53 -58zM233 899q-1 11 9 21t24 10h611q23 0 22 -23q0 -14 -12 -26l-748 -828h596q23 0 23 -22q0 -11 -9 -21t-22 -10h-655q-23 0 -23 23q0 10 10 20l752 834h-555q-23 -1 -23 22z" />
    <glyph glyph-name="Zcaron" unicode="&#x17d;" horiz-adv-x="1017" 
d="M1020 1724q10 0 17 -8t7 -20t-12 -21l-237 -180q-13 -10 -23 -10t-20 10l-170 182q-8 8 -9 21q0 27 27 26q12 0 25 -12l151 -168l223 172q11 8 21 8zM961 0h-912q-23 0 -22 25q0 12 12 26l1067 1270h-776q-25 0 -25 25q0 33 33 32h831q25 0 25 -24q0 -10 -10 -23
l-1069 -1274h856q23 0 22 -24q1 -33 -32 -33z" />
    <glyph glyph-name="zcaron" unicode="&#x17e;" horiz-adv-x="794" 
d="M844 1331q10 0 17 -8t7 -20t-12 -21l-238 -180q-14 -10 -23 -10t-20 10l-169 182q-8 8 -9 21q0 27 27 26q12 0 25 -12l151 -168l223 172q11 8 21 8zM233 899q-1 11 9 21t24 10h611q23 0 22 -23q0 -14 -12 -26l-748 -828h596q23 0 23 -22q0 -11 -9 -21t-22 -10h-655
q-23 0 -23 23q0 10 10 20l752 834h-555q-23 -1 -23 22z" />
    <glyph glyph-name="longs" unicode="&#x17f;" horiz-adv-x="450" 
d="M233 877q-23 0 -22 22q0 11 10 21t21 10h116l23 129q27 150 126 247t279 97q23 0 23 -23q0 -31 -33 -30q-281 0 -334 -291l-198 -1110q-29 -156 -128 -258t-280 -103q-23 0 -22 23q0 12 9 21t23 10q145 0 229 85q83 85 109 228l164 922h-115z" />
    <glyph glyph-name="florin" unicode="&#x192;" horiz-adv-x="839" 
d="M799 1360q0 -29 -27 -29q-4 0 -34 11q-30 12 -110 12q-79 0 -128 -62t-82 -221l-51 -256h211q27 0 26 -27q0 -27 -26 -26h-220l-159 -830q-35 -186 -101 -265t-231 -79q-57 0 -105 21q-16 6 -16 24q0 25 25 25q7 0 31 -8t73 -8q117 0 174 63t86 219l162 838h-145
q-27 0 -27 26t27 27h153l49 248q37 186 104 265t199 79q76 0 121 -23q21 -8 21 -24z" />
    <glyph glyph-name="AEmacron" unicode="&#x1e2;" horiz-adv-x="1748" 
d="M1628 1567q0 -31 -31 -31h-430q-23 0 -22 23q0 12 9 21t22 9h430q22 1 22 -22zM492 498h481l133 753zM1636 0h-718q-31 0 -27 33l72 405h-517l-356 -440q-12 -14 -26 -14q-32 0 -33 28q0 14 10 27l1081 1317q18 23 43 22h688q25 0 25 -24q0 -14 -10 -24t-25 -9h-659
l-107 -598h516q25 0 25 -25q0 -14 -10 -23t-25 -9h-516l-106 -609h686q25 0 24 -24q0 -14 -10 -24q-11 -9 -25 -9z" />
    <glyph glyph-name="aemacron" unicode="&#x1e3;" horiz-adv-x="1634" 
d="M1325 1165q0 -31 -31 -30h-430q-23 0 -22 22q0 11 9 21t21 10h431q22 0 22 -23zM1591 744q0 66 -63 114q-63 47 -170 47q-166 0 -283 -102t-153 -314q331 0 453 35q56 16 110 43q106 53 106 177zM462 29q142 0 248 121q105 121 146 309q31 201 127 323q-123 123 -317 123
t-336 -164q-141 -164 -142 -422q0 -135 66 -213t208 -77zM1186 -27q-326 0 -338 308q-39 -121 -147 -213t-262 -92t-234 92t-80 251q0 260 150 450q151 189 399 189q195 0 346 -137q137 137 348 137q133 0 207 -62t74 -142t-28 -130q-48 -89 -199 -139q-150 -49 -507 -49
q-10 -51 -10 -121q-1 -135 61 -212t228 -77t295 103q10 6 16 6q27 0 27 -26q0 -12 -16 -27q-135 -109 -330 -109z" />
    <glyph glyph-name="Aringacute" unicode="&#x1fa;" horiz-adv-x="1261" 
d="M893 1485q94 0 142 52t48 142q0 117 -135 117q-94 0 -142 -52t-48 -142q0 -117 135 -117zM956 1841q180 0 181 -160q0 -106 -65 -174t-187 -67q-180 0 -180 159q0 106 64 174t187 68zM98 -16q-29 0 -28 28q0 8 8 23l762 1337q12 23 36 23t29 -23l293 -1339q4 -17 -6 -33
t-33 -16t-29 30l-88 424h-665l-246 -434q-12 -20 -33 -20zM1032 498l-170 794l-452 -794h622zM1130 2075q25 14 37 -12t-12 -38l-324 -155q-23 -10 -33 9t13 30z" />
    <glyph glyph-name="aringacute" unicode="&#x1fb;" horiz-adv-x="948" 
d="M895 1714q20 -23 -6 -45l-254 -229q-17 -16 -33 -1t2 31l246 242q25 25 45 2zM670 1047q94 0 142 52t48 142q0 117 -135 117q-94 0 -142 -52t-48 -143q0 -116 135 -116zM733 1403q180 0 180 -160q-1 -106 -65 -174t-186 -68q-180 0 -181 160q1 106 65 174t187 68z
M800 -14q-26 0 -26 24q0 6 2 17l41 200q-45 -104 -139 -178t-246 -74q-152 1 -232 93t-79 251q0 263 140 451t386 188q178 0 277 -110l10 67q6 31 34 31t27 -26q0 -4 -2 -15l-162 -889q-5 -30 -31 -30zM184 319q0 -291 280 -291q148 0 258 138q112 137 144 342l47 274
q-91 123 -279 123t-319 -163t-131 -423z" />
    <glyph glyph-name="AEacute" unicode="&#x1fc;" horiz-adv-x="1748" 
d="M1640 1761q20 -23 -6 -45l-254 -229q-18 -16 -33 -2t3 33l245 241q25 25 45 2zM492 498h481l133 753zM1636 0h-718q-31 0 -27 33l72 405h-517l-356 -440q-12 -14 -26 -14q-32 0 -33 28q0 14 10 27l1081 1317q18 23 43 22h688q25 0 25 -24q0 -14 -10 -24t-25 -9h-659
l-107 -598h516q25 0 25 -25q0 -14 -10 -23t-25 -9h-516l-106 -609h686q25 0 24 -24q0 -14 -10 -24q-11 -9 -25 -9z" />
    <glyph glyph-name="aeacute" unicode="&#x1fd;" horiz-adv-x="1634" 
d="M1219 1346q20 -23 -7 -46l-254 -229q-18 -16 -33 -1t3 32l246 241q25 26 45 3zM1591 744q0 66 -63 114q-63 47 -170 47q-166 0 -283 -102t-153 -314q331 0 453 35q56 16 110 43q106 53 106 177zM462 29q142 0 248 121q105 121 146 309q31 201 127 323q-123 123 -317 123
t-336 -164q-141 -164 -142 -422q0 -135 66 -213t208 -77zM1186 -27q-326 0 -338 308q-39 -121 -147 -213t-262 -92t-234 92t-80 251q0 260 150 450q151 189 399 189q195 0 346 -137q137 137 348 137q133 0 207 -62t74 -142t-28 -130q-48 -89 -199 -139q-150 -49 -507 -49
q-10 -51 -10 -121q-1 -135 61 -212t228 -77t295 103q10 6 16 6q27 0 27 -26q0 -12 -16 -27q-135 -109 -330 -109z" />
    <glyph glyph-name="Oslashacute" unicode="&#x1fe;" horiz-adv-x="1441" 
d="M1200 1761q20 -23 -6 -45l-254 -229q-18 -16 -33 -2q-14 14 2 33l246 241q25 25 45 2zM258 482q0 -175 72 -283l993 1022q-117 129 -365 129q-180 0 -318 -72t-219 -195t-122 -275t-41 -326zM727 29q181 -1 319 71q251 129 340 469q41 152 41 328t-73 283l-994 -1022
q117 -129 367 -129zM723 -29q-270 0 -406 142l-147 -152q-10 -10 -23 -10q-25 0 -24 24q0 10 10 21l152 156q-92 123 -92 320q0 393 183 654q92 131 242 206t345 75q266 0 403 -141l147 151q10 10 23 10q25 0 25 -24q0 -10 -9 -19l-153 -157q94 -125 94 -321t-46 -360
q-102 -363 -379 -500q-150 -75 -345 -75z" />
    <glyph glyph-name="oslashacute" unicode="&#x1ff;" horiz-adv-x="999" 
d="M858 1346q20 -23 -6 -46l-254 -229q-18 -16 -34 -1t3 32l246 241q25 26 45 3zM504 27q221 0 333 169t111 416q0 74 -18 129l-678 -602q68 -112 252 -112zM213 319q0 -76 18 -131l676 603q-66 115 -250 114q-221 0 -333 -169t-111 -417zM494 -27q-205 0 -289 123l-113 -98
q-8 -8 -20 -8q-25 0 -25 24q0 12 10 21l121 108q-31 72 -31 170q1 97 17 187t56 174t98 146t148 100t202 38q203 0 288 -124l113 100q9 8 19 8t18 -7t8 -18t-12 -22l-121 -107q33 -72 33 -184t-28 -220q-66 -257 -249 -354q-104 -57 -243 -57z" />
    <glyph glyph-name="Scommaaccent" unicode="&#x218;" horiz-adv-x="1095" 
d="M471 -143q0 53 51 53q41 0 41 -53q0 -121 -104 -226q-10 -10 -19 -10q-18 0 -18 17q0 8 22 32q46 50 45 103q0 20 -9 46t-9 38zM381 1038q0 -92 72 -154t174 -98t204 -76q103 -40 175 -115t71 -187q0 -207 -139 -322t-410 -115q-297 0 -419 246q-14 27 -1 39t29 12
t23 -16q100 -223 379 -223q219 0 346 96t127 272q0 85 -52 147t-130 94t-168 68t-167 70t-129 101q-52 68 -53 159q0 156 129 264t355 107q262 0 389 -199q8 -12 8 -22q0 -31 -31 -31q-18 0 -26 16q-104 180 -351 181q-197 0 -301 -94t-104 -220z" />
    <glyph glyph-name="scommaaccent" unicode="&#x219;" horiz-adv-x="817" 
d="M444 -143q0 -121 -104 -226q-10 -10 -23 -10q-13 1 -13 13t32 48q54 60 25 137q-9 25 -9 43t14 33t37 15q41 0 41 -53zM561 905q-113 0 -193 -51t-81 -149q0 -68 52 -114t126 -74q73 -29 147 -57t126 -77t53 -121q-1 -141 -107 -215t-281 -74q-117 0 -199 42t-120 96
q-8 12 -8 23q0 12 9 20t22 8t22 -12q90 -123 285 -123q135 0 224 55t89 166t-176 177q-74 29 -149 57t-126 81t-51 131q1 127 99 196t245 68q195 0 283 -120q6 -10 6 -19q0 -27 -27 -26q-12 0 -20 8q-92 104 -250 104z" />
    <glyph glyph-name="dotlessj" unicode="&#x237;" horiz-adv-x="368" 
d="M352 946q29 0 25 -31l-182 -1034q-25 -133 -118 -213t-218 -80q-23 0 -23 23q0 12 10 21t21 10q98 0 173 68t93 171l182 1034q1 11 13 21t24 10z" />
    <glyph glyph-name="circumflex" unicode="&#x2c6;" horiz-adv-x="684" 
d="M327 1092q-9 0 -17 8q-7 8 -7 19t12 22l238 180q14 10 23 10t20 -10l170 -182q8 -8 8 -21q0 -27 -26 -26q-12 0 -25 12l-152 168l-223 -172q-12 -8 -21 -8z" />
    <glyph glyph-name="caron" unicode="&#x2c7;" horiz-adv-x="675" 
d="M781 1331q9 0 17 -8t7 -20q0 -12 -12 -21l-238 -180q-13 -10 -23 -10t-20 10l-170 182q-8 8 -8 21q0 27 26 26q12 0 25 -12l152 -168l223 172q12 8 21 8z" />
    <glyph glyph-name="breve" unicode="&#x2d8;" horiz-adv-x="645" 
d="M744 1311q24 0 20 -25q-17 -199 -250 -199q-82 0 -133 39t-51 112t30 73q25 0 25 -25l-2 -33q0 -117 139 -116q170 0 193 149q5 25 29 25z" />
    <glyph glyph-name="dotaccent" unicode="&#x2d9;" horiz-adv-x="567" 
d="M483 1124q-37 0 -37 35q0 57 54 58q37 0 37 -35q-1 -58 -54 -58z" />
    <glyph glyph-name="ring" unicode="&#x2da;" horiz-adv-x="546" 
d="M461 1073q94 0 142 52t48 143q0 117 -135 116q-94 0 -142 -52t-48 -142q0 -117 135 -117zM524 1430q180 0 181 -160q0 -106 -65 -174t-187 -68q-180 0 -181 160q0 106 64 174t188 68z" />
    <glyph glyph-name="ogonek" unicode="&#x2db;" horiz-adv-x="630" 
d="M395 -295q20 0 21 -18q0 -16 -17 -25q-51 -29 -125 -29q-158 0 -157 123q0 72 53 136t154 108h47q-201 -90 -201 -229q0 -88 117 -88q45 0 75 11t33 11z" />
    <glyph glyph-name="tilde" unicode="&#x2dc;" horiz-adv-x="774" 
d="M719 1096q-59 0 -135 44t-123 44q-72 0 -119 -78q-8 -14 -25 -14q-25 0 -24 22q0 8 13 35t56 57q42 30 102 31q60 0 136 -44t125 -44q70 0 117 80q10 16 26 16q25 0 25 -22q0 -8 -6 -21q-59 -106 -168 -106z" />
    <glyph glyph-name="hungarumlaut" unicode="&#x2dd;" horiz-adv-x="1001" 
d="M954 1346q20 -23 -6 -46l-254 -229q-18 -16 -32 -1t2 32l245 241q25 26 45 3zM737 1346q20 -23 -6 -46l-254 -229q-18 -16 -33 -2q-14 16 2 33l246 241q25 26 45 3z" />
    <glyph glyph-name="Wgrave" unicode="&#x1e80;" horiz-adv-x="1687" 
d="M942 1761q20 23 45 -2l246 -241q16 -18 2 -32t-33 1l-254 229q-26 22 -6 45zM1858 1395q31 0 30 -29q0 -10 -6 -23l-618 -1335q-10 -24 -36 -24t-30 22l-133 1245l-569 -1245q-10 -22 -36 -22t-30 22l-151 1344q-4 45 36 45q27 0 31 -25l135 -1259l574 1261q10 23 35 23
t28 -23l129 -1255l576 1255q12 23 35 23z" />
    <glyph glyph-name="wgrave" unicode="&#x1e81;" horiz-adv-x="1343" 
d="M696 1346q20 23 45 -3l246 -241q16 -16 2 -32t-33 1l-254 229q-26 23 -6 46zM396 -16q-22 0 -25 20l-168 887q-4 16 -4 20q0 35 32 35q25 0 29 -20l152 -842l395 844q9 18 29 18t24 -18l103 -844l448 842q9 20 25 20t25 -8t9 -15t-8 -24l-485 -895q-10 -20 -33 -20
t-26 20l-99 827l-391 -827q-10 -20 -32 -20z" />
    <glyph glyph-name="Wacute" unicode="&#x1e82;" horiz-adv-x="1687" 
d="M1276 1761q20 -23 -6 -45l-254 -229q-18 -16 -34 -2t3 33l246 241q25 25 45 2zM1858 1395q31 0 30 -29q0 -10 -6 -23l-618 -1335q-10 -24 -36 -24t-30 22l-133 1245l-569 -1245q-10 -22 -36 -22t-30 22l-151 1344q-4 45 36 45q27 0 31 -25l135 -1259l574 1261
q10 23 35 23t28 -23l129 -1255l576 1255q12 23 35 23z" />
    <glyph glyph-name="wacute" unicode="&#x1e83;" horiz-adv-x="1343" 
d="M1030 1346q20 -23 -6 -46l-254 -229q-18 -16 -34 -1t3 32l246 241q25 26 45 3zM396 -16q-22 0 -25 20l-168 887q-4 16 -4 20q0 35 32 35q25 0 29 -20l152 -842l395 844q9 18 29 18t24 -18l103 -844l448 842q9 20 25 20t25 -8t9 -15t-8 -24l-485 -895q-10 -20 -33 -20
t-26 20l-99 827l-391 -827q-10 -20 -32 -20z" />
    <glyph glyph-name="Wdieresis" unicode="&#x1e84;" horiz-adv-x="1687" 
d="M1272 1518q-37 0 -37 30q0 63 55 64q37 0 37 -31q0 -63 -55 -63zM944 1518q-37 0 -37 30q0 63 56 64q37 0 36 -31q0 -63 -55 -63zM1858 1395q31 0 30 -29q0 -10 -6 -23l-618 -1335q-10 -24 -36 -24t-30 22l-133 1245l-569 -1245q-10 -22 -36 -22t-30 22l-151 1344
q-4 45 36 45q27 0 31 -25l135 -1259l574 1261q10 23 35 23t28 -23l129 -1255l576 1255q12 23 35 23z" />
    <glyph glyph-name="wdieresis" unicode="&#x1e85;" horiz-adv-x="1343" 
d="M1030 1114q-37 0 -37 31q0 63 56 63q37 0 36 -30q0 -64 -55 -64zM702 1114q-37 0 -36 31q0 63 55 63q37 0 37 -30q-1 -64 -56 -64zM396 -16q-22 0 -25 20l-168 887q-4 16 -4 20q0 35 32 35q25 0 29 -20l152 -842l395 844q9 18 29 18t24 -18l103 -844l448 842q9 20 25 20
t25 -8t9 -15t-8 -24l-485 -895q-10 -20 -33 -20t-26 20l-99 827l-391 -827q-10 -20 -32 -20z" />
    <glyph glyph-name="Ygrave" unicode="&#x1ef2;" horiz-adv-x="1030" 
d="M590 1761q20 23 45 -2l246 -241q16 -18 2 -32t-33 1l-254 229q-26 22 -6 45zM279 1362q0 12 10 22q9 10 29 10t28 -22l291 -659l532 665q13 16 29 16t26 -10t9 -22q0 -12 -10 -27l-559 -684l-113 -635q-4 -32 -37 -32t-29 32l111 635l-313 690q-4 9 -4 21z" />
    <glyph glyph-name="ygrave" unicode="&#x1ef3;" horiz-adv-x="991" 
d="M537 1346q20 23 45 -3l245 -241q16 -16 2 -32t-32 1l-254 229q-26 23 -6 46zM201 -219q0 -68 53 -104t137 -35q164 0 273 83t141 250l57 299q-77 -132 -301 -221q-88 -35 -172 -69t-136 -85q-52 -50 -52 -118zM473 92q-123 0 -202 68t-78 196q0 43 10 105l82 454
q6 31 36 31t25 -31l-82 -454q-8 -45 -8 -94q0 -217 268 -217q88 0 158 30q170 74 209 285l82 450q6 31 35 31q12 0 20 -9t6 -22l-168 -940q-35 -197 -164 -291t-321 -96q-117 0 -181 54t-65 116q0 104 77 181q56 54 203 110q42 16 132 47q-41 -4 -74 -4z" />
    <glyph glyph-name="thinspace" unicode="&#x2009;" horiz-adv-x="28" 
 />
    <glyph glyph-name="endash" unicode="&#x2013;" horiz-adv-x="1196" 
d="M1087 582q0 -12 -10 -22t-20 -9h-721q-23 0 -23 22q1 11 11 21t20 10h721q22 1 22 -22z" />
    <glyph glyph-name="emdash" unicode="&#x2014;" horiz-adv-x="1880" 
d="M1772 582q0 -12 -10 -22t-21 -9h-1405q-23 0 -23 22q1 11 11 21t20 10h1405q23 1 23 -22z" />
    <glyph glyph-name="quoteleft" unicode="&#x2018;" horiz-adv-x="280" 
d="M295 1112q0 150 115 272q10 10 24 10t15 -16q0 -6 -7 -16q-70 -90 -69 -141q0 -20 9 -47t9 -39q0 -59 -57 -60q-39 0 -39 37z" />
    <glyph glyph-name="quoteright" unicode="&#x2019;" horiz-adv-x="280" 
d="M430 1358q0 -150 -115 -273q-10 -10 -20 -10q-18 0 -19 17q0 6 7 16q70 90 69 141q0 20 -9 47t-9 39q0 59 57 60q39 0 39 -37z" />
    <glyph glyph-name="quotesinglbase" unicode="&#x201a;" horiz-adv-x="288" 
d="M197 43q0 -150 -115 -272q-10 -11 -24 -11t-15 17q0 6 6 16q70 90 70 141q0 20 -9 48t-10 38q0 59 58 60q39 0 39 -37z" />
    <glyph glyph-name="quotedblleft" unicode="&#x201c;" horiz-adv-x="479" 
d="M487 1112q0 150 115 272q10 10 24 10t15 -16q0 -6 -6 -16q-70 -90 -70 -141q0 -20 9 -47t10 -39q0 -59 -58 -60q-39 0 -39 37zM295 1112q0 150 115 272q10 10 24 10t15 -16q0 -6 -7 -16q-70 -90 -69 -141q0 -20 9 -47t9 -39q0 -59 -57 -60q-39 0 -39 37z" />
    <glyph glyph-name="quotedblright" unicode="&#x201d;" horiz-adv-x="479" 
d="M430 1358q0 -150 -115 -273q-10 -10 -20 -10q-18 0 -19 17q0 6 7 16q70 90 69 141q0 20 -9 47t-9 39q0 59 57 60q39 0 39 -37zM623 1358q0 -150 -115 -273q-10 -10 -21 -10q-18 0 -18 17q0 6 6 16q70 90 70 141q0 20 -9 47t-10 39q0 59 58 60q39 0 39 -37z" />
    <glyph glyph-name="quotedblbase" unicode="&#x201e;" horiz-adv-x="487" 
d="M203 43q0 -150 -115 -272q-10 -11 -24 -11t-15 17q0 6 6 16q70 90 70 141q0 20 -9 48t-10 38q0 59 58 60q39 0 39 -37zM395 43q0 -150 -114 -272q-11 -11 -25 -11t-14 17q0 6 6 16q70 90 69 141q0 20 -9 48t-9 38q0 59 57 60q39 0 39 -37z" />
    <glyph glyph-name="dagger" unicode="&#x2020;" horiz-adv-x="862" 
d="M380 -307q-20 0 -20 16l215 1272h-247q-23 0 -23 20q0 33 33 33h244l65 389q6 35 41 35t29 -35l-72 -389h246q23 0 22 -20q0 -33 -32 -33h-246l-234 -1272q-1 -16 -21 -16z" />
    <glyph glyph-name="daggerdbl" unicode="&#x2021;" horiz-adv-x="862" 
d="M328 981q-23 0 -23 20q0 33 33 33h244l65 389q6 35 41 35t29 -35l-72 -389h246q23 0 22 -20q0 -33 -32 -33h-246l-84 -457l-76 -456h246q23 0 22 -21q0 -33 -32 -33h-244l-66 -389q-6 -35 -41 -35t-28 35l71 389h-245q-23 0 -23 21q0 33 33 33h246l84 456l75 457h-245z
" />
    <glyph glyph-name="bullet" unicode="&#x2022;" horiz-adv-x="856" 
d="M537 305q-267 1 -267 273t266 272t267 -272q0 -272 -266 -273z" />
    <glyph glyph-name="perthousand" unicode="&#x2030;" horiz-adv-x="2207" 
d="M1817 -27q-233 0 -234 232q0 176 87 306t263 130q233 0 234 -231q0 -176 -87 -306t-263 -131zM1825 25q141 -1 215 107t74 269q0 188 -189 189q-141 0 -215 -108t-74 -269q1 -188 189 -188zM432 -16q-27 0 -26 24q0 9 6 19l921 1351q10 16 25 17q27 0 26 -25
q0 -10 -6 -18l-921 -1352q-10 -16 -25 -16zM1139 -27q-233 0 -234 232q0 176 87 306t263 130q233 0 234 -231q0 -176 -87 -306t-263 -131zM1147 25q141 -1 215 107t74 269q0 188 -189 189q-141 0 -215 -108t-74 -269q1 -188 189 -188zM516 739q-233 0 -233 232q0 176 87 306
t263 130q233 0 233 -231q0 -176 -87 -306t-263 -131zM524 791q141 -1 215 107t74 269q0 188 -188 189q-141 0 -215 -108t-74 -269q0 -188 188 -188z" />
    <glyph glyph-name="guilsinglleft" unicode="&#x2039;" horiz-adv-x="663" 
d="M199 431q0 9 10 20l430 421q19 19 34 5q15 -13 15 -25t-8 -21l-416 -401l268 -395q6 -10 7 -19q0 -29 -29 -28q-14 0 -23 12l-282 414q-6 8 -6 17z" />
    <glyph glyph-name="guilsinglright" unicode="&#x203a;" horiz-adv-x="661" 
d="M303 881q12 0 23 -13l282 -413q6 -7 6 -17t-10 -20l-430 -422q-8 -8 -19 -8t-21 8q-9 8 -9 20t8 21l416 401l-268 396q-6 10 -7 18q0 29 29 29z" />
    <glyph glyph-name="fraction" unicode="&#x2044;" horiz-adv-x="589" 
d="M31 -16q-23 0 -23 20q0 8 4 16l764 1358q8 16 25 17q23 0 22 -21q0 -8 -4 -16l-764 -1358q-8 -16 -24 -16z" />
    <glyph glyph-name="zerosuperior" unicode="&#x2070;" horiz-adv-x="589" 
d="M455 903q94 -1 154 63t80 144q19 80 20 174q0 166 -158 166q-95 0 -155 -64t-80 -143q-20 -80 -19 -174q0 -166 158 -166zM559 1495q201 0 201 -211q0 -156 -62 -282q-34 -68 -98 -106t-154 -38q-201 0 -200 211q0 158 61 282q33 67 97 105t155 39z" />
    <glyph glyph-name="foursuperior" unicode="&#x2074;" horiz-adv-x="520" 
d="M291 1065h239l58 330zM643 1065q19 -1 19 -23t-27 -22h-64l-22 -131q-4 -25 -29 -25t-20 25l22 131h-280q-20 0 -20 14t9 25l371 416q14 14 27 14q25 0 20 -25l-69 -399h63z" />
    <glyph glyph-name="fivesuperior" unicode="&#x2075;" horiz-adv-x="534" 
d="M482 1264q88 0 142 -44t54 -122q0 -115 -70 -177q-70 -63 -200 -63t-189 123q-4 8 -4 16q0 23 23 23q12 0 20 -14q51 -102 168 -103q197 0 197 187q0 129 -142 129q-84 0 -166 -56q-12 -8 -20 -8q-20 0 -21 19q0 4 5 16l98 270q8 18 24 19h299q20 0 21 -19q0 -27 -27 -26
h-282l-80 -217q61 47 150 47z" />
    <glyph glyph-name="sixsuperior" unicode="&#x2076;" horiz-adv-x="544" 
d="M434 903q199 0 199 182q1 125 -137 125t-199 -123q-4 -23 -4 -47q-1 -61 35 -99t106 -38zM504 1255q78 0 131 -44t53 -119q0 -115 -72 -174q-72 -60 -171 -60t-150 50t-51 134q0 211 81 332t228 121q88 0 139 -47q8 -8 8 -16q0 -25 -24 -25q-4 0 -14 6q-45 37 -129 37
t-150 -74t-82 -225q23 43 74 73t129 31z" />
    <glyph glyph-name="sevensuperior" unicode="&#x2077;" horiz-adv-x="458" 
d="M303 1434q-18 0 -18 18q0 27 26 27h361q8 0 14 -5t4 -14q-25 -139 -134 -224q-46 -36 -92 -75q-113 -95 -142 -276q-4 -25 -29 -25t-21 25q14 98 56 172q41 74 88 117q47 42 93 78q111 86 128 182h-334z" />
    <glyph glyph-name="eightsuperior" unicode="&#x2078;" horiz-adv-x="524" 
d="M469 1176q-88 0 -142 -41t-55 -121q0 -111 150 -111q88 0 142 40t54 122q1 111 -149 111zM518 1450q-166 0 -166 -133q0 -92 127 -92q166 0 166 135q0 90 -127 90zM668 1072q0 -106 -66 -160t-172 -54q-208 0 -207 150q0 82 46 131t122 61q-88 27 -88 114q-1 87 61 134
t150 47t134 -34t46 -97q0 -131 -135 -164q109 -23 109 -128z" />
    <glyph glyph-name="ninesuperior" unicode="&#x2079;" horiz-adv-x="544" 
d="M524 1450q-199 0 -198 -182q0 -125 137 -125t199 123q4 23 4 47q0 61 -36 99t-106 38zM455 1098q-78 0 -131 44t-54 120q0 115 72 174t171 59t151 -50t51 -134q0 -211 -81 -332t-228 -121q-88 0 -140 47q-8 8 -8 17q0 25 25 24q4 0 14 -6q47 -37 130 -37t149 74t81 225
q-56 -104 -202 -104z" />
    <glyph glyph-name="zeroinferior" unicode="&#x2080;" horiz-adv-x="589" 
d="M283 -72q94 0 154 64t80 143q19 80 20 174q0 166 -158 166q-95 0 -155 -63q-60 -64 -80 -144t-19 -174q0 -166 158 -166zM387 520q201 0 201 -211q0 -157 -62 -281q-34 -67 -98 -106t-154 -39q-201 0 -200 211q0 160 61 282q33 68 97 106t155 38z" />
    <glyph glyph-name="oneinferior" unicode="&#x2081;" horiz-adv-x="356" 
d="M109 385q0 14 14 23l170 102q14 8 22 8q23 0 19 -24l-101 -576q-4 -25 -28 -24q-25 0 -21 24l97 533l-131 -82q-12 -6 -21 -7q-20 0 -20 23z" />
    <glyph glyph-name="twoinferior" unicode="&#x2082;" horiz-adv-x="530" 
d="M354 520q86 0 136 -42t50 -114t-46 -130q-47 -58 -114 -89q-66 -31 -132 -57t-113 -62t-47 -85h352q18 0 19 -19q0 -27 -27 -26h-379q-18 0 -18 18q0 72 47 121t114 78q66 29 132 57t112 75q46 48 47 117q0 113 -141 113q-100 0 -162 -98q-8 -15 -26 -15t-19 21
q0 10 6 18q68 119 209 119z" />
    <glyph glyph-name="threeinferior" unicode="&#x2083;" horiz-adv-x="526" 
d="M330 266q80 0 122 -44t42 -109q0 -229 -263 -230q-145 0 -180 101q-4 12 -4 18q0 23 23 23q14 0 20 -15q18 -45 52 -63q34 -19 119 -19t132 45t47 138q0 113 -143 112h-41q-23 0 -23 19q0 12 11 22l213 199h-275q-20 0 -20 18q0 27 26 27h326q20 0 20 -14t-14 -29
l-215 -199h25z" />
    <glyph glyph-name="fourinferior" unicode="&#x2084;" horiz-adv-x="520" 
d="M119 94h239l58 330zM471 94q18 0 18 -18q0 -27 -26 -27h-64l-22 -131q-4 -25 -29 -24q-25 0 -20 24l22 131h-280q-20 1 -20 15t9 24l371 416q14 14 27 14q25 0 20 -24l-69 -400h63z" />
    <glyph glyph-name="fiveinferior" unicode="&#x2085;" horiz-adv-x="534" 
d="M310 289q88 0 142 -44t54 -122q0 -115 -70 -177t-200 -62t-189 122q-4 8 -4 17q0 23 23 22q12 0 20 -14q51 -102 168 -103q197 0 197 187q0 129 -142 129q-84 0 -166 -56q-12 -8 -20 -8q-20 0 -21 19q0 4 4 16l99 270q8 18 24 19h299q20 0 21 -19q0 -27 -27 -26h-282
l-80 -217q61 47 150 47z" />
    <glyph glyph-name="sixinferior" unicode="&#x2086;" horiz-adv-x="544" 
d="M262 -72q199 0 199 183q1 125 -137 125t-199 -123q-4 -23 -4 -47q-1 -62 35 -100t106 -38zM332 281q78 0 131 -44t53 -120q0 -115 -72 -174t-171 -59t-150 49q-51 50 -51 135q0 212 81 332t228 120q88 0 139 -47q8 -8 8 -16q0 -25 -24 -25q-6 0 -15 6q-45 37 -129 37
t-149 -74q-66 -74 -82 -225q23 43 74 74t129 31z" />
    <glyph glyph-name="seveninferior" unicode="&#x2087;" horiz-adv-x="458" 
d="M131 463q-18 0 -18 18q0 27 26 27h361q8 0 14 -5t4 -14q-25 -139 -134 -224q-46 -36 -92 -75q-113 -95 -142 -276q-4 -25 -29 -25t-21 25q14 98 56 172q41 74 88 117t93 79q111 87 128 181h-334z" />
    <glyph glyph-name="eightinferior" unicode="&#x2088;" horiz-adv-x="524" 
d="M297 201q-88 0 -142 -41t-55 -121q0 -111 150 -111q88 0 142 40t54 122q1 111 -149 111zM346 475q-166 0 -166 -133q0 -92 127 -92q166 0 166 135q0 90 -127 90zM496 97q0 -105 -66 -159t-172 -55q-208 0 -207 150q0 82 46 131t122 61q-88 27 -88 114q-1 87 61 134
t150 47t134 -34t46 -97q0 -131 -135 -164q109 -23 109 -128z" />
    <glyph glyph-name="nineinferior" unicode="&#x2089;" horiz-adv-x="544" 
d="M354 475q-199 0 -198 -182q0 -125 137 -125t199 123q4 23 4 47q0 61 -36 99t-106 38zM285 123q-78 0 -131 44t-54 120q0 115 72 174t171 59t151 -50t51 -134q0 -211 -81 -332t-228 -121q-88 0 -140 47q-8 8 -8 17q0 25 25 24q4 0 14 -6q45 -37 129 -37t150 74t81 225
q-23 -43 -73 -73t-129 -31z" />
    <glyph glyph-name="Euro" unicode="&#x20ac;" horiz-adv-x="1273" 
d="M738 -29q-268 0 -407 129q-138 129 -138 383v52h-80q-23 0 -23 22q0 11 9 21t22 10h76q6 80 26 184h-69q-23 0 -23 23q0 12 10 21t23 9h72q72 264 257 423t478 159q139 0 247 -58t168 -155q15 -24 1 -38q-13 -13 -27 -13t-25 16q-121 191 -379 191t-421 -142
q-164 -142 -232 -383h432q23 0 23 -22q0 -11 -10 -21t-23 -10h-436q-23 -94 -29 -184h432q23 0 23 -23q0 -12 -9 -21t-22 -9h-426q-14 -250 107 -378t367 -128t435 190q13 12 25 12t21 -9q22 -22 -1 -44q-206 -207 -474 -207z" />
    <glyph glyph-name="numero" unicode="&#x2116;" horiz-adv-x="2172" 
d="M1997 1176q-154 0 -231 -116t-76 -278q0 -199 202 -198q154 0 231 116t77 277q0 199 -203 199zM1884 528q-252 0 -252 248q0 186 95 320t280 135q250 0 250 -253t-161 -381q-87 -69 -212 -69zM1835 258q-37 0 -37 35q0 55 51 55q37 0 37 -35q0 -55 -51 -55zM1540 1395
q29 0 29 -27v-4l-238 -1348q-8 -33 -39 -32q-18 0 -28 18l-813 1282l-224 -1270q-5 -30 -33 -30t-28 26v4l240 1350q4 31 32 31q16 0 25 -13l821 -1292l223 1274q4 31 33 31z" />
    <glyph glyph-name="trademark" unicode="&#x2122;" horiz-adv-x="817" 
d="M938 1341q23 0 23 -22v-342q0 -20 -21 -21q-20 0 -20 21v270l-95 -190q-8 -17 -22 -17t-23 17l-94 190v-270q0 -20 -20 -21q-20 0 -21 21v342q0 23 23 22q14 0 22 -16l113 -229l112 229q8 16 23 16zM406 1294h-111q-21 0 -21 20t21 21h268q20 0 21 -20q0 -20 -21 -21
h-112v-315q0 -23 -23 -23t-22 23v315z" />
    <glyph glyph-name="minus" unicode="&#x2212;" horiz-adv-x="929" 
d="M1008 451q0 -11 -10 -21t-21 -10h-877q-23 0 -22 22q0 12 10 22t21 9h876q23 1 23 -22z" />
    <glyph glyph-name="radical" unicode="&#x221a;" horiz-adv-x="1103" 
d="M441 -350q-26 0 -29 20l-193 838q-4 12 -4 20q0 29 31 29q23 0 28 -22l177 -791l720 1692q11 22 27 22t26 -8t9 -18q0 -10 -4 -17l-754 -1745q-8 -20 -34 -20z" />
    <glyph glyph-name="notequal" unicode="&#x2260;" horiz-adv-x="929" 
d="M981 295q0 -11 -9 -21t-22 -10h-536l-107 -125q-10 -10 -20 -10q-20 0 -21 21q0 10 6 16l84 98h-282q-23 0 -23 23q0 12 10 21t21 9h319l224 261h-496q-23 0 -23 22q0 12 10 22t21 9h533l106 123q8 10 19 10q20 0 20 -21q0 -8 -6 -14l-84 -98h289q23 0 22 -23
q0 -12 -9 -21t-21 -9h-326l-223 -261h501q23 1 23 -22z" />
    <glyph glyph-name="lessequal" unicode="&#x2264;" horiz-adv-x="704" 
d="M723 209q0 -27 -27 -27q-12 0 -20 6l-545 371q-12 11 -12 27t22 28l670 373q12 6 20 6q27 0 27 -26q0 -20 -14 -27l-647 -358l514 -351q12 -10 12 -22zM692 31q0 -11 -9 -21t-21 -10h-619q-23 0 -23 23q0 12 10 21t21 9h619q22 1 22 -22z" />
    <glyph glyph-name="greaterequal" unicode="&#x2265;" horiz-adv-x="704" 
d="M80 182q-27 0 -27 27q0 20 15 27l647 358l-514 350q-12 10 -13 23q0 27 27 26q10 0 21 -6l544 -371q12 -10 12 -26t-22 -29l-670 -373q-12 -6 -20 -6zM20 23q0 12 10 21t23 9h619q20 0 20 -22q0 -11 -9 -21t-21 -10h-619q-23 0 -23 23z" />
    <glyph glyph-name="commaaccent" unicode="&#xf6c3;" horiz-adv-x="288" 
d="M74 -143q0 53 51 53q41 0 41 -53q0 -121 -105 -226q-10 -10 -18 -10q-18 0 -18 17q-1 8 21 32q46 50 46 103q0 20 -9 46t-9 38z" />
    <glyph glyph-name="s_t" unicode="&#xfb06;" horiz-adv-x="1343" 
d="M561 905q-113 0 -193 -51t-81 -149q0 -68 52 -114t126 -74q73 -29 147 -57t126 -77t53 -121q-1 -141 -107 -215t-281 -74q-117 0 -199 42t-120 96q-8 12 -8 23q0 12 9 20t22 8t22 -12q90 -123 285 -123q135 0 224 55t89 166t-176 177q-74 29 -149 57t-126 81t-51 131
q1 127 99 196q98 68 228 68t216 -49q-115 115 -115 223t81 192q81 83 249 83q262 0 262 -254q0 -43 -10 -115l-18 -108h184q23 0 22 -23q0 -12 -9 -21t-21 -9h-185l-114 -652q-4 -25 -4 -49q0 -68 38 -104t103 -35q23 0 22 -23q0 -12 -10 -21t-22 -9q-94 0 -145 49
q-50 49 -50 133q0 27 6 63l115 648h-127q-23 0 -23 22q1 11 11 21t20 10h127l19 106q10 66 10 105q0 213 -215 213q-133 0 -201 -66t-68 -159t73 -188q9 -13 47 -61t38 -61q0 -27 -27 -26q-12 0 -20 8q-92 104 -250 104z" />
    <glyph glyph-name="zero.tab" horiz-adv-x="1212" 
d="M610 -29q-408 0 -408 427t144 707q74 142 202 222t298 80q408 0 408 -429t-144 -705q-74 -142 -202 -222t-298 -80zM600 27q166 1 282 77q206 136 275 510q31 162 31 358t-83 289t-249 93q-449 0 -557 -589q-31 -163 -31 -359t83 -287q83 -92 249 -92z" />
    <glyph glyph-name="one.tab" horiz-adv-x="1212" 
d="M436 991q-27 0 -26 27q0 18 16 29l530 339q14 8 25 9q29 0 25 -31l-238 -1350q-4 -31 -37 -30q-14 0 -22 9t-4 21l229 1293l-477 -310q-10 -6 -21 -6z" />
    <glyph glyph-name="two.tab" horiz-adv-x="1212" 
d="M856 1407q170 0 266 -88q96 -87 96 -223q1 -251 -196 -415q-133 -111 -405 -249q-105 -53 -193 -106t-142 -122t-55 -147h809q23 0 23 -24q0 -33 -33 -33h-842q-25 0 -24 25q0 135 102 240t248 180t290 153q146 78 249 198q102 120 102 261t-77 217t-226 76
q-270 0 -391 -230q-10 -16 -27 -16q-29 0 -29 29q1 8 7 20q135 254 448 254z" />
    <glyph glyph-name="three.tab" horiz-adv-x="1212" 
d="M778 813q186 0 270 -91t85 -239q1 -235 -143 -373t-402 -139q-319 0 -391 230q-2 6 -2 14q0 29 28 29q20 0 29 -23q63 -190 346 -190q227 0 347 120t120 328q0 276 -309 277h-150q-25 0 -24 24q0 12 14 27l537 514h-635q-25 0 -25 25q0 14 10 23t25 9h700q25 0 25 -24
q0 -12 -10 -23l-543 -518h98z" />
    <glyph glyph-name="four.tab" horiz-adv-x="1212" 
d="M279 393h618l154 879zM1124 393q25 0 25 -24q0 -13 -10 -23t-25 -10h-164l-57 -322q-4 -31 -37 -30q-31 0 -27 30l58 322h-678q-25 0 -25 24q0 8 11 23l872 993q13 18 31 18q36 1 32 -32l-169 -969h163z" />
    <glyph glyph-name="five.tab" horiz-adv-x="1212" 
d="M768 889q182 0 286 -92t103 -273q-1 -270 -151 -411t-400 -142q-315 0 -413 258q-6 16 -7 25q0 33 29 33q23 0 29 -23q68 -236 372 -235q217 0 347 122q129 122 129 367q0 160 -88 237t-246 76q-246 0 -410 -163q-14 -14 -34 -14t-19 24q0 6 6 22l244 656q8 23 30 22h660
q23 0 22 -24q0 -33 -32 -33h-635l-213 -567q139 135 391 135z" />
    <glyph glyph-name="six.tab" horiz-adv-x="1212" 
d="M614 31q225 0 353 131q127 131 127 358q0 289 -342 289q-162 0 -270 -78t-183 -231q-8 -55 -8 -117q-1 -352 323 -352zM762 866q182 0 290 -87t107 -251q0 -252 -138 -404t-413 -153q-190 0 -285 110t-96 306q0 284 79 526q46 141 118 247t192 177q120 70 250 70
q132 0 210 -32t114 -75q8 -8 8 -20q0 -29 -29 -29q-12 0 -20 9q-100 90 -270 90q-223 0 -363 -167t-192 -464l-21 -119q131 266 459 266z" />
    <glyph glyph-name="seven.tab" horiz-adv-x="1212" 
d="M436 1321q-25 0 -24 25q0 12 10 22t24 10h811q25 0 21 -26q-31 -192 -182 -348q-68 -70 -148 -142q-198 -179 -310 -330q-154 -204 -200 -520q-4 -29 -35 -28q-30 -1 -26 30q20 156 74 292q53 136 123 234t151 182q82 85 162 157q81 71 147 139q153 155 174 303h-772z
" />
    <glyph glyph-name="eight.tab" horiz-adv-x="1212" 
d="M733 721q-213 1 -342 -105t-129 -309q0 -141 95 -210t255 -68q207 0 338 100t131 305q0 143 -92 215t-256 72zM846 1352q-186 0 -292 -85t-108 -251q0 -240 318 -240q160 0 269 90q110 90 110 256q0 230 -297 230zM830 1407q374 -1 374 -285q0 -142 -84 -240t-219 -128
q115 -27 181 -108t65 -206q-1 -227 -145 -348t-400 -121q-182 0 -294 85t-112 257t100 289q99 117 282 152q-88 20 -140 86q-51 66 -51 168q0 195 128 297q127 102 315 102z" />
    <glyph glyph-name="nine.tab" horiz-adv-x="1212" 
d="M842 1348q-238 0 -359 -128t-121 -362q0 -289 343 -289q161 0 269 78t183 232q8 55 8 116q1 169 -81 261t-242 92zM694 512q-182 0 -290 87t-107 251q0 252 138 404t413 153q190 0 286 -110t95 -306q0 -284 -79 -526q-46 -141 -118 -247t-192 -177q-120 -70 -250 -70
q-132 0 -210 32t-114 75q-8 8 -8 20q0 29 29 29q12 0 20 -8q100 -90 271 -90q223 0 362 167t193 463l20 119q-131 -266 -459 -266z" />
    <glyph glyph-name="ornament.A" horiz-adv-x="1499" 
d="M1122 1132q0 54 -48 111t-137 57t-136 -86q147 -117 309 -170q12 34 12 88zM1128 133q0 -149 -268 -149q-106 0 -210 61t-162 157q-123 197 -121 398q0 162 88 281t252 118q131 0 213 -90q-110 -72 -174 -131q-146 -135 -146 -360q0 -55 4 -85t24 -30t19 35l-2 80
q0 143 72 240q73 97 189 169t159 127q-121 31 -311 166q-25 18 -84 70q-125 111 -197 110q-37 0 -59 -24t-23 -60q0 -36 24 -58q55 -51 126 20q17 12 37 12t35 -15t16 -38q-1 -45 -55 -76t-120 -31t-122 55t-56 133t56 133q56 56 133 56q111 0 250 -119q84 119 217 119
t219 -86t86 -205q0 -45 -14 -88q45 -8 113 -8t129 36t61 101t-38 105t-95 38q-25 0 -51 -12t-44 -12t-33 15t-15 41t22 42q43 33 134 33t163 -68q71 -67 71 -179t-89 -180t-226 -67q-76 0 -139 13q-43 -66 -115 -97q121 -1 201 -65t80 -162t-43 -154t-125 -80
q-82 -23 -260 -49q-63 -8 -107 -41q-43 -34 -43 -86t28 -76q28 -26 68 -26t62 22q20 22 24 46t24 46t58 21q90 0 90 -92z" />
    <glyph glyph-name="zero.onum" horiz-adv-x="1255" 
d="M621 -27q-201 -1 -310 103t-109 323t90 398q102 207 296 288q106 45 235 45q201 0 310 -103t109 -322t-90 -398q-101 -206 -296 -289q-106 -45 -235 -45zM1180 713q0 364 -370 364q-179 0 -308 -104q-238 -192 -238 -582q0 -364 370 -364q179 0 308 104q236 190 238 582z
" />
    <glyph glyph-name="one.onum" horiz-adv-x="747" 
d="M291 811q-27 0 -27 27q0 18 17 28l393 244q14 8 24 8q31 0 25 -31l-188 -1073q-4 -31 -37 -30q-14 0 -23 9q-8 9 -4 21l180 1016l-340 -213q-10 -6 -20 -6z" />
    <glyph glyph-name="two.onum" horiz-adv-x="1032" 
d="M731 1130q172 0 262 -78t90 -192q0 -209 -180 -323q-131 -83 -372 -172q-97 -37 -177 -77t-130 -100t-50 -135h772q20 0 20 -17q0 -16 -8 -26q-10 -10 -22 -10h-809q-23 0 -23 23q0 93 50 167t132 121q81 47 179 86q99 39 197 79t179 86t131 119t50 171t-77 162t-221 63
q-144 0 -231 -57t-143 -164q-10 -16 -26 -16q-29 0 -29 28q0 8 6 21q129 241 430 241z" />
    <glyph glyph-name="three.onum" horiz-adv-x="1085" 
d="M657 530q185 0 269 -94t84 -243q0 -238 -138 -368t-403 -130q-319 0 -389 223q-4 12 -4 19q0 29 28 28q18 0 25 -16q66 -201 350 -201q231 0 350 115t119 325q0 291 -311 291h-150q-23 0 -22 23q0 12 14 26l545 521h-645q-23 0 -23 22q0 11 10 21t21 10h705q23 0 22 -23
q0 -12 -10 -22l-549 -527h102z" />
    <glyph glyph-name="four.onum" horiz-adv-x="1083" 
d="M152 113h622l158 886zM1004 113q23 0 22 -23q0 -12 -9 -21t-22 -10h-168l-57 -321q-4 -31 -35 -31q-12 0 -20 9t-6 22l57 321h-678q-23 0 -22 23q0 10 10 20l876 1002q14 14 29 14q31 0 27 -31l-172 -974h168z" />
    <glyph glyph-name="five.onum" horiz-adv-x="1142" 
d="M676 612q182 0 286 -92t105 -272q0 -270 -152 -412t-401 -141q-164 0 -272 72t-144 192q-4 16 -4 25q0 27 27 26q20 0 26 -16q68 -246 377 -246q223 0 353 122q129 122 129 374q0 160 -90 238t-235 77q-145 0 -237 -40t-184 -130q-12 -12 -27 -12q-25 0 -24 22q0 10 4 21
l242 659q8 23 30 23h662q20 0 20 -23q0 -12 -9 -21t-21 -9h-639l-219 -586q149 149 397 149z" />
    <glyph glyph-name="six.onum" horiz-adv-x="1159" 
d="M588 31q227 0 353 120t126 345q0 147 -93 224t-253 77q-159 0 -267 -73t-182 -224q-8 -55 -8 -117q0 -166 84 -259t240 -93zM735 854q178 0 288 -94t110 -256q-1 -248 -137 -390t-414 -143q-184 0 -283 114q-98 114 -98 302q0 288 79 522q46 139 117 244q72 104 192 173
q119 69 249 69t210 -33t115 -74q8 -8 8 -20q0 -27 -26 -27q-12 0 -21 8q-102 92 -272 92q-225 0 -364 -162q-138 -163 -191 -460l-21 -119q148 254 459 254z" />
    <glyph glyph-name="seven.onum" horiz-adv-x="989" 
d="M279 1049q-23 0 -23 22q0 31 33 31h807q25 0 20 -27q-18 -115 -82 -218t-145 -177q-210 -189 -362 -361q-85 -97 -153 -249t-93 -334q-4 -29 -35 -29t-27 31q20 156 74 292q53 136 123 233q119 165 313 342q80 73 147 141q151 152 175 303h-772z" />
    <glyph glyph-name="eight.onum" horiz-adv-x="1126" 
d="M690 713q-215 1 -345 -103t-130 -307q0 -141 96 -210t258 -68q211 0 342 100t131 305q0 143 -94 213t-258 70zM401 1004q-1 -236 319 -236q162 0 271 87t109 255q0 231 -299 231q-187 0 -293 -85t-107 -252zM559 -29q-190 0 -298 82q-107 82 -107 254t102 290t279 148
q-90 20 -142 85q-51 65 -51 167q0 195 128 295t316 100t280 -70q93 -70 93 -214t-82 -240t-219 -123q114 -27 180 -107t66 -204q0 -225 -148 -344t-397 -119z" />
    <glyph glyph-name="nine.onum" horiz-adv-x="1159" 
d="M770 1071q-227 0 -353 -120t-126 -345q0 -147 93 -224t253 -77q159 0 267 73t181 224q8 55 9 117q0 166 -84 259t-240 93zM623 248q-178 0 -288 94t-110 256q0 248 136 390t415 142q184 0 283 -113q98 -114 98 -302q0 -288 -79 -522q-46 -139 -117 -244
q-72 -104 -192 -173q-119 -69 -249 -69t-210 33t-115 74q-8 8 -9 20q0 27 27 27q12 0 20 -8q102 -92 273 -93q225 0 363 163t192 460l20 119q-147 -254 -458 -254z" />
    <glyph glyph-name="hyphen.case" horiz-adv-x="577" 
d="M623 694q1 -12 -9 -21t-22 -9h-375q-23 0 -22 22q0 12 9 22t21 9h375q23 0 23 -23z" />
    <glyph glyph-name="parenleft.case" horiz-adv-x="622" 
d="M293 262q0 -162 45 -265t154 -159q16 -8 16 -26q0 -27 -29 -27q-8 0 -16 4q-231 115 -232 471q1 164 50 430q20 123 38 207t59 207q40 123 89 207t130 164t183 118l11 2q29 0 28 -28q0 -16 -18 -25q-167 -66 -254 -221q-45 -78 -79 -150t-63 -183t-70 -337
q-42 -227 -42 -389z" />
    <glyph glyph-name="parenright.case" horiz-adv-x="622" 
d="M45 -186q0 16 18 24q167 66 261 231q94 164 130 302t76 361q41 224 41 386t-45 265t-153 159q-16 8 -17 27q0 27 29 26q8 0 16 -4q231 -115 232 -471q0 -164 -49 -430q-68 -419 -187 -620q-49 -84 -130 -164t-183 -119l-10 -2q-29 0 -29 29z" />
    <glyph glyph-name="bracketleft.case" horiz-adv-x="477" 
d="M358 -184q0 -12 -9 -22t-21 -9h-189q-27 0 -22 27l311 1757q4 27 31 26h188q23 0 23 -22q0 -11 -10 -21t-23 -10h-154l-299 -1704h154q20 1 20 -22z" />
    <glyph glyph-name="bracketright.case" horiz-adv-x="477" 
d="M53 -193q0 11 9 21t22 10h154l301 1704h-154q-23 0 -23 23q0 12 10 21t23 9h189q27 0 22 -26l-311 -1757q-4 -27 -31 -27h-188q-23 -1 -23 22z" />
    <glyph glyph-name="braceleft.case" horiz-adv-x="602" 
d="M444 -162q23 0 23 -22q0 -12 -10 -22t-23 -9q-72 0 -115 39q-43 38 -43 110t61 274q60 202 60 286q0 172 -180 172h-20q-20 0 -21 20q0 29 29 29h20q213 0 254 223q16 84 31 253q14 169 28 241t71 118q56 45 145 45q23 0 22 -22q0 -11 -10 -21t-21 -10q-115 0 -143 -119
q-14 -63 -37 -238t-41 -269t-84 -160q-64 -66 -157 -66q80 0 123 -53t43 -123q1 -70 -53 -292t-54 -290q0 -94 102 -94z" />
    <glyph glyph-name="braceright.case" horiz-adv-x="602" 
d="M401 1542q-23 0 -22 23q0 12 10 21t23 9q72 0 114 -39q42 -38 43 -110q0 -72 -60 -274t-60 -285q0 -172 180 -172h20q20 0 21 -21q0 -29 -29 -28h-20q-213 0 -254 -224q-17 -84 -31 -253t-28 -241t-71 -118q-56 -45 -145 -45q-23 0 -22 22q0 11 10 21t20 10
q115 0 144 119q14 63 37 239t41 268q18 93 82 160q65 67 159 66q-80 0 -123 53t-43 124t54 292q53 221 53 289q-1 94 -103 94z" />
    <glyph glyph-name="guillemotleft.case" horiz-adv-x="950" 
d="M870 272q0 -29 -28 -28q-14 0 -23 12l-282 414q-12 21 4 37l430 421q19 19 34 5q15 -13 15 -25t-8 -21l-416 -401l268 -395q6 -8 6 -19zM584 272q0 -29 -29 -28q-14 0 -23 12l-282 414q-6 10 -6 18t10 19l430 421q20 20 40 0q9 -8 9 -20t-8 -21l-416 -401l269 -395
q6 -8 6 -19z" />
    <glyph glyph-name="guillemotright.case" horiz-adv-x="948" 
d="M346 1137q14 0 23 -13l282 -413q6 -11 6 -19t-10 -18l-430 -422q-8 -8 -19 -8t-21 8q-9 8 -9 20t8 21l416 401l-268 396q-6 8 -7 18q0 29 29 29zM604 1108q0 29 29 29q14 0 22 -13l283 -413q6 -11 6 -19t-10 -18l-430 -422q-8 -8 -20 -8t-20 8q-9 8 -9 20t8 21l416 401
l-269 396q-6 8 -6 18z" />
    <glyph glyph-name="guilsinglleft.case" horiz-adv-x="663" 
d="M584 272q0 -29 -29 -28q-14 0 -23 12l-282 414q-6 10 -6 18t10 19l430 421q20 20 40 0q9 -8 9 -20t-8 -21l-416 -401l269 -395q6 -8 6 -19z" />
    <glyph glyph-name="guilsinglright.case" horiz-adv-x="661" 
d="M346 1137q14 0 23 -13l282 -413q6 -11 6 -19t-10 -18l-430 -422q-8 -8 -19 -8t-21 8q-9 8 -9 20t8 21l416 401l-268 396q-6 8 -7 18q0 29 29 29z" />
    <glyph glyph-name="endash.case" horiz-adv-x="1196" 
d="M1106 694q0 -12 -10 -21t-21 -9h-721q-23 0 -22 22q0 12 10 22t20 9h721q23 0 23 -23z" />
    <glyph glyph-name="emdash.case" horiz-adv-x="1880" 
d="M1790 694q0 -12 -9 -21t-22 -9h-1405q-23 0 -22 22q0 12 10 22t20 9h1405q23 0 23 -23z" />
    <glyph glyph-name="periodcentered.case" horiz-adv-x="335" 
d="M279 629q-49 0 -50 47q0 76 70 76q49 0 49 -47q1 -76 -69 -76z" />
    <glyph glyph-name="questiondown.case" horiz-adv-x="944" 
d="M776 1395q39 0 39 -37q0 -59 -57 -60q-39 0 -39 37q0 60 57 60zM774 976q0 -89 -59 -157q-59 -69 -143 -109t-170 -87q-85 -47 -144 -135t-59 -212q1 -124 75 -188t211 -63q319 0 373 311q4 31 35 31t27 -31q-57 -365 -439 -365q-166 0 -255 79q-89 78 -89 198
q0 216 115 327q91 88 233 155q61 30 113 63q116 74 115 192q-1 47 -15 75t-14 36q0 31 31 30q16 0 26 -14q33 -47 33 -136z" />
    <glyph glyph-name="exclamdown.case" horiz-adv-x="288" 
d="M389 1395q39 0 39 -37q0 -59 -57 -60q-39 0 -39 37q0 60 57 60zM342 1124q18 0 16 -18l-176 -1088q-6 -35 -43 -34q-37 0 -30 34l208 1088q2 18 25 18z" />
    <glyph glyph-name="bullet.case" horiz-adv-x="856" 
d="M557 424q-266 0 -266 272t266 273q266 -1 266 -273t-266 -272z" />
    <glyph glyph-name="dollar.onum" horiz-adv-x="952" 
d="M676 1145q-174 0 -259 -75t-85 -170t61 -149t149 -86t175 -66q88 -34 149 -97t62 -158q0 -166 -110 -264t-320 -107l-31 -178q-6 -29 -33 -28q-31 0 -24 28l30 176q-246 8 -344 211q-4 8 -4 18t9 20q9 9 23 9t26 -18q90 -184 315 -184q401 0 401 307q0 86 -61 143
t-149 89t-177 65q-88 33 -149 93t-62 150q0 132 100 224t289 98l27 150q4 29 33 28q29 0 24 -28l-26 -150q225 -10 305 -174q4 -8 4 -16q0 -29 -29 -29q-16 0 -26 18q-76 150 -293 150z" />
    <glyph glyph-name="cent.onum" horiz-adv-x="1028" 
d="M954 168q27 0 27 -24q1 -24 -53 -62q-54 -37 -142 -70t-188 -39l-31 -178q-6 -29 -32 -28q-31 0 -25 28l31 178q-365 21 -365 433q0 346 157 528t412 196l27 148q4 29 33 29t24 -29l-26 -148q98 -4 175 -40q78 -36 112 -72q34 -37 34 -57q0 -29 -28 -29q-16 0 -25 12
q-94 133 -295 133q-258 0 -397 -173t-139 -490q0 -387 350 -387q117 0 205 40t135 89q12 12 24 12z" />
    <glyph glyph-name="sterling.onum" horiz-adv-x="1026" 
d="M973 135q27 0 26 -24q0 -8 -8 -21q-82 -123 -252 -123q-71 0 -181 39t-175 39q-131 0 -225 -59q-14 -8 -23 -9q-25 0 -24 23q0 14 14 25q238 150 237 370q0 80 -28 156h-117q-20 0 -20 22q0 11 9 21t21 10h90q-47 109 -47 217q0 155 121 267t324 112q155 0 243 -62
t109 -167q2 -11 2 -21t-8 -19t-21 -9q-23 0 -26 22q-37 203 -307 203q-165 0 -271 -93t-106 -235q0 -90 53 -215h313q23 0 23 -22q0 -12 -9 -22t-24 -9h-289q23 -76 23 -161t-48 -173t-118 -143q137 54 328 -15q106 -39 170 -39t109 23q46 23 89 80q9 12 23 12z" />
    <glyph glyph-name="yen.onum" horiz-adv-x="987" 
d="M1143 1156q0 -12 -10 -23l-469 -471h266q23 0 22 -23q0 -11 -10 -21t-20 -10h-289l-21 -106h289q23 0 23 -23q0 -12 -10 -21t-21 -9h-289l-76 -435q-8 -31 -36 -30q-12 0 -20 9q-7 9 -5 21l76 435h-289q-23 0 -23 22q-1 11 9 21t22 10h289l20 106h-288q-23 0 -23 23
q0 12 10 21t21 10h266l-301 473q-4 8 -4 16q0 33 33 33q18 -1 28 -17l301 -485l473 489q25 24 47 5q10 -8 9 -20z" />
    <glyph glyph-name="florin.onum" horiz-adv-x="839" 
d="M797 1346q0 -29 -27 -29q-4 0 -34 11t-108 11q-77 1 -129 -65t-83 -217l-49 -242h211q27 0 26 -27q0 -27 -26 -26h-220l-159 -830q-35 -186 -101 -265t-231 -79q-57 0 -105 21q-16 6 -16 24q0 25 25 25q7 0 31 -8t73 -8q117 0 174 63t86 219l162 838h-145q-27 0 -27 26
t27 27h153l47 234q39 188 105 266t198 78q76 0 121 -23q21 -8 21 -24z" />
    <glyph glyph-name="Euro.onum" horiz-adv-x="1126" 
d="M606 449h-334v-21q0 -182 92 -292t292 -110t350 150q14 14 26 14q25 0 25 -24q0 -12 -15 -27q-166 -166 -390 -166t-333 117t-108 324v35h-68q-23 0 -22 22q0 31 31 31h61q14 96 33 172h-64q-23 0 -22 22q0 31 33 31h69q72 209 225 340q154 131 377 131q131 0 215 -46
t123 -108q6 -8 6 -18q0 -29 -30 -29q-16 0 -25 15q-85 133 -285 133t-338 -115t-204 -303h329q23 0 23 -22q0 -11 -10 -21t-23 -10h-338q-27 -84 -33 -172h340q23 0 23 -23q1 -12 -9 -21t-22 -9z" />
    <glyph glyph-name="ampersand.salt1" horiz-adv-x="1136" 
d="M514 -29q-166 0 -267 84t-102 234q0 260 326 461q-55 140 -55 294t84 258t235 105q95 0 159 -57t64 -159t-74 -205q-58 -77 -203 -173q-46 -31 -138 -88q55 -141 152 -259t247 -247q111 115 176 262q10 23 31 23q27 0 27 -25q0 -8 -11 -35q-59 -139 -178 -264
q94 -74 232 -141q18 -10 18 -27q0 -29 -31 -28q-6 0 -18 4q-105 43 -244 147q-180 -164 -430 -164zM209 291q0 -129 88 -197t227 -67q217 0 377 147q-153 132 -247 250t-162 272q-133 -84 -208 -180t-75 -225zM897 1197q0 71 -47 115t-119 44q-113 0 -185 -87t-71 -231
q0 -144 47 -260q164 99 259 185q116 102 116 234z" />
    <glyph glyph-name="ornament.B" horiz-adv-x="1499" 
d="M731 1298q59 -86 130 -130t183 -81q-47 79 -131 139t-182 72zM1425 1395q79 1 135 -55t56 -134q0 -125 -119 -188t-260 -64l-39 2q4 -39 4 -92q0 -221 -139 -405t-299 -252q-12 -7 -12 -25t22 -18q6 0 19 4q157 66 275 199t173 309q89 0 149 -62t60 -174
q0 -190 -165 -323t-415 -133t-404 114q-153 114 -153 318q0 145 121 145q88 0 88 -92q0 -39 -37 -75q-68 -67 -6 -129q31 -29 72 -29t73 32t32 74q0 41 -38 155q-37 114 -36 183q0 102 65 164q66 61 162 61q174 0 264 -160q16 45 17 140l-5 84q-139 27 -279 115t-190 208
q-63 -4 -105 -41t-42 -88t30 -77t67 -26q67 1 69 -56q-1 -23 -17 -40t-40 -18q-90 0 -157 58t-67 164q0 108 92 174t236 65q144 0 289 -95t207 -247q29 -4 59 -4q117 0 191 44t73 101q1 30 -21 52t-54 22t-54 -22t-20 -48q0 -26 -16 -43q-16 -16 -40 -16q-23 0 -39 16
t-16 39q0 78 52 134t132 55z" />
    <glyph glyph-name="slash.case" horiz-adv-x="833" 
d="M1001 1531q0 -9 -4 -18l-864 -1673q-9 -20 -25 -20t-25 9t-9 19t4 17l864 1673q8 20 24 20t26 -8q9 -10 9 -19z" />
    <glyph glyph-name="backslash.case" horiz-adv-x="835" 
d="M406 1559q27 0 30 -23l269 -1673q6 -43 -35 -43q-25 0 -29 20l-266 1661q-2 12 -2 21q0 37 33 37z" />
    <glyph glyph-name="bar.case" horiz-adv-x="446" 
d="M171 -301q-32 0 -28 31l340 1921q4 31 35 30q14 0 22 -9t7 -21l-340 -1921q-4 -31 -36 -31z" />
    <glyph glyph-name="zero.numerator" horiz-adv-x="589" 
d="M438 815q94 -1 154 63t81 144q19 80 19 174q0 166 -157 166q-95 0 -155 -64t-80 -143q-20 -80 -19 -174q-1 -166 157 -166zM543 1407q201 0 200 -211q0 -158 -61 -282q-34 -68 -98 -106t-154 -38q-201 0 -201 211q0 156 62 282q33 67 97 105t155 39z" />
    <glyph glyph-name="one.numerator" horiz-adv-x="356" 
d="M285 1245q-21 1 -21 19t15 26l170 103q14 8 22 8q23 0 18 -25l-100 -575q-4 -25 -29 -25t-20 25l96 532l-131 -82q-12 -6 -20 -6z" />
    <glyph glyph-name="two.numerator" horiz-adv-x="530" 
d="M510 1407q86 0 136 -42t50 -115t-47 -130t-113 -88q-66 -32 -133 -58q-159 -64 -159 -147h352q18 0 18 -18q0 -27 -26 -27h-379q-18 0 -19 19q0 72 48 121q48 50 114 78l132 56t112 76q47 48 47 117q0 113 -141 113q-100 0 -162 -98q-8 -14 -27 -14t-18 20q0 8 6 18
q68 119 209 119z" />
    <glyph glyph-name="three.numerator" horiz-adv-x="526" 
d="M487 1153q80 0 122 -44t42 -110q0 -229 -262 -229q-143 0 -180 100q-4 12 -4 19q0 23 22 22q14 0 21 -14q18 -45 52 -63t118 -18t133 44q47 45 47 137q0 113 -143 113h-41q-23 0 -23 18q0 12 10 23l213 199h-274q-20 0 -20 22t26 23h326q20 0 20 -19q0 -10 -14 -24
l-215 -199h24z" />
    <glyph glyph-name="four.numerator" horiz-adv-x="520" 
d="M274 977h240l57 330zM627 977q18 0 18 -19q0 -27 -27 -26h-63l-23 -131q-4 -25 -28 -25t-21 25l23 131h-281q-20 0 -20 18q0 10 10 21l371 415q14 14 26 15q25 0 21 -25l-70 -399h64z" />
    <glyph glyph-name="five.numerator" horiz-adv-x="534" 
d="M468 1178q89 0 142 -44t54 -122q0 -115 -70 -177q-70 -63 -201 -63t-188 123q-4 8 -4 16q0 23 22 23q14 0 21 -14q51 -102 168 -103q197 0 196 187q0 129 -141 129q-84 0 -166 -56q-12 -8 -20 -8q-20 0 -21 18q0 4 4 17l98 270q8 18 25 19h299q20 0 21 -19q0 -27 -27 -26
h-283l-80 -218q62 48 151 48z" />
    <glyph glyph-name="six.numerator" horiz-adv-x="544" 
d="M420 815q199 0 198 182q0 125 -137 125t-198 -123q-4 -23 -4 -65q-1 -42 35 -81q36 -38 106 -38zM489 1167q77 0 131 -44t54 -119q0 -114 -72 -174t-171 -60t-150 50t-52 134q0 211 81 332t229 121q88 0 139 -47q8 -8 8 -17q0 -25 -24 -24q-6 0 -15 6q-47 37 -130 37
t-149 -74t-81 -225q56 104 202 104z" />
    <glyph glyph-name="seven.numerator" horiz-adv-x="458" 
d="M287 1350q-19 0 -19 22t27 23h360q9 0 15 -5t4 -14q-25 -139 -134 -224q-46 -36 -92 -75q-113 -95 -143 -276q-5 -25 -29 -25t-20 25q14 98 55 172t88 117q47 42 93 78q109 83 129 182h-334z" />
    <glyph glyph-name="eight.numerator" horiz-adv-x="524" 
d="M453 1087q-88 0 -143 -40q-54 -41 -54 -121q0 -111 150 -111q88 0 142 40t54 122q1 110 -149 110zM502 1362q-166 0 -166 -133q0 -92 127 -92q166 0 166 135q0 90 -127 90zM414 770q-206 0 -207 150q0 82 46 131t122 61q-88 27 -88 114t61 134q62 47 150 47t134 -34
t46 -97q0 -131 -135 -164q109 -23 109 -128t-67 -160q-67 -54 -171 -54z" />
    <glyph glyph-name="nine.numerator" horiz-adv-x="544" 
d="M510 1362q-199 0 -199 -182q-1 -125 137 -125t199 123q4 23 4 47q1 61 -35 99t-106 38zM441 1010q-78 0 -132 44q-53 44 -53 120q0 115 72 174t171 59t150 -50t51 -134q0 -211 -80 -332t-229 -121q-88 0 -139 47q-8 8 -8 17q0 25 24 24q6 0 15 -6q45 -37 129 -37t149 74
q66 74 82 225q-23 -44 -73 -74t-129 -30z" />
    <glyph glyph-name="zero.denominator" horiz-adv-x="589" 
d="M299 18q95 0 155 64t80 143q19 80 19 174q0 166 -158 166q-94 0 -154 -63q-59 -64 -79 -144t-21 -174q0 -166 158 -166zM403 610q201 0 201 -211q0 -159 -61 -281q-33 -67 -98 -106t-154 -39q-201 0 -201 211q0 162 62 282q71 144 251 144z" />
    <glyph glyph-name="one.denominator" horiz-adv-x="356" 
d="M145 453q-20 0 -20 22q0 14 14 23l170 102q12 8 23 8q23 0 18 -24l-100 -576q-4 -25 -29 -24q-25 0 -20 24l94 531l-129 -80q-12 -6 -21 -6z" />
    <glyph glyph-name="two.denominator" horiz-adv-x="530" 
d="M373 625q86 0 136 -42t50 -115t-47 -130t-114 -88q-66 -32 -132 -58q-158 -64 -160 -147h353q18 0 18 -18q0 -27 -26 -27h-379q-18 0 -19 18q0 72 47 121t113 78q67 29 133 57t113 75q47 48 47 118q0 113 -141 113q-100 0 -162 -99q-8 -14 -23 -14q-23 0 -22 20q0 9 6 19
q68 119 209 119z" />
    <glyph glyph-name="three.denominator" horiz-adv-x="526" 
d="M346 356q80 0 122 -44t42 -109q0 -229 -262 -230q-145 0 -180 101q-4 12 -5 18q0 23 23 23q14 0 20 -15q18 -45 52 -63q34 -19 120 -19q84 0 132 45q47 45 47 138q0 113 -144 112h-41q-23 0 -22 19q0 12 10 22l213 199h-274q-21 1 -21 23t27 22h325q20 0 20 -14t-13 -29
l-215 -199h24z" />
    <glyph glyph-name="four.denominator" horiz-adv-x="520" 
d="M135 184h240l57 330zM487 184q19 0 19 -22t-27 -23h-63l-23 -131q-4 -25 -28 -24q-25 0 -21 24l23 131h-281q-20 0 -20 19q0 10 10 20l370 416q14 14 27 14q25 0 21 -24l-70 -400h63z" />
    <glyph glyph-name="five.denominator" horiz-adv-x="534" 
d="M327 377q89 0 142 -44t53 -122q0 -115 -70 -177t-200 -62q-131 0 -189 122q-4 8 -4 17q0 23 23 22q12 0 20 -14q51 -102 168 -103q197 0 197 187q0 129 -141 129q-84 0 -166 -56q-12 -8 -21 -8q-20 0 -20 19q0 4 4 16l98 270q8 18 25 19h299q20 0 20 -19q0 -27 -26 -26
h-283l-80 -217q62 47 151 47z" />
    <glyph glyph-name="six.denominator" horiz-adv-x="544" 
d="M279 16q199 0 198 183q0 125 -137 125t-199 -123q-4 -23 -4 -47q0 -62 36 -100t106 -38zM348 369q78 0 131 -44t53 -120q0 -115 -72 -174t-170 -59t-150 50t-52 134q0 212 81 332t228 120q88 0 140 -47q8 -8 8 -16q0 -25 -25 -25q-4 0 -14 6q-45 37 -129 37t-150 -74
t-82 -225q23 43 74 74t129 31z" />
    <glyph glyph-name="seven.denominator" horiz-adv-x="458" 
d="M147 553q-18 0 -18 18q0 27 27 27h360q21 0 19 -18q-25 -139 -135 -225q-46 -37 -92 -75t-86 -108t-56 -168q-4 -25 -29 -24q-24 -1 -20 24q14 98 55 172t88 117t93 79q111 87 128 181h-334z" />
    <glyph glyph-name="eight.denominator" horiz-adv-x="524" 
d="M311 289q-88 0 -142 -41t-54 -121q0 -111 149 -111q88 0 143 40q54 40 54 122q0 111 -150 111zM360 563q-166 0 -165 -133q0 -92 127 -92q166 0 165 135q0 90 -127 90zM510 185q0 -105 -66 -159t-172 -55q-206 0 -206 150q0 82 46 131t121 61q-88 27 -88 114
q-1 87 61 134t150 47q178 0 181 -131q0 -131 -136 -164q109 -23 109 -128z" />
    <glyph glyph-name="nine.denominator" horiz-adv-x="544" 
d="M369 563q-199 0 -199 -182q0 -125 137 -125t199 123q4 23 4 47q0 61 -36 99t-105 38zM299 211q-78 0 -131 44t-53 120q0 115 71 174q72 59 172 59t150 -50q51 -50 51 -134q0 -211 -81 -332t-228 -121q-88 0 -139 47q-8 8 -9 17q0 25 25 24q4 0 14 -6q47 -37 130 -37
t149 74t82 225q-23 -43 -74 -73t-129 -31z" />
    <glyph glyph-name="a.salt" horiz-adv-x="1036" 
d="M506 27q223 0 333 168t109 430q0 129 -74 205t-219 75q-145 0 -247 -86q-185 -156 -185 -500q0 -292 283 -292zM665 958q136 0 219 -61t103 -156l31 177q4 29 33 28q29 0 24 -28l-160 -906q-4 -29 -34 -28q-27 0 -23 28l31 170q-70 -112 -156 -160q-85 -48 -241 -48
t-245 85q-89 86 -89 258q0 252 107 434q56 95 160 151t240 56z" />
    <glyph glyph-name="aacute.salt" horiz-adv-x="1036" 
d="M905 1346q20 -23 -6 -46l-254 -229q-18 -16 -33 -2q-14 16 2 33l246 241q25 26 45 3zM506 27q223 0 333 168t109 430q0 129 -74 205t-219 75q-145 0 -247 -86q-185 -156 -185 -500q0 -292 283 -292zM665 958q136 0 219 -61t103 -156l31 177q4 29 33 28q29 0 24 -28
l-160 -906q-4 -29 -34 -28q-27 0 -23 28l31 170q-70 -112 -156 -160q-85 -48 -241 -48t-245 85q-89 86 -89 258q0 252 107 434q56 95 160 151t240 56z" />
    <glyph glyph-name="abreve.salt" horiz-adv-x="1036" 
d="M942 1311q25 0 21 -25q-17 -199 -250 -199q-82 0 -133 39q-52 39 -52 112t31 73q25 0 25 -25l-2 -33q0 -117 139 -116q170 0 192 149q4 25 29 25zM506 27q223 0 333 168t109 430q0 129 -74 205t-219 75q-145 0 -247 -86q-185 -156 -185 -500q0 -292 283 -292zM665 958
q136 0 219 -61t103 -156l31 177q4 29 33 28q29 0 24 -28l-160 -906q-4 -29 -34 -28q-27 0 -23 28l31 170q-70 -112 -156 -160q-85 -48 -241 -48t-245 85q-89 86 -89 258q0 252 107 434q56 95 160 151t240 56z" />
    <glyph glyph-name="acircumflex.salt" horiz-adv-x="1036" 
d="M516 1092q-10 0 -17 8t-7 19t12 22l237 180q13 10 23 10t20 -10l170 -182q8 -8 9 -21q0 -27 -27 -26q-12 0 -25 12l-151 168l-223 -172q-11 -8 -21 -8zM506 27q223 0 333 168t109 430q0 129 -74 205t-219 75q-145 0 -247 -86q-185 -156 -185 -500q0 -292 283 -292z
M665 958q136 0 219 -61t103 -156l31 177q4 29 33 28q29 0 24 -28l-160 -906q-4 -29 -34 -28q-27 0 -23 28l31 170q-70 -112 -156 -160q-85 -48 -241 -48t-245 85q-89 86 -89 258q0 252 107 434q56 95 160 151t240 56z" />
    <glyph glyph-name="adieresis.salt" horiz-adv-x="1036" 
d="M877 1114q-37 0 -37 31q0 63 55 63q37 0 37 -30q0 -64 -55 -64zM549 1114q-37 0 -37 31q0 63 55 63q37 0 37 -30q0 -64 -55 -64zM506 27q223 0 333 168t109 430q0 129 -74 205t-219 75q-145 0 -247 -86q-185 -156 -185 -500q0 -292 283 -292zM665 958q136 0 219 -61
t103 -156l31 177q4 29 33 28q29 0 24 -28l-160 -906q-4 -29 -34 -28q-27 0 -23 28l31 170q-70 -112 -156 -160q-85 -48 -241 -48t-245 85q-89 86 -89 258q0 252 107 434q56 95 160 151t240 56z" />
    <glyph glyph-name="agrave.salt" horiz-adv-x="1036" 
d="M541 1346q20 23 45 -3l245 -241q16 -16 3 -33q-14 -14 -33 2l-254 229q-26 23 -6 46zM506 27q223 0 333 168t109 430q0 129 -74 205t-219 75q-145 0 -247 -86q-185 -156 -185 -500q0 -292 283 -292zM665 958q136 0 219 -61t103 -156l31 177q4 29 33 28q29 0 24 -28
l-160 -906q-4 -29 -34 -28q-27 0 -23 28l31 170q-70 -112 -156 -160q-85 -48 -241 -48t-245 85q-89 86 -89 258q0 252 107 434q56 95 160 151t240 56z" />
    <glyph glyph-name="amacron.salt" horiz-adv-x="1036" 
d="M983 1165q0 -31 -31 -30h-430q-23 0 -22 22q0 11 9 21t21 10h431q22 0 22 -23zM506 27q223 0 333 168t109 430q0 129 -74 205t-219 75q-145 0 -247 -86q-185 -156 -185 -500q0 -292 283 -292zM665 958q136 0 219 -61t103 -156l31 177q4 29 33 28q29 0 24 -28l-160 -906
q-4 -29 -34 -28q-27 0 -23 28l31 170q-70 -112 -156 -160q-85 -48 -241 -48t-245 85q-89 86 -89 258q0 252 107 434q56 95 160 151t240 56z" />
    <glyph glyph-name="aogonek.salt" horiz-adv-x="1036" 
d="M506 27q223 0 333 168t109 430q0 129 -74 205t-219 75q-145 0 -247 -86q-185 -156 -185 -500q0 -292 283 -292zM665 958q136 0 219 -61t103 -156l31 177q4 29 33 28q29 0 24 -28l-160 -906q-2 -16 -18 -24q-176 -100 -176 -217q0 -88 117 -88q44 0 74 11t34 11
q20 0 21 -18q0 -16 -17 -25q-51 -29 -125 -29q-158 0 -157 123q0 72 49 138t143 106q-4 4 -2 14l31 168q-70 -112 -156 -160q-85 -48 -241 -48t-245 85q-89 86 -89 258q0 252 107 434q56 95 160 151t240 56z" />
    <glyph glyph-name="aring.salt" horiz-adv-x="1036" 
d="M696 1073q94 0 143 52q48 52 48 143q0 117 -135 116q-94 0 -142 -52t-49 -142q0 -117 135 -117zM760 1430q180 0 180 -160q0 -106 -64 -174t-188 -68q-180 0 -180 160q0 106 64 174q65 68 188 68zM506 27q223 0 333 168t109 430q0 129 -74 205t-219 75q-145 0 -247 -86
q-185 -156 -185 -500q0 -292 283 -292zM665 958q136 0 219 -61t103 -156l31 177q4 29 33 28q29 0 24 -28l-160 -906q-4 -29 -34 -28q-27 0 -23 28l31 170q-70 -112 -156 -160q-85 -48 -241 -48t-245 85q-89 86 -89 258q0 252 107 434q56 95 160 151t240 56z" />
    <glyph glyph-name="aringacute.salt" horiz-adv-x="1036" 
d="M918 1714q20 -23 -7 -45l-254 -229q-18 -16 -32 -1t2 31l245 242q26 25 46 2zM692 1047q94 0 143 52q48 52 48 142q0 117 -135 117q-94 0 -142 -52t-49 -143q0 -116 135 -116zM756 1403q180 0 180 -160q0 -106 -65 -174t-187 -68q-180 0 -180 160q0 106 64 174
q65 68 188 68zM506 27q223 0 333 168t109 430q0 129 -74 205t-219 75q-145 0 -247 -86q-185 -156 -185 -500q0 -292 283 -292zM665 958q136 0 219 -61t103 -156l31 177q4 29 33 28q29 0 24 -28l-160 -906q-4 -29 -34 -28q-27 0 -23 28l31 170q-70 -112 -156 -160
q-85 -48 -241 -48t-245 85q-89 86 -89 258q0 252 107 434q56 95 160 151t240 56z" />
    <glyph glyph-name="atilde.salt" horiz-adv-x="1036" 
d="M846 1096q-59 0 -135 44t-123 44q-72 0 -119 -78q-8 -14 -25 -14q-25 0 -24 22q0 8 13 35t56 57t103 31q60 0 135 -44q76 -44 125 -44q70 0 117 80q10 16 26 16q25 0 25 -22q0 -8 -6 -21q-59 -106 -168 -106zM506 27q223 0 333 168t109 430q0 129 -74 205t-219 75
q-145 0 -247 -86q-185 -156 -185 -500q0 -292 283 -292zM665 958q136 0 219 -61t103 -156l31 177q4 29 33 28q29 0 24 -28l-160 -906q-4 -29 -34 -28q-27 0 -23 28l31 170q-70 -112 -156 -160q-85 -48 -241 -48t-245 85q-89 86 -89 258q0 252 107 434q56 95 160 151t240 56z
" />
    <glyph glyph-name="c_t" horiz-adv-x="1449" 
d="M147 317q1 297 141 469t382 172q88 0 161 -32q-71 90 -71 202t81 196q81 83 249 83q262 0 262 -254q0 -43 -11 -115l-18 -108h184q23 0 23 -23q0 -12 -9 -21t-22 -9h-184l-115 -652q-4 -25 -4 -49q0 -68 38 -104t103 -35q23 0 23 -23q0 -12 -10 -21t-23 -9q-94 0 -144 49
t-50 133q0 27 6 63l114 648h-127q-23 0 -22 22q0 11 10 21t21 10h127l18 106q10 66 10 105q0 213 -215 213q-133 0 -201 -66t-68 -149t26 -134t33 -64t41 -63t39 -56t5 -19q0 -27 -28 -27q-14 0 -23 12q-70 117 -240 117q-211 0 -329 -164t-117 -422q0 -293 291 -292
q135 0 284 102q10 6 19 6q27 0 27 -26q0 -16 -17 -27q-156 -109 -321 -109q-349 0 -349 344z" />
    <glyph glyph-name="at.case" horiz-adv-x="1642" 
d="M647 578q0 -104 46 -158t160 -55q114 0 200 101t112 257l39 217q-82 78 -224 78t-237 -118q-96 -118 -96 -322zM1303 311q-182 0 -183 123q0 31 8 76q-34 -80 -108 -139t-190 -59t-181 71q-63 72 -63 195q0 203 109 348q110 145 300 145q119 0 219 -74l7 35q5 29 31 29
t26 -27l-98 -530q-6 -33 -6 -62q0 -82 138 -82t232 130t94 375t-151 379q-152 134 -424 134q-373 0 -593 -236t-220 -646q0 -264 138 -380t430 -116t509 139q14 8 23 8q25 0 24 -24q0 -16 -16 -27q-232 -150 -546 -150t-469 129q-155 128 -155 412q0 441 236 693t647 252
q287 0 459 -148t172 -418q0 -185 -81 -357q-41 -89 -123 -143t-195 -55z" />
    <glyph glyph-name="g.salt" horiz-adv-x="1009" 
d="M1001 657q0 -49 -8 -96l-104 -586q-35 -197 -163 -291t-310 -96q-227 0 -312 133q-4 8 -4 17q0 29 29 29q14 0 25 -13q78 -115 272 -114q160 0 265 84t136 251l35 191q-10 -22 -50 -62q-129 -129 -308 -130q-355 -3 -357 343q0 320 171 503q58 62 148 100t202 38
q156 0 244 -76t89 -225zM940 651q0 127 -76 191t-205 63q-223 0 -335 -169t-111 -417q0 -293 291 -292q72 0 151 30t164 123q31 35 45 60l15 24l53 297q8 43 8 90z" />
    <glyph glyph-name="gcircumflex.salt" horiz-adv-x="1009" 
d="M514 1092q-22 0 -25 26q0 12 13 23l237 180q13 10 23 10t20 -10l170 -182q8 -8 9 -21q0 -27 -27 -26q-12 0 -25 12l-151 168l-223 -172q-12 -8 -21 -8zM1001 657q0 -49 -8 -96l-104 -586q-35 -197 -163 -291t-310 -96q-227 0 -312 133q-4 8 -4 17q0 29 29 29q14 0 25 -13
q78 -115 272 -114q160 0 265 84t136 251l35 191q-10 -22 -50 -62q-129 -129 -308 -130q-355 -3 -357 343q0 320 171 503q58 62 148 100t202 38q156 0 244 -76t89 -225zM940 651q0 127 -76 191t-205 63q-223 0 -335 -169t-111 -417q0 -293 291 -292q72 0 151 30t164 123
q31 35 45 60l15 24l53 297q8 43 8 90z" />
    <glyph glyph-name="gbreve.salt" horiz-adv-x="1009" 
d="M934 1311q25 0 20 -25q-16 -199 -249 -199q-82 0 -134 39q-51 39 -51 112t31 73q25 0 24 -25l-2 -33q0 -117 140 -116q170 0 192 149q4 25 29 25zM1001 657q0 -49 -8 -96l-104 -586q-35 -197 -163 -291t-310 -96q-227 0 -312 133q-4 8 -4 17q0 29 29 29q14 0 25 -13
q78 -115 272 -114q160 0 265 84t136 251l35 191q-10 -22 -50 -62q-129 -129 -308 -130q-355 -3 -357 343q0 320 171 503q58 62 148 100t202 38q156 0 244 -76t89 -225zM940 651q0 127 -76 191t-205 63q-223 0 -335 -169t-111 -417q0 -293 291 -292q72 0 151 30t164 123
q31 35 45 60l15 24l53 297q8 43 8 90z" />
    <glyph glyph-name="gdotaccent.salt" horiz-adv-x="1009" 
d="M709 1124q-37 0 -37 35q0 57 53 58q37 0 37 -35q0 -58 -53 -58zM1001 657q0 -49 -8 -96l-104 -586q-35 -197 -163 -291t-310 -96q-227 0 -312 133q-4 8 -4 17q0 29 29 29q14 0 25 -13q78 -115 272 -114q160 0 265 84t136 251l35 191q-10 -22 -50 -62q-129 -129 -308 -130
q-355 -3 -357 343q0 320 171 503q58 62 148 100t202 38q156 0 244 -76t89 -225zM940 651q0 127 -76 191t-205 63q-223 0 -335 -169t-111 -417q0 -293 291 -292q72 0 151 30t164 123q31 35 45 60l15 24l53 297q8 43 8 90z" />
    <glyph glyph-name="gcommaaccent.salt" horiz-adv-x="1009" 
d="M645 1098q0 150 115 272q10 10 24 10t14 -12t-5 -20q-70 -90 -70 -142q0 -20 9 -47t9 -39q0 -59 -57 -59q-39 0 -39 37zM1001 657q0 -49 -8 -96l-104 -586q-35 -197 -163 -291t-310 -96q-227 0 -312 133q-4 8 -4 17q0 29 29 29q14 0 25 -13q78 -115 272 -114
q160 0 265 84t136 251l35 191q-10 -22 -50 -62q-129 -129 -308 -130q-355 -3 -357 343q0 320 171 503q58 62 148 100t202 38q156 0 244 -76t89 -225zM940 651q0 127 -76 191t-205 63q-223 0 -335 -169t-111 -417q0 -293 291 -292q72 0 151 30t164 123q31 35 45 60l15 24
l53 297q8 43 8 90z" />
    <glyph glyph-name="e.salt" horiz-adv-x="968" 
d="M932 660q0 98 -64 172t-211 73q-344 0 -428 -395h682q21 52 21 150zM524 27q176 0 305 102q10 6 17 6q27 0 26 -26q0 -12 -16 -27q-135 -109 -340 -109q-369 0 -369 344q0 320 171 503q58 62 148 100t194 38q199 -1 272 -108q59 -88 59 -186q0 -99 -26 -172
q-12 -33 -52 -33h-692q-10 -59 -10 -140q0 -292 313 -292z" />
    <glyph glyph-name="eacute.salt" horiz-adv-x="968" 
d="M893 1346q20 -23 -6 -46l-254 -229q-18 -16 -33 -2q-14 16 2 33l246 241q25 26 45 3zM932 660q0 98 -64 172t-211 73q-344 0 -428 -395h682q21 52 21 150zM524 27q176 0 305 102q10 6 17 6q27 0 26 -26q0 -12 -16 -27q-135 -109 -340 -109q-369 0 -369 344q0 320 171 503
q58 62 148 100t194 38q199 -1 272 -108q59 -88 59 -186q0 -99 -26 -172q-12 -33 -52 -33h-692q-10 -59 -10 -140q0 -292 313 -292z" />
    <glyph glyph-name="egrave.salt" horiz-adv-x="968" 
d="M504 1346q20 23 45 -3l246 -241q16 -16 2 -32t-33 1l-254 229q-26 23 -6 46zM932 660q0 98 -64 172t-211 73q-344 0 -428 -395h682q21 52 21 150zM524 27q176 0 305 102q10 6 17 6q27 0 26 -26q0 -12 -16 -27q-135 -109 -340 -109q-369 0 -369 344q0 320 171 503
q58 62 148 100t194 38q199 -1 272 -108q59 -88 59 -186q0 -99 -26 -172q-12 -33 -52 -33h-692q-10 -59 -10 -140q0 -292 313 -292z" />
    <glyph glyph-name="ecircumflex.salt" horiz-adv-x="968" 
d="M493 1092q-9 0 -17 8q-7 8 -7 19t12 22l238 180q14 10 23 10t20 -10l170 -182q8 -8 8 -21q0 -27 -27 -26q-12 0 -24 12l-152 168l-223 -172q-12 -8 -21 -8zM932 660q0 98 -64 172t-211 73q-344 0 -428 -395h682q21 52 21 150zM524 27q176 0 305 102q10 6 17 6
q27 0 26 -26q0 -12 -16 -27q-135 -109 -340 -109q-369 0 -369 344q0 320 171 503q58 62 148 100t194 38q199 -1 272 -108q59 -88 59 -186q0 -99 -26 -172q-12 -33 -52 -33h-692q-10 -59 -10 -140q0 -292 313 -292z" />
    <glyph glyph-name="edieresis.salt" horiz-adv-x="968" 
d="M872 1114q-37 0 -36 31q0 63 55 63q37 0 37 -30q-1 -64 -56 -64zM545 1114q-37 0 -37 31q0 63 55 63q37 0 37 -30q0 -64 -55 -64zM932 660q0 98 -64 172t-211 73q-344 0 -428 -395h682q21 52 21 150zM524 27q176 0 305 102q10 6 17 6q27 0 26 -26q0 -12 -16 -27
q-135 -109 -340 -109q-369 0 -369 344q0 320 171 503q58 62 148 100t194 38q199 -1 272 -108q59 -88 59 -186q0 -99 -26 -172q-12 -33 -52 -33h-692q-10 -59 -10 -140q0 -292 313 -292z" />
    <glyph glyph-name="emacron.salt" horiz-adv-x="968" 
d="M971 1165q0 -31 -31 -30h-430q-23 0 -23 22q-1 11 9 21t22 10h430q23 0 23 -23zM932 660q0 98 -64 172t-211 73q-344 0 -428 -395h682q21 52 21 150zM524 27q176 0 305 102q10 6 17 6q27 0 26 -26q0 -12 -16 -27q-135 -109 -340 -109q-369 0 -369 344q0 320 171 503
q58 62 148 100t194 38q199 -1 272 -108q59 -88 59 -186q0 -99 -26 -172q-12 -33 -52 -33h-692q-10 -59 -10 -140q0 -292 313 -292z" />
    <glyph glyph-name="ebreve.salt" horiz-adv-x="968" 
d="M922 1311q25 0 20 -25q-17 -199 -250 -199q-82 0 -133 39t-51 112t31 73q25 0 24 -25l-2 -33q0 -117 139 -116q170 0 193 149q4 25 29 25zM932 660q0 98 -64 172t-211 73q-344 0 -428 -395h682q21 52 21 150zM524 27q176 0 305 102q10 6 17 6q27 0 26 -26q0 -12 -16 -27
q-135 -109 -340 -109q-369 0 -369 344q0 320 171 503q58 62 148 100t194 38q199 -1 272 -108q59 -88 59 -186q0 -99 -26 -172q-12 -33 -52 -33h-692q-10 -59 -10 -140q0 -292 313 -292z" />
    <glyph glyph-name="edotaccent.salt" horiz-adv-x="968" 
d="M694 1124q-37 0 -37 35q0 57 54 58q37 0 37 -35q-1 -58 -54 -58zM932 660q0 98 -64 172t-211 73q-344 0 -428 -395h682q21 52 21 150zM524 27q176 0 305 102q10 6 17 6q27 0 26 -26q0 -12 -16 -27q-135 -109 -340 -109q-369 0 -369 344q0 320 171 503q58 62 148 100
t194 38q199 -1 272 -108q59 -88 59 -186q0 -99 -26 -172q-12 -33 -52 -33h-692q-10 -59 -10 -140q0 -292 313 -292z" />
    <glyph glyph-name="eogonek.salt" horiz-adv-x="968" 
d="M932 660q0 98 -64 172t-211 73q-344 0 -428 -395h682q21 52 21 150zM719 -295q20 0 20 -17t-16 -26q-51 -29 -125 -29q-158 0 -158 123q0 133 168 224q-43 -6 -92 -7q-369 0 -369 344q0 320 171 503q58 62 148 100t194 38q199 -1 272 -108q59 -88 59 -186q0 -99 -26 -172
q-12 -33 -52 -33h-692q-10 -59 -10 -140q0 -293 313 -292q176 0 305 102q10 6 17 6q27 0 26 -26q0 -32 -126 -89t-188 -112q-64 -55 -64 -137q0 -88 116 -88q45 0 75 11t34 11z" />
    <glyph glyph-name="ecaron.salt" horiz-adv-x="968" 
d="M964 1331q10 0 16 -8q7 -8 7 -20t-12 -21l-238 -180q-14 -10 -23 -10t-20 10l-170 182q-8 8 -8 21q0 27 27 26q12 0 24 -12l152 -168l223 172q12 8 22 8zM932 660q0 98 -64 172t-211 73q-344 0 -428 -395h682q21 52 21 150zM524 27q176 0 305 102q10 6 17 6q27 0 26 -26
q0 -12 -16 -27q-135 -109 -340 -109q-369 0 -369 344q0 320 171 503q58 62 148 100t194 38q199 -1 272 -108q59 -88 59 -186q0 -99 -26 -172q-12 -33 -52 -33h-692q-10 -59 -10 -140q0 -292 313 -292z" />
    <glyph glyph-name="f.salt" horiz-adv-x="563" 
d="M233 877q-23 0 -22 22q0 11 10 21t21 10h116l23 129q29 156 130 250t275 94q23 0 23 -23q0 -12 -10 -21t-23 -9q-281 0 -334 -291l-22 -129h242q23 0 22 -23q0 -12 -10 -21t-21 -9h-243l-152 -863q-4 -31 -35 -30q-12 0 -20 9t-6 21l151 863h-115z" />
    <glyph glyph-name="y.salt" horiz-adv-x="856" 
d="M946 946q31 0 31 -26q0 -8 -6 -21l-617 -1042q-88 -150 -182 -209t-238 -60q-23 0 -22 23q0 12 9 21t22 10q82 0 140 18q57 18 111 72t90 108q36 53 101 168l-207 885q-4 16 -4 20q0 33 33 33q23 0 29 -20l190 -848l489 848q12 20 31 20z" />
    <glyph glyph-name="ydieresis.salt" horiz-adv-x="856" 
d="M764 1114q-37 0 -37 31q0 63 55 63q37 0 37 -30q0 -64 -55 -64zM436 1114q-37 0 -37 31q0 63 56 63q37 0 37 -30q-1 -64 -56 -64zM946 946q31 0 31 -26q0 -8 -6 -21l-617 -1042q-88 -150 -182 -209t-238 -60q-23 0 -22 23q0 12 9 21t22 10q82 0 140 18q57 18 111 72
t90 108q36 53 101 168l-207 885q-4 16 -4 20q0 33 33 33q23 0 29 -20l190 -848l489 848q12 20 31 20z" />
    <glyph glyph-name="yacute.salt" horiz-adv-x="856" 
d="M803 1346q20 -23 -6 -46l-254 -229q-18 -16 -33 -2q-14 16 2 33l246 241q25 26 45 3zM946 946q31 0 31 -26q0 -8 -6 -21l-617 -1042q-88 -150 -182 -209t-238 -60q-23 0 -22 23q0 12 9 21t22 10q82 0 140 18q57 18 111 72t90 108q36 53 101 168l-207 885q-4 16 -4 20
q0 33 33 33q23 0 29 -20l190 -848l489 848q12 20 31 20z" />
    <glyph glyph-name="ycircumflex.salt" horiz-adv-x="856" 
d="M411 1092q-9 0 -17 8q-7 8 -7 19t12 22l238 180q14 10 23 10t20 -10l170 -182q8 -8 8 -21q0 -27 -27 -26q-12 0 -24 12l-152 168l-223 -172q-12 -8 -21 -8zM946 946q31 0 31 -26q0 -8 -6 -21l-617 -1042q-88 -150 -182 -209t-238 -60q-23 0 -22 23q0 12 9 21t22 10
q82 0 140 18q57 18 111 72t90 108q36 53 101 168l-207 885q-4 16 -4 20q0 33 33 33q23 0 29 -20l190 -848l489 848q12 20 31 20z" />
    <glyph glyph-name="ygrave.salt" horiz-adv-x="856" 
d="M440 1346q20 23 45 -3l246 -241q18 -16 3 -32t-34 1l-254 229q-26 23 -6 46zM946 946q31 0 31 -26q0 -8 -6 -21l-617 -1042q-88 -150 -182 -209t-238 -60q-23 0 -22 23q0 12 9 21t22 10q82 0 140 18q57 18 111 72t90 108q36 53 101 168l-207 885q-4 16 -4 20q0 33 33 33
q23 0 29 -20l190 -848l489 848q12 20 31 20z" />
    <glyph glyph-name="f_b.salt" horiz-adv-x="1601" 
d="M756 1350q-135 0 -213 -79t-101 -212l-22 -129h242q23 0 22 -23q0 -12 -10 -21t-21 -9h-243l-152 -863q-6 -31 -35 -30q-31 0 -26 30l151 863h-115q-23 0 -22 22q0 11 9 21t22 10h116l23 129q61 344 389 344q115 0 213 -49q18 -10 16 -33l-100 -557q6 8 15 21t45 46
q141 130 309 128q168 -1 258 -88t90 -257q0 -246 -114 -433q-58 -95 -162 -151t-252 -56t-237 76q-89 77 -89 224q0 50 8 97l168 944q-92 35 -182 35zM823 283q0 -129 76 -193t207 -63q221 0 333 169t111 416q0 293 -290 293q-174 0 -315 -154q-32 -36 -48 -61l-14 -24
l-52 -295q-8 -51 -8 -88z" />
    <glyph glyph-name="f_f_b.salt" horiz-adv-x="2134" 
d="M1356 283q0 -129 76 -193t206 -63q221 0 333 169t112 416q0 293 -291 293q-178 0 -314 -154q-32 -36 -48 -61l-15 -24l-51 -295q-8 -51 -8 -88zM1288 1350q-135 0 -213 -79t-100 -212l-23 -129h242q23 0 23 -23q-1 -12 -11 -21t-20 -9h-244l-151 -863q-6 -31 -35 -30
q-31 0 -27 30l152 863h-471l-152 -863q-4 -31 -35 -30q-12 0 -20 9t-6 21l151 863h-115q-23 0 -22 22q0 11 10 21t21 10h116l23 129q29 156 130 250t275 94q23 0 23 -23q0 -12 -10 -21t-23 -9q-281 0 -334 -291l-22 -129h471l22 129q61 344 390 344q115 0 213 -49
q18 -10 16 -33l-100 -557q6 8 15 21t45 46q141 130 309 128q167 -1 257 -88t90 -257q0 -248 -113 -433q-59 -95 -163 -151t-252 -56t-237 76q-89 77 -89 224q1 50 9 97l167 944q-92 35 -182 35z" />
    <glyph glyph-name="f_h.salt" horiz-adv-x="1576" 
d="M756 1350q-135 0 -213 -79t-101 -212l-22 -129h242q23 0 22 -23q0 -12 -10 -21t-21 -9h-243l-152 -863q-6 -31 -35 -30q-31 0 -26 30l151 863h-115q-23 0 -22 22q0 11 9 21t22 10h116l23 129q61 344 389 344q53 0 118 -15q65 -14 90 -30t21 -37l-98 -559q33 74 129 135
t240 61t221 -72q76 -72 76 -188q0 -55 -8 -102l-103 -582q-4 -31 -35 -30q-31 0 -26 30l102 582q8 49 8 92q0 217 -260 217q-156 0 -254 -98t-123 -232l-100 -561q-4 -31 -35 -30q-12 0 -20 9t-6 21l231 1301q-92 35 -182 35z" />
    <glyph glyph-name="f_f_h.salt" horiz-adv-x="2111" 
d="M1288 1350q-135 0 -213 -79t-100 -212l-23 -129h242q23 0 23 -23q-1 -12 -11 -21t-20 -9h-244l-151 -863q-6 -31 -35 -30q-31 0 -27 30l152 863h-471l-152 -863q-4 -31 -35 -30q-12 0 -20 9t-6 21l151 863h-115q-23 0 -22 22q0 11 10 21t21 10h116l23 129q29 156 130 250
t275 94q23 0 23 -23q0 -12 -10 -21t-23 -9q-281 0 -334 -291l-22 -129h471l22 129q61 344 390 344q53 0 117 -15q64 -14 90 -30t22 -37l-98 -559q33 74 129 135q97 61 241 61t220 -72t75 -188q0 -55 -8 -102l-102 -582q-4 -31 -35 -30q-31 0 -27 30l103 582q8 49 8 92
q0 217 -260 217q-156 0 -254 -98t-123 -232l-101 -561q-4 -31 -34 -30q-12 0 -21 9q-8 9 -6 21l231 1301q-92 35 -182 35z" />
    <glyph glyph-name="f_k.salt" horiz-adv-x="1458" 
d="M756 1350q-135 0 -213 -79t-101 -212l-22 -129h242q23 0 22 -23q0 -12 -10 -21t-21 -9h-243l-152 -863q-6 -31 -35 -30q-31 0 -26 30l151 863h-115q-23 0 -22 22q0 11 9 21t22 10h116l23 129q61 344 389 344q115 0 213 -49q18 -10 16 -33l-149 -862l659 479q11 8 21 8
t19 -8q25 -22 -7 -47l-467 -332l336 -526q6 -10 6 -21q0 -29 -28 -28q-16 0 -25 14l-336 526l-197 -145l-63 -365q-4 -31 -35 -30q-30 -1 -26 30l231 1301q-92 35 -182 35z" />
    <glyph glyph-name="f_f_k.salt" horiz-adv-x="1990" 
d="M1288 1350q-135 0 -213 -79t-100 -212l-23 -129h242q23 0 23 -23q-1 -12 -11 -21t-20 -9h-244l-151 -863q-6 -31 -35 -30q-31 0 -27 30l152 863h-471l-152 -863q-4 -31 -35 -30q-12 0 -20 9t-6 21l151 863h-115q-23 0 -22 22q0 11 10 21t21 10h116l23 129q29 156 130 250
t275 94q23 0 23 -23q0 -12 -10 -21t-23 -9q-281 0 -334 -291l-22 -129h471l22 129q61 344 390 344q115 0 213 -49q18 -10 16 -33l-150 -862l660 479q10 8 20 8t20 -8t9 -21q0 -13 -16 -26l-467 -332l336 -526q6 -10 6 -21q0 -29 -29 -28q-16 0 -25 14l-335 526l-197 -145
l-64 -365q-4 -31 -34 -30q-31 -1 -27 30l231 1301q-92 35 -182 35z" />
    <glyph glyph-name="f_f_j.salt" horiz-adv-x="1452" 
d="M1432 930q12 0 20 -9t6 -22l-180 -1018q-25 -133 -118 -213t-218 -80q-23 0 -22 23q0 12 10 21t20 10q98 0 173 68t94 171l174 996h-449l-151 -863q-6 -31 -35 -30q-31 0 -27 30l152 863h-471l-152 -863q-4 -31 -35 -30q-12 0 -20 9t-6 21l151 863h-115q-23 0 -22 22
q0 11 10 21t21 10h116l23 129q29 156 130 250t275 94q23 0 23 -23q0 -12 -10 -21t-23 -9q-281 0 -334 -291l-22 -129h471l22 129q61 344 390 344q125 0 202 -45q16 -10 17 -25q0 -27 -25 -26q-6 0 -22 6q-90 37 -206 37t-194 -79t-100 -212l-23 -129h480z" />
    <glyph glyph-name="f_j.salt" horiz-adv-x="917" 
d="M899 930q13 0 21 -9t6 -22l-181 -1018q-25 -133 -117 -213t-218 -80q-23 0 -23 23q0 12 10 21t21 10q98 0 173 68t93 171l174 996h-448l-152 -863q-6 -31 -35 -30q-31 0 -26 30l151 863h-115q-23 0 -22 22q0 11 9 21t22 10h116l23 129q61 344 389 344q125 0 203 -45
q16 -10 16 -25q0 -27 -24 -26q-6 0 -23 6q-90 37 -186 37q-135 0 -213 -79t-101 -212l-22 -129h479z" />
    <glyph glyph-name="fi.salt" horiz-adv-x="909" 
d="M899 930q13 0 21 -9t6 -22l-158 -885q-4 -31 -35 -30q-12 0 -20 9t-6 21l151 863h-448l-152 -863q-6 -31 -35 -30q-31 0 -26 30l151 863h-115q-23 0 -22 22q0 11 9 21t22 10h116l23 129q61 344 389 344q125 0 203 -45q16 -10 16 -25q0 -27 -24 -26q-6 0 -23 6
q-90 37 -186 37q-135 0 -213 -79t-101 -212l-22 -129h479z" />
    <glyph glyph-name="fl.salt" horiz-adv-x="960" 
d="M756 1350q-135 0 -213 -79t-101 -212l-22 -129h448l70 385q-92 35 -182 35zM797 143q0 -106 104 -106q23 0 23 -23q0 -12 -10 -21t-23 -9q-156 0 -156 153q0 31 6 68l119 672h-450l-152 -863q-6 -31 -35 -30q-31 0 -26 30l151 863h-115q-23 0 -22 22q0 11 9 21t22 10h116
l23 129q61 344 389 344q53 0 118 -15t90 -31t21 -36l-196 -1116q-6 -33 -6 -62z" />
    <glyph glyph-name="f_f.salt" horiz-adv-x="1118" 
d="M233 877q-23 0 -22 22q0 11 10 21t21 10h116l23 129q29 156 130 250t275 94q23 0 23 -23q0 -12 -10 -21t-23 -9q-281 0 -334 -291l-22 -129h471l22 129q29 156 130 250t276 94q23 0 22 -23q0 -12 -10 -21t-22 -9q-281 0 -334 -291l-23 -129h242q23 0 23 -23
q-1 -12 -11 -21t-20 -9h-244l-151 -863q-4 -31 -35 -30q-12 0 -21 9q-8 9 -6 21l152 863h-471l-152 -863q-4 -31 -35 -30q-12 0 -20 9t-6 21l151 863h-115z" />
    <glyph glyph-name="f_f_i.salt" horiz-adv-x="1441" 
d="M1432 930q12 0 20 -9t6 -22l-158 -885q-4 -31 -34 -30q-12 0 -21 9q-8 9 -6 21l152 863h-449l-151 -863q-6 -31 -35 -30q-31 0 -27 30l152 863h-471l-152 -863q-4 -31 -35 -30q-12 0 -20 9t-6 21l151 863h-115q-23 0 -22 22q0 11 10 21t21 10h116l23 129q29 156 130 250
t275 94q23 0 23 -23q0 -12 -10 -21t-23 -9q-281 0 -334 -291l-22 -129h471l22 129q61 344 390 344q125 0 202 -45q16 -10 17 -25q0 -27 -25 -26q-6 0 -22 6q-90 37 -206 37t-194 -79t-100 -212l-23 -129h480z" />
    <glyph glyph-name="f_f_l.salt" horiz-adv-x="1492" 
d="M1288 1350q-134 0 -212 -79t-101 -212l-23 -129h449l69 385q-92 35 -182 35zM1329 143q0 -106 105 -106q23 0 22 -23q0 -12 -9 -21t-24 -9q-156 0 -155 153q0 31 6 68l119 672h-451l-151 -863q-6 -31 -35 -30q-31 0 -27 30l152 863h-471l-152 -863q-4 -31 -35 -30
q-12 0 -20 9t-6 21l151 863h-115q-23 0 -22 22q0 11 10 21t21 10h116l23 129q29 156 130 250t275 94q23 0 23 -23q0 -12 -10 -21t-23 -9q-281 0 -334 -291l-22 -129h471l22 129q61 344 390 344q53 0 117 -15t90 -31t22 -36l-197 -1116q-6 -33 -6 -62z" />
    <glyph glyph-name="germandbls.salt" horiz-adv-x="1009" 
d="M446 694q0 78 43 131t103 84t122 63q146 77 146 220q0 70 -48 114t-132 44q-238 0 -287 -283l-186 -1055q-4 -31 -35 -30q-12 0 -20 9t-7 21l187 1055q59 336 356 336q102 0 168 -56q66 -57 66 -147t-43 -152t-103 -96t-122 -64q-146 -71 -146 -183q0 -68 52 -114
t126 -74q74 -29 148 -57t126 -77t52 -121q0 -141 -106 -215t-281 -74q-117 0 -200 42t-120 96q-8 12 -8 23q0 12 9 20q8 8 22 8t22 -12q90 -123 285 -123q135 0 224 55t89 166t-176 177q-74 29 -148 57t-126 81t-52 131z" />
    </font>
</defs>
</svg>
