<?xml version="1.0" standalone="no"?>
<!DOCTYPE svg PUBLIC "-//W3C//DTD SVG 1.1//EN" "http://www.w3.org/Graphics/SVG/1.1/DTD/svg11.dtd" >
<svg xmlns="http://www.w3.org/2000/svg">
<metadata>
Created by FontPrep 20130207 at Fri Aug 15 12:33:29 2014
 By Simon Petersen
Copyright (c) 2012 by atipo. All rights reserved.
</metadata>
<defs>
<font id="4d9f0e1ece7110619813fc05c7461dd1" horiz-adv-x='1024' >
  <font-face 
    font-family="BariolBold-Italic"
    font-weight="700"
    font-style="italic"
    font-stretch="normal"
    units-per-em="2048"
    panose-1="2 0 5 6 4 0 0 2 0 3"
    ascent="1612"
    descent="-436"
    x-height="930"
    cap-height="1395"
    bbox="-274.014 -563 2351 2090.03"
    underline-thickness="40"
    underline-position="-231"
    unicode-range="U+0020-FB06"
  />
<missing-glyph horiz-adv-x="1187" 
d="M221 1434h1024v-1434h-1024v1434zM319 98h828v1235h-828v-1235zM764 469h-96v80q0 76 33 139q34 63 75 98q109 93 109 185q0 67 -45 105t-111 38q-162 0 -162 -166h-98q0 135 73 202q74 67 188 67q114 1 186 -61t71 -175q0 -113 -78 -191q-33 -34 -67 -66
q-80 -77 -78 -175v-80zM772 254h-113v113h113v-113z" />
    <glyph glyph-name="ellipsis" unicode="&#x2e;&#x2e;&#x2e;" horiz-adv-x="1482" 
d="M227 -16q-115 0 -114 104q0 80 42 123t119 43q113 0 113 -107q0 -163 -160 -163zM1249 -16q-115 0 -114 104q0 80 42 123t119 43q113 0 113 -107q0 -163 -160 -163zM737 -16q-115 0 -114 104q0 80 42 123t119 43q113 0 113 -107q0 -163 -160 -163z" />
    <glyph glyph-name="f_f" unicode="ff" horiz-adv-x="1288" 
d="M-78 -412q-34 0 -58 24t-24 64t35 72q35 33 80 33q174 0 213 221l129 743h-41q-34 0 -56 23q-22 22 -22 60t34 70t77 32h41l20 110q29 160 140 262q112 101 315 101q35 0 59 -24q24 -23 23 -63q0 -40 -35 -73q-34 -33 -98 -33t-115 -42t-64 -111l-22 -127h405l21 110
q29 160 140 262q112 101 315 101q34 0 58 -24q24 -23 24 -63t-35 -73t-99 -33t-114 -42q-51 -42 -64 -111l-22 -127h137q33 0 55 -23t21 -61q0 -38 -33 -69q-33 -32 -76 -32h-139l-127 -731q-33 -188 -149 -307t-320 -119q-35 0 -59 24t-23 64q0 40 35 72q35 33 80 33
q174 0 213 221l129 743h-408l-127 -731q-33 -188 -149 -307t-320 -119z" />
    <glyph glyph-name="fi" unicode="fi" horiz-adv-x="1073" 
d="M772 1200q-170 0 -197 -143l-22 -127h473q45 0 72 -32t18 -79l-127 -725q-8 -45 -46 -78q-38 -32 -84 -32t-73 32t-18 78l115 651h-365l-127 -731q-33 -188 -149 -307t-320 -119q-34 0 -58 24t-24 64t35 72q35 33 80 33q174 0 213 221l129 743h-41q-34 0 -56 23
q-22 22 -22 60t34 70t77 32h41l20 110q29 160 140 262q112 101 315 101q141 0 229 -53q51 -31 51 -80q-1 -49 -31 -80t-58 -31q-28 1 -90 21q-60 20 -134 20z" />
    <glyph glyph-name="fl" unicode="fl" horiz-adv-x="1136" 
d="M772 1200q-170 0 -197 -143l-22 -127h362l41 227q-76 43 -184 43zM-78 -412q-34 0 -58 24t-24 64t35 72q35 33 80 33q174 0 213 221l129 743h-41q-34 0 -56 23q-22 22 -22 60t34 70t77 32h41l20 110q29 160 140 262q112 101 304 101t351 -98q51 -33 39 -97l-172 -975
q-8 -45 44 -45q26 0 51 -24q23 -24 23 -66q0 -43 -36 -79t-95 -35q-211 0 -211 196q0 29 7 66l88 499h-365l-127 -731q-33 -188 -149 -307t-320 -119z" />
    <glyph glyph-name="f_f_i" unicode="ffi" horiz-adv-x="1703" 
d="M1401 1200q-170 0 -197 -143l-22 -127h473q45 0 71 -32t19 -79l-127 -725q-8 -45 -46 -78q-38 -32 -84 -32t-73 32t-18 78l114 651h-364l-127 -731q-33 -188 -149 -307t-320 -119q-35 0 -59 24t-23 64q0 40 35 72q35 33 80 33q174 0 213 221l129 743h-408l-127 -731
q-33 -188 -149 -307t-320 -119q-34 0 -58 24t-24 64t35 72q35 33 80 33q174 0 213 221l129 743h-41q-34 0 -56 23q-22 22 -22 60t34 70t77 32h41l20 110q29 160 140 262q112 101 315 101q35 0 59 -24q24 -23 23 -63q0 -40 -35 -73q-34 -33 -98 -33t-115 -42t-64 -111
l-22 -127h405l21 110q29 160 140 262q112 101 315 101q141 0 229 -53q51 -31 51 -80t-31 -80t-59 -31q-28 1 -88 21t-135 20z" />
    <glyph glyph-name="f_f_l" unicode="ffl" horiz-adv-x="1765" 
d="M1401 1200q-170 0 -197 -143l-22 -127h362l41 227q-76 43 -184 43zM551 -412q-35 0 -59 24t-23 64q0 40 35 72q35 33 80 33q174 0 213 221l129 743h-408l-127 -731q-33 -188 -149 -307t-320 -119q-34 0 -58 24t-24 64t35 72q35 33 80 33q174 0 213 221l129 743h-41
q-34 0 -56 23q-22 22 -22 60t34 70t77 32h41l20 110q29 160 140 262q112 101 315 101q35 0 59 -24q24 -23 23 -63q0 -40 -35 -73q-34 -33 -98 -33t-115 -42t-64 -111l-22 -127h405l21 110q29 160 140 262q113 101 305 101t350 -98q51 -33 38 -97l-172 -975q-4 -23 8 -33
t38 -12q26 0 50 -24t24 -66q0 -43 -38 -79q-37 -36 -94 -35q-211 0 -211 196q0 29 6 66l88 499h-364l-127 -731q-33 -188 -149 -307t-320 -119z" />
    <glyph glyph-name="f_j" unicode="fj" horiz-adv-x="1073" 
d="M-78 -412q-34 0 -58 24t-24 64t35 72q35 33 80 33q174 0 213 221l129 743h-41q-34 0 -56 23q-22 22 -22 60t34 70t77 32h41l20 110q29 160 140 262q112 101 315 101q141 0 229 -53q51 -31 51 -80q-1 -49 -31 -80t-58 -31t-90 21q-60 21 -134 20q-170 0 -197 -143
l-22 -127h473q45 0 72 -32t18 -79l-147 -835q-25 -137 -135 -231q-111 -93 -254 -93q-37 0 -62 26q-24 26 -24 68t35 76q36 35 86 35q51 0 87 34t46 85l133 761h-363l-127 -731q-33 -188 -149 -307t-320 -119z" />
    <glyph glyph-name="f_b" unicode="fb" horiz-adv-x="1673" 
d="M1032 309q0 -147 170 -147q131 0 207 117t76 290q0 201 -174 201q-66 0 -121 -27t-78 -51l-22 -26l-50 -273q-8 -43 -8 -84zM1708 602q0 -289 -138 -459t-382 -170q-170 0 -274 81q-103 81 -103 235q0 51 8 94l137 784q-98 33 -184 33q-170 0 -197 -143l-22 -127h137
q32 0 54 -23t22 -61t-33 -69q-33 -32 -76 -32h-139l-127 -731q-33 -188 -149 -307t-320 -119q-34 0 -58 24t-24 64t35 72q35 33 80 33q174 0 213 221l129 743h-41q-34 0 -56 23q-22 22 -22 60t34 70t77 32h41l20 110q29 160 140 262q112 101 315 101q117 0 208 -26
q91 -27 138 -59t37 -93l-62 -348q94 81 245 81t244 -90t93 -266z" />
    <glyph glyph-name="f_f_b" unicode="ffb" horiz-adv-x="2301" 
d="M1661 309q0 -147 170 -147q131 0 207 117t76 290q0 201 -175 201q-67 0 -121 -27t-77 -51l-23 -26l-49 -273q-8 -43 -8 -84zM2337 602q0 -289 -138 -459t-382 -170q-170 0 -274 81q-103 81 -103 235q0 51 8 94l137 784q-98 33 -184 33q-170 0 -197 -143l-22 -127h137
q33 0 55 -23t21 -61q0 -38 -33 -69q-33 -32 -76 -32h-139l-127 -731q-33 -188 -149 -307t-320 -119q-35 0 -59 24t-23 64q0 40 35 72q35 33 80 33q174 0 213 221l129 743h-408l-127 -731q-33 -188 -149 -307t-320 -119q-34 0 -58 24t-24 64t35 72q35 33 80 33q174 0 213 221
l129 743h-41q-34 0 -56 23q-22 22 -22 60t34 70t77 32h41l20 110q29 160 140 262q112 101 315 101q35 0 59 -24q24 -23 23 -63q0 -40 -35 -73q-34 -33 -98 -33t-115 -42t-64 -111l-22 -127h405l21 110q29 160 140 262q112 101 326 101t333 -82q49 -35 39 -96l-62 -348
q94 81 245 81t244 -90t93 -266z" />
    <glyph glyph-name="f_h" unicode="fh" horiz-adv-x="1671" 
d="M772 1200q-170 0 -197 -143l-22 -127h137q32 0 54 -23t22 -61t-33 -69q-33 -32 -76 -32h-139l-127 -731q-33 -188 -149 -307t-320 -119q-34 0 -58 24t-24 64t35 72q35 33 80 33q174 0 213 221l129 743h-41q-34 0 -56 23q-22 22 -22 60t34 70t77 32h41l20 110
q29 160 140 262q112 101 315 101q117 0 208 -26q91 -27 138 -59t37 -93l-70 -389q106 122 274 122t234 -72q68 -72 68 -184q0 -43 -11 -100l-90 -512q-8 -45 -45 -76q-37 -30 -85 -30q-47 0 -73 30t-18 76l84 471q6 31 6 60q0 137 -151 137q-207 0 -242 -211l-82 -457
q-8 -45 -45 -76q-37 -30 -85 -30t-74 28q-25 29 -17 78l190 1077q-98 33 -184 33z" />
    <glyph glyph-name="f_f_h" unicode="ffh" horiz-adv-x="2299" 
d="M1401 1200q-170 0 -197 -143l-22 -127h137q33 0 55 -23t21 -61q0 -38 -33 -69q-33 -32 -76 -32h-139l-127 -731q-33 -188 -149 -307t-320 -119q-35 0 -59 24t-23 64q0 40 35 72q35 33 80 33q174 0 213 221l129 743h-408l-127 -731q-33 -188 -149 -307t-320 -119
q-34 0 -58 24t-24 64t35 72q35 33 80 33q174 0 213 221l129 743h-41q-34 0 -56 23q-22 22 -22 60t34 70t77 32h41l20 110q29 160 140 262q112 101 315 101q35 0 59 -24q24 -23 23 -63q0 -40 -35 -73q-34 -33 -98 -33t-115 -42t-64 -111l-22 -127h405l21 110q29 160 140 262
q112 101 326 101t333 -82q49 -35 39 -96l-70 -389q105 122 273 122t236 -72t66 -184q0 -43 -10 -100l-90 -512q-8 -45 -45 -76q-37 -30 -85 -30t-74 30t-17 76l84 471q6 31 6 60q0 137 -152 137q-207 0 -241 -211l-82 -457q-8 -45 -45 -76q-37 -30 -85 -30t-74 28
q-25 29 -17 78l190 1077q-98 33 -184 33z" />
    <glyph glyph-name="f_k" unicode="fk" horiz-adv-x="1566" 
d="M772 1200q-170 0 -197 -143l-22 -127h137q32 0 54 -23t22 -61t-33 -69q-33 -32 -76 -32h-139l-127 -731q-33 -188 -149 -307t-320 -119q-34 0 -58 24t-24 64t35 72q35 33 80 33q174 0 213 221l129 743h-41q-34 0 -56 23q-22 22 -22 60t34 70t77 32h41l20 110
q29 160 140 262q112 101 315 101q117 0 208 -26q91 -27 138 -59t37 -93l-105 -596l406 291q39 26 80 26t71 -31t31 -83q0 -52 -53 -87l-320 -202l238 -393q16 -27 16 -66t-30 -70q-30 -30 -84 -30q-53 0 -80 45l-240 407l-82 -55l-49 -291q-8 -45 -45 -76q-37 -30 -84 -30
t-74 29q-26 30 -18 77l190 1077q-98 33 -184 33z" />
    <glyph glyph-name="f_f_k" unicode="ffk" horiz-adv-x="2195" 
d="M2300 832q0 -52 -53 -87l-320 -202l238 -393q16 -27 16 -66t-31 -70q-32 -30 -84 -30t-79 45l-240 407l-82 -55l-49 -291q-8 -45 -45 -76q-37 -30 -84 -30t-74 30t-18 76l190 1077q-98 33 -184 33q-170 0 -197 -143l-22 -127h137q33 0 55 -23t21 -61q0 -38 -33 -69
q-33 -32 -76 -32h-139l-127 -731q-33 -188 -149 -307t-320 -119q-35 0 -59 24t-23 64q0 40 35 72q35 33 80 33q174 0 213 221l129 743h-408l-127 -731q-33 -188 -149 -307t-320 -119q-34 0 -58 24t-24 64t35 72q35 33 80 33q174 0 213 221l129 743h-41q-34 0 -56 23
q-22 22 -22 60t34 70t77 32h41l20 110q29 160 140 262q112 101 315 101q35 0 59 -24q24 -23 23 -63q0 -40 -35 -73q-34 -33 -98 -33t-115 -42t-64 -111l-22 -127h405l21 110q29 160 140 262q112 101 326 101t333 -82q49 -35 39 -96l-105 -596l406 291q88 58 151 -5
q31 -31 31 -83z" />
    <glyph glyph-name="f_f_j" unicode="ffj" horiz-adv-x="1701" 
d="M551 -412q-35 0 -59 24t-23 64q0 40 35 72q35 33 80 33q174 0 213 221l129 743h-408l-127 -731q-33 -188 -149 -307t-320 -119q-34 0 -58 24t-24 64t35 72q35 33 80 33q174 0 213 221l129 743h-41q-34 0 -56 23q-22 22 -22 60t34 70t77 32h41l20 110q29 160 140 262
q112 101 315 101q35 0 59 -24q24 -23 23 -63q0 -40 -35 -73q-34 -33 -98 -33t-115 -42t-64 -111l-22 -127h405l21 110q29 160 140 262q112 101 315 101q141 0 229 -53q51 -31 51 -80t-31 -80t-59 -31t-89 21t-134 20q-170 0 -197 -143l-22 -127h473q45 0 71 -32t19 -79
l-148 -835q-25 -137 -135 -231q-111 -93 -254 -93q-38 0 -62 26t-24 68t36 76q36 35 86 35t86 34t46 85l133 761h-362l-127 -731q-33 -188 -149 -307t-320 -119z" />
    <glyph glyph-name=".notdef" horiz-adv-x="1187" 
d="M221 1434h1024v-1434h-1024v1434zM319 98h828v1235h-828v-1235zM764 469h-96v80q0 76 33 139q34 63 75 98q109 93 109 185q0 67 -45 105t-111 38q-162 0 -162 -166h-98q0 135 73 202q74 67 188 67q114 1 186 -61t71 -175q0 -113 -78 -191q-33 -34 -67 -66
q-80 -77 -78 -175v-80zM772 254h-113v113h113v-113z" />
    <glyph glyph-name=".null" horiz-adv-x="0" 
 />
    <glyph glyph-name="nonmarkingreturn" horiz-adv-x="681" 
 />
    <glyph glyph-name="space" unicode=" " horiz-adv-x="462" 
 />
    <glyph glyph-name="exclam" unicode="!" horiz-adv-x="434" 
d="M215 -16q-115 0 -115 104q0 80 42 123t120 43q113 0 113 -107q0 -163 -160 -163zM464 1395q132 0 105 -115l-182 -815q-18 -78 -102 -78t-74 78l106 815q15 115 147 115z" />
    <glyph glyph-name="quotedbl" unicode="&#x22;" horiz-adv-x="598" 
d="M673 1395q101 0 83 -84l-76 -328q-16 -74 -92 -74t-66 74l39 328q11 84 112 84zM417 1395q101 0 83 -84l-76 -328q-16 -74 -92 -74t-66 74l39 328q11 84 112 84z" />
    <glyph glyph-name="numbersign" unicode="#" horiz-adv-x="1169" 
d="M647 768l-65 -195h166l63 195h-164zM297 -23q-37 0 -59 23t-23 50q0 27 12 61l95 278h-66q-34 0 -56 23q-22 22 -22 60t34 70t77 31h94l63 195h-75q-33 0 -55 23t-22 61t34 69q33 32 75 31h105l102 303q12 35 44 58t69 23t61 -22t23 -48q0 -26 -8 -49l-88 -265h161
l103 303q12 35 44 58q33 23 69 23t67 -28q31 -27 8 -91l-88 -265h76q35 0 57 -22t21 -61q0 -37 -34 -69t-77 -32h-106l-66 -195h90q33 -1 55 -23q21 -22 21 -60t-33 -69q-33 -32 -75 -32h-119l-113 -332q-29 -80 -110 -80q-37 0 -60 23q-39 39 -10 109l94 280h-166
l-112 -332q-29 -80 -111 -80z" />
    <glyph glyph-name="dollar" unicode="$" horiz-adv-x="1173" 
d="M820 1194q-148 0 -214 -53t-66 -123t66 -117t160 -80t189 -73t161 -116q66 -77 66 -190q0 -198 -126 -322t-370 -145l-20 -112q-8 -41 -41 -69t-72 -28t-63 30q-24 28 -15 67l21 117q-137 20 -240 95q-102 75 -139 161q-11 20 -11 55t32 67t80 31q48 0 85 -45
q129 -156 324 -156q147 0 230 56t83 155q0 70 -67 118t-161 81t-188 72q-94 38 -160 114t-67 187q0 163 117 285t331 145l21 117q8 40 39 68t73 28t64 -29t14 -67l-20 -119q119 -17 210 -75q138 -88 138 -186q0 -34 -32 -66t-76 -32t-82 37q-126 117 -274 117z" />
    <glyph glyph-name="percent" unicode="%" horiz-adv-x="1564" 
d="M1288 641q133 0 200 -71t66 -187q0 -170 -94 -290t-291 -120q-131 0 -197 71t-65 187q0 172 92 291t289 119zM1200 145q88 -1 127 61t39 142q0 121 -109 121q-162 0 -161 -205q0 -119 104 -119zM1324 1395q44 0 73 -28t29 -63t-19 -63l-860 -1214q-31 -43 -76 -43t-73 28
t-28 65q0 36 19 60l860 1217q31 41 75 41zM635 1407q133 0 200 -71t66 -187q0 -170 -94 -290t-291 -120q-131 0 -197 71t-65 187q0 172 92 291t289 119zM547 911q88 -1 127 61t39 142q0 121 -109 121q-162 0 -162 -205q1 -119 105 -119z" />
    <glyph glyph-name="ampersand" unicode="&#x26;" horiz-adv-x="1626" 
d="M1468 911q44 0 73 -41q30 -41 30 -102q-1 -100 -61 -158t-220 -69q18 -59 19 -121q0 -207 -161 -328t-420 -121t-409 124q-149 125 -149 313t109 301t264 145q-137 72 -137 226t117 241q118 86 282 86q260 0 346 -180q14 -33 14 -65q-1 -32 -31 -62q-30 -31 -78 -31
t-79 41q-72 96 -182 96q-72 0 -116 -38t-44 -106t52 -109q53 -40 105 -40q52 -1 74 -25t21 -60q0 -36 -31 -72t-86 -35q-162 0 -268 -73t-107 -218q0 -110 94 -184t242 -74q373 0 375 268q0 49 -16 95q-61 0 -62 -56q0 -41 -30 -71t-70 -29q-40 0 -71 32q-30 32 -30 89
q1 98 91 167t268 68q122 0 154 9t32 40l-4 45q0 41 28 61t72 21z" />
    <glyph glyph-name="quotesingle" unicode="'" horiz-adv-x="342" 
d="M417 1395q101 0 83 -84l-76 -328q-16 -74 -92 -74t-66 74l39 328q11 84 112 84z" />
    <glyph glyph-name="parenleft" unicode="(" horiz-adv-x="645" 
d="M746 1511q30 1 60 -29t30 -71q0 -68 -66 -94q-156 -66 -228 -230t-125 -476q-55 -312 -55 -427q0 -116 28 -186t104 -107q57 -25 57 -90q0 -41 -30 -71t-60 -29q-30 0 -55 10q-260 117 -261 469q0 160 45 426q70 418 179 614t321 281q26 10 56 10z" />
    <glyph glyph-name="parenright" unicode=")" horiz-adv-x="645" 
d="M114 -299q-30 0 -60 30t-29 70q0 68 65 95q156 66 228 230t125 475q55 312 55 427q0 116 -28 186t-103 107q-57 25 -57 78t29 83q47 47 116 19q260 -117 260 -469q0 -160 -45 -426q-70 -418 -178 -614t-322 -281q-26 -10 -56 -10z" />
    <glyph glyph-name="asterisk" unicode="*" horiz-adv-x="757" 
d="M588 1458q33 0 49 -12t14 -45l-6 -182l182 53q57 18 74 -43q16 -68 -41 -80l-180 -31l117 -160q35 -46 -17 -82t-86 15l-106 168l-107 -168q-33 -51 -85 -15t-17 82l117 160l-181 31q-57 12 -41 80q16 61 74 43l182 -53l-6 182q-2 33 14 45t50 12z" />
    <glyph glyph-name="plus" unicode="+" horiz-adv-x="929" 
d="M932 541q34 1 56 -23t22 -63t-33 -71t-78 -32h-274l-47 -270q-8 -41 -39 -70q-31 -28 -75 -28t-68 28t-15 70l47 270h-270q-35 0 -58 24q-22 24 -22 62t34 71q34 32 78 32h273l47 272q8 41 40 70t75 29t67 -30t15 -69l-48 -272h273z" />
    <glyph glyph-name="comma" unicode="," horiz-adv-x="460" 
d="M274 254q113 0 113 -107q0 -147 -89 -273t-208 -214q-14 -10 -30 -10t-30 13q-32 32 5 69q63 63 92 106t29 85t-21 93q-20 51 -20 82q-1 74 41 115t118 41z" />
    <glyph glyph-name="hyphen" unicode="-" horiz-adv-x="774" 
d="M778 524q0 -38 -33 -70t-77 -32h-410q-36 0 -58 24t-22 62q0 39 34 71t79 31h409q33 0 56 -23q22 -24 22 -63z" />
    <glyph glyph-name="period" unicode="." horiz-adv-x="460" 
d="M227 -16q-115 0 -114 104q0 80 42 123t119 43q113 0 113 -107q0 -163 -160 -163z" />
    <glyph glyph-name="slash" unicode="/" horiz-adv-x="864" 
d="M943 1538q56 0 88 -32t32 -70t-16 -68l-801 -1505q-32 -63 -90 -63t-90 32t-31 68q0 36 14 65l807 1518q31 55 87 55z" />
    <glyph glyph-name="zero" unicode="0" horiz-adv-x="1251" 
d="M866 1407q442 0 443 -455q0 -219 -61 -441t-214 -381t-407 -159q-442 0 -443 455q0 219 61 441t214 381t407 159zM1071 913q-1 291 -223 289q-110 0 -188 -52t-120 -129q-118 -208 -118 -556q0 -289 222 -289q110 0 189 52q77 52 120 129q118 206 118 556z" />
    <glyph glyph-name="one" unicode="1" horiz-adv-x="724" 
d="M345 973q-38 0 -72 34t-33 78q0 68 61 101l334 184q43 25 83 25t68 -35t21 -82l-207 -1178q-10 -49 -49 -83q-39 -33 -88 -33t-77 34t-19 82l172 967l-123 -74q-33 -20 -71 -20z" />
    <glyph glyph-name="two" unicode="2" horiz-adv-x="1132" 
d="M823 1407q195 0 301 -94t107 -256q-1 -119 -63 -228t-155 -183q-183 -144 -408 -256t-230 -181h629q40 0 64 -26q24 -27 24 -69t-38 -78t-87 -36h-783q-38 0 -66 27t-22 63q16 113 91 210q75 96 173 160t211 132t206 124t155 135q61 79 61 163t-54 136t-153 52
q-154 0 -266 -162q-35 -49 -85 -49t-82 32q-31 33 -31 71t20 69q150 244 481 244z" />
    <glyph glyph-name="three" unicode="3" horiz-adv-x="1153" 
d="M453 1169q-39 0 -64 26t-25 69q0 42 38 78q36 36 87 36h656q39 0 63 -26t25 -68q0 -43 -41 -80l-358 -338q162 -18 234 -114t73 -240q-1 -256 -149 -397t-443 -142q-151 0 -263 71t-165 173q-10 20 -10 55t31 67q32 32 82 32t89 -54q103 -139 267 -139t244 79t79 216
q0 188 -207 189h-127q-41 0 -67 26t-25 69q0 44 41 83l346 329h-411z" />
    <glyph glyph-name="four" unicode="4" horiz-adv-x="1148" 
d="M455 504h323l82 471zM1083 504q39 0 64 -26t25 -68t-38 -79q-38 -36 -87 -36h-72l-35 -195q-8 -49 -46 -83q-38 -33 -90 -33t-79 34t-18 82l34 195h-520q-39 0 -63 26q-24 25 -25 63q0 38 29 73l782 882q46 53 100 53t82 -34q28 -35 21 -82l-135 -772h71z" />
    <glyph glyph-name="five" unicode="5" horiz-adv-x="1179" 
d="M737 948q203 0 318 -97t114 -292q-1 -289 -163 -439t-443 -149q-176 0 -291 87t-157 204q-6 18 -6 51t31 65q32 32 77 32q70 0 98 -62q43 -90 110 -131t193 -41t221 89q93 89 93 253q0 111 -62 168t-162 57q-98 0 -158 -18t-120 -61t-106 -43q-44 1 -70 27t-27 56
q0 30 13 60l194 530q31 84 119 84h614q39 0 63 -26t24 -68q0 -43 -39 -79q-38 -36 -85 -36h-534l-100 -268q102 47 241 47z" />
    <glyph glyph-name="six" unicode="6" horiz-adv-x="1204" 
d="M410 428q0 -122 57 -186t187 -64t225 85q94 85 94 235q1 104 -63 158t-167 55q-197 0 -323 -172q-10 -66 -10 -111zM795 918q199 0 307 -98t108 -283q0 -264 -164 -415t-432 -151q-214 0 -324 124t-110 345q0 577 298 833q157 134 384 134q129 0 222 -38q94 -38 126 -80
q67 -87 0 -152q-30 -31 -70 -31t-71 22q-106 74 -223 74q-152 0 -260 -116t-131 -291q141 123 340 123z" />
    <glyph glyph-name="seven" unicode="7" horiz-adv-x="1038" 
d="M348 1169q-40 0 -64 26t-24 70q0 45 36 79t89 34h750q39 0 63 -26t23 -64q-1 -102 -51 -202t-127 -176q-77 -77 -171 -170t-178 -180t-152 -210t-91 -256q-7 -47 -47 -79q-40 -31 -85 -31t-73 26t-27 68q12 146 89 294t181 263q105 115 209 213t183 183q78 85 88 138
h-621z" />
    <glyph glyph-name="eight" unicode="8" horiz-adv-x="1177" 
d="M373 373q-1 -195 261 -195q130 0 223 72q91 72 91 203q0 90 -64 141q-66 51 -200 51t-222 -72t-89 -200zM801 1202q-119 0 -188 -53t-68 -152q0 -147 192 -147q117 0 187 53t69 154q1 145 -192 145zM596 -29q-219 1 -340 95t-121 270q0 143 77 254t224 164q-53 33 -88 93
t-35 136q-1 193 135 309t375 115q191 0 297 -81t106 -216t-62 -223q-64 -88 -158 -133q178 -94 178 -285q0 -229 -152 -363t-436 -135z" />
    <glyph glyph-name="nine" unicode="9" horiz-adv-x="1204" 
d="M1038 950q0 122 -57 186t-187 64t-225 -85q-94 -85 -94 -234q-1 -105 63 -159t167 -54q197 0 323 172q10 66 10 110zM653 461q-199 0 -307 98t-108 283q0 264 164 414t432 151q214 0 324 -124t110 -345q0 -575 -298 -833q-157 -134 -384 -134q-129 0 -222 38
q-94 38 -126 80t-32 82t32 71q30 30 70 30t71 -22q106 -74 223 -74q152 0 260 116t131 292q-141 -123 -340 -123z" />
    <glyph glyph-name="colon" unicode=":" horiz-adv-x="460" 
d="M348 664q-115 0 -115 104q0 80 42 123t120 43q113 0 113 -107q0 -163 -160 -163zM227 -16q-115 0 -114 104q0 80 42 123t119 43q113 0 113 -107q0 -163 -160 -163z" />
    <glyph glyph-name="semicolon" unicode=";" horiz-adv-x="460" 
d="M274 254q113 0 113 -107q0 -147 -89 -273t-208 -214q-14 -10 -30 -10t-30 13q-32 32 5 69q63 63 92 106t29 85t-21 93q-20 51 -20 82q-1 74 41 115t118 41zM348 664q-115 0 -115 104q0 80 42 123t120 43q113 0 113 -107q0 -163 -160 -163z" />
    <glyph glyph-name="less" unicode="&#x3c;" horiz-adv-x="743" 
d="M758 70q0 -42 -29 -71q-29 -30 -67 -30t-64 23l-481 407q-33 29 -33 76t61 88l603 412q28 18 62 18q34 1 64 -29t29 -76q0 -46 -47 -77l-520 -340l389 -332q33 -27 33 -69z" />
    <glyph glyph-name="equal" unicode="=" horiz-adv-x="929" 
d="M899 362q33 0 55 -23t23 -62q0 -39 -34 -71t-77 -32h-741q-35 0 -57 24t-23 62q0 38 35 71q35 32 78 31h741zM961 717q35 1 57 -23t22 -63t-34 -71t-78 -32h-742q-34 0 -56 24t-22 62t34 71q34 32 77 32h742z" />
    <glyph glyph-name="greater" unicode="&#x3e;" horiz-adv-x="743" 
d="M10 75q0 46 47 77l521 340l-390 331q-32 27 -32 69t28 72q29 30 67 30t64 -23l482 -408q33 -29 33 -75t-62 -89l-602 -411q-28 -18 -62 -18t-64 29q-30 30 -30 76z" />
    <glyph glyph-name="question" unicode="?" horiz-adv-x="927" 
d="M414 -16q-115 0 -115 104q0 80 42 123t120 43q113 0 112 -107q1 -163 -159 -163zM596 564q0 -30 10 -60t10 -62t-32 -62t-84 -30q-53 0 -96 48q-42 48 -42 128t50 146t123 108t145 82q172 93 172 211q0 63 -47 98t-134 35t-147 -44t-72 -112q-10 -68 -50 -98t-84 -30
t-70 28t-27 68q0 166 133 278t332 111q199 0 296 -77t97 -204t-50 -212t-121 -132q-72 -47 -142 -83q-70 -37 -120 -71t-50 -64z" />
    <glyph glyph-name="at" unicode="@" horiz-adv-x="1648" 
d="M688 272q0 -61 30 -102t81 -41q86 0 145 66t80 178l37 194q-59 39 -121 39q-108 0 -180 -89t-72 -245zM1237 147q103 1 163 95t60 280t-125 294t-346 108q-309 0 -490 -172t-182 -512q0 -225 124 -341q123 -116 363 -116t419 96q25 12 53 12q28 1 47 -21q20 -22 20 -54
q0 -57 -61 -90q-223 -115 -524 -115t-466 157t-165 445q0 422 240 652t651 231q289 0 461 -148t172 -418q0 -158 -68 -302t-205 -208q-78 -34 -168 -34t-138 42t-54 99q-33 -43 -60 -68t-84 -49t-129 -24q-111 0 -172 74t-61 196q0 217 121 358t301 142q100 0 162 -58
q27 47 73 47q46 -1 66 -25t14 -61l-78 -421q-7 -45 11 -68t55 -23z" />
    <glyph glyph-name="A" unicode="A" horiz-adv-x="1277" 
d="M180 -16q-59 0 -92 34t-33 73q0 40 19 71l690 1157q43 76 121 76q41 0 65 -24t31 -50l274 -1186q5 -12 5 -47t-35 -70t-82 -34q-90 0 -113 86l-69 288h-506l-181 -315q-35 -59 -94 -59zM920 575l-97 431l-250 -431h347z" />
    <glyph glyph-name="B" unicode="B" horiz-adv-x="1163" 
d="M670 0h-428q-49 0 -78 35t-19 84l201 1141q10 50 50 84t89 34h369q188 0 276 -82t89 -213q0 -240 -209 -340q164 -65 164 -277t-127 -339t-377 -127zM686 213q125 0 183 67t59 175q0 160 -172 159h-287l-70 -401h287zM756 815q109 1 163 61t54 152q0 137 -156 137h-250
l-61 -350h250z" />
    <glyph glyph-name="C" unicode="C" horiz-adv-x="1310" 
d="M707 -29q-251 1 -393 139t-142 392q0 420 208 662t578 243q174 0 289 -67t166 -169q12 -29 12 -63q-1 -34 -33 -67q-32 -31 -83 -31t-80 41q-104 143 -307 143q-134 0 -236 -56t-158 -154q-110 -194 -108 -462q0 -336 323 -336q188 0 340 133q101 85 172 14
q33 -32 33 -76t-33 -81q-90 -96 -236 -150t-312 -55z" />
    <glyph glyph-name="D" unicode="D" horiz-adv-x="1251" 
d="M485 1378h277q270 0 416 -134t147 -410q0 -402 -208 -618t-582 -216h-293q-49 0 -78 35t-19 84l201 1141q10 50 50 84t89 34zM557 213q250 0 384 156t134 446q0 184 -89 267t-261 83h-158l-168 -952h158z" />
    <glyph glyph-name="E" unicode="E" horiz-adv-x="1071" 
d="M889 799q39 0 63 -26q24 -27 25 -69q0 -42 -38 -78t-87 -36h-387l-66 -377h543q39 0 64 -26q24 -27 24 -71t-38 -80t-89 -36h-661q-49 0 -78 35t-19 84l201 1141q10 50 50 84t89 34h639q39 0 65 -26q25 -26 25 -69q0 -44 -38 -81t-89 -37h-520l-65 -366h387z" />
    <glyph glyph-name="F" unicode="F" horiz-adv-x="1071" 
d="M483 1378h639q39 0 65 -26q25 -26 25 -69q0 -44 -38 -81t-89 -37h-520l-65 -379h387q39 0 63 -26t23 -68q0 -43 -38 -79t-85 -35h-387l-84 -476q-10 -51 -48 -85q-38 -33 -90 -33t-80 34t-20 84l203 1158q10 50 50 84t89 34z" />
    <glyph glyph-name="G" unicode="G" horiz-adv-x="1382" 
d="M743 184q215 0 359 117l41 229h-279q-40 0 -64 26t-24 69t38 79t87 35h397q43 -1 72 -33t21 -75l-58 -328q-10 -63 -53 -108q-92 -99 -251 -161t-322 -63q-251 1 -393 139t-142 392q0 420 208 662t578 243q174 0 289 -67t166 -169q12 -29 12 -63q-1 -34 -33 -67
q-32 -31 -83 -31t-80 41q-104 143 -307 143q-134 0 -236 -56t-158 -154q-110 -194 -108 -462q-1 -338 323 -338z" />
    <glyph glyph-name="H" unicode="H" horiz-adv-x="1306" 
d="M487 1395q49 0 78 -35t21 -84l-82 -463h586l81 463q11 49 51 84t89 35t77 -35t21 -84l-207 -1174q-8 -49 -50 -84q-42 -34 -91 -34t-78 34t-18 84l86 494h-586l-86 -494q-8 -49 -50 -84q-42 -34 -91 -34t-78 34t-19 84l207 1174q10 49 50 84t89 35z" />
    <glyph glyph-name="I" unicode="I" horiz-adv-x="483" 
d="M487 1395q49 0 78 -35t21 -84l-207 -1174q-8 -49 -50 -84q-42 -34 -91 -34t-78 34t-19 84l207 1174q10 49 50 84t89 35z" />
    <glyph glyph-name="J" unicode="J" horiz-adv-x="882" 
d="M367 188q188 0 231 242l150 846q10 49 50 84t89 35t78 -35t20 -84l-149 -846q-82 -457 -508 -457q-154 0 -234 64q-43 35 -43 83t31 79q32 31 64 31t90 -22q58 -20 131 -20z" />
    <glyph glyph-name="K" unicode="K" horiz-adv-x="1138" 
d="M1165 1395q47 0 81 -34t34 -84t-47 -91l-467 -408l352 -628q12 -23 12 -61t-34 -72q-34 -33 -90 -33q-58 0 -88 55l-326 586l-143 -129l-70 -394q-8 -49 -50 -84q-42 -34 -91 -34t-78 34t-19 84l207 1174q10 49 50 84t89 35t78 -35t21 -84l-84 -469l579 553q37 35 84 35z
" />
    <glyph glyph-name="L" unicode="L" horiz-adv-x="1005" 
d="M885 221q43 -1 69 -27t27 -73q0 -47 -39 -84t-96 -37h-606q-51 0 -79 33t-18 82l205 1161q10 49 50 84t89 35t78 -35t21 -84l-187 -1055h486z" />
    <glyph glyph-name="M" unicode="M" horiz-adv-x="1546" 
d="M806 217q-69 0 -91 57l-221 572l-132 -746q-10 -47 -50 -82q-40 -34 -87 -34t-75 34t-19 82l207 1178q10 49 47 83t97 34t83 -66l295 -778l574 778q47 66 104 66t88 -35t23 -82l-209 -1178q-8 -47 -49 -82q-41 -34 -88 -34t-76 34t-21 82l133 746l-424 -572
q-40 -57 -109 -57z" />
    <glyph glyph-name="N" unicode="N" horiz-adv-x="1275" 
d="M1292 1395q47 0 76 -35t21 -82l-209 -1178q-8 -47 -50 -82q-42 -34 -95 -34q-54 0 -79 51l-448 885l-146 -820q-8 -47 -49 -82q-41 -34 -88 -34t-75 34t-19 82l207 1178q10 49 47 83t92 34t82 -49l453 -879l143 811q8 47 49 82t88 35z" />
    <glyph glyph-name="O" unicode="O" horiz-adv-x="1437" 
d="M930 1194q-106 0 -194 -39t-146 -105q-170 -195 -170 -530q0 -336 332 -336q302 0 436 296q72 160 74 376q0 338 -332 338zM715 -29q-264 0 -404 130q-139 130 -139 386q0 412 207 666t588 254q264 0 403 -130t139 -386q-1 -412 -207 -666t-587 -254z" />
    <glyph glyph-name="P" unicode="P" horiz-adv-x="1130" 
d="M745 750q111 0 179 72t68 165q-1 178 -173 178h-254l-73 -415h253zM483 1378h391q166 0 266 -87t101 -253q1 -225 -149 -363t-365 -138h-272l-76 -435q-8 -49 -50 -84q-42 -34 -91 -34t-78 34t-19 84l203 1158q10 50 50 84t89 34z" />
    <glyph glyph-name="Q" unicode="Q" horiz-adv-x="1437" 
d="M930 1194q-106 0 -194 -39t-146 -105q-170 -195 -170 -530q0 -336 332 -336q302 0 436 296q72 160 74 376q0 338 -332 338zM967 1407q542 1 542 -527q0 -268 -97 -480t-282 -322q42 -8 88 -41q78 -56 78 -111t-34 -90t-83 -35q-48 0 -83 37q-70 74 -144 104t-237 29
q-264 0 -404 130q-139 130 -139 386q0 412 207 666t588 254z" />
    <glyph glyph-name="R" unicode="R" horiz-adv-x="1146" 
d="M836 1165h-271l-76 -428h277q104 0 165 78q60 78 60 166q0 184 -155 184zM483 1378h391q174 0 270 -101t95 -266q0 -165 -109 -307t-284 -161l237 -385q15 -23 15 -64t-35 -76q-35 -34 -95 -34t-89 55l-279 489h-145l-76 -426q-8 -49 -50 -84q-42 -34 -91 -34t-78 34
t-19 84l203 1158q10 50 50 84t89 34z" />
    <glyph glyph-name="S" unicode="S" horiz-adv-x="1173" 
d="M820 1194q-148 0 -214 -53t-66 -123t66 -117t160 -80t189 -73t161 -116q66 -77 66 -190q0 -217 -152 -344t-442 -127q-170 0 -298 82t-173 183q-11 20 -11 55t32 67t80 31q48 0 85 -45q129 -156 324 -156q147 0 230 56t83 155q0 70 -67 118t-161 81t-188 72
q-94 38 -160 114t-67 187q0 184 141 310t404 126q147 0 267 -62t163 -147q12 -26 12 -60t-32 -66t-76 -32t-82 37q-126 117 -274 117z" />
    <glyph glyph-name="T" unicode="T" horiz-adv-x="1159" 
d="M354 1169q-40 0 -64 26t-24 69q0 42 38 78t87 36h864q39 0 64 -26t25 -68q0 -43 -38 -79t-87 -36h-314l-188 -1067q-10 -49 -50 -84q-40 -34 -89 -34t-78 34t-21 84l189 1067h-314z" />
    <glyph glyph-name="U" unicode="U" horiz-adv-x="1267" 
d="M487 1395q49 0 78 -35t21 -84l-146 -825q-6 -33 -6 -76q0 -195 238 -195q276 0 325 271l146 825q10 49 50 84t89 35t78 -35t20 -84l-145 -825q-48 -270 -202 -378q-139 -102 -381 -102q-242 -1 -350 101t-107 262q0 51 10 117l143 825q10 49 50 84t89 35z" />
    <glyph glyph-name="V" unicode="V" horiz-adv-x="1245" 
d="M622 -16q-81 0 -100 75l-256 1186q-4 16 -4 31q0 49 35 84t82 35t79 -28t38 -60l192 -926l520 948q36 66 96 66t95 -35t35 -75t-19 -73l-672 -1153q-40 -75 -121 -75z" />
    <glyph glyph-name="W" unicode="W" horiz-adv-x="1716" 
d="M506 -16q-39 0 -67 24t-31 58l-142 1165q-4 37 -4 47q0 47 35 82t82 35t80 -32t37 -73l94 -837l385 856q39 86 129 86q40 0 68 -24t32 -62l82 -856l395 874q31 68 107 68q47 0 82 -35t35 -72t-15 -65l-557 -1157q-39 -82 -127 -82q-40 0 -68 24t-32 64l-88 839l-383 -839
q-39 -88 -129 -88z" />
    <glyph glyph-name="X" unicode="X" horiz-adv-x="1110" 
d="M161 -16q-52 0 -87 34t-35 79q0 46 33 87l475 535l-264 504q-13 23 -13 63t35 74q35 35 84 35q74 0 105 -64l217 -424l370 447q35 41 87 41t87 -35t35 -81t-30 -83l-445 -504l279 -532q14 -29 14 -68t-35 -74q-35 -34 -95 -34t-91 59l-236 467l-403 -485q-35 -41 -87 -41
z" />
    <glyph glyph-name="Y" unicode="Y" horiz-adv-x="1134" 
d="M381 1395q74 0 102 -60l236 -481l389 492q39 49 92 49t88 -35t35 -81t-31 -83l-495 -567l-92 -527q-11 -51 -49 -85q-38 -33 -91 -33t-81 34t-17 84l92 527l-287 598q-10 20 -10 59t35 74t84 35z" />
    <glyph glyph-name="Z" unicode="Z" horiz-adv-x="1107" 
d="M975 0h-838q-39 0 -65 26t-25 66q0 40 35 80l864 997h-565q-39 0 -63 26t-24 70q0 45 36 79q35 34 88 34h774q40 0 64 -26t24 -64q0 -39 -31 -74l-862 -1001h625q38 0 64 -26q26 -25 26 -69t-39 -81t-88 -37z" />
    <glyph glyph-name="bracketleft" unicode="[" horiz-adv-x="579" 
d="M410 -106q35 0 57 -24t22 -63q-1 -40 -35 -73t-79 -33h-193q-49 0 -76 30t-18 76l283 1598q8 47 43 77t88 29h192q35 1 58 -23q22 -24 22 -64t-35 -72q-35 -33 -80 -33h-84l-249 -1425h84z" />
    <glyph glyph-name="backslash" unicode="\" horiz-adv-x="864" 
d="M303 1427q0 45 33 78t77 33q45 0 73 -22t34 -60l273 -1511q4 -20 4 -35q0 -47 -33 -79t-77 -32q-45 -1 -73 25t-34 63l-273 1506q-4 20 -4 34z" />
    <glyph glyph-name="bracketright" unicode="]" horiz-adv-x="579" 
d="M98 -299q-36 -1 -58 23t-22 64t35 73t80 33h84l252 1425h-84q-35 -1 -59 23t-23 65q0 41 35 73t80 31h192q49 -1 76 -31t19 -75l-281 -1598q-8 -45 -46 -75t-87 -31h-193z" />
    <glyph glyph-name="asciicircum" unicode="^" horiz-adv-x="995" 
d="M314 674q-44 0 -72 28t-27 63q0 36 21 62l419 537q39 51 92 51t74 -51l221 -563q22 -57 -14 -93q-35 -35 -74 -34q-65 0 -88 61l-159 418l-322 -440q-27 -39 -71 -39z" />
    <glyph glyph-name="underscore" unicode="_" horiz-adv-x="862" 
d="M786 -63q34 1 56 -23t22 -63t-34 -71t-76 -32h-729q-35 0 -58 24t-23 62t36 71q35 32 77 32h729z" />
    <glyph glyph-name="grave" unicode="`" horiz-adv-x="786" 
d="M739 1143q31 -49 -13 -90t-85 0l-188 180q-25 20 -21 58t41 69q85 62 125 2z" />
    <glyph glyph-name="a" unicode="a" horiz-adv-x="1011" 
d="M348 340q0 -80 38 -131t103 -51q111 0 187 83t102 226l45 250q-68 49 -153 49q-138 0 -230 -114t-92 -312zM422 -27q-143 -1 -221 95t-78 251q0 279 153 459q154 180 386 180q129 0 206 -73q35 61 107 61q45 0 71 -32t19 -78l-131 -742q-8 -47 -44 -79q-36 -31 -84 -31
t-75 32t-16 78l10 47q-102 -168 -303 -168z" />
    <glyph glyph-name="b" unicode="b" horiz-adv-x="1026" 
d="M724 958q150 0 244 -90q93 -90 93 -266q0 -289 -138 -459t-382 -170q-170 0 -274 81q-103 81 -103 235q0 51 8 94l170 965q8 46 44 78t83 32t75 -33t19 -77l-84 -471q95 81 245 81zM385 309q0 -147 170 -147q131 0 207 117t76 290q0 201 -174 201q-66 0 -121 -27t-78 -51
l-23 -26l-49 -273q-8 -43 -8 -84z" />
    <glyph glyph-name="c" unicode="c" horiz-adv-x="923" 
d="M129 344q0 260 137 437t408 177q118 0 196 -50q124 -80 125 -154q1 -41 -29 -70t-73 -29t-72 35q-73 80 -193 80t-197 -117t-77 -291q0 -201 178 -200q81 0 138 38q60 35 69 44q33 20 67 20t62 -28t29 -71q0 -44 -45 -79q-144 -113 -336 -113q-192 1 -290 95t-97 276z
" />
    <glyph glyph-name="d" unicode="d" horiz-adv-x="1017" 
d="M635 958q70 0 130 -24t91 -57l84 471q8 46 46 78t83 32t73 -33t19 -77l-170 -965q-72 -410 -487 -410q-176 -1 -276 97t-99 278q0 281 139 446q140 164 367 164zM635 770q-131 0 -207 -111t-76 -278q0 -99 46 -159t133 -60t153 58t86 163l49 283q-32 64 -113 93
q-34 11 -71 11z" />
    <glyph glyph-name="e" unicode="e" horiz-adv-x="950" 
d="M653 772q-205 0 -276 -219q408 0 407 141q0 31 -30 55q-31 23 -101 23zM537 172q104 0 211 64q79 47 133 -7q29 -29 29 -71t-42 -76q-136 -109 -336 -109q-402 0 -401 381q-1 266 147 436t388 168q156 0 246 -72t92 -179q0 -229 -310 -292q-137 -28 -344 -28
q-6 -25 -6 -57q0 -158 193 -158z" />
    <glyph glyph-name="f" unicode="f" horiz-adv-x="659" 
d="M256 745q-34 0 -56 23q-22 22 -22 60t34 70t77 32h41l20 110q29 160 140 262q112 101 315 101q35 0 59 -24q24 -23 23 -63q0 -40 -35 -73q-34 -33 -98 -33t-115 -42t-64 -111l-22 -127h137q32 0 54 -23t22 -61t-33 -69q-33 -32 -76 -32h-139l-127 -731
q-33 -188 -149 -307t-320 -119q-34 0 -58 24t-24 64t35 72q35 33 80 33q174 0 213 221l129 743h-41z" />
    <glyph glyph-name="g" unicode="g" horiz-adv-x="1032" 
d="M532 252q145 0 218 106q72 106 71 244q0 170 -178 170q-145 0 -217 -104t-72 -242q0 -174 178 -174zM117 -208q0 92 78 156t270 130q-330 14 -330 319q1 248 143 405t392 156q174 0 270 -82t96 -237q0 -74 -10 -131l-90 -533q-33 -195 -170 -291t-356 -96q-127 0 -210 56
t-83 148zM322 -150q0 -88 114 -88t190 60q75 60 99 180l41 205q-41 -63 -121 -117q-81 -54 -149 -83q-174 -76 -174 -157z" />
    <glyph glyph-name="h" unicode="h" horiz-adv-x="1021" 
d="M813 621q0 137 -151 137q-207 0 -242 -211l-82 -457q-8 -45 -45 -76q-37 -30 -85 -30t-74 28t-17 78l223 1258q8 46 45 78t84 32t73 -32t19 -78l-92 -512q105 122 273 122t236 -72t66 -184q0 -43 -10 -100l-90 -512q-8 -45 -45 -76q-37 -30 -85 -30t-74 30t-17 76l84 471
q6 31 6 60z" />
    <glyph glyph-name="i" unicode="i" horiz-adv-x="436" 
d="M457 1321q111 0 110 -98q0 -72 -40 -119t-117 -47q-111 0 -111 98q0 72 40 119t118 47zM388 946q48 0 74 -32t19 -78l-131 -742q-8 -47 -44 -79q-36 -31 -83 -31t-75 32t-19 78l131 742q8 46 44 78t84 32z" />
    <glyph glyph-name="j" unicode="j" horiz-adv-x="436" 
d="M457 1321q111 0 110 -98q0 -72 -40 -119t-117 -47q-111 0 -111 98q0 72 40 119t118 47zM390 946q46 0 73 -32t18 -78l-149 -852q-25 -137 -135 -231q-111 -93 -254 -93q-37 0 -62 26t-25 68t36 76q36 35 86 35t87 34q36 34 46 85l149 852q8 46 46 78t84 32z" />
    <glyph glyph-name="k" unicode="k" horiz-adv-x="927" 
d="M799 -16q-53 0 -80 45l-240 407l-82 -55l-49 -291q-8 -45 -45 -76q-37 -30 -84 -30t-74 30t-18 76l223 1262q8 46 45 76t84 30t74 -31t18 -75l-127 -723l406 291q39 26 80 26q42 0 72 -31t30 -83t-53 -87l-320 -202l238 -393q16 -27 16 -66t-30 -70q-31 -30 -84 -30z" />
    <glyph glyph-name="l" unicode="l" horiz-adv-x="497" 
d="M479 1458q45 0 73 -33t19 -77l-198 -1115q-4 -23 9 -33t39 -12q27 0 49 -24t22 -66q0 -43 -37 -79t-95 -35q-211 0 -210 196q0 29 6 66l194 1102q8 46 46 78t83 32z" />
    <glyph glyph-name="m" unicode="m" horiz-adv-x="1628" 
d="M1350 958q154 0 226 -74t73 -190q0 -51 -9 -92l-90 -512q-8 -45 -45 -76q-37 -30 -85 -30t-74 28t-17 78l84 471q6 31 6 60q0 137 -151 137q-205 0 -240 -195l-84 -473q-8 -45 -45 -76q-37 -30 -85 -30t-74 28t-17 78l84 471q6 31 6 60q0 137 -151 137q-207 0 -242 -211
l-82 -457q-8 -45 -45 -76q-37 -30 -85 -30t-74 28t-17 78l131 746q8 46 46 78t81 32t69 -26t27 -64l-2 -22q109 125 285 124q113 0 175 -32t105 -101q121 133 316 133z" />
    <glyph glyph-name="n" unicode="n" horiz-adv-x="1021" 
d="M762 958q147 0 215 -70t67 -186q0 -43 -10 -100l-90 -512q-8 -45 -45 -76q-37 -30 -85 -30t-74 30t-17 76l84 471q6 33 6 60q0 137 -151 137q-207 0 -242 -211l-82 -457q-8 -45 -45 -76q-37 -30 -85 -30t-74 28t-17 78l131 746q8 46 46 78t81 32t69 -26t27 -64l-2 -22
q109 124 293 124z" />
    <glyph glyph-name="o" unicode="o" horiz-adv-x="1015" 
d="M537 162q145 0 218 124t72 283q0 201 -182 201q-145 0 -218 -124t-73 -284q1 -200 183 -200zM129 330q0 251 132 439q131 189 435 189q160 0 258 -89t99 -267q0 -251 -127 -432q-136 -196 -440 -196q-160 0 -259 88q-98 89 -98 268z" />
    <glyph glyph-name="p" unicode="p" horiz-adv-x="1052" 
d="M573 162q145 0 219 124q73 124 72 283q0 201 -182 201q-145 0 -218 -124t-73 -284q0 -200 182 -200zM571 -27q-160 0 -227 97l-63 -371q-9 -47 -47 -79t-82 -32t-73 32q-28 32 -20 79l201 1137q8 46 46 78t84 32t72 -32t19 -78q98 123 264 122q344 0 345 -356
q0 -279 -138 -454t-381 -175z" />
    <glyph glyph-name="q" unicode="q" horiz-adv-x="1011" 
d="M462 -27q-150 -1 -242 91q-91 92 -91 266q1 288 149 458t400 170q166 0 258 -80t92 -235q0 -51 -8 -94l-150 -850q-8 -47 -46 -79t-85 -32t-73 31t-17 80l64 358q-101 -84 -251 -84zM803 602q0 80 -45 124t-123 44q-121 0 -202 -110t-81 -277q0 -221 176 -221
q54 0 110 26t83 52l29 26l49 283q4 18 4 53z" />
    <glyph glyph-name="r" unicode="r" horiz-adv-x="663" 
d="M709 956q43 0 67 -26t25 -68q0 -43 -38 -79t-85 -35q-104 0 -174 -62t-88 -166l-76 -426q-8 -45 -45 -78q-37 -32 -85 -32t-74 30t-17 80l131 742q8 46 45 78t84 32t72 -31t18 -96q92 137 240 137z" />
    <glyph glyph-name="s" unicode="s" horiz-adv-x="870" 
d="M567 766q-135 0 -135 -86q0 -72 154 -125q62 -23 126 -51t109 -81q45 -52 45 -124q0 -152 -112 -237t-318 -85q-119 -1 -210 49q-142 77 -142 158q0 41 30 70t66 29t70 -27q92 -82 221 -82q76 0 122 26t46 70q0 70 -218 138q-81 25 -150 88t-68 157q0 152 108 229
q109 77 277 76q104 0 194 -40q137 -62 140 -148q0 -41 -29 -70q-61 -61 -139 0q-78 66 -187 66z" />
    <glyph glyph-name="t" unicode="t" horiz-adv-x="626" 
d="M647 930q33 0 55 -23t21 -61q0 -38 -33 -69q-33 -32 -76 -32h-92l-86 -477q-4 -20 -4 -41t20 -36t52 -15t54 -24t22 -64q0 -41 -34 -73t-95 -31q-117 0 -178 59q-60 59 -60 162q0 27 6 57l86 483h-47q-34 0 -56 23q-22 22 -22 60t34 70t77 32h47l29 172q8 45 46 77
q38 31 83 31q44 0 70 -32t18 -76l-31 -172h94z" />
    <glyph glyph-name="u" unicode="u" 
d="M370 946q46 0 72 -32t19 -78l-84 -478q-6 -35 -6 -59q0 -125 157 -125q182 0 215 184l84 478q8 46 46 78t84 32t73 -32t19 -78l-84 -478q-31 -176 -131 -280t-326 -105q-362 0 -363 279q0 45 11 106l84 478q8 46 46 78t84 32z" />
    <glyph glyph-name="v" unicode="v" horiz-adv-x="925" 
d="M459 -16q-74 0 -90 67l-195 748q-4 12 -4 47q0 36 32 68t77 32t73 -22t33 -52l131 -565l324 576q35 63 91 63t88 -33t32 -69t-19 -70l-459 -723q-40 -67 -114 -67z" />
    <glyph glyph-name="w" unicode="w" horiz-adv-x="1302" 
d="M170 847q0 35 32 67t76 32t74 -28t37 -62l88 -485l223 495q35 80 115 80q43 0 69 -24t29 -56l50 -495l258 516q31 59 87 59t89 -33t33 -71t-17 -66l-416 -723q-39 -70 -114 -69q-37 0 -63 21q-25 21 -29 56l-48 449l-206 -447q-39 -80 -121 -79q-37 0 -62 20t-30 51
l-148 731q-6 25 -6 61z" />
    <glyph glyph-name="x" unicode="x" horiz-adv-x="864" 
d="M47 95q0 46 37 83l299 301l-184 305q-13 16 -13 56t32 74q32 32 88 32t83 -49l154 -252l237 264q35 37 82 37t79 -33t32 -79t-37 -82l-285 -285l180 -311q19 -27 19 -67t-32 -73q-32 -32 -87 -32t-88 55l-151 264q-172 -195 -252 -283q-35 -36 -82 -36t-79 32t-32 79z
" />
    <glyph glyph-name="y" unicode="y" 
d="M285 -150q-1 -88 113 -88t190 60t100 180l39 188q-37 -57 -115 -106t-148 -78t-125 -70q-54 -41 -54 -86zM370 946q46 0 72 -32t19 -78l-68 -379q-6 -33 -6 -60q0 -125 158 -125q184 0 217 185l65 379q8 46 46 78t84 32t73 -32t19 -78l-150 -861q-33 -195 -170 -291
t-356 -96q-127 0 -210 56t-83 148t78 156t268 130q-264 37 -264 272q0 45 10 107l68 379q8 46 46 78t84 32z" />
    <glyph glyph-name="z" unicode="z" horiz-adv-x="837" 
d="M283 745q-33 1 -55 23t-23 60q0 38 34 70t76 32h527q34 0 58 -25t24 -61t-35 -76l-533 -580h371q33 0 55 -24t23 -62q0 -38 -34 -70t-77 -32h-565q-35 0 -57 24t-23 60q0 36 35 72l543 589h-344z" />
    <glyph glyph-name="braceleft" unicode="{" horiz-adv-x="733" 
d="M254 520q-86 0 -86 78q0 35 31 65q31 29 86 29t92 26t49 95t17 203t22 217q25 121 117 200t252 78q36 -1 60 -25t24 -65t-36 -75t-83 -35q-96 0 -113 -97q-12 -63 -21 -173t-23 -186q-14 -77 -66 -153t-125 -96q109 -47 108 -192q0 -90 -45 -244t-45 -193q0 -76 82 -75
q37 0 61 -25t23 -67q0 -42 -38 -75q-38 -34 -91 -34q-135 0 -201 69q-65 69 -65 165t57 259t57 225t-27 82q-28 19 -73 19z" />
    <glyph glyph-name="bar" unicode="|" horiz-adv-x="450" 
d="M513 1655q48 0 76 -33t19 -80l-309 -1757q-8 -47 -44 -80t-86 -33t-77 33t-18 80l311 1757q8 47 44 80t84 33z" />
    <glyph glyph-name="braceright" unicode="}" horiz-adv-x="733" 
d="M780 614q0 -34 -30 -64t-86 -30t-93 -26t-49 -94q-12 -70 -17 -204t-22 -216q-25 -121 -117 -200t-251 -79q-37 0 -61 25q-24 26 -24 66t37 75q36 35 83 35q96 0 112 96q12 63 22 173q9 111 23 187q13 76 65 152t126 96q-109 47 -109 193q0 89 45 243t45 193q0 76 -82 76
q-37 1 -61 25t-23 66q0 42 38 76t91 33q135 -1 201 -69t66 -164q1 -96 -57 -259t-58 -225t28 -82t73 -20t65 -22t20 -56z" />
    <glyph glyph-name="asciitilde" unicode="~" horiz-adv-x="958" 
d="M756 453q-84 0 -194 60t-152 60t-81 -52q-38 -52 -81 -52t-72 28q-29 27 -29 59t15 60q33 66 102 108q70 42 155 42t195 -60t152 -60q41 0 79 51q38 53 82 53q43 0 71 -29t28 -60t-14 -59q-32 -66 -102 -108t-154 -41z" />
    <glyph glyph-name="nbspace" unicode="&#xa0;" horiz-adv-x="602" 
 />
    <glyph glyph-name="exclamdown" unicode="&#xa1;" horiz-adv-x="434" 
d="M387 958q115 0 115 -104q0 -80 -42 -123t-120 -43q-113 0 -113 107q0 163 160 163zM138 -453q-132 0 -105 115l182 815q18 78 102 78t74 -78l-106 -815q-15 -115 -147 -115z" />
    <glyph glyph-name="cent" unicode="&#xa2;" horiz-adv-x="923" 
d="M129 344q0 234 113 404t336 202l14 78q8 41 40 69q32 27 72 27t63 -28q24 -28 15 -68l-14 -80q139 -33 213 -143q14 -23 14 -57q1 -34 -29 -64q-30 -29 -73 -29t-72 35q-73 80 -193 80t-197 -117t-77 -291q0 -201 178 -200q81 0 138 38q60 35 69 44q33 20 67 20t62 -28
t29 -71q0 -44 -45 -79q-111 -86 -256 -106l-14 -80q-8 -41 -40 -69t-73 -28t-63 29t-15 68l15 82q-277 49 -277 362z" />
    <glyph glyph-name="sterling" unicode="&#xa3;" horiz-adv-x="1200" 
d="M846 741q38 1 62 -25t24 -68t-37 -77t-86 -34h-211q2 -14 2 -33q0 -172 -180 -297q62 33 128 33t152 -32t131 -32q88 0 144 80q39 57 91 57q52 1 85 -31t33 -72t-21 -73q-111 -168 -342 -168q-59 0 -176 45t-185 45t-149 -56q-82 -56 -148 8q-32 32 -32 82t55 93t88 73
t69 92q36 63 36 109t-6 77h-121q-37 -1 -62 25q-24 26 -24 68t37 77t86 34h30q-33 111 -32 193q0 203 142 338t398 135q172 0 284 -75t138 -204q4 -20 4 -50q1 -30 -31 -63q-32 -32 -75 -32t-70 24t-35 50q-47 145 -249 145q-121 0 -200 -73t-79 -172t39 -216h293z" />
    <glyph glyph-name="currency" unicode="&#xa4;" horiz-adv-x="958" 
d="M649 825q-82 0 -134 -54t-52 -135t52 -136q52 -56 134 -56t134 56q53 56 53 136q0 81 -52 135t-135 54zM649 246q-115 0 -200 49l-58 -57q-35 -31 -78 -31t-73 31q-30 32 -31 76q0 44 33 77l57 55q-47 80 -47 189t53 192l-61 54q-35 31 -35 78t31 77q32 30 74 31
q42 0 77 -31l62 -61q81 49 195 49t198 -49l61 61q35 31 78 31t74 -31q31 -32 31 -78t-35 -77l-62 -54q53 -85 53 -193t-47 -188l58 -55q33 -33 33 -78t-31 -75t-74 -31q-43 0 -78 31l-57 57q-86 -49 -201 -49z" />
    <glyph glyph-name="yen" unicode="&#xa5;" horiz-adv-x="1134" 
d="M948 229h-221l-22 -127q-11 -51 -49 -85q-38 -33 -91 -33t-81 34t-17 84l22 127h-221q-36 0 -58 24q-22 25 -22 63t35 70t78 32h221l15 84h-222q-33 0 -57 24t-22 62q0 38 34 70t78 32h180l-256 537q-10 20 -10 59t35 74t84 35q74 0 102 -60l236 -481l389 492
q39 49 92 49t88 -35t35 -81t-31 -83l-442 -506h178q36 0 58 -24t22 -62t-35 -70t-78 -32h-221l-14 -84h221q33 0 55 -24t23 -62q0 -38 -34 -71q-34 -32 -77 -32z" />
    <glyph glyph-name="brokenbar" unicode="&#xa6;" horiz-adv-x="450" 
d="M168 -328q-47 0 -75 33t-19 80l125 702q8 47 46 80t85 33q46 0 74 -34t20 -79l-125 -702q-8 -47 -46 -80t-85 -33zM354 729q-46 0 -74 33t-20 80l125 700q8 47 46 80t85 33q48 0 74 -34t18 -79l-123 -700q-8 -47 -46 -80t-85 -33z" />
    <glyph glyph-name="section" unicode="&#xa7;" horiz-adv-x="1013" 
d="M143 522q0 180 168 301q-57 74 -57 183q0 168 128 284t366 117q135 0 236 -55t155 -127q23 -31 23 -70t-32 -70q-30 -31 -72 -31t-77 36q-111 111 -260 110q-117 0 -178 -50t-61 -118t58 -114t141 -78q83 -33 166 -72t141 -114t59 -181q0 -180 -168 -301q55 -76 55 -182
q0 -166 -131 -284t-363 -118q-123 0 -229 52t-162 131q-51 78 8 139q31 31 74 31t80 -37q100 -109 256 -109q117 0 178 50t61 118t-58 114t-140 79q-82 34 -165 72t-141 113t-59 181zM823 422q0 66 -48 112t-106 70t-133 54q-75 28 -104 44q-68 -68 -68 -131t49 -109
q48 -46 106 -71t133 -53t104 -45q67 63 67 129z" />
    <glyph glyph-name="dieresis" unicode="&#xa8;" horiz-adv-x="673" 
d="M711 1067q-86 0 -86 82q0 131 123 131q86 0 86 -82q0 -63 -32 -97t-91 -34zM340 1067q-86 0 -86 82q0 131 123 131q86 0 86 -82q0 -63 -32 -97t-91 -34z" />
    <glyph glyph-name="copyright" unicode="&#xa9;" horiz-adv-x="1619" 
d="M952 115q279 0 417 140t138 433t-138 434t-417 142q-557 0 -557 -574t557 -575zM240 689q0 357 185 537t529 181q344 0 526 -179q182 -178 183 -538q0 -360 -182 -539q-183 -179 -527 -179t-529 180t-185 537zM956 317q-158 -1 -246 91t-87 282q0 190 88 282t245 93
q98 0 165 -38q104 -59 104 -118q1 -25 -17 -42t-44 -17t-44 20q-66 72 -163 72t-148 -55t-51 -195t52 -196t152 -56t173 64q16 16 41 16t42 -17t17 -39t-10 -36q-33 -47 -107 -79t-162 -32z" />
    <glyph glyph-name="ordfeminine" unicode="&#xaa;" horiz-adv-x="729" 
d="M387 987q0 -53 26 -88t85 -35t111 56t71 153l31 170q-47 35 -105 35q-92 0 -156 -78t-63 -213zM698 745q-33 0 -51 22t-10 54l6 31q-72 -113 -205 -113q-96 0 -149 65t-53 171q0 188 104 310t260 122q86 0 141 -51q23 43 63 43q40 -1 57 -23t13 -53l-88 -502
q-6 -33 -30 -55t-58 -21zM702 639q26 1 44 -17t18 -49t-27 -57t-61 -24h-453q-27 0 -44 17t-17 48t26 57t62 25h452z" />
    <glyph glyph-name="guillemotleft" unicode="&#xab;" horiz-adv-x="1067" 
d="M565 429q0 28 33 60l381 371q23 23 57 23t57 -24q23 -25 23 -59t-31 -61l-346 -313l234 -317q12 -18 12 -47q1 -29 -23 -53q-24 -23 -62 -23t-62 37l-254 352q-19 26 -19 54zM166 429q0 28 33 60l381 371q24 23 58 23t56 -24q22 -25 23 -59q0 -34 -31 -61l-346 -313
l233 -317q13 -18 13 -47t-23 -53q-23 -23 -61 -23t-64 37l-254 352q-18 26 -18 54z" />
    <glyph glyph-name="logicalnot" unicode="&#xac;" horiz-adv-x="1163" 
d="M250 479q-35 0 -59 25q-23 26 -23 64t37 73t80 35h827q40 0 66 -31t18 -72l-86 -487q-8 -41 -43 -72q-35 -30 -76 -30t-67 30t-19 72l70 393h-725z" />
    <glyph glyph-name="registered" unicode="&#xae;" horiz-adv-x="802" 
d="M528 1108h76q49 0 49 47t-49 47h-76v-94zM528 1055v-90q0 -11 -9 -21t-21 -10t-22 9q-9 9 -9 22v264q0 27 27 26h118q45 1 74 -29t29 -73t-24 -71t-58 -27l65 -74q6 -8 7 -18q0 -29 -29 -29q-16 0 -25 12l-80 109h-43zM586 842q233 0 233 254t-233 254t-233 -254
t233 -254zM584 1407q305 0 305 -312t-305 -313q-143 0 -223 79q-79 79 -78 235q0 156 79 234t222 77z" />
    <glyph glyph-name="macron" unicode="&#xaf;" horiz-adv-x="813" 
d="M801 1229q29 1 47 -19t18 -52t-28 -58t-64 -27h-354q-29 -1 -47 19q-19 20 -19 52t29 58t63 27h355z" />
    <glyph glyph-name="degree" unicode="&#xb0;" horiz-adv-x="759" 
d="M583 981q65 0 105 43t41 103q0 59 -41 103t-105 44q-63 0 -105 -43t-42 -103t41 -104q41 -43 106 -43zM862 1126q0 -118 -80 -198t-200 -80t-199 81q-80 81 -80 197t80 199q80 82 200 82q119 0 199 -82t80 -199z" />
    <glyph glyph-name="plusminus" unicode="&#xb1;" horiz-adv-x="929" 
d="M946 102q0 -38 -34 -70t-76 -32h-742q-36 0 -58 24t-22 62t35 71q35 32 78 31h741q33 0 56 -23q22 -24 22 -63zM969 758q33 0 55 -24t23 -62q0 -39 -34 -71t-77 -32h-274l-44 -245q-8 -41 -40 -70t-74 -29q-41 0 -66 30t-16 69l43 245h-270q-35 0 -58 24q-23 25 -23 63
t34 70t79 32h273l43 248q8 42 42 70q35 28 75 28t64 -30t15 -68l-43 -248h273z" />
    <glyph glyph-name="twosuperior" unicode="&#xb2;" horiz-adv-x="591" 
d="M534 1495q116 0 170 -46q56 -46 56 -122t-55 -131t-123 -80q-180 -66 -191 -115h256q25 0 40 -16t15 -43q0 -28 -24 -50t-55 -22h-342q-27 0 -45 18t-17 46q8 78 50 133q41 55 97 83t111 50t92 48t37 61q0 53 -78 53q-45 0 -118 -57q-18 -15 -43 -15t-44 20t-19 48t32 59
q82 78 198 78z" />
    <glyph glyph-name="threesuperior" unicode="&#xb3;" horiz-adv-x="565" 
d="M707 1098q0 -104 -73 -172t-208 -68t-203 105q-10 19 -10 41t17 40t47 18t49 -22q47 -53 111 -53t92 28t28 68q0 63 -65 64h-54q-20 0 -35 14q-14 14 -14 40t35 59l104 92h-163q-25 0 -40 16t-15 43t23 49q24 22 54 23h289q25 -1 40 -17t15 -45t-31 -53l-122 -108
q129 -14 129 -162z" />
    <glyph glyph-name="acute" unicode="&#xb4;" horiz-adv-x="786" 
d="M526 1053q-53 -41 -95 1t7 91l209 221q25 29 62 28t63 -34q59 -72 -12 -127z" />
    <glyph glyph-name="mu" unicode="&#xb5;" 
d="M371 299q0 -125 157 -125q182 0 215 184l84 478q8 46 45 78t84 32t74 -33t19 -77l-84 -478q-31 -176 -131 -280t-326 -105q-62 1 -116 19t-73 45l-61 -346q-8 -47 -45 -79t-84 -32t-74 32t-18 79l203 1145q8 46 46 78t83 32t73 -32t19 -78l-84 -478q-6 -37 -6 -59z" />
    <glyph glyph-name="paragraph" unicode="&#xb6;" horiz-adv-x="1130" 
d="M940 1169h-76l-125 -706q-37 -209 -166 -326q102 33 164 133q61 100 94 283zM1237 1378q39 0 63 -26t23 -68q0 -43 -38 -79t-85 -36h-26l-99 -557q-119 -680 -721 -680q-57 0 -127 14q-145 30 -145 117q0 47 30 77t61 30t83 -17t86 -18q184 0 236 299l28 168h-45
q-143 0 -234 95t-91 237q0 180 138 312t324 132h539z" />
    <glyph glyph-name="periodcentered" unicode="&#xb7;" horiz-adv-x="460" 
d="M315 481q-115 0 -114 105q0 80 42 123t119 43q113 0 113 -107q0 -164 -160 -164z" />
    <glyph glyph-name="cedilla" unicode="&#xb8;" horiz-adv-x="669" 
d="M494 -269q0 -89 -66 -151t-176 -63q-110 0 -168 43q-25 18 -25 43q-1 25 15 40t34 15t29 -6q51 -29 121 -29q119 0 119 109q0 70 -98 69l-93 -12q-43 0 -34 45l28 166h103l-29 -109q128 26 195 -32q45 -39 45 -128z" />
    <glyph glyph-name="onesuperior" unicode="&#xb9;" horiz-adv-x="466" 
d="M449 864q-31 0 -51 23q-19 23 -13 53l61 346l-73 -41q-16 -8 -37 -8q-20 0 -42 20q-22 19 -22 55t41 58l201 107q26 12 50 12t42 -23t15 -53l-84 -473q-5 -32 -31 -54t-57 -22z" />
    <glyph glyph-name="ordmasculine" unicode="&#xba;" horiz-adv-x="741" 
d="M500 739q-121 1 -187 61t-65 179q0 178 91 303t277 125q121 0 187 -60t65 -180q0 -178 -91 -303t-277 -125zM522 868q100 0 147 82q46 82 46 195q0 133 -121 133q-100 0 -146 -82t-47 -195q0 -133 121 -133zM702 639q26 1 44 -17t18 -49t-27 -57t-61 -24h-453
q-27 0 -44 17t-17 48t26 57t62 25h452z" />
    <glyph glyph-name="guillemotright" unicode="&#xbb;" horiz-adv-x="1067" 
d="M651 438q0 -26 -33 -59l-380 -371q-23 -22 -57 -22q-33 0 -57 24t-24 58q0 35 31 61l346 313l-233 318q-12 18 -12 47t23 53t61 23q38 0 63 -37l254 -352q18 -30 18 -56zM1051 438q0 -26 -33 -59l-381 -371q-23 -22 -57 -22t-58 24q-22 24 -22 58q0 35 30 61l347 313
l-234 318q-12 18 -12 47q1 29 23 53t61 23q39 0 63 -37l254 -352q19 -30 19 -56z" />
    <glyph glyph-name="onequarter" unicode="&#xbc;" horiz-adv-x="1048" 
d="M962 1395q42 0 68 -26q26 -27 25 -55q0 -28 -15 -52l-696 -1229q-27 -49 -70 -49q-42 0 -68 26t-26 55q0 30 13 50l698 1231q29 49 71 49zM424 776q-31 0 -50 23t-14 53l62 346l-74 -41q-16 -8 -37 -8q-21 -1 -43 21t-20 56q0 34 41 56l200 107q25 12 49 12t44 -23
q18 -23 14 -53l-84 -473q-4 -32 -30 -54t-58 -22zM705 238h94l24 137zM981 238q25 0 40 -16t15 -44t-24 -50t-54 -22h-30l-8 -47q-6 -33 -31 -55t-58 -20q-33 0 -51 22t-12 53l8 47h-203q-25 0 -41 18t-16 42q0 25 23 49l327 358q35 35 69 35t53 -22t13 -54l-51 -294h31z
" />
    <glyph glyph-name="onehalf" unicode="&#xbd;" horiz-adv-x="1122" 
d="M918 625q116 0 172 -46t55 -122q0 -76 -55 -131t-123 -80q-180 -66 -191 -115h256q25 0 40 -16t15 -43q-1 -28 -25 -50t-54 -22h-342q-27 0 -45 18t-17 45q8 77 50 133t98 84t110 50q55 22 92 48t37 60q0 53 -78 54q-45 0 -118 -58q-18 -14 -43 -14t-44 19q-20 19 -20 48
t33 60q81 78 197 78zM432 776q-31 0 -50 23t-13 53l61 346l-74 -41q-16 -8 -36 -8q-20 -1 -42 21t-22 56t41 56l201 107q26 12 50 12t42 -23t14 -53l-84 -473q-4 -32 -30 -54t-58 -22zM970 1395q42 0 68 -26q26 -27 25 -55q0 -28 -14 -52l-697 -1229q-27 -49 -70 -49
q-42 0 -68 26t-26 55q0 30 13 50l698 1231q29 49 71 49z" />
    <glyph glyph-name="threequarters" unicode="&#xbe;" horiz-adv-x="1142" 
d="M821 238h94l25 137zM1098 238q25 0 40 -16t15 -44t-24 -50t-54 -22h-31l-8 -47q-6 -33 -30 -55t-58 -20q-33 0 -51 22t-12 53l8 47h-203q-25 0 -41 18t-16 42q0 25 22 49l328 358q35 35 69 35t53 -22t13 -54l-51 -294h31zM692 1010q0 -104 -72 -172t-208 -68
q-135 0 -203 104q-10 18 -10 41t17 41t47 18t48 -22q47 -53 111 -53t93 28q28 28 28 68q0 63 -66 64h-53q-20 0 -35 14q-14 14 -14 40t35 58l104 93h-164q-25 0 -40 16t-15 43q-1 27 23 49t55 23h289q26 -1 40 -17t14 -44t-30 -54l-123 -109q129 -14 129 -161zM1076 1395
q42 0 68 -26q46 -46 11 -107l-696 -1229q-27 -49 -70 -49t-69 26t-25 55q0 30 12 50l699 1231q28 49 70 49z" />
    <glyph glyph-name="questiondown" unicode="&#xbf;" horiz-adv-x="927" 
d="M678 958q115 0 115 -104q0 -80 -42 -123t-120 -43q-113 0 -113 107q0 163 160 163zM592 592q53 0 95 -48t42 -128t-50 -146t-122 -108q-73 -42 -145 -82q-172 -93 -172 -211q0 -63 47 -98t134 -35t147 44t72 112t50 98q39 30 83 30t71 -28t26 -68q0 -166 -133 -278
t-331 -111q-198 0 -296 77t-98 204t50 212t121 132t142 83q71 37 121 71t50 64t-10 60t-11 62q0 32 32 62t85 30z" />
    <glyph glyph-name="Agrave" unicode="&#xc0;" horiz-adv-x="1277" 
d="M1063 1569q31 -49 -13 -90t-85 0l-189 180q-25 20 -20 58q4 38 41 69q84 60 125 2zM180 -16q-59 0 -92 34t-33 73q0 40 19 71l690 1157q43 76 121 76q41 0 65 -24t31 -50l274 -1186q5 -12 5 -47t-35 -70t-82 -34q-90 0 -113 86l-69 288h-506l-181 -315q-35 -59 -94 -59z
M920 575l-97 431l-250 -431h347z" />
    <glyph glyph-name="Aacute" unicode="&#xc1;" horiz-adv-x="1277" 
d="M846 1479q-53 -41 -95 1t7 91l209 221q25 29 61 28t64 -34q59 -72 -13 -127zM180 -16q-59 0 -92 34t-33 73q0 40 19 71l690 1157q43 76 121 76q41 0 65 -24t31 -50l274 -1186q5 -12 5 -47t-35 -70t-82 -34q-90 0 -113 86l-69 288h-506l-181 -315q-35 -59 -94 -59z
M920 575l-97 431l-250 -431h347z" />
    <glyph glyph-name="Acircumflex" unicode="&#xc2;" horiz-adv-x="1277" 
d="M949 1753q24 0 46 -16l160 -129q31 -25 31 -61q0 -35 -24 -59t-54 -24t-51 17l-125 102l-168 -104q-24 -15 -54 -15t-53 24t-23 64t44 64l215 119q32 18 56 18zM180 -16q-59 0 -92 34t-33 73q0 40 19 71l690 1157q43 76 121 76q41 0 65 -24t31 -50l274 -1186q5 -12 5 -47
t-35 -70t-82 -34q-90 0 -113 86l-69 288h-506l-181 -315q-35 -59 -94 -59zM920 575l-97 431l-250 -431h347z" />
    <glyph glyph-name="Atilde" unicode="&#xc3;" horiz-adv-x="1277" 
d="M801 1714q61 0 140 -34t107 -35t58 33t64 34t58 -22t24 -53q0 -30 -13 -50q-57 -94 -195 -94q-63 0 -142 35q-78 35 -106 35t-58 -34t-64 -34t-59 23q-23 22 -23 52t12 50q57 94 197 94zM180 -16q-59 0 -92 34t-33 73q0 40 19 71l690 1157q43 76 121 76q41 0 65 -24
t31 -50l274 -1186q5 -12 5 -47t-35 -70t-82 -34q-90 0 -113 86l-69 288h-506l-181 -315q-35 -59 -94 -59zM920 575l-97 431l-250 -431h347z" />
    <glyph glyph-name="Adieresis" unicode="&#xc4;" horiz-adv-x="1277" 
d="M1212 1647q0 -131 -122 -131q-86 0 -86 81q0 131 122 132q86 0 86 -82zM842 1647q0 -131 -123 -131q-86 0 -86 81q0 131 123 132q86 0 86 -82zM180 -16q-59 0 -92 34t-33 73q0 40 19 71l690 1157q43 76 121 76q41 0 65 -24t31 -50l274 -1186q5 -12 5 -47t-35 -70t-82 -34
q-90 0 -113 86l-69 288h-506l-181 -315q-35 -59 -94 -59zM920 575l-97 431l-250 -431h347z" />
    <glyph glyph-name="Aring" unicode="&#xc5;" horiz-adv-x="1277" 
d="M963 1845q184 0 184 -153q0 -111 -68 -182t-188 -70q-184 0 -184 153q0 111 67 182q68 70 189 70zM909 1542q59 0 91 36t32 95q0 70 -88 70q-59 0 -91 -36t-32 -95q0 -70 88 -70zM180 -16q-59 0 -92 34t-33 73q0 40 19 71l690 1157q43 76 121 76q41 0 65 -24t31 -50
l274 -1186q5 -12 5 -47t-35 -70t-82 -34q-90 0 -113 86l-69 288h-506l-181 -315q-35 -59 -94 -59zM920 575l-97 431l-250 -431h347z" />
    <glyph glyph-name="AE" unicode="&#xc6;" horiz-adv-x="1769" 
d="M1602 0h-662q-49 0 -78 33t-20 82l47 264h-342l-281 -348q-39 -47 -88 -47t-82 32t-33 76q0 43 31 78l971 1155q45 53 121 53h637q39 0 65 -26t25 -69q0 -44 -39 -81t-88 -37h-520l-66 -366h387q39 0 64 -26q25 -27 25 -69t-39 -78q-38 -36 -87 -36h-387l-65 -377h542
q39 0 64 -26q25 -25 25 -69t-39 -81t-88 -37zM715 596h213l59 340z" />
    <glyph glyph-name="Ccedilla" unicode="&#xc7;" horiz-adv-x="1310" 
d="M172 502q0 420 208 662t578 243q174 0 289 -67t166 -169q12 -29 12 -63q-1 -34 -33 -67q-32 -31 -83 -31t-80 41q-104 143 -307 143q-134 0 -236 -56t-158 -154q-110 -194 -108 -462q0 -336 323 -336q188 0 340 133q101 85 172 14q33 -32 33 -76t-33 -81
q-90 -96 -236 -150t-312 -55h-25l-20 -80q127 26 194 -32q45 -39 45 -128t-65 -152q-66 -62 -176 -62t-168 43q-25 18 -25 43t16 40q17 15 33 15t29 -6q51 -29 121 -29q119 0 118 109q0 70 -98 69l-92 -12q-43 0 -35 45l25 148q-196 30 -304 164t-108 356z" />
    <glyph glyph-name="Egrave" unicode="&#xc8;" horiz-adv-x="1071" 
d="M983 1569q31 -49 -13 -90t-85 0l-189 180q-25 20 -20 58q4 38 41 69q85 62 125 2zM889 799q39 0 63 -26q24 -27 25 -69q0 -42 -38 -78t-87 -36h-387l-66 -377h543q39 0 64 -26q24 -27 24 -71t-38 -80t-89 -36h-661q-49 0 -78 35t-19 84l201 1141q10 50 50 84t89 34h639
q39 0 65 -26q25 -26 25 -69q0 -44 -38 -81t-89 -37h-520l-65 -366h387z" />
    <glyph glyph-name="Eacute" unicode="&#xc9;" horiz-adv-x="1071" 
d="M811 1479q-53 -41 -95 1t7 91l209 221q26 29 62 28t63 -34q59 -72 -13 -127zM889 799q39 0 63 -26q24 -27 25 -69q0 -42 -38 -78t-87 -36h-387l-66 -377h543q39 0 64 -26q24 -27 24 -71t-38 -80t-89 -36h-661q-49 0 -78 35t-19 84l201 1141q10 50 50 84t89 34h639
q39 0 65 -26q25 -26 25 -69q0 -44 -38 -81t-89 -37h-520l-65 -366h387z" />
    <glyph glyph-name="Ecircumflex" unicode="&#xca;" horiz-adv-x="1071" 
d="M882 1753q24 0 46 -16l159 -129q31 -25 31 -61q0 -35 -22 -59t-55 -24q-32 0 -52 17l-125 102l-168 -104q-24 -15 -54 -15t-52 24t-23 64q0 40 43 64l215 119q33 18 57 18zM889 799q39 0 63 -26q24 -27 25 -69q0 -42 -38 -78t-87 -36h-387l-66 -377h543q39 0 64 -26
q24 -27 24 -71t-38 -80t-89 -36h-661q-49 0 -78 35t-19 84l201 1141q10 50 50 84t89 34h639q39 0 65 -26q25 -26 25 -69q0 -44 -38 -81t-89 -37h-520l-65 -366h387z" />
    <glyph glyph-name="Edieresis" unicode="&#xcb;" horiz-adv-x="1071" 
d="M1143 1647q0 -131 -123 -131q-86 0 -86 81q0 131 123 132q86 0 86 -82zM772 1647q0 -131 -123 -131q-86 0 -86 81q0 131 123 132q86 0 86 -82zM889 799q39 0 63 -26q24 -27 25 -69q0 -42 -38 -78t-87 -36h-387l-66 -377h543q39 0 64 -26q24 -27 24 -71t-38 -80t-89 -36
h-661q-49 0 -78 35t-19 84l201 1141q10 50 50 84t89 34h639q39 0 65 -26q25 -26 25 -69q0 -44 -38 -81t-89 -37h-520l-65 -366h387z" />
    <glyph glyph-name="Igrave" unicode="&#xcc;" horiz-adv-x="483" 
d="M666 1569q30 -49 -14 -90t-85 0l-188 180q-25 20 -21 58t41 69q85 62 125 2zM487 1395q49 0 78 -35t21 -84l-207 -1174q-8 -49 -50 -84q-42 -34 -91 -34t-78 34t-19 84l207 1174q10 49 50 84t89 35z" />
    <glyph glyph-name="Iacute" unicode="&#xcd;" horiz-adv-x="483" 
d="M487 1479q-53 -41 -95 1t7 91l209 221q25 29 62 28t63 -34q59 -72 -12 -127zM487 1395q49 0 78 -35t21 -84l-207 -1174q-8 -49 -50 -84q-42 -34 -91 -34t-78 34t-19 84l207 1174q10 49 50 84t89 35z" />
    <glyph glyph-name="Icircumflex" unicode="&#xce;" horiz-adv-x="483" 
d="M554 1753q24 0 46 -16l160 -129q31 -25 31 -61q0 -35 -23 -59q-22 -24 -54 -24t-52 17l-125 102l-168 -104q-21 -15 -53 -15t-54 24t-22 64t43 64l215 119q32 18 56 18zM487 1395q49 0 78 -35t21 -84l-207 -1174q-8 -49 -50 -84q-42 -34 -91 -34t-78 34t-19 84l207 1174
q10 49 50 84t89 35z" />
    <glyph glyph-name="Idieresis" unicode="&#xcf;" horiz-adv-x="483" 
d="M823 1647q0 -131 -123 -131q-86 0 -86 81q0 131 123 132q86 0 86 -82zM453 1647q0 -131 -123 -131q-86 0 -86 81q0 131 123 132q86 0 86 -82zM487 1395q49 0 78 -35t21 -84l-207 -1174q-8 -49 -50 -84q-42 -34 -91 -34t-78 34t-19 84l207 1174q10 49 50 84t89 35z" />
    <glyph glyph-name="Eth" unicode="&#xd0;" horiz-adv-x="1300" 
d="M844 807q34 0 56 -24q22 -25 22 -63t-34 -70t-77 -32h-291l-71 -405h157q250 0 384 156t134 446q0 184 -89 267t-261 83h-158l-63 -358h291zM535 1378h276q271 0 417 -134t146 -410q0 -402 -208 -618t-582 -216h-293q-49 0 -78 35t-18 84l88 499h-43q-35 0 -58 24
q-22 24 -22 62t34 71q34 32 78 32h43l80 453q11 50 51 84t89 34z" />
    <glyph glyph-name="Ntilde" unicode="&#xd1;" horiz-adv-x="1275" 
d="M799 1714q61 0 140 -34t107 -35t58 33t66 34q34 0 57 -22t23 -53q0 -30 -13 -50q-57 -94 -195 -94q-63 0 -142 35q-78 35 -106 35t-58 -34t-66 -34t-58 23q-22 22 -22 52t12 50q57 94 197 94zM1292 1395q47 0 76 -35t21 -82l-209 -1178q-8 -47 -50 -82q-42 -34 -95 -34
q-54 0 -79 51l-448 885l-146 -820q-8 -47 -49 -82q-41 -34 -88 -34t-75 34t-19 82l207 1178q10 49 47 83t92 34t82 -49l453 -879l143 811q8 47 49 82t88 35z" />
    <glyph glyph-name="Ograve" unicode="&#xd2;" horiz-adv-x="1437" 
d="M1143 1569q30 -49 -14 -90t-85 0l-188 180q-25 20 -20 58q4 38 41 69q85 61 124 2zM930 1194q-106 0 -194 -39t-146 -105q-170 -195 -170 -530q0 -336 332 -336q302 0 436 296q72 160 74 376q0 338 -332 338zM715 -29q-264 0 -404 130q-139 130 -139 386q0 412 207 666
t588 254q264 0 403 -130t139 -386q-1 -412 -207 -666t-587 -254z" />
    <glyph glyph-name="Oacute" unicode="&#xd3;" horiz-adv-x="1437" 
d="M961 1479q-54 -41 -96 1t7 91l209 221q25 29 62 28t63 -34q59 -72 -12 -127zM930 1194q-106 0 -194 -39t-146 -105q-170 -195 -170 -530q0 -336 332 -336q302 0 436 296q72 160 74 376q0 338 -332 338zM715 -29q-264 0 -404 130q-139 130 -139 386q0 412 207 666t588 254
q264 0 403 -130t139 -386q-1 -412 -207 -666t-587 -254z" />
    <glyph glyph-name="Ocircumflex" unicode="&#xd4;" horiz-adv-x="1437" 
d="M1027 1753q24 0 46 -16l160 -129q31 -25 31 -61q0 -35 -24 -59t-54 -24t-51 17l-125 102l-168 -104q-24 -15 -54 -15t-53 24t-23 64t44 64l215 119q32 18 56 18zM930 1194q-106 0 -194 -39t-146 -105q-170 -195 -170 -530q0 -336 332 -336q302 0 436 296q72 160 74 376
q0 338 -332 338zM715 -29q-264 0 -404 130q-139 130 -139 386q0 412 207 666t588 254q264 0 403 -130t139 -386q-1 -412 -207 -666t-587 -254z" />
    <glyph glyph-name="Otilde" unicode="&#xd5;" horiz-adv-x="1437" 
d="M881 1714q61 0 140 -34t107 -35t58 33t66 34q34 0 57 -22t23 -53q0 -30 -13 -50q-57 -94 -195 -94q-63 0 -142 35q-78 35 -106 35t-58 -34t-66 -34t-58 23q-22 22 -22 52t12 50q57 94 197 94zM930 1194q-106 0 -194 -39t-146 -105q-170 -195 -170 -530q0 -336 332 -336
q302 0 436 296q72 160 74 376q0 338 -332 338zM715 -29q-264 0 -404 130q-139 130 -139 386q0 412 207 666t588 254q264 0 403 -130t139 -386q-1 -412 -207 -666t-587 -254z" />
    <glyph glyph-name="Odieresis" unicode="&#xd6;" horiz-adv-x="1437" 
d="M1292 1647q0 -131 -123 -131q-86 0 -86 81q0 131 123 132q86 0 86 -82zM922 1647q0 -131 -123 -131q-86 0 -86 81q0 131 123 132q86 0 86 -82zM930 1194q-106 0 -194 -39t-146 -105q-170 -195 -170 -530q0 -336 332 -336q302 0 436 296q72 160 74 376q0 338 -332 338z
M715 -29q-264 0 -404 130q-139 130 -139 386q0 412 207 666t588 254q264 0 403 -130t139 -386q-1 -412 -207 -666t-587 -254z" />
    <glyph glyph-name="multiply" unicode="&#xd7;" horiz-adv-x="761" 
d="M889 710q0 -44 -39 -75l-248 -191l170 -198q23 -29 23 -67q0 -37 -30 -67t-74 -30t-70 33l-175 198l-243 -202q-33 -29 -73 -29t-70 30t-30 76t46 78l248 191l-174 192q-25 25 -25 66t30 71q31 30 73 29q42 0 67 -29l184 -198l244 203q29 25 67 25t69 -31q30 -31 30 -75z
" />
    <glyph glyph-name="Oslash" unicode="&#xd8;" horiz-adv-x="1437" 
d="M734 184q231 0 358 144q167 193 170 528q0 61 -13 115l-719 -725q80 -62 204 -62zM950 1194q-234 0 -360 -143q-170 -197 -170 -529q0 -66 12 -121l721 729q-77 64 -203 64zM715 -29q-229 0 -363 95l-86 -86q-34 -33 -70 -33q-36 1 -63 27t-27 65t33 67l94 97
q-61 113 -61 284q0 412 207 666t588 254q229 0 364 -98l82 84q33 33 70 33t63 -28q26 -26 27 -65q0 -39 -33 -67l-92 -92q61 -113 61 -283q-1 -412 -207 -666t-587 -254z" />
    <glyph glyph-name="Ugrave" unicode="&#xd9;" horiz-adv-x="1267" 
d="M1040 1569q31 -49 -13 -90t-85 0l-188 180q-25 20 -21 58t41 69q85 62 125 2zM487 1395q49 0 78 -35t21 -84l-146 -825q-6 -33 -6 -76q0 -195 238 -195q276 0 325 271l146 825q10 49 50 84t89 35t78 -35t20 -84l-145 -825q-48 -270 -202 -378q-139 -102 -381 -102
q-242 -1 -350 101t-107 262q0 51 10 117l143 825q10 49 50 84t89 35z" />
    <glyph glyph-name="Uacute" unicode="&#xda;" horiz-adv-x="1267" 
d="M909 1479q-53 -41 -95 1t7 91l209 221q25 29 62 28t63 -34q59 -72 -12 -127zM487 1395q49 0 78 -35t21 -84l-146 -825q-6 -33 -6 -76q0 -195 238 -195q276 0 325 271l146 825q10 49 50 84t89 35t78 -35t20 -84l-145 -825q-48 -270 -202 -378q-139 -102 -381 -102
q-242 -1 -350 101t-107 262q0 51 10 117l143 825q10 49 50 84t89 35z" />
    <glyph glyph-name="Ucircumflex" unicode="&#xdb;" horiz-adv-x="1267" 
d="M958 1753q22 0 46 -16l159 -129q31 -25 31 -61q0 -35 -24 -59t-54 -24t-51 17l-125 102l-168 -104q-24 -15 -54 -15t-52 24t-23 64q0 40 43 64l215 119q35 18 57 18zM487 1395q49 0 78 -35t21 -84l-146 -825q-6 -33 -6 -76q0 -195 238 -195q276 0 325 271l146 825
q10 49 50 84t89 35t78 -35t20 -84l-145 -825q-48 -270 -202 -378q-139 -102 -381 -102q-242 -1 -350 101t-107 262q0 51 10 117l143 825q10 49 50 84t89 35z" />
    <glyph glyph-name="Udieresis" unicode="&#xdc;" horiz-adv-x="1267" 
d="M1094 1516q-86 0 -86 81q0 131 122 132q86 0 87 -82q0 -131 -123 -131zM846 1647q0 -131 -123 -131q-86 0 -86 81q0 131 123 132q86 0 86 -82zM487 1395q49 0 78 -35t21 -84l-146 -825q-6 -33 -6 -76q0 -195 238 -195q276 0 325 271l146 825q10 49 50 84t89 35t78 -35
t20 -84l-145 -825q-48 -270 -202 -378q-139 -102 -381 -102q-242 -1 -350 101t-107 262q0 51 10 117l143 825q10 49 50 84t89 35z" />
    <glyph glyph-name="Yacute" unicode="&#xdd;" horiz-adv-x="1134" 
d="M834 1479q-54 -41 -96 1t7 91l209 221q25 29 62 28t63 -34q59 -72 -12 -127zM381 1395q74 0 102 -60l236 -481l389 492q39 49 92 49t88 -35t35 -81t-31 -83l-495 -567l-92 -527q-11 -51 -49 -85q-38 -33 -91 -33t-81 34t-17 84l92 527l-287 598q-10 20 -10 59t35 74
t84 35z" />
    <glyph glyph-name="Thorn" unicode="&#xde;" horiz-adv-x="1130" 
d="M705 508q109 0 177 72t66 166q-1 178 -172 178h-254l-71 -416h254zM834 1137q164 0 264 -87t100 -253q0 -225 -148 -363t-366 -139h-270l-35 -193q-8 -49 -50 -84q-42 -34 -91 -34t-78 34t-19 84l207 1174q10 49 50 84t89 35t78 -35t21 -84l-25 -139h273z" />
    <glyph glyph-name="germandbls" unicode="&#xdf;" horiz-adv-x="1204" 
d="M973 266q0 70 -154 123q-63 23 -127 51t-108 83q-45 54 -45 133t56 148q56 68 123 104t123 85t56 99t-36 84t-126 34t-152 -52t-79 -140l-176 -1004q-33 -188 -149 -307t-320 -119q-35 0 -59 24t-24 64t36 72q35 33 79 33q174 0 213 221l129 743h-40q-33 0 -56 23
q-23 22 -23 60t34 70t77 32h41l13 71q31 178 154 290q124 112 339 112q160 0 255 -83t95 -208t-88 -196t-153 -103q-117 -59 -117 -132t218 -147q81 -28 150 -90t68 -145q0 -152 -108 -237t-304 -85q-121 1 -220 51q-150 77 -150 156q0 41 28 70q29 29 67 29t71 -27
q92 -82 221 -82q76 0 122 26t46 66z" />
    <glyph glyph-name="agrave" unicode="&#xe0;" horiz-adv-x="1011" 
d="M850 1143q31 -49 -13 -90t-85 0l-189 180q-25 20 -20 58q4 38 41 69q84 60 125 2zM348 340q0 -80 38 -131t103 -51q111 0 187 83t102 226l45 250q-68 49 -153 49q-138 0 -230 -114t-92 -312zM422 -27q-143 -1 -221 95t-78 251q0 279 153 459q154 180 386 180
q129 0 206 -73q35 61 107 61q45 0 71 -32t19 -78l-131 -742q-8 -47 -44 -79q-36 -31 -84 -31t-75 32t-16 78l10 47q-102 -168 -303 -168z" />
    <glyph glyph-name="aacute" unicode="&#xe1;" horiz-adv-x="1011" 
d="M694 1053q-53 -41 -95 1t7 91l209 221q25 29 62 28t63 -34q59 -72 -12 -127zM348 340q0 -80 38 -131t103 -51q111 0 187 83t102 226l45 250q-68 49 -153 49q-138 0 -230 -114t-92 -312zM422 -27q-143 -1 -221 95t-78 251q0 279 153 459q154 180 386 180q129 0 206 -73
q35 61 107 61q45 0 71 -32t19 -78l-131 -742q-8 -47 -44 -79q-36 -31 -84 -31t-75 32t-16 78l10 47q-102 -168 -303 -168z" />
    <glyph glyph-name="acircumflex" unicode="&#xe2;" horiz-adv-x="1011" 
d="M761 1346q24 0 46 -17l160 -129q31 -26 31 -62t-24 -59t-54 -23t-52 17l-125 103l-168 -105q-23 -14 -53 -14q-30 -1 -54 23q-22 24 -22 65t43 63l216 119q32 19 56 19zM348 340q0 -80 38 -131t103 -51q111 0 187 83t102 226l45 250q-68 49 -153 49q-138 0 -230 -114
t-92 -312zM422 -27q-143 -1 -221 95t-78 251q0 279 153 459q154 180 386 180q129 0 206 -73q35 61 107 61q45 0 71 -32t19 -78l-131 -742q-8 -47 -44 -79q-36 -31 -84 -31t-75 32t-16 78l10 47q-102 -168 -303 -168z" />
    <glyph glyph-name="atilde" unicode="&#xe3;" horiz-adv-x="1011" 
d="M612 1296q61 0 140 -34t107 -35q28 0 59 34q30 33 64 33t58 -22t23 -53q0 -30 -12 -50q-57 -94 -195 -94q-63 0 -142 35t-107 35q-27 0 -57 -34t-65 -34t-59 23q-24 22 -23 52q0 30 13 50q57 94 196 94zM348 340q0 -80 38 -131t103 -51q111 0 187 83t102 226l45 250
q-68 49 -153 49q-138 0 -230 -114t-92 -312zM422 -27q-143 -1 -221 95t-78 251q0 279 153 459q154 180 386 180q129 0 206 -73q35 61 107 61q45 0 71 -32t19 -78l-131 -742q-8 -47 -44 -79q-36 -31 -84 -31t-75 32t-16 78l10 47q-102 -168 -303 -168z" />
    <glyph glyph-name="adieresis" unicode="&#xe4;" horiz-adv-x="1009" 
d="M895 1067q-86 0 -86 82q0 131 123 131q86 0 86 -82q0 -63 -32 -97t-91 -34zM524 1067q-86 0 -86 82q0 131 123 131q86 0 86 -82q0 -63 -32 -97t-91 -34zM346 340q0 -80 38 -131t103 -51q111 0 187 83t102 226l45 250q-68 49 -153 49q-138 0 -230 -114t-92 -312zM420 -27
q-143 -1 -221 95t-78 251q0 279 153 459q154 180 385 180q129 0 207 -73q35 61 107 61q45 0 71 -32t19 -78l-131 -742q-8 -47 -44 -79q-36 -31 -84 -31t-75 32t-16 78l10 47q-102 -168 -303 -168z" />
    <glyph glyph-name="aring" unicode="&#xe5;" horiz-adv-x="1011" 
d="M776 1432q184 0 185 -154q0 -112 -68 -182t-188 -70q-184 0 -185 154q0 112 68 182t188 70zM723 1128q59 0 91 36t32 96q0 70 -88 69q-59 0 -91 -36t-32 -95q0 -70 88 -70zM348 340q0 -80 38 -131t103 -51q111 0 187 83t102 226l45 250q-68 49 -153 49q-138 0 -230 -114
t-92 -312zM422 -27q-143 -1 -221 95t-78 251q0 279 153 459q154 180 386 180q129 0 206 -73q35 61 107 61q45 0 71 -32t19 -78l-131 -742q-8 -47 -44 -79q-36 -31 -84 -31t-75 32t-16 78l10 47q-102 -168 -303 -168z" />
    <glyph glyph-name="ae" unicode="&#xe6;" horiz-adv-x="1591" 
d="M1294 772q-205 0 -276 -219q408 0 407 141q0 31 -30 55q-31 23 -101 23zM348 340q0 -80 38 -131t103 -51q104 0 181 74q76 75 106 206q14 147 82 264q-88 63 -188 64q-138 0 -230 -114t-92 -312zM1178 172q104 0 211 64q81 48 134 -7q27 -29 27 -71t-41 -76
q-135 -109 -358 -109q-279 0 -354 215q-45 -80 -139 -148t-236 -67q-144 1 -222 95t-77 251q0 279 153 459q154 180 386 180q188 0 286 -139q145 139 359 139q157 0 247 -72t91 -179q0 -229 -310 -292q-137 -28 -344 -28q-6 -25 -6 -57q0 -158 193 -158z" />
    <glyph glyph-name="ccedilla" unicode="&#xe7;" horiz-adv-x="923" 
d="M129 344q0 260 137 437t408 177q118 0 196 -50q124 -80 125 -154q1 -41 -29 -70t-73 -29t-72 35q-73 80 -193 80t-197 -117t-77 -291q0 -201 178 -200q81 0 138 38q60 35 69 44q33 20 67 20t62 -28t29 -71q0 -44 -45 -79q-145 -113 -352 -113h-27l-20 -82q127 26 194 -32
q45 -39 45 -128t-65 -152q-67 -62 -177 -62t-167 43q-25 18 -25 43t16 40t32 15t30 -6q51 -29 121 -29q119 0 118 109q0 70 -98 69l-92 -12q-43 0 -35 45l27 154q-248 59 -248 356z" />
    <glyph glyph-name="egrave" unicode="&#xe8;" horiz-adv-x="950" 
d="M846 1143q30 -49 -14 -90t-84 0l-189 180q-25 20 -20 58q4 38 41 69q84 60 125 2zM653 772q-205 0 -276 -219q408 0 407 141q0 31 -30 55q-31 23 -101 23zM537 172q104 0 211 64q79 47 133 -7q29 -29 29 -71t-42 -76q-136 -109 -336 -109q-402 0 -401 381q-1 266 147 436
t388 168q156 0 246 -72t92 -179q0 -229 -310 -292q-137 -28 -344 -28q-6 -25 -6 -57q0 -158 193 -158z" />
    <glyph glyph-name="eacute" unicode="&#xe9;" horiz-adv-x="950" 
d="M666 1053q-54 -41 -96 1t8 91l208 221q25 29 62 28t63 -34q59 -72 -12 -127zM653 772q-205 0 -276 -219q408 0 407 141q0 31 -30 55q-31 23 -101 23zM537 172q104 0 211 64q79 47 133 -7q29 -29 29 -71t-42 -76q-136 -109 -336 -109q-402 0 -401 381q-1 266 147 436
t388 168q156 0 246 -72t92 -179q0 -229 -310 -292q-137 -28 -344 -28q-6 -25 -6 -57q0 -158 193 -158z" />
    <glyph glyph-name="ecircumflex" unicode="&#xea;" horiz-adv-x="950" 
d="M744 1346q22 0 44 -17l160 -129q31 -26 31 -62t-23 -59q-22 -23 -54 -23t-52 17l-125 103l-168 -105q-20 -14 -52 -14q-33 -1 -55 23t-22 65t43 63l215 119q36 19 58 19zM653 772q-205 0 -276 -219q408 0 407 141q0 31 -30 55q-31 23 -101 23zM537 172q104 0 211 64
q79 47 133 -7q29 -29 29 -71t-42 -76q-136 -109 -336 -109q-402 0 -401 381q-1 266 147 436t388 168q156 0 246 -72t92 -179q0 -229 -310 -292q-137 -28 -344 -28q-6 -25 -6 -57q0 -158 193 -158z" />
    <glyph glyph-name="edieresis" unicode="&#xeb;" horiz-adv-x="950" 
d="M879 1067q-86 0 -86 82q0 131 122 131q86 0 86 -82q1 -63 -31 -97t-91 -34zM508 1067q-86 0 -86 82q0 131 123 131q86 0 86 -82q0 -63 -32 -97t-91 -34zM653 772q-205 0 -276 -219q408 0 407 141q0 31 -30 55q-31 23 -101 23zM537 172q104 0 211 64q79 47 133 -7
q29 -29 29 -71t-42 -76q-136 -109 -336 -109q-402 0 -401 381q-1 266 147 436t388 168q156 0 246 -72t92 -179q0 -229 -310 -292q-137 -28 -344 -28q-6 -25 -6 -57q0 -158 193 -158z" />
    <glyph glyph-name="igrave" unicode="&#xec;" horiz-adv-x="436" 
d="M545 1143q30 -49 -14 -90t-85 0l-188 180q-25 20 -20 58q4 38 41 69q85 61 124 2zM388 946q48 0 74 -32t19 -78l-131 -742q-8 -47 -44 -79q-36 -31 -83 -31t-75 32t-19 78l131 742q8 46 44 78t84 32z" />
    <glyph glyph-name="iacute" unicode="&#xed;" horiz-adv-x="436" 
d="M391 1053q-53 -41 -95 1t7 91l209 221q26 29 62 28t63 -34q59 -72 -12 -127zM388 946q48 0 74 -32t19 -78l-131 -742q-8 -47 -44 -79q-36 -31 -83 -31t-75 32t-19 78l131 742q8 46 44 78t84 32z" />
    <glyph glyph-name="icircumflex" unicode="&#xee;" horiz-adv-x="436" 
d="M464 1346q22 0 44 -17l160 -129q30 -26 30 -62t-24 -59t-54 -23q-31 0 -51 17l-125 103l-168 -105q-24 -14 -54 -14q-30 -1 -52 23t-23 65q0 41 43 63l216 119q36 19 58 19zM388 946q48 0 74 -32t19 -78l-131 -742q-8 -47 -44 -79q-36 -31 -83 -31t-75 32t-19 78l131 742
q8 46 44 78t84 32z" />
    <glyph glyph-name="idieresis" unicode="&#xef;" horiz-adv-x="436" 
d="M598 1067q-86 0 -86 82q0 131 123 131q86 0 86 -82q0 -63 -32 -97t-91 -34zM227 1067q-86 0 -86 82q0 131 123 131q86 0 86 -82q0 -63 -32 -97t-91 -34zM388 946q48 0 74 -32t19 -78l-131 -742q-8 -47 -44 -79q-36 -31 -83 -31t-75 32t-19 78l131 742q8 46 44 78t84 32z
" />
    <glyph glyph-name="eth" unicode="&#xf0;" horiz-adv-x="1019" 
d="M537 162q145 0 218 124t72 283q0 201 -182 201q-145 0 -218 -124t-73 -284q1 -200 183 -200zM129 330q0 288 150 458t399 170q113 0 182 -43q-4 100 -49 183l-96 -60q-25 -14 -55 -14t-56 27t-26 71t45 68l69 43q-41 31 -114 65q-50 23 -50 67t25 69q41 41 106 14
q121 -55 195 -123l76 49q20 14 52 14t58 -26t27 -68q0 -42 -45 -71l-59 -37q104 -180 104 -425q0 -403 -166 -613q-137 -174 -421 -174q-154 0 -253 88q-98 89 -98 268z" />
    <glyph glyph-name="ntilde" unicode="&#xf1;" horiz-adv-x="1021" 
d="M616 1296q61 0 140 -34t107 -35q28 0 59 34q30 33 64 33t58 -22t23 -53q0 -30 -12 -50q-57 -94 -195 -94q-63 0 -142 35t-107 35q-27 0 -57 -34t-65 -34t-59 23q-24 22 -22 52q0 30 12 50q57 94 196 94zM762 958q147 0 215 -70t67 -186q0 -43 -10 -100l-90 -512
q-8 -45 -45 -76q-37 -30 -85 -30t-74 30t-17 76l84 471q6 33 6 60q0 137 -151 137q-207 0 -242 -211l-82 -457q-8 -45 -45 -76q-37 -30 -85 -30t-74 28t-17 78l131 746q8 46 46 78t81 32t69 -26t27 -64l-2 -22q109 124 293 124z" />
    <glyph glyph-name="ograve" unicode="&#xf2;" horiz-adv-x="1015" 
d="M856 1143q31 -49 -13 -90t-85 0l-189 180q-25 20 -20 58q4 38 41 69q85 62 125 2zM537 162q145 0 218 124t72 283q0 201 -182 201q-145 0 -218 -124t-73 -284q1 -200 183 -200zM129 330q0 251 132 439q131 189 435 189q160 0 258 -89t99 -267q0 -251 -127 -432
q-136 -196 -440 -196q-160 0 -259 88q-98 89 -98 268z" />
    <glyph glyph-name="oacute" unicode="&#xf3;" horiz-adv-x="1015" 
d="M690 1053q-53 -41 -95 1t7 91l209 221q25 29 61 28t64 -34q59 -72 -12 -127zM537 162q145 0 218 124t72 283q0 201 -182 201q-145 0 -218 -124t-73 -284q1 -200 183 -200zM129 330q0 251 132 439q131 189 435 189q160 0 258 -89t99 -267q0 -251 -127 -432
q-136 -196 -440 -196q-160 0 -259 88q-98 89 -98 268z" />
    <glyph glyph-name="ocircumflex" unicode="&#xf4;" horiz-adv-x="1015" 
d="M751 1346q24 0 46 -17l159 -129q31 -26 31 -62q-1 -36 -23 -59t-54 -23t-52 17l-125 103l-168 -105q-20 -14 -52 -14q-33 -1 -55 23t-22 65t43 63l215 119q33 19 57 19zM537 162q145 0 218 124t72 283q0 201 -182 201q-145 0 -218 -124t-73 -284q1 -200 183 -200z
M129 330q0 251 132 439q131 189 435 189q160 0 258 -89t99 -267q0 -251 -127 -432q-136 -196 -440 -196q-160 0 -259 88q-98 89 -98 268z" />
    <glyph glyph-name="otilde" unicode="&#xf5;" horiz-adv-x="1015" 
d="M602 1296q61 0 140 -34t107 -35q29 0 59 34q30 33 65 33t57 -22t23 -53q0 -30 -13 -50q-57 -94 -194 -94q-62 0 -142 35t-108 35t-56 -34q-30 -34 -66 -34t-58 23q-22 22 -23 52q0 30 13 50q57 94 196 94zM537 162q145 0 218 124t72 283q0 201 -182 201q-145 0 -218 -124
t-73 -284q1 -200 183 -200zM129 330q0 251 132 439q131 189 435 189q160 0 258 -89t99 -267q0 -251 -127 -432q-136 -196 -440 -196q-160 0 -259 88q-98 89 -98 268z" />
    <glyph glyph-name="odieresis" unicode="&#xf6;" horiz-adv-x="1015" 
d="M885 1067q-86 0 -86 82q0 131 123 131q86 0 86 -82q0 -63 -32 -97t-91 -34zM514 1067q-86 0 -86 82q0 131 123 131q86 0 86 -82q0 -63 -32 -97t-91 -34zM537 162q145 0 218 124t72 283q0 201 -182 201q-145 0 -218 -124t-73 -284q1 -200 183 -200zM129 330q0 251 132 439
q131 189 435 189q160 0 258 -89t99 -267q0 -251 -127 -432q-136 -196 -440 -196q-160 0 -259 88q-98 89 -98 268z" />
    <glyph glyph-name="divide" unicode="&#xf7;" horiz-adv-x="929" 
d="M932 543q34 1 56 -23t22 -63t-34 -71t-77 -32h-741q-35 0 -58 24q-22 24 -22 62t35 71q35 32 77 32h742zM580 616q-100 0 -101 99q0 47 39 84t88 37t75 -27t26 -74t-39 -83q-38 -36 -88 -36zM482 63q-50 0 -76 26t-25 72q0 46 39 83t87 37t76 -27q27 -27 27 -73t-39 -82
t-89 -36z" />
    <glyph glyph-name="oslash" unicode="&#xf8;" horiz-adv-x="1015" 
d="M645 770q-143 0 -216 -120t-75 -277l410 362q-47 35 -119 35zM544 162q93 0 162 66q123 119 121 343l-417 -368q41 -41 134 -41zM688 958q152 0 246 -73l57 51q29 25 62 25t57 -24q24 -23 23 -59q0 -36 -29 -63l-74 -65q23 -68 23 -170t-32 -210q-32 -110 -95 -200
t-172 -143q-110 -53 -264 -53t-250 77l-50 -43q-28 -24 -60 -24t-56 24t-25 60q0 35 29 61l69 61q-18 61 -18 162q0 100 32 210t95 200t172 143q108 53 260 53z" />
    <glyph glyph-name="ugrave" unicode="&#xf9;" 
d="M827 1143q31 -49 -13 -90t-85 0l-188 180q-25 20 -21 58t41 69q85 62 125 2zM370 946q46 0 72 -32t19 -78l-84 -478q-6 -35 -6 -59q0 -125 157 -125q182 0 215 184l84 478q8 46 46 78t84 32t73 -32t19 -78l-84 -478q-31 -176 -131 -280t-326 -105q-362 0 -363 279
q0 45 11 106l84 478q8 46 46 78t84 32z" />
    <glyph glyph-name="uacute" unicode="&#xfa;" 
d="M686 1053q-53 -41 -95 1t7 91l209 221q25 29 61 28t64 -34q59 -72 -12 -127zM370 946q46 0 72 -32t19 -78l-84 -478q-6 -35 -6 -59q0 -125 157 -125q182 0 215 184l84 478q8 46 46 78t84 32t73 -32t19 -78l-84 -478q-31 -176 -131 -280t-326 -105q-362 0 -363 279
q0 45 11 106l84 478q8 46 46 78t84 32z" />
    <glyph glyph-name="ucircumflex" unicode="&#xfb;" 
d="M740 1346q24 0 46 -17l160 -129q31 -26 31 -62t-24 -59q-25 -23 -55 -23t-50 17l-125 103l-168 -105q-23 -14 -53 -14q-30 -1 -54 23q-22 24 -22 65t43 63l215 119q32 19 56 19zM370 946q46 0 72 -32t19 -78l-84 -478q-6 -35 -6 -59q0 -125 157 -125q182 0 215 184
l84 478q8 46 46 78t84 32t73 -32t19 -78l-84 -478q-31 -176 -131 -280t-326 -105q-362 0 -363 279q0 45 11 106l84 478q8 46 46 78t84 32z" />
    <glyph glyph-name="udieresis" unicode="&#xfc;" 
d="M879 1067q-86 0 -86 82q0 131 122 131q86 0 86 -82q1 -63 -31 -97t-91 -34zM508 1067q-86 0 -86 82q0 131 123 131q86 0 86 -82q0 -63 -32 -97t-91 -34zM370 946q46 0 72 -32t19 -78l-84 -478q-6 -35 -6 -59q0 -125 157 -125q182 0 215 184l84 478q8 46 46 78t84 32
t73 -32t19 -78l-84 -478q-31 -176 -131 -280t-326 -105q-362 0 -363 279q0 45 11 106l84 478q8 46 46 78t84 32z" />
    <glyph glyph-name="yacute" unicode="&#xfd;" 
d="M705 1053q-54 -41 -96 1t7 91l209 221q25 29 62 28t63 -34q59 -72 -12 -127zM285 -150q-1 -88 113 -88t190 60t100 180l39 188q-37 -57 -115 -106t-148 -78t-125 -70q-54 -41 -54 -86zM370 946q46 0 72 -32t19 -78l-68 -379q-6 -33 -6 -60q0 -125 158 -125q184 0 217 185
l65 379q8 46 46 78t84 32t73 -32t19 -78l-150 -861q-33 -195 -170 -291t-356 -96q-127 0 -210 56t-83 148t78 156t268 130q-264 37 -264 272q0 45 10 107l68 379q8 46 46 78t84 32z" />
    <glyph glyph-name="thorn" unicode="&#xfe;" horiz-adv-x="1052" 
d="M573 162q145 0 219 124q73 124 72 283q0 201 -182 201q-145 0 -218 -124t-73 -284q0 -200 182 -200zM571 -27q-160 0 -227 97l-63 -371q-9 -47 -47 -79t-82 -32t-73 32q-28 32 -20 79l291 1649q8 46 46 78t84 32t73 -32t18 -78l-92 -512q39 47 109 85t157 37
q344 0 345 -356q0 -279 -138 -454t-381 -175z" />
    <glyph glyph-name="ydieresis" unicode="&#xff;" 
d="M838 1067q-86 0 -86 82q0 131 122 131q86 0 87 -82q0 -63 -32 -97t-91 -34zM467 1067q-86 0 -86 82q0 131 123 131q86 0 86 -82q0 -63 -32 -97t-91 -34zM285 -150q-1 -88 113 -88t190 60t100 180l39 188q-37 -57 -115 -106t-148 -78t-125 -70q-54 -41 -54 -86zM370 946
q46 0 72 -32t19 -78l-68 -379q-6 -33 -6 -60q0 -125 158 -125q184 0 217 185l65 379q8 46 46 78t84 32t73 -32t19 -78l-150 -861q-33 -195 -170 -291t-356 -96q-127 0 -210 56t-83 148t78 156t268 130q-264 37 -264 272q0 45 10 107l68 379q8 46 46 78t84 32z" />
    <glyph glyph-name="Amacron" unicode="&#x100;" horiz-adv-x="1277" 
d="M1108 1657q30 1 48 -19t18 -52t-29 -58t-64 -27h-354q-29 -1 -47 19t-18 52t28 58t64 27h354zM180 -16q-59 0 -92 34t-33 73q0 40 19 71l690 1157q43 76 121 76q41 0 65 -24t31 -50l274 -1186q5 -12 5 -47t-35 -70t-82 -34q-90 0 -113 86l-69 288h-506l-181 -315
q-35 -59 -94 -59zM920 575l-97 431l-250 -431h347z" />
    <glyph glyph-name="amacron" unicode="&#x101;" horiz-adv-x="1009" 
d="M909 1229q29 1 47 -19t19 -52q0 -32 -29 -58t-63 -27h-355q-29 -1 -47 19t-18 52t29 58t63 27h354zM346 340q0 -80 38 -131t103 -51q111 0 187 83t102 226l45 250q-68 49 -153 49q-138 0 -230 -114t-92 -312zM420 -27q-143 -1 -221 95t-78 251q0 279 153 459
q154 180 385 180q129 0 207 -73q35 61 107 61q45 0 71 -32t19 -78l-131 -742q-8 -47 -44 -79q-36 -31 -84 -31t-75 32t-16 78l10 47q-102 -168 -303 -168z" />
    <glyph glyph-name="Abreve" unicode="&#x102;" horiz-adv-x="1277" 
d="M1161 1784q27 0 45 -18t19 -46q-1 -111 -93 -170t-218 -59q-261 0 -261 182q0 51 26 81q25 30 59 30t50 -18t17 -46l-2 -30q0 -60 127 -60t145 80q18 74 86 74zM180 -16q-59 0 -92 34t-33 73q0 40 19 71l690 1157q43 76 121 76q41 0 65 -24t31 -50l274 -1186q5 -12 5 -47
t-35 -70t-82 -34q-90 0 -113 86l-69 288h-506l-181 -315q-35 -59 -94 -59zM920 575l-97 431l-250 -431h347z" />
    <glyph glyph-name="abreve" unicode="&#x103;" horiz-adv-x="1011" 
d="M991 1364q29 0 46 -18t18 -46q-1 -111 -93 -170t-218 -59q-261 0 -261 182q0 51 26 81q25 30 59 30q64 0 67 -64l-2 -30q0 -60 127 -60t145 80q18 74 86 74zM348 340q0 -80 38 -131t103 -51q111 0 187 83t102 226l45 250q-68 49 -153 49q-138 0 -230 -114t-92 -312z
M422 -27q-143 -1 -221 95t-78 251q0 279 153 459q154 180 386 180q129 0 206 -73q35 61 107 61q45 0 71 -32t19 -78l-131 -742q-8 -47 -44 -79q-36 -31 -84 -31t-75 32t-16 78l10 47q-102 -168 -303 -168z" />
    <glyph glyph-name="Aogonek" unicode="&#x104;" horiz-adv-x="1277" 
d="M920 575l-97 431l-250 -431h347zM1266 -244q51 0 51 -57q0 -29 -39 -57t-137 -27q-98 0 -159 37q-60 37 -60 112t50 138t115 94q-45 18 -57 74l-69 288h-506l-181 -315q-35 -59 -94 -59t-92 34t-33 73q0 40 19 71l690 1157q43 76 121 76q41 0 65 -24t31 -50l274 -1186
q4 -12 5 -35q0 -61 -58 -100q-141 -92 -141 -180q0 -78 98 -78q29 0 61 7t46 7z" />
    <glyph glyph-name="aogonek" unicode="&#x105;" horiz-adv-x="1011" 
d="M348 340q0 -80 38 -131t103 -51q111 0 187 83t102 226l45 250q-68 49 -153 49q-138 0 -230 -114t-92 -312zM932 -244q51 0 51 -57q0 -29 -39 -57t-137 -27q-98 0 -159 37q-60 37 -60 112t50 138t116 94q-55 27 -39 98l10 47q-102 -168 -303 -168q-143 -1 -221 95t-78 251
q0 279 153 459q154 180 386 180q129 0 206 -73q35 61 107 61q45 0 72 -32t18 -78l-131 -742q-10 -59 -66 -94q-141 -90 -141 -180q0 -78 98 -78q29 0 61 7t46 7z" />
    <glyph glyph-name="Cacute" unicode="&#x106;" horiz-adv-x="1310" 
d="M950 1479q-53 -41 -95 1t7 91l209 221q25 29 62 28t63 -34q59 -72 -12 -127zM707 -29q-251 1 -393 139t-142 392q0 420 208 662t578 243q174 0 289 -67t166 -169q12 -29 12 -63q-1 -34 -33 -67q-32 -31 -83 -31t-80 41q-104 143 -307 143q-134 0 -236 -56t-158 -154
q-110 -194 -108 -462q0 -336 323 -336q188 0 340 133q101 85 172 14q33 -32 33 -76t-33 -81q-90 -96 -236 -150t-312 -55z" />
    <glyph glyph-name="cacute" unicode="&#x107;" horiz-adv-x="923" 
d="M696 1053q-53 -41 -95 1t7 91l209 221q25 29 62 28t63 -34q59 -72 -12 -127zM129 344q0 260 137 437t408 177q118 0 196 -50q124 -80 125 -154q1 -41 -29 -70t-73 -29t-72 35q-73 80 -193 80t-197 -117t-77 -291q0 -201 178 -200q81 0 138 38q60 35 69 44q33 20 67 20
t62 -28t29 -71q0 -44 -45 -79q-144 -113 -336 -113q-192 1 -290 95t-97 276z" />
    <glyph glyph-name="Ccircumflex" unicode="&#x108;" horiz-adv-x="1310" 
d="M1039 1753q24 0 46 -16l160 -129q31 -25 31 -61q0 -35 -24 -59t-54 -24t-51 17l-125 102l-168 -104q-24 -15 -54 -15t-52 24t-23 64q0 40 43 64l215 119q32 18 56 18zM707 -29q-251 1 -393 139t-142 392q0 420 208 662t578 243q174 0 289 -67t166 -169q12 -29 12 -63
q-1 -34 -33 -67q-32 -31 -83 -31t-80 41q-104 143 -307 143q-134 0 -236 -56t-158 -154q-110 -194 -108 -462q0 -336 323 -336q188 0 340 133q101 85 172 14q33 -32 33 -76t-33 -81q-90 -96 -236 -150t-312 -55z" />
    <glyph glyph-name="ccircumflex" unicode="&#x109;" horiz-adv-x="923" 
d="M772 1346q22 0 45 -17l160 -129q31 -26 31 -62t-23 -59t-55 -23t-51 17l-125 103l-168 -105q-24 -14 -54 -14q-30 -1 -53 23t-23 65t44 63l215 119q35 19 57 19zM129 344q0 260 137 437t408 177q118 0 196 -50q124 -80 125 -154q1 -41 -29 -70t-73 -29t-72 35
q-73 80 -193 80t-197 -117t-77 -291q0 -201 178 -200q81 0 138 38q60 35 69 44q33 20 67 20t62 -28t29 -71q0 -44 -45 -79q-144 -113 -336 -113q-192 1 -290 95t-97 276z" />
    <glyph glyph-name="Cdotaccent" unicode="&#x10a;" horiz-adv-x="1310" 
d="M985 1495q-92 0 -92 82q0 133 129 133q90 0 90 -84q0 -131 -127 -131zM707 -29q-251 1 -393 139t-142 392q0 420 208 662t578 243q174 0 289 -67t166 -169q12 -29 12 -63q-1 -34 -33 -67q-32 -31 -83 -31t-80 41q-104 143 -307 143q-134 0 -236 -56t-158 -154
q-110 -194 -108 -462q0 -336 323 -336q188 0 340 133q101 85 172 14q33 -32 33 -76t-33 -81q-90 -96 -236 -150t-312 -55z" />
    <glyph glyph-name="cdotaccent" unicode="&#x10b;" horiz-adv-x="923" 
d="M698 1100q-92 0 -92 82q0 133 129 133q90 0 90 -84q0 -131 -127 -131zM129 344q0 260 137 437t408 177q118 0 196 -50q124 -80 125 -154q1 -41 -29 -70t-73 -29t-72 35q-73 80 -193 80t-197 -117t-77 -291q0 -201 178 -200q81 0 138 38q60 35 69 44q33 20 67 20t62 -28
t29 -71q0 -44 -45 -79q-144 -113 -336 -113q-192 1 -290 95t-97 276z" />
    <glyph glyph-name="Ccaron" unicode="&#x10c;" horiz-adv-x="1310" 
d="M968 1464q-22 0 -44 17l-160 129q-31 26 -31 62t23 59q22 23 54 23t52 -17l125 -103l168 105q20 14 52 14q32 1 55 -23q22 -24 22 -65t-43 -63l-215 -119q-36 -19 -58 -19zM707 -29q-251 1 -393 139t-142 392q0 420 208 662t578 243q174 0 289 -67t166 -169
q12 -29 12 -63q-1 -34 -33 -67q-32 -31 -83 -31t-80 41q-104 143 -307 143q-134 0 -236 -56t-158 -154q-110 -194 -108 -462q0 -336 323 -336q188 0 340 133q101 85 172 14q33 -32 33 -76t-33 -81q-90 -96 -236 -150t-312 -55z" />
    <glyph glyph-name="ccaron" unicode="&#x10d;" horiz-adv-x="923" 
d="M714 1057q-22 0 -44 16l-160 129q-31 25 -31 61q0 35 23 59q22 24 54 24t52 -17l125 -102l168 104q20 15 52 15t55 -24q22 -24 22 -64t-43 -64l-215 -119q-36 -18 -58 -18zM129 344q0 260 137 437t408 177q118 0 196 -50q124 -80 125 -154q1 -41 -29 -70t-73 -29t-72 35
q-73 80 -193 80t-197 -117t-77 -291q0 -201 178 -200q81 0 138 38q60 35 69 44q33 20 67 20t62 -28t29 -71q0 -44 -45 -79q-144 -113 -336 -113q-192 1 -290 95t-97 276z" />
    <glyph glyph-name="Dcaron" unicode="&#x10e;" horiz-adv-x="1251" 
d="M824 1464q-22 0 -44 17l-159 129q-31 26 -31 62t22 59q23 23 55 23t52 -17l125 -103l168 105q20 14 52 14q32 1 54 -23t23 -65q0 -41 -43 -63l-215 -119q-37 -19 -59 -19zM485 1378h277q270 0 416 -134t147 -410q0 -402 -208 -618t-582 -216h-293q-49 0 -78 35t-19 84
l201 1141q10 50 50 84t89 34zM557 213q250 0 384 156t134 446q0 184 -89 267t-261 83h-158l-168 -952h158z" />
    <glyph glyph-name="dcaron" unicode="&#x10f;" horiz-adv-x="1239" 
d="M1407 1458q113 0 113 -106q0 -148 -89 -274t-208 -214q-15 -10 -31 -10t-30 13q-13 13 -13 31t18 38q63 63 93 106q49 73 8 179q-20 51 -21 82q0 75 42 115t118 40zM635 958q70 0 130 -24t91 -57l84 471q8 46 46 78t83 32t73 -33t19 -77l-170 -965q-72 -410 -487 -410
q-176 -1 -276 97t-99 278q0 281 139 446q140 164 367 164zM635 770q-131 0 -207 -111t-76 -278q0 -99 46 -159t133 -60t153 58t86 163l49 283q-32 64 -113 93q-34 11 -71 11z" />
    <glyph glyph-name="Dcroat" unicode="&#x110;" horiz-adv-x="1300" 
d="M844 807q34 0 56 -24q22 -25 22 -63t-34 -70t-77 -32h-291l-71 -405h157q250 0 384 156t134 446q0 184 -89 267t-261 83h-158l-63 -358h291zM535 1378h276q271 0 417 -134t146 -410q0 -402 -208 -618t-582 -216h-293q-49 0 -78 35t-18 84l88 499h-43q-35 0 -58 24
q-22 24 -22 62t34 71q34 32 78 32h43l80 453q11 50 51 84t89 34z" />
    <glyph glyph-name="dcroat" unicode="&#x111;" horiz-adv-x="1013" 
d="M635 770q-131 0 -207 -111t-76 -278q0 -99 46 -159t133 -60t153 58t86 163l49 283q-32 64 -113 93q-34 11 -71 11zM635 958q70 0 130 -24t91 -57l33 186h-160q-31 1 -53 23t-23 59q0 37 34 67t75 31h160l18 105q8 46 46 78t83 32t73 -33t19 -77l-18 -105h51q32 -1 54 -23
t22 -59t-34 -67t-75 -31h-51l-119 -680q-72 -410 -487 -410q-176 -1 -276 97t-99 278q0 281 139 446q140 164 367 164z" />
    <glyph glyph-name="Emacron" unicode="&#x112;" horiz-adv-x="1071" 
d="M1040 1657q30 1 48 -19t18 -52t-29 -58t-63 -27h-355q-29 -1 -47 19t-18 52t29 58t63 27h354zM889 799q39 0 63 -26q24 -27 25 -69q0 -42 -38 -78t-87 -36h-387l-66 -377h543q39 0 64 -26q24 -27 24 -71t-38 -80t-89 -36h-661q-49 0 -78 35t-19 84l201 1141q10 50 50 84
t89 34h639q39 0 65 -26q25 -26 25 -69q0 -44 -38 -81t-89 -37h-520l-65 -366h387z" />
    <glyph glyph-name="emacron" unicode="&#x113;" horiz-adv-x="950" 
d="M903 1229q29 1 47 -19t19 -52q0 -32 -29 -58t-63 -27h-355q-29 -1 -47 19t-18 52q1 32 29 58t63 27h354zM653 772q-205 0 -276 -219q408 0 407 141q0 31 -30 55q-31 23 -101 23zM537 172q104 0 211 64q79 47 133 -7q29 -29 29 -71t-42 -76q-136 -109 -336 -109
q-402 0 -401 381q-1 266 147 436t388 168q156 0 246 -72t92 -179q0 -229 -310 -292q-137 -28 -344 -28q-6 -25 -6 -57q0 -158 193 -158z" />
    <glyph glyph-name="Ebreve" unicode="&#x114;" horiz-adv-x="1071" 
d="M1096 1784q27 0 45 -18t18 -46q0 -111 -92 -170t-218 -59q-263 0 -261 182q0 51 25 81q26 30 60 30t50 -18t16 -46l-2 -30q0 -60 127 -60q128 0 146 77t86 77zM889 799q39 0 63 -26q24 -27 25 -69q0 -42 -38 -78t-87 -36h-387l-66 -377h543q39 0 64 -26q24 -27 24 -71
t-38 -80t-89 -36h-661q-49 0 -78 35t-19 84l201 1141q10 50 50 84t89 34h639q39 0 65 -26q25 -26 25 -69q0 -44 -38 -81t-89 -37h-520l-65 -366h387z" />
    <glyph glyph-name="ebreve" unicode="&#x115;" horiz-adv-x="950" 
d="M985 1364q27 0 45 -18t19 -46q-1 -111 -93 -170t-218 -59q-261 0 -261 182q0 51 26 81q25 30 59 30q64 0 67 -64l-2 -30q0 -60 127 -60t145 80q18 74 86 74zM653 772q-205 0 -276 -219q408 0 407 141q0 31 -30 55q-31 23 -101 23zM537 172q104 0 211 64q79 47 133 -7
q29 -29 29 -71t-42 -76q-136 -109 -336 -109q-402 0 -401 381q-1 266 147 436t388 168q156 0 246 -72t92 -179q0 -229 -310 -292q-137 -28 -344 -28q-6 -25 -6 -57q0 -158 193 -158z" />
    <glyph glyph-name="Edotaccent" unicode="&#x116;" horiz-adv-x="1071" 
d="M836 1495q-92 0 -93 82q0 133 129 133q90 0 91 -84q0 -131 -127 -131zM889 799q39 0 63 -26q24 -27 25 -69q0 -42 -38 -78t-87 -36h-387l-66 -377h543q39 0 64 -26q24 -27 24 -71t-38 -80t-89 -36h-661q-49 0 -78 35t-19 84l201 1141q10 50 50 84t89 34h639q39 0 65 -26
q25 -26 25 -69q0 -44 -38 -81t-89 -37h-520l-65 -366h387z" />
    <glyph glyph-name="edotaccent" unicode="&#x117;" horiz-adv-x="950" 
d="M711 1100q-92 0 -93 82q0 133 130 133q90 0 90 -84q0 -131 -127 -131zM653 772q-205 0 -276 -219q408 0 407 141q0 31 -30 55q-31 23 -101 23zM537 172q104 0 211 64q79 47 133 -7q29 -29 29 -71t-42 -76q-136 -109 -336 -109q-402 0 -401 381q-1 266 147 436t388 168
q156 0 246 -72t92 -179q0 -229 -310 -292q-137 -28 -344 -28q-6 -25 -6 -57q0 -158 193 -158z" />
    <glyph glyph-name="Eogonek" unicode="&#x118;" horiz-adv-x="1071" 
d="M977 -244q51 0 51 -57q0 -29 -39 -57t-137 -27q-98 0 -159 37q-60 37 -60 113q0 77 55 143t123 92h-569q-49 0 -78 35t-19 84l201 1141q10 50 50 84t89 34h639q39 0 65 -26q25 -26 25 -69q0 -44 -38 -81t-89 -37h-520l-65 -366h387q39 0 63 -26q24 -27 25 -69
q0 -42 -38 -78t-87 -36h-387l-66 -377h543q39 0 64 -26q24 -25 24 -65t-26 -67t-76 -55q-156 -86 -156 -180q0 -78 98 -78q29 0 61 7t46 7z" />
    <glyph glyph-name="eogonek" unicode="&#x119;" horiz-adv-x="950" 
d="M653 772q-205 0 -276 -219q408 0 407 141q0 31 -30 55q-31 23 -101 23zM766 -244q51 0 51 -57q0 -29 -39 -57t-137 -27q-98 0 -159 37q-60 37 -60 115q0 123 129 208q-14 -2 -41 -2q-178 -1 -278 95t-101 286q-1 266 147 436t388 168q156 0 246 -72t92 -179
q0 -229 -310 -292q-137 -28 -344 -28q-6 -25 -6 -57q0 -158 193 -158q104 0 211 64q79 47 133 -7q29 -29 29 -71t-36 -70q-34 -29 -122 -71t-140 -87t-51 -110q0 -78 98 -78q29 0 61 7t46 7z" />
    <glyph glyph-name="Ecaron" unicode="&#x11a;" horiz-adv-x="1071" 
d="M834 1464q-22 0 -46 17l-159 129q-31 26 -31 62t23 59t55 23t51 -17l125 -103l168 105q20 14 52 14q32 1 54 -23t23 -65q0 -41 -43 -63l-215 -119q-35 -19 -57 -19zM889 799q39 0 63 -26q24 -27 25 -69q0 -42 -38 -78t-87 -36h-387l-66 -377h543q39 0 64 -26
q24 -27 24 -71t-38 -80t-89 -36h-661q-49 0 -78 35t-19 84l201 1141q10 50 50 84t89 34h639q39 0 65 -26q25 -26 25 -69q0 -44 -38 -81t-89 -37h-520l-65 -366h387z" />
    <glyph glyph-name="ecaron" unicode="&#x11b;" horiz-adv-x="950" 
d="M706 1057q-22 0 -44 16l-160 129q-31 25 -31 61q0 35 23 59q22 24 54 24t52 -17l125 -102l168 104q20 15 52 15q33 0 55 -24t22 -64t-43 -64l-215 -119q-36 -18 -58 -18zM653 772q-205 0 -276 -219q408 0 407 141q0 31 -30 55q-31 23 -101 23zM537 172q104 0 211 64
q79 47 133 -7q29 -29 29 -71t-42 -76q-136 -109 -336 -109q-402 0 -401 381q-1 266 147 436t388 168q156 0 246 -72t92 -179q0 -229 -310 -292q-137 -28 -344 -28q-6 -25 -6 -57q0 -158 193 -158z" />
    <glyph glyph-name="Gcircumflex" unicode="&#x11c;" horiz-adv-x="1382" 
d="M1034 1753q22 0 45 -16l160 -129q31 -25 31 -61q0 -35 -23 -59t-55 -24t-51 17l-125 102l-168 -104q-20 -15 -52 -15t-55 24t-23 64t44 64l215 119q35 18 57 18zM743 184q215 0 359 117l41 229h-279q-40 0 -64 26t-24 69t38 79t87 35h397q43 -1 72 -33t21 -75l-58 -328
q-10 -63 -53 -108q-92 -99 -251 -161t-322 -63q-251 1 -393 139t-142 392q0 420 208 662t578 243q174 0 289 -67t166 -169q12 -29 12 -63q-1 -34 -33 -67q-32 -31 -83 -31t-80 41q-104 143 -307 143q-134 0 -236 -56t-158 -154q-110 -194 -108 -462q-1 -338 323 -338z" />
    <glyph glyph-name="gcircumflex" unicode="&#x11d;" horiz-adv-x="1032" 
d="M750 1346q22 0 45 -17l159 -129q31 -26 31 -62q1 -36 -23 -59t-55 -23t-51 17l-125 103l-168 -105q-23 -14 -53 -14q-30 -1 -54 23q-22 24 -22 65t43 63l215 119q36 19 58 19zM532 252q145 0 218 106q72 106 71 244q0 170 -178 170q-145 0 -217 -104t-72 -242
q0 -174 178 -174zM117 -208q0 92 78 156t270 130q-330 14 -330 319q1 248 143 405t392 156q174 0 270 -82t96 -237q0 -74 -10 -131l-90 -533q-33 -195 -170 -291t-356 -96q-127 0 -210 56t-83 148zM322 -150q0 -88 114 -88t190 60q75 60 99 180l41 205q-41 -63 -121 -117
q-81 -54 -149 -83q-174 -76 -174 -157z" />
    <glyph glyph-name="Gbreve" unicode="&#x11e;" horiz-adv-x="1382" 
d="M1016 1659q127 0 145 80q18 74 86 73q27 0 45 -17t19 -46q-1 -111 -93 -170t-218 -59q-261 0 -261 182q0 51 26 81q25 29 59 29t50 -18t17 -45l-2 -31q0 -59 127 -59zM743 184q215 0 359 117l41 229h-279q-40 0 -64 26t-24 69t38 79t87 35h397q43 -1 72 -33t21 -75
l-58 -328q-10 -63 -53 -108q-92 -99 -251 -161t-322 -63q-251 1 -393 139t-142 392q0 420 208 662t578 243q174 0 289 -67t166 -169q12 -29 12 -63q-1 -34 -33 -67q-32 -31 -83 -31t-80 41q-104 143 -307 143q-134 0 -236 -56t-158 -154q-110 -194 -108 -462
q-1 -338 323 -338z" />
    <glyph glyph-name="gbreve" unicode="&#x11f;" horiz-adv-x="1032" 
d="M967 1364q29 0 46 -18t17 -46q0 -111 -92 -170t-218 -59q-263 0 -261 182q0 51 25 81q26 30 60 30t50 -18t16 -46l-2 -30q0 -60 127 -60t145 77t87 77zM532 252q145 0 218 106q72 106 71 244q0 170 -178 170q-145 0 -217 -104t-72 -242q0 -174 178 -174zM117 -208
q0 92 78 156t270 130q-330 14 -330 319q1 248 143 405t392 156q174 0 270 -82t96 -237q0 -74 -10 -131l-90 -533q-33 -195 -170 -291t-356 -96q-127 0 -210 56t-83 148zM322 -150q0 -88 114 -88t190 60q75 60 99 180l41 205q-41 -63 -121 -117q-81 -54 -149 -83
q-174 -76 -174 -157z" />
    <glyph glyph-name="Gdotaccent" unicode="&#x120;" horiz-adv-x="1382" 
d="M991 1495q-92 0 -92 82q0 133 129 133q90 0 90 -84q0 -131 -127 -131zM743 184q215 0 359 117l41 229h-279q-40 0 -64 26t-24 69t38 79t87 35h397q43 -1 72 -33t21 -75l-58 -328q-10 -63 -53 -108q-92 -99 -251 -161t-322 -63q-251 1 -393 139t-142 392q0 420 208 662
t578 243q174 0 289 -67t166 -169q12 -29 12 -63q-1 -34 -33 -67q-32 -31 -83 -31t-80 41q-104 143 -307 143q-134 0 -236 -56t-158 -154q-110 -194 -108 -462q-1 -338 323 -338z" />
    <glyph glyph-name="gdotaccent" unicode="&#x121;" horiz-adv-x="1032" 
d="M707 1100q-92 0 -93 82q0 133 129 133q90 0 91 -84q0 -131 -127 -131zM532 252q145 0 218 106q72 106 71 244q0 170 -178 170q-145 0 -217 -104t-72 -242q0 -174 178 -174zM117 -208q0 92 78 156t270 130q-330 14 -330 319q1 248 143 405t392 156q174 0 270 -82t96 -237
q0 -74 -10 -131l-90 -533q-33 -195 -170 -291t-356 -96q-127 0 -210 56t-83 148zM322 -150q0 -88 114 -88t190 60q75 60 99 180l41 205q-41 -63 -121 -117q-81 -54 -149 -83q-174 -76 -174 -157z" />
    <glyph glyph-name="Gcommaaccent" unicode="&#x122;" horiz-adv-x="1382" 
d="M725 -80q90 0 90 -84q0 -112 -72 -220t-161 -169q-16 -10 -30 -10t-26 11q-10 10 -10 26t16 30q96 84 97 160q0 27 -17 68q-16 42 -16 82t34 73t95 33zM743 184q215 0 359 117l41 229h-279q-40 0 -64 26t-24 69t38 79t87 35h397q43 -1 72 -33t21 -75l-58 -328
q-10 -63 -53 -108q-92 -99 -251 -161t-322 -63q-251 1 -393 139t-142 392q0 420 208 662t578 243q174 0 289 -67t166 -169q12 -29 12 -63q-1 -34 -33 -67q-32 -31 -83 -31t-80 41q-104 143 -307 143q-134 0 -236 -56t-158 -154q-110 -194 -108 -462q-1 -338 323 -338z" />
    <glyph glyph-name="gcommaaccent" unicode="&#x123;" horiz-adv-x="1032" 
d="M700 1063q-90 0 -90 84q0 111 72 219t162 170q16 10 30 10t24 -11t11 -27q0 -16 -16 -29q-96 -84 -96 -160q0 -27 16 -68t16 -81t-34 -74q-34 -33 -95 -33zM532 252q145 0 218 106q72 106 71 244q0 170 -178 170q-145 0 -217 -104t-72 -242q0 -174 178 -174zM117 -208
q0 92 78 156t270 130q-330 14 -330 319q1 248 143 405t392 156q174 0 270 -82t96 -237q0 -74 -10 -131l-90 -533q-33 -195 -170 -291t-356 -96q-127 0 -210 56t-83 148zM322 -150q0 -88 114 -88t190 60q75 60 99 180l41 205q-41 -63 -121 -117q-81 -54 -149 -83
q-174 -76 -174 -157z" />
    <glyph glyph-name="Hcircumflex" unicode="&#x124;" horiz-adv-x="1306" 
d="M966 1753q22 0 44 -16l159 -129q31 -25 31 -61q0 -35 -22 -59t-55 -24q-32 0 -52 17l-125 102l-168 -104q-20 -15 -52 -15t-54 24t-23 64q0 40 43 64l215 119q37 18 59 18zM487 1395q49 0 78 -35t21 -84l-82 -463h586l81 463q11 49 51 84t89 35t77 -35t21 -84l-207 -1174
q-8 -49 -50 -84q-42 -34 -91 -34t-78 34t-18 84l86 494h-586l-86 -494q-8 -49 -50 -84q-42 -34 -91 -34t-78 34t-19 84l207 1174q10 49 50 84t89 35z" />
    <glyph glyph-name="hcircumflex" unicode="&#x125;" horiz-adv-x="1021" 
d="M514 1753q22 0 45 -16l160 -129q31 -25 31 -61q0 -35 -23 -59t-55 -24t-51 17l-125 102l-168 -104q-24 -15 -54 -15t-53 24t-23 64t44 64l215 119q35 18 57 18zM813 621q0 137 -151 137q-207 0 -242 -211l-82 -457q-8 -45 -45 -76q-37 -30 -85 -30t-74 28t-17 78
l223 1258q8 46 45 78t84 32t73 -32t19 -78l-92 -512q105 122 273 122t236 -72t66 -184q0 -43 -10 -100l-90 -512q-8 -45 -45 -76q-37 -30 -85 -30t-74 30t-17 76l84 471q6 31 6 60z" />
    <glyph glyph-name="Hbar" unicode="&#x126;" horiz-adv-x="1306" 
d="M504 813h586l22 127h-586zM1411 1096q29 0 47 -20t18 -51q0 -33 -28 -59q-29 -26 -64 -26h-34l-148 -838q-8 -49 -50 -84q-42 -34 -91 -34t-78 34t-18 84l86 494h-586l-86 -494q-8 -49 -50 -84q-42 -34 -91 -34t-78 34t-19 84l148 838h-37q-29 0 -47 19q-19 19 -19 51
t29 60q29 26 64 26h36l33 180q10 49 50 84t89 35t78 -35t21 -84l-33 -180h586l32 180q11 49 51 84t89 35t77 -35t21 -84l-33 -180h35z" />
    <glyph glyph-name="hbar" unicode="&#x127;" horiz-adv-x="1021" 
d="M713 1251q29 0 47 -19t18 -51t-28 -59t-64 -26h-170l-47 -260q105 122 273 122t236 -72t66 -184q0 -43 -10 -100l-90 -512q-8 -45 -45 -76q-37 -30 -85 -30t-74 30t-17 76l84 471q6 31 6 60q0 137 -151 137q-207 0 -242 -211l-82 -457q-8 -45 -45 -76q-37 -30 -85 -30
t-74 28t-17 78l178 1006h-47q-29 0 -47 19q-19 19 -19 51t29 59t63 26h48l18 97q8 46 45 78t84 32t73 -32t19 -78l-18 -97h170z" />
    <glyph glyph-name="Itilde" unicode="&#x128;" horiz-adv-x="483" 
d="M403 1714q61 0 140 -34t107 -35t59 33t65 34t56 -22q24 -22 24 -53q0 -30 -12 -50q-57 -94 -195 -94q-63 0 -142 35t-107 35t-58 -34t-64 -34t-58 23q-24 22 -24 52t13 50q57 94 196 94zM487 1395q49 0 78 -35t21 -84l-207 -1174q-8 -49 -50 -84q-42 -34 -91 -34t-78 34
t-19 84l207 1174q10 49 50 84t89 35z" />
    <glyph glyph-name="itilde" unicode="&#x129;" horiz-adv-x="436" 
d="M311 1296q61 0 140 -34t107 -35q28 0 59 34q31 33 65 33t58 -22q22 -22 22 -53q0 -30 -12 -50q-57 -94 -195 -94q-63 0 -142 35t-107 35t-58 -34t-65 -34q-37 0 -59 23q-22 22 -22 52t13 50q57 94 196 94zM388 946q48 0 74 -32t19 -78l-131 -742q-8 -47 -44 -79
q-36 -31 -83 -31t-75 32t-19 78l131 742q8 46 44 78t84 32z" />
    <glyph glyph-name="Imacron" unicode="&#x12a;" horiz-adv-x="483" 
d="M717 1657q29 1 47 -19t18 -52t-28 -58t-64 -27h-354q-29 -1 -47 19q-19 20 -19 52t29 58t63 27h355zM487 1395q49 0 78 -35t21 -84l-207 -1174q-8 -49 -50 -84q-42 -34 -91 -34t-78 34t-19 84l207 1174q10 49 50 84t89 35z" />
    <glyph glyph-name="imacron" unicode="&#x12b;" horiz-adv-x="436" 
d="M616 1229q30 1 48 -19t18 -52t-29 -58t-63 -27h-354q-30 -1 -48 19t-18 52t29 58t63 27h354zM388 946q48 0 74 -32t19 -78l-131 -742q-8 -47 -44 -79q-36 -31 -83 -31t-75 32t-19 78l131 742q8 46 44 78t84 32z" />
    <glyph glyph-name="Ibreve" unicode="&#x12c;" horiz-adv-x="483" 
d="M772 1784q27 0 45 -18t19 -46q0 -111 -92 -170t-219 -59q-261 0 -261 182q0 51 26 81t60 30t49 -18q16 -18 17 -46l-2 -30q0 -60 127 -60t145 80q18 74 86 74zM487 1395q49 0 78 -35t21 -84l-207 -1174q-8 -49 -50 -84q-42 -34 -91 -34t-78 34t-19 84l207 1174
q10 49 50 84t89 35z" />
    <glyph glyph-name="ibreve" unicode="&#x12d;" horiz-adv-x="436" 
d="M676 1364q29 0 46 -18t17 -46q0 -111 -92 -170t-218 -59q-261 0 -261 182q0 51 26 81t60 30t49 -18q16 -18 16 -46l-2 -30q0 -60 127 -60q128 0 146 77t86 77zM388 946q48 0 74 -32t19 -78l-131 -742q-8 -47 -44 -79q-36 -31 -83 -31t-75 32t-19 78l131 742q8 46 44 78
t84 32z" />
    <glyph glyph-name="Iogonek" unicode="&#x12e;" horiz-adv-x="483" 
d="M365 -244q51 0 51 -57q0 -29 -39 -57t-137 -27q-98 0 -159 37t-61 112q0 76 52 140t116 92q-59 31 -47 106l207 1174q10 49 50 84t89 35t78 -35t21 -84l-207 -1174q-12 -61 -78 -102q-141 -84 -141 -180q0 -78 98 -78q28 0 60 7t47 7z" />
    <glyph glyph-name="iogonek" unicode="&#x12f;" horiz-adv-x="436" 
d="M457 1321q111 0 110 -98q0 -72 -40 -119t-117 -47q-111 0 -111 98q0 72 40 119t118 47zM242 -258l110 14q18 0 33 -14q14 -14 14 -37q0 -90 -184 -90q-90 0 -150 37q-61 37 -61 112q0 76 51 140t117 92q-55 31 -43 98l131 742q8 46 44 78t84 32t75 -32t18 -78l-131 -742
q-8 -57 -65 -94q-141 -96 -142 -180q0 -78 99 -78z" />
    <glyph glyph-name="Idotaccent" unicode="&#x130;" horiz-adv-x="483" 
d="M506 1495q-92 0 -92 82q0 133 129 133q90 0 90 -84q0 -131 -127 -131zM487 1395q49 0 78 -35t21 -84l-207 -1174q-8 -49 -50 -84q-42 -34 -91 -34t-78 34t-19 84l207 1174q10 49 50 84t89 35z" />
    <glyph glyph-name="dotlessi" unicode="&#x131;" horiz-adv-x="436" 
d="M388 946q48 0 74 -32t19 -78l-131 -742q-8 -47 -44 -79q-36 -31 -83 -31t-75 32t-19 78l131 742q8 46 44 78t84 32z" />
    <glyph glyph-name="IJ" unicode="&#x132;" horiz-adv-x="1345" 
d="M829 188q188 0 232 242l149 846q10 49 50 84t90 35t78 -35t20 -84l-150 -846q-82 -457 -507 -457q-154 0 -234 64q-43 35 -43 83t31 79t63 31t90 -22q57 -20 131 -20zM487 1395q49 0 78 -35t21 -84l-207 -1174q-8 -49 -50 -84q-42 -34 -91 -34t-78 34t-19 84l207 1174
q10 49 50 84t89 35z" />
    <glyph glyph-name="ij" unicode="&#x133;" horiz-adv-x="872" 
d="M893 1321q111 0 111 -98q0 -72 -40 -119t-118 -47q-111 0 -111 98q0 72 40 119t118 47zM826 946q46 0 73 -32t19 -78l-150 -852q-25 -137 -135 -231q-111 -93 -254 -93q-37 0 -62 26t-25 68t37 76q36 35 86 35t86 34t46 85l149 852q8 46 46 78t84 32zM457 1321
q111 0 110 -98q0 -72 -40 -119t-117 -47q-111 0 -111 98q0 72 40 119t118 47zM388 946q48 0 74 -32t19 -78l-131 -742q-8 -47 -44 -79q-36 -31 -83 -31t-75 32t-19 78l131 742q8 46 44 78t84 32z" />
    <glyph glyph-name="Jcircumflex" unicode="&#x134;" horiz-adv-x="882" 
d="M949 1753q24 0 46 -16l160 -129q31 -25 31 -61q0 -35 -24 -59t-54 -24t-51 17l-125 102l-168 -104q-24 -15 -54 -15t-53 24t-23 64t44 64l215 119q32 18 56 18zM367 188q188 0 231 242l150 846q10 49 50 84t89 35t78 -35t20 -84l-149 -846q-82 -457 -508 -457
q-154 0 -234 64q-43 35 -43 83t31 79q32 31 64 31t90 -22q58 -20 131 -20z" />
    <glyph glyph-name="jcircumflex" unicode="&#x135;" horiz-adv-x="436" 
d="M458 1346q24 0 46 -17l160 -129q30 -26 30 -62t-24 -59t-54 -23q-31 0 -51 17l-125 103l-168 -105q-24 -14 -54 -14q-30 -1 -52 23t-23 65q0 41 43 63l215 119q33 19 57 19zM390 946q46 0 73 -32t18 -78l-149 -852q-25 -137 -135 -231q-111 -93 -254 -93q-37 0 -62 26
t-25 68t36 76q36 35 86 35t87 34q36 34 46 85l149 852q8 46 46 78t84 32z" />
    <glyph glyph-name="Kcommaaccent" unicode="&#x136;" horiz-adv-x="1138" 
d="M604 -80q90 0 90 -84q0 -112 -72 -220t-161 -169q-15 -10 -29 -10t-25 11q-28 28 5 56q96 84 96 160q0 27 -16 68q-16 42 -16 82t33 73q34 33 95 33zM1165 1395q47 0 81 -34t34 -84t-47 -91l-467 -408l352 -628q12 -23 12 -61t-34 -72q-34 -33 -90 -33q-58 0 -88 55
l-326 586l-143 -129l-70 -394q-8 -49 -50 -84q-42 -34 -91 -34t-78 34t-19 84l207 1174q10 49 50 84t89 35t78 -35t21 -84l-84 -469l579 553q37 35 84 35z" />
    <glyph glyph-name="kcommaaccent" unicode="&#x137;" horiz-adv-x="927" 
d="M483 -80q90 0 90 -84q1 -112 -71 -220t-162 -169q-16 -10 -30 -10t-25 11q-27 29 6 56q96 84 96 160q0 27 -16 68q-17 42 -17 82t34 73t95 33zM799 -16q-53 0 -80 45l-240 407l-82 -55l-49 -291q-8 -45 -45 -76q-37 -30 -84 -30t-74 30t-18 76l223 1262q8 46 45 76t84 30
t74 -31t18 -75l-127 -723l406 291q39 26 80 26q42 0 72 -31t30 -83t-53 -87l-320 -202l238 -393q16 -27 16 -66t-30 -70q-31 -30 -84 -30z" />
    <glyph glyph-name="kgreenlandic" unicode="&#x138;" horiz-adv-x="927" 
d="M799 -16q-53 0 -80 45l-242 401l-82 -55l-47 -285q-8 -45 -45 -76q-37 -30 -84 -30t-74 30t-18 76l135 750q8 46 45 76t84 30t74 -31t18 -75l-41 -217l408 297q37 26 79 26q43 0 73 -31t30 -83t-53 -87l-322 -208l240 -387q16 -27 16 -66t-30 -70q-31 -30 -84 -30z" />
    <glyph glyph-name="Lacute" unicode="&#x139;" horiz-adv-x="1005" 
d="M485 1479q-53 -41 -95 1t7 91l209 221q25 29 62 28t63 -34q59 -72 -12 -127zM885 221q43 -1 69 -27t27 -73q0 -47 -39 -84t-96 -37h-606q-51 0 -79 33t-18 82l205 1161q10 49 50 84t89 35t78 -35t21 -84l-187 -1055h486z" />
    <glyph glyph-name="lacute" unicode="&#x13a;" horiz-adv-x="497" 
d="M465 1528q-53 -41 -95 1t7 91l209 221q26 29 62 28t63 -34q59 -72 -13 -127zM479 1458q45 0 73 -33t19 -77l-198 -1115q-4 -23 9 -33t39 -12q27 0 49 -24t22 -66q0 -43 -37 -79t-95 -35q-211 0 -210 196q0 29 6 66l194 1102q8 46 46 78t83 32z" />
    <glyph glyph-name="Lcommaaccent" unicode="&#x13b;" horiz-adv-x="1005" 
d="M551 -80q90 0 90 -84q0 -112 -72 -220t-161 -169q-16 -10 -30 -10t-25 11q-11 10 -11 26t16 30q96 84 97 160q0 27 -17 68q-16 42 -16 82t34 73t95 33zM885 221q43 -1 69 -27t27 -73q0 -47 -39 -84t-96 -37h-606q-51 0 -79 33t-18 82l205 1161q10 49 50 84t89 35t78 -35
t21 -84l-187 -1055h486z" />
    <glyph glyph-name="lcommaaccent" unicode="&#x13c;" horiz-adv-x="497" 
d="M270 -80q90 0 90 -84q0 -112 -72 -220t-161 -169q-17 -10 -31 -10t-24 11q-27 29 6 56q96 84 96 160q0 27 -16 68q-16 42 -16 82t33 73q34 33 95 33zM479 1458q45 0 73 -33t19 -77l-198 -1115q-4 -23 9 -33t39 -12q27 0 49 -24t22 -66q0 -43 -37 -79t-95 -35
q-211 0 -210 196q0 29 6 66l194 1102q8 46 46 78t83 32z" />
    <glyph glyph-name="Lcaron" unicode="&#x13d;" horiz-adv-x="1005" 
d="M973 1395q113 0 112 -107q0 -147 -89 -273t-208 -214q-14 -10 -30 -10t-30 13q-13 14 -13 32t18 36q63 62 92 106t29 86t-20 93t-21 82q0 74 42 115t118 41zM885 221q43 -1 69 -27t27 -73q0 -47 -39 -84t-96 -37h-606q-51 0 -79 33t-18 82l205 1161q10 49 50 84t89 35
t78 -35t21 -84l-187 -1055h486z" />
    <glyph glyph-name="lcaron" unicode="&#x13e;" horiz-adv-x="661" 
d="M850 1458q113 0 113 -106q1 -148 -89 -274t-208 -214q-14 -10 -30 -10t-31 13q-13 13 -13 31t18 38q63 63 92 106q29 44 29 86t-20 93t-21 82q0 75 42 115t118 40zM479 1458q45 0 73 -33t19 -77l-198 -1115q-4 -23 9 -33t39 -12q27 0 49 -24t22 -66q0 -43 -37 -79
t-95 -35q-211 0 -210 196q0 29 6 66l194 1102q8 46 46 78t83 32z" />
    <glyph glyph-name="Ldot" unicode="&#x13f;" horiz-adv-x="1005" 
d="M842 567q-115 0 -115 105q0 80 42 123t120 43q113 0 112 -107q1 -164 -159 -164zM885 221q43 -1 69 -27t27 -73q0 -47 -39 -84t-96 -37h-606q-51 0 -79 33t-18 82l205 1161q10 49 50 84t89 35t78 -35t21 -84l-187 -1055h486z" />
    <glyph glyph-name="ldot" unicode="&#x140;" horiz-adv-x="743" 
d="M666 627q-115 0 -115 104q0 80 42 123t120 43q113 0 112 -106q1 -164 -159 -164zM479 1458q45 0 73 -33t19 -77l-198 -1115q-4 -23 9 -33t39 -12q27 0 49 -24t22 -66q0 -43 -37 -79t-95 -35q-211 0 -210 196q0 29 6 66l194 1102q8 46 46 78t83 32z" />
    <glyph glyph-name="Lslash" unicode="&#x141;" horiz-adv-x="1105" 
d="M985 221q43 -1 70 -27t27 -73t-40 -84q-39 -37 -96 -37h-606q-51 0 -79 33t-17 82l57 331l-29 -12q-20 -10 -52 -10t-60 28t-27 68q0 63 62 90l147 60l107 606q10 49 50 84t89 35t78 -35t20 -84l-90 -510l293 127q18 8 50 8q31 0 59 -29t28 -67q0 -68 -65 -92l-404 -176
l-57 -316h485z" />
    <glyph glyph-name="lslash" unicode="&#x142;" horiz-adv-x="497" 
d="M480 1458q46 0 73 -32t18 -78l-75 -430l96 49q16 8 45 8t55 -26q26 -25 25 -71q0 -46 -53 -73l-209 -105l-82 -475q-4 -37 45 -37q26 0 50 -26t24 -67q0 -42 -37 -77t-84 -34q-104 0 -163 50q-58 50 -58 146q0 33 6 66l59 336l-27 -13q-20 -10 -50 -10t-56 26
q-26 25 -25 71q0 46 45 69l154 78l94 545q8 46 46 78t84 32z" />
    <glyph glyph-name="Nacute" unicode="&#x143;" horiz-adv-x="1275" 
d="M901 1479q-53 -41 -95 1t7 91l209 221q26 29 62 28t63 -34q59 -72 -12 -127zM1292 1395q47 0 76 -35t21 -82l-209 -1178q-8 -47 -50 -82q-42 -34 -95 -34q-54 0 -79 51l-448 885l-146 -820q-8 -47 -49 -82q-41 -34 -88 -34t-75 34t-19 82l207 1178q10 49 47 83t92 34
t82 -49l453 -879l143 811q8 47 49 82t88 35z" />
    <glyph glyph-name="nacute" unicode="&#x144;" horiz-adv-x="1021" 
d="M709 1053q-54 -41 -96 1t8 91l208 221q25 29 62 28t63 -34q59 -72 -12 -127zM762 958q147 0 215 -70t67 -186q0 -43 -10 -100l-90 -512q-8 -45 -45 -76q-37 -30 -85 -30t-74 30t-17 76l84 471q6 33 6 60q0 137 -151 137q-207 0 -242 -211l-82 -457q-8 -45 -45 -76
q-37 -30 -85 -30t-74 28t-17 78l131 746q8 46 46 78t81 32t69 -26t27 -64l-2 -22q109 124 293 124z" />
    <glyph glyph-name="Ncommaaccent" unicode="&#x145;" horiz-adv-x="1275" 
d="M635 -80q90 0 90 -84q0 -112 -72 -220t-161 -169q-16 -10 -30 -10t-26 11q-10 10 -10 26t16 30q96 84 97 160q0 27 -17 68q-16 42 -16 82t34 73t95 33zM1292 1395q47 0 76 -35t21 -82l-209 -1178q-8 -47 -50 -82q-42 -34 -95 -34q-54 0 -79 51l-448 885l-146 -820
q-8 -47 -49 -82q-41 -34 -88 -34t-75 34t-19 82l207 1178q10 49 47 83t92 34t82 -49l453 -879l143 811q8 47 49 82t88 35z" />
    <glyph glyph-name="ncommaaccent" unicode="&#x146;" horiz-adv-x="1021" 
d="M508 -80q90 0 90 -84q0 -112 -72 -220t-161 -169q-17 -10 -31 -10t-25 11q-10 10 -10 26t16 30q96 84 97 160q0 27 -17 68q-16 42 -16 82t34 73t95 33zM762 958q147 0 215 -70t67 -186q0 -43 -10 -100l-90 -512q-8 -45 -45 -76q-37 -30 -85 -30t-74 30t-17 76l84 471
q6 33 6 60q0 137 -151 137q-207 0 -242 -211l-82 -457q-8 -45 -45 -76q-37 -30 -85 -30t-74 28t-17 78l131 746q8 46 46 78t81 32t69 -26t27 -64l-2 -22q109 124 293 124z" />
    <glyph glyph-name="Ncaron" unicode="&#x147;" horiz-adv-x="1275" 
d="M912 1464q-24 0 -46 17l-159 129q-31 26 -31 62t22 59q23 23 55 23t52 -17l125 -103l168 105q20 14 52 14q32 1 54 -23t23 -65q0 -41 -43 -63l-215 -119q-33 -19 -57 -19zM1292 1395q47 0 76 -35t21 -82l-209 -1178q-8 -47 -50 -82q-42 -34 -95 -34q-54 0 -79 51
l-448 885l-146 -820q-8 -47 -49 -82q-41 -34 -88 -34t-75 34t-19 82l207 1178q10 49 47 83t92 34t82 -49l453 -879l143 811q8 47 49 82t88 35z" />
    <glyph glyph-name="ncaron" unicode="&#x148;" horiz-adv-x="1021" 
d="M730 1057q-22 0 -44 16l-160 129q-30 25 -30 61q0 35 22 59t54 24t53 -17l125 -102l168 104q20 15 52 15t54 -24t23 -64q0 -40 -43 -64l-216 -119q-36 -18 -58 -18zM762 958q147 0 215 -70t67 -186q0 -43 -10 -100l-90 -512q-8 -45 -45 -76q-37 -30 -85 -30t-74 30
t-17 76l84 471q6 33 6 60q0 137 -151 137q-207 0 -242 -211l-82 -457q-8 -45 -45 -76q-37 -30 -85 -30t-74 28t-17 78l131 746q8 46 46 78t81 32t69 -26t27 -64l-2 -22q109 124 293 124z" />
    <glyph glyph-name="napostrophe" unicode="&#x149;" horiz-adv-x="1093" 
d="M362 1382q90 0 91 -84q0 -112 -72 -220t-162 -169q-15 -10 -29 -10t-25 11q-11 10 -11 26t16 31q96 84 96 159q0 27 -16 68q-39 101 17 156q34 32 95 32zM834 958q147 0 215 -70t67 -186q0 -43 -10 -100l-90 -512q-8 -45 -45 -76q-37 -30 -85 -30t-74 30t-17 76l84 471
q6 33 6 60q0 137 -152 137q-207 0 -241 -211l-82 -457q-8 -45 -45 -76q-37 -30 -85 -30t-74 28t-18 78l131 746q9 46 47 78t81 32t69 -26t27 -64l-2 -22q109 124 293 124z" />
    <glyph glyph-name="Eng" unicode="&#x14a;" horiz-adv-x="1275" 
d="M666 -412q-43 0 -69 27t-26 72t38 81t93 35q100 1 152 63t84 204l-430 850l-146 -820q-8 -47 -49 -82q-41 -34 -88 -34t-75 34t-19 82l207 1178q10 51 45 84t92 33t86 -56l451 -872l143 811q8 49 46 83t88 34t79 -35t21 -82l-220 -1233q-39 -215 -157 -336t-346 -121z
" />
    <glyph glyph-name="eng" unicode="&#x14b;" horiz-adv-x="1021" 
d="M813 621q0 137 -151 137q-207 0 -242 -211l-82 -457q-8 -45 -45 -76q-37 -30 -85 -30t-74 28t-17 78l131 746q8 46 46 78t81 32t69 -26t27 -64l-2 -22q109 125 293 124q147 0 215 -70t67 -186q0 -43 -10 -100l-121 -690q-25 -137 -135 -230t-254 -94q-38 0 -62 26t-24 68
t36 76q36 35 86 35t86 34t46 85l115 649q6 33 6 60z" />
    <glyph glyph-name="Omacron" unicode="&#x14c;" horiz-adv-x="1437" 
d="M1196 1657q30 1 48 -19t18 -52t-29 -58t-64 -27h-354q-29 -1 -47 19t-18 52t28 58t64 27h354zM930 1194q-106 0 -194 -39t-146 -105q-170 -195 -170 -530q0 -336 332 -336q302 0 436 296q72 160 74 376q0 338 -332 338zM715 -29q-264 0 -404 130q-139 130 -139 386
q0 412 207 666t588 254q264 0 403 -130t139 -386q-1 -412 -207 -666t-587 -254z" />
    <glyph glyph-name="omacron" unicode="&#x14d;" horiz-adv-x="1015" 
d="M905 1229q29 1 47 -19t19 -52q0 -32 -29 -58t-63 -27h-355q-29 -1 -47 19t-18 52q1 32 29 58t63 27h354zM537 162q145 0 218 124t72 283q0 201 -182 201q-145 0 -218 -124t-73 -284q1 -200 183 -200zM129 330q0 251 132 439q131 189 435 189q160 0 258 -89t99 -267
q0 -251 -127 -432q-136 -196 -440 -196q-160 0 -259 88q-98 89 -98 268z" />
    <glyph glyph-name="Obreve" unicode="&#x14e;" horiz-adv-x="1437" 
d="M1249 1784q29 0 46 -18t18 -46q-1 -111 -93 -170t-218 -59q-261 0 -261 182q0 51 26 81q25 30 59 30t50 -18t17 -46l-2 -30q0 -60 127 -60t145 80q18 74 86 74zM930 1194q-106 0 -194 -39t-146 -105q-170 -195 -170 -530q0 -336 332 -336q302 0 436 296q72 160 74 376
q0 338 -332 338zM715 -29q-264 0 -404 130q-139 130 -139 386q0 412 207 666t588 254q264 0 403 -130t139 -386q-1 -412 -207 -666t-587 -254z" />
    <glyph glyph-name="obreve" unicode="&#x14f;" horiz-adv-x="1015" 
d="M971 1364q29 0 46 -18t17 -46q0 -111 -92 -170t-218 -59q-263 0 -261 182q0 51 25 81q26 30 60 30t50 -18t16 -46l-2 -30q0 -60 127 -60t145 77t87 77zM537 162q145 0 218 124t72 283q0 201 -182 201q-145 0 -218 -124t-73 -284q1 -200 183 -200zM129 330q0 251 132 439
q131 189 435 189q160 0 258 -89t99 -267q0 -251 -127 -432q-136 -196 -440 -196q-160 0 -259 88q-98 89 -98 268z" />
    <glyph glyph-name="Ohungarumlaut" unicode="&#x150;" horiz-adv-x="1437" 
d="M1176 1479q-54 -41 -96 1t7 91l213 221q27 29 61 27t60 -33q55 -68 -14 -123zM874 1479q-53 -41 -95 1t7 91l213 221q27 29 61 27t60 -33q55 -68 -14 -123zM930 1194q-106 0 -194 -39t-146 -105q-170 -195 -170 -530q0 -336 332 -336q302 0 436 296q72 160 74 376
q0 338 -332 338zM715 -29q-264 0 -404 130q-139 130 -139 386q0 412 207 666t588 254q264 0 403 -130t139 -386q-1 -412 -207 -666t-587 -254z" />
    <glyph glyph-name="ohungarumlaut" unicode="&#x151;" horiz-adv-x="1015" 
d="M883 1053q-54 -41 -96 1t8 91l213 221q26 29 60 27t60 -33q55 -68 -14 -123zM582 1053q-54 -41 -96 1t8 91l213 221q27 29 61 27t59 -33q55 -68 -14 -123zM537 162q145 0 218 124t72 283q0 201 -182 201q-145 0 -218 -124t-73 -284q1 -200 183 -200zM129 330
q0 251 132 439q131 189 435 189q160 0 258 -89t99 -267q0 -251 -127 -432q-136 -196 -440 -196q-160 0 -259 88q-98 89 -98 268z" />
    <glyph glyph-name="OE" unicode="&#x152;" horiz-adv-x="1880" 
d="M938 1194q-223 0 -348 -143q-170 -197 -170 -532t332 -335q111 0 223 54l160 909q-83 47 -197 47zM1698 799q40 0 64 -26q24 -27 24 -69t-38 -78t-87 -36h-387l-66 -377h543q39 0 64 -26q25 -25 25 -69t-40 -81q-39 -37 -88 -37h-661q-35 0 -54 18q-137 -47 -282 -47
q-264 0 -404 130q-139 130 -139 386q0 412 207 666t588 254q164 0 266 -51q27 23 61 22h639q39 0 65 -26t26 -69q0 -44 -40 -81q-38 -37 -88 -37h-520l-65 -366h387z" />
    <glyph glyph-name="oe" unicode="&#x153;" horiz-adv-x="1628" 
d="M1331 772q-205 0 -276 -219q408 0 407 141q0 31 -30 55q-31 23 -101 23zM537 162q145 0 218 124t72 283q0 201 -182 201q-145 0 -218 -124t-73 -284q1 -200 183 -200zM1214 172q104 0 211 64q82 48 135 -7q28 -29 28 -71t-42 -76q-135 -109 -361 -109t-313 152
q-156 -152 -351 -152q-392 0 -392 357q0 251 127 432q63 90 172 143t250 53q209 0 311 -149q135 150 354 149q156 0 247 -72t91 -179q-1 -63 -23 -113t-85 -101q-134 -106 -545 -106q-6 -25 -6 -57q-1 -158 192 -158z" />
    <glyph glyph-name="Racute" unicode="&#x154;" horiz-adv-x="1146" 
d="M776 1479q-53 -41 -95 1t7 91l209 221q25 29 61 28t64 -34q59 -72 -12 -127zM836 1165h-271l-76 -428h277q104 0 165 78q60 78 60 166q0 184 -155 184zM483 1378h391q174 0 270 -101t95 -266q0 -165 -109 -307t-284 -161l237 -385q15 -23 15 -64t-35 -76q-35 -34 -95 -34
t-89 55l-279 489h-145l-76 -426q-8 -49 -50 -84q-42 -34 -91 -34t-78 34t-19 84l203 1158q10 50 50 84t89 34z" />
    <glyph glyph-name="racute" unicode="&#x155;" horiz-adv-x="663" 
d="M600 1053q-53 -41 -95 1t7 91l209 221q25 29 61 28t64 -34q59 -72 -12 -127zM709 956q43 0 67 -26t25 -68q0 -43 -38 -79t-85 -35q-104 0 -174 -62t-88 -166l-76 -426q-8 -45 -45 -78q-37 -32 -85 -32t-74 30t-17 80l131 742q8 46 45 78t84 32t72 -31t18 -96
q92 137 240 137z" />
    <glyph glyph-name="Rcommaaccent" unicode="&#x156;" horiz-adv-x="1146" 
d="M578 -80q90 0 90 -84q0 -112 -72 -220t-162 -169q-16 -10 -30 -10t-25 11q-10 10 -10 26t16 30q96 84 96 160q0 27 -16 68q-16 42 -16 82t33 73q35 33 96 33zM836 1165h-271l-76 -428h277q104 0 165 78q60 78 60 166q0 184 -155 184zM483 1378h391q174 0 270 -101
t95 -266q0 -165 -109 -307t-284 -161l237 -385q15 -23 15 -64t-35 -76q-35 -34 -95 -34t-89 55l-279 489h-145l-76 -426q-8 -49 -50 -84q-42 -34 -91 -34t-78 34t-19 84l203 1158q10 50 50 84t89 34z" />
    <glyph glyph-name="rcommaaccent" unicode="&#x157;" horiz-adv-x="663" 
d="M201 -80q90 0 90 -84q0 -112 -72 -220t-162 -169q-16 -10 -30 -10t-25 11q-10 10 -10 26t16 30q96 84 96 160q0 27 -16 68q-16 42 -16 82t33 73q35 33 96 33zM709 956q43 0 67 -26t25 -68q0 -43 -38 -79t-85 -35q-104 0 -174 -62t-88 -166l-76 -426q-8 -45 -45 -78
q-37 -32 -85 -32t-74 30t-17 80l131 742q8 46 45 78t84 32t72 -31t18 -96q92 137 240 137z" />
    <glyph glyph-name="Rcaron" unicode="&#x158;" horiz-adv-x="1146" 
d="M800 1464q-22 0 -44 17l-160 129q-31 26 -31 62t23 59q22 23 54 23t52 -17l125 -103l168 105q20 14 52 14q32 1 55 -23q22 -24 22 -65t-43 -63l-215 -119q-36 -19 -58 -19zM836 1165h-271l-76 -428h277q104 0 165 78q60 78 60 166q0 184 -155 184zM483 1378h391
q174 0 270 -101t95 -266q0 -165 -109 -307t-284 -161l237 -385q15 -23 15 -64t-35 -76q-35 -34 -95 -34t-89 55l-279 489h-145l-76 -426q-8 -49 -50 -84q-42 -34 -91 -34t-78 34t-19 84l203 1158q10 50 50 84t89 34z" />
    <glyph glyph-name="rcaron" unicode="&#x159;" horiz-adv-x="663" 
d="M546 1057q-24 0 -46 16l-160 129q-31 25 -31 61q0 35 24 59q25 24 55 24t50 -17l125 -102l168 104q23 15 53 15t54 -24q22 -24 22 -64t-43 -64l-215 -119q-32 -18 -56 -18zM709 956q43 0 67 -26t25 -68q0 -43 -38 -79t-85 -35q-104 0 -174 -62t-88 -166l-76 -426
q-8 -45 -45 -78q-37 -32 -85 -32t-74 30t-17 80l131 742q8 46 45 78t84 32t72 -31t18 -96q92 137 240 137z" />
    <glyph glyph-name="Sacute" unicode="&#x15a;" horiz-adv-x="1173" 
d="M848 1479q-53 -41 -95 1t7 91l209 221q25 29 61 28t64 -34q59 -72 -13 -127zM820 1194q-148 0 -214 -53t-66 -123t66 -117t160 -80t189 -73t161 -116q66 -77 66 -190q0 -217 -152 -344t-442 -127q-170 0 -298 82t-173 183q-11 20 -11 55t32 67t80 31q48 0 85 -45
q129 -156 324 -156q147 0 230 56t83 155q0 70 -67 118t-161 81t-188 72q-94 38 -160 114t-67 187q0 184 141 310t404 126q147 0 267 -62t163 -147q12 -26 12 -60t-32 -66t-76 -32t-82 37q-126 117 -274 117z" />
    <glyph glyph-name="sacute" unicode="&#x15b;" horiz-adv-x="870" 
d="M627 1053q-54 -41 -96 1t8 91l209 221q26 29 62 28t62 -34q59 -72 -12 -127zM567 766q-135 0 -135 -86q0 -72 154 -125q62 -23 126 -51t109 -81q45 -52 45 -124q0 -152 -112 -237t-318 -85q-119 -1 -210 49q-142 77 -142 158q0 41 30 70t66 29t70 -27q92 -82 221 -82
q76 0 122 26t46 70q0 70 -218 138q-81 25 -150 88t-68 157q0 152 108 229q109 77 277 76q104 0 194 -40q137 -62 140 -148q0 -41 -29 -70q-61 -61 -139 0q-78 66 -187 66z" />
    <glyph glyph-name="Scircumflex" unicode="&#x15c;" horiz-adv-x="1173" 
d="M932 1753q22 0 45 -16l160 -129q31 -25 31 -61q0 -35 -24 -59q-22 -24 -54 -24t-52 17l-125 102l-168 -104q-23 -15 -53 -15t-54 24q-22 24 -22 64t43 64l215 119q36 18 58 18zM820 1194q-148 0 -214 -53t-66 -123t66 -117t160 -80t189 -73t161 -116q66 -77 66 -190
q0 -217 -152 -344t-442 -127q-170 0 -298 82t-173 183q-11 20 -11 55t32 67t80 31q48 0 85 -45q129 -156 324 -156q147 0 230 56t83 155q0 70 -67 118t-161 81t-188 72q-94 38 -160 114t-67 187q0 184 141 310t404 126q147 0 267 -62t163 -147q12 -26 12 -60t-32 -66
t-76 -32t-82 37q-126 117 -274 117z" />
    <glyph glyph-name="scircumflex" unicode="&#x15d;" horiz-adv-x="870" 
d="M691 1346q24 0 46 -17l160 -129q31 -26 31 -62t-24 -59t-54 -23t-51 17l-125 103l-168 -105q-24 -14 -54 -14q-30 -1 -53 23t-23 65t44 63l215 119q32 19 56 19zM567 766q-135 0 -135 -86q0 -72 154 -125q62 -23 126 -51t109 -81q45 -52 45 -124q0 -152 -112 -237
t-318 -85q-119 -1 -210 49q-142 77 -142 158q0 41 30 70t66 29t70 -27q92 -82 221 -82q76 0 122 26t46 70q0 70 -218 138q-81 25 -150 88t-68 157q0 152 108 229q109 77 277 76q104 0 194 -40q137 -62 140 -148q0 -41 -29 -70q-61 -61 -139 0q-78 66 -187 66z" />
    <glyph glyph-name="Scedilla" unicode="&#x15e;" horiz-adv-x="1173" 
d="M218 389q48 0 85 -45q129 -156 324 -156q147 0 230 56t83 155q0 70 -67 118t-161 81t-188 72q-94 38 -160 114t-67 187q0 184 141 310t404 126q147 0 267 -62t163 -147q12 -26 12 -60t-32 -66t-76 -32t-82 37q-126 117 -274 117t-214 -53t-66 -123t66 -117t160 -80
t189 -73t161 -116q66 -77 66 -190q0 -217 -152 -344t-442 -127l-35 2l-16 -82q127 26 194 -32q45 -39 45 -128t-65 -152q-65 -62 -175 -62t-169 43q-25 18 -25 43t15 40t33 15t30 -6q51 -29 121 -29q119 0 118 109q0 70 -98 69l-92 -12q-43 0 -35 45l27 152q-125 26 -217 98
t-127 152q-11 20 -11 55t32 67t80 31z" />
    <glyph glyph-name="scedilla" unicode="&#x15f;" horiz-adv-x="870" 
d="M84 192q0 34 30 62q30 29 66 29t70 -27q92 -82 221 -82q76 0 122 26t46 70q0 70 -218 138q-81 25 -150 88t-68 157q0 152 108 229q109 77 277 76q104 0 194 -40q137 -62 140 -148q0 -41 -29 -70q-61 -61 -139 0q-78 66 -187 66q-135 0 -135 -86q0 -72 154 -125
q62 -23 126 -51t109 -81q45 -52 45 -124q0 -152 -112 -237t-320 -85l-22 -86q127 26 194 -32q45 -39 45 -128t-65 -152q-66 -62 -176 -62t-168 43q-25 18 -25 43t16 40q17 15 33 15t29 -6q51 -29 121 -29q119 0 119 109q0 70 -99 69l-92 -12q-43 0 -35 45l27 154
q-166 37 -238 147q-14 23 -14 57z" />
    <glyph glyph-name="Scaron" unicode="&#x160;" horiz-adv-x="1173" 
d="M884 1464q-24 0 -46 17l-160 129q-31 26 -31 62t23 59q22 23 54 23t52 -17l125 -103l168 105q20 14 52 14q32 1 55 -23q22 -24 22 -65t-43 -63l-215 -119q-32 -19 -56 -19zM820 1194q-148 0 -214 -53t-66 -123t66 -117t160 -80t189 -73t161 -116q66 -77 66 -190
q0 -217 -152 -344t-442 -127q-170 0 -298 82t-173 183q-11 20 -11 55t32 67t80 31q48 0 85 -45q129 -156 324 -156q147 0 230 56t83 155q0 70 -67 118t-161 81t-188 72q-94 38 -160 114t-67 187q0 184 141 310t404 126q147 0 267 -62t163 -147q12 -26 12 -60t-32 -66
t-76 -32t-82 37q-126 117 -274 117z" />
    <glyph glyph-name="scaron" unicode="&#x161;" horiz-adv-x="870" 
d="M626 1057q-22 0 -44 16l-160 129q-31 25 -31 61q0 35 24 59q25 24 55 24t50 -17l125 -102l168 104q20 15 52 15t55 -24q22 -24 22 -64t-43 -64l-215 -119q-36 -18 -58 -18zM567 766q-135 0 -135 -86q0 -72 154 -125q62 -23 126 -51t109 -81q45 -52 45 -124
q0 -152 -112 -237t-318 -85q-119 -1 -210 49q-142 77 -142 158q0 41 30 70t66 29t70 -27q92 -82 221 -82q76 0 122 26t46 70q0 70 -218 138q-81 25 -150 88t-68 157q0 152 108 229q109 77 277 76q104 0 194 -40q137 -62 140 -148q0 -41 -29 -70q-61 -61 -139 0
q-78 66 -187 66z" />
    <glyph glyph-name="Tcommaaccent" unicode="&#x162;" horiz-adv-x="1159" 
d="M563 -80q90 0 90 -84q1 -112 -71 -220t-162 -169q-16 -10 -30 -10t-24 11q-28 28 5 56q96 84 96 160q0 27 -16 68q-17 42 -17 82t34 73t95 33zM354 1169q-40 0 -64 26t-24 69q0 42 38 78t87 36h864q39 0 64 -26t25 -68q0 -43 -38 -79t-87 -36h-314l-188 -1067
q-10 -49 -50 -84q-40 -34 -89 -34t-78 34t-21 84l189 1067h-314z" />
    <glyph glyph-name="tcommaaccent" unicode="&#x163;" horiz-adv-x="626" 
d="M336 -80q90 0 90 -84q0 -112 -72 -220t-161 -169q-17 -10 -31 -10t-25 11q-10 10 -10 26t16 30q96 84 97 160q0 27 -17 68q-16 42 -16 82t34 73t95 33zM647 930q33 0 55 -23t21 -61q0 -38 -33 -69q-33 -32 -76 -32h-92l-86 -477q-4 -20 -4 -41t20 -36t52 -15t54 -24
t22 -64q0 -41 -34 -73t-95 -31q-117 0 -178 59q-60 59 -60 162q0 27 6 57l86 483h-47q-34 0 -56 23q-22 22 -22 60t34 70t77 32h47l29 172q8 45 46 77q38 31 83 31q44 0 70 -32t18 -76l-31 -172h94z" />
    <glyph glyph-name="Tcaron" unicode="&#x164;" horiz-adv-x="1159" 
d="M839 1464q-24 0 -46 17l-160 129q-31 26 -31 62t23 59t55 23t51 -17l125 -103l168 105q20 14 52 14q32 1 54 -23t23 -65q0 -41 -43 -63l-215 -119q-32 -19 -56 -19zM354 1169q-40 0 -64 26t-24 69q0 42 38 78t87 36h864q39 0 64 -26t25 -68q0 -43 -38 -79t-87 -36h-314
l-188 -1067q-10 -49 -50 -84q-40 -34 -89 -34t-78 34t-21 84l189 1067h-314z" />
    <glyph glyph-name="tcaron" unicode="&#x165;" horiz-adv-x="964" 
d="M1034 1456q113 0 113 -106q0 -148 -89 -274t-208 -214q-14 -10 -30 -10t-30 13q-32 32 5 69q63 63 92 106q29 44 29 86t-21 93q-20 51 -21 81q0 74 42 115t118 41zM647 930q33 0 55 -23t21 -61q0 -38 -33 -69q-33 -32 -76 -32h-92l-86 -477q-4 -20 -4 -41t20 -36t52 -15
t54 -24t22 -64q0 -41 -34 -73t-95 -31q-117 0 -178 59q-60 59 -60 162q0 27 6 57l86 483h-47q-34 0 -56 23q-22 22 -22 60t34 70t77 32h47l29 172q8 45 46 77q38 31 83 31q44 0 70 -32t18 -76l-31 -172h94z" />
    <glyph glyph-name="Tbar" unicode="&#x166;" horiz-adv-x="1159" 
d="M1219 1169h-314l-63 -354h116q37 -1 61 -25q23 -24 23 -64t-36 -74t-82 -34h-117l-90 -516q-10 -49 -50 -84q-40 -34 -90 -34t-79 34t-19 84l90 516h-116q-35 0 -59 25t-24 65t36 73q35 34 81 34h117l64 354h-314q-40 0 -64 26t-24 69q0 42 37 78t88 36h864q39 0 64 -26
t25 -68q0 -43 -38 -79t-87 -36z" />
    <glyph glyph-name="tbar" unicode="&#x167;" horiz-adv-x="626" 
d="M608 631q30 1 48 -19t18 -52t-29 -58t-63 -27h-109l-39 -225q-6 -33 14 -53q20 -21 54 -21q32 0 56 -24t24 -62q0 -39 -36 -73t-79 -33q-119 0 -185 60t-67 161q0 27 6 57l37 213h-61q-29 -1 -47 19t-18 52t28 58q29 26 63 27h62l20 114h-47q-34 0 -56 23q-22 22 -22 60
t34 70t77 32h47l31 172q8 45 45 77q37 31 82 31q46 0 72 -32t18 -76l-31 -172h92q33 0 55 -23t23 -61q0 -38 -34 -69q-34 -32 -77 -32h-92l-20 -114h106z" />
    <glyph glyph-name="Utilde" unicode="&#x168;" horiz-adv-x="1267" 
d="M807 1714q61 0 140 -34t107 -35t58 33t66 34t58 -22t22 -53q0 -30 -13 -50q-57 -94 -194 -94q-63 0 -143 35t-106 35q-28 0 -58 -34t-66 -34t-58 23q-22 22 -22 52t12 50q57 94 197 94zM487 1395q49 0 78 -35t21 -84l-146 -825q-6 -33 -6 -76q0 -195 238 -195
q276 0 325 271l146 825q10 49 50 84t89 35t78 -35t20 -84l-145 -825q-48 -270 -202 -378q-139 -102 -381 -102q-242 -1 -350 101t-107 262q0 51 10 117l143 825q10 49 50 84t89 35z" />
    <glyph glyph-name="utilde" unicode="&#x169;" 
d="M592 1296q61 0 140 -34t107 -35q29 0 59 34q30 33 64 33t58 -22t22 -53q0 -30 -12 -50q-57 -94 -194 -94q-62 0 -142 35t-108 35t-57 -34q-31 -34 -65 -34t-58 23q-24 22 -23 52q0 30 12 50q57 94 197 94zM370 946q46 0 72 -32t19 -78l-84 -478q-6 -35 -6 -59
q0 -125 157 -125q182 0 215 184l84 478q8 46 46 78t84 32t73 -32t19 -78l-84 -478q-31 -176 -131 -280t-326 -105q-362 0 -363 279q0 45 11 106l84 478q8 46 46 78t84 32z" />
    <glyph glyph-name="Umacron" unicode="&#x16a;" horiz-adv-x="1267" 
d="M1116 1657q30 1 48 -19t18 -52t-29 -58t-63 -27h-355q-29 -1 -47 19t-18 52t28 58t64 27h354zM487 1395q49 0 78 -35t21 -84l-146 -825q-6 -33 -6 -76q0 -195 238 -195q276 0 325 271l146 825q10 49 50 84t89 35t78 -35t20 -84l-145 -825q-48 -270 -202 -378
q-139 -102 -381 -102q-242 -1 -350 101t-107 262q0 51 10 117l143 825q10 49 50 84t89 35z" />
    <glyph glyph-name="umacron" unicode="&#x16b;" 
d="M897 1229q29 1 47 -19t19 -52q0 -32 -29 -58t-64 -27h-354q-29 -1 -47 19t-18 52q1 32 29 58t63 27h354zM370 946q46 0 72 -32t19 -78l-84 -478q-6 -35 -6 -59q0 -125 157 -125q182 0 215 184l84 478q8 46 46 78t84 32t73 -32t19 -78l-84 -478q-31 -176 -131 -280
t-326 -105q-362 0 -363 279q0 45 11 106l84 478q8 46 46 78t84 32z" />
    <glyph glyph-name="Ubreve" unicode="&#x16c;" horiz-adv-x="1267" 
d="M1169 1784q27 0 45 -18t19 -46q-1 -111 -93 -170t-218 -59q-262 0 -260 182q0 51 25 81q26 30 60 30t50 -18t16 -46l-2 -30q0 -60 127 -60t145 80q18 74 86 74zM487 1395q49 0 78 -35t21 -84l-146 -825q-6 -33 -6 -76q0 -195 238 -195q276 0 325 271l146 825q10 49 50 84
t89 35t78 -35t20 -84l-145 -825q-48 -270 -202 -378q-139 -102 -381 -102q-242 -1 -350 101t-107 262q0 51 10 117l143 825q10 49 50 84t89 35z" />
    <glyph glyph-name="ubreve" unicode="&#x16d;" 
d="M950 1364q29 0 46 -18t18 -46q0 -111 -92 -170t-219 -59q-261 0 -261 182q0 51 26 81t60 30t50 -18t16 -46l-2 -30q0 -60 127 -60t145 80q18 74 86 74zM370 946q46 0 72 -32t19 -78l-84 -478q-6 -35 -6 -59q0 -125 157 -125q182 0 215 184l84 478q8 46 46 78t84 32
t73 -32t19 -78l-84 -478q-31 -176 -131 -280t-326 -105q-362 0 -363 279q0 45 11 106l84 478q8 46 46 78t84 32z" />
    <glyph glyph-name="Uring" unicode="&#x16e;" horiz-adv-x="1267" 
d="M973 1845q184 0 184 -153q1 -111 -67 -182t-189 -70q-184 0 -184 153q0 111 67 182q68 70 189 70zM920 1542q59 0 91 36t31 95q0 70 -88 70q-59 0 -91 -36t-32 -95q1 -70 89 -70zM487 1395q49 0 78 -35t21 -84l-146 -825q-6 -33 -6 -76q0 -195 238 -195q276 0 325 271
l146 825q10 49 50 84t89 35t78 -35t20 -84l-145 -825q-48 -270 -202 -378q-139 -102 -381 -102q-242 -1 -350 101t-107 262q0 51 10 117l143 825q10 49 50 84t89 35z" />
    <glyph glyph-name="uring" unicode="&#x16f;" 
d="M754 1432q184 0 184 -154q0 -112 -68 -182t-188 -70q-184 0 -184 154q0 112 68 182t188 70zM700 1128q59 0 92 36q32 36 31 96q0 70 -88 69q-59 0 -91 -36t-32 -95q0 -70 88 -70zM370 946q46 0 72 -32t19 -78l-84 -478q-6 -35 -6 -59q0 -125 157 -125q182 0 215 184
l84 478q8 46 46 78t84 32t73 -32t19 -78l-84 -478q-31 -176 -131 -280t-326 -105q-362 0 -363 279q0 45 11 106l84 478q8 46 46 78t84 32z" />
    <glyph glyph-name="Uhungarumlaut" unicode="&#x170;" horiz-adv-x="1267" 
d="M1067 1479q-53 -41 -95 1t7 91l213 221q26 29 60 27t61 -33q55 -68 -15 -123zM766 1479q-53 -41 -95 1t7 91l213 221q27 29 61 27t60 -33q55 -68 -15 -123zM487 1395q49 0 78 -35t21 -84l-146 -825q-6 -33 -6 -76q0 -195 238 -195q276 0 325 271l146 825q10 49 50 84
t89 35t78 -35t20 -84l-145 -825q-48 -270 -202 -378q-139 -102 -381 -102q-242 -1 -350 101t-107 262q0 51 10 117l143 825q10 49 50 84t89 35z" />
    <glyph glyph-name="uhungarumlaut" unicode="&#x171;" 
d="M864 1053q-53 -41 -95 1t7 91l213 221q27 29 61 27t60 -33q55 -68 -14 -123zM563 1053q-53 -41 -95 1t7 91l213 221q27 29 61 27t60 -33q55 -68 -14 -123zM370 946q46 0 72 -32t19 -78l-84 -478q-6 -35 -6 -59q0 -125 157 -125q182 0 215 184l84 478q8 46 46 78t84 32
t73 -32t19 -78l-84 -478q-31 -176 -131 -280t-326 -105q-362 0 -363 279q0 45 11 106l84 478q8 46 46 78t84 32z" />
    <glyph glyph-name="Uogonek" unicode="&#x172;" horiz-adv-x="1267" 
d="M836 -258l110 14q18 0 33 -14q14 -14 14 -37q0 -90 -184 -90q-90 0 -151 37q-60 37 -60 115q0 123 129 208q-49 -4 -74 -4q-243 -1 -351 101t-107 262q0 51 10 117l143 825q10 49 50 84t89 35t78 -35t21 -84l-146 -825q-6 -33 -6 -76q0 -195 238 -195q276 0 325 271
l146 825q10 49 50 84t89 35t78 -35t20 -84l-145 -825q-18 -107 -51 -187t-111 -156t-194 -108q-141 -92 -142 -180q0 -78 99 -78z" />
    <glyph glyph-name="uogonek" unicode="&#x173;" 
d="M760 -244q51 0 51 -57q0 -29 -39 -57t-137 -27q-98 0 -159 37q-60 37 -60 115q0 119 135 208q-12 -2 -43 -2q-362 0 -363 279q0 45 11 106l84 478q8 46 46 78t84 32t72 -32t19 -78l-84 -478q-6 -35 -6 -59q0 -125 157 -125q182 0 215 184l84 478q8 46 46 78t84 32t73 -32
t19 -78l-84 -478q-49 -291 -271 -358q-139 -90 -139 -180q0 -78 98 -78q29 0 61 7t46 7z" />
    <glyph glyph-name="Wcircumflex" unicode="&#x174;" horiz-adv-x="1716" 
d="M1158 1753q22 0 44 -16l160 -129q31 -25 31 -61q0 -35 -23 -59q-22 -24 -54 -24t-52 17l-125 102l-168 -104q-20 -15 -52 -15t-55 24q-22 24 -22 64t43 64l215 119q36 18 58 18zM506 -16q-39 0 -67 24t-31 58l-142 1165q-4 37 -4 47q0 47 35 82t82 35t80 -32t37 -73
l94 -837l385 856q39 86 129 86q40 0 68 -24t32 -62l82 -856l395 874q31 68 107 68q47 0 82 -35t35 -72t-15 -65l-557 -1157q-39 -82 -127 -82q-40 0 -68 24t-32 64l-88 839l-383 -839q-39 -88 -129 -88z" />
    <glyph glyph-name="wcircumflex" unicode="&#x175;" horiz-adv-x="1302" 
d="M892 1346q22 0 44 -17l160 -129q30 -26 30 -62t-22 -59t-54 -23t-53 17l-125 103l-167 -105q-21 -14 -53 -14q-32 -1 -54 23t-23 65q0 41 43 63l216 119q36 19 58 19zM170 847q0 35 32 67t76 32t74 -28t37 -62l88 -485l223 495q35 80 115 80q43 0 69 -24t29 -56l50 -495
l258 516q31 59 87 59t89 -33t33 -71t-17 -66l-416 -723q-39 -70 -114 -69q-37 0 -63 21q-25 21 -29 56l-48 449l-206 -447q-39 -80 -121 -79q-37 0 -62 20t-30 51l-148 731q-6 25 -6 61z" />
    <glyph glyph-name="Ycircumflex" unicode="&#x176;" horiz-adv-x="1134" 
d="M880 1753q24 0 46 -16l159 -129q31 -25 31 -61q0 -35 -24 -59t-54 -24q-31 0 -51 17l-125 102l-168 -104q-24 -15 -54 -15t-52 24t-23 64q0 40 43 64l215 119q33 18 57 18zM381 1395q74 0 102 -60l236 -481l389 492q39 49 92 49t88 -35t35 -81t-31 -83l-495 -567
l-92 -527q-11 -51 -49 -85q-38 -33 -91 -33t-81 34t-17 84l92 527l-287 598q-10 20 -10 59t35 74t84 35z" />
    <glyph glyph-name="ycircumflex" unicode="&#x177;" 
d="M750 1346q22 0 45 -17l159 -129q31 -26 31 -62q1 -36 -23 -59t-55 -23t-51 17l-125 103l-168 -105q-23 -14 -53 -14q-30 -1 -54 23q-22 24 -22 65t43 63l215 119q36 19 58 19zM285 -150q-1 -88 113 -88t190 60t100 180l39 188q-37 -57 -115 -106t-148 -78t-125 -70
q-54 -41 -54 -86zM370 946q46 0 72 -32t19 -78l-68 -379q-6 -33 -6 -60q0 -125 158 -125q184 0 217 185l65 379q8 46 46 78t84 32t73 -32t19 -78l-150 -861q-33 -195 -170 -291t-356 -96q-127 0 -210 56t-83 148t78 156t268 130q-264 37 -264 272q0 45 10 107l68 379
q8 46 46 78t84 32z" />
    <glyph glyph-name="Ydieresis" unicode="&#x178;" horiz-adv-x="1134" 
d="M1143 1647q0 -131 -123 -131q-86 0 -86 81q0 131 123 132q86 0 86 -82zM772 1647q0 -131 -123 -131q-86 0 -86 81q0 131 123 132q86 0 86 -82zM381 1395q74 0 102 -60l236 -481l389 492q39 49 92 49t88 -35t35 -81t-31 -83l-495 -567l-92 -527q-11 -51 -49 -85
q-38 -33 -91 -33t-81 34t-17 84l92 527l-287 598q-10 20 -10 59t35 74t84 35z" />
    <glyph glyph-name="Zacute" unicode="&#x179;" horiz-adv-x="1107" 
d="M811 1479q-53 -41 -95 1t7 91l209 221q26 29 62 28t63 -34q59 -72 -13 -127zM975 0h-838q-39 0 -65 26t-25 66q0 40 35 80l864 997h-565q-39 0 -63 26t-24 70q0 45 36 79q35 34 88 34h774q40 0 64 -26t24 -64q0 -39 -31 -74l-862 -1001h625q38 0 64 -26q26 -25 26 -69
t-39 -81t-88 -37z" />
    <glyph glyph-name="zacute" unicode="&#x17a;" horiz-adv-x="837" 
d="M602 1053q-53 -41 -95 1t7 91l209 221q25 29 61 28t64 -34q59 -72 -12 -127zM283 745q-33 1 -55 23t-23 60q0 38 34 70t76 32h527q34 0 58 -25t24 -61t-35 -76l-533 -580h371q33 0 55 -24t23 -62q0 -38 -34 -70t-77 -32h-565q-35 0 -57 24t-23 60q0 36 35 72l543 589
h-344z" />
    <glyph glyph-name="Zdotaccent" unicode="&#x17b;" horiz-adv-x="1107" 
d="M834 1495q-92 0 -93 82q0 133 129 133q90 0 91 -84q0 -131 -127 -131zM975 0h-838q-39 0 -65 26t-25 66q0 40 35 80l864 997h-565q-39 0 -63 26t-24 70q0 45 36 79q35 34 88 34h774q40 0 64 -26t24 -64q0 -39 -31 -74l-862 -1001h625q38 0 64 -26q26 -25 26 -69t-39 -81
t-88 -37z" />
    <glyph glyph-name="zdotaccent" unicode="&#x17c;" horiz-adv-x="837" 
d="M623 1100q-92 0 -93 82q0 133 129 133q90 0 91 -84q0 -131 -127 -131zM283 745q-33 1 -55 23t-23 60q0 38 34 70t76 32h527q34 0 58 -25t24 -61t-35 -76l-533 -580h371q33 0 55 -24t23 -62q0 -38 -34 -70t-77 -32h-565q-35 0 -57 24t-23 60q0 36 35 72l543 589h-344z" />
    <glyph glyph-name="Zcaron" unicode="&#x17d;" horiz-adv-x="1107" 
d="M822 1464q-22 0 -44 17l-160 129q-30 26 -30 62t23 59q24 23 55 23t51 -17l125 -103l168 105q20 14 52 14q32 1 54 -23t23 -65q0 -41 -43 -63l-215 -119q-37 -19 -59 -19zM975 0h-838q-39 0 -65 26t-25 66q0 40 35 80l864 997h-565q-39 0 -63 26t-24 70q0 45 36 79
q35 34 88 34h774q40 0 64 -26t24 -64q0 -39 -31 -74l-862 -1001h625q38 0 64 -26q26 -25 26 -69t-39 -81t-88 -37z" />
    <glyph glyph-name="zcaron" unicode="&#x17e;" horiz-adv-x="837" 
d="M613 1057q-24 0 -46 16l-159 129q-31 25 -31 61q1 35 23 59t54 24t52 -17l125 -102l168 104q20 15 52 15q33 0 55 -24t22 -64t-43 -64l-215 -119q-33 -18 -57 -18zM283 745q-33 1 -55 23t-23 60q0 38 34 70t76 32h527q34 0 58 -25t24 -61t-35 -76l-533 -580h371
q33 0 55 -24t23 -62q0 -38 -34 -70t-77 -32h-565q-35 0 -57 24t-23 60q0 36 35 72l543 589h-344z" />
    <glyph glyph-name="longs" unicode="&#x17f;" horiz-adv-x="561" 
d="M256 745q-34 0 -56 23q-22 22 -22 60t34 70t77 32h41l20 110q29 158 140 260q112 102 315 103q35 0 59 -24q24 -23 23 -63q0 -40 -35 -73q-34 -33 -98 -33t-115 -42t-64 -111l-172 -967q-8 -45 -45 -76q-37 -30 -85 -30q-47 0 -73 30t-18 76l115 655h-41z" />
    <glyph glyph-name="florin" unicode="&#x192;" horiz-adv-x="978" 
d="M710 1407q138 0 210 -53q41 -29 41 -73t-28 -72q-44 -44 -102 -19q-59 24 -110 24q-113 0 -143 -165l-43 -234h135q40 0 66 -27q26 -28 26 -66t-27 -65t-65 -26h-166l-119 -635q-76 -408 -436 -408q-86 0 -155 26t-68 91q0 41 27 70t53 29t65 -11q39 -10 78 -10
q94 0 146 52t73 163l113 633h-74q-39 1 -66 27t-26 65t27 65t65 27h108l43 236q31 164 123 260q91 96 229 96z" />
    <glyph glyph-name="AEmacron" unicode="&#x1e2;" horiz-adv-x="1769" 
d="M1599 1657q29 1 47 -19t19 -52q0 -32 -29 -58t-63 -27h-354q-29 -1 -47 19t-19 52q0 32 29 58t63 27h354zM1602 0h-662q-49 0 -78 33t-20 82l47 264h-342l-281 -348q-39 -47 -88 -47t-82 32t-33 76q0 43 31 78l971 1155q45 53 121 53h637q39 0 65 -26t25 -69
q0 -44 -39 -81t-88 -37h-520l-66 -366h387q39 0 64 -26q25 -27 25 -69t-39 -78q-38 -36 -87 -36h-387l-65 -377h542q39 0 64 -26q25 -25 25 -69t-39 -81t-88 -37zM715 596h213l59 340z" />
    <glyph glyph-name="aemacron" unicode="&#x1e3;" horiz-adv-x="1591" 
d="M1206 1229q30 1 48 -19t18 -52t-29 -58t-63 -27h-355q-29 -1 -47 19t-18 52t28 58t64 27h354zM1294 772q-205 0 -276 -219q408 0 407 141q0 31 -30 55q-31 23 -101 23zM348 340q0 -80 38 -131t103 -51q104 0 181 74q76 75 106 206q14 147 82 264q-88 63 -188 64
q-138 0 -230 -114t-92 -312zM1178 172q104 0 211 64q81 48 134 -7q27 -29 27 -71t-41 -76q-135 -109 -358 -109q-279 0 -354 215q-45 -80 -139 -148t-236 -67q-144 1 -222 95t-77 251q0 279 153 459q154 180 386 180q188 0 286 -139q145 139 359 139q157 0 247 -72t91 -179
q0 -229 -310 -292q-137 -28 -344 -28q-6 -25 -6 -57q0 -158 193 -158z" />
    <glyph glyph-name="Aringacute" unicode="&#x1fa;" horiz-adv-x="1277" 
d="M893 1749q-53 -41 -95 1t7 91l209 221q26 29 62 28t63 -34q59 -72 -13 -127zM885 1395q59 0 91 36t32 95q0 70 -88 69q-59 0 -92 -35q-32 -36 -31 -96q0 -69 88 -69zM920 575l-97 431l-250 -431h347zM938 1698q184 0 184 -154q0 -172 -139 -231l272 -1178q5 -12 5 -47
t-35 -70t-82 -34q-90 0 -113 86l-69 288h-506l-181 -315q-35 -59 -94 -59t-92 34t-33 73q0 40 19 71l686 1149q-78 37 -78 141t68 176q68 70 188 70z" />
    <glyph glyph-name="aringacute" unicode="&#x1fb;" horiz-adv-x="1011" 
d="M729 1452q-53 -41 -95 1t7 91l209 221q26 29 62 28t63 -34q59 -72 -12 -127zM766 1407q184 0 184 -154q0 -111 -68 -181t-188 -71q-184 0 -184 154q0 111 68 181t188 71zM713 1104q59 0 91 36t32 95q0 70 -88 70q-60 0 -92 -36t-31 -95q0 -70 88 -70zM348 340
q0 -80 38 -131t103 -51q111 0 187 83t102 226l45 250q-68 49 -153 49q-138 0 -230 -114t-92 -312zM422 -27q-143 -1 -221 95t-78 251q0 279 153 459q154 180 386 180q129 0 206 -73q35 61 107 61q45 0 71 -32t19 -78l-131 -742q-8 -47 -44 -79q-36 -31 -84 -31t-75 32
t-16 78l10 47q-102 -168 -303 -168z" />
    <glyph glyph-name="AEacute" unicode="&#x1fc;" horiz-adv-x="1769" 
d="M1366 1479q-53 -41 -95 1t7 91l209 221q25 29 61 28t64 -34q59 -72 -13 -127zM1602 0h-662q-49 0 -78 33t-20 82l47 264h-342l-281 -348q-39 -47 -88 -47t-82 32t-33 76q0 43 31 78l971 1155q45 53 121 53h637q39 0 65 -26t25 -69q0 -44 -39 -81t-88 -37h-520l-66 -366
h387q39 0 64 -26q25 -27 25 -69t-39 -78q-38 -36 -87 -36h-387l-65 -377h542q39 0 64 -26q25 -25 25 -69t-39 -81t-88 -37zM715 596h213l59 340z" />
    <glyph glyph-name="aeacute" unicode="&#x1fd;" horiz-adv-x="1591" 
d="M993 1053q-53 -41 -95 1t7 91l209 221q25 29 62 28t63 -34q59 -72 -12 -127zM1294 772q-205 0 -276 -219q408 0 407 141q0 31 -30 55q-31 23 -101 23zM348 340q0 -80 38 -131t103 -51q104 0 181 74q76 75 106 206q14 147 82 264q-88 63 -188 64q-138 0 -230 -114
t-92 -312zM1178 172q104 0 211 64q81 48 134 -7q27 -29 27 -71t-41 -76q-135 -109 -358 -109q-279 0 -354 215q-45 -80 -139 -148t-236 -67q-144 1 -222 95t-77 251q0 279 153 459q154 180 386 180q188 0 286 -139q145 139 359 139q157 0 247 -72t91 -179q0 -229 -310 -292
q-137 -28 -344 -28q-6 -25 -6 -57q0 -158 193 -158z" />
    <glyph glyph-name="Oslashacute" unicode="&#x1fe;" horiz-adv-x="1437" 
d="M961 1479q-54 -41 -96 1t7 91l209 221q25 29 62 28t63 -34q59 -72 -12 -127zM734 184q231 0 358 144q167 193 170 528q0 61 -13 115l-719 -725q80 -62 204 -62zM950 1194q-234 0 -360 -143q-170 -197 -170 -529q0 -66 12 -121l721 729q-77 64 -203 64zM715 -29
q-229 0 -363 95l-86 -86q-34 -33 -70 -33q-36 1 -63 27t-27 65t33 67l94 97q-61 113 -61 284q0 412 207 666t588 254q229 0 364 -98l82 84q33 33 70 33t63 -28q26 -26 27 -65q0 -39 -33 -67l-92 -92q61 -113 61 -283q-1 -412 -207 -666t-587 -254z" />
    <glyph glyph-name="oslashacute" unicode="&#x1ff;" horiz-adv-x="1017" 
d="M690 1053q-53 -41 -95 1t7 91l209 221q25 29 61 28t64 -34q59 -72 -12 -127zM645 770q-143 0 -216 -120t-75 -277l410 362q-47 35 -119 35zM544 162q93 0 162 66q123 119 121 343l-417 -368q41 -41 134 -41zM688 958q152 0 246 -73l57 51q29 25 62 25t57 -24
q24 -23 23 -59q0 -36 -29 -63l-74 -65q23 -68 23 -170t-32 -210q-32 -110 -95 -200t-172 -143q-110 -53 -264 -53t-250 77l-50 -43q-28 -24 -60 -24t-56 24t-25 60q0 35 29 61l69 61q-18 61 -18 162q0 100 32 210t95 200t172 143q108 53 260 53z" />
    <glyph glyph-name="Scommaaccent" unicode="&#x218;" horiz-adv-x="1173" 
d="M584 -80q90 0 90 -84q0 -112 -72 -220t-162 -169q-16 -10 -29 -10t-25 11q-11 10 -11 26t16 30q96 84 96 160q0 27 -16 68q-16 42 -16 82t33 73q35 33 96 33zM820 1194q-148 0 -214 -53t-66 -123t66 -117t160 -80t189 -73t161 -116q66 -77 66 -190q0 -217 -152 -344
t-442 -127q-170 0 -298 82t-173 183q-11 20 -11 55t32 67t80 31q48 0 85 -45q129 -156 324 -156q147 0 230 56t83 155q0 70 -67 118t-161 81t-188 72q-94 38 -160 114t-67 187q0 184 141 310t404 126q147 0 267 -62t163 -147q12 -26 12 -60t-32 -66t-76 -32t-82 37
q-126 117 -274 117z" />
    <glyph glyph-name="scommaaccent" unicode="&#x219;" horiz-adv-x="870" 
d="M432 -80q90 0 90 -84q0 -112 -72 -220t-161 -169q-15 -10 -29 -10t-26 11q-11 10 -11 26t17 30q96 84 96 160q0 27 -17 68q-16 42 -16 82t34 73t95 33zM567 766q-135 0 -135 -86q0 -72 154 -125q62 -23 126 -51t109 -81q45 -52 45 -124q0 -152 -112 -237t-318 -85
q-119 -1 -210 49q-142 77 -142 158q0 41 30 70t66 29t70 -27q92 -82 221 -82q76 0 122 26t46 70q0 70 -218 138q-81 25 -150 88t-68 157q0 152 108 229q109 77 277 76q104 0 194 -40q137 -62 140 -148q0 -41 -29 -70q-61 -61 -139 0q-78 66 -187 66z" />
    <glyph glyph-name="dotlessj" unicode="&#x237;" horiz-adv-x="436" 
d="M390 946q46 0 73 -32t18 -78l-149 -852q-25 -137 -135 -231q-111 -93 -254 -93q-37 0 -62 26t-25 68t36 76q36 35 86 35t87 34q36 34 46 85l149 852q8 46 46 78t84 32z" />
    <glyph glyph-name="circumflex" unicode="&#x2c6;" horiz-adv-x="684" 
d="M581 1346q24 0 46 -17l159 -129q31 -26 31 -62q1 -36 -23 -59t-55 -23t-51 17l-125 103l-168 -105q-23 -14 -53 -14q-30 -1 -54 23q-22 24 -22 65t43 63l215 119q33 19 57 19z" />
    <glyph glyph-name="caron" unicode="&#x2c7;" horiz-adv-x="684" 
d="M524 1057q-22 0 -45 16l-160 129q-31 25 -31 61q0 35 24 59t55 24t51 -17l125 -102l168 104q23 15 53 15t54 -24q22 -24 22 -64t-43 -64l-215 -119q-36 -18 -58 -18z" />
    <glyph glyph-name="breve" unicode="&#x2d8;" horiz-adv-x="669" 
d="M782 1364q29 0 46 -18t18 -46q0 -111 -92 -170t-219 -59q-261 0 -261 182q0 51 26 81t60 30t50 -18t16 -46l-2 -30q0 -60 127 -60t145 80q18 74 86 74z" />
    <glyph glyph-name="dotaccent" unicode="&#x2d9;" horiz-adv-x="589" 
d="M489 1100q-92 0 -92 82q0 133 129 133q90 0 90 -84q0 -131 -127 -131z" />
    <glyph glyph-name="ring" unicode="&#x2da;" horiz-adv-x="567" 
d="M535 1432q184 0 184 -154q0 -112 -68 -182t-188 -70q-184 0 -184 154q-1 112 67 182t189 70zM481 1128q59 0 91 36t32 96q0 70 -88 69q-59 0 -91 -36t-32 -95q0 -70 88 -70z" />
    <glyph glyph-name="ogonek" unicode="&#x2db;" horiz-adv-x="653" 
d="M319 -258l111 14q18 0 33 -14q14 -14 14 -37q0 -90 -184 -90q-90 0 -151 37q-60 37 -60 113q0 77 55 143t123 92h102q-141 -92 -141 -180q0 -78 98 -78z" />
    <glyph glyph-name="tilde" unicode="&#x2dc;" horiz-adv-x="804" 
d="M489 1296q61 0 140 -34t107 -35q28 0 59 34q31 33 65 33t56 -22q24 -22 24 -53q0 -30 -12 -50q-57 -94 -195 -94q-63 0 -142 35t-107 35t-58 -34t-64 -34t-58 23q-24 22 -24 52t13 50q57 94 196 94z" />
    <glyph glyph-name="hungarumlaut" unicode="&#x2dd;" horiz-adv-x="1040" 
d="M803 1053q-53 -41 -95 1t7 91l213 221q26 29 60 27t61 -33q55 -68 -15 -123zM502 1053q-53 -41 -95 1t7 91l213 221q27 29 61 27t60 -33q55 -68 -15 -123z" />
    <glyph glyph-name="Wgrave" unicode="&#x1e80;" horiz-adv-x="1716" 
d="M1282 1569q31 -49 -13 -90t-85 0l-189 180q-25 20 -20 58q4 38 41 69q85 62 125 2zM506 -16q-39 0 -67 24t-31 58l-142 1165q-4 37 -4 47q0 47 35 82t82 35t80 -32t37 -73l94 -837l385 856q39 86 129 86q40 0 68 -24t32 -62l82 -856l395 874q31 68 107 68q47 0 82 -35
t35 -72t-15 -65l-557 -1157q-39 -82 -127 -82q-40 0 -68 24t-32 64l-88 839l-383 -839q-39 -88 -129 -88z" />
    <glyph glyph-name="wgrave" unicode="&#x1e81;" horiz-adv-x="1302" 
d="M999 1143q31 -49 -13 -90t-85 0l-188 180q-25 20 -21 58t41 69q85 62 125 2zM170 847q0 35 32 67t76 32t74 -28t37 -62l88 -485l223 495q35 80 115 80q43 0 69 -24t29 -56l50 -495l258 516q31 59 87 59t89 -33t33 -71t-17 -66l-416 -723q-39 -70 -114 -69q-37 0 -63 21
q-25 21 -29 56l-48 449l-206 -447q-39 -80 -121 -79q-37 0 -62 20t-30 51l-148 731q-6 25 -6 61z" />
    <glyph glyph-name="Wacute" unicode="&#x1e82;" horiz-adv-x="1716" 
d="M1063 1479q-53 -41 -95 1t7 91l209 221q26 29 62 28t63 -34q59 -72 -13 -127zM506 -16q-39 0 -67 24t-31 58l-142 1165q-4 37 -4 47q0 47 35 82t82 35t80 -32t37 -73l94 -837l385 856q39 86 129 86q40 0 68 -24t32 -62l82 -856l395 874q31 68 107 68q47 0 82 -35t35 -72
t-15 -65l-557 -1157q-39 -82 -127 -82q-40 0 -68 24t-32 64l-88 839l-383 -839q-39 -88 -129 -88z" />
    <glyph glyph-name="wacute" unicode="&#x1e83;" horiz-adv-x="1302" 
d="M803 1053q-53 -41 -95 1t7 91l209 221q26 29 62 28t63 -34q59 -72 -13 -127zM170 847q0 35 32 67t76 32t74 -28t37 -62l88 -485l223 495q35 80 115 80q43 0 69 -24t29 -56l50 -495l258 516q31 59 87 59t89 -33t33 -71t-17 -66l-416 -723q-39 -70 -114 -69q-37 0 -63 21
q-25 21 -29 56l-48 449l-206 -447q-39 -80 -121 -79q-37 0 -62 20t-30 51l-148 731q-6 25 -6 61z" />
    <glyph glyph-name="Wdieresis" unicode="&#x1e84;" horiz-adv-x="1716" 
d="M1434 1647q0 -131 -123 -131q-86 0 -86 81q0 131 123 132q86 0 86 -82zM1063 1647q0 -131 -123 -131q-86 0 -86 81q0 131 123 132q86 0 86 -82zM506 -16q-39 0 -67 24t-31 58l-142 1165q-4 37 -4 47q0 47 35 82t82 35t80 -32t37 -73l94 -837l385 856q39 86 129 86
q40 0 68 -24t32 -62l82 -856l395 874q31 68 107 68q47 0 82 -35t35 -72t-15 -65l-557 -1157q-39 -82 -127 -82q-40 0 -68 24t-32 64l-88 839l-383 -839q-39 -88 -129 -88z" />
    <glyph glyph-name="wdieresis" unicode="&#x1e85;" horiz-adv-x="1302" 
d="M1028 1067q-86 0 -86 82q0 131 123 131q86 0 86 -82q0 -63 -32 -97t-91 -34zM657 1067q-86 0 -86 82q0 131 123 131q86 0 86 -82q0 -63 -32 -97t-91 -34zM170 847q0 35 32 67t76 32t74 -28t37 -62l88 -485l223 495q35 80 115 80q43 0 69 -24t29 -56l50 -495l258 516
q31 59 87 59t89 -33t33 -71t-17 -66l-416 -723q-39 -70 -114 -69q-37 0 -63 21q-25 21 -29 56l-48 449l-206 -447q-39 -80 -121 -79q-37 0 -62 20t-30 51l-148 731q-6 25 -6 61z" />
    <glyph glyph-name="Ygrave" unicode="&#x1ef2;" horiz-adv-x="1134" 
d="M934 1569q31 -49 -13 -90t-85 0l-189 180q-25 20 -20 58q4 38 41 69q84 60 125 2zM381 1395q74 0 102 -60l236 -481l389 492q39 49 92 49t88 -35t35 -81t-31 -83l-495 -567l-92 -527q-11 -51 -49 -85q-38 -33 -91 -33t-81 34t-17 84l92 527l-287 598q-10 20 -10 59t35 74
t84 35z" />
    <glyph glyph-name="ygrave" unicode="&#x1ef3;" 
d="M801 1143q30 -49 -14 -90t-85 0l-188 180q-25 20 -20 58q4 38 41 69q85 61 124 2zM285 -150q-1 -88 113 -88t190 60t100 180l39 188q-37 -57 -115 -106t-148 -78t-125 -70q-54 -41 -54 -86zM370 946q46 0 72 -32t19 -78l-68 -379q-6 -33 -6 -60q0 -125 158 -125
q184 0 217 185l65 379q8 46 46 78t84 32t73 -32t19 -78l-150 -861q-33 -195 -170 -291t-356 -96q-127 0 -210 56t-83 148t78 156t268 130q-264 37 -264 272q0 45 10 107l68 379q8 46 46 78t84 32z" />
    <glyph glyph-name="thinspace" unicode="&#x2009;" horiz-adv-x="30" 
 />
    <glyph glyph-name="endash" unicode="&#x2013;" horiz-adv-x="1165" 
d="M1018 672q34 0 56 -24t22 -62q0 -39 -34 -71t-77 -32h-633q-36 0 -58 24q-22 25 -22 63t35 70t78 32h633z" />
    <glyph glyph-name="emdash" unicode="&#x2014;" horiz-adv-x="1800" 
d="M1653 672q33 0 55 -24t23 -62q0 -39 -34 -71t-77 -32h-1268q-36 0 -58 24q-22 25 -22 63t35 70t78 32h1268z" />
    <glyph glyph-name="quoteleft" unicode="&#x2018;" horiz-adv-x="411" 
d="M332 791q-113 0 -113 106q0 147 89 273t208 214q34 24 61 -3q13 -13 13 -31t-19 -37q-63 -63 -92 -107t-29 -85q0 -42 21 -93q20 -51 21 -82q0 -74 -42 -114t-118 -41z" />
    <glyph glyph-name="quoteright" unicode="&#x2019;" horiz-adv-x="411" 
d="M465 1395q113 0 113 -107q0 -147 -90 -273t-207 -214q-15 -10 -31 -10t-30 13q-13 14 -13 32t18 36q63 62 92 106t29 86t-20 93t-21 82q0 74 42 115t118 41z" />
    <glyph glyph-name="quotesinglbase" unicode="&#x201a;" horiz-adv-x="448" 
d="M262 254q113 0 113 -107q0 -147 -89 -273t-208 -214q-14 -10 -30 -10t-31 13q-13 13 -13 31t19 38q63 63 92 106t29 85t-21 93q-20 51 -21 82q0 74 42 115t118 41z" />
    <glyph glyph-name="quotedblleft" unicode="&#x201c;" horiz-adv-x="745" 
d="M666 791q-113 0 -113 106q0 147 89 273t208 214q34 25 63 -5t-8 -66q-63 -63 -92 -107t-29 -85q0 -42 20 -93t21 -82q1 -74 -41 -114t-118 -41zM332 791q-113 0 -113 106q0 147 89 273t208 214q34 24 61 -3q13 -13 13 -31t-19 -37q-63 -63 -92 -107t-29 -85q0 -42 21 -93
q20 -51 21 -82q0 -74 -42 -114t-118 -41z" />
    <glyph glyph-name="quotedblright" unicode="&#x201d;" horiz-adv-x="745" 
d="M465 1395q113 0 113 -107q0 -147 -90 -273t-207 -214q-15 -10 -31 -10t-30 13q-13 14 -13 32t18 36q63 62 92 106t29 86t-20 93t-21 82q0 74 42 115t118 41zM799 1395q113 0 112 -107q0 -147 -89 -273t-208 -214q-14 -10 -30 -10t-30 13q-13 14 -13 32t18 36
q63 62 92 106t29 86t-21 93q-20 51 -20 82q0 74 42 115t118 41z" />
    <glyph glyph-name="quotedblbase" unicode="&#x201e;" horiz-adv-x="782" 
d="M262 254q113 0 113 -107q0 -147 -89 -273t-208 -214q-14 -10 -30 -10t-31 13q-13 13 -13 31t19 38q63 63 92 106t29 85t-21 93q-20 51 -21 82q0 74 42 115t118 41zM596 254q113 0 113 -107q0 -147 -89 -273t-208 -214q-14 -10 -30 -10t-31 13q-13 13 -13 31t18 38
q63 63 93 106q49 73 8 178q-20 51 -21 82q0 74 42 115t118 41z" />
    <glyph glyph-name="dagger" unicode="&#x2020;" horiz-adv-x="931" 
d="M410 -307q-78 0 -66 78l182 1099h-172q-72 0 -71 74q0 51 26 82q27 31 78 31h170l49 309q12 92 117 92q100 0 84 -92l-57 -309h165q72 0 72 -72q-1 -51 -27 -83t-77 -32h-168l-211 -1099q-16 -78 -94 -78z" />
    <glyph glyph-name="daggerdbl" unicode="&#x2021;" horiz-adv-x="931" 
d="M760 178q72 0 71 -74q-1 -52 -27 -82t-77 -30h-168l-51 -309q-16 -92 -115 -93q-100 0 -84 93l60 309h-170q-72 0 -72 71q0 51 28 83t76 32h172l74 346l49 346h-172q-72 0 -71 74q0 51 26 82q27 31 78 31h170l49 309q12 92 114 92t85 -92l-57 -309h167q72 0 72 -72
q0 -51 -28 -83t-76 -32h-168l-72 -346l-51 -346h168z" />
    <glyph glyph-name="bullet" unicode="&#x2022;" horiz-adv-x="856" 
d="M537 305q-267 1 -267 273t266 272t267 -272q0 -272 -266 -273z" />
    <glyph glyph-name="perthousand" unicode="&#x2030;" horiz-adv-x="2293" 
d="M2017 641q133 0 200 -71t67 -187q0 -170 -94 -290t-292 -120q-130 0 -196 71t-66 187q0 172 92 291t289 119zM1929 145q88 -1 127 61t39 142q0 121 -108 121q-162 0 -162 -205q0 -119 104 -119zM1288 641q133 0 200 -71t66 -187q0 -170 -94 -290t-291 -120
q-131 0 -197 71t-65 187q0 172 92 291t289 119zM1200 145q88 -1 127 61t39 142q0 121 -109 121q-162 0 -161 -205q0 -119 104 -119zM1324 1395q44 0 73 -28t29 -63t-19 -63l-860 -1214q-31 -43 -76 -43t-73 28t-28 65q0 36 19 60l860 1217q31 41 75 41zM635 1407
q133 0 200 -71t66 -187q0 -170 -94 -290t-291 -120q-131 0 -197 71t-65 187q0 172 92 291t289 119zM547 911q88 -1 127 61t39 142q0 121 -109 121q-162 0 -162 -205q1 -119 105 -119z" />
    <glyph glyph-name="guilsinglleft" unicode="&#x2039;" horiz-adv-x="667" 
d="M166 429q0 28 33 60l381 371q24 23 58 23t56 -24q22 -25 23 -59q0 -34 -31 -61l-346 -313l233 -317q13 -18 13 -47t-23 -53q-23 -23 -61 -23t-64 37l-254 352q-18 26 -18 54z" />
    <glyph glyph-name="guilsinglright" unicode="&#x203a;" horiz-adv-x="667" 
d="M651 438q0 -26 -33 -59l-380 -371q-23 -22 -57 -22q-33 0 -57 24t-24 58q0 35 31 61l346 313l-233 318q-12 18 -12 47t23 53t61 23q38 0 63 -37l254 -352q18 -30 18 -56z" />
    <glyph glyph-name="fraction" unicode="&#x2044;" horiz-adv-x="665" 
d="M798 1395q42 0 68 -26q26 -27 25 -55q0 -28 -14 -52l-697 -1229q-27 -49 -70 -49q-42 0 -68 26t-26 55q0 30 13 50l698 1231q29 49 71 49z" />
    <glyph glyph-name="zerosuperior" unicode="&#x2070;" horiz-adv-x="612" 
d="M449 770q-223 0 -224 217q0 180 80 300t248 120q223 0 223 -217q0 -180 -80 -300t-247 -120zM469 903q82 0 117 77q35 78 35 186t-89 108q-82 0 -116 -77t-35 -185q0 -108 88 -109z" />
    <glyph glyph-name="foursuperior" unicode="&#x2074;" horiz-adv-x="573" 
d="M399 1118h95l24 137zM676 1118q25 0 40 -16t15 -43q1 -27 -23 -49t-55 -23h-30l-9 -47q-6 -32 -30 -54t-58 -22q-33 0 -51 23t-12 53l8 47h-203q-25 -1 -41 17t-16 42t22 50l328 358q35 35 69 35q34 -1 53 -23t13 -53l-51 -295h31z" />
    <glyph glyph-name="fivesuperior" unicode="&#x2075;" horiz-adv-x="557" 
d="M542 1286q68 0 126 -41t57 -145q0 -104 -76 -174q-75 -70 -207 -70t-192 109q-10 19 -10 39t18 38t45 18t63 -35q36 -36 97 -36q113 0 112 105q0 72 -81 71q-46 0 -92 -15t-64 -15t-33 15q-14 14 -14 34t10 47l64 190q18 57 79 58h252q27 -1 43 -17q17 -16 17 -45
t-24 -48t-58 -19h-211l-27 -80q38 16 106 16z" />
    <glyph glyph-name="sixsuperior" unicode="&#x2076;" horiz-adv-x="583" 
d="M461 987q111 0 110 100q0 70 -75 70q-31 0 -63 -18t-44 -39q-4 -16 -4 -35q0 -78 76 -78zM546 1276q83 0 132 -46t49 -124q0 -112 -79 -180t-197 -68q-207 0 -207 219q0 188 91 303t234 115q98 0 152 -47q25 -24 25 -52t-19 -46q-35 -35 -82 -9q-47 25 -95 25t-85 -35
t-49 -102q47 47 130 47z" />
    <glyph glyph-name="sevensuperior" unicode="&#x2077;" horiz-adv-x="536" 
d="M346 1348q-25 0 -40 16t-15 43q-1 27 23 49t55 23h315q25 -1 41 -17t14 -39q-18 -148 -113 -233q-40 -35 -80 -67q-97 -77 -118 -189q-6 -30 -31 -52t-55 -22t-46 18q-17 18 -15 46q8 82 52 146t91 100q130 95 143 178h-221z" />
    <glyph glyph-name="eightsuperior" unicode="&#x2078;" horiz-adv-x="565" 
d="M483 1133q-104 0 -104 -84q0 -57 78 -58q104 0 104 82q0 60 -78 60zM590 1325q0 49 -75 49t-75 -71q0 -45 64 -46q86 0 86 68zM715 1070q0 -92 -77 -152q-76 -60 -190 -60q-224 0 -227 162q0 127 131 182q-61 31 -61 111t75 131t171 51t150 -38t54 -109q0 -102 -102 -146
q76 -39 76 -132z" />
    <glyph glyph-name="ninesuperior" unicode="&#x2079;" horiz-adv-x="583" 
d="M537 1366q-111 0 -111 -100q0 -70 76 -70q30 0 62 18t44 39q4 16 4 35q1 78 -75 78zM452 1077q-83 0 -133 46q-49 46 -49 124q0 113 79 181t198 67q207 0 207 -219q0 -188 -91 -303t-235 -115q-98 0 -152 47q-24 23 -24 51t19 46q35 35 82 10q46 -25 94 -25t85 35t50 102
q-47 -47 -130 -47z" />
    <glyph glyph-name="zeroinferior" unicode="&#x2080;" horiz-adv-x="612" 
d="M281 -180q-223 0 -224 217q0 180 80 300t248 120q223 0 223 -217q0 -180 -80 -300t-247 -120zM301 -47q82 0 117 77q35 78 35 186t-88 108q-82 0 -117 -77t-35 -185t88 -109z" />
    <glyph glyph-name="oneinferior" unicode="&#x2081;" horiz-adv-x="466" 
d="M279 -106q-31 0 -51 22q-19 23 -13 53l61 346l-73 -41q-16 -8 -38 -8t-42 20q-21 20 -21 56q0 35 41 57l201 107q26 12 50 12t42 -22t15 -54l-84 -473q-5 -31 -31 -53t-57 -22z" />
    <glyph glyph-name="twoinferior" unicode="&#x2082;" horiz-adv-x="591" 
d="M362 520q116 0 170 -46q56 -46 56 -122t-56 -131t-122 -80q-179 -66 -191 -114h256q25 -1 40 -17t15 -43t-24 -49t-55 -22h-342q-27 0 -46 18q-18 18 -16 45q8 78 50 133q41 55 97 83q56 29 111 51t92 48t37 60q0 53 -78 53q-45 0 -118 -57q-18 -14 -43 -14t-44 18
q-19 20 -19 48t32 60q82 78 198 78z" />
    <glyph glyph-name="threeinferior" unicode="&#x2083;" horiz-adv-x="565" 
d="M535 123q0 -104 -73 -172t-208 -68t-203 105q-10 18 -10 41t17 41t47 18t49 -22q47 -54 111 -54t92 28t28 69q0 63 -66 63h-53q-20 0 -35 14q-14 14 -14 40t35 59l104 92h-163q-25 0 -40 16t-15 43q0 28 23 50q24 22 54 22h289q25 0 40 -16t15 -45t-31 -54l-122 -108
q129 -14 129 -162z" />
    <glyph glyph-name="fourinferior" unicode="&#x2084;" horiz-adv-x="573" 
d="M229 147h95l24 138zM506 147q25 0 40 -16t15 -43q1 -28 -23 -50t-55 -22h-30l-9 -47q-6 -33 -30 -55t-58 -20q-33 0 -51 22t-12 53l8 47h-203q-25 0 -41 18t-16 42q0 25 22 49l328 358q35 35 69 35t53 -22t13 -54l-51 -295h31z" />
    <glyph glyph-name="fiveinferior" unicode="&#x2085;" horiz-adv-x="557" 
d="M370 311q68 0 126 -41q58 -42 57 -146q0 -104 -76 -174t-208 -69q-132 0 -191 109q-10 20 -10 40t18 38t45 18t63 -36t97 -36q113 0 112 105q0 72 -81 71q-46 0 -92 -15t-64 -15t-33 15q-14 15 -14 35t10 46l64 190q18 57 79 58h252q27 0 43 -16q17 -16 17 -46
q0 -29 -24 -48t-58 -19h-211l-27 -80q38 16 106 16z" />
    <glyph glyph-name="sixinferior" unicode="&#x2086;" horiz-adv-x="583" 
d="M289 12q111 0 110 101q0 70 -75 69q-31 0 -63 -18t-44 -39q-4 -16 -4 -35q0 -78 76 -78zM374 301q83 0 132 -46t49 -124q0 -113 -79 -181t-197 -67q-207 0 -207 219q0 188 91 304t234 114q98 0 152 -47q25 -23 25 -51t-19 -47q-36 -36 -82 -9q-47 26 -95 26t-85 -36
q-37 -35 -49 -102q47 47 130 47z" />
    <glyph glyph-name="seveninferior" unicode="&#x2087;" horiz-adv-x="536" 
d="M174 377q-25 0 -40 16t-15 43q-1 28 23 50t55 22h315q25 0 41 -16t14 -39q-18 -149 -113 -234q-40 -35 -80 -67q-97 -76 -118 -189q-6 -31 -31 -53t-55 -21t-46 19q-17 18 -15 45q8 83 52 147t91 99q130 97 143 178h-221z" />
    <glyph glyph-name="eightinferior" unicode="&#x2088;" horiz-adv-x="565" 
d="M311 158q-104 0 -104 -84q0 -57 78 -58q104 0 104 82q0 60 -78 60zM418 350q0 49 -75 49t-75 -71q0 -45 64 -45q86 0 86 67zM543 95q0 -93 -77 -153q-76 -60 -190 -59q-226 0 -227 162q0 127 131 182q-61 31 -61 111t74 131t171 51t151 -38t54 -109q0 -102 -102 -146
q76 -39 76 -132z" />
    <glyph glyph-name="nineinferior" unicode="&#x2089;" horiz-adv-x="583" 
d="M365 391q-111 0 -111 -100q0 -70 76 -70q30 1 62 19t44 39q4 16 4 34q1 78 -75 78zM280 102q-83 0 -133 46q-49 46 -49 124q0 113 79 181t198 67q207 0 207 -219q0 -188 -92 -303t-234 -115q-98 0 -152 47q-24 23 -24 51t19 47t41 19q22 1 55 -17q32 -18 80 -18t85 35
t50 103q-47 -48 -130 -48z" />
    <glyph glyph-name="Euro" unicode="&#x20ac;" horiz-adv-x="1310" 
d="M717 723h-281q0 -4 -12 -90h276q34 0 54 -22q20 -23 20 -59t-32 -66t-72 -29h-248q31 -270 321 -271q188 0 340 133q101 85 172 14q33 -32 33 -76t-33 -81q-90 -96 -236 -150t-312 -55q-238 0 -379 126t-156 360h-35q-33 -1 -53 21t-20 58t31 67q32 30 73 30h10
q0 29 12 90h-10q-33 -1 -53 21q-21 22 -21 59t32 67t73 29h20q81 242 269 375t458 133q174 0 289 -67t166 -169q12 -29 12 -63q-1 -34 -33 -67q-32 -31 -83 -31t-80 41q-104 143 -307 143q-313 0 -437 -295h263q33 1 53 -21t20 -59q1 -37 -31 -67t-73 -29z" />
    <glyph glyph-name="numero" unicode="&#x2116;" horiz-adv-x="2277" 
d="M1952 526q-133 0 -204 66t-71 192q-1 186 101 316t299 131q133 0 203 -66t71 -192q0 -187 -101 -317t-298 -130zM1886 158q-109 0 -108 92q0 70 38 112t115 44q106 0 107 -95q0 -69 -38 -111t-114 -42zM1985 711q83 1 119 69t36 158q0 109 -96 109q-82 0 -119 -69
t-37 -168t97 -99zM1511 1395q49 0 78 -35t21 -84l-207 -1174q-10 -51 -45 -85q-35 -33 -93 -33t-94 51l-612 938l-153 -871q-8 -49 -50 -84q-42 -34 -92 -34q-49 0 -78 34t-18 84l207 1174q10 51 48 85t91 34t84 -45l621 -944l153 870q10 49 50 84t89 35z" />
    <glyph glyph-name="trademark" unicode="&#x2122;" horiz-adv-x="858" 
d="M831 1034q-20 0 -32 21l-58 106v-164q0 -16 -12 -28q-13 -13 -29 -13t-28 12t-13 29v303q1 16 13 28t32 13q20 0 33 -22l94 -168l95 168q14 23 34 23t31 -13q12 -12 13 -29v-303q0 -16 -12 -28q-29 -28 -58 0q-12 12 -12 28v164l-58 -106q-13 -21 -33 -21zM317 1335h252
q39 0 39 -39q0 -16 -11 -27t-28 -12h-82v-258q0 -16 -13 -29q-12 -14 -30 -14t-30 14t-13 29v258h-84q-16 -1 -27 11t-11 28q-1 39 38 39z" />
    <glyph glyph-name="minus" unicode="&#x2212;" horiz-adv-x="929" 
d="M932 541q34 1 56 -23t22 -63t-34 -71t-77 -32h-741q-35 0 -58 24q-22 24 -22 62t35 71q35 32 77 32h742z" />
    <glyph glyph-name="radical" unicode="&#x221a;" horiz-adv-x="1146" 
d="M460 -350q-72 0 -89 67l-201 711q-4 12 -4 43t30 61t68 29q38 0 67 -20q28 -20 36 -52l131 -479l608 1387q27 61 94 61q43 0 73 -30q29 -30 29 -64t-10 -53l-725 -1587q-35 -74 -107 -74z" />
    <glyph glyph-name="notequal" unicode="&#x2260;" horiz-adv-x="929" 
d="M125 174q-35 0 -57 24t-23 62q0 38 35 71q35 32 78 31h258l143 166h-373q-34 0 -56 24t-22 62t34 71q34 32 77 32h504l98 114q15 19 33 19t30 -12t13 -28q0 -16 -8 -26l-60 -67h132q35 0 57 -24q22 -25 22 -63t-34 -70t-78 -32h-260l-144 -166h375q33 0 55 -24t23 -62
q0 -38 -34 -70t-77 -32h-504l-96 -113q-14 -18 -32 -18t-31 12q-12 12 -12 28t8 26l55 65h-129z" />
    <glyph glyph-name="lessequal" unicode="&#x2264;" horiz-adv-x="743" 
d="M111 623q0 56 71 92l584 289q30 12 58 12t56 -28t27 -66q0 -61 -59 -88l-457 -203l363 -207q51 -27 51 -75t-28 -76q-48 -48 -113 -15l-510 287q-43 22 -43 78zM682 188q36 0 58 -24t22 -62t-34 -70t-79 -32h-555q-32 0 -56 24t-24 62t34 71q34 32 79 31h555z" />
    <glyph glyph-name="greaterequal" unicode="&#x2265;" horiz-adv-x="743" 
d="M682 188q36 0 58 -24t22 -62t-34 -70t-79 -32h-555q-32 0 -56 24t-24 62t34 71q34 32 79 31h555zM856 638q0 -56 -72 -91l-583 -289q-29 -12 -57 -12t-57 28q-28 28 -28 66q0 61 60 88l456 203l-362 207q-51 27 -51 75q0 47 28 75t58 28q31 0 55 -12l510 -287
q43 -23 43 -79z" />
    <glyph glyph-name="commaaccent" unicode="&#xf6c3;" horiz-adv-x="299" 
d="M145 -80q90 0 91 -84q0 -112 -72 -220t-162 -169q-16 -10 -30 -10t-24 11q-11 10 -11 26t16 30q96 84 96 160q0 27 -16 68q-17 42 -17 82t34 73t95 33z" />
    <glyph glyph-name="s_t" unicode="&#xfb06;" horiz-adv-x="1476" 
d="M567 766q-135 0 -135 -86q0 -72 154 -125q62 -23 126 -51t109 -81q45 -52 45 -124q0 -152 -112 -237t-318 -85q-119 -1 -210 49q-142 77 -142 158q0 41 30 70t66 29t70 -27q92 -82 221 -82q76 0 122 26t46 70q0 70 -218 138q-81 25 -150 88t-68 157q0 152 108 229
q109 77 277 76q119 0 211 -49q-84 98 -84 218t103 200t267 80t255 -73t92 -206q0 -35 -9 -84l-20 -114h94q33 0 55 -23t21 -61q0 -38 -33 -69q-33 -32 -76 -32h-92l-86 -477q-4 -20 -4 -41t20 -36t52 -15t54 -24t22 -64q0 -41 -34 -73t-96 -31q-117 0 -177 59t-60 162
q0 27 6 57l86 483h-47q-34 0 -56 23q-22 22 -22 60t34 70t77 32h45l20 112q4 25 4 45q0 135 -172 136q-88 -1 -140 -51t-52 -140t61 -211q35 -72 -20 -127t-133 6q-78 66 -187 66z" />
    <glyph glyph-name="zero.tab" horiz-adv-x="1259" 
d="M870 1407q442 0 443 -455q0 -219 -61 -441t-214 -381t-407 -159q-442 0 -443 455q0 219 61 441t214 381t407 159zM1075 913q-1 291 -223 289q-110 0 -187 -52t-121 -129q-118 -206 -118 -556q0 -289 222 -289q110 0 189 52q77 52 120 129q118 206 118 556z" />
    <glyph glyph-name="one.tab" horiz-adv-x="1259" 
d="M332 1028q0 56 61 88l449 254q43 25 83 25q41 0 69 -35t20 -82l-207 -1178q-10 -49 -49 -83q-39 -33 -88 -33t-77 34t-20 82l172 967l-237 -143q-84 -50 -144 13q-32 35 -32 91z" />
    <glyph glyph-name="two.tab" horiz-adv-x="1259" 
d="M877 1407q195 0 301 -94t106 -256q0 -119 -62 -228t-156 -183q-184 -145 -407 -256q-223 -112 -231 -181h629q39 0 63 -26q24 -27 25 -69q0 -42 -38 -78t-87 -36h-782q-39 0 -67 27t-21 63q16 113 91 210q75 96 173 160t211 132t205 124t155 135q61 79 61 163t-54 136
t-152 52q-154 0 -267 -162q-35 -49 -85 -49t-82 32q-32 33 -31 71q0 38 20 69q150 244 482 244z" />
    <glyph glyph-name="three.tab" horiz-adv-x="1259" 
d="M520 1169q-40 0 -64 26t-24 69q0 42 37 78t88 36h655q39 0 64 -26q24 -26 24 -68q0 -43 -40 -80l-359 -338q162 -18 235 -114t72 -240q0 -256 -148 -397t-444 -142q-150 0 -262 71t-166 173q-10 20 -10 55t32 67t82 32t89 -54q102 -139 266 -139t244 79t80 216
q0 188 -207 189h-127q-41 0 -67 26t-26 69q0 44 42 83l346 329h-412z" />
    <glyph glyph-name="four.tab" horiz-adv-x="1259" 
d="M504 504h323l82 471zM1133 504q39 0 63 -26t25 -68q0 -42 -38 -79q-38 -36 -87 -36h-72l-35 -195q-8 -49 -46 -83q-38 -33 -90 -33t-79 34t-18 82l35 195h-521q-40 0 -64 26q-24 25 -24 63t29 73l782 882q45 53 99 53t84 -34q29 -35 20 -82l-135 -772h72z" />
    <glyph glyph-name="five.tab" horiz-adv-x="1259" 
d="M799 948q203 0 317 -97t115 -292q0 -289 -163 -439t-443 -149q-176 0 -291 87t-158 204q-6 18 -6 51t32 65t77 32q70 0 98 -62q43 -90 109 -131t194 -41q127 0 220 89t93 253q0 111 -62 168q-63 57 -161 57t-158 -18t-122 -61q-60 -43 -104 -43q-44 1 -71 27
q-44 43 -14 116l195 530q31 84 118 84h615q39 0 63 -26t23 -68q0 -43 -38 -79t-85 -36h-535l-100 -268q103 47 242 47z" />
    <glyph glyph-name="six.tab" horiz-adv-x="1259" 
d="M436 428q0 -122 58 -186t188 -64t224 85t93 235q0 104 -63 158t-166 55q-197 0 -324 -172q-10 -66 -10 -111zM821 918q199 0 307 -98t109 -283q0 -264 -165 -415t-431 -151q-215 0 -325 124q-110 125 -110 371t72 460q71 214 227 347q157 134 384 134q129 0 222 -38
q157 -64 157 -157q0 -46 -31 -76t-71 -30t-70 22q-106 74 -224 74q-152 0 -260 -116t-131 -291q141 123 340 123z" />
    <glyph glyph-name="seven.tab" horiz-adv-x="1259" 
d="M461 1169q-39 0 -64 26t-25 70q0 45 37 79q36 34 89 34h749q39 0 63 -26t23 -64q0 -102 -50 -202t-127 -176q-77 -77 -171 -170t-178 -180t-153 -210t-91 -256q-8 -47 -47 -79q-39 -31 -84 -31t-74 26q-28 27 -26 68q12 146 89 294t181 263t209 213q104 98 182 183
t88 138h-620z" />
    <glyph glyph-name="eight.tab" horiz-adv-x="1259" 
d="M414 373q0 -195 262 -195q130 0 222 72q91 72 91 203q0 90 -64 141q-65 51 -199 51t-224 -72q-88 -72 -88 -200zM842 1202q-119 0 -188 -53t-68 -152q0 -147 192 -147q117 0 187 53t69 154q1 145 -192 145zM637 -29q-219 1 -340 95t-121 270q0 143 77 254t224 164
q-53 33 -88 93t-35 136q0 193 135 309t375 115q190 0 296 -81t108 -216q0 -135 -64 -223t-157 -133q178 -94 178 -285q-1 -229 -153 -363t-435 -135z" />
    <glyph glyph-name="nine.tab" horiz-adv-x="1259" 
d="M1065 950q0 122 -57 186q-58 64 -188 64t-224 -85t-94 -234q0 -105 63 -159t166 -54q197 0 324 172q10 66 10 110zM680 461q-200 0 -308 98t-108 283q0 264 165 414t431 151q215 0 325 -124q109 -125 109 -371t-70 -459t-228 -347q-157 -134 -384 -135q-129 0 -222 38
q-157 64 -157 157q0 45 31 76q31 30 71 30t71 -22q106 -74 223 -74q151 0 259 116t132 292q-141 -123 -340 -123z" />
    <glyph glyph-name="ornament.A" horiz-adv-x="1499" 
d="M1126 1132q0 54 -48 111t-137 57t-136 -86q147 -117 309 -170q12 34 12 88zM395 1216q0 -36 24 -58q55 -51 126 20q16 12 37 12q22 0 36 -15t15 -38q0 -45 -54 -76t-121 -31t-122 55t-55 133t55 133q55 56 133 56q111 0 250 -119q84 119 217 119t219 -86t86 -205
q0 -45 -14 -88q45 -8 113 -8t129 36t61 101t-38 105t-95 38q-25 0 -51 -12t-44 -12t-33 15t-15 41t22 42q43 33 134 33t163 -68q72 -67 72 -179q1 -112 -89 -180t-227 -67q-76 0 -139 13q-43 -66 -115 -97q121 -1 201 -65t80 -162t-43 -154t-125 -80q-82 -23 -260 -49
q-63 -8 -107 -41q-43 -34 -43 -86t28 -76q28 -26 69 -26t61 22t24 46t25 46q20 22 57 21q90 0 90 -89t-80 -121q-81 -31 -187 -31q-107 0 -211 61q-175 103 -253 355q-31 103 -30 200q0 162 88 281t252 118q131 0 213 -90q-111 -72 -174 -131q-146 -137 -146 -360
q0 -55 4 -85t24 -30t19 35l-2 80q0 143 72 240q73 97 189 169t159 127q-121 31 -311 166q-25 18 -84 70q-125 111 -197 110q-37 0 -59 -24t-23 -60z" />
    <glyph glyph-name="zero.onum" horiz-adv-x="1245" 
d="M616 -27q-210 0 -326 118t-116 323q0 275 159 488q77 104 203 166t283 62q209 0 326 -118t117 -322q0 -275 -159 -488q-77 -103 -203 -166t-284 -63zM649 166q193 0 290 150t97 354q0 132 -64 200t-186 68q-194 0 -290 -151t-97 -353q1 -132 65 -200t185 -68z" />
    <glyph glyph-name="one.onum" horiz-adv-x="774" 
d="M318 711q-38 -1 -67 29q-30 30 -30 79t55 82l349 195q95 53 146 -10q26 -32 17 -74l-161 -918q-8 -47 -45 -79q-37 -31 -83 -31t-74 32t-19 78l129 723l-152 -88q-27 -18 -65 -18z" />
    <glyph glyph-name="two.onum" horiz-adv-x="1079" 
d="M727 1130q180 0 281 -82q100 -84 100 -196t-54 -194t-136 -133q-146 -89 -357 -170t-233 -162h594q40 0 62 -23q22 -22 22 -64t-38 -74t-89 -32h-701q-38 0 -64 26t-26 62q0 113 59 201t147 137q177 98 386 180q88 35 147 89q59 55 59 115t-49 94q-50 34 -143 34
q-135 0 -256 -143q-37 -45 -80 -45q-44 0 -72 28t-28 64q0 34 23 69q135 219 446 219z" />
    <glyph glyph-name="three.onum" horiz-adv-x="1132" 
d="M403 893q-39 0 -63 26q-24 27 -25 69q0 42 37 78t88 36h656q40 0 64 -26t24 -68t-41 -80l-359 -338q162 -18 235 -114t73 -240q0 -256 -148 -398t-444 -141q-150 0 -262 71t-166 173q-10 20 -10 55q0 34 31 66q32 32 82 32t89 -53q102 -139 266 -139t244 79t80 216
q0 188 -207 188h-127q-40 0 -66 26q-26 25 -26 69t41 83l346 330h-412z" />
    <glyph glyph-name="four.onum" horiz-adv-x="1132" 
d="M406 229h323l82 471zM1034 229q39 1 64 -25q24 -26 24 -69t-38 -79t-87 -36h-71l-35 -194q-8 -49 -46 -83t-90 -34t-79 34t-19 83l35 194h-520q-40 0 -64 26t-24 64t29 72l782 883q45 53 99 53t83 -35t21 -82l-135 -772h71z" />
    <glyph glyph-name="five.onum" horiz-adv-x="1185" 
d="M688 672q203 0 318 -98t114 -291q0 -289 -163 -439t-443 -149q-176 0 -291 87t-157 204q-23 69 25 115q32 32 77 32q70 0 98 -61q43 -90 110 -131q68 -41 194 -41t220 89q93 89 93 253q-1 111 -63 168t-160 57t-159 -18q-61 -17 -121 -61t-104 -44t-72 27q-26 27 -26 57
t12 59l195 531q31 84 119 84h614q39 0 63 -26q23 -26 23 -68t-38 -79q-38 -36 -85 -36h-534l-101 -268q103 47 242 47z" />
    <glyph glyph-name="six.onum" horiz-adv-x="1204" 
d="M408 428q0 -122 57 -186t187 -64t225 83q94 83 94 233q1 104 -63 158t-167 55q-199 0 -323 -170q-10 -66 -10 -109zM792 913q200 0 308 -98t108 -283q0 -264 -165 -412t-431 -149q-214 0 -324 124t-110 345q0 574 298 824q157 131 384 131q129 0 222 -38q94 -38 126 -80
t32 -82t-32 -71q-30 -30 -70 -30t-71 22q-106 74 -223 74q-152 0 -260 -111t-131 -286q139 120 339 120z" />
    <glyph glyph-name="seven.onum" horiz-adv-x="1028" 
d="M299 893q-39 0 -63 26q-24 25 -25 69q0 44 36 79t89 35h749q39 0 63 -26t23 -64q0 -102 -50 -202t-127 -176q-77 -77 -171 -170t-178 -180q-85 -87 -153 -210t-91 -256q-8 -47 -47 -79t-84 -32q-46 1 -74 27t-26 67q12 147 89 295t181 262q104 115 209 213
q104 97 182 183t89 139h-621z" />
    <glyph glyph-name="eight.onum" horiz-adv-x="1169" 
d="M373 371q-1 -193 261 -193q130 0 223 71q91 71 91 202q0 188 -264 188q-136 0 -224 -70t-87 -198zM801 1188q-121 0 -189 -52t-67 -149q0 -143 192 -143q119 0 188 52t68 151q1 141 -192 141zM596 -29q-219 -1 -340 93t-121 270q0 143 77 252t226 162q-125 76 -125 225
q0 193 134 307t376 113q191 0 297 -79q106 -78 106 -214t-64 -222q-65 -86 -158 -130q180 -94 180 -281q0 -229 -152 -363t-436 -133z" />
    <glyph glyph-name="nine.onum" horiz-adv-x="1204" 
d="M991 674q0 122 -57 186q-58 64 -188 64t-224 -83t-94 -233q0 -104 64 -158t165 -55q199 0 324 170q10 66 10 109zM607 188q-201 0 -309 98t-108 283q0 265 165 413t431 148q215 0 325 -124t110 -344q0 -574 -298 -824q-157 -131 -384 -131q-129 0 -223 38t-125 80
q-66 87 -1 152q31 31 71 31t71 -22q106 -74 223 -74q151 0 259 111t132 286q-139 -121 -339 -121z" />
    <glyph glyph-name="hyphen.case" horiz-adv-x="774" 
d="M729 774q33 0 55 -24t23 -62q0 -39 -34 -71t-77 -31h-409q-35 0 -58 24t-23 62t36 70q35 32 77 32h410z" />
    <glyph glyph-name="parenleft.case" horiz-adv-x="645" 
d="M759 1595q29 1 59 -29t30 -71q0 -68 -66 -94q-156 -66 -228 -230t-125 -476q-54 -312 -54 -427q-1 -116 27 -186t104 -107q57 -25 57 -90q1 -41 -29 -71t-60 -29q-30 0 -56 10q-260 117 -260 469q0 160 45 426q70 418 178 614q109 196 321 281q27 10 57 10z" />
    <glyph glyph-name="parenright.case" horiz-adv-x="645" 
d="M128 -215q-30 0 -60 30t-29 70q0 68 65 95q156 66 228 230t126 475q54 312 54 427q0 116 -28 186t-103 107q-57 25 -57 90q0 41 29 71q47 47 116 19q260 -117 260 -469q0 -160 -45 -426q-70 -418 -178 -614t-322 -281q-26 -10 -56 -10z" />
    <glyph glyph-name="bracketleft.case" horiz-adv-x="579" 
d="M424 -23q36 0 58 -23t22 -63t-35 -73t-80 -33h-192q-49 0 -76 30t-19 76l283 1598q8 47 43 77t88 29h193q35 1 57 -23t22 -64t-34 -72t-80 -33h-84l-250 -1426h84z" />
    <glyph glyph-name="bracketright.case" horiz-adv-x="579" 
d="M113 -215q-35 -1 -57 23t-23 64q0 40 35 73t79 32h84l252 1426h-84q-35 -1 -59 23t-23 65q0 41 35 73t80 31h193q49 -1 75 -31t19 -75l-281 -1598q-8 -45 -46 -75t-87 -31h-192z" />
    <glyph glyph-name="braceleft.case" horiz-adv-x="733" 
d="M268 604q-86 0 -86 78q0 34 31 64t87 30t92 26t48 95t18 203t26 236t112 181t252 78q36 -1 60 -25t24 -65t-36 -75t-83 -35q-96 0 -113 -97q-12 -63 -21 -173t-23 -186q-14 -77 -66 -153q-51 -76 -125 -96q109 -47 108 -192q0 -90 -45 -244t-45 -193q0 -76 82 -75
q37 0 61 -25t24 -67t-39 -75q-38 -34 -91 -34q-135 0 -201 69q-65 69 -65 165t57 259t57 225q0 61 -27 81q-28 20 -73 20z" />
    <glyph glyph-name="braceright.case" horiz-adv-x="733" 
d="M795 698q0 -34 -31 -64q-30 -30 -86 -30t-92 -26t-49 -94q-11 -70 -17 -204t-26 -236t-113 -180q-92 -78 -252 -79q-37 0 -61 25q-24 26 -23 66q0 40 36 75t83 35q96 0 112 96q12 63 22 173q9 111 23 187q13 76 65 152t126 96q-109 47 -109 193q-1 89 45 243t46 193
q0 76 -82 76q-37 1 -61 25q-23 24 -23 66t38 76t91 33q135 -1 201 -69t65 -164q0 -96 -57 -259q-58 -163 -58 -225t28 -82t73 -20t65 -22t21 -56z" />
    <glyph glyph-name="guillemotleft.case" horiz-adv-x="1067" 
d="M610 685q0 28 33 60l381 371q22 23 56 23t58 -23q24 -22 24 -58t-32 -63l-346 -313l234 -317q12 -18 12 -48t-24 -53q-24 -22 -61 -22q-38 0 -62 37l-254 352q-19 26 -19 54zM211 686q0 26 33 59l381 371q23 23 57 23t58 -23q22 -22 22 -58t-31 -63l-346 -313l233 -317
q12 -18 12 -48t-22 -53q-24 -22 -62 -22t-63 37l-254 352q-18 29 -18 55z" />
    <glyph glyph-name="guillemotright.case" horiz-adv-x="1067" 
d="M696 694q0 -26 -32 -59l-381 -371q-23 -22 -57 -22t-58 22t-23 59q0 36 31 62l346 313l-233 318q-13 18 -13 48t24 52t62 23q38 0 62 -37l254 -352q18 -30 18 -56zM1096 694q0 -26 -33 -59l-381 -371q-24 -22 -58 -22t-57 22t-23 59q0 36 31 62l347 313l-234 318
q-12 18 -12 48t22 52t62 23q39 0 63 -37l254 -352q19 -30 19 -56z" />
    <glyph glyph-name="guilsinglleft.case" horiz-adv-x="667" 
d="M211 686q0 26 33 59l381 371q23 23 57 23t58 -23q22 -22 22 -58t-31 -63l-346 -313l233 -317q12 -18 12 -48t-22 -53q-24 -22 -62 -22t-63 37l-254 352q-18 29 -18 55z" />
    <glyph glyph-name="guilsinglright.case" horiz-adv-x="667" 
d="M696 694q0 -26 -32 -59l-381 -371q-23 -22 -57 -22t-58 22t-23 59q0 36 31 62l346 313l-233 318q-13 18 -13 48t24 52t62 23q38 0 62 -37l254 -352q18 -30 18 -56z" />
    <glyph glyph-name="endash.case" horiz-adv-x="1163" 
d="M1114 688q0 -39 -34 -71t-76 -31h-633q-35 0 -58 24t-23 62t36 70q35 32 77 32h633q33 0 56 -23q22 -24 22 -63z" />
    <glyph glyph-name="emdash.case" horiz-adv-x="1800" 
d="M1671 774q33 0 55 -24t23 -62q0 -39 -34 -71t-77 -31h-1267q-35 0 -58 24t-23 62t36 70q35 32 77 32h1268z" />
    <glyph glyph-name="periodcentered.case" horiz-adv-x="460" 
d="M326 537q-115 0 -115 104q0 80 42 123t120 43q113 0 112 -107q1 -163 -159 -163z" />
    <glyph glyph-name="questiondown.case" horiz-adv-x="927" 
d="M756 1395q115 0 114 -105q0 -80 -42 -123t-119 -43q-113 0 -113 107q0 164 160 164zM573 814q0 30 -10 60t-10 63q0 31 32 61t85 30t95 -48t42 -128t-50 -146t-123 -108q-73 -43 -145 -82q-170 -92 -172 -211q-1 -63 47 -98t135 -35t147 44t72 112t50 98q39 31 83 31
t71 -28t26 -69q0 -166 -133 -278t-331 -111q-198 0 -297 77q-97 77 -97 204t50 212t121 132t141 84t121 71q50 33 50 63z" />
    <glyph glyph-name="exclamdown.case" horiz-adv-x="434" 
d="M463 1395q115 0 115 -105q0 -80 -42 -123t-120 -43q-113 0 -113 107q0 164 160 164zM214 -16q-132 0 -105 114l182 815q18 78 102 78t74 -78l-107 -815q-14 -114 -146 -114z" />
    <glyph glyph-name="bullet.case" horiz-adv-x="856" 
d="M557 424q-266 0 -266 272t266 273q266 -1 266 -273t-266 -272z" />
    <glyph glyph-name="dollar.onum" horiz-adv-x="1005" 
d="M94 256q0 30 31 62q31 30 78 30t84 -49q88 -115 254 -115q121 0 181 43t60 103q0 105 -137 154q-147 55 -254 111q-59 32 -98 92t-39 140q0 162 112 259t263 110l14 82q8 41 40 69q32 27 72 27q39 0 63 -28t16 -68l-15 -84q195 -45 273 -199q10 -20 10 -53q0 -34 -31 -64
t-78 -30t-80 43q-88 111 -225 110q-104 1 -154 -37t-50 -98t54 -97q54 -39 132 -65t156 -59t131 -99q54 -66 55 -165q0 -163 -108 -271t-300 -130l-20 -117q-8 -41 -39 -69t-72 -28t-65 30q-24 28 -15 67l21 114q-109 16 -192 81q-128 100 -128 198z" />
    <glyph glyph-name="cent.onum" horiz-adv-x="1019" 
d="M127 416q0 293 138 465t372 204l22 125q8 41 40 69t72 28t64 -29t15 -68l-21 -120q109 -23 176 -73q99 -74 99 -145q0 -44 -31 -74t-77 -30t-76 37q-74 84 -213 84q-173 0 -263 -116t-90 -331q0 -266 226 -266q121 0 231 88q35 27 74 27t69 -31t31 -74q0 -44 -35 -78
t-122 -78t-195 -55l-21 -112q-8 -41 -41 -69t-71 -28t-63 30q-24 28 -15 67l20 114q-145 21 -230 135t-85 304z" />
    <glyph glyph-name="sterling.onum" horiz-adv-x="1083" 
d="M707 463h-164v-37q0 -145 -131 -236q62 31 120 31t128 -20q70 -21 112 -21q43 0 107 64q33 32 77 32t74 -30q31 -30 31 -73q0 -42 -25 -71q-100 -131 -295 -131q-55 0 -157 36t-158 36q-56 1 -118 -31t-96 -32t-64 30t-30 76q0 47 51 82q50 36 79 60t57 73q29 49 29 99
t-2 63h-109q-33 1 -55 23t-23 60q0 38 32 70t79 31h27q-20 72 -21 141q0 166 128 289t360 123q156 0 250 -74q122 -95 122 -228q0 -28 -30 -58t-74 -31q-74 0 -98 70q-43 129 -203 129q-111 0 -173 -58t-62 -148q0 -91 22 -155h233q33 -1 56 -23t23 -60t-34 -70
q-32 -32 -75 -31z" />
    <glyph glyph-name="yen.onum" horiz-adv-x="1134" 
d="M891 256h-160l-26 -154q-11 -49 -51 -84q-40 -34 -89 -34t-78 34t-20 84l27 154h-162q-29 0 -47 19q-19 19 -19 53t30 64q30 28 66 28h162l13 80h-160q-29 0 -47 19t-18 53t29 63q30 29 67 29h55l-223 344q-14 26 -14 66t34 75t92 35t92 -56l252 -403l379 416
q41 43 91 43t85 -35t35 -84t-33 -82l-321 -319h35q29 0 47 -20t18 -55q0 -34 -28 -62t-68 -27h-162l-12 -80h160q29 0 47 -20t18 -55q-1 -33 -29 -61t-67 -28z" />
    <glyph glyph-name="florin.onum" horiz-adv-x="978" 
d="M207 815h108l39 221q31 164 123 260q91 96 229 96t209 -53q41 -29 41 -73t-28 -71q-28 -28 -56 -28q-28 1 -66 17t-89 16q-113 0 -144 -166l-38 -219h135q40 0 66 -27q26 -28 26 -66t-27 -65t-65 -26h-166l-119 -635q-76 -408 -436 -408q-86 0 -155 26t-68 91q0 41 27 70
t53 29t65 -11q39 -10 78 -10q94 0 146 52t73 163l113 633h-74q-39 1 -66 27t-26 65t27 65t65 27z" />
    <glyph glyph-name="Euro.onum" horiz-adv-x="1200" 
d="M739 381h-282q31 -215 266 -215q139 0 281 115q34 27 70 27t64 -30q28 -28 28 -69t-33 -72q-176 -164 -420 -164t-357 112t-127 296h-49q-29 0 -48 19q-19 20 -19 54q-1 34 29 62t67 29h27l12 69h-27q-29 0 -48 20t-19 53q0 34 29 63q30 29 67 28h45q68 184 223 302
q156 118 389 118q133 0 233 -58q154 -90 154 -175q0 -39 -28 -69t-73 -30q-44 0 -73 37q-90 102 -241 103q-250 0 -357 -228h287q29 0 47 -20t18 -54t-28 -62t-66 -28h-311l-12 -69h311q29 -1 47 -21q19 -20 19 -54t-29 -62t-66 -27z" />
    <glyph glyph-name="ampersand.salt1" horiz-adv-x="1290" 
d="M1158 -16q-44 0 -115 34t-128 80q-156 -127 -409 -127q-172 0 -277 87q-104 87 -104 245q0 238 281 424q-43 129 -44 240q0 186 106 313t298 127q133 0 199 -75q65 -74 65 -198t-93 -237t-263 -227q115 -193 241 -293q35 37 89 137q37 68 90 68t84 -31q57 -57 7 -148
q-50 -92 -108 -149q39 -31 127 -72q60 -27 60 -82q0 -56 -31 -86t-75 -30zM354 338q0 -76 52 -121t156 -45q102 0 194 61q-170 137 -269 318q-133 -100 -133 -213zM805 1114q0 92 -74 92q-75 0 -111 -64t-36 -146q0 -83 16 -148q205 129 205 266z" />
    <glyph glyph-name="ornament.B" horiz-adv-x="1499" 
d="M731 1298q59 -86 130 -130t183 -81q-47 79 -131 139t-182 72zM1425 1395q79 1 135 -55t56 -134q0 -125 -119 -188t-260 -64l-39 2q4 -39 4 -92q0 -221 -139 -405t-299 -252q-12 -7 -12 -25t22 -18q6 0 19 4q157 66 275 199t173 309q89 0 149 -62t60 -174
q0 -190 -165 -323t-415 -133t-404 114q-153 114 -153 318q0 145 121 145q88 0 88 -92q0 -39 -37 -75q-68 -67 -6 -129q31 -29 72 -29t73 32t32 74q0 41 -38 155q-37 114 -36 183q0 102 65 164q66 61 162 61q174 0 264 -160q16 45 17 140l-5 84q-139 27 -279 115t-190 208
q-63 -4 -105 -41t-42 -88t30 -77t67 -26q67 1 69 -56q-1 -23 -17 -40t-40 -18q-90 0 -157 58t-67 164q0 108 92 174t236 65q144 0 289 -95t207 -247q29 -4 59 -4q117 0 191 44t73 101q1 30 -21 52t-54 22t-54 -22t-20 -48q0 -26 -16 -43q-16 -16 -40 -16q-23 0 -39 16
t-16 39q0 78 52 134t132 55z" />
    <glyph glyph-name="slash.case" horiz-adv-x="864" 
d="M1067 1457q0 -38 -16 -68l-801 -1506q-33 -63 -90 -63t-89 33t-32 69t14 64l807 1517q31 55 87 55t88 -31q32 -32 32 -70z" />
    <glyph glyph-name="backslash.case" horiz-adv-x="864" 
d="M307 1463q0 30 33 63t77 33q45 0 73 -23t34 -59l273 -1512q4 -20 4 -35q0 -46 -33 -78t-77 -32t-73 25q-28 26 -34 63l-273 1505q-4 20 -4 50z" />
    <glyph glyph-name="bar.case" horiz-adv-x="450" 
d="M519 1681q48 -1 76 -33t19 -79l-309 -1757q-8 -47 -44 -80t-86 -33t-77 33t-18 80l311 1757q8 47 44 79t84 33z" />
    <glyph glyph-name="zero.numerator" horiz-adv-x="612" 
d="M446 770q-223 0 -223 217q0 180 80 300t248 120q223 0 223 -217q0 -180 -80 -300t-248 -120zM467 903q82 0 117 77q34 78 34 186t-88 108q-82 0 -116 -77t-35 -185q0 -108 88 -109z" />
    <glyph glyph-name="one.numerator" horiz-adv-x="466" 
d="M432 776q-31 0 -50 23t-13 53l61 346l-74 -41q-16 -8 -36 -8q-20 -1 -42 21t-22 56t41 56l201 107q26 12 50 12t42 -23t14 -53l-84 -473q-4 -32 -30 -54t-58 -22z" />
    <glyph glyph-name="two.numerator" horiz-adv-x="591" 
d="M520 1407q116 0 170 -46q55 -46 55 -122t-55 -131t-123 -80q-181 -66 -190 -115h256q25 0 40 -16t15 -43q0 -28 -24 -50t-56 -22h-342q-27 0 -45 18t-16 46q8 78 50 133t97 83q54 28 110 50t93 48t37 61q0 53 -78 53q-45 0 -119 -57q-18 -15 -43 -15t-44 20t-19 48t33 59
q82 78 198 78z" />
    <glyph glyph-name="three.numerator" horiz-adv-x="565" 
d="M692 1010q0 -104 -72 -172t-208 -68q-135 0 -203 104q-10 18 -10 41t17 41t47 18t48 -22q47 -53 111 -53t93 28q28 28 28 68q0 63 -66 64h-53q-20 0 -35 14q-14 14 -14 40t35 58l104 93h-164q-25 0 -40 16t-15 43q-1 27 23 49t55 23h289q26 -1 40 -17t14 -44t-30 -54
l-123 -109q129 -14 129 -161z" />
    <glyph glyph-name="four.numerator" horiz-adv-x="573" 
d="M385 1030h94l25 137zM662 1030q26 0 40 -16t14 -43t-23 -49q-24 -22 -54 -23h-31l-8 -47q-6 -32 -31 -54t-57 -22t-51 23q-18 23 -12 53l8 47h-203q-25 0 -41 17t-16 42t22 50l328 358q35 35 69 35q34 -1 52 -23q20 -22 14 -53l-51 -295h31z" />
    <glyph glyph-name="five.numerator" horiz-adv-x="557" 
d="M518 1200q68 0 125 -41t57 -145t-76 -174t-207 -70q-132 0 -192 109q-10 19 -10 39t18 38q17 18 45 18t64 -35q36 -36 96 -36q113 0 113 105q0 72 -82 71q-45 0 -91 -15t-65 -15t-38 21t1 75l64 190q18 57 80 58h252q27 -1 43 -17t16 -45q1 -29 -23 -48t-59 -19h-211
l-26 -80q38 16 106 16z" />
    <glyph glyph-name="six.numerator" horiz-adv-x="583" 
d="M444 899q111 0 111 100q0 70 -76 70q-31 0 -63 -18t-43 -39q-4 -16 -4 -35q-1 -78 75 -78zM529 1188q83 0 133 -46t49 -124q0 -112 -79 -180t-198 -68q-207 0 -207 219q0 188 91 303t235 115q98 0 152 -47q25 -22 25 -50t-19 -47q-34 -36 -82 -11q-47 26 -95 26t-85 -35
t-50 -102q47 47 130 47z" />
    <glyph glyph-name="seven.numerator" horiz-adv-x="536" 
d="M332 1264q-25 0 -40 16q-16 16 -16 43t24 49t54 23h316q25 -1 41 -17t14 -39q-18 -149 -114 -233q-40 -35 -80 -67q-96 -77 -117 -189q-6 -30 -31 -52t-55 -22t-46 18q-18 18 -16 46q8 82 52 146t92 100q130 94 143 178h-221z" />
    <glyph glyph-name="eight.numerator" horiz-adv-x="565" 
d="M467 1044q-104 0 -105 -83q0 -57 78 -58q104 0 105 82q0 59 -78 59zM499 1286q-75 0 -75 -72q0 -45 63 -45q86 0 86 68q1 49 -74 49zM432 770q-226 0 -227 162q0 127 131 182q-62 30 -62 110t74 132t171 51q97 0 151 -38t55 -109q0 -102 -102 -146q75 -37 75 -131
t-76 -154q-76 -59 -190 -59z" />
    <glyph glyph-name="nine.numerator" horiz-adv-x="583" 
d="M522 1278q-111 0 -110 -100q0 -70 75 -70q31 0 63 18t44 39q4 16 4 35q0 78 -76 78zM437 989q-83 0 -132 46t-49 124q0 113 79 181t197 67q207 0 207 -219q0 -188 -91 -303t-234 -115q-98 0 -152 47q-24 23 -24 51t18 47q35 35 82 9q47 -25 95 -25t85 35t49 102
q-47 -47 -130 -47z" />
    <glyph glyph-name="zero.denominator" horiz-adv-x="612" 
d="M305 -27q-223 0 -223 217q0 180 80 300t248 120q223 0 223 -217q0 -180 -80 -300t-248 -120zM326 106q82 0 116 77t35 186q0 109 -88 108q-82 0 -117 -77q-34 -78 -34 -186t88 -108z" />
    <glyph glyph-name="one.denominator" horiz-adv-x="466" 
d="M293 -16q-31 0 -50 22t-14 53l62 347l-74 -41q-45 -22 -79 12q-22 20 -22 55t42 57l200 107q26 12 50 12t43 -22q18 -23 14 -54l-84 -473q-5 -31 -31 -53t-57 -22z" />
    <glyph glyph-name="two.denominator" horiz-adv-x="591" 
d="M380 625q116 0 170 -46q56 -46 56 -122t-55 -131t-123 -80q-180 -66 -190 -115h256q25 0 40 -16t15 -43q0 -28 -25 -50t-55 -22h-342q-27 0 -45 18t-16 45q8 77 50 133t97 84t111 50t92 48q37 26 37 60q0 53 -78 54q-45 0 -119 -58q-18 -14 -43 -14t-44 19t-19 48t32 60
q82 78 198 78z" />
    <glyph glyph-name="three.denominator" horiz-adv-x="565" 
d="M551 213q0 -104 -73 -172t-208 -68t-202 105q-27 48 7 82q17 18 47 18t48 -22q48 -54 112 -54t92 28t27 69q0 63 -65 63h-53q-20 0 -35 14q-14 14 -14 40t34 59l105 92h-164q-25 0 -40 16t-15 43q0 28 24 50t53 22h289q25 0 40 -16t15 -45t-30 -54l-123 -108
q129 -14 129 -162z" />
    <glyph glyph-name="four.denominator" horiz-adv-x="573" 
d="M244 238h94l24 137zM520 238q25 0 40 -16t15 -44q1 -28 -23 -50t-54 -22h-31l-8 -47q-6 -33 -31 -55q-26 -22 -58 -20q-32 0 -51 22q-18 23 -12 53l8 47h-202q-25 0 -41 18t-16 42q0 25 22 49l328 358q34 35 68 35t54 -22t13 -54l-52 -294h31z" />
    <glyph glyph-name="five.denominator" horiz-adv-x="557" 
d="M378 401q68 0 124 -41q57 -42 57 -146t-76 -174q-75 -70 -207 -69q-132 0 -192 109q-10 20 -10 40t18 38t45 18t63 -36t97 -36q113 0 113 105q0 72 -82 72q-45 1 -91 -15t-65 -16t-33 15t-14 35t10 46l64 191q18 57 80 57h251q27 0 43 -16q17 -16 17 -45t-24 -49t-58 -19
h-211l-27 -80q40 16 108 16z" />
    <glyph glyph-name="six.denominator" horiz-adv-x="583" 
d="M305 100q111 0 111 101q0 70 -76 69q-30 0 -62 -18t-45 -39q-4 -16 -4 -35q0 -78 76 -78zM390 389q83 0 132 -46t49 -124q-1 -113 -79 -181t-197 -67q-207 0 -207 219q0 188 91 304t235 114q98 0 151 -47q25 -23 25 -51t-18 -46q-36 -37 -83 -10q-47 26 -95 26t-85 -36
q-37 -35 -49 -102q47 47 130 47z" />
    <glyph glyph-name="seven.denominator" horiz-adv-x="497" 
d="M190 467q-26 0 -40 16t-14 43q0 28 23 50q24 22 54 22h315q25 0 41 -16t15 -39q-18 -150 -114 -234q-40 -35 -80 -67q-97 -76 -118 -189q-6 -31 -30 -53t-55 -20q-30 0 -47 18t-15 45q8 83 52 147t91 99q129 96 144 178h-222z" />
    <glyph glyph-name="eight.denominator" horiz-adv-x="565" 
d="M328 246q-104 0 -105 -84q0 -57 78 -58q104 0 105 82q0 60 -78 60zM360 487q-75 0 -75 -71q0 -45 63 -45q86 0 86 67q1 49 -74 49zM559 184q-1 -94 -77 -153q-76 -60 -190 -60q-226 0 -226 162q0 127 131 182q-61 31 -61 111t74 131q75 51 171 51t150 -38t55 -109
q0 -102 -103 -146q76 -37 76 -131z" />
    <glyph glyph-name="nine.denominator" horiz-adv-x="583" 
d="M379 479q-111 0 -111 -100q0 -70 76 -70q31 1 63 19t44 39q4 16 4 34q0 78 -76 78zM294 190q-83 0 -132 46t-49 124q0 113 78 181q79 68 198 67q207 0 207 -219q0 -188 -91 -303t-235 -115q-98 0 -151 47q-25 23 -25 52t18 47t42 18q24 1 56 -17t80 -18t85 35t49 103
q-47 -48 -130 -48z" />
    <glyph glyph-name="a.salt" horiz-adv-x="1036" 
d="M537 162q145 0 218 125t72 284q0 199 -182 199q-102 0 -171 -67q-120 -117 -120 -341q1 -200 183 -200zM478 -27q-169 -1 -259 91t-90 276q0 278 142 448t350 170q91 0 157 -38t92 -86q8 48 46 80t84 32t73 -32t19 -78l-131 -742q-9 -47 -47 -79q-38 -31 -84 -31t-72 32
t-19 76q-92 -119 -261 -119z" />
    <glyph glyph-name="aacute.salt" horiz-adv-x="1036" 
d="M690 1053q-53 -41 -95 1t7 91l209 221q25 29 61 28t64 -34q59 -72 -12 -127zM537 162q145 0 218 125t72 284q0 199 -182 199q-102 0 -171 -67q-120 -117 -120 -341q1 -200 183 -200zM478 -27q-169 -1 -259 91t-90 276q0 278 142 448t350 170q91 0 157 -38t92 -86
q8 48 46 80t84 32t73 -32t19 -78l-131 -742q-9 -47 -47 -79q-38 -31 -84 -31t-72 32t-19 76q-92 -119 -261 -119z" />
    <glyph glyph-name="abreve.salt" horiz-adv-x="1036" 
d="M967 1364q29 0 46 -18t17 -46q0 -111 -92 -170t-218 -59q-263 0 -261 182q0 51 25 81q26 30 60 30t50 -18t16 -46l-2 -30q0 -60 127 -60t145 77t87 77zM537 162q145 0 218 125t72 284q0 199 -182 199q-102 0 -171 -67q-120 -117 -120 -341q1 -200 183 -200zM478 -27
q-169 -1 -259 91t-90 276q0 278 142 448t350 170q91 0 157 -38t92 -86q8 48 46 80t84 32t73 -32t19 -78l-131 -742q-9 -47 -47 -79q-38 -31 -84 -31t-72 32t-19 76q-92 -119 -261 -119z" />
    <glyph glyph-name="acircumflex.salt" horiz-adv-x="1036" 
d="M751 1346q24 0 46 -17l159 -129q31 -26 31 -62q-1 -36 -23 -59t-54 -23t-52 17l-125 103l-168 -105q-20 -14 -52 -14q-33 -1 -55 23t-22 65t43 63l215 119q33 19 57 19zM537 162q145 0 218 125t72 284q0 199 -182 199q-102 0 -171 -67q-120 -117 -120 -341
q1 -200 183 -200zM478 -27q-169 -1 -259 91t-90 276q0 278 142 448t350 170q91 0 157 -38t92 -86q8 48 46 80t84 32t73 -32t19 -78l-131 -742q-9 -47 -47 -79q-38 -31 -84 -31t-72 32t-19 76q-92 -119 -261 -119z" />
    <glyph glyph-name="adieresis.salt" horiz-adv-x="1036" 
d="M883 1067q-86 0 -86 82q0 131 123 131q86 0 86 -82q0 -63 -32 -97t-91 -34zM512 1067q-86 0 -86 82q0 131 123 131q86 0 86 -82q0 -63 -32 -97t-91 -34zM537 162q145 0 218 125t72 284q0 199 -182 199q-102 0 -171 -67q-120 -117 -120 -341q1 -200 183 -200zM478 -27
q-169 -1 -259 91t-90 276q0 278 142 448t350 170q91 0 157 -38t92 -86q8 48 46 80t84 32t73 -32t19 -78l-131 -742q-9 -47 -47 -79q-38 -31 -84 -31t-72 32t-19 76q-92 -119 -261 -119z" />
    <glyph glyph-name="agrave.salt" horiz-adv-x="1036" 
d="M854 1143q31 -49 -13 -90t-85 0l-189 180q-25 20 -20 58q4 38 41 69q85 62 125 2zM537 162q145 0 218 125t72 284q0 199 -182 199q-102 0 -171 -67q-120 -117 -120 -341q1 -200 183 -200zM478 -27q-169 -1 -259 91t-90 276q0 278 142 448t350 170q91 0 157 -38t92 -86
q8 48 46 80t84 32t73 -32t19 -78l-131 -742q-9 -47 -47 -79q-38 -31 -84 -31t-72 32t-19 76q-92 -119 -261 -119z" />
    <glyph glyph-name="amacron.salt" horiz-adv-x="1036" 
d="M911 1229q29 1 47 -19t19 -52q0 -32 -29 -58t-63 -27h-355q-29 -1 -47 19t-18 52t29 58t63 27h354zM537 162q145 0 218 125t72 284q0 199 -182 199q-102 0 -171 -67q-120 -117 -120 -341q1 -200 183 -200zM478 -27q-169 -1 -259 91t-90 276q0 278 142 448t350 170
q91 0 157 -38t92 -86q8 48 46 80t84 32t73 -32t19 -78l-131 -742q-9 -47 -47 -79q-38 -31 -84 -31t-72 32t-19 76q-92 -119 -261 -119z" />
    <glyph glyph-name="aogonek.salt" horiz-adv-x="1036" 
d="M537 162q145 0 218 125t72 284q0 199 -182 199q-102 0 -171 -67q-120 -117 -120 -341q1 -200 183 -200zM956 -244q52 0 52 -57q0 -29 -39 -57t-137 -27q-98 0 -159 37t-61 112q0 76 52 140t116 92q-53 33 -41 96q-92 -119 -261 -119q-169 -1 -259 91t-90 276
q0 278 142 448t350 170q91 0 157 -38t92 -86q8 48 46 80t84 32t73 -32t19 -78l-131 -742q-10 -57 -68 -94q-141 -86 -141 -180q0 -78 98 -78q28 0 60 7t46 7z" />
    <glyph glyph-name="aring.salt" horiz-adv-x="1036" 
d="M770 1432q184 0 184 -154q0 -112 -68 -182t-188 -70q-184 0 -184 154q0 112 68 182t188 70zM717 1128q59 0 91 36t32 96q0 70 -88 69q-60 0 -92 -36t-31 -95q0 -70 88 -70zM537 162q145 0 218 125t72 284q0 199 -182 199q-102 0 -171 -67q-120 -117 -120 -341
q1 -200 183 -200zM478 -27q-169 -1 -259 91t-90 276q0 278 142 448t350 170q91 0 157 -38t92 -86q8 48 46 80t84 32t73 -32t19 -78l-131 -742q-9 -47 -47 -79q-38 -31 -84 -31t-72 32t-19 76q-92 -119 -261 -119z" />
    <glyph glyph-name="aringacute.salt" horiz-adv-x="1036" 
d="M766 1419q184 0 184 -153q0 -111 -68 -182t-188 -70q-184 0 -184 153q0 111 68 181t188 71zM713 1116q59 0 91 36t32 95q0 70 -88 70q-60 0 -92 -36t-31 -95q0 -70 88 -70zM768 1475q-53 -41 -95 1t7 91l209 221q25 29 61 28t64 -34q59 -72 -13 -127zM537 162
q145 0 218 125t72 284q0 199 -182 199q-102 0 -171 -67q-120 -117 -120 -341q1 -200 183 -200zM478 -27q-169 -1 -259 91t-90 276q0 278 142 448t350 170q91 0 157 -38t92 -86q8 48 46 80t84 32t73 -32t19 -78l-131 -742q-9 -47 -47 -79q-38 -31 -84 -31t-72 32t-19 76
q-92 -119 -261 -119z" />
    <glyph glyph-name="atilde.salt" horiz-adv-x="1036" 
d="M612 1296q61 0 140 -34t107 -35q28 0 59 34q30 33 64 33t58 -22t23 -53q0 -30 -12 -50q-57 -94 -195 -94q-63 0 -142 35t-107 35q-27 0 -57 -34t-65 -34t-59 23q-24 22 -23 52q0 30 13 50q57 94 196 94zM537 162q145 0 218 125t72 284q0 199 -182 199q-102 0 -171 -67
q-120 -117 -120 -341q1 -200 183 -200zM478 -27q-169 -1 -259 91t-90 276q0 278 142 448t350 170q91 0 157 -38t92 -86q8 48 46 80t84 32t73 -32t19 -78l-131 -742q-9 -47 -47 -79q-38 -31 -84 -31t-72 32t-19 76q-92 -119 -261 -119z" />
    <glyph glyph-name="c_t" horiz-adv-x="1542" 
d="M1276 1087q0 135 -172 136q-88 -1 -140 -51q-109 -105 15 -361q16 -37 16 -67q1 -30 -29 -60q-30 -29 -73 -29t-72 35q-73 80 -193 80t-197 -117t-77 -291q0 -201 178 -200q81 0 138 38q60 35 69 44q33 20 67 20t62 -28t29 -71q0 -44 -45 -79q-144 -113 -336 -113
q-192 1 -290 95t-97 276q0 260 137 437t408 177q129 0 209 -63q-103 115 -103 233t104 199q104 80 267 80q164 0 255 -73t91 -206q0 -35 -8 -84l-21 -114h95q33 0 55 -23t20 -61q0 -38 -32 -69q-32 -32 -76 -32h-92l-86 -477q-4 -20 -4 -41t20 -36t51 -15t54 -24t23 -64
q0 -41 -35 -73q-34 -32 -95 -31q-117 0 -177 59t-61 162q0 27 7 57l86 483h-47q-33 0 -56 23q-22 22 -22 60t33 70q34 32 77 32h45l21 112q4 33 4 45z" />
    <glyph glyph-name="at.case" horiz-adv-x="1648" 
d="M748 608q0 -61 30 -102t80 -41q86 0 146 65q59 66 79 179l37 194q-59 39 -121 39q-109 0 -180 -89t-71 -245zM1296 483q104 1 164 95t60 280t-125 294t-346 108q-309 0 -491 -172t-181 -513q0 -225 124 -341q123 -116 363 -116t418 97q24 12 52 12q28 1 48 -21t21 -54
q0 -57 -62 -91q-223 -115 -524 -115t-466 158q-165 156 -165 445q0 422 240 652t651 231q289 0 461 -148t172 -418q0 -159 -67 -304t-205 -206q-78 -34 -168 -34t-138 42t-55 99q-33 -43 -59 -68t-84 -49q-57 -24 -129 -24q-111 0 -172 74t-62 196q0 217 121 358t301 142
q100 0 162 -58q27 47 73 47q46 -1 66 -25t15 -61l-78 -422q-8 -45 10 -67t55 -23z" />
    <glyph glyph-name="g.salt" horiz-adv-x="1017" 
d="M803 602q0 80 -45 124t-123 44q-131 0 -206 -118t-75 -290q0 -201 172 -200q54 0 110 26t85 52l27 26l51 283q4 18 4 53zM466 -27q-146 0 -242 90q-95 90 -95 267q0 280 145 454t394 174q168 0 264 -80t96 -233q0 -49 -8 -96l-92 -518q-78 -442 -510 -443q-121 0 -211 41
t-133 107q-12 20 -12 54t28 63q29 29 67 29t62 -21q99 -84 213 -84t181 53t83 147l15 78q-99 -82 -245 -82z" />
    <glyph glyph-name="gcircumflex.salt" horiz-adv-x="1017" 
d="M760 1346q22 0 45 -17l160 -129q31 -26 31 -62t-24 -59q-22 -23 -54 -23t-52 17l-125 103l-168 -105q-23 -14 -53 -14q-30 -1 -54 23q-22 24 -22 65t43 63l215 119q36 19 58 19zM803 602q0 80 -45 124t-123 44q-131 0 -206 -118t-75 -290q0 -201 172 -200q54 0 110 26
t85 52l27 26l51 283q4 18 4 53zM466 -27q-146 0 -242 90q-95 90 -95 267q0 280 145 454t394 174q168 0 264 -80t96 -233q0 -49 -8 -96l-92 -518q-78 -442 -510 -443q-121 0 -211 41t-133 107q-12 20 -12 54t28 63q29 29 67 29t62 -21q99 -84 213 -84t181 53t83 147l15 78
q-99 -82 -245 -82z" />
    <glyph glyph-name="gbreve.salt" horiz-adv-x="1017" 
d="M971 1364q29 0 46 -18t17 -46q0 -111 -92 -170t-218 -59q-263 0 -261 182q0 51 25 81q26 30 60 30t50 -18t16 -46l-2 -30q0 -60 127 -60t145 77t87 77zM803 602q0 80 -45 124t-123 44q-131 0 -206 -118t-75 -290q0 -201 172 -200q54 0 110 26t85 52l27 26l51 283
q4 18 4 53zM466 -27q-146 0 -242 90q-95 90 -95 267q0 280 145 454t394 174q168 0 264 -80t96 -233q0 -49 -8 -96l-92 -518q-78 -442 -510 -443q-121 0 -211 41t-133 107q-12 20 -12 54t28 63q29 29 67 29t62 -21q99 -84 213 -84t181 53t83 147l15 78q-99 -82 -245 -82z" />
    <glyph glyph-name="gdotaccent.salt" horiz-adv-x="1017" 
d="M707 1100q-92 0 -93 82q0 133 129 133q90 0 91 -84q0 -131 -127 -131zM803 602q0 80 -45 124t-123 44q-131 0 -206 -118t-75 -290q0 -201 172 -200q54 0 110 26t85 52l27 26l51 283q4 18 4 53zM466 -27q-146 0 -242 90q-95 90 -95 267q0 280 145 454t394 174
q168 0 264 -80t96 -233q0 -49 -8 -96l-92 -518q-78 -442 -510 -443q-121 0 -211 41t-133 107q-12 20 -12 54t28 63q29 29 67 29t62 -21q99 -84 213 -84t181 53t83 147l15 78q-99 -82 -245 -82z" />
    <glyph glyph-name="gcommaaccent.salt" horiz-adv-x="1017" 
d="M680 1063q-90 0 -90 84q0 111 72 219t161 170q17 10 31 10t24 -11t11 -27q0 -16 -17 -29q-96 -84 -96 -160q0 -27 16 -68t17 -81q0 -40 -34 -74q-34 -33 -95 -33zM803 602q0 80 -45 124t-123 44q-131 0 -206 -118t-75 -290q0 -201 172 -200q54 0 110 26t85 52l27 26
l51 283q4 18 4 53zM466 -27q-146 0 -242 90q-95 90 -95 267q0 280 145 454t394 174q168 0 264 -80t96 -233q0 -49 -8 -96l-92 -518q-78 -442 -510 -443q-121 0 -211 41t-133 107q-12 20 -12 54t28 63q29 29 67 29t62 -21q99 -84 213 -84t181 53t83 147l15 78
q-99 -82 -245 -82z" />
    <glyph glyph-name="e.salt" horiz-adv-x="964" 
d="M639 770q-199 0 -250 -199h406q4 29 4 45q0 68 -40 111t-120 43zM131 330q-1 284 147 456t383 172t317 -158q40 -77 40 -185q0 -109 -36 -169t-126 -59h-506q-4 -20 -4 -45q0 -170 199 -170q104 0 211 64q79 47 133 -7q29 -29 29 -71t-44 -77q-44 -36 -138 -72t-218 -36
q-178 -1 -282 91t-105 266z" />
    <glyph glyph-name="eacute.salt" horiz-adv-x="964" 
d="M666 1053q-54 -41 -96 1t8 91l208 221q25 29 62 28t63 -34q59 -72 -12 -127zM639 770q-199 0 -250 -199h406q4 29 4 45q0 68 -40 111t-120 43zM131 330q-1 284 147 456t383 172t317 -158q40 -77 40 -185q0 -109 -36 -169t-126 -59h-506q-4 -20 -4 -45q0 -170 199 -170
q104 0 211 64q79 47 133 -7q29 -29 29 -71t-44 -77q-44 -36 -138 -72t-218 -36q-178 -1 -282 91t-105 266z" />
    <glyph glyph-name="egrave.salt" horiz-adv-x="964" 
d="M846 1143q30 -49 -14 -90t-84 0l-189 180q-25 20 -20 58q4 38 41 69q84 60 125 2zM639 770q-199 0 -250 -199h406q4 29 4 45q0 68 -40 111t-120 43zM131 330q-1 284 147 456t383 172t317 -158q40 -77 40 -185q0 -109 -36 -169t-126 -59h-506q-4 -20 -4 -45
q0 -170 199 -170q104 0 211 64q79 47 133 -7q29 -29 29 -71t-44 -77q-44 -36 -138 -72t-218 -36q-178 -1 -282 91t-105 266z" />
    <glyph glyph-name="ecircumflex.salt" horiz-adv-x="964" 
d="M744 1346q22 0 44 -17l160 -129q31 -26 31 -62t-23 -59q-22 -23 -54 -23t-52 17l-125 103l-168 -105q-20 -14 -52 -14q-33 -1 -55 23t-22 65t43 63l215 119q36 19 58 19zM639 770q-199 0 -250 -199h406q4 29 4 45q0 68 -40 111t-120 43zM131 330q-1 284 147 456t383 172
t317 -158q40 -77 40 -185q0 -109 -36 -169t-126 -59h-506q-4 -20 -4 -45q0 -170 199 -170q104 0 211 64q79 47 133 -7q29 -29 29 -71t-44 -77q-44 -36 -138 -72t-218 -36q-178 -1 -282 91t-105 266z" />
    <glyph glyph-name="edieresis.salt" horiz-adv-x="964" 
d="M879 1067q-86 0 -86 82q0 131 122 131q86 0 86 -82q1 -63 -31 -97t-91 -34zM508 1067q-86 0 -86 82q0 131 123 131q86 0 86 -82q0 -63 -32 -97t-91 -34zM639 770q-199 0 -250 -199h406q4 29 4 45q0 68 -40 111t-120 43zM131 330q-1 284 147 456t383 172t317 -158
q40 -77 40 -185q0 -109 -36 -169t-126 -59h-506q-4 -20 -4 -45q0 -170 199 -170q104 0 211 64q79 47 133 -7q29 -29 29 -71t-44 -77q-44 -36 -138 -72t-218 -36q-178 -1 -282 91t-105 266z" />
    <glyph glyph-name="emacron.salt" horiz-adv-x="964" 
d="M903 1229q29 1 47 -19t19 -52q0 -32 -29 -58t-63 -27h-355q-29 -1 -47 19t-18 52q1 32 29 58t63 27h354zM639 770q-199 0 -250 -199h406q4 29 4 45q0 68 -40 111t-120 43zM131 330q-1 284 147 456t383 172t317 -158q40 -77 40 -185q0 -109 -36 -169t-126 -59h-506
q-4 -20 -4 -45q0 -170 199 -170q104 0 211 64q79 47 133 -7q29 -29 29 -71t-44 -77q-44 -36 -138 -72t-218 -36q-178 -1 -282 91t-105 266z" />
    <glyph glyph-name="ebreve.salt" horiz-adv-x="964" 
d="M963 1364q29 0 46 -18t17 -46q0 -111 -92 -170t-219 -59q-262 0 -260 182q0 51 25 81q26 30 60 30t50 -18t16 -46l-2 -30q0 -60 127 -60t145 77t87 77zM639 770q-199 0 -250 -199h406q4 29 4 45q0 68 -40 111t-120 43zM131 330q-1 284 147 456t383 172t317 -158
q40 -77 40 -185q0 -109 -36 -169t-126 -59h-506q-4 -20 -4 -45q0 -170 199 -170q104 0 211 64q79 47 133 -7q29 -29 29 -71t-44 -77q-44 -36 -138 -72t-218 -36q-178 -1 -282 91t-105 266z" />
    <glyph glyph-name="edotaccent.salt" horiz-adv-x="964" 
d="M700 1100q-92 0 -92 82q0 133 129 133q90 0 90 -84q0 -131 -127 -131zM639 770q-199 0 -250 -199h406q4 29 4 45q0 68 -40 111t-120 43zM131 330q-1 284 147 456t383 172t317 -158q40 -77 40 -185q0 -109 -36 -169t-126 -59h-506q-4 -20 -4 -45q0 -170 199 -170
q104 0 211 64q79 47 133 -7q29 -29 29 -71t-44 -77q-44 -36 -138 -72t-218 -36q-178 -1 -282 91t-105 266z" />
    <glyph glyph-name="eogonek.salt" horiz-adv-x="964" 
d="M639 770q-199 0 -250 -199h406q4 29 4 45q0 68 -40 111t-120 43zM670 -258l110 14q18 0 33 -14q14 -14 14 -37q0 -90 -184 -90q-90 0 -150 37t-61 115q0 119 137 210q-29 -4 -51 -4q-178 -1 -282 91t-105 266q-1 284 147 456t383 172t317 -158q40 -77 40 -185
q0 -109 -36 -169t-126 -59h-506q-4 -20 -4 -45q0 -170 199 -170q104 0 211 64q79 47 133 -7q29 -29 29 -71t-33 -68q-33 -28 -118 -72t-140 -93q-55 -48 -56 -105q0 -78 99 -78z" />
    <glyph glyph-name="ecaron.salt" horiz-adv-x="964" 
d="M694 1057q-22 0 -45 16l-160 129q-31 25 -31 61q0 35 24 59q22 24 54 24t52 -17l125 -102l168 104q20 15 52 15q33 0 55 -24t22 -64t-43 -64l-215 -119q-36 -18 -58 -18zM639 770q-199 0 -250 -199h406q4 29 4 45q0 68 -40 111t-120 43zM131 330q-1 284 147 456t383 172
t317 -158q40 -77 40 -185q0 -109 -36 -169t-126 -59h-506q-4 -20 -4 -45q0 -170 199 -170q104 0 211 64q79 47 133 -7q29 -29 29 -71t-44 -77q-44 -36 -138 -72t-218 -36q-178 -1 -282 91t-105 266z" />
    <glyph glyph-name="f.salt" horiz-adv-x="659" 
d="M256 745q-34 0 -56 23q-22 22 -22 60t34 70t77 32h41l20 110q29 158 140 260q112 102 315 103q35 0 59 -24q24 -23 23 -63q0 -40 -35 -73q-34 -33 -98 -33t-115 -42t-64 -111l-22 -127h137q32 0 54 -23t22 -61t-33 -69q-33 -32 -76 -32h-139l-115 -655q-8 -45 -45 -76
q-37 -30 -85 -30q-47 0 -73 30t-18 76l115 655h-41z" />
    <glyph glyph-name="y.salt" horiz-adv-x="925" 
d="M53 -207q92 0 158 66t147 207l-184 737q-4 12 -4 45q0 34 32 66t77 32t73 -26t35 -54l131 -559l322 576q35 63 91 63t88 -33t32 -71t-15 -62l-536 -848q-106 -168 -219 -256t-265 -88q-38 0 -64 25t-26 69t38 77q38 34 89 34z" />
    <glyph glyph-name="ydieresis.salt" horiz-adv-x="925" 
d="M53 -207q92 0 158 66t147 207l-184 737q-4 12 -4 45q0 34 32 66t77 32t73 -26t35 -54l131 -559l322 576q35 63 91 63t88 -33t32 -71t-15 -62l-536 -848q-106 -168 -219 -256t-265 -88q-38 0 -64 25t-26 69t38 77q38 34 89 34z" />
    <glyph glyph-name="yacute.salt" horiz-adv-x="925" 
d="M53 -207q92 0 158 66t147 207l-184 737q-4 12 -4 45q0 34 32 66t77 32t73 -26t35 -54l131 -559l322 576q35 63 91 63t88 -33t32 -71t-15 -62l-536 -848q-106 -168 -219 -256t-265 -88q-38 0 -64 25t-26 69t38 77q38 34 89 34z" />
    <glyph glyph-name="ycircumflex.salt" horiz-adv-x="925" 
d="M53 -207q92 0 158 66t147 207l-184 737q-4 12 -4 45q0 34 32 66t77 32t73 -26t35 -54l131 -559l322 576q35 63 91 63t88 -33t32 -71t-15 -62l-536 -848q-106 -168 -219 -256t-265 -88q-38 0 -64 25t-26 69t38 77q38 34 89 34z" />
    <glyph glyph-name="ygrave.salt" horiz-adv-x="925" 
d="M53 -207q92 0 158 66t147 207l-184 737q-4 12 -4 45q0 34 32 66t77 32t73 -26t35 -54l131 -559l322 576q35 63 91 63t88 -33t32 -71t-15 -62l-536 -848q-106 -168 -219 -256t-265 -88q-38 0 -64 25t-26 69t38 77q38 34 89 34z" />
    <glyph glyph-name="f_b.salt" horiz-adv-x="1673" 
d="M256 745q-34 0 -56 23q-22 22 -22 60t34 70t77 32h41l20 110q29 160 140 262q112 101 315 101q117 0 208 -26q91 -27 138 -59t37 -93l-62 -348q94 81 245 81t244 -90t93 -266q0 -289 -138 -459t-382 -170q-170 0 -274 81q-103 81 -103 235q0 51 8 94l137 784
q-98 33 -184 33q-170 0 -197 -143l-22 -127h137q32 0 54 -23t22 -61t-33 -69q-33 -32 -76 -32h-139l-115 -655q-8 -45 -45 -76q-37 -30 -85 -30q-47 0 -73 30t-18 76l115 655h-41zM1032 309q0 -147 170 -147q131 0 207 117t76 290q0 201 -174 201q-66 0 -121 -27t-78 -51
l-22 -26l-50 -273q-8 -43 -8 -84z" />
    <glyph glyph-name="f_f_b.salt" horiz-adv-x="2301" 
d="M1661 309q0 -147 170 -147q131 0 207 117t76 290q0 201 -175 201q-67 0 -121 -27t-77 -51l-23 -26l-49 -273q-8 -43 -8 -84zM256 745q-34 0 -56 23q-22 22 -22 60t34 70t77 32h41l20 110q29 158 140 260q112 102 315 103q35 0 59 -24q24 -23 23 -63q0 -40 -35 -73
q-34 -33 -98 -33t-115 -42t-64 -111l-22 -127h405l21 110q29 160 140 262q112 101 326 101t333 -82q49 -35 39 -96l-62 -348q94 81 245 81t244 -90t93 -266q0 -289 -138 -459t-382 -170q-170 0 -274 81q-103 81 -103 235q0 51 8 94l137 784q-98 33 -184 33q-170 0 -197 -143
l-22 -127h137q33 0 55 -23t21 -61q0 -38 -33 -69q-33 -32 -76 -32h-139l-115 -655q-8 -45 -45 -76q-37 -30 -85 -30t-74 29q-25 30 -17 77l115 655h-408l-115 -655q-8 -45 -45 -76q-37 -30 -85 -30q-47 0 -73 30t-18 76l115 655h-41z" />
    </font>
</defs>
</svg>
